<svg width="24" height="24" viewBox="0 0 24 24" fill="none" xmlns="http://www.w3.org/2000/svg">
<path fill-rule="evenodd" clip-rule="evenodd" d="M10.2931 3.28948C10.6835 2.8991 11.3164 2.89893 11.7069 3.28908C11.8692 3.45116 12.1321 3.45116 12.2944 3.28908C12.6849 2.89893 13.3178 2.8991 13.7082 3.28948C14.0985 3.67985 14.0987 4.31271 13.7086 4.7033C13.5465 4.86556 13.5465 5.12844 13.7086 5.2907C14.0987 5.68129 14.0985 6.31415 13.7082 6.70452C13.3178 7.09489 12.6849 7.09507 12.2944 6.70491C12.1321 6.54283 11.8692 6.54283 11.7069 6.70491C11.3164 7.09507 10.6835 7.09489 10.2931 6.70452C9.90276 6.31415 9.90258 5.68129 10.2927 5.2907C10.4548 5.12844 10.4548 4.86556 10.2927 4.7033C9.90258 4.31271 9.90276 3.67985 10.2931 3.28948Z" fill="#191A1D"/>
<path fill-rule="evenodd" clip-rule="evenodd" d="M17.2961 3.28948C17.6864 2.8991 18.3193 2.89893 18.7099 3.28908C18.8721 3.45116 19.135 3.45116 19.2973 3.28908C19.6879 2.89893 20.3207 2.8991 20.7111 3.28948C21.1015 3.67985 21.1017 4.31271 20.7115 4.7033C20.5494 4.86556 20.5494 5.12844 20.7115 5.2907C21.1017 5.68129 21.1015 6.31415 20.7111 6.70452C20.3207 7.09489 19.6879 7.09507 19.2973 6.70491C19.135 6.54283 18.8721 6.54283 18.7099 6.70491C18.3193 7.09507 17.6864 7.09489 17.2961 6.70452C16.9057 6.31415 16.9055 5.68129 17.2957 5.2907C17.4577 5.12844 17.4577 4.86556 17.2957 4.7033C16.9055 4.31271 16.9057 3.67985 17.2961 3.28948Z" fill="#191A1D"/>
<path fill-rule="evenodd" clip-rule="evenodd" d="M11.294 9.16949C12.2707 8.19279 13.854 8.194 14.83 9.16993C15.8059 10.1459 15.8071 11.7292 14.8304 12.7059L7.26599 20.2703C6.2893 21.247 4.70594 21.2458 3.73001 20.2699C2.75409 19.294 2.75288 17.7106 3.72957 16.7339L11.294 9.16949ZM13.4158 10.5841C13.2201 10.3885 12.9031 10.3888 12.7082 10.5837L5.14378 18.1481C4.94891 18.343 4.94858 18.66 5.14423 18.8557C5.33987 19.0513 5.6569 19.051 5.85178 18.8561L13.4162 11.2917C13.6111 11.0968 13.6114 10.7798 13.4158 10.5841Z" fill="#191A1D"/>
<path fill-rule="evenodd" clip-rule="evenodd" d="M17.2961 10.2924C17.6864 9.90202 18.3193 9.90184 18.7099 10.292C18.8721 10.4541 19.135 10.4541 19.2973 10.292C19.6879 9.90184 20.3207 9.90202 20.7111 10.2924C21.1015 10.6828 21.1017 11.3156 20.7115 11.7062C20.5494 11.8685 20.5494 12.1314 20.7115 12.2936C21.1017 12.6842 21.1015 13.3171 20.7111 13.7074C20.3207 14.0978 19.6879 14.098 19.2973 13.7078C19.135 13.5457 18.8721 13.5457 18.7099 13.7078C18.3193 14.098 17.6864 14.0978 17.2961 13.7074C16.9057 13.3171 16.9055 12.6842 17.2957 12.2936C17.4577 12.1314 17.4577 11.8685 17.2957 11.7062C16.9055 11.3156 16.9057 10.6828 17.2961 10.2924Z" fill="#191A1D"/>
</svg>
