<svg width="24" height="24" viewBox="0 0 24 24" fill="none" xmlns="http://www.w3.org/2000/svg">
<path fill-rule="evenodd" clip-rule="evenodd" d="M13.4472 9.10557C13.9412 9.35256 14.1414 9.95323 13.8944 10.4472L11.8944 14.4472C11.6474 14.9412 11.0468 15.1414 10.5528 14.8944C10.0588 14.6474 9.85858 14.0468 10.1056 13.5528L12.1056 9.55279C12.3526 9.05881 12.9532 8.85858 13.4472 9.10557Z" fill="#191A1D"/>
<path fill-rule="evenodd" clip-rule="evenodd" d="M15.2929 9.29289C15.6834 8.90237 16.3166 8.90237 16.7071 9.29289L18.7071 11.2929C19.0976 11.6834 19.0976 12.3166 18.7071 12.7071L16.7071 14.7071C16.3166 15.0976 15.6834 15.0976 15.2929 14.7071C14.9024 14.3166 14.9024 13.6834 15.2929 13.2929L16.5858 12L15.2929 10.7071C14.9024 10.3166 14.9024 9.68342 15.2929 9.29289Z" fill="#191A1D"/>
<path fill-rule="evenodd" clip-rule="evenodd" d="M8.70711 9.29289C9.09763 9.68342 9.09763 10.3166 8.70711 10.7071L7.41421 12L8.70711 13.2929C9.09763 13.6834 9.09763 14.3166 8.70711 14.7071C8.31658 15.0976 7.68342 15.0976 7.29289 14.7071L5.29289 12.7071C4.90237 12.3166 4.90237 11.6834 5.29289 11.2929L7.29289 9.29289C7.68342 8.90237 8.31658 8.90237 8.70711 9.29289Z" fill="#191A1D"/>
<path fill-rule="evenodd" clip-rule="evenodd" d="M17.6568 6.34314C14.5327 3.21895 9.46734 3.21895 6.34315 6.34315C3.21895 9.46732 3.21895 14.5326 6.34315 17.6568C9.46732 20.781 14.5326 20.781 17.6568 17.6568C20.781 14.5327 20.781 9.46734 17.6568 6.34314ZM19.0707 4.92863C15.1655 1.02369 8.83407 1.02379 4.92893 4.92893ZM19.0707 4.92863C19.0708 4.92873 19.0706 4.92852 19.0707 4.92863C22.976 8.83387 22.9763 15.1658 19.071 19.071C15.1658 22.9763 8.83416 22.9763 4.92893 19.071C1.02369 15.1658 1.02369 8.83416 4.92893 4.92893" fill="#191A1D"/>
</svg>
