<svg width="24" height="24" viewBox="0 0 24 24" fill="none" xmlns="http://www.w3.org/2000/svg">
<path fill-rule="evenodd" clip-rule="evenodd" d="M4 5C4 3.34272 5.34272 2 7 2H14.172C14.9675 2 15.7308 2.31657 16.2931 2.87889L19.1211 5.70689C19.6834 6.26922 20 7.03249 20 7.828V19C20 20.6573 18.6573 22 17 22H7C5.34272 22 4 20.6573 4 19V5ZM7 4C6.44728 4 6 4.44728 6 5V19C6 19.5527 6.44728 20 7 20H17C17.5527 20 18 19.5527 18 19V7.828C18 7.56352 17.8946 7.30878 17.7069 7.12111L14.8789 4.29311C14.6912 4.10543 14.4365 4 14.172 4H7Z" fill="#191A1D"/>
<path fill-rule="evenodd" clip-rule="evenodd" d="M14 2C14.5523 2 15 2.44772 15 3V7H19C19.5523 7 20 7.44772 20 8C20 8.55228 19.5523 9 19 9H15C13.8957 9 13 8.10428 13 7V3C13 2.44772 13.4477 2 14 2Z" fill="#191A1D"/>
<path fill-rule="evenodd" clip-rule="evenodd" d="M7 11C7 10.4477 7.44772 10 8 10H14C14.5523 10 15 10.4477 15 11C15 11.5523 14.5523 12 14 12H8C7.44772 12 7 11.5523 7 11Z" fill="#191A1D"/>
<path fill-rule="evenodd" clip-rule="evenodd" d="M7 14C7 13.4477 7.44772 13 8 13H14C14.5523 13 15 13.4477 15 14C15 14.5523 14.5523 15 14 15H8C7.44772 15 7 14.5523 7 14Z" fill="#191A1D"/>
<path fill-rule="evenodd" clip-rule="evenodd" d="M7 17C7 16.4477 7.44772 16 8 16H12.33C12.8823 16 13.33 16.4477 13.33 17C13.33 17.5523 12.8823 18 12.33 18H8C7.44772 18 7 17.5523 7 17Z" fill="#191A1D"/>
</svg>
