<svg width="24" height="24" viewBox="0 0 24 24" fill="none" xmlns="http://www.w3.org/2000/svg">
<path fill-rule="evenodd" clip-rule="evenodd" d="M14.4539 10.5454C15.2195 9.77837 16.4607 9.77985 17.2259 10.5451L21.3471 14.6663C21.7377 15.0569 21.7377 15.69 21.3471 16.0805C20.9566 16.4711 20.3235 16.4711 19.9329 16.0805L15.84 11.9877L11.7471 16.0805C11.3566 16.4711 10.7235 16.4711 10.3329 16.0805C9.94241 15.69 9.94241 15.0569 10.3329 14.6663L14.4539 10.5454C14.454 10.5452 14.4537 10.5456 14.4539 10.5454Z" fill="#191A1D"/>
<path fill-rule="evenodd" clip-rule="evenodd" d="M6 4C4.89528 4 4 4.89528 4 6V18C4 19.1047 4.89529 20 6 20H18C19.1047 20 20 19.1047 20 18V6C20 4.89529 19.1047 4 18 4H6ZM2 6C2 3.79072 3.79072 2 6 2H18C20.2093 2 22 3.79071 22 6V18C22 20.2093 20.2093 22 18 22H6C3.79071 22 2 20.2093 2 18V6Z" fill="#191A1D"/>
<path fill-rule="evenodd" clip-rule="evenodd" d="M7.73374 13.4254C8.49942 12.6584 9.74055 12.6599 10.5058 13.4251L16.547 19.4663C16.9376 19.8569 16.9376 20.49 16.547 20.8806C16.1565 21.2711 15.5233 21.2711 15.1328 20.8806L9.11993 14.8677L4.49519 19.4924C4.10467 19.8829 3.4715 19.8829 3.08098 19.4924C2.69045 19.1019 2.69045 18.4687 3.08098 18.0782L7.73374 13.4254C7.73392 13.4252 7.73356 13.4256 7.73374 13.4254Z" fill="#191A1D"/>
<path fill-rule="evenodd" clip-rule="evenodd" d="M8.15847 7.69174C8.68958 7.16062 9.55069 7.16062 10.0818 7.69174C10.6129 8.22285 10.6129 9.08395 10.0818 9.61507C9.55069 10.1462 8.68958 10.1462 8.15847 9.61507C7.62736 9.08395 7.62736 8.22285 8.15847 7.69174Z" fill="#191A1D"/>
</svg>
