<svg width="24" height="24" viewBox="0 0 24 24" fill="none" xmlns="http://www.w3.org/2000/svg">
<path fill-rule="evenodd" clip-rule="evenodd" d="M4 5C4 3.34272 5.34272 2 7 2H14.172C14.9675 2 15.7308 2.31657 16.2931 2.87889L19.1211 5.70689C19.6834 6.26922 20 7.03249 20 7.828V19C20 20.6573 18.6573 22 17 22H7C5.34272 22 4 20.6573 4 19V5ZM7 4C6.44728 4 6 4.44728 6 5V19C6 19.5527 6.44728 20 7 20H17C17.5527 20 18 19.5527 18 19V7.828C18 7.56352 17.8946 7.30878 17.7069 7.12111L14.8789 4.29311C14.6912 4.10543 14.4365 4 14.172 4H7Z" fill="#191A1D"/>
<path fill-rule="evenodd" clip-rule="evenodd" d="M14 2C14.5523 2 15 2.44772 15 3V7H19C19.5523 7 20 7.44772 20 8C20 8.55228 19.5523 9 19 9H15C13.8957 9 13 8.10428 13 7V3C13 2.44772 13.4477 2 14 2Z" fill="#191A1D"/>
<path fill-rule="evenodd" clip-rule="evenodd" d="M9.34 16.55C9.34 15.9977 9.78772 15.55 10.34 15.55H13.66C14.2123 15.55 14.66 15.9977 14.66 16.55C14.66 17.1023 14.2123 17.55 13.66 17.55H10.34C9.78772 17.55 9.34 17.1023 9.34 16.55Z" fill="#191A1D"/>
<path fill-rule="evenodd" clip-rule="evenodd" d="M11.833 12V12.334H12.167V12H11.833ZM9.833 11.583C9.833 10.7087 10.5417 10 11.416 10H12.584C13.4583 10 14.167 10.7087 14.167 11.583V12.751C14.167 13.6253 13.4583 14.334 12.584 14.334H11.4129C10.5428 14.3313 9.833 13.626 9.833 12.751V11.583Z" fill="#191A1D"/>
<path fill-rule="evenodd" clip-rule="evenodd" d="M9 16.666V17H9.334V16.666H9ZM7 16.249C7 15.3747 7.70872 14.666 8.583 14.666H9.751C10.6253 14.666 11.334 15.3747 11.334 16.249V17.417C11.334 18.2913 10.6253 19 9.751 19H8.583C7.70872 19 7 18.2913 7 17.417V16.249Z" fill="#191A1D"/>
<path fill-rule="evenodd" clip-rule="evenodd" d="M14.667 16.666V17H15.001V16.666H14.667ZM12.667 16.249C12.667 15.3747 13.3757 14.666 14.25 14.666H15.418C16.2923 14.666 17.001 15.3747 17.001 16.249V17.4201C16.9983 18.2914 16.2919 19 15.417 19H14.249C13.3746 19 12.667 18.2902 12.667 17.417V16.249Z" fill="#191A1D"/>
<path fill-rule="evenodd" clip-rule="evenodd" d="M12.191 12.4677C12.6563 12.17 13.2747 12.3058 13.5723 12.771L15.0823 15.131C15.38 15.5963 15.2442 16.2147 14.779 16.5123C14.3137 16.81 13.6953 16.6742 13.3977 16.209L11.8877 13.849C11.59 13.3837 11.7258 12.7653 12.191 12.4677Z" fill="#191A1D"/>
<path fill-rule="evenodd" clip-rule="evenodd" d="M11.809 12.4677C12.2742 12.7653 12.41 13.3837 12.1123 13.849L10.6023 16.209C10.3047 16.6742 9.68626 16.81 9.22105 16.5123C8.75584 16.2147 8.62001 15.5963 8.91766 15.131L10.4277 12.771C10.7253 12.3058 11.3437 12.17 11.809 12.4677Z" fill="#191A1D"/>
</svg>
