<svg width="24" height="24" viewBox="0 0 24 24" fill="none" xmlns="http://www.w3.org/2000/svg">
<path fill-rule="evenodd" clip-rule="evenodd" d="M6.70689 2.87889C7.26922 2.31657 8.03248 2 8.828 2H20C21.1043 2 22 2.89572 22 4V15.172C22 15.9675 21.6834 16.7308 21.1211 17.2931L17.2931 21.1211C16.7308 21.6834 15.9675 22 15.172 22H4C2.89572 22 2 21.1043 2 20V8.828C2 8.03248 2.31657 7.26922 2.87889 6.70689L6.70689 2.87889ZM8.828 4C8.56352 4 8.30878 4.10543 8.12111 4.29311L4.29311 8.12111C4.10543 8.30878 4 8.56352 4 8.828V20H15.172C15.4365 20 15.6912 19.8946 15.8789 19.7069L19.7069 15.8789C19.8946 15.6912 20 15.4365 20 15.172V4H8.828Z" fill="#191A1D"/>
<path fill-rule="evenodd" clip-rule="evenodd" d="M8 2.18597C8.55228 2.18597 9 2.63369 9 3.18597V8.99997C9 9.55226 8.55228 9.99997 8 9.99997H3C2.44772 9.99997 2 9.55226 2 8.99997C2 8.44769 2.44772 7.99997 3 7.99997H7V3.18597C7 2.63369 7.44772 2.18597 8 2.18597Z" fill="#191A1D"/>
<path fill-rule="evenodd" clip-rule="evenodd" d="M15 15C15 14.4477 15.4477 14 16 14H21C21.5523 14 22 14.4477 22 15C22 15.5523 21.5523 16 21 16H17V20.814C17 21.3663 16.5523 21.814 16 21.814C15.4477 21.814 15 21.3663 15 20.814V15Z" fill="#191A1D"/>
<path fill-rule="evenodd" clip-rule="evenodd" d="M21.3018 2.49486C21.7299 2.84377 21.7941 3.47367 21.4452 3.90178L16.7752 9.63178C16.4262 10.0599 15.7963 10.1241 15.3682 9.77518C14.9401 9.42627 14.8759 8.79637 15.2248 8.36826L19.8948 2.63826C20.2438 2.21015 20.8737 2.14594 21.3018 2.49486Z" fill="#191A1D"/>
<path fill-rule="evenodd" clip-rule="evenodd" d="M8.63184 14.2248C9.05995 14.5738 9.12415 15.2037 8.77524 15.6318L4.10524 21.3618C3.75633 21.7899 3.12642 21.8541 2.69831 21.5052C2.27021 21.1562 2.206 20.5263 2.55492 20.0982L7.22492 14.3682C7.57383 13.9401 8.20373 13.8759 8.63184 14.2248Z" fill="#191A1D"/>
<path fill-rule="evenodd" clip-rule="evenodd" d="M7 9C7 8.44772 7.44772 8 8 8H16C16.5523 8 17 8.44772 17 9V15C17 15.5523 16.5523 16 16 16H8C7.44772 16 7 15.5523 7 15V9ZM9 10V14H15V10H9Z" fill="#191A1D"/>
</svg>
