<svg width="24" height="24" viewBox="0 0 24 24" fill="none" xmlns="http://www.w3.org/2000/svg">
<path fill-rule="evenodd" clip-rule="evenodd" d="M18.9505 7.29908C19.5675 6.91872 20.342 6.90197 20.9749 7.2553C21.6078 7.60864 22 8.27676 22 9.00161V9.00161V15.9984C22 16.7232 21.6078 17.3914 20.975 17.7447C20.3421 18.098 19.5676 18.0813 18.9506 17.701L15.4753 15.5587C15.0051 15.2689 14.8589 14.6529 15.1487 14.1827C15.4385 13.7126 16.0546 13.5664 16.5247 13.8562L20 15.9984V9.00161L16.5247 11.1438C16.0546 11.4336 15.4385 11.2874 15.1487 10.8172C14.8589 10.3471 15.0051 9.73103 15.4753 9.44123L18.9505 7.29908V7.29908Z" fill="#191A1D"/>
<path fill-rule="evenodd" clip-rule="evenodd" d="M2 9C2 6.79086 3.79086 5 6 5H13C15.2091 5 17 6.79086 17 9V16C17 18.2091 15.2091 20 13 20H6C3.79086 20 2 18.2091 2 16V9ZM6 7C4.89543 7 4 7.89543 4 9V16C4 17.1046 4.89543 18 6 18H13C14.1046 18 15 17.1046 15 16V9C15 7.89543 14.1046 7 13 7H6Z" fill="#191A1D"/>
</svg>
