<svg width="24" height="24" viewBox="0 0 24 24" fill="none" xmlns="http://www.w3.org/2000/svg">
<path fill-rule="evenodd" clip-rule="evenodd" d="M8.99888 3.99609C8.44614 3.99609 7.99805 4.44418 7.99805 4.99693V6.99776C7.99805 7.55005 7.55033 7.99776 6.99805 7.99776C6.44576 7.99776 5.99805 7.55005 5.99805 6.99776V4.99693C5.99805 3.33961 7.34157 1.99609 8.99888 1.99609H19.003C20.6604 1.99609 22.0039 3.33961 22.0039 4.99693V19.0028C22.0039 20.6601 20.6604 22.0036 19.003 22.0036H8.99888C7.34157 22.0036 5.99805 20.6601 5.99805 19.0028V17.0019C5.99805 16.4496 6.44576 16.0019 6.99805 16.0019C7.55033 16.0019 7.99805 16.4496 7.99805 17.0019V19.0028C7.99805 19.5555 8.44614 20.0036 8.99888 20.0036H19.003C19.5558 20.0036 20.0039 19.5555 20.0039 19.0028V4.99693C20.0039 4.44418 19.5558 3.99609 19.003 3.99609H8.99888Z" fill="#191A1D"/>
<path fill-rule="evenodd" clip-rule="evenodd" d="M2.99658 8.9978C2.99658 7.34094 4.33973 5.9978 5.99658 5.9978H12.0008C13.6576 5.9978 15.0007 7.34095 15.0007 8.9978V15.002C15.0007 16.6588 13.6576 18.002 12.0007 18.002H5.99658C4.33972 18.002 2.99658 16.6588 2.99658 15.002V8.9978ZM5.99658 7.9978C5.4443 7.9978 4.99658 8.44552 4.99658 8.9978V15.002C4.99658 15.5543 5.4443 16.002 5.99658 16.002H12.0007C12.553 16.002 13.0007 15.5543 13.0007 15.002V8.9978C13.0007 8.44552 12.553 7.9978 12.0008 7.9978H5.99658Z" fill="#191A1D"/>
<path fill-rule="evenodd" clip-rule="evenodd" d="M13.001 9.07864C13.001 8.52635 13.4487 8.07864 14.001 8.07864H21.0039C21.5562 8.07864 22.0039 8.52635 22.0039 9.07864C22.0039 9.63092 21.5562 10.0786 21.0039 10.0786H14.001C13.4487 10.0786 13.001 9.63092 13.001 9.07864Z" fill="#191A1D"/>
<path fill-rule="evenodd" clip-rule="evenodd" d="M13.0007 15.002C13.0007 14.4497 13.4487 14.0011 14.001 14.0011H21.0039C21.5562 14.0011 22.0039 14.4488 22.0039 15.0011C22.0039 15.5534 21.5562 16.0011 21.0039 16.0011H14.001C13.4487 16.0011 13.0007 15.5543 13.0007 15.002Z" fill="#191A1D"/>
<path fill-rule="evenodd" clip-rule="evenodd" d="M14.0012 1.99609C14.5535 1.99609 15.0012 2.44381 15.0012 2.99609V21.0036C15.0012 21.5559 14.5535 22.0036 14.0012 22.0036C13.4489 22.0036 13.0012 21.5559 13.0012 21.0036V2.99609C13.0012 2.44381 13.4489 1.99609 14.0012 1.99609Z" fill="#191A1D"/>
<path fill-rule="evenodd" clip-rule="evenodd" d="M6.91464 9.48989C7.33396 9.13047 7.96526 9.17903 8.32469 9.59835L11.3259 13.0998C11.6854 13.5191 11.6368 14.1504 11.2175 14.5099C10.7981 14.8693 10.1668 14.8207 9.80742 14.4014L6.80617 10.8999C6.44675 10.4806 6.49531 9.84931 6.91464 9.48989Z" fill="#191A1D"/>
<path fill-rule="evenodd" clip-rule="evenodd" d="M11.2175 9.48989C11.6368 9.84931 11.6854 10.4806 11.3259 10.8999L8.32469 14.4014C7.96526 14.8207 7.33396 14.8693 6.91464 14.5099C6.49531 14.1504 6.44675 13.5191 6.80617 13.0998L9.80742 9.59835C10.1668 9.17903 10.7981 9.13047 11.2175 9.48989Z" fill="#191A1D"/>
</svg>
