<svg width="24" height="24" viewBox="0 0 24 24" fill="none" xmlns="http://www.w3.org/2000/svg">
<path fill-rule="evenodd" clip-rule="evenodd" d="M4 5C4 3.34272 5.34272 2 7 2H14.172C14.9675 2 15.7308 2.31657 16.2931 2.87889L19.1211 5.70689C19.6834 6.26922 20 7.03249 20 7.828V19C20 20.6573 18.6573 22 17 22H7C5.34272 22 4 20.6573 4 19V5ZM7 4C6.44728 4 6 4.44728 6 5V19C6 19.5527 6.44728 20 7 20H17C17.5527 20 18 19.5527 18 19V7.828C18 7.56352 17.8946 7.30878 17.7069 7.12111L14.8789 4.29311C14.6912 4.10543 14.4365 4 14.172 4H7Z" fill="#191A1D"/>
<path fill-rule="evenodd" clip-rule="evenodd" d="M14 2C14.5523 2 15 2.44772 15 3V7H19C19.5523 7 20 7.44772 20 8C20 8.55228 19.5523 9 19 9H15C13.8957 9 13 8.10428 13 7V3C13 2.44772 13.4477 2 14 2Z" fill="#191A1D"/>
<path fill-rule="evenodd" clip-rule="evenodd" d="M10.3302 5.05413C10.2282 5.01905 10.1188 5 10.0049 5C9.89098 5 9.78152 5.01905 9.67952 5.05413C9.54498 5.09992 9.41134 5.17708 9.29415 5.29427C9.0805 5.50793 8.99988 5.77626 8.99988 6.005C8.99988 6.23375 9.0805 6.50208 9.29415 6.71574C9.50781 6.92939 9.77614 7.01 10.0049 7.01C10.2336 7.01 10.502 6.92939 10.7156 6.71574C10.9293 6.50208 11.0099 6.23375 11.0099 6.005C11.0099 5.77626 10.9293 5.50793 10.7156 5.29427C10.5984 5.17708 10.4648 5.09992 10.3302 5.05413Z" fill="#191A1D"/>
<path fill-rule="evenodd" clip-rule="evenodd" d="M10.3205 8.05413C10.2185 8.01905 10.109 8 9.99512 8C9.88121 8 9.77175 8.01905 9.66975 8.05413C9.53522 8.09992 9.40158 8.17708 9.28439 8.29427C9.07073 8.50793 8.99012 8.77626 8.99012 9.005C8.99012 9.23375 9.07073 9.50208 9.28439 9.71574C9.49804 9.92939 9.76637 10.01 9.99512 10.01C10.2239 10.01 10.4922 9.92939 10.7058 9.71574C10.9195 9.50208 11.0001 9.23375 11.0001 9.005C11.0001 8.77626 10.9195 8.50793 10.7058 8.29427C10.5887 8.17708 10.455 8.09992 10.3205 8.05413Z" fill="#191A1D"/>
<path fill-rule="evenodd" clip-rule="evenodd" d="M10.3302 11.0441C10.2282 11.009 10.1188 10.99 10.0049 10.99C9.89098 10.99 9.78152 11.009 9.67952 11.0441C9.54498 11.0899 9.41134 11.1671 9.29415 11.2843C9.0805 11.4979 8.99988 11.7662 8.99988 11.995C8.99988 12.2237 9.0805 12.4921 9.29415 12.7057C9.50781 12.9194 9.77614 13 10.0049 13C10.2336 13 10.502 12.9194 10.7156 12.7057C10.9293 12.4921 11.0099 12.2237 11.0099 11.995C11.0099 11.7662 10.9293 11.4979 10.7156 11.2843C10.5984 11.1671 10.4648 11.0899 10.3302 11.0441Z" fill="#191A1D"/>
<path fill-rule="evenodd" clip-rule="evenodd" d="M10.3205 14.0541C10.2185 14.019 10.109 14 9.99512 14C9.88121 14 9.77175 14.019 9.66975 14.0541C9.53522 14.0999 9.40158 14.1771 9.28439 14.2943C9.07073 14.5079 8.99012 14.7763 8.99012 15.005C8.99012 15.2338 9.07073 15.5021 9.28439 15.7157C9.49804 15.9294 9.76637 16.01 9.99512 16.01C10.2239 16.01 10.4922 15.9294 10.7058 15.7157C10.9195 15.5021 11.0001 15.2338 11.0001 15.005C11.0001 14.7763 10.9195 14.5079 10.7058 14.2943C10.5887 14.1771 10.455 14.0999 10.3205 14.0541Z" fill="#191A1D"/>
<path fill-rule="evenodd" clip-rule="evenodd" d="M10.3302 17.0441C10.2282 17.009 10.1188 16.99 10.0049 16.99C9.89098 16.99 9.78152 17.009 9.67952 17.0441C9.54498 17.0899 9.41134 17.1671 9.29415 17.2843C9.0805 17.4979 8.99988 17.7662 8.99988 17.995C8.99988 18.2237 9.0805 18.4921 9.29415 18.7057C9.50781 18.9194 9.77614 19 10.0049 19C10.2336 19 10.502 18.9194 10.7156 18.7057C10.9293 18.4921 11.0099 18.2237 11.0099 17.995C11.0099 17.7662 10.9293 17.4979 10.7156 17.2843C10.5984 17.1671 10.4648 17.0899 10.3302 17.0441Z" fill="#191A1D"/>
</svg>
