<svg width="36" height="36" viewBox="0 0 36 36" fill="none" xmlns="http://www.w3.org/2000/svg">
<path fill-rule="evenodd" clip-rule="evenodd" d="M19.1875 5.20756C19.7012 4.91038 20.0469 4.35493 20.0469 3.71875C20.0469 2.76951 19.2774 2 18.3281 2C17.3789 2 16.6094 2.76951 16.6094 3.71875C16.6094 4.35493 16.955 4.91038 17.4688 5.20756V7.15625H12.3125C6.61706 7.15625 2 11.7733 2 17.4688C2 23.1642 6.61706 27.7812 12.3125 27.7812H19.6172C22.625 27.7812 20.4766 32.5966 19.6172 33.0707C25.4493 31.5446 30.352 27.721 33.2999 22.625H33.2766C34.1541 21.1082 34.6562 19.3471 34.6562 17.4688C34.6562 11.7733 30.0392 7.15625 24.3438 7.15625H19.1875V5.20756ZM12.3125 8.875C7.5663 8.875 3.71875 12.7226 3.71875 17.4688C3.71875 22.2149 7.5663 26.0625 12.3125 26.0625H24.3438C29.0899 26.0625 32.9375 22.2149 32.9375 17.4688C32.9375 12.7226 29.0899 8.875 24.3438 8.875H12.3125ZM6.29688 17.4688C6.29688 14.1464 8.99016 11.4531 12.3125 11.4531H24.3438C27.6661 11.4531 30.3594 14.1464 30.3594 17.4688C30.3594 20.7911 27.6661 23.4844 24.3438 23.4844H12.3125C8.99016 23.4844 6.29688 20.7911 6.29688 17.4688ZM14.8906 17.4688C14.8906 18.418 14.1211 19.1875 13.1719 19.1875C12.2226 19.1875 11.4531 18.418 11.4531 17.4688C11.4531 16.5195 12.2226 15.75 13.1719 15.75C14.1211 15.75 14.8906 16.5195 14.8906 17.4688ZM23.4844 19.1875C24.4336 19.1875 25.2031 18.418 25.2031 17.4688C25.2031 16.5195 24.4336 15.75 23.4844 15.75C22.5351 15.75 21.7656 16.5195 21.7656 17.4688C21.7656 18.418 22.5351 19.1875 23.4844 19.1875Z" fill="white"/>
</svg>
