<svg width="2400" height="1024" viewBox="0 0 2400 1024" fill="none" xmlns="http://www.w3.org/2000/svg">
<g clip-path="url(#clip0_3463_9343)">
<rect width="2400" height="1024" fill="#E9ECF1"/>
<rect width="2400" height="1024" fill="#F6F7FB"/>
<g opacity="0.25">
<path opacity="0.05" fill-rule="evenodd" clip-rule="evenodd" d="M491.958 377.22C458.62 428.041 393.552 476.1 379.264 537.004C371.574 569.847 384.047 562.322 407.963 573.104C431.611 583.743 435.013 606.051 438.848 629.74C445.755 672.232 445.569 718.662 469.588 756.309C510.823 820.903 612.713 823.068 680.771 822.573C902.88 820.985 1125.26 755.752 1342.05 753.814C1548.01 751.98 1774.1 806.553 1983.59 773.195C2031.88 765.504 2118.53 745.877 2141.54 694.561C2151.42 672.541 2143.91 644.337 2145.05 621.122C2146.57 589.495 2155.87 559.064 2177.83 535.457C2195.54 516.386 2218.98 509.562 2223.41 480.883C2229.74 439.876 2183.11 410.249 2163.05 380.065C2131.09 331.986 2129.03 264.794 2103.86 211.56C2089.11 180.367 2071.11 149.544 2038.29 136.039C2004.52 122.164 1964.13 125.545 1928.63 126.906C1833.32 130.514 1737.28 116.309 1643.02 131.153C1538.12 147.668 1422.46 154.265 1330.83 167.172C1245.77 179.171 1134.56 137.524 1039.96 125.587C952.671 114.577 888.634 163.502 807.917 186.469C723.119 210.591 607.353 204.736 534.966 259.619C488.804 294.627 518.761 336.274 491.917 377.199L491.958 377.22Z" stroke="url(#paint0_linear_3463_9343)" stroke-linecap="round" stroke-linejoin="round"/>
<path opacity="0.1" fill-rule="evenodd" clip-rule="evenodd" d="M512.514 377.591C481.814 429.526 418.664 472.224 401.881 531.21C393.037 562.301 406.5 553.312 428.56 564.218C447.61 573.64 452.126 591.227 456.6 610.772C465.919 651.615 466.393 695.798 489.422 732.434C529.44 796.121 624.733 805.131 692.77 807.007C906.323 812.883 1123.71 751.815 1329.8 747.238C1432.04 744.97 1540.51 757.443 1645.8 764.742C1752.6 772.164 1865.35 782.926 1971.37 762.391C2020.07 752.969 2098.33 728.703 2120.6 677.778C2130.14 655.944 2123.92 628.379 2126.31 605.308C2129.56 573.95 2140.92 547.395 2163.25 524.984C2180.3 507.871 2194.14 501.253 2199.21 475.337C2207.77 431.588 2166.1 400.105 2144.99 367.221C2114.33 319.492 2112.16 255.29 2086.76 203.252C2072.41 173.851 2054.85 146.204 2023.06 135.627C1988.27 124.061 1946.22 130.122 1910.44 131.73C1821.3 135.771 1732.13 121.071 1643.7 134.04C1538.67 149.441 1424.37 160.038 1331 172.388C1244.84 183.789 1138.76 142.699 1044.29 132.122C967.268 123.504 909.437 164.965 838.493 186.758C751.488 213.478 640.031 209.416 563.088 261.31C512.245 295.596 538.45 333.614 512.493 377.529L512.514 377.591Z" stroke="url(#paint1_linear_3463_9343)" stroke-linecap="round" stroke-linejoin="round"/>
<path opacity="0.15" fill-rule="evenodd" clip-rule="evenodd" d="M533.564 378.21C506.081 428.928 439.735 468.822 424.272 524.716C416.107 554.24 427.323 543.251 449.074 554.776C468.228 564.919 472.64 585.001 477.691 604.587C488.227 645.533 492.886 692.21 522.369 725.28C565.129 773.236 646.464 786.101 706.543 790.121C911.643 803.894 1124.52 747.774 1321.14 741.197C1511.13 734.847 1721.18 785.503 1917.99 758.742C1979.55 750.371 2056.85 727.816 2092.97 671.572C2106.06 651.182 2102.87 625.988 2105.46 603.041C2108.91 572.548 2118.41 547.147 2139.58 524.613C2156.9 506.16 2169.56 497.996 2175.31 471.255C2185.25 425.011 2148.64 391.899 2126.35 356.252C2097.09 309.472 2094.99 247.909 2069.49 197.479C2034.21 127.69 1980.28 132.844 1910.36 136.122C1821.65 140.287 1732.44 125.277 1644.38 136.761C1539.07 150.492 1426.04 165.295 1331.12 177.192C1244.3 188.057 1143.85 146.987 1049.8 138.905C975.969 132.555 916.179 174.408 847.296 194.283C762.415 218.776 651.062 217.21 578.695 272.526C537.296 304.173 555.068 338.542 533.585 378.23L533.564 378.21Z" stroke="url(#paint2_linear_3463_9343)" stroke-linecap="round" stroke-linejoin="round"/>
<path opacity="0.2" fill-rule="evenodd" clip-rule="evenodd" d="M555.067 379.096C529.564 429.732 477.485 461.318 451.198 510.82C436.972 537.622 440.807 529.952 462.042 542.323C481.752 553.807 487.793 561.785 496.164 584.217C510.658 623.06 514.905 667.14 543.769 699.509C586.199 747.073 661.473 765.36 721.737 772.081C918.508 794.08 1127.3 743.629 1315.64 735.527C1499.44 727.61 1703.98 778.37 1894.86 750.701C1958.92 741.403 2029.92 717.033 2066.62 659.119C2079.59 638.667 2080.02 618.235 2083.92 594.959C2093.15 539.911 2141.56 517.994 2152.24 465.957C2161.89 418.826 2129.73 383.941 2107.09 346.974C2081.01 304.359 2078.08 249.208 2056.19 202.942C2022.77 132.308 1970.94 138.307 1901.35 141.379C1809.94 145.42 1718.89 128.947 1628.01 141.4C1528.26 155.09 1422.27 170.594 1331.12 181.5C1252.01 190.984 1161.56 160.203 1077.26 148.286C1002.63 137.751 948.341 174.14 879.294 195.458C792.31 222.302 685.08 222.549 608.054 274.484C562.366 305.286 576.468 336.604 555.047 379.096H555.067Z" stroke="url(#paint3_linear_3463_9343)" stroke-linecap="round" stroke-linejoin="round"/>
<path opacity="0.25" fill-rule="evenodd" clip-rule="evenodd" d="M576.984 380.189C553.191 429.052 503.648 458.514 474.062 503.294C459.445 525.417 460.785 520.056 479.444 531.19C499.071 542.9 506.37 547.312 516.802 569.909C533.976 607.123 541.068 649.306 571.561 679.407C617.414 724.662 686.131 745.485 747.901 754.371C934.198 781.215 1134.14 739.156 1312.92 730.146C1494.99 720.971 1702.48 776.947 1890.71 739.877C1979.31 722.435 2038.35 671.758 2061.4 587.516C2075.57 535.746 2122.58 510.284 2130.72 456.431C2137.56 411.177 2109.03 374.931 2087.42 339.222C2062.58 298.132 2060 244.816 2038.07 200.427C2004.69 132.906 1948.17 145.297 1882.69 147.42C1797.63 150.162 1713.49 132.968 1628.71 143.441C1528.57 155.811 1423.49 174.8 1331.12 185.459C1252.43 194.551 1166.47 164.141 1083.16 154.76C1011.93 146.76 955.64 184.346 889.046 203.829C807.299 227.745 712.583 232.033 638.444 276.608C589.004 306.338 598.797 335.367 576.963 380.209L576.984 380.189Z" stroke="url(#paint4_linear_3463_9343)" stroke-linecap="round" stroke-linejoin="round"/>
<path opacity="0.3" fill-rule="evenodd" clip-rule="evenodd" d="M599.271 381.488C576.757 429.505 525.317 454.04 496.123 496.862C481.279 518.634 482.907 507.974 500.102 520.448C519.091 534.2 528.76 537.643 540.8 561.064C562.634 603.535 577.19 640.729 616.734 670.871C670.916 712.188 732.108 731.156 798.784 741.259C967.454 766.824 1150.16 734.187 1312.59 725.012C1489.59 715.013 1693.84 772.741 1875.73 730.826C1962.9 710.745 2009 653.367 2039.74 575.558C2058.04 529.21 2097.4 506.779 2107.73 455.05C2116.89 409.135 2089.13 369.117 2067.38 332.852C2043.84 293.617 2042.15 241.579 2019.72 199.685C1988.98 142.348 1940.36 151.605 1882.9 152.987C1798 155.028 1713.94 136.06 1629.39 145.297C1528.84 156.286 1424.54 178.552 1331.08 189.026C1253.6 197.706 1171.3 168.512 1089.69 161.275C1028.19 155.832 979.144 187.912 921.869 205.685C839.194 231.353 746.54 237.208 669.679 278.855C617.105 307.348 621.476 334.171 599.292 381.467L599.271 381.488Z" stroke="url(#paint5_linear_3463_9343)" stroke-linecap="round" stroke-linejoin="round"/>
<path opacity="0.35" fill-rule="evenodd" clip-rule="evenodd" d="M621.888 382.952C600.281 430.083 546.45 449.195 518.245 490.223C509.009 503.645 503.421 496.862 512.225 508.366C513.895 510.552 533.955 513.871 537.996 516.345C547.336 522.077 553.212 531.684 559.377 540.323C586.715 578.568 602.075 614.834 640.155 645.553C691.801 687.2 749.488 709.755 814.02 723.26C976.072 757.196 1156.37 729.692 1314.19 720.002C1477.32 709.982 1658.32 758.02 1826.31 729.136C1923.39 712.456 1971.04 656.522 2013.94 574.712C2037.39 530.014 2073.16 507.005 2084.87 454.535C2095.32 407.713 2069.26 364.87 2047.01 327.78C2024.79 290.71 2023.55 239.868 2001.08 200.551C1970.67 147.358 1917.08 159.419 1863.79 159.358C1777.13 159.254 1693.65 138.307 1606.9 149.771C1513.91 162.038 1418.29 182.82 1330.94 192.366C1255.08 200.654 1176.2 172.697 1096.66 167.934C1038.09 164.429 986.875 198.448 931.806 214.777C850.141 238.981 760.353 246.919 685.307 289.617C640.299 315.224 641.083 341.016 621.867 382.931L621.888 382.952Z" stroke="url(#paint6_linear_3463_9343)" stroke-linecap="round" stroke-linejoin="round"/>
<path opacity="0.4" fill-rule="evenodd" clip-rule="evenodd" d="M644.814 384.58C624.362 429.67 574.386 448.143 541.522 482.76C533.667 491.027 526.513 488.079 531.255 497.212C532.327 499.274 553.604 502.284 556.841 503.934C566.881 509.047 573.767 517.376 581.066 525.623C612.322 560.961 633.661 596.794 671.411 627.41C720.645 667.346 776.167 691.633 837.4 707.013C991.514 745.732 1165.28 725.074 1317.33 715.116C1475.36 704.766 1651.22 753.711 1812.55 721.425C1870.1 709.92 1922.24 684.953 1949.47 630.338C1961.37 606.463 1975.99 587.062 1992.05 565.187C2005.14 547.353 2023.76 536.199 2036.66 519.108C2051.26 499.769 2060.93 467.297 2064.66 443.381C2071.4 400.229 2046.7 357.634 2026.42 323.904C2006.77 291.246 2004.81 246.321 1986.5 210.591C1960.85 160.553 1913.48 166.656 1863.89 165.811C1777.34 164.326 1694.25 140.72 1607.45 151.276C1514.08 162.636 1419.01 186.016 1330.83 195.5C1263.27 202.757 1193.03 183.129 1122.58 176.264C1062.89 170.45 1020.15 199.829 964.629 217.168C882.304 242.899 793.898 252.156 716.48 291.968C668.875 316.44 664.751 340.624 644.814 384.56V384.58Z" stroke="url(#paint7_linear_3463_9343)" stroke-linecap="round" stroke-linejoin="round"/>
<path opacity="0.45" fill-rule="evenodd" clip-rule="evenodd" d="M667.988 386.312C645.886 435.01 585.828 451.999 549.975 485.749C579.829 492.161 596.446 504.14 616.981 526.901C661.184 575.929 708.295 623.163 767.384 654.46C932.074 741.65 1146.33 722.208 1321.58 710.23C1475.85 699.694 1650.69 751.794 1805.98 712.188C1867.02 696.622 1899.95 665.985 1928.73 611.844C1939.74 591.124 1950.75 577.805 1967.8 561.167C1983.99 545.374 2005.14 534.096 2017.22 514.758C2028.79 496.243 2037.41 468.183 2041.71 446.679C2050.7 401.878 2026.91 356.067 2005.68 321.038C1987.16 290.504 1985.78 245.971 1967.22 212.901C1941.64 167.316 1889.68 174.614 1844.2 172.078C1764.04 167.604 1688.93 143.833 1607.93 152.822C1514.16 163.213 1419.61 189.088 1330.67 198.51C1264.96 205.478 1197.36 186.985 1128.95 182.49C1072.02 178.738 1027.26 210.798 973.927 226.797C898.427 249.455 819.814 260.629 747.962 294.4C698.275 317.76 688.729 340.666 668.009 386.312H667.988Z" stroke="url(#paint8_linear_3463_9343)" stroke-linecap="round" stroke-linejoin="round"/>
<path opacity="0.5" fill-rule="evenodd" clip-rule="evenodd" d="M691.389 388.126C671.411 431.917 613.93 455.009 572.407 475.935C661.081 503.81 714.274 593.536 796.31 638.275C955.269 724.971 1153.94 717.487 1326.5 705.24C1467.59 695.22 1619.02 737.321 1761.32 711.879C1815.71 702.148 1864.86 679.015 1892.76 629.266C1909.74 598.979 1910.92 580.898 1939.33 561.27C1983.35 530.86 2007.22 502.531 2019.28 447.731C2029.26 402.435 2006.48 354.376 1984.77 319.059C1967.39 290.772 1966.28 246.465 1947.66 216.117C1925.8 180.47 1880.96 182.305 1843.93 179.315C1763.86 172.862 1689.59 146.327 1608.26 154.389C1514.14 163.708 1420.13 192.077 1330.42 201.396C1265.23 208.159 1198.72 189.17 1131.03 188.613C1081.49 188.201 1040.62 218.9 994.009 232.982C917.684 256.032 838.864 268.32 766.271 302.792C721.449 324.069 710.336 346.603 691.368 388.168L691.389 388.126Z" stroke="url(#paint9_linear_3463_9343)" stroke-linecap="round" stroke-linejoin="round"/>
<path opacity="0.55" fill-rule="evenodd" clip-rule="evenodd" d="M714.975 390.003C696.007 430.804 637.681 453.999 595.849 467.276C683.121 496.408 737.097 571.208 815.299 618.215C968.732 710.415 1159.63 712.601 1331.72 700.065C1469.11 690.045 1619.04 735.259 1755.71 703.859C1798.53 694.024 1836.68 673.758 1861.48 636.564C1881.25 606.917 1881.54 574.568 1914.49 558.281C1964.01 533.787 1989.72 495.707 1999.02 439.36C2006.03 396.827 1984.23 350.417 1963.88 317.76C1947.87 292.05 1946.79 246.795 1927.93 219.993C1905.54 188.18 1857.73 189.356 1823.34 184.799C1740.93 173.893 1669.92 147.111 1585.13 158.698C1498.82 170.47 1410.19 193.376 1330.19 204.2C1275.68 211.581 1212.9 197.953 1154.53 195.582C1103.14 193.5 1072.15 220.529 1025.08 235.456C949.043 259.557 870.759 272.855 797.238 305.039C750.725 325.388 734.809 347.242 714.913 390.044L714.975 390.003Z" stroke="url(#paint10_linear_3463_9343)" stroke-linecap="round" stroke-linejoin="round"/>
<path opacity="0.6" fill-rule="evenodd" clip-rule="evenodd" d="M738.685 391.941C720.48 430.206 661.04 452.308 620.012 459.421C650.649 470.987 676.957 478.698 704.666 498.264C756.415 534.797 800.371 579.578 854.677 613.019C996.029 700.045 1176.16 706.725 1336.77 694.705C1468.45 684.85 1611.54 729.878 1741.22 697.839C1781.83 687.798 1816.02 666.707 1839.32 631.554C1859.93 600.422 1859.25 566.012 1896.01 554.198C1989.55 524.2 1985.39 383.694 1943.08 317.141C1928.67 294.483 1927.17 253.97 1911.31 229.621C1892.8 201.211 1852.96 198.613 1822.57 192.696C1741.16 176.8 1670.09 149.317 1585.29 160.306C1498.72 171.522 1410.72 196.366 1330.01 207.045C1276.9 214.076 1216.65 201.499 1159.94 201.54C1110.43 201.561 1076.87 231.229 1031 245.27C931.146 275.783 786.558 291.432 738.705 391.982L738.685 391.941Z" stroke="url(#paint11_linear_3463_9343)" stroke-linecap="round" stroke-linejoin="round"/>
<path opacity="0.65" fill-rule="evenodd" clip-rule="evenodd" d="M762.518 393.858C745.777 428.165 683.74 452.741 645 452.411C670.71 463.627 697.203 468.492 721.882 483.399C774.332 515.046 817.814 560.899 868.759 595.185C1005.29 687.097 1181.93 701.096 1341.31 688.953C1461.83 679.778 1585.43 715.343 1705.26 696.313C1746.64 689.736 1783.13 672.438 1809.65 639.348C1833.67 609.37 1840.55 569.991 1873.58 553.477C1903.04 538.735 1912.36 534.921 1929.29 503.604C1941.37 481.255 1953.76 457.4 1957 431.835C1962.01 392.167 1941.72 346.686 1922.38 316.894C1908.9 296.112 1906.86 255.413 1891.13 233.497C1872.82 207.973 1828.53 203.458 1800.84 196.716C1725.8 178.449 1664.81 152.286 1585.27 162.017C1498.49 172.635 1411.16 199.334 1329.74 209.87C1278.07 216.55 1219.97 205.004 1165.01 207.54C1123.28 209.457 1096.97 233.291 1059.26 247.311C961.784 283.576 811.319 293.823 762.518 393.837V393.858Z" stroke="url(#paint12_linear_3463_9343)" stroke-linecap="round" stroke-linejoin="round"/>
<path opacity="0.7" fill-rule="evenodd" clip-rule="evenodd" d="M786.393 395.775C770.352 427.856 707.078 450.494 670.833 446.473C698.996 460.699 729.633 465.812 756.786 483.316C807.958 516.324 851.461 560.28 902.633 593.536C1031.28 677.139 1196.45 694.396 1344.81 682.871C1459.09 674.005 1577.25 709.446 1691.28 691.014C1731.4 684.52 1762.76 666.995 1789.34 636.461C1809.11 613.741 1821.34 570.836 1845.09 553.374C1856.49 545.003 1872.34 548.096 1885.27 535.725C1893.7 526.53 1900.2 516.139 1904.75 504.511C1917.99 482.162 1931.45 459.441 1935.39 433.299C1941.37 393.59 1921.58 346.768 1901.87 317.1C1889.15 297.947 1886.34 257.454 1870.84 237.6C1855.48 217.952 1820.86 213.478 1799.09 205.788C1726.33 180.057 1664.09 155.007 1585.06 164.12C1498.14 174.14 1411.49 202.571 1329.45 212.942C1279.21 219.292 1222.86 208.756 1169.69 213.787C1128.8 217.663 1100.23 243.847 1062.35 256.712C971.803 287.473 831.379 305.843 786.372 395.796L786.393 395.775Z" stroke="url(#paint13_linear_3463_9343)" stroke-linecap="round" stroke-linejoin="round"/>
<path opacity="0.75" fill-rule="evenodd" clip-rule="evenodd" d="M810.289 397.631C796.393 424.928 729.984 451.875 697.78 440.845C717.119 455.689 746.684 460.246 768.807 472.43C820.762 501.026 863.234 544.941 911.973 578.321C1037.99 664.604 1199.23 687.942 1346.96 676.252C1455.59 667.655 1568.03 703.179 1676.69 686.025C1757.57 673.263 1780.52 608.401 1832 555.889C1866.55 520.633 1904.55 487.192 1913.89 434.474C1920.9 394.91 1901.72 346.851 1881.64 317.409C1869.38 299.452 1865.79 259.908 1850.45 241.497C1833.93 221.684 1794.16 216.096 1772.54 205.231C1703.32 170.429 1634.96 156.822 1557.85 170.408C1480.29 184.057 1403.71 207.025 1329.2 216.096C1283.6 221.663 1232.84 214.735 1184.8 218.983C1142.74 222.714 1112.19 246.96 1073.59 261.351C988.586 292.999 852.904 313.946 810.309 397.631H810.289Z" stroke="url(#paint14_linear_3463_9343)" stroke-linecap="round" stroke-linejoin="round"/>
<path opacity="0.8" fill-rule="evenodd" clip-rule="evenodd" d="M834.204 399.445C820.886 425.196 754.642 448.886 725.057 437.092C743.901 454.823 775.734 462.245 798.083 475.358C841.42 500.779 877.975 535.437 918.797 564.301C1042.95 652.048 1199.56 680.974 1347.28 669.098C1443.38 661.367 1538.67 687.839 1635.31 683.633C1708 680.479 1757.98 637.863 1800.27 581.413C1855.91 507.109 1923.83 406.187 1861.73 317.822C1850.04 301.204 1846.08 266.959 1832.68 249.311C1818.1 230.095 1786.37 224.879 1765.96 214.158C1696.23 177.542 1637.12 159.172 1557.21 173.027C1479.69 186.449 1403.98 210.674 1328.91 219.519C1284.15 224.776 1234.51 218.55 1187.77 225.003C1152.74 229.827 1124.1 248.465 1092.23 262.423C1040.13 285.267 985.741 301.823 932.116 320.605C886.613 336.563 855.048 359.077 834.184 399.445H834.204Z" stroke="url(#paint15_linear_3463_9343)" stroke-linecap="round" stroke-linejoin="round"/>
<path opacity="0.85" fill-rule="evenodd" clip-rule="evenodd" d="M858.038 401.136C845.75 424.701 778.517 446.844 753.179 434.536C773.672 453.153 800.475 465.256 823.937 479.749C866.47 506.016 903.396 539.704 945.208 566.981C1063.61 644.234 1206.86 672.562 1345.39 661.305C1437.79 653.8 1527.97 680.953 1620.55 678.788C1691.61 677.118 1746.64 636.544 1785.83 578.898C1808.82 545.086 1829.23 510.572 1852.16 476.987C1863.81 459.936 1871.48 441.195 1873.62 420.599C1877.25 385.673 1860.84 343.799 1842.28 318.152C1830.57 301.967 1825.81 269.165 1812.33 252.094C1796.33 231.868 1759.18 224.178 1737.67 211.993C1677.04 177.645 1626.65 164.1 1556.45 176.037C1479.01 189.191 1404.33 214.674 1328.69 223.189C1284.49 228.157 1235.77 222.673 1190.16 231.188C1155.63 237.641 1124.31 256.444 1092.77 271.144C1018.09 305.926 896.53 327.306 858.059 401.115L858.038 401.136Z" stroke="url(#paint16_linear_3463_9343)" stroke-linecap="round" stroke-linejoin="round"/>
<path opacity="0.9" fill-rule="evenodd" clip-rule="evenodd" d="M881.788 402.723C869.562 426.268 807.587 442.783 780.331 433.134C931.064 575.269 1130.33 670.005 1340.87 652.831C1480.25 641.45 1652.15 733.465 1753.77 597.845C1782.41 559.621 1802.08 515.149 1829.05 475.873C1841.07 458.369 1850.12 441.876 1852.98 420.496C1857.58 385.962 1842.37 343.779 1823.32 318.296C1811.23 302.153 1805.73 271.268 1792 254.279C1777.57 236.404 1747.84 232.178 1728.39 221.704C1666.98 188.634 1627.41 167.625 1555.42 179.583C1478.16 192.428 1404.62 219.148 1328.4 227.25C1288.9 231.456 1246.24 228.137 1205.77 234.94C1171.21 240.734 1140.23 256.671 1109.2 272.237C1061.74 296.05 1014.73 312.482 965 331.099C926.507 345.511 899.293 369.014 881.788 402.744V402.723Z" stroke="url(#paint17_linear_3463_9343)" stroke-linecap="round" stroke-linejoin="round"/>
<path opacity="0.95" fill-rule="evenodd" clip-rule="evenodd" d="M905.416 404.146C892.922 428.681 835.813 437.917 807.814 432.412C837.05 472.533 879.315 502.593 920.096 530.344C1043.53 614.318 1184.59 655.697 1333.29 643.512C1471.5 632.193 1643.1 733.816 1739.07 588.794C1785.55 518.572 1868.45 400.167 1804.91 318.069C1792.74 302.359 1786.14 271.185 1771.75 255.558C1755.63 238.033 1722.93 234.342 1701.8 222.405C1678.38 209.169 1652.13 188.737 1625.84 182.016C1595.15 174.181 1559.4 181.81 1529.23 188.531C1461.09 203.685 1396.87 224.879 1328.17 231.662C1288.53 235.58 1246.3 232.569 1206.33 240.961C1171.87 248.197 1140.56 264.237 1110 281.102C1044.95 317.038 938.919 338.336 905.437 404.125L905.416 404.146Z" stroke="url(#paint18_linear_3463_9343)" stroke-linecap="round" stroke-linejoin="round"/>
<path fill-rule="evenodd" clip-rule="evenodd" d="M928.879 405.383C916.344 430.804 862.058 434.35 833.854 432.639C850.121 473.09 892.737 508.593 927.992 531.726C1045.28 608.71 1184.97 644.481 1322.21 633.327C1445.44 623.307 1615.27 727.301 1707.18 601.474C1757.09 533.127 1855.15 402.311 1787.11 317.347C1775.48 302.833 1768.19 274.484 1754.83 260.547C1738.58 243.579 1713.39 245.352 1690.58 232.92C1633.64 201.891 1595.35 178.222 1528.08 193.026C1460.21 207.973 1397.3 230.26 1327.97 236.507C1253.79 243.187 1191.07 243.187 1124.56 281.762C1088.91 302.441 1054.83 318.523 1016.09 332.79C977.35 347.057 945.909 370.829 928.879 405.362V405.383Z" stroke="url(#paint19_linear_3463_9343)" stroke-linecap="round" stroke-linejoin="round"/>
<path fill-rule="evenodd" clip-rule="evenodd" d="M952.114 406.435C939.661 433.567 897.128 423.609 871.521 432.99C854.471 439.237 855.749 436.02 868.346 458.967C944.878 598.567 1170.66 633.369 1307.25 622.215C1379.72 616.297 1452 642.481 1525.73 657.016C1603.89 672.438 1645.62 646.399 1692.44 586.691C1742.97 522.262 1838.51 398.827 1770.04 316.069C1759.61 303.472 1748.58 269.227 1735.26 259.784C1725.01 252.527 1721.55 259.289 1709.12 255.702C1693.24 251.125 1680.23 243.744 1665.78 235.518C1621.95 210.55 1579.15 189.562 1526.68 198.242C1458.78 209.478 1396.87 236.445 1327.72 241.93C1256.86 247.558 1194.37 248.259 1131.79 286.051C1075.41 320.09 978.937 347.985 952.114 406.435Z" stroke="url(#paint20_linear_3463_9343)" stroke-linecap="round" stroke-linejoin="round"/>
<path fill-rule="evenodd" clip-rule="evenodd" d="M975.123 407.259C965.206 430.825 925.023 428.598 901.252 432.495C875.81 436.659 877.913 435.113 888.387 460.885C944.63 599.288 1168.74 619.967 1288.01 610.071C1358.27 604.236 1429.03 635.327 1501.96 650.233C1578.32 665.82 1620.32 640.069 1670.96 586.361C1726.15 527.808 1822.16 393.879 1753.8 314.028C1741.78 299.988 1729.82 270.443 1714.56 262.98C1712.54 261.99 1697.68 264.856 1694.07 264.237C1679.37 261.702 1667.35 253.145 1654.77 245.785C1613.27 221.498 1575.23 207.684 1525.93 209.416C1459.22 211.746 1393.49 243.414 1327.58 247.909C1256.22 252.774 1194.72 255.455 1131.83 294.38C1081.22 325.718 997.947 353.015 975.123 407.28V407.259Z" stroke="url(#paint21_linear_3463_9343)" stroke-linecap="round" stroke-linejoin="round"/>
<path fill-rule="evenodd" clip-rule="evenodd" d="M997.843 407.816C982.649 445.422 895.067 406.455 903.458 457.751C911.169 504.882 961.248 539.395 999.946 560.548C1079.32 603.948 1183.83 603.762 1263.99 596.773C1332.81 590.773 1407.05 627.451 1481.3 641.45C1551.23 654.625 1599.78 632.771 1649.43 584.32C1704.81 530.282 1803.83 385.673 1738.37 311.059C1720.46 290.628 1716.05 284.277 1691.88 277.041C1669.7 270.402 1652.56 261.166 1632.42 249.311C1535.01 191.995 1426.23 249.001 1327.45 254.444C1262.75 257.99 1202.96 258.918 1144.45 293.823C1096.66 322.357 1017.86 358.273 997.843 407.816V407.816Z" stroke="url(#paint22_linear_3463_9343)" stroke-linecap="round" stroke-linejoin="round"/>
<path fill-rule="evenodd" clip-rule="evenodd" d="M1018.91 407.692C1005.47 445.051 916.941 406.063 917.787 458.06C918.405 496.181 966.856 531.416 994.73 548.467C1068.52 593.557 1168.39 592.175 1243.11 585.969C1358.03 576.424 1502.35 682.314 1620.44 587.639C1681.63 538.591 1775.07 395.899 1719.36 323.842C1697.78 295.926 1654.11 279.556 1621.93 260.258C1530.49 205.375 1420.19 256.155 1327.37 260.032C1260.78 262.815 1204.02 265.536 1143.75 301.369C1098.81 328.089 1036.34 359.386 1018.93 407.692H1018.91Z" stroke="url(#paint23_linear_3463_9343)" stroke-linecap="round" stroke-linejoin="round"/>
<path fill-rule="evenodd" clip-rule="evenodd" d="M1037.1 406.538C1024.36 439.999 935.662 409.28 932.363 457.648C929.765 495.48 985.906 533.457 1012.58 548.096C1078.46 584.238 1164.25 581.867 1229.79 577.063C1343.86 568.713 1492 666.356 1608.9 574.836C1661.62 533.56 1744.66 418.805 1697.78 348.562C1675.06 314.544 1637.62 284.174 1601.76 264.526C1519.03 219.168 1411.01 260.939 1327.39 263.825C1266.92 265.928 1211.89 267.763 1156.72 299.782C1112.21 325.636 1054.46 360.994 1037.1 406.538V406.538Z" stroke="url(#paint24_linear_3463_9343)" stroke-linecap="round" stroke-linejoin="round"/>
<path fill-rule="evenodd" clip-rule="evenodd" d="M1053.9 404.682C1040.93 437.752 949.888 410.537 947.64 460.431C946.238 491.852 992.71 524.51 1014.98 537.416C1075.57 572.548 1156.31 570.733 1217.62 566.548C1324.17 559.27 1467.05 642.873 1580.53 574.032C1633.29 542.014 1717.16 435.154 1677.7 368.829C1657.12 334.233 1625.78 291.844 1588.32 272.093C1510.61 231.126 1405.98 264.753 1327.47 267.186C1264.86 269.124 1211.89 273.474 1155.69 306.627C1114.74 330.79 1069.98 363.674 1053.9 404.703V404.682Z" stroke="url(#paint25_linear_3463_9343)" stroke-linecap="round" stroke-linejoin="round"/>
<path fill-rule="evenodd" clip-rule="evenodd" d="M1069.45 402.167C1056.54 434.062 966.546 411.96 962.443 458.844C959.598 491.398 1011.12 523.066 1034.03 534.365C1087.28 560.651 1154.35 558.074 1206.9 554.631C1314.32 547.56 1455.98 624.07 1569.83 560.239C1616.15 534.261 1689.78 442.659 1659 385.054C1641.39 352.108 1615.8 302.668 1580.36 282.422C1507.32 240.693 1402.85 267.969 1327.62 270.155C1246.57 272.505 1102.08 321.533 1069.43 402.187L1069.45 402.167Z" stroke="url(#paint26_linear_3463_9343)" stroke-linecap="round" stroke-linejoin="round"/>
<path fill-rule="evenodd" clip-rule="evenodd" d="M1083.84 399.095C1071.14 429.753 982.855 412.311 977.618 456.473C974.422 483.419 1014.63 509.583 1033.33 519.726C1083.22 546.797 1147.4 544.879 1197.87 541.498C1300.34 534.612 1427.82 598.587 1538.61 555.621C1585.83 537.313 1669.92 456.823 1641.58 397.652C1623 358.891 1600.49 306.956 1557.77 287.349C1486.45 254.609 1400.62 270.732 1327.82 272.752C1248.49 274.958 1115.79 321.986 1083.84 399.074V399.095Z" stroke="url(#paint27_linear_3463_9343)" stroke-linecap="round" stroke-linejoin="round"/>
<path fill-rule="evenodd" clip-rule="evenodd" d="M1097.18 395.528C1085.01 425.052 1004.56 410.95 993.534 449.298C986.627 473.358 1022.48 498.016 1038.52 507.253C1083.57 533.189 1144.68 530.695 1190.74 527.375C1292.32 520.015 1420.31 582.341 1529.69 540.488C1570.86 524.736 1648.28 460.947 1625.27 407.094C1608.57 367.983 1590.16 319.017 1549.29 298.091C1481.21 263.227 1400.13 272.505 1328.01 275.144C1250.12 277.989 1128.21 320.234 1097.16 395.549L1097.18 395.528Z" stroke="url(#paint28_linear_3463_9343)" stroke-linecap="round" stroke-linejoin="round"/>
<path fill-rule="evenodd" clip-rule="evenodd" d="M1109.57 391.508C1097.75 418.681 1021.88 409.919 1010.89 445.504C1002.94 471.276 1040.91 492.244 1058.64 500.449C1098 518.675 1147.01 515.294 1185.75 512.407C1283.1 505.15 1405.76 561.992 1511.19 528.509C1552.51 515.376 1628.67 468.451 1609.95 413.692C1593.6 365.798 1574.78 325.491 1528.45 301.452C1468.12 270.175 1392.07 275.474 1328.17 277.206C1253.6 279.206 1139.86 321.78 1109.55 391.487L1109.57 391.508Z" stroke="url(#paint29_linear_3463_9343)" stroke-linecap="round" stroke-linejoin="round"/>
<path fill-rule="evenodd" clip-rule="evenodd" d="M1121.18 387.116C1109.77 412.558 1034.81 409.032 1028.01 444.515C1016.83 502.944 1157.98 499.46 1183.32 496.573C1270.16 486.677 1385.18 538.282 1484.62 517.5C1524.68 509.129 1611.12 471.544 1595.56 417.98C1582.65 373.653 1562.61 336.089 1521.17 310.606C1464.78 275.948 1391.12 278.443 1328.96 280.298C1256.47 282.463 1151.55 319.285 1121.2 387.116H1121.18Z" stroke="url(#paint30_linear_3463_9343)" stroke-linecap="round" stroke-linejoin="round"/>
<path fill-rule="evenodd" clip-rule="evenodd" d="M1134.58 381.302C1124.14 403.651 1052.17 407.321 1046.89 439.03C1038.4 490.141 1160.93 483.254 1183.4 480.615C1268.18 470.699 1381.65 520.86 1479.11 501.088C1512.12 494.388 1591.97 463.132 1581.91 420.289C1556.57 312.317 1433.8 277.329 1329.7 283.02C1262.84 286.669 1163.92 318.42 1134.58 381.302V381.302Z" stroke="url(#paint31_linear_3463_9343)" stroke-linecap="round" stroke-linejoin="round"/>
<path fill-rule="evenodd" clip-rule="evenodd" d="M1146.56 375.447C1136.7 396.147 1075.08 402.394 1067.88 429.072C1055.24 476.018 1166.02 467.255 1186.26 464.781C1263.79 455.38 1365.78 497.893 1455.65 487.357C1488.22 483.543 1569.97 459.586 1564.3 420.908C1550.53 326.955 1429.8 277.742 1330.46 284.649C1265.91 289.143 1175.38 314.915 1146.58 375.447H1146.56Z" stroke="url(#paint32_linear_3463_9343)" stroke-linecap="round" stroke-linejoin="round"/>
<path fill-rule="evenodd" clip-rule="evenodd" d="M1158.14 369.365C1149.59 387.116 1092.77 399.095 1088.15 421.856C1079.8 462.988 1173.58 451.669 1192.06 449.421C1264.38 440.618 1359.14 478.409 1443.24 471.461C1473.19 468.987 1549.46 451.504 1546.57 418.496C1539.36 336.027 1422.99 282.01 1331.6 287.473C1272.65 290.999 1185.38 312.894 1158.14 369.385V369.365Z" stroke="url(#paint33_linear_3463_9343)" stroke-linecap="round" stroke-linejoin="round"/>
<path fill-rule="evenodd" clip-rule="evenodd" d="M1169.54 363.159C1162.2 378.271 1107.94 396.848 1107.92 417.135C1107.88 449.586 1185.52 437.092 1200.86 435.175C1245.37 429.547 1532.2 483.79 1529.73 413.218C1527.23 341.8 1415.9 284.277 1332.05 289.452C1277.68 292.813 1195.52 309.616 1169.54 363.18V363.159Z" stroke="url(#paint34_linear_3463_9343)" stroke-linecap="round" stroke-linejoin="round"/>
<path fill-rule="evenodd" clip-rule="evenodd" d="M1180.97 356.933C1174.51 369.921 1128.1 391.198 1129.42 408.517C1131.48 435.505 1198.78 423.341 1211.87 421.671C1255.35 416.083 1513.48 461.874 1513.52 405.589C1513.54 346.562 1410.6 285.968 1333.02 291.019C1283.33 294.256 1205.77 306.998 1180.97 356.933V356.933Z" stroke="url(#paint35_linear_3463_9343)" stroke-linecap="round" stroke-linejoin="round"/>
<path fill-rule="evenodd" clip-rule="evenodd" d="M1192.61 350.809C1187.32 361.324 1150.76 383.178 1151.63 396.085C1153.36 421.712 1211.17 410.372 1224.65 408.62C1268.32 402.971 1494.99 441.649 1497.71 396.147C1500.57 348.15 1403.28 288.112 1333.97 292.586C1288.71 295.514 1216.14 304.132 1192.59 350.789L1192.61 350.809Z" stroke="url(#paint36_linear_3463_9343)" stroke-linecap="round" stroke-linejoin="round"/>
<path fill-rule="evenodd" clip-rule="evenodd" d="M1204.7 344.913C1199.85 354.623 1171.63 374.725 1173.4 386.498C1176.62 407.898 1227.25 397.569 1238.67 396.126C1287.76 389.92 1349.35 407.775 1405.08 407.197C1428.66 406.95 1480.16 401.136 1482.06 385.467C1486.68 347.469 1394.73 290.195 1334.87 294.339C1294.3 297.143 1226.72 300.812 1204.7 344.913V344.913Z" stroke="url(#paint37_linear_3463_9343)" stroke-linecap="round" stroke-linejoin="round"/>
<path fill-rule="evenodd" clip-rule="evenodd" d="M1217.42 339.325C1211.5 349.881 1192.31 366.148 1196.45 379.508C1200.82 393.59 1245.56 385.178 1253.35 384.189C1295.04 378.849 1461.67 403.94 1466.29 374.004C1470.93 343.779 1386.91 292.772 1335.62 296.297C1299.31 298.792 1238.94 300.874 1217.42 339.325Z" stroke="url(#paint38_linear_3463_9343)" stroke-linecap="round" stroke-linejoin="round"/>
<path fill-rule="evenodd" clip-rule="evenodd" d="M1230.98 334.171C1209.21 369.22 1227.13 378.993 1268.22 372.808C1304.65 367.344 1446.64 387.879 1450.14 362.314C1453.65 336.748 1377.96 295.514 1336.11 298.586C1304.11 300.936 1250.98 301.967 1230.96 334.171H1230.98Z" stroke="url(#paint39_linear_3463_9343)" stroke-linecap="round" stroke-linejoin="round"/>
<path fill-rule="evenodd" clip-rule="evenodd" d="M1245.6 329.573C1224.9 357.798 1255.76 366.045 1282.75 362.087C1317.33 357.015 1430.25 370.21 1433.44 350.912C1436.47 332.707 1370.31 298.895 1336.32 301.348C1308.4 303.348 1263.56 305.08 1245.6 329.573V329.573Z" stroke="url(#paint40_linear_3463_9343)" stroke-linecap="round" stroke-linejoin="round"/>
<path fill-rule="evenodd" clip-rule="evenodd" d="M1261.5 325.636C1244.18 345.552 1280.16 354.026 1296.44 352.026C1326.52 348.315 1413.26 353.531 1415.92 340.356C1418.33 328.46 1361.61 302.689 1336.17 304.668C1313.02 306.462 1276.34 308.565 1261.5 325.656V325.636Z" stroke="url(#paint41_linear_3463_9343)" stroke-linecap="round" stroke-linejoin="round"/>
<path fill-rule="evenodd" clip-rule="evenodd" d="M1278.84 322.481C1270.69 332.79 1294.32 344.954 1308.71 342.686C1334.34 338.625 1396.15 338.893 1397.28 331.12C1398.31 324.089 1354.91 307.183 1335.53 308.626C1317.76 309.946 1286.59 312.667 1278.84 322.502V322.481Z" stroke="url(#paint42_linear_3463_9343)" stroke-linecap="round" stroke-linejoin="round"/>
<path fill-rule="evenodd" clip-rule="evenodd" d="M1286.53 323.698C1286.61 328.769 1307.14 332.501 1332.36 332.048C1357.57 331.594 1377.96 327.12 1377.86 322.069C1377.78 316.997 1357.24 313.265 1332.03 313.719C1306.79 314.172 1286.42 318.646 1286.53 323.698Z" stroke="url(#paint43_linear_3463_9343)" stroke-linecap="round" stroke-linejoin="round"/>
<path fill-rule="evenodd" clip-rule="evenodd" d="M1305.41 319.904C1305.41 322.193 1317.41 324.048 1332.21 324.048C1347.02 324.048 1359.02 322.193 1359.02 319.904C1359.02 317.616 1347.02 315.76 1332.21 315.76C1317.41 315.76 1305.41 317.616 1305.41 319.904Z" stroke="url(#paint44_linear_3463_9343)" stroke-linecap="round" stroke-linejoin="round"/>
</g>
<g opacity="0.75">
<g style="mix-blend-mode:multiply" filter="url(#filter0_f_3463_9343)">
<ellipse cx="1274.09" cy="650.641" rx="1099.27" ry="485.954" transform="rotate(-28.975 1274.09 650.641)" fill="url(#paint45_radial_3463_9343)" fill-opacity="0.8"/>
</g>
</g>
</g>
<defs>
<filter id="filter0_f_3463_9343" x="33.7852" y="-280.787" width="2480.6" height="1862.85" filterUnits="userSpaceOnUse" color-interpolation-filters="sRGB">
<feFlood flood-opacity="0" result="BackgroundImageFix"/>
<feBlend mode="normal" in="SourceGraphic" in2="BackgroundImageFix" result="shape"/>
<feGaussianBlur stdDeviation="125" result="effect1_foregroundBlur_3463_9343"/>
</filter>
<linearGradient id="paint0_linear_3463_9343" x1="1300.5" y1="123.996" x2="1300.5" y2="822.621" gradientUnits="userSpaceOnUse">
<stop stop-color="#50B6D0"/>
<stop offset="0.380208" stop-color="#BDD0E2"/>
<stop offset="0.640625" stop-color="#766EB8"/>
<stop offset="1" stop-color="#1C7CAD"/>
</linearGradient>
<linearGradient id="paint1_linear_3463_9343" x1="1299.74" y1="128.569" x2="1299.74" y2="807.405" gradientUnits="userSpaceOnUse">
<stop stop-color="#50B6D0"/>
<stop offset="0.380208" stop-color="#BDD0E2"/>
<stop offset="0.640625" stop-color="#766EB8"/>
<stop offset="1" stop-color="#1C7CAD"/>
</linearGradient>
<linearGradient id="paint2_linear_3463_9343" x1="1299.3" y1="132.341" x2="1299.3" y2="792.289" gradientUnits="userSpaceOnUse">
<stop stop-color="#50B6D0"/>
<stop offset="0.380208" stop-color="#BDD0E2"/>
<stop offset="0.640625" stop-color="#766EB8"/>
<stop offset="1" stop-color="#1C7CAD"/>
</linearGradient>
<linearGradient id="paint3_linear_3463_9343" x1="1298.38" y1="136.657" x2="1298.38" y2="777.59" gradientUnits="userSpaceOnUse">
<stop stop-color="#50B6D0"/>
<stop offset="0.380208" stop-color="#BDD0E2"/>
<stop offset="0.640625" stop-color="#766EB8"/>
<stop offset="1" stop-color="#1C7CAD"/>
</linearGradient>
<linearGradient id="paint4_linear_3463_9343" x1="1297.95" y1="140.023" x2="1297.95" y2="763.204" gradientUnits="userSpaceOnUse">
<stop stop-color="#50B6D0"/>
<stop offset="0.380208" stop-color="#BDD0E2"/>
<stop offset="0.640625" stop-color="#766EB8"/>
<stop offset="1" stop-color="#1C7CAD"/>
</linearGradient>
<linearGradient id="paint5_linear_3463_9343" x1="1297.77" y1="142.745" x2="1297.77" y2="750.845" gradientUnits="userSpaceOnUse">
<stop stop-color="#50B6D0"/>
<stop offset="0.380208" stop-color="#BDD0E2"/>
<stop offset="0.640625" stop-color="#766EB8"/>
<stop offset="1" stop-color="#1C7CAD"/>
</linearGradient>
<linearGradient id="paint6_linear_3463_9343" x1="1297.53" y1="146.342" x2="1297.53" y2="739.721" gradientUnits="userSpaceOnUse">
<stop stop-color="#50B6D0"/>
<stop offset="0.380208" stop-color="#BDD0E2"/>
<stop offset="0.640625" stop-color="#766EB8"/>
<stop offset="1" stop-color="#1C7CAD"/>
</linearGradient>
<linearGradient id="paint7_linear_3463_9343" x1="1297.76" y1="148.568" x2="1297.76" y2="732.608" gradientUnits="userSpaceOnUse">
<stop stop-color="#50B6D0"/>
<stop offset="0.380208" stop-color="#BDD0E2"/>
<stop offset="0.640625" stop-color="#766EB8"/>
<stop offset="1" stop-color="#1C7CAD"/>
</linearGradient>
<linearGradient id="paint8_linear_3463_9343" x1="1296.82" y1="150.809" x2="1296.82" y2="727.278" gradientUnits="userSpaceOnUse">
<stop stop-color="#50B6D0"/>
<stop offset="0.380208" stop-color="#BDD0E2"/>
<stop offset="0.640625" stop-color="#766EB8"/>
<stop offset="1" stop-color="#1C7CAD"/>
</linearGradient>
<linearGradient id="paint9_linear_3463_9343" x1="1297.05" y1="152.879" x2="1297.05" y2="720.18" gradientUnits="userSpaceOnUse">
<stop stop-color="#50B6D0"/>
<stop offset="0.380208" stop-color="#BDD0E2"/>
<stop offset="0.640625" stop-color="#766EB8"/>
<stop offset="1" stop-color="#1C7CAD"/>
</linearGradient>
<linearGradient id="paint10_linear_3463_9343" x1="1298.1" y1="155.848" x2="1298.1" y2="715.135" gradientUnits="userSpaceOnUse">
<stop stop-color="#50B6D0"/>
<stop offset="0.380208" stop-color="#BDD0E2"/>
<stop offset="0.640625" stop-color="#766EB8"/>
<stop offset="1" stop-color="#1C7CAD"/>
</linearGradient>
<linearGradient id="paint11_linear_3463_9343" x1="1295.9" y1="157.781" x2="1295.9" y2="709.533" gradientUnits="userSpaceOnUse">
<stop stop-color="#50B6D0"/>
<stop offset="0.380208" stop-color="#BDD0E2"/>
<stop offset="0.640625" stop-color="#766EB8"/>
<stop offset="1" stop-color="#1C7CAD"/>
</linearGradient>
<linearGradient id="paint12_linear_3463_9343" x1="1301.39" y1="159.913" x2="1301.39" y2="702.004" gradientUnits="userSpaceOnUse">
<stop stop-color="#50B6D0"/>
<stop offset="0.380208" stop-color="#BDD0E2"/>
<stop offset="0.640625" stop-color="#766EB8"/>
<stop offset="1" stop-color="#1C7CAD"/>
</linearGradient>
<linearGradient id="paint13_linear_3463_9343" x1="1303.65" y1="162.209" x2="1303.65" y2="696.409" gradientUnits="userSpaceOnUse">
<stop stop-color="#50B6D0"/>
<stop offset="0.380208" stop-color="#BDD0E2"/>
<stop offset="0.640625" stop-color="#766EB8"/>
<stop offset="1" stop-color="#1C7CAD"/>
</linearGradient>
<linearGradient id="paint14_linear_3463_9343" x1="1306.57" y1="165.22" x2="1306.57" y2="690.77" gradientUnits="userSpaceOnUse">
<stop stop-color="#50B6D0"/>
<stop offset="0.380208" stop-color="#BDD0E2"/>
<stop offset="0.640625" stop-color="#766EB8"/>
<stop offset="1" stop-color="#1C7CAD"/>
</linearGradient>
<linearGradient id="paint15_linear_3463_9343" x1="1305.75" y1="168.41" x2="1305.75" y2="684.089" gradientUnits="userSpaceOnUse">
<stop stop-color="#50B6D0"/>
<stop offset="0.380208" stop-color="#BDD0E2"/>
<stop offset="0.640625" stop-color="#766EB8"/>
<stop offset="1" stop-color="#1C7CAD"/>
</linearGradient>
<linearGradient id="paint16_linear_3463_9343" x1="1313.65" y1="171.781" x2="1313.65" y2="678.912" gradientUnits="userSpaceOnUse">
<stop stop-color="#50B6D0"/>
<stop offset="0.380208" stop-color="#BDD0E2"/>
<stop offset="0.640625" stop-color="#766EB8"/>
<stop offset="1" stop-color="#1C7CAD"/>
</linearGradient>
<linearGradient id="paint17_linear_3463_9343" x1="1317.07" y1="176.193" x2="1317.07" y2="672.855" gradientUnits="userSpaceOnUse">
<stop stop-color="#50B6D0"/>
<stop offset="0.380208" stop-color="#BDD0E2"/>
<stop offset="0.640625" stop-color="#766EB8"/>
<stop offset="1" stop-color="#1C7CAD"/>
</linearGradient>
<linearGradient id="paint18_linear_3463_9343" x1="1317.9" y1="178.698" x2="1317.9" y2="667.651" gradientUnits="userSpaceOnUse">
<stop stop-color="#50B6D0"/>
<stop offset="0.380208" stop-color="#BDD0E2"/>
<stop offset="0.640625" stop-color="#766EB8"/>
<stop offset="1" stop-color="#1C7CAD"/>
</linearGradient>
<linearGradient id="paint19_linear_3463_9343" x1="1322.11" y1="188.501" x2="1322.11" y2="664.23" gradientUnits="userSpaceOnUse">
<stop stop-color="#50B6D0"/>
<stop offset="0.380208" stop-color="#BDD0E2"/>
<stop offset="0.640625" stop-color="#766EB8"/>
<stop offset="1" stop-color="#1C7CAD"/>
</linearGradient>
<linearGradient id="paint20_linear_3463_9343" x1="1326.36" y1="196.248" x2="1326.36" y2="661.37" gradientUnits="userSpaceOnUse">
<stop stop-color="#50B6D0"/>
<stop offset="0.380208" stop-color="#BDD0E2"/>
<stop offset="0.640625" stop-color="#766EB8"/>
<stop offset="1" stop-color="#1C7CAD"/>
</linearGradient>
<linearGradient id="paint21_linear_3463_9343" x1="1329.25" y1="209.271" x2="1329.25" y2="654.735" gradientUnits="userSpaceOnUse">
<stop stop-color="#50B6D0"/>
<stop offset="0.380208" stop-color="#BDD0E2"/>
<stop offset="0.640625" stop-color="#766EB8"/>
<stop offset="1" stop-color="#1C7CAD"/>
</linearGradient>
<linearGradient id="paint22_linear_3463_9343" x1="1331.43" y1="223.956" x2="1331.43" y2="645.225" gradientUnits="userSpaceOnUse">
<stop stop-color="#50B6D0"/>
<stop offset="0.380208" stop-color="#BDD0E2"/>
<stop offset="0.640625" stop-color="#766EB8"/>
<stop offset="1" stop-color="#1C7CAD"/>
</linearGradient>
<linearGradient id="paint23_linear_3463_9343" x1="1327.1" y1="234.919" x2="1327.1" y2="627.281" gradientUnits="userSpaceOnUse">
<stop stop-color="#50B6D0"/>
<stop offset="0.380208" stop-color="#BDD0E2"/>
<stop offset="0.640625" stop-color="#766EB8"/>
<stop offset="1" stop-color="#1C7CAD"/>
</linearGradient>
<linearGradient id="paint24_linear_3463_9343" x1="1321.94" y1="243.517" x2="1321.94" y2="614.26" gradientUnits="userSpaceOnUse">
<stop stop-color="#50B6D0"/>
<stop offset="0.380208" stop-color="#BDD0E2"/>
<stop offset="0.640625" stop-color="#766EB8"/>
<stop offset="1" stop-color="#1C7CAD"/>
</linearGradient>
<linearGradient id="paint25_linear_3463_9343" x1="1317.76" y1="251.896" x2="1317.76" y2="601.404" gradientUnits="userSpaceOnUse">
<stop stop-color="#50B6D0"/>
<stop offset="0.380208" stop-color="#BDD0E2"/>
<stop offset="0.640625" stop-color="#766EB8"/>
<stop offset="1" stop-color="#1C7CAD"/>
</linearGradient>
<linearGradient id="paint26_linear_3463_9343" x1="1314.31" y1="259.386" x2="1314.31" y2="585.841" gradientUnits="userSpaceOnUse">
<stop stop-color="#50B6D0"/>
<stop offset="0.380208" stop-color="#BDD0E2"/>
<stop offset="0.640625" stop-color="#766EB8"/>
<stop offset="1" stop-color="#1C7CAD"/>
</linearGradient>
<linearGradient id="paint27_linear_3463_9343" x1="1312.36" y1="267.009" x2="1312.36" y2="570.577" gradientUnits="userSpaceOnUse">
<stop stop-color="#50B6D0"/>
<stop offset="0.380208" stop-color="#BDD0E2"/>
<stop offset="0.640625" stop-color="#766EB8"/>
<stop offset="1" stop-color="#1C7CAD"/>
</linearGradient>
<linearGradient id="paint28_linear_3463_9343" x1="1311.06" y1="272.039" x2="1311.06" y2="555.066" gradientUnits="userSpaceOnUse">
<stop stop-color="#50B6D0"/>
<stop offset="0.380208" stop-color="#BDD0E2"/>
<stop offset="0.640625" stop-color="#766EB8"/>
<stop offset="1" stop-color="#1C7CAD"/>
</linearGradient>
<linearGradient id="paint29_linear_3463_9343" x1="1311.34" y1="275.762" x2="1311.34" y2="539.157" gradientUnits="userSpaceOnUse">
<stop stop-color="#50B6D0"/>
<stop offset="0.380208" stop-color="#BDD0E2"/>
<stop offset="0.640625" stop-color="#766EB8"/>
<stop offset="1" stop-color="#1C7CAD"/>
</linearGradient>
<linearGradient id="paint30_linear_3463_9343" x1="1312.39" y1="279.374" x2="1312.39" y2="522.48" gradientUnits="userSpaceOnUse">
<stop stop-color="#50B6D0"/>
<stop offset="0.380208" stop-color="#BDD0E2"/>
<stop offset="0.640625" stop-color="#766EB8"/>
<stop offset="1" stop-color="#1C7CAD"/>
</linearGradient>
<linearGradient id="paint31_linear_3463_9343" x1="1314.63" y1="282.433" x2="1314.63" y2="505.748" gradientUnits="userSpaceOnUse">
<stop stop-color="#50B6D0"/>
<stop offset="0.380208" stop-color="#BDD0E2"/>
<stop offset="0.640625" stop-color="#766EB8"/>
<stop offset="1" stop-color="#1C7CAD"/>
</linearGradient>
<linearGradient id="paint32_linear_3463_9343" x1="1315.73" y1="284.008" x2="1315.73" y2="489.048" gradientUnits="userSpaceOnUse">
<stop stop-color="#50B6D0"/>
<stop offset="0.380208" stop-color="#BDD0E2"/>
<stop offset="0.640625" stop-color="#766EB8"/>
<stop offset="1" stop-color="#1C7CAD"/>
</linearGradient>
<linearGradient id="paint33_linear_3463_9343" x1="1317.14" y1="287.094" x2="1317.14" y2="472.319" gradientUnits="userSpaceOnUse">
<stop stop-color="#50B6D0"/>
<stop offset="0.380208" stop-color="#BDD0E2"/>
<stop offset="0.640625" stop-color="#766EB8"/>
<stop offset="1" stop-color="#1C7CAD"/>
</linearGradient>
<linearGradient id="paint34_linear_3463_9343" x1="1318.83" y1="289.129" x2="1318.83" y2="449.814" gradientUnits="userSpaceOnUse">
<stop stop-color="#50B6D0"/>
<stop offset="0.380208" stop-color="#BDD0E2"/>
<stop offset="0.640625" stop-color="#766EB8"/>
<stop offset="1" stop-color="#1C7CAD"/>
</linearGradient>
<linearGradient id="paint35_linear_3463_9343" x1="1321.46" y1="290.724" x2="1321.46" y2="433.968" gradientUnits="userSpaceOnUse">
<stop stop-color="#50B6D0"/>
<stop offset="0.380208" stop-color="#BDD0E2"/>
<stop offset="0.640625" stop-color="#766EB8"/>
<stop offset="1" stop-color="#1C7CAD"/>
</linearGradient>
<linearGradient id="paint36_linear_3463_9343" x1="1324.69" y1="292.35" x2="1324.69" y2="418.604" gradientUnits="userSpaceOnUse">
<stop stop-color="#50B6D0"/>
<stop offset="0.380208" stop-color="#BDD0E2"/>
<stop offset="0.640625" stop-color="#766EB8"/>
<stop offset="1" stop-color="#1C7CAD"/>
</linearGradient>
<linearGradient id="paint37_linear_3463_9343" x1="1327.77" y1="294.126" x2="1327.77" y2="407.211" gradientUnits="userSpaceOnUse">
<stop stop-color="#50B6D0"/>
<stop offset="0.380208" stop-color="#BDD0E2"/>
<stop offset="0.640625" stop-color="#766EB8"/>
<stop offset="1" stop-color="#1C7CAD"/>
</linearGradient>
<linearGradient id="paint38_linear_3463_9343" x1="1331.17" y1="296.124" x2="1331.17" y2="388.989" gradientUnits="userSpaceOnUse">
<stop stop-color="#50B6D0"/>
<stop offset="0.380208" stop-color="#BDD0E2"/>
<stop offset="0.640625" stop-color="#766EB8"/>
<stop offset="1" stop-color="#1C7CAD"/>
</linearGradient>
<linearGradient id="paint39_linear_3463_9343" x1="1335.96" y1="298.423" x2="1335.96" y2="375.481" gradientUnits="userSpaceOnUse">
<stop stop-color="#50B6D0"/>
<stop offset="0.380208" stop-color="#BDD0E2"/>
<stop offset="0.640625" stop-color="#766EB8"/>
<stop offset="1" stop-color="#1C7CAD"/>
</linearGradient>
<linearGradient id="paint40_linear_3463_9343" x1="1336.19" y1="301.222" x2="1336.19" y2="363.019" gradientUnits="userSpaceOnUse">
<stop stop-color="#50B6D0"/>
<stop offset="0.380208" stop-color="#BDD0E2"/>
<stop offset="0.640625" stop-color="#766EB8"/>
<stop offset="1" stop-color="#1C7CAD"/>
</linearGradient>
<linearGradient id="paint41_linear_3463_9343" x1="1336.44" y1="304.56" x2="1336.44" y2="352.311" gradientUnits="userSpaceOnUse">
<stop stop-color="#50B6D0"/>
<stop offset="0.380208" stop-color="#BDD0E2"/>
<stop offset="0.640625" stop-color="#766EB8"/>
<stop offset="1" stop-color="#1C7CAD"/>
</linearGradient>
<linearGradient id="paint42_linear_3463_9343" x1="1337.24" y1="308.539" x2="1337.24" y2="342.962" gradientUnits="userSpaceOnUse">
<stop stop-color="#50B6D0"/>
<stop offset="0.380208" stop-color="#BDD0E2"/>
<stop offset="0.640625" stop-color="#766EB8"/>
<stop offset="1" stop-color="#1C7CAD"/>
</linearGradient>
<linearGradient id="paint43_linear_3463_9343" x1="1332.19" y1="313.682" x2="1332.19" y2="332.085" gradientUnits="userSpaceOnUse">
<stop stop-color="#50B6D0"/>
<stop offset="0.380208" stop-color="#BDD0E2"/>
<stop offset="0.640625" stop-color="#766EB8"/>
<stop offset="1" stop-color="#1C7CAD"/>
</linearGradient>
<linearGradient id="paint44_linear_3463_9343" x1="1332.21" y1="315.76" x2="1332.21" y2="324.048" gradientUnits="userSpaceOnUse">
<stop stop-color="#50B6D0"/>
<stop offset="0.380208" stop-color="#BDD0E2"/>
<stop offset="0.640625" stop-color="#766EB8"/>
<stop offset="1" stop-color="#1C7CAD"/>
</linearGradient>
<radialGradient id="paint45_radial_3463_9343" cx="0" cy="0" r="1" gradientUnits="userSpaceOnUse" gradientTransform="translate(1274.09 650.641) rotate(90) scale(485.954 1099.27)">
<stop stop-color="#6A58B0"/>
<stop offset="0.802083" stop-color="#00FFFF" stop-opacity="0"/>
</radialGradient>
<clipPath id="clip0_3463_9343">
<rect width="2400" height="1024" fill="white"/>
</clipPath>
</defs>
</svg>
