<svg width="2400" height="1024" viewBox="0 0 2400 1024" fill="none" xmlns="http://www.w3.org/2000/svg">
<g clip-path="url(#clip0_3464_12620)">
<rect width="2400" height="1024" fill="#E9ECF1"/>
<rect width="2400" height="1024" fill="#F6F7FB"/>
<g opacity="0.25">
<path opacity="0.05" fill-rule="evenodd" clip-rule="evenodd" d="M82.9581 377.22C49.6201 428.041 -15.448 476.1 -29.7357 537.004C-37.4259 569.847 -24.9525 562.322 -1.03651 573.104C22.6115 583.743 26.0133 606.051 29.8481 629.74C36.7549 672.232 36.5693 718.662 60.5884 756.309C101.823 820.903 203.713 823.068 271.771 822.573C493.88 820.985 716.258 755.752 933.048 753.814C1139.01 751.98 1365.1 806.553 1574.59 773.195C1622.88 765.504 1709.53 745.877 1732.54 694.561C1742.42 672.541 1734.91 644.337 1736.05 621.122C1737.57 589.495 1746.87 559.064 1768.83 535.457C1786.54 516.386 1809.98 509.562 1814.41 480.883C1820.74 439.876 1774.11 410.249 1754.05 380.065C1722.09 331.986 1720.03 264.794 1694.86 211.56C1680.11 180.367 1662.11 149.544 1629.29 136.039C1595.52 122.164 1555.13 125.545 1519.63 126.906C1424.32 130.514 1328.28 116.309 1234.02 131.153C1129.12 147.668 1013.46 154.265 921.832 167.172C836.766 179.171 725.556 137.524 630.964 125.587C543.671 114.577 479.634 163.502 398.917 186.469C314.119 210.591 198.353 204.736 125.966 259.619C79.8037 294.627 109.761 336.274 82.9169 377.199L82.9581 377.22Z" stroke="url(#paint0_linear_3464_12620)" stroke-linecap="round" stroke-linejoin="round"/>
<path opacity="0.1" fill-rule="evenodd" clip-rule="evenodd" d="M103.514 377.591C72.8145 429.526 9.66385 472.224 -7.11859 531.21C-15.9634 562.301 -2.50032 553.312 19.5601 564.218C38.6104 573.64 43.1256 591.227 47.5996 610.772C56.9186 651.615 57.3928 695.798 80.4222 732.434C120.44 796.121 215.733 805.131 283.77 807.007C497.323 812.883 714.712 751.815 920.802 747.238C1023.04 744.97 1131.51 757.443 1236.8 764.742C1343.6 772.164 1456.35 782.926 1562.37 762.391C1611.07 752.969 1689.33 728.703 1711.6 677.778C1721.14 655.944 1714.92 628.379 1717.31 605.308C1720.56 573.95 1731.92 547.395 1754.25 524.984C1771.3 507.871 1785.14 501.253 1790.21 475.337C1798.77 431.588 1757.1 400.105 1735.99 367.221C1705.33 319.492 1703.16 255.29 1677.76 203.252C1663.41 173.851 1645.85 146.204 1614.06 135.627C1579.27 124.061 1537.22 130.122 1501.44 131.73C1412.3 135.771 1323.13 121.071 1234.7 134.04C1129.67 149.441 1015.37 160.038 921.997 172.388C835.838 183.789 729.762 142.699 635.294 132.122C558.268 123.504 500.437 164.965 429.493 186.758C342.488 213.478 231.031 209.416 154.088 261.31C103.245 295.596 129.45 333.614 103.493 377.529L103.514 377.591Z" stroke="url(#paint1_linear_3464_12620)" stroke-linecap="round" stroke-linejoin="round"/>
<path opacity="0.15" fill-rule="evenodd" clip-rule="evenodd" d="M124.564 378.21C97.0811 428.928 30.7348 468.822 15.2719 524.716C7.10748 554.24 18.3233 543.251 40.0744 554.776C59.2279 564.919 63.6399 585 68.6912 604.587C79.2266 645.533 83.8861 692.21 113.369 725.28C156.129 773.236 237.464 786.101 297.543 790.121C502.643 803.894 715.516 747.774 912.142 741.197C1102.13 734.847 1312.18 785.503 1508.99 758.742C1570.55 750.371 1647.85 727.816 1683.97 671.572C1697.06 651.182 1693.87 625.988 1696.46 603.041C1699.91 572.548 1709.41 547.147 1730.58 524.613C1747.9 506.16 1760.56 497.996 1766.31 471.255C1776.25 425.011 1739.64 391.899 1717.35 356.252C1688.09 309.472 1685.99 247.909 1660.49 197.479C1625.21 127.689 1571.28 132.844 1501.36 136.122C1412.65 140.287 1323.44 125.277 1235.38 136.761C1130.07 150.492 1017.04 165.295 922.121 177.191C835.302 188.057 734.855 146.987 640.799 138.905C566.969 132.555 507.179 174.408 438.296 194.283C353.415 218.776 242.062 217.21 169.695 272.526C128.296 304.173 146.068 338.542 124.585 378.23L124.564 378.21Z" stroke="url(#paint2_linear_3464_12620)" stroke-linecap="round" stroke-linejoin="round"/>
<path opacity="0.2" fill-rule="evenodd" clip-rule="evenodd" d="M146.067 379.096C120.564 429.732 68.4846 461.318 42.1977 510.82C27.9718 537.622 31.8066 529.952 53.0423 542.323C72.7524 553.807 78.7933 561.785 87.1639 584.217C101.658 623.06 105.905 667.14 134.769 699.509C177.199 747.073 252.473 765.36 312.737 772.081C509.508 794.08 718.299 743.629 906.637 735.527C1090.44 727.61 1294.98 778.37 1485.86 750.701C1549.92 741.403 1620.92 717.033 1657.62 659.119C1670.59 638.667 1671.02 618.235 1674.92 594.959C1684.15 539.911 1732.56 517.994 1743.24 465.957C1752.89 418.826 1720.73 383.941 1698.09 346.974C1672.01 304.359 1669.08 249.207 1647.19 202.942C1613.77 132.308 1561.94 138.307 1492.35 141.379C1400.94 145.42 1309.89 128.947 1219.01 141.4C1119.26 155.09 1013.27 170.594 922.121 181.5C843.012 190.984 752.565 160.203 668.261 148.286C593.626 137.751 539.341 174.14 470.294 195.458C383.31 222.302 276.08 222.549 199.054 274.484C153.366 305.286 167.468 336.604 146.047 379.096H146.067Z" stroke="url(#paint3_linear_3464_12620)" stroke-linecap="round" stroke-linejoin="round"/>
<path opacity="0.25" fill-rule="evenodd" clip-rule="evenodd" d="M167.984 380.189C144.191 429.052 94.6482 458.514 65.0625 503.294C50.4448 525.417 51.785 520.056 70.4436 531.19C90.0712 542.9 97.3697 547.312 107.802 569.909C124.976 607.123 132.068 649.306 162.561 679.407C208.414 724.662 277.131 745.485 338.901 754.371C525.198 781.215 725.144 739.156 903.916 730.146C1085.99 720.971 1293.48 776.947 1481.71 739.877C1570.31 722.435 1629.35 671.758 1652.4 587.516C1666.57 535.746 1713.58 510.284 1721.72 456.431C1728.56 411.177 1700.03 374.931 1678.42 339.222C1653.58 298.132 1651 244.816 1629.07 200.427C1595.69 132.906 1539.17 145.297 1473.69 147.42C1388.63 150.162 1304.49 132.968 1219.71 143.441C1119.57 155.811 1014.49 174.8 922.121 185.459C843.425 194.551 757.472 164.141 674.158 154.76C602.925 146.76 546.64 184.346 480.046 203.829C398.299 227.745 303.583 232.033 229.444 276.608C180.004 306.338 189.797 335.367 167.963 380.209L167.984 380.189Z" stroke="url(#paint4_linear_3464_12620)" stroke-linecap="round" stroke-linejoin="round"/>
<path opacity="0.3" fill-rule="evenodd" clip-rule="evenodd" d="M190.271 381.488C167.757 429.505 116.317 454.04 87.1229 496.862C72.2785 518.634 73.9073 507.975 91.1021 520.448C110.091 534.2 119.76 537.643 131.8 561.064C153.634 603.535 168.19 640.729 207.734 670.871C261.916 712.188 323.108 731.156 389.784 741.259C558.454 766.824 741.164 734.187 903.586 725.012C1080.59 715.013 1284.84 772.741 1466.73 730.826C1553.9 710.745 1600 653.367 1630.74 575.558C1649.04 529.21 1688.4 506.779 1698.73 455.05C1707.89 409.135 1680.13 369.117 1658.38 332.852C1634.84 293.617 1633.15 241.579 1610.72 199.685C1579.98 142.348 1531.36 151.606 1473.9 152.987C1389 155.028 1304.94 136.06 1220.39 145.297C1119.84 156.286 1015.54 178.552 922.08 189.026C844.6 197.706 762.296 168.512 680.693 161.275C619.192 155.832 570.144 187.912 512.869 205.685C430.194 231.353 337.54 237.208 260.679 278.855C208.105 307.348 212.476 334.171 190.292 381.467L190.271 381.488Z" stroke="url(#paint5_linear_3464_12620)" stroke-linecap="round" stroke-linejoin="round"/>
<path opacity="0.35" fill-rule="evenodd" clip-rule="evenodd" d="M212.888 382.952C191.281 430.083 137.45 449.195 109.245 490.223C100.009 503.645 94.4213 496.862 103.225 508.366C104.895 510.552 124.955 513.871 128.996 516.345C138.336 522.077 144.212 531.684 150.377 540.323C177.715 578.568 193.075 614.834 231.155 645.553C282.801 687.2 340.488 709.755 405.02 723.26C567.072 757.196 747.369 729.692 905.194 720.002C1068.32 709.982 1249.32 758.02 1417.31 729.136C1514.39 712.456 1562.04 656.522 1604.94 574.712C1628.39 530.014 1664.16 507.005 1675.87 454.535C1686.32 407.713 1660.26 364.87 1638.01 327.78C1615.79 290.71 1614.55 239.868 1592.08 200.551C1561.67 147.358 1508.08 159.419 1454.79 159.358C1368.13 159.254 1284.65 138.307 1197.9 149.771C1104.91 162.038 1009.29 182.82 921.935 192.366C846.085 200.654 767.203 172.697 687.662 167.934C629.088 164.429 577.875 198.448 522.806 214.777C441.141 238.981 351.353 246.919 276.307 289.617C231.299 315.224 232.083 341.016 212.867 382.931L212.888 382.952Z" stroke="url(#paint6_linear_3464_12620)" stroke-linecap="round" stroke-linejoin="round"/>
<path opacity="0.4" fill-rule="evenodd" clip-rule="evenodd" d="M235.814 384.58C215.362 429.67 165.386 448.143 132.522 482.76C124.667 491.027 117.513 488.079 122.255 497.212C123.327 499.274 144.604 502.284 147.841 503.934C157.881 509.047 164.767 517.376 172.066 525.623C203.322 560.961 224.661 596.794 262.411 627.41C311.645 667.346 367.167 691.633 428.4 707.013C582.514 745.732 756.276 725.074 908.328 715.116C1066.36 704.766 1242.22 753.711 1403.55 721.425C1461.1 709.92 1513.24 684.953 1540.47 630.338C1552.37 606.463 1566.99 587.062 1583.05 565.187C1596.14 547.353 1614.76 536.2 1627.66 519.108C1642.26 499.769 1651.93 467.297 1655.66 443.381C1662.4 400.229 1637.7 357.634 1617.42 323.904C1597.77 291.246 1595.81 246.321 1577.5 210.591C1551.85 160.553 1504.48 166.656 1454.89 165.811C1368.34 164.326 1285.25 140.72 1198.45 151.276C1105.08 162.636 1010.01 186.016 921.832 195.5C854.27 202.757 784.027 183.129 713.578 176.264C653.891 170.45 611.151 199.829 555.629 217.168C473.304 242.899 384.898 252.156 307.48 291.968C259.875 316.44 255.751 340.624 235.814 384.56V384.58Z" stroke="url(#paint7_linear_3464_12620)" stroke-linecap="round" stroke-linejoin="round"/>
<path opacity="0.45" fill-rule="evenodd" clip-rule="evenodd" d="M258.988 386.312C236.886 435.01 176.828 451.999 140.975 485.749C170.829 492.161 187.446 504.14 207.981 526.901C252.184 575.929 299.295 623.163 358.384 654.46C523.074 741.65 737.329 722.208 912.575 710.23C1066.85 699.694 1241.69 751.794 1396.98 712.188C1458.02 696.622 1490.95 665.985 1519.73 611.844C1530.74 591.124 1541.75 577.805 1558.8 561.167C1574.99 545.374 1596.14 534.096 1608.22 514.758C1619.79 496.243 1628.41 468.183 1632.71 446.679C1641.7 401.878 1617.91 356.067 1596.68 321.038C1578.16 290.504 1576.78 245.971 1558.22 212.901C1532.64 167.316 1480.68 174.614 1435.2 172.078C1355.04 167.604 1279.93 143.833 1198.93 152.822C1105.16 163.213 1010.61 189.088 921.667 198.51C855.96 205.478 788.356 186.985 719.948 182.49C663.024 178.738 618.264 210.798 564.927 226.797C489.427 249.455 410.814 260.629 338.962 294.4C289.275 317.76 279.729 340.666 259.009 386.312H258.988Z" stroke="url(#paint8_linear_3464_12620)" stroke-linecap="round" stroke-linejoin="round"/>
<path opacity="0.5" fill-rule="evenodd" clip-rule="evenodd" d="M282.389 388.126C262.411 431.917 204.93 455.009 163.407 475.935C252.081 503.81 305.274 593.536 387.31 638.275C546.269 724.971 744.937 717.487 917.503 705.24C1058.59 695.22 1210.02 737.321 1352.32 711.879C1406.71 702.148 1455.86 679.015 1483.76 629.266C1500.74 598.979 1501.92 580.898 1530.33 561.27C1574.35 530.86 1598.22 502.531 1610.28 447.731C1620.26 402.435 1597.48 354.376 1575.77 319.059C1558.39 290.772 1557.28 246.465 1538.66 216.117C1516.8 180.47 1471.96 182.305 1434.93 179.315C1354.86 172.862 1280.59 146.327 1199.26 154.389C1105.14 163.708 1011.13 192.077 921.42 201.396C856.228 208.159 789.717 189.17 722.031 188.613C672.488 188.201 631.624 218.9 585.009 232.982C508.684 256.032 429.864 268.32 357.271 302.792C312.449 324.069 301.336 346.603 282.368 388.168L282.389 388.126Z" stroke="url(#paint9_linear_3464_12620)" stroke-linecap="round" stroke-linejoin="round"/>
<path opacity="0.55" fill-rule="evenodd" clip-rule="evenodd" d="M305.975 390.003C287.007 430.804 228.681 453.999 186.849 467.276C274.121 496.408 328.097 571.208 406.299 618.215C559.732 710.415 750.627 712.601 922.719 700.065C1060.11 690.045 1210.04 735.259 1346.71 703.859C1389.53 694.024 1427.68 673.758 1452.48 636.564C1472.25 606.917 1472.54 574.568 1505.49 558.281C1555.01 533.787 1580.72 495.707 1590.02 439.36C1597.03 396.827 1575.23 350.418 1554.88 317.76C1538.87 292.05 1537.79 246.795 1518.93 219.993C1496.54 188.18 1448.73 189.356 1414.34 184.799C1331.93 173.893 1260.92 147.111 1176.13 158.698C1089.82 170.47 1001.19 193.376 921.193 204.2C866.681 211.581 803.902 197.953 745.535 195.582C694.136 193.5 663.148 220.529 616.079 235.456C540.043 259.557 461.759 272.855 388.238 305.039C341.725 325.388 325.809 347.242 305.913 390.044L305.975 390.003Z" stroke="url(#paint10_linear_3464_12620)" stroke-linecap="round" stroke-linejoin="round"/>
<path opacity="0.6" fill-rule="evenodd" clip-rule="evenodd" d="M329.685 391.941C311.48 430.206 252.04 452.308 211.012 459.421C241.649 470.987 267.957 478.698 295.666 498.264C347.415 534.798 391.371 579.578 445.677 613.019C587.029 700.045 767.162 706.725 927.77 694.705C1059.45 684.85 1202.54 729.878 1332.22 697.839C1372.83 687.798 1407.02 666.707 1430.32 631.554C1450.93 600.422 1450.25 566.012 1487.01 554.198C1580.55 524.2 1576.39 383.694 1534.08 317.141C1519.67 294.483 1518.17 253.97 1502.31 229.621C1483.8 201.211 1443.96 198.613 1413.57 192.696C1332.16 176.8 1261.09 149.317 1176.29 160.306C1089.72 171.522 1001.72 196.366 921.008 207.045C867.898 214.076 807.654 201.499 750.936 201.54C701.434 201.561 667.869 231.229 621.996 245.27C522.146 275.783 377.558 291.432 329.705 391.982L329.685 391.941Z" stroke="url(#paint11_linear_3464_12620)" stroke-linecap="round" stroke-linejoin="round"/>
<path opacity="0.65" fill-rule="evenodd" clip-rule="evenodd" d="M353.518 393.858C336.777 428.165 274.74 452.741 236 452.411C261.71 463.627 288.203 468.492 312.882 483.399C365.332 515.046 408.814 560.899 459.759 595.185C596.286 687.097 772.935 701.096 932.306 688.953C1052.83 679.778 1176.43 715.343 1296.26 696.313C1337.64 689.736 1374.13 672.438 1400.65 639.348C1424.67 609.37 1431.55 569.991 1464.58 553.477C1494.04 538.735 1503.36 534.921 1520.29 503.604C1532.37 481.255 1544.76 457.4 1548 431.835C1553.01 392.167 1532.72 346.686 1513.38 316.894C1499.9 296.112 1497.86 255.413 1482.13 233.497C1463.82 207.973 1419.53 203.458 1391.84 196.716C1316.8 178.449 1255.81 152.286 1176.27 162.017C1089.49 172.635 1002.16 199.334 920.74 209.87C869.073 216.55 810.974 205.004 756.008 207.54C714.279 209.457 687.971 233.291 650.262 247.311C552.784 283.576 402.319 293.823 353.518 393.837V393.858Z" stroke="url(#paint12_linear_3464_12620)" stroke-linecap="round" stroke-linejoin="round"/>
<path opacity="0.7" fill-rule="evenodd" clip-rule="evenodd" d="M377.393 395.775C361.353 427.856 298.079 450.494 261.833 446.473C289.997 460.699 320.634 465.812 347.787 483.316C398.959 516.324 442.461 560.28 493.633 593.536C622.285 677.139 787.449 694.396 935.811 682.871C1050.09 674.005 1168.25 709.446 1282.28 691.014C1322.4 684.52 1353.76 666.995 1380.34 636.461C1400.11 613.741 1412.34 570.836 1436.09 553.374C1447.49 545.003 1463.34 548.096 1476.27 535.725C1484.7 526.53 1491.2 516.139 1495.75 504.511C1508.99 482.162 1522.45 459.441 1526.39 433.299C1532.37 393.59 1512.58 346.768 1492.87 317.1C1480.15 297.947 1477.34 257.454 1461.84 237.6C1446.48 217.952 1411.86 213.478 1390.09 205.788C1317.33 180.057 1255.09 155.007 1176.06 164.12C1089.14 174.14 1002.49 202.571 920.451 212.942C870.207 219.292 813.86 208.756 760.688 213.787C719.804 217.663 691.229 243.847 653.355 256.712C562.804 287.473 422.38 305.843 377.373 395.796L377.393 395.775Z" stroke="url(#paint13_linear_3464_12620)" stroke-linecap="round" stroke-linejoin="round"/>
<path opacity="0.75" fill-rule="evenodd" clip-rule="evenodd" d="M401.289 397.631C387.393 424.928 320.984 451.875 288.78 440.845C308.119 455.689 337.684 460.246 359.807 472.43C411.762 501.027 454.234 544.941 502.973 578.321C628.985 664.604 790.233 687.942 937.955 676.252C1046.59 667.655 1159.03 703.179 1267.69 686.025C1348.57 673.263 1371.52 608.401 1423 555.889C1457.55 520.634 1495.55 487.192 1504.89 434.474C1511.9 394.91 1492.72 346.851 1472.64 317.409C1460.38 299.452 1456.79 259.908 1441.45 241.497C1424.93 221.684 1385.16 216.096 1363.54 205.231C1294.32 170.429 1225.96 156.822 1148.85 170.408C1071.29 184.057 994.715 207.025 920.204 216.096C874.599 221.663 823.839 214.736 775.801 218.983C733.742 222.714 703.187 246.96 664.591 261.351C579.586 292.999 443.904 313.946 401.309 397.631H401.289Z" stroke="url(#paint14_linear_3464_12620)" stroke-linecap="round" stroke-linejoin="round"/>
<path opacity="0.8" fill-rule="evenodd" clip-rule="evenodd" d="M425.204 399.445C411.886 425.196 345.642 448.885 316.057 437.092C334.901 454.823 366.734 462.245 389.083 475.358C432.42 500.779 468.975 535.437 509.797 564.301C633.954 652.048 790.562 680.974 938.285 669.098C1034.38 661.367 1129.67 687.839 1226.31 683.633C1299 680.479 1348.98 637.863 1391.27 581.413C1446.91 507.109 1514.83 406.187 1452.73 317.822C1441.04 301.204 1437.08 266.959 1423.68 249.311C1409.1 230.095 1377.37 224.879 1356.96 214.158C1287.23 177.542 1228.12 159.172 1148.21 173.027C1070.69 186.449 994.982 210.674 919.915 219.519C875.155 224.776 825.509 218.55 778.769 225.003C743.741 229.827 715.103 248.465 683.229 262.423C631.129 285.267 576.741 301.823 523.116 320.605C477.613 336.563 446.048 359.077 425.184 399.445H425.204Z" stroke="url(#paint15_linear_3464_12620)" stroke-linecap="round" stroke-linejoin="round"/>
<path opacity="0.85" fill-rule="evenodd" clip-rule="evenodd" d="M449.038 401.136C436.75 424.701 369.517 446.844 344.179 434.536C364.672 453.153 391.475 465.256 414.937 479.749C457.47 506.016 494.396 539.704 536.208 566.981C654.612 644.234 797.861 672.562 936.388 661.305C1028.79 653.8 1118.97 680.953 1211.55 678.788C1282.61 677.118 1337.64 636.544 1376.83 578.898C1399.82 545.086 1420.23 510.572 1443.16 476.987C1454.81 459.936 1462.48 441.195 1464.62 420.599C1468.25 385.673 1451.84 343.799 1433.28 318.152C1421.57 301.967 1416.81 269.165 1403.33 252.094C1387.33 231.868 1350.18 224.178 1328.67 211.993C1268.04 177.645 1217.65 164.1 1147.45 176.037C1070.01 189.191 995.333 214.674 919.688 223.189C875.485 228.157 826.766 222.673 781.161 231.188C746.627 237.641 715.31 256.444 683.765 271.144C609.09 305.926 487.53 327.306 449.059 401.115L449.038 401.136Z" stroke="url(#paint16_linear_3464_12620)" stroke-linecap="round" stroke-linejoin="round"/>
<path opacity="0.9" fill-rule="evenodd" clip-rule="evenodd" d="M472.789 402.723C460.563 426.268 398.588 442.783 371.332 433.134C522.064 575.269 721.33 670.005 931.873 652.831C1071.25 641.45 1243.15 733.465 1344.77 597.845C1373.41 559.621 1393.08 515.149 1420.05 475.873C1432.07 458.369 1441.12 441.876 1443.98 420.496C1448.58 385.962 1433.37 343.779 1414.32 318.296C1402.23 302.153 1396.73 271.268 1383 254.279C1368.57 236.404 1338.84 232.178 1319.39 221.704C1257.98 188.634 1218.41 167.625 1146.42 179.583C1069.16 192.428 995.622 219.148 919.4 227.25C879.897 231.456 837.24 228.137 796.768 234.94C762.214 240.734 731.226 256.671 700.197 272.237C652.736 296.05 605.729 312.482 556 331.099C517.508 345.511 490.293 369.014 472.789 402.744V402.723Z" stroke="url(#paint17_linear_3464_12620)" stroke-linecap="round" stroke-linejoin="round"/>
<path opacity="0.95" fill-rule="evenodd" clip-rule="evenodd" d="M496.416 404.146C483.922 428.681 426.813 437.917 398.814 432.412C428.05 472.533 470.315 502.593 511.096 530.344C634.531 614.318 775.594 655.697 924.286 643.512C1062.5 632.193 1234.1 733.816 1330.07 588.794C1376.55 518.572 1459.45 400.167 1395.91 318.069C1383.74 302.359 1377.14 271.185 1362.75 255.558C1346.63 238.033 1313.93 234.342 1292.8 222.405C1269.38 209.169 1243.13 188.737 1216.84 182.016C1186.15 174.181 1150.4 181.81 1120.23 188.531C1052.09 203.685 987.87 224.879 919.173 231.662C879.526 235.58 837.302 232.569 797.325 240.961C762.874 248.197 731.556 264.237 701.001 281.102C635.954 317.038 529.919 338.336 496.437 404.125L496.416 404.146Z" stroke="url(#paint18_linear_3464_12620)" stroke-linecap="round" stroke-linejoin="round"/>
<path fill-rule="evenodd" clip-rule="evenodd" d="M519.879 405.383C507.344 430.804 453.058 434.35 424.854 432.639C441.121 473.09 483.737 508.593 518.992 531.725C636.284 608.71 775.966 644.481 913.214 633.327C1036.44 623.307 1206.27 727.301 1298.18 601.474C1348.09 533.127 1446.15 402.311 1378.11 317.347C1366.48 302.833 1359.19 274.484 1345.83 260.547C1329.58 243.579 1304.39 245.352 1281.58 232.92C1224.64 201.891 1186.35 178.222 1119.08 193.025C1051.21 207.973 988.302 230.26 918.967 236.507C844.786 243.187 782.068 243.187 715.557 281.762C679.91 302.441 645.83 318.523 607.09 332.79C568.35 347.057 536.909 370.829 519.879 405.362V405.383Z" stroke="url(#paint19_linear_3464_12620)" stroke-linecap="round" stroke-linejoin="round"/>
<path fill-rule="evenodd" clip-rule="evenodd" d="M543.114 406.435C530.661 433.567 488.128 423.609 462.521 432.99C445.471 439.237 446.749 436.02 459.346 458.967C535.878 598.567 761.657 633.369 898.246 622.215C970.716 616.297 1043 642.481 1116.73 657.016C1194.89 672.438 1236.62 646.399 1283.44 586.691C1333.97 522.262 1429.51 398.827 1361.04 316.069C1350.61 303.472 1339.58 269.227 1326.26 259.784C1316.01 252.527 1312.55 259.289 1300.12 255.702C1284.24 251.125 1271.23 243.744 1256.78 235.518C1212.95 210.55 1170.15 189.562 1117.68 198.242C1049.78 209.478 987.869 236.445 918.719 241.93C847.858 247.558 785.367 248.259 722.794 286.051C666.405 320.09 569.937 347.985 543.114 406.435Z" stroke="url(#paint20_linear_3464_12620)" stroke-linecap="round" stroke-linejoin="round"/>
<path fill-rule="evenodd" clip-rule="evenodd" d="M566.123 407.259C556.206 430.825 516.023 428.598 492.252 432.495C466.81 436.659 468.913 435.113 479.387 460.885C535.63 599.288 759.74 619.967 879.011 610.071C949.274 604.236 1020.03 635.327 1092.96 650.233C1169.32 665.82 1211.32 640.069 1261.96 586.361C1317.15 527.808 1413.16 393.879 1344.8 314.028C1332.78 299.988 1320.82 270.443 1305.56 262.98C1303.54 261.99 1288.68 264.856 1285.07 264.237C1270.37 261.702 1258.35 253.145 1245.77 245.785C1204.27 221.498 1166.23 207.684 1116.93 209.416C1050.22 211.746 984.488 243.414 918.575 247.909C847.219 252.774 785.718 255.455 722.835 294.38C672.22 325.718 588.947 353.015 566.123 407.28V407.259Z" stroke="url(#paint21_linear_3464_12620)" stroke-linecap="round" stroke-linejoin="round"/>
<path fill-rule="evenodd" clip-rule="evenodd" d="M588.843 407.816C573.649 445.422 486.067 406.455 494.458 457.751C502.169 504.882 552.248 539.395 590.946 560.548C670.323 603.948 774.832 603.762 854.991 596.773C923.812 590.773 998.054 627.451 1072.3 641.45C1142.23 654.625 1190.78 632.771 1240.43 584.32C1295.81 530.282 1394.83 385.673 1329.37 311.059C1311.46 290.628 1307.05 284.277 1282.88 277.041C1260.7 270.402 1243.56 261.166 1223.42 249.311C1126.01 191.995 1017.23 249.001 918.451 254.444C853.754 257.99 793.964 258.918 735.453 293.823C687.662 322.357 608.863 358.273 588.843 407.816V407.816Z" stroke="url(#paint22_linear_3464_12620)" stroke-linecap="round" stroke-linejoin="round"/>
<path fill-rule="evenodd" clip-rule="evenodd" d="M609.914 407.692C596.472 445.051 507.941 406.063 508.787 458.06C509.405 496.181 557.856 531.416 585.73 548.467C659.519 593.557 759.389 592.175 834.106 585.969C949.027 576.424 1093.35 682.314 1211.44 587.639C1272.63 538.591 1366.07 395.899 1310.36 323.842C1288.78 295.926 1245.11 279.556 1212.93 260.258C1121.49 205.375 1011.19 256.155 918.369 260.032C851.775 262.815 795.016 265.536 734.752 301.369C689.806 328.089 627.336 359.386 609.935 407.692H609.914Z" stroke="url(#paint23_linear_3464_12620)" stroke-linecap="round" stroke-linejoin="round"/>
<path fill-rule="evenodd" clip-rule="evenodd" d="M628.099 406.538C615.357 439.999 526.662 409.28 523.363 457.648C520.765 495.48 576.906 533.457 603.585 548.096C669.457 584.238 755.245 581.867 820.787 577.063C934.862 568.713 1083 666.356 1199.9 574.836C1252.62 533.56 1335.66 418.805 1288.78 348.562C1266.06 314.544 1228.62 284.174 1192.76 264.526C1110.03 219.168 1002.01 260.939 918.389 263.825C857.919 265.928 802.892 267.763 747.72 299.782C703.207 325.636 645.458 360.994 628.099 406.538V406.538Z" stroke="url(#paint24_linear_3464_12620)" stroke-linecap="round" stroke-linejoin="round"/>
<path fill-rule="evenodd" clip-rule="evenodd" d="M644.902 404.682C631.933 437.752 540.888 410.537 538.64 460.431C537.238 491.852 583.71 524.509 605.976 537.416C666.57 572.548 747.307 570.733 808.623 566.548C915.173 559.27 1058.05 642.873 1171.53 574.032C1224.29 542.014 1308.16 435.154 1268.7 368.829C1248.12 334.233 1216.78 291.844 1179.32 272.093C1101.61 231.126 996.982 264.753 918.472 267.186C855.857 269.124 802.892 273.474 746.689 306.626C705.743 330.79 660.983 363.674 644.902 404.703V404.682Z" stroke="url(#paint25_linear_3464_12620)" stroke-linecap="round" stroke-linejoin="round"/>
<path fill-rule="evenodd" clip-rule="evenodd" d="M660.447 402.167C647.541 434.062 557.547 411.96 553.444 458.844C550.599 491.398 602.121 523.066 625.027 534.364C678.281 560.651 745.349 558.074 797.902 554.631C905.318 547.56 1046.98 624.07 1160.83 560.239C1207.15 534.261 1280.78 442.659 1250 385.054C1232.39 352.108 1206.8 302.668 1171.36 282.422C1098.32 240.693 993.849 267.969 918.616 270.155C837.57 272.505 693.084 321.533 660.427 402.187L660.447 402.167Z" stroke="url(#paint26_linear_3464_12620)" stroke-linecap="round" stroke-linejoin="round"/>
<path fill-rule="evenodd" clip-rule="evenodd" d="M674.838 399.095C662.138 429.753 573.855 412.311 568.618 456.473C565.422 483.419 605.626 509.583 624.326 519.726C674.219 546.797 738.401 544.879 788.872 541.498C891.339 534.612 1018.82 598.587 1129.61 555.621C1176.83 537.313 1260.92 456.823 1232.58 397.652C1214 358.891 1191.49 306.956 1148.77 287.349C1077.45 254.609 991.622 270.732 918.822 272.752C839.487 274.958 706.795 321.986 674.838 399.074V399.095Z" stroke="url(#paint27_linear_3464_12620)" stroke-linecap="round" stroke-linejoin="round"/>
<path fill-rule="evenodd" clip-rule="evenodd" d="M688.177 395.528C676.013 425.052 595.565 410.95 584.535 449.298C577.628 473.358 613.481 498.016 629.521 507.253C674.57 533.189 735.68 530.695 781.739 527.375C883.32 520.015 1011.31 582.341 1120.69 540.488C1161.86 524.736 1239.28 460.947 1216.27 407.094C1199.57 367.983 1181.16 319.017 1140.29 298.091C1072.21 263.227 991.127 272.505 919.008 275.144C841.116 277.989 719.206 320.234 688.157 395.549L688.177 395.528Z" stroke="url(#paint28_linear_3464_12620)" stroke-linecap="round" stroke-linejoin="round"/>
<path fill-rule="evenodd" clip-rule="evenodd" d="M700.568 391.508C688.755 418.681 612.883 409.919 601.894 445.504C593.936 471.276 631.913 492.244 649.644 500.449C689.002 518.675 738.009 515.294 776.749 512.407C874.104 505.15 996.756 561.992 1102.19 528.509C1143.51 515.376 1219.67 468.451 1200.95 413.692C1184.6 365.798 1165.78 325.491 1119.45 301.452C1059.12 270.175 983.066 275.474 919.173 277.206C844.6 279.206 730.855 321.78 700.548 391.487L700.568 391.508Z" stroke="url(#paint29_linear_3464_12620)" stroke-linecap="round" stroke-linejoin="round"/>
<path fill-rule="evenodd" clip-rule="evenodd" d="M712.176 387.116C700.774 412.558 625.81 409.032 619.006 444.515C607.832 502.944 748.977 499.46 774.316 496.573C861.156 486.677 976.179 538.282 1075.62 517.5C1115.68 509.129 1202.12 471.544 1186.56 417.98C1173.65 373.653 1153.61 336.089 1112.17 310.606C1055.78 275.948 982.117 278.443 919.956 280.298C847.466 282.463 742.545 319.285 712.196 387.116H712.176Z" stroke="url(#paint30_linear_3464_12620)" stroke-linecap="round" stroke-linejoin="round"/>
<path fill-rule="evenodd" clip-rule="evenodd" d="M725.577 381.302C715.145 403.651 643.17 407.321 637.892 439.03C629.398 490.141 751.926 483.254 774.399 480.615C859.177 470.698 972.654 520.86 1070.11 501.088C1103.12 494.388 1182.97 463.132 1172.91 420.289C1147.57 312.317 1024.8 277.329 920.699 283.02C853.837 286.669 754.915 318.42 725.577 381.302V381.302Z" stroke="url(#paint31_linear_3464_12620)" stroke-linecap="round" stroke-linejoin="round"/>
<path fill-rule="evenodd" clip-rule="evenodd" d="M737.556 375.447C727.701 396.147 666.076 402.394 658.88 429.072C646.242 476.018 757.018 467.255 777.265 464.781C854.785 455.38 956.779 497.893 1046.65 487.357C1079.22 483.543 1160.97 459.586 1155.3 420.908C1141.53 326.955 1020.8 277.742 921.462 284.649C856.909 289.143 766.379 314.915 737.576 375.447H737.556Z" stroke="url(#paint32_linear_3464_12620)" stroke-linecap="round" stroke-linejoin="round"/>
<path fill-rule="evenodd" clip-rule="evenodd" d="M749.142 369.365C740.586 387.116 683.765 399.095 679.147 421.856C670.797 462.988 764.585 451.669 783.058 449.421C855.383 440.618 950.14 478.409 1034.24 471.461C1064.19 468.987 1140.46 451.504 1137.57 418.496C1130.36 336.027 1013.99 282.01 922.595 287.473C863.651 290.999 776.378 312.894 749.142 369.385V369.365Z" stroke="url(#paint33_linear_3464_12620)" stroke-linecap="round" stroke-linejoin="round"/>
<path fill-rule="evenodd" clip-rule="evenodd" d="M760.544 363.159C753.204 378.271 698.94 396.848 698.919 417.135C698.878 449.587 776.522 437.092 791.861 435.175C836.374 429.547 1123.2 483.791 1120.73 413.218C1118.23 341.8 1006.9 284.277 923.049 289.452C868.681 292.813 786.522 309.616 760.544 363.18V363.159Z" stroke="url(#paint34_linear_3464_12620)" stroke-linecap="round" stroke-linejoin="round"/>
<path fill-rule="evenodd" clip-rule="evenodd" d="M771.966 356.933C765.513 369.921 719.103 391.198 720.423 408.517C722.484 435.505 789.779 423.341 802.871 421.671C846.353 416.083 1104.48 461.874 1104.52 405.589C1104.54 346.562 1001.6 285.968 924.018 291.019C874.33 294.256 796.768 306.998 771.966 356.933V356.933Z" stroke="url(#paint35_linear_3464_12620)" stroke-linecap="round" stroke-linejoin="round"/>
<path fill-rule="evenodd" clip-rule="evenodd" d="M783.615 350.809C778.316 361.324 741.762 383.178 742.627 396.085C744.359 421.712 802.17 410.372 815.654 408.62C859.321 402.971 1085.99 441.649 1088.71 396.147C1091.57 348.15 994.281 288.112 924.966 292.586C879.711 295.514 807.139 304.132 783.594 350.789L783.615 350.809Z" stroke="url(#paint36_linear_3464_12620)" stroke-linecap="round" stroke-linejoin="round"/>
<path fill-rule="evenodd" clip-rule="evenodd" d="M795.696 344.913C790.851 354.623 762.626 374.725 764.399 386.498C767.616 407.898 818.252 397.569 829.674 396.126C878.763 389.92 940.347 407.775 996.075 407.197C1019.66 406.95 1071.16 401.136 1073.06 385.467C1077.68 347.469 985.725 290.195 925.874 294.339C885.299 297.143 817.716 300.812 795.696 344.913V344.913Z" stroke="url(#paint37_linear_3464_12620)" stroke-linecap="round" stroke-linejoin="round"/>
<path fill-rule="evenodd" clip-rule="evenodd" d="M808.417 339.325C802.5 349.881 783.305 366.148 787.449 379.508C791.82 393.59 836.56 385.178 844.353 384.189C886.041 378.849 1052.67 403.94 1057.29 374.004C1061.93 343.779 977.911 292.772 926.616 296.297C890.309 298.792 829.941 300.874 808.417 339.325Z" stroke="url(#paint38_linear_3464_12620)" stroke-linecap="round" stroke-linejoin="round"/>
<path fill-rule="evenodd" clip-rule="evenodd" d="M821.983 334.171C800.211 369.22 818.128 378.993 859.218 372.808C895.649 367.344 1037.64 387.879 1041.14 362.314C1044.65 336.748 968.963 295.514 927.111 298.586C895.113 300.936 841.982 301.967 821.963 334.171H821.983Z" stroke="url(#paint39_linear_3464_12620)" stroke-linecap="round" stroke-linejoin="round"/>
<path fill-rule="evenodd" clip-rule="evenodd" d="M836.6 329.573C815.901 357.798 846.765 366.045 873.753 362.087C908.328 357.015 1021.25 370.21 1024.44 350.912C1027.47 332.707 961.314 298.895 927.316 301.348C899.401 303.348 854.558 305.08 836.6 329.573V329.573Z" stroke="url(#paint40_linear_3464_12620)" stroke-linecap="round" stroke-linejoin="round"/>
<path fill-rule="evenodd" clip-rule="evenodd" d="M852.496 325.636C835.178 345.552 871.155 354.026 887.443 352.026C917.523 348.315 1004.26 353.531 1006.92 340.356C1009.33 328.46 952.614 302.689 927.172 304.668C904.019 306.462 867.341 308.565 852.496 325.656V325.636Z" stroke="url(#paint41_linear_3464_12620)" stroke-linecap="round" stroke-linejoin="round"/>
<path fill-rule="evenodd" clip-rule="evenodd" d="M869.836 322.481C861.692 332.79 885.319 344.954 899.71 342.686C925.337 338.625 987.148 338.893 988.282 331.12C989.313 324.089 945.913 307.183 926.533 308.626C908.761 309.946 877.588 312.667 869.836 322.502V322.481Z" stroke="url(#paint42_linear_3464_12620)" stroke-linecap="round" stroke-linejoin="round"/>
<path fill-rule="evenodd" clip-rule="evenodd" d="M877.526 323.698C877.608 328.769 898.143 332.501 923.358 332.048C948.573 331.594 968.963 327.12 968.86 322.069C968.778 316.997 948.243 313.265 923.028 313.719C897.793 314.172 877.423 318.646 877.526 323.698Z" stroke="url(#paint43_linear_3464_12620)" stroke-linecap="round" stroke-linejoin="round"/>
<path fill-rule="evenodd" clip-rule="evenodd" d="M896.411 319.904C896.411 322.193 908.41 324.048 923.214 324.048C938.017 324.048 950.016 322.193 950.016 319.904C950.016 317.616 938.017 315.76 923.214 315.76C908.41 315.76 896.411 317.616 896.411 319.904Z" stroke="url(#paint44_linear_3464_12620)" stroke-linecap="round" stroke-linejoin="round"/>
</g>
<g opacity="0.75">
<g style="mix-blend-mode:multiply" filter="url(#filter0_f_3464_12620)">
<ellipse cx="865.086" cy="650.641" rx="1099.27" ry="485.954" transform="rotate(-28.975 865.086 650.641)" fill="url(#paint45_radial_3464_12620)" fill-opacity="0.8"/>
</g>
</g>
<g opacity="0.75">
<g style="mix-blend-mode:multiply" filter="url(#filter1_f_3464_12620)">
<ellipse cx="1359.09" cy="650.641" rx="1099.27" ry="485.954" transform="rotate(-28.975 1359.09 650.641)" fill="url(#paint46_radial_3464_12620)" fill-opacity="0.8"/>
</g>
<g style="mix-blend-mode:multiply" filter="url(#filter2_f_3464_12620)">
<ellipse cx="1351.09" cy="482.65" rx="1099.27" ry="485.954" transform="rotate(-28.975 1351.09 482.65)" fill="url(#paint47_radial_3464_12620)" fill-opacity="0.8"/>
</g>
</g>
</g>
<defs>
<filter id="filter0_f_3464_12620" x="-375.215" y="-280.787" width="2480.6" height="1862.85" filterUnits="userSpaceOnUse" color-interpolation-filters="sRGB">
<feFlood flood-opacity="0" result="BackgroundImageFix"/>
<feBlend mode="normal" in="SourceGraphic" in2="BackgroundImageFix" result="shape"/>
<feGaussianBlur stdDeviation="125" result="effect1_foregroundBlur_3464_12620"/>
</filter>
<filter id="filter1_f_3464_12620" x="118.785" y="-280.786" width="2480.6" height="1862.85" filterUnits="userSpaceOnUse" color-interpolation-filters="sRGB">
<feFlood flood-opacity="0" result="BackgroundImageFix"/>
<feBlend mode="normal" in="SourceGraphic" in2="BackgroundImageFix" result="shape"/>
<feGaussianBlur stdDeviation="125" result="effect1_foregroundBlur_3464_12620"/>
</filter>
<filter id="filter2_f_3464_12620" x="110.785" y="-448.778" width="2480.6" height="1862.85" filterUnits="userSpaceOnUse" color-interpolation-filters="sRGB">
<feFlood flood-opacity="0" result="BackgroundImageFix"/>
<feBlend mode="normal" in="SourceGraphic" in2="BackgroundImageFix" result="shape"/>
<feGaussianBlur stdDeviation="125" result="effect1_foregroundBlur_3464_12620"/>
</filter>
<linearGradient id="paint0_linear_3464_12620" x1="891.5" y1="123.996" x2="891.5" y2="822.621" gradientUnits="userSpaceOnUse">
<stop stop-color="#50B6D0"/>
<stop offset="0.380208" stop-color="#BDD0E2"/>
<stop offset="0.640625" stop-color="#766EB8"/>
<stop offset="1" stop-color="#1C7CAD"/>
</linearGradient>
<linearGradient id="paint1_linear_3464_12620" x1="890.742" y1="128.569" x2="890.742" y2="807.405" gradientUnits="userSpaceOnUse">
<stop stop-color="#50B6D0"/>
<stop offset="0.380208" stop-color="#BDD0E2"/>
<stop offset="0.640625" stop-color="#766EB8"/>
<stop offset="1" stop-color="#1C7CAD"/>
</linearGradient>
<linearGradient id="paint2_linear_3464_12620" x1="890.296" y1="132.341" x2="890.296" y2="792.289" gradientUnits="userSpaceOnUse">
<stop stop-color="#50B6D0"/>
<stop offset="0.380208" stop-color="#BDD0E2"/>
<stop offset="0.640625" stop-color="#766EB8"/>
<stop offset="1" stop-color="#1C7CAD"/>
</linearGradient>
<linearGradient id="paint3_linear_3464_12620" x1="889.378" y1="136.657" x2="889.378" y2="777.59" gradientUnits="userSpaceOnUse">
<stop stop-color="#50B6D0"/>
<stop offset="0.380208" stop-color="#BDD0E2"/>
<stop offset="0.640625" stop-color="#766EB8"/>
<stop offset="1" stop-color="#1C7CAD"/>
</linearGradient>
<linearGradient id="paint4_linear_3464_12620" x1="888.951" y1="140.023" x2="888.951" y2="763.204" gradientUnits="userSpaceOnUse">
<stop stop-color="#50B6D0"/>
<stop offset="0.380208" stop-color="#BDD0E2"/>
<stop offset="0.640625" stop-color="#766EB8"/>
<stop offset="1" stop-color="#1C7CAD"/>
</linearGradient>
<linearGradient id="paint5_linear_3464_12620" x1="888.766" y1="142.745" x2="888.766" y2="750.845" gradientUnits="userSpaceOnUse">
<stop stop-color="#50B6D0"/>
<stop offset="0.380208" stop-color="#BDD0E2"/>
<stop offset="0.640625" stop-color="#766EB8"/>
<stop offset="1" stop-color="#1C7CAD"/>
</linearGradient>
<linearGradient id="paint6_linear_3464_12620" x1="888.528" y1="146.342" x2="888.528" y2="739.721" gradientUnits="userSpaceOnUse">
<stop stop-color="#50B6D0"/>
<stop offset="0.380208" stop-color="#BDD0E2"/>
<stop offset="0.640625" stop-color="#766EB8"/>
<stop offset="1" stop-color="#1C7CAD"/>
</linearGradient>
<linearGradient id="paint7_linear_3464_12620" x1="888.764" y1="148.568" x2="888.764" y2="732.608" gradientUnits="userSpaceOnUse">
<stop stop-color="#50B6D0"/>
<stop offset="0.380208" stop-color="#BDD0E2"/>
<stop offset="0.640625" stop-color="#766EB8"/>
<stop offset="1" stop-color="#1C7CAD"/>
</linearGradient>
<linearGradient id="paint8_linear_3464_12620" x1="887.821" y1="150.809" x2="887.821" y2="727.278" gradientUnits="userSpaceOnUse">
<stop stop-color="#50B6D0"/>
<stop offset="0.380208" stop-color="#BDD0E2"/>
<stop offset="0.640625" stop-color="#766EB8"/>
<stop offset="1" stop-color="#1C7CAD"/>
</linearGradient>
<linearGradient id="paint9_linear_3464_12620" x1="888.053" y1="152.879" x2="888.053" y2="720.18" gradientUnits="userSpaceOnUse">
<stop stop-color="#50B6D0"/>
<stop offset="0.380208" stop-color="#BDD0E2"/>
<stop offset="0.640625" stop-color="#766EB8"/>
<stop offset="1" stop-color="#1C7CAD"/>
</linearGradient>
<linearGradient id="paint10_linear_3464_12620" x1="889.103" y1="155.848" x2="889.103" y2="715.135" gradientUnits="userSpaceOnUse">
<stop stop-color="#50B6D0"/>
<stop offset="0.380208" stop-color="#BDD0E2"/>
<stop offset="0.640625" stop-color="#766EB8"/>
<stop offset="1" stop-color="#1C7CAD"/>
</linearGradient>
<linearGradient id="paint11_linear_3464_12620" x1="886.901" y1="157.781" x2="886.901" y2="709.533" gradientUnits="userSpaceOnUse">
<stop stop-color="#50B6D0"/>
<stop offset="0.380208" stop-color="#BDD0E2"/>
<stop offset="0.640625" stop-color="#766EB8"/>
<stop offset="1" stop-color="#1C7CAD"/>
</linearGradient>
<linearGradient id="paint12_linear_3464_12620" x1="892.385" y1="159.913" x2="892.385" y2="702.004" gradientUnits="userSpaceOnUse">
<stop stop-color="#50B6D0"/>
<stop offset="0.380208" stop-color="#BDD0E2"/>
<stop offset="0.640625" stop-color="#766EB8"/>
<stop offset="1" stop-color="#1C7CAD"/>
</linearGradient>
<linearGradient id="paint13_linear_3464_12620" x1="894.655" y1="162.209" x2="894.655" y2="696.409" gradientUnits="userSpaceOnUse">
<stop stop-color="#50B6D0"/>
<stop offset="0.380208" stop-color="#BDD0E2"/>
<stop offset="0.640625" stop-color="#766EB8"/>
<stop offset="1" stop-color="#1C7CAD"/>
</linearGradient>
<linearGradient id="paint14_linear_3464_12620" x1="897.572" y1="165.22" x2="897.572" y2="690.77" gradientUnits="userSpaceOnUse">
<stop stop-color="#50B6D0"/>
<stop offset="0.380208" stop-color="#BDD0E2"/>
<stop offset="0.640625" stop-color="#766EB8"/>
<stop offset="1" stop-color="#1C7CAD"/>
</linearGradient>
<linearGradient id="paint15_linear_3464_12620" x1="896.746" y1="168.41" x2="896.746" y2="684.089" gradientUnits="userSpaceOnUse">
<stop stop-color="#50B6D0"/>
<stop offset="0.380208" stop-color="#BDD0E2"/>
<stop offset="0.640625" stop-color="#766EB8"/>
<stop offset="1" stop-color="#1C7CAD"/>
</linearGradient>
<linearGradient id="paint16_linear_3464_12620" x1="904.654" y1="171.781" x2="904.654" y2="678.912" gradientUnits="userSpaceOnUse">
<stop stop-color="#50B6D0"/>
<stop offset="0.380208" stop-color="#BDD0E2"/>
<stop offset="0.640625" stop-color="#766EB8"/>
<stop offset="1" stop-color="#1C7CAD"/>
</linearGradient>
<linearGradient id="paint17_linear_3464_12620" x1="908.072" y1="176.193" x2="908.072" y2="672.855" gradientUnits="userSpaceOnUse">
<stop stop-color="#50B6D0"/>
<stop offset="0.380208" stop-color="#BDD0E2"/>
<stop offset="0.640625" stop-color="#766EB8"/>
<stop offset="1" stop-color="#1C7CAD"/>
</linearGradient>
<linearGradient id="paint18_linear_3464_12620" x1="908.899" y1="178.698" x2="908.899" y2="667.651" gradientUnits="userSpaceOnUse">
<stop stop-color="#50B6D0"/>
<stop offset="0.380208" stop-color="#BDD0E2"/>
<stop offset="0.640625" stop-color="#766EB8"/>
<stop offset="1" stop-color="#1C7CAD"/>
</linearGradient>
<linearGradient id="paint19_linear_3464_12620" x1="913.108" y1="188.501" x2="913.108" y2="664.23" gradientUnits="userSpaceOnUse">
<stop stop-color="#50B6D0"/>
<stop offset="0.380208" stop-color="#BDD0E2"/>
<stop offset="0.640625" stop-color="#766EB8"/>
<stop offset="1" stop-color="#1C7CAD"/>
</linearGradient>
<linearGradient id="paint20_linear_3464_12620" x1="917.357" y1="196.248" x2="917.357" y2="661.37" gradientUnits="userSpaceOnUse">
<stop stop-color="#50B6D0"/>
<stop offset="0.380208" stop-color="#BDD0E2"/>
<stop offset="0.640625" stop-color="#766EB8"/>
<stop offset="1" stop-color="#1C7CAD"/>
</linearGradient>
<linearGradient id="paint21_linear_3464_12620" x1="920.251" y1="209.271" x2="920.251" y2="654.735" gradientUnits="userSpaceOnUse">
<stop stop-color="#50B6D0"/>
<stop offset="0.380208" stop-color="#BDD0E2"/>
<stop offset="0.640625" stop-color="#766EB8"/>
<stop offset="1" stop-color="#1C7CAD"/>
</linearGradient>
<linearGradient id="paint22_linear_3464_12620" x1="922.433" y1="223.956" x2="922.433" y2="645.225" gradientUnits="userSpaceOnUse">
<stop stop-color="#50B6D0"/>
<stop offset="0.380208" stop-color="#BDD0E2"/>
<stop offset="0.640625" stop-color="#766EB8"/>
<stop offset="1" stop-color="#1C7CAD"/>
</linearGradient>
<linearGradient id="paint23_linear_3464_12620" x1="918.098" y1="234.919" x2="918.098" y2="627.281" gradientUnits="userSpaceOnUse">
<stop stop-color="#50B6D0"/>
<stop offset="0.380208" stop-color="#BDD0E2"/>
<stop offset="0.640625" stop-color="#766EB8"/>
<stop offset="1" stop-color="#1C7CAD"/>
</linearGradient>
<linearGradient id="paint24_linear_3464_12620" x1="912.944" y1="243.517" x2="912.944" y2="614.26" gradientUnits="userSpaceOnUse">
<stop stop-color="#50B6D0"/>
<stop offset="0.380208" stop-color="#BDD0E2"/>
<stop offset="0.640625" stop-color="#766EB8"/>
<stop offset="1" stop-color="#1C7CAD"/>
</linearGradient>
<linearGradient id="paint25_linear_3464_12620" x1="908.764" y1="251.896" x2="908.764" y2="601.404" gradientUnits="userSpaceOnUse">
<stop stop-color="#50B6D0"/>
<stop offset="0.380208" stop-color="#BDD0E2"/>
<stop offset="0.640625" stop-color="#766EB8"/>
<stop offset="1" stop-color="#1C7CAD"/>
</linearGradient>
<linearGradient id="paint26_linear_3464_12620" x1="905.314" y1="259.386" x2="905.314" y2="585.841" gradientUnits="userSpaceOnUse">
<stop stop-color="#50B6D0"/>
<stop offset="0.380208" stop-color="#BDD0E2"/>
<stop offset="0.640625" stop-color="#766EB8"/>
<stop offset="1" stop-color="#1C7CAD"/>
</linearGradient>
<linearGradient id="paint27_linear_3464_12620" x1="903.359" y1="267.009" x2="903.359" y2="570.577" gradientUnits="userSpaceOnUse">
<stop stop-color="#50B6D0"/>
<stop offset="0.380208" stop-color="#BDD0E2"/>
<stop offset="0.640625" stop-color="#766EB8"/>
<stop offset="1" stop-color="#1C7CAD"/>
</linearGradient>
<linearGradient id="paint28_linear_3464_12620" x1="902.058" y1="272.039" x2="902.058" y2="555.066" gradientUnits="userSpaceOnUse">
<stop stop-color="#50B6D0"/>
<stop offset="0.380208" stop-color="#BDD0E2"/>
<stop offset="0.640625" stop-color="#766EB8"/>
<stop offset="1" stop-color="#1C7CAD"/>
</linearGradient>
<linearGradient id="paint29_linear_3464_12620" x1="902.335" y1="275.762" x2="902.335" y2="539.157" gradientUnits="userSpaceOnUse">
<stop stop-color="#50B6D0"/>
<stop offset="0.380208" stop-color="#BDD0E2"/>
<stop offset="0.640625" stop-color="#766EB8"/>
<stop offset="1" stop-color="#1C7CAD"/>
</linearGradient>
<linearGradient id="paint30_linear_3464_12620" x1="903.394" y1="279.374" x2="903.394" y2="522.48" gradientUnits="userSpaceOnUse">
<stop stop-color="#50B6D0"/>
<stop offset="0.380208" stop-color="#BDD0E2"/>
<stop offset="0.640625" stop-color="#766EB8"/>
<stop offset="1" stop-color="#1C7CAD"/>
</linearGradient>
<linearGradient id="paint31_linear_3464_12620" x1="905.625" y1="282.433" x2="905.625" y2="505.748" gradientUnits="userSpaceOnUse">
<stop stop-color="#50B6D0"/>
<stop offset="0.380208" stop-color="#BDD0E2"/>
<stop offset="0.640625" stop-color="#766EB8"/>
<stop offset="1" stop-color="#1C7CAD"/>
</linearGradient>
<linearGradient id="paint32_linear_3464_12620" x1="906.731" y1="284.008" x2="906.731" y2="489.048" gradientUnits="userSpaceOnUse">
<stop stop-color="#50B6D0"/>
<stop offset="0.380208" stop-color="#BDD0E2"/>
<stop offset="0.640625" stop-color="#766EB8"/>
<stop offset="1" stop-color="#1C7CAD"/>
</linearGradient>
<linearGradient id="paint33_linear_3464_12620" x1="908.136" y1="287.094" x2="908.136" y2="472.319" gradientUnits="userSpaceOnUse">
<stop stop-color="#50B6D0"/>
<stop offset="0.380208" stop-color="#BDD0E2"/>
<stop offset="0.640625" stop-color="#766EB8"/>
<stop offset="1" stop-color="#1C7CAD"/>
</linearGradient>
<linearGradient id="paint34_linear_3464_12620" x1="909.831" y1="289.129" x2="909.831" y2="449.814" gradientUnits="userSpaceOnUse">
<stop stop-color="#50B6D0"/>
<stop offset="0.380208" stop-color="#BDD0E2"/>
<stop offset="0.640625" stop-color="#766EB8"/>
<stop offset="1" stop-color="#1C7CAD"/>
</linearGradient>
<linearGradient id="paint35_linear_3464_12620" x1="912.458" y1="290.724" x2="912.458" y2="433.968" gradientUnits="userSpaceOnUse">
<stop stop-color="#50B6D0"/>
<stop offset="0.380208" stop-color="#BDD0E2"/>
<stop offset="0.640625" stop-color="#766EB8"/>
<stop offset="1" stop-color="#1C7CAD"/>
</linearGradient>
<linearGradient id="paint36_linear_3464_12620" x1="915.691" y1="292.35" x2="915.691" y2="418.604" gradientUnits="userSpaceOnUse">
<stop stop-color="#50B6D0"/>
<stop offset="0.380208" stop-color="#BDD0E2"/>
<stop offset="0.640625" stop-color="#766EB8"/>
<stop offset="1" stop-color="#1C7CAD"/>
</linearGradient>
<linearGradient id="paint37_linear_3464_12620" x1="918.773" y1="294.126" x2="918.773" y2="407.211" gradientUnits="userSpaceOnUse">
<stop stop-color="#50B6D0"/>
<stop offset="0.380208" stop-color="#BDD0E2"/>
<stop offset="0.640625" stop-color="#766EB8"/>
<stop offset="1" stop-color="#1C7CAD"/>
</linearGradient>
<linearGradient id="paint38_linear_3464_12620" x1="922.17" y1="296.124" x2="922.17" y2="388.989" gradientUnits="userSpaceOnUse">
<stop stop-color="#50B6D0"/>
<stop offset="0.380208" stop-color="#BDD0E2"/>
<stop offset="0.640625" stop-color="#766EB8"/>
<stop offset="1" stop-color="#1C7CAD"/>
</linearGradient>
<linearGradient id="paint39_linear_3464_12620" x1="926.957" y1="298.423" x2="926.957" y2="375.481" gradientUnits="userSpaceOnUse">
<stop stop-color="#50B6D0"/>
<stop offset="0.380208" stop-color="#BDD0E2"/>
<stop offset="0.640625" stop-color="#766EB8"/>
<stop offset="1" stop-color="#1C7CAD"/>
</linearGradient>
<linearGradient id="paint40_linear_3464_12620" x1="927.185" y1="301.222" x2="927.185" y2="363.019" gradientUnits="userSpaceOnUse">
<stop stop-color="#50B6D0"/>
<stop offset="0.380208" stop-color="#BDD0E2"/>
<stop offset="0.640625" stop-color="#766EB8"/>
<stop offset="1" stop-color="#1C7CAD"/>
</linearGradient>
<linearGradient id="paint41_linear_3464_12620" x1="927.444" y1="304.56" x2="927.444" y2="352.311" gradientUnits="userSpaceOnUse">
<stop stop-color="#50B6D0"/>
<stop offset="0.380208" stop-color="#BDD0E2"/>
<stop offset="0.640625" stop-color="#766EB8"/>
<stop offset="1" stop-color="#1C7CAD"/>
</linearGradient>
<linearGradient id="paint42_linear_3464_12620" x1="928.235" y1="308.539" x2="928.235" y2="342.962" gradientUnits="userSpaceOnUse">
<stop stop-color="#50B6D0"/>
<stop offset="0.380208" stop-color="#BDD0E2"/>
<stop offset="0.640625" stop-color="#766EB8"/>
<stop offset="1" stop-color="#1C7CAD"/>
</linearGradient>
<linearGradient id="paint43_linear_3464_12620" x1="923.193" y1="313.682" x2="923.193" y2="332.085" gradientUnits="userSpaceOnUse">
<stop stop-color="#50B6D0"/>
<stop offset="0.380208" stop-color="#BDD0E2"/>
<stop offset="0.640625" stop-color="#766EB8"/>
<stop offset="1" stop-color="#1C7CAD"/>
</linearGradient>
<linearGradient id="paint44_linear_3464_12620" x1="923.214" y1="315.76" x2="923.214" y2="324.048" gradientUnits="userSpaceOnUse">
<stop stop-color="#50B6D0"/>
<stop offset="0.380208" stop-color="#BDD0E2"/>
<stop offset="0.640625" stop-color="#766EB8"/>
<stop offset="1" stop-color="#1C7CAD"/>
</linearGradient>
<radialGradient id="paint45_radial_3464_12620" cx="0" cy="0" r="1" gradientUnits="userSpaceOnUse" gradientTransform="translate(865.086 650.641) rotate(90) scale(485.954 1099.27)">
<stop stop-color="#6A58B0"/>
<stop offset="0.802083" stop-color="#00FFFF" stop-opacity="0"/>
</radialGradient>
<radialGradient id="paint46_radial_3464_12620" cx="0" cy="0" r="1" gradientUnits="userSpaceOnUse" gradientTransform="translate(1359.09 650.641) rotate(90) scale(485.954 1099.27)">
<stop stop-color="#0C2956"/>
<stop offset="0.802083" stop-color="#145178" stop-opacity="0"/>
</radialGradient>
<radialGradient id="paint47_radial_3464_12620" cx="0" cy="0" r="1" gradientUnits="userSpaceOnUse" gradientTransform="translate(1351.09 482.65) rotate(90) scale(485.954 1099.27)">
<stop stop-color="#6A58B0"/>
<stop offset="0.802083" stop-color="#00FFFF" stop-opacity="0"/>
</radialGradient>
<clipPath id="clip0_3464_12620">
<rect width="2400" height="1024" fill="white"/>
</clipPath>
</defs>
</svg>
