<svg width="2400" height="1024" viewBox="0 0 2400 1024" fill="none" xmlns="http://www.w3.org/2000/svg">
<g clip-path="url(#clip0_3463_9509)">
<rect width="2400" height="1024" fill="#0C2956"/>
<rect x="463" width="1440" height="1024" fill="#0C2956"/>
<g opacity="0.25">
<path opacity="0.05" fill-rule="evenodd" clip-rule="evenodd" d="M545.958 377.22C512.62 428.041 447.552 476.1 433.264 537.004C425.574 569.847 438.047 562.322 461.963 573.104C485.611 583.743 489.013 606.051 492.848 629.74C499.755 672.232 499.569 718.662 523.588 756.309C564.823 820.903 666.713 823.068 734.771 822.573C956.88 820.985 1179.26 755.752 1396.05 753.814C1602.01 751.98 1828.1 806.553 2037.59 773.195C2085.88 765.504 2172.53 745.877 2195.54 694.561C2205.42 672.541 2197.91 644.337 2199.05 621.122C2200.57 589.495 2209.87 559.064 2231.83 535.457C2249.54 516.386 2272.98 509.562 2277.41 480.883C2283.74 439.876 2237.11 410.249 2217.05 380.065C2185.09 331.986 2183.03 264.794 2157.86 211.56C2143.11 180.367 2125.11 149.544 2092.29 136.039C2058.52 122.164 2018.13 125.545 1982.63 126.906C1887.32 130.514 1791.28 116.309 1697.02 131.153C1592.12 147.668 1476.46 154.265 1384.83 167.172C1299.77 179.171 1188.56 137.524 1093.96 125.587C1006.67 114.577 942.634 163.502 861.917 186.469C777.119 210.591 661.353 204.736 588.966 259.619C542.804 294.627 572.761 336.274 545.917 377.199L545.958 377.22Z" stroke="url(#paint0_linear_3463_9509)" stroke-linecap="round" stroke-linejoin="round"/>
<path opacity="0.1" fill-rule="evenodd" clip-rule="evenodd" d="M566.514 377.591C535.814 429.526 472.664 472.224 455.881 531.21C447.037 562.301 460.5 553.312 482.56 564.218C501.61 573.64 506.126 591.227 510.6 610.772C519.919 651.615 520.393 695.798 543.422 732.434C583.44 796.121 678.733 805.131 746.77 807.007C960.323 812.883 1177.71 751.815 1383.8 747.238C1486.04 744.97 1594.51 757.443 1699.8 764.742C1806.6 772.164 1919.35 782.926 2025.37 762.391C2074.07 752.969 2152.33 728.703 2174.6 677.778C2184.14 655.944 2177.92 628.379 2180.31 605.308C2183.56 573.95 2194.92 547.395 2217.25 524.984C2234.3 507.871 2248.14 501.253 2253.21 475.337C2261.77 431.588 2220.1 400.105 2198.99 367.221C2168.33 319.492 2166.16 255.29 2140.76 203.252C2126.41 173.851 2108.85 146.204 2077.06 135.627C2042.27 124.061 2000.22 130.122 1964.44 131.73C1875.3 135.771 1786.13 121.071 1697.7 134.04C1592.67 149.441 1478.37 160.038 1385 172.388C1298.84 183.789 1192.76 142.699 1098.29 132.122C1021.27 123.504 963.437 164.965 892.493 186.758C805.488 213.478 694.031 209.416 617.088 261.31C566.245 295.596 592.45 333.614 566.493 377.529L566.514 377.591Z" stroke="url(#paint1_linear_3463_9509)" stroke-linecap="round" stroke-linejoin="round"/>
<path opacity="0.15" fill-rule="evenodd" clip-rule="evenodd" d="M587.564 378.21C560.081 428.928 493.735 468.822 478.272 524.716C470.107 554.24 481.323 543.251 503.074 554.776C522.228 564.919 526.64 585.001 531.691 604.587C542.226 645.533 546.886 692.21 576.368 725.28C619.129 773.236 700.464 786.101 760.542 790.121C965.643 803.894 1178.52 747.774 1375.14 741.197C1565.13 734.847 1775.18 785.503 1971.99 758.742C2033.55 750.371 2110.85 727.816 2146.97 671.572C2160.06 651.182 2156.87 625.988 2159.46 603.041C2162.91 572.548 2172.41 547.147 2193.58 524.613C2210.9 506.16 2223.56 497.996 2229.31 471.255C2239.25 425.011 2202.64 391.899 2180.35 356.252C2151.09 309.472 2148.99 247.909 2123.49 197.479C2088.21 127.69 2034.28 132.844 1964.36 136.122C1875.65 140.287 1786.44 125.277 1698.38 136.761C1593.07 150.492 1480.04 165.295 1385.12 177.192C1298.3 188.057 1197.85 146.987 1103.8 138.905C1029.97 132.555 970.178 174.408 901.296 194.283C816.415 218.776 705.061 217.21 632.695 272.526C591.295 304.173 609.067 338.542 587.584 378.23L587.564 378.21Z" stroke="url(#paint2_linear_3463_9509)" stroke-linecap="round" stroke-linejoin="round"/>
<path opacity="0.2" fill-rule="evenodd" clip-rule="evenodd" d="M609.067 379.096C583.564 429.732 531.485 461.318 505.198 510.82C490.972 537.622 494.807 529.952 516.042 542.323C535.752 553.807 541.793 561.785 550.164 584.217C564.658 623.06 568.905 667.14 597.769 699.509C640.199 747.073 715.473 765.36 775.737 772.081C972.508 794.08 1181.3 743.629 1369.64 735.527C1553.44 727.61 1757.98 778.37 1948.86 750.701C2012.92 741.403 2083.92 717.033 2120.62 659.119C2133.59 638.667 2134.02 618.235 2137.92 594.959C2147.15 539.911 2195.56 517.994 2206.24 465.957C2215.89 418.826 2183.73 383.941 2161.09 346.974C2135.01 304.359 2132.08 249.208 2110.19 202.942C2076.77 132.308 2024.94 138.307 1955.35 141.379C1863.94 145.42 1772.89 128.947 1682.01 141.4C1582.26 155.09 1476.27 170.594 1385.12 181.5C1306.01 190.984 1215.56 160.203 1131.26 148.286C1056.63 137.751 1002.34 174.14 933.294 195.458C846.31 222.302 739.08 222.549 662.054 274.484C616.366 305.286 630.468 336.604 609.047 379.096H609.067Z" stroke="url(#paint3_linear_3463_9509)" stroke-linecap="round" stroke-linejoin="round"/>
<path opacity="0.25" fill-rule="evenodd" clip-rule="evenodd" d="M630.984 380.189C607.191 429.052 557.648 458.514 528.062 503.294C513.445 525.417 514.785 520.056 533.444 531.19C553.071 542.9 560.37 547.312 570.802 569.909C587.976 607.123 595.068 649.306 625.561 679.407C671.414 724.662 740.131 745.485 801.901 754.371C988.198 781.215 1188.14 739.156 1366.92 730.146C1548.99 720.971 1756.48 776.947 1944.71 739.877C2033.31 722.435 2092.35 671.758 2115.4 587.516C2129.57 535.746 2176.58 510.284 2184.72 456.431C2191.56 411.177 2163.03 374.931 2141.42 339.222C2116.58 298.132 2114 244.816 2092.07 200.427C2058.69 132.906 2002.17 145.297 1936.69 147.42C1851.63 150.162 1767.49 132.968 1682.71 143.441C1582.57 155.811 1477.49 174.8 1385.12 185.459C1306.43 194.551 1220.47 164.141 1137.16 154.76C1065.93 146.76 1009.64 184.346 943.046 203.829C861.299 227.745 766.583 232.033 692.444 276.608C643.004 306.338 652.797 335.367 630.963 380.209L630.984 380.189Z" stroke="url(#paint4_linear_3463_9509)" stroke-linecap="round" stroke-linejoin="round"/>
<path opacity="0.3" fill-rule="evenodd" clip-rule="evenodd" d="M653.271 381.488C630.757 429.505 579.317 454.04 550.123 496.862C535.279 518.634 536.907 507.974 554.102 520.448C573.091 534.2 582.76 537.643 594.8 561.064C616.634 603.535 631.19 640.729 670.734 670.871C724.916 712.188 786.108 731.156 852.784 741.259C1021.45 766.824 1204.16 734.187 1366.59 725.012C1543.59 715.013 1747.84 772.741 1929.73 730.826C2016.9 710.745 2063 653.367 2093.74 575.558C2112.04 529.21 2151.4 506.779 2161.73 455.05C2170.89 409.135 2143.13 369.117 2121.38 332.852C2097.84 293.617 2096.15 241.579 2073.72 199.685C2042.98 142.348 1994.36 151.605 1936.9 152.987C1852 155.028 1767.94 136.06 1683.39 145.297C1582.84 156.286 1478.54 178.552 1385.08 189.026C1307.6 197.706 1225.3 168.512 1143.69 161.275C1082.19 155.832 1033.14 187.912 975.869 205.685C893.194 231.353 800.54 237.208 723.679 278.855C671.105 307.348 675.476 334.171 653.292 381.467L653.271 381.488Z" stroke="url(#paint5_linear_3463_9509)" stroke-linecap="round" stroke-linejoin="round"/>
<path opacity="0.35" fill-rule="evenodd" clip-rule="evenodd" d="M675.888 382.952C654.281 430.083 600.45 449.195 572.245 490.223C563.009 503.645 557.421 496.862 566.225 508.366C567.895 510.552 587.955 513.871 591.996 516.345C601.336 522.077 607.212 531.684 613.377 540.323C640.715 578.568 656.075 614.834 694.155 645.553C745.801 687.2 803.488 709.755 868.02 723.26C1030.07 757.196 1210.37 729.692 1368.19 720.002C1531.32 709.982 1712.32 758.02 1880.31 729.136C1977.39 712.456 2025.04 656.522 2067.94 574.712C2091.39 530.014 2127.16 507.005 2138.87 454.535C2149.32 407.713 2123.26 364.87 2101.01 327.78C2078.79 290.71 2077.55 239.868 2055.08 200.551C2024.67 147.358 1971.08 159.419 1917.79 159.358C1831.13 159.254 1747.65 138.307 1660.9 149.771C1567.91 162.038 1472.29 182.82 1384.94 192.366C1309.08 200.654 1230.2 172.697 1150.66 167.934C1092.09 164.429 1040.87 198.448 985.806 214.777C904.141 238.981 814.353 246.919 739.307 289.617C694.299 315.224 695.083 341.016 675.867 382.931L675.888 382.952Z" stroke="url(#paint6_linear_3463_9509)" stroke-linecap="round" stroke-linejoin="round"/>
<path opacity="0.4" fill-rule="evenodd" clip-rule="evenodd" d="M698.814 384.58C678.362 429.67 628.386 448.143 595.522 482.76C587.667 491.027 580.513 488.079 585.255 497.212C586.327 499.274 607.604 502.284 610.841 503.934C620.881 509.047 627.767 517.376 635.066 525.623C666.322 560.961 687.661 596.794 725.411 627.41C774.645 667.346 830.167 691.633 891.4 707.013C1045.51 745.732 1219.28 725.074 1371.33 715.116C1529.36 704.766 1705.22 753.711 1866.55 721.425C1924.1 709.92 1976.24 684.953 2003.47 630.338C2015.37 606.463 2029.99 587.062 2046.05 565.187C2059.14 547.353 2077.76 536.199 2090.66 519.108C2105.26 499.769 2114.93 467.297 2118.66 443.381C2125.4 400.229 2100.7 357.634 2080.42 323.904C2060.77 291.246 2058.81 246.321 2040.5 210.591C2014.85 160.553 1967.48 166.656 1917.89 165.811C1831.34 164.326 1748.25 140.72 1661.45 151.276C1568.08 162.636 1473.01 186.016 1384.83 195.5C1317.27 202.757 1247.03 183.129 1176.58 176.264C1116.89 170.45 1074.15 199.829 1018.63 217.168C936.304 242.899 847.898 252.156 770.48 291.968C722.875 316.44 718.751 340.624 698.814 384.56V384.58Z" stroke="url(#paint7_linear_3463_9509)" stroke-linecap="round" stroke-linejoin="round"/>
<path opacity="0.45" fill-rule="evenodd" clip-rule="evenodd" d="M721.988 386.312C699.886 435.01 639.828 451.999 603.975 485.749C633.829 492.161 650.446 504.14 670.981 526.901C715.184 575.929 762.295 623.163 821.384 654.46C986.074 741.65 1200.33 722.208 1375.58 710.23C1529.85 699.694 1704.69 751.794 1859.98 712.188C1921.02 696.622 1953.95 665.985 1982.73 611.844C1993.74 591.124 2004.75 577.805 2021.8 561.167C2037.99 545.374 2059.14 534.096 2071.22 514.758C2082.79 496.243 2091.41 468.183 2095.71 446.679C2104.7 401.878 2080.91 356.067 2059.68 321.038C2041.16 290.504 2039.78 245.971 2021.22 212.901C1995.64 167.316 1943.68 174.614 1898.2 172.078C1818.04 167.604 1742.93 143.833 1661.93 152.822C1568.16 163.213 1473.61 189.088 1384.67 198.51C1318.96 205.478 1251.36 186.985 1182.95 182.49C1126.02 178.738 1081.26 210.798 1027.93 226.797C952.427 249.455 873.814 260.629 801.962 294.4C752.275 317.76 742.729 340.666 722.009 386.312H721.988Z" stroke="url(#paint8_linear_3463_9509)" stroke-linecap="round" stroke-linejoin="round"/>
<path opacity="0.5" fill-rule="evenodd" clip-rule="evenodd" d="M745.389 388.126C725.411 431.917 667.93 455.009 626.407 475.935C715.081 503.81 768.274 593.536 850.31 638.275C1009.27 724.971 1207.94 717.487 1380.5 705.24C1521.59 695.22 1673.02 737.321 1815.32 711.879C1869.71 702.148 1918.86 679.015 1946.76 629.266C1963.74 598.979 1964.92 580.898 1993.33 561.27C2037.35 530.86 2061.22 502.531 2073.28 447.731C2083.26 402.435 2060.48 354.376 2038.77 319.059C2021.39 290.772 2020.28 246.465 2001.66 216.117C1979.8 180.47 1934.96 182.305 1897.93 179.315C1817.86 172.862 1743.59 146.327 1662.26 154.389C1568.14 163.708 1474.13 192.077 1384.42 201.396C1319.23 208.159 1252.72 189.17 1185.03 188.613C1135.49 188.201 1094.62 218.9 1048.01 232.982C971.684 256.032 892.864 268.32 820.271 302.792C775.449 324.069 764.336 346.603 745.368 388.168L745.389 388.126Z" stroke="url(#paint9_linear_3463_9509)" stroke-linecap="round" stroke-linejoin="round"/>
<path opacity="0.55" fill-rule="evenodd" clip-rule="evenodd" d="M768.975 390.003C750.007 430.804 691.681 453.999 649.849 467.276C737.121 496.408 791.097 571.208 869.299 618.215C1022.73 710.415 1213.63 712.601 1385.72 700.065C1523.11 690.045 1673.04 735.259 1809.71 703.859C1852.53 694.024 1890.68 673.758 1915.48 636.564C1935.25 606.917 1935.54 574.568 1968.49 558.281C2018.01 533.787 2043.72 495.707 2053.02 439.36C2060.03 396.827 2038.23 350.417 2017.88 317.76C2001.87 292.05 2000.79 246.795 1981.93 219.993C1959.54 188.18 1911.73 189.356 1877.34 184.799C1794.93 173.893 1723.92 147.111 1639.13 158.698C1552.82 170.47 1464.19 193.376 1384.19 204.2C1329.68 211.581 1266.9 197.953 1208.53 195.582C1157.14 193.5 1126.15 220.529 1079.08 235.456C1003.04 259.557 924.759 272.855 851.238 305.039C804.725 325.388 788.809 347.242 768.913 390.044L768.975 390.003Z" stroke="url(#paint10_linear_3463_9509)" stroke-linecap="round" stroke-linejoin="round"/>
<path opacity="0.6" fill-rule="evenodd" clip-rule="evenodd" d="M792.685 391.941C774.48 430.206 715.04 452.308 674.012 459.421C704.649 470.987 730.957 478.698 758.666 498.264C810.415 534.797 854.371 579.578 908.677 613.019C1050.03 700.045 1230.16 706.725 1390.77 694.705C1522.45 684.85 1665.54 729.878 1795.22 697.839C1835.83 687.798 1870.02 666.707 1893.32 631.554C1913.93 600.422 1913.25 566.012 1950.01 554.198C2043.55 524.2 2039.39 383.694 1997.08 317.141C1982.67 294.483 1981.17 253.97 1965.31 229.621C1946.8 201.211 1906.96 198.613 1876.57 192.696C1795.16 176.8 1724.09 149.317 1639.29 160.306C1552.72 171.522 1464.72 196.366 1384.01 207.045C1330.9 214.076 1270.65 201.499 1213.94 201.54C1164.43 201.561 1130.87 231.229 1085 245.27C985.146 275.783 840.558 291.432 792.705 391.982L792.685 391.941Z" stroke="url(#paint11_linear_3463_9509)" stroke-linecap="round" stroke-linejoin="round"/>
<path opacity="0.65" fill-rule="evenodd" clip-rule="evenodd" d="M816.518 393.858C799.777 428.165 737.74 452.741 699 452.411C724.71 463.627 751.203 468.492 775.882 483.399C828.332 515.046 871.814 560.899 922.759 595.185C1059.29 687.097 1235.93 701.096 1395.31 688.953C1515.83 679.778 1639.43 715.343 1759.26 696.313C1800.64 689.736 1837.13 672.438 1863.65 639.348C1887.67 609.37 1894.55 569.991 1927.58 553.477C1957.04 538.735 1966.36 534.921 1983.29 503.604C1995.37 481.255 2007.76 457.4 2011 431.835C2016.01 392.167 1995.72 346.686 1976.38 316.894C1962.9 296.112 1960.86 255.413 1945.13 233.497C1926.82 207.973 1882.53 203.458 1854.84 196.716C1779.8 178.449 1718.81 152.286 1639.27 162.017C1552.49 172.635 1465.16 199.334 1383.74 209.87C1332.07 216.55 1273.97 205.004 1219.01 207.54C1177.28 209.457 1150.97 233.291 1113.26 247.311C1015.78 283.576 865.319 293.823 816.518 393.837V393.858Z" stroke="url(#paint12_linear_3463_9509)" stroke-linecap="round" stroke-linejoin="round"/>
<path opacity="0.7" fill-rule="evenodd" clip-rule="evenodd" d="M840.393 395.775C824.352 427.856 761.078 450.494 724.833 446.473C752.996 460.699 783.633 465.812 810.786 483.316C861.958 516.324 905.461 560.28 956.633 593.536C1085.28 677.139 1250.45 694.396 1398.81 682.871C1513.09 674.005 1631.25 709.446 1745.28 691.014C1785.4 684.52 1816.76 666.995 1843.34 636.461C1863.11 613.741 1875.34 570.836 1899.09 553.374C1910.49 545.003 1926.34 548.096 1939.27 535.725C1947.7 526.53 1954.2 516.139 1958.75 504.511C1971.99 482.162 1985.45 459.441 1989.39 433.299C1995.37 393.59 1975.58 346.768 1955.87 317.1C1943.15 297.947 1940.34 257.454 1924.84 237.6C1909.48 217.952 1874.86 213.478 1853.09 205.788C1780.33 180.057 1718.09 155.007 1639.06 164.12C1552.14 174.14 1465.49 202.571 1383.45 212.942C1333.21 219.292 1276.86 208.756 1223.69 213.787C1182.8 217.663 1154.23 243.847 1116.35 256.712C1025.8 287.473 885.379 305.843 840.372 395.796L840.393 395.775Z" stroke="url(#paint13_linear_3463_9509)" stroke-linecap="round" stroke-linejoin="round"/>
<path opacity="0.75" fill-rule="evenodd" clip-rule="evenodd" d="M864.289 397.631C850.393 424.928 783.984 451.875 751.78 440.845C771.119 455.689 800.684 460.246 822.807 472.43C874.762 501.026 917.234 544.941 965.973 578.321C1091.99 664.604 1253.23 687.942 1400.96 676.252C1509.59 667.655 1622.03 703.179 1730.69 686.025C1811.57 673.263 1834.52 608.401 1886 555.889C1920.55 520.633 1958.55 487.192 1967.89 434.474C1974.9 394.91 1955.72 346.851 1935.64 317.409C1923.38 299.452 1919.79 259.908 1904.45 241.497C1887.93 221.684 1848.16 216.096 1826.54 205.231C1757.32 170.429 1688.96 156.822 1611.85 170.408C1534.29 184.057 1457.71 207.025 1383.2 216.096C1337.6 221.663 1286.84 214.735 1238.8 218.983C1196.74 222.714 1166.19 246.96 1127.59 261.351C1042.59 292.999 906.904 313.946 864.309 397.631H864.289Z" stroke="url(#paint14_linear_3463_9509)" stroke-linecap="round" stroke-linejoin="round"/>
<path opacity="0.8" fill-rule="evenodd" clip-rule="evenodd" d="M888.204 399.445C874.886 425.196 808.642 448.886 779.057 437.092C797.901 454.823 829.734 462.245 852.083 475.358C895.42 500.779 931.975 535.437 972.797 564.301C1096.95 652.048 1253.56 680.974 1401.28 669.098C1497.38 661.367 1592.67 687.839 1689.31 683.633C1762 680.479 1811.98 637.863 1854.27 581.413C1909.91 507.109 1977.83 406.187 1915.73 317.822C1904.04 301.204 1900.08 266.959 1886.68 249.311C1872.1 230.095 1840.37 224.879 1819.96 214.158C1750.23 177.542 1691.12 159.172 1611.21 173.027C1533.69 186.449 1457.98 210.674 1382.91 219.519C1338.15 224.776 1288.51 218.55 1241.77 225.003C1206.74 229.827 1178.1 248.465 1146.23 262.423C1094.13 285.267 1039.74 301.823 986.116 320.605C940.613 336.563 909.048 359.077 888.184 399.445H888.204Z" stroke="url(#paint15_linear_3463_9509)" stroke-linecap="round" stroke-linejoin="round"/>
<path opacity="0.85" fill-rule="evenodd" clip-rule="evenodd" d="M912.038 401.136C899.75 424.701 832.517 446.844 807.179 434.536C827.672 453.153 854.475 465.256 877.937 479.749C920.47 506.016 957.396 539.704 999.208 566.981C1117.61 644.234 1260.86 672.562 1399.39 661.305C1491.79 653.8 1581.97 680.953 1674.55 678.788C1745.61 677.118 1800.64 636.544 1839.83 578.898C1862.82 545.086 1883.23 510.572 1906.16 476.987C1917.81 459.936 1925.48 441.195 1927.62 420.599C1931.25 385.673 1914.84 343.799 1896.28 318.152C1884.57 301.967 1879.81 269.165 1866.33 252.094C1850.33 231.868 1813.18 224.178 1791.67 211.993C1731.04 177.645 1680.65 164.1 1610.45 176.037C1533.01 189.191 1458.33 214.674 1382.69 223.189C1338.49 228.157 1289.77 222.673 1244.16 231.188C1209.63 237.641 1178.31 256.444 1146.77 271.144C1072.09 305.926 950.53 327.306 912.059 401.115L912.038 401.136Z" stroke="url(#paint16_linear_3463_9509)" stroke-linecap="round" stroke-linejoin="round"/>
<path opacity="0.9" fill-rule="evenodd" clip-rule="evenodd" d="M935.788 402.723C923.562 426.268 861.587 442.783 834.331 433.134C985.064 575.269 1184.33 670.005 1394.87 652.831C1534.25 641.45 1706.15 733.465 1807.77 597.845C1836.41 559.621 1856.08 515.149 1883.05 475.873C1895.07 458.369 1904.12 441.876 1906.98 420.496C1911.58 385.962 1896.37 343.779 1877.32 318.296C1865.23 302.153 1859.73 271.268 1846 254.279C1831.57 236.404 1801.84 232.178 1782.39 221.704C1720.98 188.634 1681.41 167.625 1609.42 179.583C1532.16 192.428 1458.62 219.148 1382.4 227.25C1342.9 231.456 1300.24 228.137 1259.77 234.94C1225.21 240.734 1194.23 256.671 1163.2 272.237C1115.74 296.05 1068.73 312.482 1019 331.099C980.507 345.511 953.293 369.014 935.788 402.744V402.723Z" stroke="url(#paint17_linear_3463_9509)" stroke-linecap="round" stroke-linejoin="round"/>
<path opacity="0.95" fill-rule="evenodd" clip-rule="evenodd" d="M959.416 404.146C946.922 428.681 889.813 437.917 861.814 432.412C891.05 472.533 933.315 502.593 974.096 530.344C1097.53 614.318 1238.59 655.697 1387.29 643.512C1525.5 632.193 1697.1 733.816 1793.07 588.794C1839.55 518.572 1922.45 400.167 1858.91 318.069C1846.74 302.359 1840.14 271.185 1825.75 255.558C1809.63 238.033 1776.93 234.342 1755.8 222.405C1732.38 209.169 1706.13 188.737 1679.84 182.016C1649.15 174.181 1613.4 181.81 1583.23 188.531C1515.09 203.685 1450.87 224.879 1382.17 231.662C1342.53 235.58 1300.3 232.569 1260.33 240.961C1225.87 248.197 1194.56 264.237 1164 281.102C1098.95 317.038 992.919 338.336 959.437 404.125L959.416 404.146Z" stroke="url(#paint18_linear_3463_9509)" stroke-linecap="round" stroke-linejoin="round"/>
<path fill-rule="evenodd" clip-rule="evenodd" d="M982.879 405.383C970.344 430.804 916.058 434.35 887.854 432.639C904.121 473.09 946.737 508.593 981.992 531.726C1099.28 608.71 1238.97 644.481 1376.21 633.327C1499.44 623.307 1669.27 727.301 1761.18 601.474C1811.09 533.127 1909.15 402.311 1841.11 317.347C1829.48 302.833 1822.19 274.484 1808.83 260.547C1792.58 243.579 1767.39 245.352 1744.58 232.92C1687.64 201.891 1649.35 178.222 1582.08 193.026C1514.21 207.973 1451.3 230.26 1381.97 236.507C1307.79 243.187 1245.07 243.187 1178.56 281.762C1142.91 302.441 1108.83 318.523 1070.09 332.79C1031.35 347.057 999.909 370.829 982.879 405.362V405.383Z" stroke="url(#paint19_linear_3463_9509)" stroke-linecap="round" stroke-linejoin="round"/>
<path fill-rule="evenodd" clip-rule="evenodd" d="M1006.11 406.435C993.661 433.567 951.128 423.609 925.521 432.99C908.471 439.237 909.749 436.02 922.346 458.967C998.878 598.567 1224.66 633.369 1361.25 622.215C1433.72 616.297 1506 642.481 1579.73 657.016C1657.89 672.438 1699.62 646.399 1746.44 586.691C1796.97 522.262 1892.51 398.827 1824.04 316.069C1813.61 303.472 1802.58 269.227 1789.26 259.784C1779.01 252.527 1775.55 259.289 1763.12 255.702C1747.24 251.125 1734.23 243.744 1719.78 235.518C1675.95 210.55 1633.15 189.562 1580.68 198.242C1512.78 209.478 1450.87 236.445 1381.72 241.93C1310.86 247.558 1248.37 248.259 1185.79 286.051C1129.41 320.09 1032.94 347.985 1006.11 406.435Z" stroke="url(#paint20_linear_3463_9509)" stroke-linecap="round" stroke-linejoin="round"/>
<path fill-rule="evenodd" clip-rule="evenodd" d="M1029.12 407.259C1019.21 430.825 979.023 428.598 955.252 432.495C929.81 436.659 931.913 435.113 942.387 460.885C998.63 599.288 1222.74 619.967 1342.01 610.071C1412.27 604.236 1483.03 635.327 1555.96 650.233C1632.32 665.82 1674.32 640.069 1724.96 586.361C1780.15 527.808 1876.16 393.879 1807.8 314.028C1795.78 299.988 1783.82 270.443 1768.56 262.98C1766.54 261.99 1751.68 264.856 1748.07 264.237C1733.37 261.702 1721.35 253.145 1708.77 245.785C1667.27 221.498 1629.23 207.684 1579.93 209.416C1513.22 211.746 1447.49 243.414 1381.58 247.909C1310.22 252.774 1248.72 255.455 1185.83 294.38C1135.22 325.718 1051.95 353.015 1029.12 407.28V407.259Z" stroke="url(#paint21_linear_3463_9509)" stroke-linecap="round" stroke-linejoin="round"/>
<path fill-rule="evenodd" clip-rule="evenodd" d="M1051.84 407.816C1036.65 445.422 949.067 406.455 957.458 457.751C965.169 504.882 1015.25 539.395 1053.95 560.548C1133.32 603.948 1237.83 603.762 1317.99 596.773C1386.81 590.773 1461.05 627.451 1535.3 641.45C1605.23 654.625 1653.78 632.771 1703.43 584.32C1758.81 530.282 1857.83 385.673 1792.37 311.059C1774.46 290.628 1770.05 284.277 1745.88 277.041C1723.7 270.402 1706.56 261.166 1686.42 249.311C1589.01 191.995 1480.23 249.001 1381.45 254.444C1316.75 257.99 1256.96 258.918 1198.45 293.823C1150.66 322.357 1071.86 358.273 1051.84 407.816V407.816Z" stroke="url(#paint22_linear_3463_9509)" stroke-linecap="round" stroke-linejoin="round"/>
<path fill-rule="evenodd" clip-rule="evenodd" d="M1072.91 407.692C1059.47 445.051 970.941 406.063 971.787 458.06C972.405 496.181 1020.86 531.416 1048.73 548.467C1122.52 593.557 1222.39 592.175 1297.11 585.969C1412.03 576.424 1556.35 682.314 1674.44 587.639C1735.63 538.591 1829.07 395.899 1773.36 323.842C1751.78 295.926 1708.11 279.556 1675.93 260.258C1584.49 205.375 1474.19 256.155 1381.37 260.032C1314.78 262.815 1258.02 265.536 1197.75 301.369C1152.81 328.089 1090.34 359.386 1072.93 407.692H1072.91Z" stroke="url(#paint23_linear_3463_9509)" stroke-linecap="round" stroke-linejoin="round"/>
<path fill-rule="evenodd" clip-rule="evenodd" d="M1091.1 406.538C1078.36 439.999 989.662 409.28 986.363 457.648C983.765 495.48 1039.91 533.457 1066.58 548.096C1132.46 584.238 1218.25 581.867 1283.79 577.063C1397.86 568.713 1546 666.356 1662.9 574.836C1715.62 533.56 1798.66 418.805 1751.78 348.562C1729.06 314.544 1691.62 284.174 1655.76 264.526C1573.03 219.168 1465.01 260.939 1381.39 263.825C1320.92 265.928 1265.89 267.763 1210.72 299.782C1166.21 325.636 1108.46 360.994 1091.1 406.538V406.538Z" stroke="url(#paint24_linear_3463_9509)" stroke-linecap="round" stroke-linejoin="round"/>
<path fill-rule="evenodd" clip-rule="evenodd" d="M1107.9 404.682C1094.93 437.752 1003.89 410.537 1001.64 460.431C1000.24 491.852 1046.71 524.51 1068.98 537.416C1129.57 572.548 1210.31 570.733 1271.62 566.548C1378.17 559.27 1521.05 642.873 1634.53 574.032C1687.29 542.014 1771.16 435.154 1731.7 368.829C1711.12 334.233 1679.78 291.844 1642.32 272.093C1564.61 231.126 1459.98 264.753 1381.47 267.186C1318.86 269.124 1265.89 273.474 1209.69 306.627C1168.74 330.79 1123.98 363.674 1107.9 404.703V404.682Z" stroke="url(#paint25_linear_3463_9509)" stroke-linecap="round" stroke-linejoin="round"/>
<path fill-rule="evenodd" clip-rule="evenodd" d="M1123.45 402.167C1110.54 434.062 1020.55 411.96 1016.44 458.844C1013.6 491.398 1065.12 523.066 1088.03 534.365C1141.28 560.651 1208.35 558.074 1260.9 554.631C1368.32 547.56 1509.98 624.07 1623.83 560.239C1670.15 534.261 1743.78 442.659 1713 385.054C1695.39 352.108 1669.8 302.668 1634.36 282.422C1561.32 240.693 1456.85 267.969 1381.62 270.155C1300.57 272.505 1156.08 321.533 1123.43 402.187L1123.45 402.167Z" stroke="url(#paint26_linear_3463_9509)" stroke-linecap="round" stroke-linejoin="round"/>
<path fill-rule="evenodd" clip-rule="evenodd" d="M1137.84 399.095C1125.14 429.753 1036.85 412.311 1031.62 456.473C1028.42 483.419 1068.63 509.583 1087.33 519.726C1137.22 546.797 1201.4 544.879 1251.87 541.498C1354.34 534.612 1481.82 598.587 1592.61 555.621C1639.83 537.313 1723.92 456.823 1695.58 397.652C1677 358.891 1654.49 306.956 1611.77 287.349C1540.45 254.609 1454.62 270.732 1381.82 272.752C1302.49 274.958 1169.79 321.986 1137.84 399.074V399.095Z" stroke="url(#paint27_linear_3463_9509)" stroke-linecap="round" stroke-linejoin="round"/>
<path fill-rule="evenodd" clip-rule="evenodd" d="M1151.18 395.528C1139.01 425.052 1058.56 410.95 1047.53 449.298C1040.63 473.358 1076.48 498.016 1092.52 507.253C1137.57 533.189 1198.68 530.695 1244.74 527.375C1346.32 520.015 1474.31 582.341 1583.69 540.488C1624.86 524.736 1702.28 460.947 1679.27 407.094C1662.57 367.983 1644.16 319.017 1603.29 298.091C1535.21 263.227 1454.13 272.505 1382.01 275.144C1304.12 277.989 1182.21 320.234 1151.16 395.549L1151.18 395.528Z" stroke="url(#paint28_linear_3463_9509)" stroke-linecap="round" stroke-linejoin="round"/>
<path fill-rule="evenodd" clip-rule="evenodd" d="M1163.57 391.508C1151.75 418.681 1075.88 409.919 1064.89 445.504C1056.94 471.276 1094.91 492.244 1112.64 500.449C1152 518.675 1201.01 515.294 1239.75 512.407C1337.1 505.15 1459.76 561.992 1565.19 528.509C1606.51 515.376 1682.67 468.451 1663.95 413.692C1647.6 365.798 1628.78 325.491 1582.45 301.452C1522.12 270.175 1446.07 275.474 1382.17 277.206C1307.6 279.206 1193.86 321.78 1163.55 391.487L1163.57 391.508Z" stroke="url(#paint29_linear_3463_9509)" stroke-linecap="round" stroke-linejoin="round"/>
<path fill-rule="evenodd" clip-rule="evenodd" d="M1175.18 387.116C1163.77 412.558 1088.81 409.032 1082.01 444.515C1070.83 502.944 1211.98 499.46 1237.32 496.573C1324.16 486.677 1439.18 538.282 1538.62 517.5C1578.68 509.129 1665.12 471.544 1649.56 417.98C1636.65 373.653 1616.61 336.089 1575.17 310.606C1518.78 275.948 1445.12 278.443 1382.96 280.298C1310.47 282.463 1205.55 319.285 1175.2 387.116H1175.18Z" stroke="url(#paint30_linear_3463_9509)" stroke-linecap="round" stroke-linejoin="round"/>
<path fill-rule="evenodd" clip-rule="evenodd" d="M1188.58 381.302C1178.14 403.651 1106.17 407.321 1100.89 439.03C1092.4 490.141 1214.93 483.254 1237.4 480.615C1322.18 470.699 1435.65 520.86 1533.11 501.088C1566.12 494.388 1645.97 463.132 1635.91 420.289C1610.57 312.317 1487.8 277.329 1383.7 283.02C1316.84 286.669 1217.92 318.42 1188.58 381.302V381.302Z" stroke="url(#paint31_linear_3463_9509)" stroke-linecap="round" stroke-linejoin="round"/>
<path fill-rule="evenodd" clip-rule="evenodd" d="M1200.56 375.447C1190.7 396.147 1129.08 402.394 1121.88 429.072C1109.24 476.018 1220.02 467.255 1240.26 464.781C1317.79 455.38 1419.78 497.893 1509.65 487.357C1542.22 483.543 1623.97 459.586 1618.3 420.908C1604.53 326.955 1483.8 277.742 1384.46 284.649C1319.91 289.143 1229.38 314.915 1200.58 375.447H1200.56Z" stroke="url(#paint32_linear_3463_9509)" stroke-linecap="round" stroke-linejoin="round"/>
<path fill-rule="evenodd" clip-rule="evenodd" d="M1212.14 369.365C1203.59 387.116 1146.77 399.095 1142.15 421.856C1133.8 462.988 1227.58 451.669 1246.06 449.421C1318.38 440.618 1413.14 478.409 1497.24 471.461C1527.19 468.987 1603.46 451.504 1600.57 418.496C1593.36 336.027 1476.99 282.01 1385.6 287.473C1326.65 290.999 1239.38 312.894 1212.14 369.385V369.365Z" stroke="url(#paint33_linear_3463_9509)" stroke-linecap="round" stroke-linejoin="round"/>
<path fill-rule="evenodd" clip-rule="evenodd" d="M1223.54 363.159C1216.2 378.271 1161.94 396.848 1161.92 417.135C1161.88 449.586 1239.52 437.092 1254.86 435.175C1299.37 429.547 1586.2 483.79 1583.73 413.218C1581.23 341.8 1469.9 284.277 1386.05 289.452C1331.68 292.813 1249.52 309.616 1223.54 363.18V363.159Z" stroke="url(#paint34_linear_3463_9509)" stroke-linecap="round" stroke-linejoin="round"/>
<path fill-rule="evenodd" clip-rule="evenodd" d="M1234.97 356.933C1228.51 369.921 1182.1 391.198 1183.42 408.517C1185.48 435.505 1252.78 423.341 1265.87 421.671C1309.35 416.083 1567.48 461.874 1567.52 405.589C1567.54 346.562 1464.6 285.968 1387.02 291.019C1337.33 294.256 1259.77 306.998 1234.97 356.933V356.933Z" stroke="url(#paint35_linear_3463_9509)" stroke-linecap="round" stroke-linejoin="round"/>
<path fill-rule="evenodd" clip-rule="evenodd" d="M1246.61 350.809C1241.32 361.324 1204.76 383.178 1205.63 396.085C1207.36 421.712 1265.17 410.372 1278.65 408.62C1322.32 402.971 1548.99 441.649 1551.71 396.147C1554.57 348.15 1457.28 288.112 1387.97 292.586C1342.71 295.514 1270.14 304.132 1246.59 350.789L1246.61 350.809Z" stroke="url(#paint36_linear_3463_9509)" stroke-linecap="round" stroke-linejoin="round"/>
<path fill-rule="evenodd" clip-rule="evenodd" d="M1258.7 344.913C1253.85 354.623 1225.63 374.725 1227.4 386.498C1230.62 407.898 1281.25 397.569 1292.67 396.126C1341.76 389.92 1403.35 407.775 1459.08 407.197C1482.66 406.95 1534.16 401.136 1536.06 385.467C1540.68 347.469 1448.73 290.195 1388.87 294.339C1348.3 297.143 1280.72 300.812 1258.7 344.913V344.913Z" stroke="url(#paint37_linear_3463_9509)" stroke-linecap="round" stroke-linejoin="round"/>
<path fill-rule="evenodd" clip-rule="evenodd" d="M1271.42 339.325C1265.5 349.881 1246.31 366.148 1250.45 379.508C1254.82 393.59 1299.56 385.178 1307.35 384.189C1349.04 378.849 1515.67 403.94 1520.29 374.004C1524.93 343.779 1440.91 292.772 1389.62 296.297C1353.31 298.792 1292.94 300.874 1271.42 339.325Z" stroke="url(#paint38_linear_3463_9509)" stroke-linecap="round" stroke-linejoin="round"/>
<path fill-rule="evenodd" clip-rule="evenodd" d="M1284.98 334.171C1263.21 369.22 1281.13 378.993 1322.22 372.808C1358.65 367.344 1500.64 387.879 1504.14 362.314C1507.65 336.748 1431.96 295.514 1390.11 298.586C1358.11 300.936 1304.98 301.967 1284.96 334.171H1284.98Z" stroke="url(#paint39_linear_3463_9509)" stroke-linecap="round" stroke-linejoin="round"/>
<path fill-rule="evenodd" clip-rule="evenodd" d="M1299.6 329.573C1278.9 357.798 1309.76 366.045 1336.75 362.087C1371.33 357.015 1484.25 370.21 1487.44 350.912C1490.47 332.707 1424.31 298.895 1390.32 301.348C1362.4 303.348 1317.56 305.08 1299.6 329.573V329.573Z" stroke="url(#paint40_linear_3463_9509)" stroke-linecap="round" stroke-linejoin="round"/>
<path fill-rule="evenodd" clip-rule="evenodd" d="M1315.5 325.636C1298.18 345.552 1334.16 354.026 1350.44 352.026C1380.52 348.315 1467.26 353.531 1469.92 340.356C1472.33 328.46 1415.61 302.689 1390.17 304.668C1367.02 306.462 1330.34 308.565 1315.5 325.656V325.636Z" stroke="url(#paint41_linear_3463_9509)" stroke-linecap="round" stroke-linejoin="round"/>
<path fill-rule="evenodd" clip-rule="evenodd" d="M1332.84 322.481C1324.69 332.79 1348.32 344.954 1362.71 342.686C1388.34 338.625 1450.15 338.893 1451.28 331.12C1452.31 324.089 1408.91 307.183 1389.53 308.626C1371.76 309.946 1340.59 312.667 1332.84 322.502V322.481Z" stroke="url(#paint42_linear_3463_9509)" stroke-linecap="round" stroke-linejoin="round"/>
<path fill-rule="evenodd" clip-rule="evenodd" d="M1340.53 323.698C1340.61 328.769 1361.14 332.501 1386.36 332.048C1411.57 331.594 1431.96 327.12 1431.86 322.069C1431.78 316.997 1411.24 313.265 1386.03 313.719C1360.79 314.172 1340.42 318.646 1340.53 323.698Z" stroke="url(#paint43_linear_3463_9509)" stroke-linecap="round" stroke-linejoin="round"/>
<path fill-rule="evenodd" clip-rule="evenodd" d="M1359.41 319.904C1359.41 322.193 1371.41 324.048 1386.21 324.048C1401.02 324.048 1413.02 322.193 1413.02 319.904C1413.02 317.616 1401.02 315.76 1386.21 315.76C1371.41 315.76 1359.41 317.616 1359.41 319.904Z" stroke="url(#paint44_linear_3463_9509)" stroke-linecap="round" stroke-linejoin="round"/>
</g>
<g opacity="0.75">
<g style="mix-blend-mode:lighten" opacity="0.75" filter="url(#filter0_f_3463_9509)">
<ellipse cx="1072.09" cy="482.645" rx="1099.27" ry="485.954" transform="rotate(-28.975 1072.09 482.645)" fill="url(#paint45_radial_3463_9509)" fill-opacity="0.8"/>
</g>
<g style="mix-blend-mode:lighten" filter="url(#filter1_f_3463_9509)">
<ellipse cx="1328.09" cy="650.641" rx="1099.27" ry="485.954" transform="rotate(-28.975 1328.09 650.641)" fill="url(#paint46_radial_3463_9509)" fill-opacity="0.8"/>
</g>
</g>
</g>
<defs>
<filter id="filter0_f_3463_9509" x="-168.215" y="-448.782" width="2480.6" height="1862.85" filterUnits="userSpaceOnUse" color-interpolation-filters="sRGB">
<feFlood flood-opacity="0" result="BackgroundImageFix"/>
<feBlend mode="normal" in="SourceGraphic" in2="BackgroundImageFix" result="shape"/>
<feGaussianBlur stdDeviation="125" result="effect1_foregroundBlur_3463_9509"/>
</filter>
<filter id="filter1_f_3463_9509" x="87.7854" y="-280.787" width="2480.6" height="1862.85" filterUnits="userSpaceOnUse" color-interpolation-filters="sRGB">
<feFlood flood-opacity="0" result="BackgroundImageFix"/>
<feBlend mode="normal" in="SourceGraphic" in2="BackgroundImageFix" result="shape"/>
<feGaussianBlur stdDeviation="125" result="effect1_foregroundBlur_3463_9509"/>
</filter>
<linearGradient id="paint0_linear_3463_9509" x1="1354.5" y1="123.996" x2="1354.5" y2="822.621" gradientUnits="userSpaceOnUse">
<stop stop-color="#50B6D0"/>
<stop offset="0.380208" stop-color="#BDD0E2"/>
<stop offset="0.640625" stop-color="#766EB8"/>
<stop offset="1" stop-color="#1C7CAD"/>
</linearGradient>
<linearGradient id="paint1_linear_3463_9509" x1="1353.74" y1="128.569" x2="1353.74" y2="807.405" gradientUnits="userSpaceOnUse">
<stop stop-color="#50B6D0"/>
<stop offset="0.380208" stop-color="#BDD0E2"/>
<stop offset="0.640625" stop-color="#766EB8"/>
<stop offset="1" stop-color="#1C7CAD"/>
</linearGradient>
<linearGradient id="paint2_linear_3463_9509" x1="1353.3" y1="132.341" x2="1353.3" y2="792.289" gradientUnits="userSpaceOnUse">
<stop stop-color="#50B6D0"/>
<stop offset="0.380208" stop-color="#BDD0E2"/>
<stop offset="0.640625" stop-color="#766EB8"/>
<stop offset="1" stop-color="#1C7CAD"/>
</linearGradient>
<linearGradient id="paint3_linear_3463_9509" x1="1352.38" y1="136.657" x2="1352.38" y2="777.59" gradientUnits="userSpaceOnUse">
<stop stop-color="#50B6D0"/>
<stop offset="0.380208" stop-color="#BDD0E2"/>
<stop offset="0.640625" stop-color="#766EB8"/>
<stop offset="1" stop-color="#1C7CAD"/>
</linearGradient>
<linearGradient id="paint4_linear_3463_9509" x1="1351.95" y1="140.023" x2="1351.95" y2="763.204" gradientUnits="userSpaceOnUse">
<stop stop-color="#50B6D0"/>
<stop offset="0.380208" stop-color="#BDD0E2"/>
<stop offset="0.640625" stop-color="#766EB8"/>
<stop offset="1" stop-color="#1C7CAD"/>
</linearGradient>
<linearGradient id="paint5_linear_3463_9509" x1="1351.77" y1="142.745" x2="1351.77" y2="750.845" gradientUnits="userSpaceOnUse">
<stop stop-color="#50B6D0"/>
<stop offset="0.380208" stop-color="#BDD0E2"/>
<stop offset="0.640625" stop-color="#766EB8"/>
<stop offset="1" stop-color="#1C7CAD"/>
</linearGradient>
<linearGradient id="paint6_linear_3463_9509" x1="1351.53" y1="146.342" x2="1351.53" y2="739.721" gradientUnits="userSpaceOnUse">
<stop stop-color="#50B6D0"/>
<stop offset="0.380208" stop-color="#BDD0E2"/>
<stop offset="0.640625" stop-color="#766EB8"/>
<stop offset="1" stop-color="#1C7CAD"/>
</linearGradient>
<linearGradient id="paint7_linear_3463_9509" x1="1351.76" y1="148.568" x2="1351.76" y2="732.608" gradientUnits="userSpaceOnUse">
<stop stop-color="#50B6D0"/>
<stop offset="0.380208" stop-color="#BDD0E2"/>
<stop offset="0.640625" stop-color="#766EB8"/>
<stop offset="1" stop-color="#1C7CAD"/>
</linearGradient>
<linearGradient id="paint8_linear_3463_9509" x1="1350.82" y1="150.809" x2="1350.82" y2="727.278" gradientUnits="userSpaceOnUse">
<stop stop-color="#50B6D0"/>
<stop offset="0.380208" stop-color="#BDD0E2"/>
<stop offset="0.640625" stop-color="#766EB8"/>
<stop offset="1" stop-color="#1C7CAD"/>
</linearGradient>
<linearGradient id="paint9_linear_3463_9509" x1="1351.05" y1="152.879" x2="1351.05" y2="720.18" gradientUnits="userSpaceOnUse">
<stop stop-color="#50B6D0"/>
<stop offset="0.380208" stop-color="#BDD0E2"/>
<stop offset="0.640625" stop-color="#766EB8"/>
<stop offset="1" stop-color="#1C7CAD"/>
</linearGradient>
<linearGradient id="paint10_linear_3463_9509" x1="1352.1" y1="155.848" x2="1352.1" y2="715.135" gradientUnits="userSpaceOnUse">
<stop stop-color="#50B6D0"/>
<stop offset="0.380208" stop-color="#BDD0E2"/>
<stop offset="0.640625" stop-color="#766EB8"/>
<stop offset="1" stop-color="#1C7CAD"/>
</linearGradient>
<linearGradient id="paint11_linear_3463_9509" x1="1349.9" y1="157.781" x2="1349.9" y2="709.533" gradientUnits="userSpaceOnUse">
<stop stop-color="#50B6D0"/>
<stop offset="0.380208" stop-color="#BDD0E2"/>
<stop offset="0.640625" stop-color="#766EB8"/>
<stop offset="1" stop-color="#1C7CAD"/>
</linearGradient>
<linearGradient id="paint12_linear_3463_9509" x1="1355.39" y1="159.913" x2="1355.39" y2="702.004" gradientUnits="userSpaceOnUse">
<stop stop-color="#50B6D0"/>
<stop offset="0.380208" stop-color="#BDD0E2"/>
<stop offset="0.640625" stop-color="#766EB8"/>
<stop offset="1" stop-color="#1C7CAD"/>
</linearGradient>
<linearGradient id="paint13_linear_3463_9509" x1="1357.65" y1="162.209" x2="1357.65" y2="696.409" gradientUnits="userSpaceOnUse">
<stop stop-color="#50B6D0"/>
<stop offset="0.380208" stop-color="#BDD0E2"/>
<stop offset="0.640625" stop-color="#766EB8"/>
<stop offset="1" stop-color="#1C7CAD"/>
</linearGradient>
<linearGradient id="paint14_linear_3463_9509" x1="1360.57" y1="165.22" x2="1360.57" y2="690.77" gradientUnits="userSpaceOnUse">
<stop stop-color="#50B6D0"/>
<stop offset="0.380208" stop-color="#BDD0E2"/>
<stop offset="0.640625" stop-color="#766EB8"/>
<stop offset="1" stop-color="#1C7CAD"/>
</linearGradient>
<linearGradient id="paint15_linear_3463_9509" x1="1359.75" y1="168.41" x2="1359.75" y2="684.089" gradientUnits="userSpaceOnUse">
<stop stop-color="#50B6D0"/>
<stop offset="0.380208" stop-color="#BDD0E2"/>
<stop offset="0.640625" stop-color="#766EB8"/>
<stop offset="1" stop-color="#1C7CAD"/>
</linearGradient>
<linearGradient id="paint16_linear_3463_9509" x1="1367.65" y1="171.781" x2="1367.65" y2="678.912" gradientUnits="userSpaceOnUse">
<stop stop-color="#50B6D0"/>
<stop offset="0.380208" stop-color="#BDD0E2"/>
<stop offset="0.640625" stop-color="#766EB8"/>
<stop offset="1" stop-color="#1C7CAD"/>
</linearGradient>
<linearGradient id="paint17_linear_3463_9509" x1="1371.07" y1="176.193" x2="1371.07" y2="672.855" gradientUnits="userSpaceOnUse">
<stop stop-color="#50B6D0"/>
<stop offset="0.380208" stop-color="#BDD0E2"/>
<stop offset="0.640625" stop-color="#766EB8"/>
<stop offset="1" stop-color="#1C7CAD"/>
</linearGradient>
<linearGradient id="paint18_linear_3463_9509" x1="1371.9" y1="178.698" x2="1371.9" y2="667.651" gradientUnits="userSpaceOnUse">
<stop stop-color="#50B6D0"/>
<stop offset="0.380208" stop-color="#BDD0E2"/>
<stop offset="0.640625" stop-color="#766EB8"/>
<stop offset="1" stop-color="#1C7CAD"/>
</linearGradient>
<linearGradient id="paint19_linear_3463_9509" x1="1376.11" y1="188.501" x2="1376.11" y2="664.23" gradientUnits="userSpaceOnUse">
<stop stop-color="#50B6D0"/>
<stop offset="0.380208" stop-color="#BDD0E2"/>
<stop offset="0.640625" stop-color="#766EB8"/>
<stop offset="1" stop-color="#1C7CAD"/>
</linearGradient>
<linearGradient id="paint20_linear_3463_9509" x1="1380.36" y1="196.248" x2="1380.36" y2="661.37" gradientUnits="userSpaceOnUse">
<stop stop-color="#50B6D0"/>
<stop offset="0.380208" stop-color="#BDD0E2"/>
<stop offset="0.640625" stop-color="#766EB8"/>
<stop offset="1" stop-color="#1C7CAD"/>
</linearGradient>
<linearGradient id="paint21_linear_3463_9509" x1="1383.25" y1="209.271" x2="1383.25" y2="654.735" gradientUnits="userSpaceOnUse">
<stop stop-color="#50B6D0"/>
<stop offset="0.380208" stop-color="#BDD0E2"/>
<stop offset="0.640625" stop-color="#766EB8"/>
<stop offset="1" stop-color="#1C7CAD"/>
</linearGradient>
<linearGradient id="paint22_linear_3463_9509" x1="1385.43" y1="223.956" x2="1385.43" y2="645.225" gradientUnits="userSpaceOnUse">
<stop stop-color="#50B6D0"/>
<stop offset="0.380208" stop-color="#BDD0E2"/>
<stop offset="0.640625" stop-color="#766EB8"/>
<stop offset="1" stop-color="#1C7CAD"/>
</linearGradient>
<linearGradient id="paint23_linear_3463_9509" x1="1381.1" y1="234.919" x2="1381.1" y2="627.281" gradientUnits="userSpaceOnUse">
<stop stop-color="#50B6D0"/>
<stop offset="0.380208" stop-color="#BDD0E2"/>
<stop offset="0.640625" stop-color="#766EB8"/>
<stop offset="1" stop-color="#1C7CAD"/>
</linearGradient>
<linearGradient id="paint24_linear_3463_9509" x1="1375.94" y1="243.517" x2="1375.94" y2="614.26" gradientUnits="userSpaceOnUse">
<stop stop-color="#50B6D0"/>
<stop offset="0.380208" stop-color="#BDD0E2"/>
<stop offset="0.640625" stop-color="#766EB8"/>
<stop offset="1" stop-color="#1C7CAD"/>
</linearGradient>
<linearGradient id="paint25_linear_3463_9509" x1="1371.76" y1="251.896" x2="1371.76" y2="601.404" gradientUnits="userSpaceOnUse">
<stop stop-color="#50B6D0"/>
<stop offset="0.380208" stop-color="#BDD0E2"/>
<stop offset="0.640625" stop-color="#766EB8"/>
<stop offset="1" stop-color="#1C7CAD"/>
</linearGradient>
<linearGradient id="paint26_linear_3463_9509" x1="1368.31" y1="259.386" x2="1368.31" y2="585.841" gradientUnits="userSpaceOnUse">
<stop stop-color="#50B6D0"/>
<stop offset="0.380208" stop-color="#BDD0E2"/>
<stop offset="0.640625" stop-color="#766EB8"/>
<stop offset="1" stop-color="#1C7CAD"/>
</linearGradient>
<linearGradient id="paint27_linear_3463_9509" x1="1366.36" y1="267.009" x2="1366.36" y2="570.577" gradientUnits="userSpaceOnUse">
<stop stop-color="#50B6D0"/>
<stop offset="0.380208" stop-color="#BDD0E2"/>
<stop offset="0.640625" stop-color="#766EB8"/>
<stop offset="1" stop-color="#1C7CAD"/>
</linearGradient>
<linearGradient id="paint28_linear_3463_9509" x1="1365.06" y1="272.039" x2="1365.06" y2="555.066" gradientUnits="userSpaceOnUse">
<stop stop-color="#50B6D0"/>
<stop offset="0.380208" stop-color="#BDD0E2"/>
<stop offset="0.640625" stop-color="#766EB8"/>
<stop offset="1" stop-color="#1C7CAD"/>
</linearGradient>
<linearGradient id="paint29_linear_3463_9509" x1="1365.34" y1="275.762" x2="1365.34" y2="539.157" gradientUnits="userSpaceOnUse">
<stop stop-color="#50B6D0"/>
<stop offset="0.380208" stop-color="#BDD0E2"/>
<stop offset="0.640625" stop-color="#766EB8"/>
<stop offset="1" stop-color="#1C7CAD"/>
</linearGradient>
<linearGradient id="paint30_linear_3463_9509" x1="1366.39" y1="279.374" x2="1366.39" y2="522.48" gradientUnits="userSpaceOnUse">
<stop stop-color="#50B6D0"/>
<stop offset="0.380208" stop-color="#BDD0E2"/>
<stop offset="0.640625" stop-color="#766EB8"/>
<stop offset="1" stop-color="#1C7CAD"/>
</linearGradient>
<linearGradient id="paint31_linear_3463_9509" x1="1368.63" y1="282.433" x2="1368.63" y2="505.748" gradientUnits="userSpaceOnUse">
<stop stop-color="#50B6D0"/>
<stop offset="0.380208" stop-color="#BDD0E2"/>
<stop offset="0.640625" stop-color="#766EB8"/>
<stop offset="1" stop-color="#1C7CAD"/>
</linearGradient>
<linearGradient id="paint32_linear_3463_9509" x1="1369.73" y1="284.008" x2="1369.73" y2="489.048" gradientUnits="userSpaceOnUse">
<stop stop-color="#50B6D0"/>
<stop offset="0.380208" stop-color="#BDD0E2"/>
<stop offset="0.640625" stop-color="#766EB8"/>
<stop offset="1" stop-color="#1C7CAD"/>
</linearGradient>
<linearGradient id="paint33_linear_3463_9509" x1="1371.14" y1="287.094" x2="1371.14" y2="472.319" gradientUnits="userSpaceOnUse">
<stop stop-color="#50B6D0"/>
<stop offset="0.380208" stop-color="#BDD0E2"/>
<stop offset="0.640625" stop-color="#766EB8"/>
<stop offset="1" stop-color="#1C7CAD"/>
</linearGradient>
<linearGradient id="paint34_linear_3463_9509" x1="1372.83" y1="289.129" x2="1372.83" y2="449.814" gradientUnits="userSpaceOnUse">
<stop stop-color="#50B6D0"/>
<stop offset="0.380208" stop-color="#BDD0E2"/>
<stop offset="0.640625" stop-color="#766EB8"/>
<stop offset="1" stop-color="#1C7CAD"/>
</linearGradient>
<linearGradient id="paint35_linear_3463_9509" x1="1375.46" y1="290.724" x2="1375.46" y2="433.968" gradientUnits="userSpaceOnUse">
<stop stop-color="#50B6D0"/>
<stop offset="0.380208" stop-color="#BDD0E2"/>
<stop offset="0.640625" stop-color="#766EB8"/>
<stop offset="1" stop-color="#1C7CAD"/>
</linearGradient>
<linearGradient id="paint36_linear_3463_9509" x1="1378.69" y1="292.35" x2="1378.69" y2="418.604" gradientUnits="userSpaceOnUse">
<stop stop-color="#50B6D0"/>
<stop offset="0.380208" stop-color="#BDD0E2"/>
<stop offset="0.640625" stop-color="#766EB8"/>
<stop offset="1" stop-color="#1C7CAD"/>
</linearGradient>
<linearGradient id="paint37_linear_3463_9509" x1="1381.77" y1="294.126" x2="1381.77" y2="407.211" gradientUnits="userSpaceOnUse">
<stop stop-color="#50B6D0"/>
<stop offset="0.380208" stop-color="#BDD0E2"/>
<stop offset="0.640625" stop-color="#766EB8"/>
<stop offset="1" stop-color="#1C7CAD"/>
</linearGradient>
<linearGradient id="paint38_linear_3463_9509" x1="1385.17" y1="296.124" x2="1385.17" y2="388.989" gradientUnits="userSpaceOnUse">
<stop stop-color="#50B6D0"/>
<stop offset="0.380208" stop-color="#BDD0E2"/>
<stop offset="0.640625" stop-color="#766EB8"/>
<stop offset="1" stop-color="#1C7CAD"/>
</linearGradient>
<linearGradient id="paint39_linear_3463_9509" x1="1389.96" y1="298.423" x2="1389.96" y2="375.481" gradientUnits="userSpaceOnUse">
<stop stop-color="#50B6D0"/>
<stop offset="0.380208" stop-color="#BDD0E2"/>
<stop offset="0.640625" stop-color="#766EB8"/>
<stop offset="1" stop-color="#1C7CAD"/>
</linearGradient>
<linearGradient id="paint40_linear_3463_9509" x1="1390.19" y1="301.222" x2="1390.19" y2="363.019" gradientUnits="userSpaceOnUse">
<stop stop-color="#50B6D0"/>
<stop offset="0.380208" stop-color="#BDD0E2"/>
<stop offset="0.640625" stop-color="#766EB8"/>
<stop offset="1" stop-color="#1C7CAD"/>
</linearGradient>
<linearGradient id="paint41_linear_3463_9509" x1="1390.44" y1="304.56" x2="1390.44" y2="352.311" gradientUnits="userSpaceOnUse">
<stop stop-color="#50B6D0"/>
<stop offset="0.380208" stop-color="#BDD0E2"/>
<stop offset="0.640625" stop-color="#766EB8"/>
<stop offset="1" stop-color="#1C7CAD"/>
</linearGradient>
<linearGradient id="paint42_linear_3463_9509" x1="1391.24" y1="308.539" x2="1391.24" y2="342.962" gradientUnits="userSpaceOnUse">
<stop stop-color="#50B6D0"/>
<stop offset="0.380208" stop-color="#BDD0E2"/>
<stop offset="0.640625" stop-color="#766EB8"/>
<stop offset="1" stop-color="#1C7CAD"/>
</linearGradient>
<linearGradient id="paint43_linear_3463_9509" x1="1386.19" y1="313.682" x2="1386.19" y2="332.085" gradientUnits="userSpaceOnUse">
<stop stop-color="#50B6D0"/>
<stop offset="0.380208" stop-color="#BDD0E2"/>
<stop offset="0.640625" stop-color="#766EB8"/>
<stop offset="1" stop-color="#1C7CAD"/>
</linearGradient>
<linearGradient id="paint44_linear_3463_9509" x1="1386.21" y1="315.76" x2="1386.21" y2="324.048" gradientUnits="userSpaceOnUse">
<stop stop-color="#50B6D0"/>
<stop offset="0.380208" stop-color="#BDD0E2"/>
<stop offset="0.640625" stop-color="#766EB8"/>
<stop offset="1" stop-color="#1C7CAD"/>
</linearGradient>
<radialGradient id="paint45_radial_3463_9509" cx="0" cy="0" r="1" gradientUnits="userSpaceOnUse" gradientTransform="translate(1072.09 482.645) rotate(90) scale(485.954 1099.27)">
<stop stop-color="#42FEA4"/>
<stop offset="0.802083" stop-color="#00FFFF" stop-opacity="0"/>
</radialGradient>
<radialGradient id="paint46_radial_3463_9509" cx="0" cy="0" r="1" gradientUnits="userSpaceOnUse" gradientTransform="translate(1328.09 650.641) rotate(90) scale(485.954 1099.27)">
<stop stop-color="#6A58B0"/>
<stop offset="0.802083" stop-color="#00FFFF" stop-opacity="0"/>
</radialGradient>
<clipPath id="clip0_3463_9509">
<rect width="2400" height="1024" fill="white"/>
</clipPath>
</defs>
</svg>
