<svg width="50" height="50" viewBox="0 0 50 50" fill="none" xmlns="http://www.w3.org/2000/svg">
  <path d="M44.0982 16.5468L49.5858 11.0146C49.7482 10.8508 49.8239 10.6201 49.7903 10.392C49.7566 10.1638 49.6175 9.96475 49.4148 9.85488L31.3976 0.0894531C31.1125 -0.0649414 30.7599 -0.0138672 30.5307 0.21543L24.9995 5.74658L19.4688 0.21582C19.3311 0.0771484 19.1465 0 18.9522 0C18.8301 0 18.71 0.0311523 18.6025 0.0898438L12.8155 3.22539C12.6437 3.31914 12.5187 3.47344 12.463 3.66094C12.4073 3.84844 12.4278 4.04668 12.5206 4.21855C12.6495 4.45488 12.8966 4.60244 13.1651 4.60244C13.2862 4.60244 13.4073 4.57119 13.5138 4.51357L18.8193 1.6377L23.787 6.60537L7.06769 15.6423L2.142 10.6765L10.9377 5.90908C11.1106 5.81631 11.2356 5.66201 11.2912 5.47451C11.3469 5.28701 11.3264 5.08877 11.2326 4.91689C11.1047 4.68057 10.8576 4.53311 10.5891 4.53311C10.468 4.53311 10.3479 4.56426 10.2404 4.62187L0.585362 9.85527C0.383214 9.96357 0.242589 10.1648 0.209386 10.3924C0.176182 10.6188 0.252452 10.8513 0.414464 11.0145L5.90147 16.547L0.414073 22.079C0.251671 22.2429 0.175889 22.4735 0.209483 22.7017C0.243175 22.9299 0.382335 23.1289 0.585069 23.2388L6.20157 26.2829V39.5001C6.20148 39.5254 6.20274 39.5506 6.20528 39.5755C6.20636 39.5861 6.20841 39.5965 6.20987 39.607C6.21173 39.6198 6.21319 39.6326 6.21573 39.6452C6.21886 39.6611 6.22316 39.6766 6.22726 39.6921C6.22921 39.6992 6.23067 39.7064 6.23282 39.7136C6.23761 39.7293 6.24337 39.7446 6.24913 39.7601C6.25167 39.7669 6.25382 39.7738 6.25665 39.7806C6.26231 39.7944 6.26886 39.8076 6.2753 39.8209C6.27931 39.8292 6.28292 39.8375 6.28722 39.8456C6.29308 39.8565 6.29962 39.867 6.30587 39.8775C6.31192 39.8876 6.31769 39.8978 6.32413 39.9076C6.3295 39.9157 6.33556 39.9234 6.34132 39.9313C6.34962 39.9428 6.35782 39.9544 6.36681 39.9655C6.37179 39.9717 6.37735 39.9773 6.38253 39.9833C6.39288 39.9952 6.40323 40.0071 6.41437 40.0184C6.42013 40.0241 6.42648 40.0294 6.43243 40.0352C6.44357 40.0456 6.4545 40.0562 6.46632 40.0659C6.47774 40.0754 6.48985 40.084 6.50177 40.0927C6.5088 40.0979 6.51534 40.1033 6.52257 40.1083C6.54356 40.1225 6.56534 40.1356 6.5878 40.1478L24.6479 49.9101C24.6738 49.9243 24.701 49.9366 24.7288 49.9478C24.7349 49.9501 24.741 49.9522 24.7472 49.9544C24.7675 49.9619 24.7881 49.9686 24.8093 49.9741C24.8169 49.9762 24.8244 49.9782 24.832 49.98C24.8525 49.9848 24.8733 49.9886 24.8944 49.9916C24.9017 49.9926 24.9087 49.9939 24.9159 49.9948C24.9435 49.9979 24.9714 50 24.9998 50C25.0282 50 25.0562 49.9979 25.0837 49.9948C25.0909 49.9939 25.0981 49.9926 25.1053 49.9916C25.1264 49.9886 25.1472 49.9848 25.1676 49.98C25.1752 49.9782 25.1828 49.9762 25.1903 49.9741C25.2114 49.9685 25.2321 49.9619 25.2524 49.9544C25.2585 49.9522 25.2647 49.9501 25.2707 49.9478C25.2984 49.9366 25.3256 49.9243 25.3516 49.9101L43.4116 40.1478C43.4341 40.1356 43.4559 40.1225 43.4769 40.1083C43.4841 40.1033 43.4907 40.0978 43.4977 40.0927C43.5097 40.0839 43.5218 40.0753 43.5331 40.0659C43.5449 40.0562 43.5559 40.0456 43.567 40.0352C43.573 40.0294 43.5793 40.0242 43.5851 40.0184C43.5962 40.0071 43.6066 39.9952 43.6169 39.9833C43.6221 39.9773 43.6276 39.9717 43.6326 39.9655C43.6416 39.9545 43.6498 39.9429 43.6581 39.9313C43.6639 39.9234 43.6699 39.9157 43.6753 39.9076C43.6817 39.8978 43.6875 39.8877 43.6936 39.8775C43.6999 39.867 43.7065 39.8565 43.7122 39.8456C43.7165 39.8375 43.7201 39.8292 43.7241 39.8209C43.7306 39.8076 43.7371 39.7944 43.7428 39.7806C43.7456 39.7738 43.7478 39.7669 43.7503 39.7601C43.7561 39.7447 43.7618 39.7294 43.7666 39.7136C43.7688 39.7065 43.7702 39.6993 43.7722 39.6921C43.7763 39.6766 43.7806 39.6611 43.7837 39.6452C43.7862 39.6326 43.7877 39.6198 43.7896 39.607C43.791 39.5965 43.7932 39.5861 43.7941 39.5755C43.7967 39.5505 43.798 39.5253 43.7979 39.5001V26.2829L49.4141 23.2389C49.6162 23.1295 49.7568 22.9283 49.79 22.7018C49.8232 22.4742 49.7471 22.2418 49.5859 22.0787L44.0982 16.5468ZM31.18 1.63779L47.8574 10.677L42.9318 15.6426L26.2127 6.60508L31.18 1.63779ZM7.27979 25.2013L2.1423 22.4167L7.06788 17.4511L23.7871 26.4886L18.8197 31.4559L7.28605 25.2046C7.28399 25.2034 7.28194 25.2023 7.27979 25.2013ZM24.2675 48.0392L7.66632 39.0654V27.0769L18.6023 33.0042C18.7121 33.0637 18.832 33.0927 18.951 33.0927C19.1407 33.0927 19.3282 33.019 19.4692 32.8782L24.2675 28.0799V48.0392ZM24.9999 25.479L8.47579 16.547L25.0003 7.61484L41.5244 16.5469L24.9999 25.479ZM42.7229 25.1998C42.7189 25.2019 42.715 25.204 42.711 25.2062L39.0621 27.184C38.8893 27.2768 38.7643 27.432 38.7086 27.6195C38.6529 27.8071 38.6734 28.0053 38.7662 28.1772C38.8951 28.4136 39.1422 28.5601 39.4107 28.5601C39.5318 28.5601 39.6529 28.5297 39.7594 28.4722L42.3334 27.077V39.0656L25.7323 48.0393V28.0795L30.5311 32.8782C30.6698 33.0169 30.8533 33.0931 31.0486 33.0931C31.1697 33.0931 31.2899 33.0618 31.3973 33.0042L37.1843 29.8676C37.3562 29.7748 37.4812 29.6195 37.5368 29.432C37.5925 29.2445 37.572 29.0473 37.4792 28.8754C37.3503 28.6381 37.1032 28.4916 36.8337 28.4916C36.7136 28.4916 36.5925 28.5219 36.486 28.5805L31.1805 31.4553L26.2128 26.4887L42.9322 17.4507L47.8579 22.4165L42.7229 25.1998Z" fill="#191A1D"/>
</svg>
