<svg width="24" height="24" viewBox="0 0 24 24" xmlns="http://www.w3.org/2000/svg">
<path fill-rule="evenodd" clip-rule="evenodd" d="M7.7587 1H16.2413H16.2414C17.0464 0.999991 17.7106 0.999983 18.2518 1.04419C18.8139 1.09012 19.3306 1.18868 19.816 1.43597C20.5686 1.81947 21.1805 2.43139 21.564 3.18404C21.8113 3.66937 21.9099 4.18608 21.9558 4.74817C22 5.28936 22 5.95372 22 6.75868V21C22 21.5523 21.5523 22 21 22C20.4477 22 20 21.5523 20 21V6.8C20 5.94342 19.9992 5.36113 19.9624 4.91104C19.9266 4.47262 19.8617 4.24842 19.782 4.09202C19.5903 3.7157 19.2843 3.40973 18.908 3.21799C18.7516 3.1383 18.5274 3.07337 18.089 3.03755C17.6389 3.00078 17.0566 3 16.2 3H7.8C6.94342 3 6.36113 3.00078 5.91104 3.03755C5.47262 3.07337 5.24842 3.1383 5.09202 3.21799C4.7157 3.40973 4.40973 3.7157 4.21799 4.09202C4.1383 4.24842 4.07337 4.47262 4.03755 4.91104C4.00078 5.36113 4 5.94342 4 6.8V20.9587C3.84509 22.1269 2.15491 22.1269 2 20.9587V6.7587V6.75859V6.75858C1.99999 5.95367 1.99998 5.28934 2.04419 4.74818C2.09012 4.18608 2.18868 3.66937 2.43597 3.18404C2.81947 2.43139 3.43139 1.81947 4.18404 1.43597C4.66937 1.18868 5.18608 1.09012 5.74817 1.04419C6.28935 0.999983 6.95367 0.999991 7.75859 1H7.7587ZM6 7C6 6.4477 6.44772 6 7 6H17C17.5523 6 18 6.4477 18 7C18 7.5523 17.5523 8 17 8H7C6.44772 8 6 7.5523 6 7ZM7 11C6.44772 11 6 11.4477 6 12C6 12.5523 6.44772 13 7 13H17C17.5523 13 18 12.5523 18 12C18 11.4477 17.5523 11 17 11H7ZM7 16C6.44772 16 6 16.4477 6 17C6 17.5523 6.44772 18 7 18H17C17.5523 18 18 17.5523 18 17C18 16.4477 17.5523 16 17 16H7Z"/>
</svg>
