<svg xmlns="http://www.w3.org/2000/svg" width="24" height="24" fill="currentColor" viewBox="0 0 24 24">
    <path d="M3.125 5C3.125 3.34315 4.46815 2 6.125 2H13.125C13.6773 2 14.125 2.44772 14.125 3C14.125 3.55228 13.6773 4 13.125 4H6.125C5.57272 4 5.125 4.44772 5.125 5V19C5.125 19.5523 5.57272 20 6.125 20H13.125C13.6773 20 14.125 20.4477 14.125 21C14.125 21.5523 13.6773 22 13.125 22H6.125C4.46815 22 3.125 20.6569 3.125 19V5ZM16.3554 7.35539C16.7459 6.96487 17.3791 6.96487 17.7696 7.35539L21.7066 11.2924C21.7069 11.2927 21.7073 11.2931 21.7076 11.2934L22.4142 12L21.7076 12.7066C21.7073 12.7069 21.7069 12.7073 21.7066 12.7076L17.7696 16.6446C17.3791 17.0351 16.7459 17.0351 16.3554 16.6446C15.9649 16.2541 15.9649 15.6209 16.3554 15.2304L18.5858 13H10.3125C9.76022 13 9.3125 12.5523 9.3125 12C9.3125 11.4477 9.76022 11 10.3125 11H18.5858L16.3554 8.76961C15.9649 8.37908 15.9649 7.74592 16.3554 7.35539Z"></path>
</svg>