<svg width="20" height="20" viewBox="0 0 20 20" fill="none" xmlns="http://www.w3.org/2000/svg">
<path d="M17.5 6.97915C17.875 6.97915 18.2188 7.1354 18.5312 7.4479C18.8438 7.7604 19 8.10415 19 8.47915V9.66665C19 9.77776 18.9896 9.88193 18.9688 9.97915C18.9479 10.0764 18.9167 10.1667 18.875 10.25L16.3958 16.0625C16.2708 16.3542 16.0382 16.5833 15.6979 16.75C15.3576 16.9167 15.0278 17 14.7083 17L5.5 16.9792V6.97915L10.375 2.10415C10.6389 1.84026 10.941 1.67013 11.2812 1.59374C11.6215 1.51735 11.9271 1.55554 12.1979 1.70832C12.4688 1.8611 12.6424 2.10763 12.7188 2.4479C12.7951 2.78818 12.7917 3.15971 12.7083 3.56249L12 6.97915H17.5ZM7 7.60415V15.4792H15L17.5 9.66665V8.47915H10.1667L11.1875 3.43749L7 7.60415ZM2.5 16.9792C2.06944 16.9792 1.71181 16.8323 1.42708 16.5385C1.14236 16.2448 1 15.8917 1 15.4792V8.47915C1 8.06665 1.14236 7.71353 1.42708 7.41978C1.71181 7.12603 2.06944 6.97915 2.5 6.97915H5.5V8.47915H2.5V15.4792H5.5V16.9792H2.5Z" fill="black"/>
</svg>
