<svg width="20" height="20" viewBox="0 0 20 20" fill="none" xmlns="http://www.w3.org/2000/svg">
<path d="M2.5 13C2.125 13 1.78125 12.8437 1.46875 12.5312C1.15625 12.2187 1 11.875 1 11.5V10.3125C1 10.2013 1.01042 10.0972 1.03125 9.99996C1.05208 9.90274 1.08333 9.81246 1.125 9.72913L3.60417 3.91663C3.72917 3.62496 3.96181 3.39579 4.30208 3.22913C4.64236 3.06246 4.97222 2.97913 5.29167 2.97913L14.5 2.99996V13L9.625 17.875C9.36111 18.1388 9.05903 18.309 8.71875 18.3854C8.37847 18.4618 8.07292 18.4236 7.80208 18.2708C7.53125 18.118 7.35764 17.8715 7.28125 17.5312C7.20486 17.1909 7.20833 16.8194 7.29167 16.4166L8 13H2.5ZM13 12.375V4.49996H5L2.5 10.3125V11.5H9.83333L8.8125 16.5416L13 12.375ZM17.5 2.99996C17.9306 2.99996 18.2882 3.14683 18.5729 3.44058C18.8576 3.73433 19 4.08746 19 4.49996V11.5C19 11.9125 18.8576 12.2656 18.5729 12.5593C18.2882 12.8531 17.9306 13 17.5 13H14.5V11.5H17.5V4.49996H14.5V2.99996H17.5Z" fill="black"/>
</svg>
