<svg width="995" height="830" viewBox="0 0 995 830" fill="none" xmlns="http://www.w3.org/2000/svg">
<rect opacity="0.2" y="533" width="995" height="38" fill="#C5CCD6"/>
<rect y="612" width="995" height="1" fill="#C5CCD6"/>
<rect y="651" width="995" height="1" fill="#C5CCD6"/>
<rect y="690" width="995" height="1" fill="#C5CCD6"/>
<rect y="729" width="995" height="1" fill="#C5CCD6"/>
<rect y="768" width="995" height="1" fill="#C5CCD6"/>
<rect y="807" width="995" height="1" fill="#C5CCD6"/>
<rect x="25" y="30" width="505" height="12" rx="3" fill="#C5CCD6"/>
<rect x="25" y="232" width="95" height="12" rx="3" fill="#C5CCD6"/>
<rect x="150" y="232" width="95" height="12" rx="3" fill="#C5CCD6"/>
<rect x="275" y="232" width="95" height="12" rx="3" fill="#C5CCD6"/>
<rect x="25" y="276" width="245" height="12" rx="3" fill="#C5CCD6"/>
<rect x="25" y="505" width="245" height="12" rx="3" fill="#C5CCD6"/>
<rect x="25" y="331" width="155" height="12" rx="3" fill="#C5CCD6"/>
<rect y="215" width="995" height="1" fill="#C5CCD6"/>
<rect y="304" width="995" height="1" fill="#C5CCD6"/>
<rect x="25" y="55" width="315" height="8" rx="4" fill="#C5CCD6"/>
<rect x="25" y="117" width="125" height="8" rx="4" fill="#C5CCD6"/>
<rect x="25" y="137" width="70" height="8" rx="4" fill="#C5CCD6"/>
<rect x="25" y="373" width="135" height="8" rx="4" fill="#C5CCD6"/>
<rect x="25" y="393" width="105" height="8" rx="4" fill="#C5CCD6"/>
<rect x="25" y="433" width="135" height="8" rx="4" fill="#C5CCD6"/>
<rect x="25" y="453" width="105" height="8" rx="4" fill="#C5CCD6"/>
<path fill-rule="evenodd" clip-rule="evenodd" d="M30 552C30 549.791 31.7909 548 34 548H161C163.209 548 165 549.791 165 552C165 554.209 163.209 556 161 556H34C31.7909 556 30 554.209 30 552ZM30 592C30 589.791 31.7909 588 34 588H161C163.209 588 165 589.791 165 592C165 594.209 163.209 596 161 596H34C31.7909 596 30 594.209 30 592ZM34 628C31.7909 628 30 629.791 30 632C30 634.209 31.7909 636 34 636H161C163.209 636 165 634.209 165 632C165 629.791 163.209 628 161 628H34ZM30 672C30 669.791 31.7909 668 34 668H161C163.209 668 165 669.791 165 672C165 674.209 163.209 676 161 676H34C31.7909 676 30 674.209 30 672ZM34 708C31.7909 708 30 709.791 30 712C30 714.209 31.7909 716 34 716H161C163.209 716 165 714.209 165 712C165 709.791 163.209 708 161 708H34ZM30 752C30 749.791 31.7909 748 34 748H161C163.209 748 165 749.791 165 752C165 754.209 163.209 756 161 756H34C31.7909 756 30 754.209 30 752ZM34 788C31.7909 788 30 789.791 30 792C30 794.209 31.7909 796 34 796H161C163.209 796 165 794.209 165 792C165 789.791 163.209 788 161 788H34Z" fill="#C5CCD6"/>
<path fill-rule="evenodd" clip-rule="evenodd" d="M295 552C295 549.791 296.791 548 299 548H426C428.209 548 430 549.791 430 552C430 554.209 428.209 556 426 556H299C296.791 556 295 554.209 295 552ZM295 592C295 589.791 296.791 588 299 588H426C428.209 588 430 589.791 430 592C430 594.209 428.209 596 426 596H299C296.791 596 295 594.209 295 592ZM299 628C296.791 628 295 629.791 295 632C295 634.209 296.791 636 299 636H426C428.209 636 430 634.209 430 632C430 629.791 428.209 628 426 628H299ZM295 672C295 669.791 296.791 668 299 668H426C428.209 668 430 669.791 430 672C430 674.209 428.209 676 426 676H299C296.791 676 295 674.209 295 672ZM299 708C296.791 708 295 709.791 295 712C295 714.209 296.791 716 299 716H426C428.209 716 430 714.209 430 712C430 709.791 428.209 708 426 708H299ZM295 752C295 749.791 296.791 748 299 748H426C428.209 748 430 749.791 430 752C430 754.209 428.209 756 426 756H299C296.791 756 295 754.209 295 752ZM299 788C296.791 788 295 789.791 295 792C295 794.209 296.791 796 299 796H426C428.209 796 430 794.209 430 792C430 789.791 428.209 788 426 788H299Z" fill="#C5CCD6"/>
<path fill-rule="evenodd" clip-rule="evenodd" d="M565 552C565 549.791 566.791 548 569 548H696C698.209 548 700 549.791 700 552C700 554.209 698.209 556 696 556H569C566.791 556 565 554.209 565 552ZM565 592C565 589.791 566.791 588 569 588H696C698.209 588 700 589.791 700 592C700 594.209 698.209 596 696 596H569C566.791 596 565 594.209 565 592ZM569 628C566.791 628 565 629.791 565 632C565 634.209 566.791 636 569 636H696C698.209 636 700 634.209 700 632C700 629.791 698.209 628 696 628H569ZM565 672C565 669.791 566.791 668 569 668H696C698.209 668 700 669.791 700 672C700 674.209 698.209 676 696 676H569C566.791 676 565 674.209 565 672ZM569 708C566.791 708 565 709.791 565 712C565 714.209 566.791 716 569 716H696C698.209 716 700 714.209 700 712C700 709.791 698.209 708 696 708H569ZM565 752C565 749.791 566.791 748 569 748H696C698.209 748 700 749.791 700 752C700 754.209 698.209 756 696 756H569C566.791 756 565 754.209 565 752ZM569 788C566.791 788 565 789.791 565 792C565 794.209 566.791 796 569 796H696C698.209 796 700 794.209 700 792C700 789.791 698.209 788 696 788H569Z" fill="#C5CCD6"/>
<path fill-rule="evenodd" clip-rule="evenodd" d="M835 552C835 549.791 836.791 548 839 548H966C968.209 548 970 549.791 970 552C970 554.209 968.209 556 966 556H839C836.791 556 835 554.209 835 552ZM835 592C835 589.791 836.791 588 839 588H966C968.209 588 970 589.791 970 592C970 594.209 968.209 596 966 596H839C836.791 596 835 594.209 835 592ZM839 628C836.791 628 835 629.791 835 632C835 634.209 836.791 636 839 636H966C968.209 636 970 634.209 970 632C970 629.791 968.209 628 966 628H839ZM835 672C835 669.791 836.791 668 839 668H966C968.209 668 970 669.791 970 672C970 674.209 968.209 676 966 676H839C836.791 676 835 674.209 835 672ZM839 708C836.791 708 835 709.791 835 712C835 714.209 836.791 716 839 716H966C968.209 716 970 714.209 970 712C970 709.791 968.209 708 966 708H839ZM835 752C835 749.791 836.791 748 839 748H966C968.209 748 970 749.791 970 752C970 754.209 968.209 756 966 756H839C836.791 756 835 754.209 835 752ZM839 788C836.791 788 835 789.791 835 792C835 794.209 836.791 796 839 796H966C968.209 796 970 794.209 970 792C970 789.791 968.209 788 966 788H839Z" fill="#C5CCD6"/>
<rect x="715" y="331" width="155" height="12" rx="3" fill="#C5CCD6"/>
<rect x="715" y="373" width="135" height="8" rx="4" fill="#C5CCD6"/>
<rect x="715" y="393" width="105" height="8" rx="4" fill="#C5CCD6"/>
<rect x="715" y="433" width="135" height="8" rx="4" fill="#C5CCD6"/>
<rect x="715" y="453" width="105" height="8" rx="4" fill="#C5CCD6"/>
<rect x="215" y="117" width="125" height="8" rx="4" fill="#C5CCD6"/>
<rect x="405" y="117" width="125" height="8" rx="4" fill="#C5CCD6"/>
<rect x="215" y="137" width="70" height="8" rx="4" fill="#C5CCD6"/>
<rect x="405" y="137" width="70" height="8" rx="4" fill="#C5CCD6"/>
</svg>
