<svg width="24" height="24" viewBox="0 0 24 24" fill="none" xmlns="http://www.w3.org/2000/svg">
<path fill-rule="evenodd" clip-rule="evenodd" d="M12.001 9.125C12.5532 9.12499 13.001 9.5727 13.001 10.125L13.0011 20.25C13.0011 20.8023 12.5534 21.25 12.0011 21.25C11.4489 21.25 11.0011 20.8023 11.0011 20.25L11.001 10.125C11.001 9.57273 11.4487 9.12501 12.001 9.125Z" fill="#191A1D"/>
<path fill-rule="evenodd" clip-rule="evenodd" d="M12.0012 2.75C12.5535 2.75003 13.0012 3.19777 13.0011 3.75006L13.001 6.37506C13.0009 6.92734 12.5532 7.37503 12.0009 7.375C11.4486 7.37497 11.0009 6.92723 11.001 6.37494L11.0011 3.74994C11.0012 3.19766 11.4489 2.74997 12.0012 2.75Z" fill="#191A1D"/>
<path fill-rule="evenodd" clip-rule="evenodd" d="M12.0009 7.375C11.5177 7.375 11.126 7.76675 11.126 8.25C11.126 8.73325 11.5177 9.125 12.001 9.125C12.4842 9.125 12.876 8.73325 12.876 8.25C12.876 7.76675 12.4842 7.375 12.0009 7.375ZM9.12598 8.25C9.12598 6.66218 10.4132 5.375 12.001 5.375C13.5888 5.375 14.876 6.66218 14.876 8.25C14.876 9.83782 13.5888 11.125 12.001 11.125C10.4132 11.125 9.12598 9.83782 9.12598 8.25Z" fill="#191A1D"/>
<path fill-rule="evenodd" clip-rule="evenodd" d="M18.7509 16.625C19.3032 16.625 19.7509 17.0727 19.751 17.6249L19.7511 20.2499C19.7511 20.8022 19.3035 21.25 18.7512 21.25C18.1989 21.25 17.7511 20.8023 17.7511 20.2501L17.751 17.6251C17.7509 17.0728 18.1986 16.625 18.7509 16.625Z" fill="#191A1D"/>
<path fill-rule="evenodd" clip-rule="evenodd" d="M18.7511 2.75C19.3034 2.75001 19.7511 3.19773 19.7511 3.75001L19.751 13.875C19.751 14.4273 19.3032 14.875 18.751 14.875C18.1987 14.875 17.751 14.4273 17.751 13.875L17.7511 3.74999C17.7511 3.1977 18.1988 2.74999 18.7511 2.75Z" fill="#191A1D"/>
<path fill-rule="evenodd" clip-rule="evenodd" d="M18.751 14.875C18.2677 14.875 17.876 15.2668 17.876 15.75C17.876 16.2332 18.2677 16.625 18.7509 16.625C19.2342 16.625 19.626 16.2332 19.626 15.75C19.626 15.2668 19.2342 14.875 18.751 14.875ZM15.876 15.75C15.876 14.1622 17.1632 12.875 18.751 12.875C20.3388 12.875 21.626 14.1622 21.626 15.75C21.626 17.3378 20.3388 18.625 18.751 18.625C17.1632 18.625 15.876 17.3378 15.876 15.75Z" fill="#191A1D"/>
<path fill-rule="evenodd" clip-rule="evenodd" d="M5.25017 13.625C5.80245 13.625 6.25016 14.0727 6.25015 14.625L6.25004 20.25C6.25003 20.8023 5.8023 21.25 5.25002 21.25C4.69774 21.25 4.25003 20.8023 4.25004 20.25L4.25015 14.625C4.25016 14.0727 4.69788 13.625 5.25017 13.625Z" fill="#191A1D"/>
<path fill-rule="evenodd" clip-rule="evenodd" d="M5.25002 2.75C5.80231 2.74999 6.25003 3.1977 6.25004 3.74998L6.25015 10.875C6.25016 11.4273 5.80245 11.875 5.25016 11.875C4.69788 11.875 4.25016 11.4273 4.25015 10.875L4.25004 3.75002C4.25003 3.19773 4.69774 2.75001 5.25002 2.75Z" fill="#191A1D"/>
<path fill-rule="evenodd" clip-rule="evenodd" d="M5.25016 11.875C4.76691 11.875 4.37598 12.2668 4.37598 12.75C4.37598 13.2332 4.76692 13.625 5.25017 13.625C5.73342 13.625 6.12598 13.2332 6.12598 12.75C6.12598 12.2668 5.73341 11.875 5.25016 11.875ZM2.37598 12.75C2.37598 11.1622 3.66316 9.875 5.25098 9.875C6.8388 9.875 8.12598 11.1622 8.12598 12.75C8.12598 14.3378 6.8388 15.625 5.25098 15.625C3.66316 15.625 2.37598 14.3378 2.37598 12.75Z" fill="#191A1D"/>
</svg>
