<svg width="24" height="24" viewBox="0 0 24 24" fill="none" xmlns="http://www.w3.org/2000/svg">
<path fill-rule="evenodd" clip-rule="evenodd" d="M18.0208 17.6569L6.70711 6.34319C6.31658 5.95266 5.68342 5.95266 5.29289 6.34319C4.90237 6.73371 4.90237 7.36688 5.29289 7.7574L16.6066 19.0711C16.9971 19.4616 17.6303 19.4616 18.0208 19.0711C18.4113 18.6806 18.4113 18.0474 18.0208 17.6569ZM3.87868 4.92897C2.70711 6.10055 2.70711 8.00004 3.87868 9.17161L15.1924 20.4853C16.364 21.6569 18.2635 21.6569 19.435 20.4853C20.6066 19.3137 20.6066 17.4143 19.435 16.2427L8.12132 4.92897C6.94975 3.7574 5.05025 3.7574 3.87868 4.92897Z" fill="#191A1D"/>
<path d="M5.29252 10.5858L9.53516 6.34317L10.9494 7.75739L6.70673 12L5.29252 10.5858Z" fill="#191A1D"/>
<path d="M21.6638 9C20.5223 9 19.2638 7.2 19.2638 6C19.2638 7.2 18.0638 9 16.8638 9C18.3038 9 19.2638 10.8 19.2638 12C19.2638 10.8 20.4638 9 21.6638 9Z" fill="#191A1D"/>
<path d="M15.6637 4C14.5222 4 13.2637 2.2 13.2637 1C13.2637 2.2 12.0637 4 10.8637 4C12.3037 4 13.2637 5.8 13.2637 7C13.2637 5.8 14.4637 4 15.6637 4Z" fill="#191A1D"/>
<path d="M9.4 18C7.87808 18 6.2 15.6 6.2 14C6.2 15.6 4.86998 18 3 18C4.92 18 6.2 20.4 6.2 22C6.2 20.4 7.72712 18 9.4 18Z" fill="#191A1D"/>
</svg>
