<svg width="24" height="24" viewBox="0 0 24 24" fill="none" xmlns="http://www.w3.org/2000/svg">
<path fill-rule="evenodd" clip-rule="evenodd" d="M12.0002 14C13.1048 14 14.0002 13.1046 14.0002 12C14.0002 10.8954 13.1048 10 12.0002 10C10.8957 10 10.0002 10.8954 10.0002 12C10.0002 13.1046 10.8957 14 12.0002 14ZM12.0002 16C14.2094 16 16.0002 14.2091 16.0002 12C16.0002 9.79086 14.2094 8 12.0002 8C9.79109 8 8.00022 9.79086 8.00022 12C8.00022 14.2091 9.79109 16 12.0002 16Z" fill="#191A1D"/>
<path fill-rule="evenodd" clip-rule="evenodd" d="M21.9519 13.7802C21.9553 13.7836 21.9587 13.787 21.9621 13.7904C21.9689 13.7971 21.9757 13.8037 21.9825 13.8103C22.7055 14.504 23.4627 15.9426 22.6943 17.4484C22.4922 17.8444 22.2688 18.2275 22.0258 18.5963C21.0128 20.1334 19.222 20.057 18.2419 19.6685C18.1702 19.6401 18.0955 19.6152 18.0177 19.5944C16.9508 19.3085 15.8541 19.9417 15.5682 21.0086C15.5474 21.0862 15.5316 21.1632 15.5204 21.2393C15.3663 22.2837 14.5343 23.8751 12.6936 23.9802C12.4639 23.9934 12.2327 24 12.0001 24C11.7896 24 11.5802 23.9946 11.3721 23.9838C9.68476 23.8966 8.81641 22.5232 8.57642 21.5493C8.57309 21.5357 8.56961 21.5222 8.56597 21.5086C8.28009 20.4417 7.18341 19.8085 6.11648 20.0944C6.06006 20.1095 6.00526 20.1268 5.9521 20.1459C5.01209 20.4845 3.38985 20.5266 2.37973 19.1738C1.82309 18.4283 1.35062 17.6153 0.976912 16.7488C0.307076 15.1957 1.15734 13.8098 1.92077 13.1654C1.96417 13.1288 2.0067 13.0897 2.04822 13.0482C2.82927 12.2672 2.82927 11.0008 2.04822 10.2198C2.03805 10.2096 2.02783 10.1996 2.01756 10.1897C1.29457 9.49602 0.537418 8.05744 1.30583 6.55167C1.50793 6.15563 1.73129 5.77247 1.97435 5.40367C2.98733 3.86663 4.77818 3.94297 5.75828 4.33149C5.82995 4.3599 5.90466 4.38474 5.98242 4.40558C7.04936 4.69146 8.14603 4.0583 8.43191 2.99136C8.45271 2.91376 8.46853 2.8368 8.47976 2.76068C8.6338 1.71625 9.46583 0.124935 11.3065 0.0197664C11.5362 0.00664055 11.7675 0 12.0001 0C12.2106 0 12.42 0.00544119 12.6283 0.0162084C14.3155 0.103464 15.1839 1.47683 15.4239 2.45071C15.4272 2.46423 15.4307 2.47777 15.4343 2.49135C15.7202 3.55828 16.8169 4.19145 17.8838 3.90557C17.9402 3.89045 17.995 3.87324 18.0481 3.85409C18.9881 3.51556 20.6103 3.47347 21.6204 4.82622C22.1771 5.57167 22.6495 6.38467 23.0232 7.25116C23.6931 8.80429 22.8428 10.1902 22.0793 10.8346C22.0359 10.8713 21.9934 10.9103 21.9519 10.9518C21.1708 11.7329 21.1708 12.9992 21.9519 13.7802ZM18.7258 5.73579C19.1848 5.57049 19.726 5.63195 20.0179 6.02283C20.4821 6.64446 20.8756 7.32188 21.1867 8.04321C21.3801 8.49148 21.1624 8.9914 20.7893 9.30629C20.703 9.37915 20.619 9.45625 20.5377 9.53759C18.9756 11.0997 18.9756 13.6323 20.5377 15.1944C20.5576 15.2144 20.5776 15.234 20.5979 15.2534C20.9501 15.5914 21.1347 16.1045 20.9128 16.5393C20.7445 16.8691 20.5584 17.1883 20.3558 17.4958C20.0653 17.9365 19.4696 18.0038 18.9789 17.8093C18.8357 17.7525 18.6877 17.7034 18.5353 17.6626C16.4015 17.0908 14.2081 18.3571 13.6364 20.491C13.5956 20.6431 13.5642 20.7954 13.5418 20.9475C13.4646 21.4705 13.1074 21.9533 12.5795 21.9835C12.3878 21.9944 12.1946 22 12.0001 22C11.8241 22 11.6491 21.9955 11.4753 21.9865C10.9876 21.9613 10.6352 21.5449 10.5183 21.0708C10.5118 21.0442 10.5049 21.0176 10.4978 20.991C9.92605 18.8571 7.73271 17.5908 5.59884 18.1626C5.48832 18.1922 5.38012 18.2261 5.27438 18.2642C4.81541 18.4295 4.27414 18.3681 3.98226 17.9772C3.51808 17.3556 3.1245 16.6781 2.81339 15.9568C2.62006 15.5085 2.83778 15.0086 3.21082 14.6937C3.29714 14.6208 3.3811 14.5438 3.46243 14.4624C5.02453 12.9003 5.02453 10.3677 3.46243 8.80557C3.44253 8.78567 3.42248 8.76602 3.40227 8.74663C3.05003 8.40866 2.86539 7.89557 3.08728 7.46076C3.2556 7.13092 3.44169 6.81166 3.64429 6.50425C3.93479 6.06347 4.53052 5.99621 5.02126 6.19074C5.16444 6.2475 5.3124 6.2966 5.46479 6.33743C7.59865 6.9092 9.792 5.64287 10.3638 3.509C10.4045 3.35694 10.4359 3.20457 10.4584 3.05251C10.5355 2.52945 10.8927 2.04667 11.4206 2.01651C11.6124 2.00555 11.8056 2 12.0001 2C12.1761 2 12.3511 2.00455 12.525 2.01354C13.0127 2.03876 13.3651 2.45508 13.4819 2.92924C13.4885 2.95583 13.4953 2.98242 13.5025 3.00899C14.0742 5.14285 16.2676 6.40918 18.4014 5.83742C18.5119 5.80781 18.6201 5.77385 18.7258 5.73579Z" fill="#191A1D"/>
</svg>
