<?xml version="1.0" encoding="UTF-8"?>
<svg xmlns="http://www.w3.org/2000/svg" width="0" height="0">
  <symbol id="error-outline.icon" viewBox="0 0 24 24">
    <path d="M12 17C12.2833 17 12.5208 16.9042 12.7125 16.7125C12.9042 16.5208 13 16.2833 13 16C13 15.7167 12.9042 15.4792 12.7125 15.2875C12.5208 15.0958 12.2833 15 12 15C11.7167 15 11.4792 15.0958 11.2875 15.2875C11.0958 15.4792 11 15.7167 11 16C11 16.2833 11.0958 16.5208 11.2875 16.7125C11.4792 16.9042 11.7167 17 12 17ZM12 13C12.2833 13 12.5208 12.9042 12.7125 12.7125C12.9042 12.5208 13 12.2833 13 12V8C13 7.71667 12.9042 7.47917 12.7125 7.2875C12.5208 7.09583 12.2833 7 12 7C11.7167 7 11.4792 7.09583 11.2875 7.2875C11.0958 7.47917 11 7.71667 11 8V12C11 12.2833 11.0958 12.5208 11.2875 12.7125C11.4792 12.9042 11.7167 13 12 13ZM12 22C10.6167 22 9.31667 21.7375 8.1 21.2125C6.88333 20.6875 5.825 19.975 4.925 19.075C4.025 18.175 3.3125 17.1167 2.7875 15.9C2.2625 14.6833 2 13.3833 2 12C2 10.6167 2.2625 9.31667 2.7875 8.1C3.3125 6.88333 4.025 5.825 4.925 4.925C5.825 4.025 6.88333 3.3125 8.1 2.7875C9.31667 2.2625 10.6167 2 12 2C13.3833 2 14.6833 2.2625 15.9 2.7875C17.1167 3.3125 18.175 4.025 19.075 4.925C19.975 5.825 20.6875 6.88333 21.2125 8.1C21.7375 9.31667 22 10.6167 22 12C22 13.3833 21.7375 14.6833 21.2125 15.9C20.6875 17.1167 19.975 18.175 19.075 19.075C18.175 19.975 17.1167 20.6875 15.9 21.2125C14.6833 21.7375 13.3833 22 12 22ZM12 20C14.2333 20 16.125 19.225 17.675 17.675C19.225 16.125 20 14.2333 20 12C20 9.76667 19.225 7.875 17.675 6.325C16.125 4.775 14.2333 4 12 4C9.76667 4 7.875 4.775 6.325 6.325C4.775 7.875 4 9.76667 4 12C4 14.2333 4.775 16.125 6.325 17.675C7.875 19.225 9.76667 20 12 20Z"/>
  </symbol>

  <symbol id="error.icon" viewBox="0 0 24 24">
    <path fill-rule="evenodd" clip-rule="evenodd" d="M12 2C6.48 2 2 6.48 2 12C2 17.52 6.48 22 12 22C17.52 22 22 17.52 22 12C22 6.48 17.52 2 12 2ZM11 17V15H13V17H11ZM11 7V13H13V7H11Z"/>
  </symbol>

  <symbol id="left-one.icon" viewBox="0 0 24 24">
    <path fill-rule="evenodd" clip-rule="evenodd" d="M14.7071 7.29289C15.0976 7.68342 15.0976 8.31658 14.7071 8.70711L11.4142 12L14.7071 15.2929C15.0976 15.6834 15.0976 16.3166 14.7071 16.7071C14.3166 17.0976 13.6834 17.0976 13.2929 16.7071L9.29289 12.7071C8.90237 12.3166 8.90237 11.6834 9.29289 11.2929L13.2929 7.29289C13.6834 6.90237 14.3166 6.90237 14.7071 7.29289Z"/>
  </symbol>

  <symbol id="left-three.icon" viewBox="0 0 24 24">
    <path d="M7.8248 13L12.7248 17.9C12.9248 18.1 13.0206 18.3334 13.0123 18.6C13.004 18.8667 12.8998 19.1 12.6998 19.3C12.4998 19.4834 12.2665 19.5792 11.9998 19.5875C11.7331 19.5959 11.4998 19.5 11.2998 19.3L4.6998 12.7C4.5998 12.6 4.52897 12.4917 4.4873 12.375C4.44564 12.2584 4.4248 12.1334 4.4248 12C4.4248 11.8667 4.44564 11.7417 4.4873 11.625C4.52897 11.5084 4.5998 11.4 4.6998 11.3L11.2998 4.70005C11.4831 4.51672 11.7123 4.42505 11.9873 4.42505C12.2623 4.42505 12.4998 4.51672 12.6998 4.70005C12.8998 4.90005 12.9998 5.13755 12.9998 5.41255C12.9998 5.68755 12.8998 5.92505 12.6998 6.12505L7.8248 11H18.9998C19.2831 11 19.5206 11.0959 19.7123 11.2875C19.904 11.4792 19.9998 11.7167 19.9998 12C19.9998 12.2834 19.904 12.5209 19.7123 12.7125C19.5206 12.9042 19.2831 13 18.9998 13H7.8248Z"/>
  </symbol>

  <symbol id="left-two.icon" viewBox="0 0 24 24">
    <path fill-rule="evenodd" clip-rule="evenodd" d="M15.7071 5.29289C16.0976 5.68342 16.0976 6.31658 15.7071 6.70711L10.4142 12L15.7071 17.2929C16.0976 17.6834 16.0976 18.3166 15.7071 18.7071C15.3166 19.0976 14.6834 19.0976 14.2929 18.7071L8.29289 12.7071C7.90237 12.3166 7.90237 11.6834 8.29289 11.2929L14.2929 5.29289C14.6834 4.90237 15.3166 4.90237 15.7071 5.29289Z"/>
  </symbol>

  <symbol id="down-one.icon" viewBox="0 0 24 24">
    <path fill-rule="evenodd" clip-rule="evenodd" d="M7.29289 9.29289C7.68342 8.90237 8.31658 8.90237 8.70711 9.29289L12 12.5858L15.2929 9.29289C15.6834 8.90237 16.3166 8.90237 16.7071 9.29289C17.0976 9.68342 17.0976 10.3166 16.7071 10.7071L12.7071 14.7071C12.3166 15.0976 11.6834 15.0976 11.2929 14.7071L7.29289 10.7071C6.90237 10.3166 6.90237 9.68342 7.29289 9.29289Z"/>
  </symbol>

  <symbol id="down-three.icon" viewBox="0 0 24 24">
    <path d="M10.9998 16.175V5C10.9998 4.71667 11.0956 4.47917 11.2873 4.2875C11.479 4.09583 11.7165 4 11.9998 4C12.2831 4 12.5206 4.09583 12.7123 4.2875C12.904 4.47917 12.9998 4.71667 12.9998 5V16.175L17.8998 11.275C18.0998 11.075 18.3331 10.9792 18.5998 10.9875C18.8665 10.9958 19.0998 11.1 19.2998 11.3C19.4831 11.5 19.579 11.7333 19.5873 12C19.5956 12.2667 19.4998 12.5 19.2998 12.7L12.6998 19.3C12.5998 19.4 12.4915 19.4708 12.3748 19.5125C12.2581 19.5542 12.1331 19.575 11.9998 19.575C11.8665 19.575 11.7415 19.5542 11.6248 19.5125C11.5081 19.4708 11.3998 19.4 11.2998 19.3L4.6998 12.7C4.51647 12.5167 4.4248 12.2875 4.4248 12.0125C4.4248 11.7375 4.51647 11.5 4.6998 11.3C4.8998 11.1 5.1373 11 5.4123 11C5.6873 11 5.9248 11.1 6.1248 11.3L10.9998 16.175Z"/>
  </symbol>

  <symbol id="down-two.icon" viewBox="0 0 24 24">
    <path fill-rule="evenodd" clip-rule="evenodd" d="M5.29289 8.29289C5.68342 7.90237 6.31658 7.90237 6.70711 8.29289L12 13.5858L17.2929 8.29289C17.6834 7.90237 18.3166 7.90237 18.7071 8.29289C19.0976 8.68342 19.0976 9.31658 18.7071 9.70711L12.7071 15.7071C12.3166 16.0976 11.6834 16.0976 11.2929 15.7071L5.29289 9.70711C4.90237 9.31658 4.90237 8.68342 5.29289 8.29289Z"/>
  </symbol>

  <symbol id="up-three.icon" viewBox="0 0 24 24">
    <path d="M11.0001 7.82505L6.10011 12.725C5.90011 12.925 5.66678 13.0209 5.40011 13.0125C5.13344 13.0042 4.90011 12.9 4.70011 12.7C4.51678 12.5 4.42094 12.2667 4.41261 12C4.40428 11.7334 4.50011 11.5 4.70011 11.3L11.3001 4.70005C11.4001 4.60005 11.5084 4.52922 11.6251 4.48755C11.7418 4.44588 11.8668 4.42505 12.0001 4.42505C12.1334 4.42505 12.2584 4.44588 12.3751 4.48755C12.4918 4.52922 12.6001 4.60005 12.7001 4.70005L19.3001 11.3C19.4834 11.4834 19.5751 11.7125 19.5751 11.9875C19.5751 12.2625 19.4834 12.5 19.3001 12.7C19.1001 12.9 18.8626 13 18.5876 13C18.3126 13 18.0751 12.9 17.8751 12.7L13.0001 7.82505V19C13.0001 19.2834 12.9043 19.5209 12.7126 19.7125C12.5209 19.9042 12.2834 20 12.0001 20C11.7168 20 11.4793 19.9042 11.2876 19.7125C11.0959 19.5209 11.0001 19.2834 11.0001 19V7.82505Z"/>
  </symbol>

  <symbol id="up-two.icon" viewBox="0 0 24 24">
    <path fill-rule="evenodd" clip-rule="evenodd" d="M18.7076 15.7071C18.3171 16.0976 17.6839 16.0976 17.2934 15.7071L12.0005 10.4142L6.70759 15.7071C6.31707 16.0976 5.68391 16.0976 5.29338 15.7071C4.90286 15.3166 4.90286 14.6834 5.29338 14.2929L11.2934 8.29289C11.6839 7.90237 12.3171 7.90237 12.7076 8.29289L18.7076 14.2929C19.0981 14.6834 19.0981 15.3166 18.7076 15.7071Z"/>
  </symbol>

  <symbol id="right-one.icon" viewBox="0 0 24 24">
    <path fill-rule="evenodd" clip-rule="evenodd" d="M9.29289 7.29289C9.68342 6.90237 10.3166 6.90237 10.7071 7.29289L14.7071 11.2929C15.0976 11.6834 15.0976 12.3166 14.7071 12.7071L10.7071 16.7071C10.3166 17.0976 9.68342 17.0976 9.29289 16.7071C8.90237 16.3166 8.90237 15.6834 9.29289 15.2929L12.5858 12L9.29289 8.70711C8.90237 8.31658 8.90237 7.68342 9.29289 7.29289Z"/>
  </symbol>

  <symbol id="right-tree.icon" viewBox="0 0 24 24">
    <path d="M16.175 13.0001H5C4.71667 13.0001 4.47917 12.9043 4.2875 12.7126C4.09583 12.5209 4 12.2834 4 12.0001C4 11.7168 4.09583 11.4793 4.2875 11.2876C4.47917 11.0959 4.71667 11.0001 5 11.0001H16.175L11.275 6.10011C11.075 5.90011 10.9792 5.66678 10.9875 5.40011C10.9958 5.13344 11.1 4.90011 11.3 4.70011C11.5 4.51678 11.7333 4.42094 12 4.41261C12.2667 4.40428 12.5 4.50011 12.7 4.70011L19.3 11.3001C19.4 11.4001 19.4708 11.5084 19.5125 11.6251C19.5542 11.7418 19.575 11.8668 19.575 12.0001C19.575 12.1334 19.5542 12.2584 19.5125 12.3751C19.4708 12.4918 19.4 12.6001 19.3 12.7001L12.7 19.3001C12.5167 19.4834 12.2875 19.5751 12.0125 19.5751C11.7375 19.5751 11.5 19.4834 11.3 19.3001C11.1 19.1001 11 18.8626 11 18.5876C11 18.3126 11.1 18.0751 11.3 17.8751L16.175 13.0001Z"/>
  </symbol>

  <symbol id="right-two.icon" viewBox="0 0 24 24">
    <path fill-rule="evenodd" clip-rule="evenodd" d="M9.29289 18.7071C8.90237 18.3166 8.90237 17.6834 9.29289 17.2929L14.5858 12L9.29289 6.70711C8.90237 6.31658 8.90237 5.68342 9.29289 5.29289C9.68342 4.90237 10.3166 4.90237 10.7071 5.29289L16.7071 11.2929C17.0976 11.6834 17.0976 12.3166 16.7071 12.7071L10.7071 18.7071C10.3166 19.0976 9.68342 19.0976 9.29289 18.7071Z"/>
  </symbol>

  <symbol id="up-one.icon" viewBox="0 0 24 24">
    <path fill-rule="evenodd" clip-rule="evenodd" d="M11.2929 9.29289C11.6834 8.90237 12.3166 8.90237 12.7071 9.29289L16.7071 13.2929C17.0976 13.6834 17.0976 14.3166 16.7071 14.7071C16.3166 15.0976 15.6834 15.0976 15.2929 14.7071L12 11.4142L8.70711 14.7071C8.31658 15.0976 7.68342 15.0976 7.29289 14.7071C6.90237 14.3166 6.90237 13.6834 7.29289 13.2929L11.2929 9.29289Z"/>
  </symbol>

  <symbol id="pause.icon" viewBox="0 0 24 24">
    <path d="M16 19C15.45 19 14.9792 18.8042 14.5875 18.4125C14.1958 18.0208 14 17.55 14 17V7C14 6.45 14.1958 5.97917 14.5875 5.5875C14.9792 5.19583 15.45 5 16 5C16.55 5 17.0208 5.19583 17.4125 5.5875C17.8042 5.97917 18 6.45 18 7V17C18 17.55 17.8042 18.0208 17.4125 18.4125C17.0208 18.8042 16.55 19 16 19ZM8 19C7.45 19 6.97917 18.8042 6.5875 18.4125C6.19583 18.0208 6 17.55 6 17V7C6 6.45 6.19583 5.97917 6.5875 5.5875C6.97917 5.19583 7.45 5 8 5C8.55 5 9.02083 5.19583 9.4125 5.5875C9.80417 5.97917 10 6.45 10 7V17C10 17.55 9.80417 18.0208 9.4125 18.4125C9.02083 18.8042 8.55 19 8 19Z"/>
  </symbol>

  <symbol id="play.icon" viewBox="0 0 24 24">
    <path d="M8 17.175V6.82495C8 6.54162 8.1 6.30412 8.3 6.11245C8.5 5.92078 8.73333 5.82495 9 5.82495C9.08333 5.82495 9.17083 5.83745 9.2625 5.86245C9.35417 5.88745 9.44167 5.92495 9.525 5.97495L17.675 11.15C17.825 11.25 17.9375 11.375 18.0125 11.525C18.0875 11.675 18.125 11.8333 18.125 12C18.125 12.1666 18.0875 12.325 18.0125 12.475C17.9375 12.625 17.825 12.75 17.675 12.85L9.525 18.025C9.44167 18.075 9.35417 18.1125 9.2625 18.1375C9.17083 18.1625 9.08333 18.175 9 18.175C8.73333 18.175 8.5 18.0791 8.3 17.8875C8.1 17.6958 8 17.4583 8 17.175Z"/>
  </symbol>

  <symbol id="stop.icon" viewBox="0 0 24 24">
    <path d="M6 16V8C6 7.45 6.19583 6.97917 6.5875 6.5875C6.97917 6.19583 7.45 6 8 6H16C16.55 6 17.0208 6.19583 17.4125 6.5875C17.8042 6.97917 18 7.45 18 8V16C18 16.55 17.8042 17.0208 17.4125 17.4125C17.0208 17.8042 16.55 18 16 18H8C7.45 18 6.97917 17.8042 6.5875 17.4125C6.19583 17.0208 6 16.55 6 16Z"/>
  </symbol>

  <symbol id="voice.icon" viewBox="0 0 24 24">
    <path d="M12 14C11.1667 14 10.4583 13.7083 9.875 13.125C9.29167 12.5417 9 11.8333 9 11V5C9 4.16667 9.29167 3.45833 9.875 2.875C10.4583 2.29167 11.1667 2 12 2C12.8333 2 13.5417 2.29167 14.125 2.875C14.7083 3.45833 15 4.16667 15 5V11C15 11.8333 14.7083 12.5417 14.125 13.125C13.5417 13.7083 12.8333 14 12 14ZM11 21V17.925C9.26667 17.6917 7.83333 16.9167 6.7 15.6C5.56667 14.2833 5 12.75 5 11H7C7 12.3833 7.4875 13.5625 8.4625 14.5375C9.4375 15.5125 10.6167 16 12 16C13.3833 16 14.5625 15.5125 15.5375 14.5375C16.5125 13.5625 17 12.3833 17 11H19C19 12.75 18.4333 14.2833 17.3 15.6C16.1667 16.9167 14.7333 17.6917 13 17.925V21H11Z"/>
  </symbol>

  <symbol id="message-two.icon" viewBox="0 0 24 24">
    <path fill-rule="evenodd" clip-rule="evenodd" d="M2 4C2 2.89572 2.89572 2 4 2H20C21.1043 2 22 2.89572 22 4V17C22 18.1043 21.1043 19 20 19H16V21.513H15L14.4251 22.3312L9.68382 19H4C2.89572 19 2 18.1043 2 17V4ZM14 19.5883V18C14 17.4477 14.4477 17 15 17H20V4H4V17H10C10.2058 17 10.4065 17.0635 10.5749 17.1818L14 19.5883Z"/>
    <path fill-rule="evenodd" clip-rule="evenodd" d="M6 13C6 12.4477 6.44772 12 7 12H15C15.5523 12 16 12.4477 16 13C16 13.5523 15.5523 14 15 14H7C6.44772 14 6 13.5523 6 13Z"/>
    <path fill-rule="evenodd" clip-rule="evenodd" d="M6 8C6 7.44772 6.44772 7 7 7H17C17.5523 7 18 7.44772 18 8C18 8.55228 17.5523 9 17 9H7C6.44772 9 6 8.55228 6 8Z"/>
  </symbol>

  <symbol id="message-one.icon" viewBox="0 0 24 24">
    <path fill-rule="evenodd" clip-rule="evenodd" d="M2 12C2 11.4477 2.44772 11 3 11H21C21.5523 11 22 11.4477 22 12C22 12.5523 21.5523 13 21 13H3C2.44772 13 2 12.5523 2 12Z"/>
    <path fill-rule="evenodd" clip-rule="evenodd" d="M2 8C2 7.44772 2.44772 7 3 7H21C21.5523 7 22 7.44772 22 8C22 8.55228 21.5523 9 21 9H3C2.44772 9 2 8.55228 2 8Z"/>
    <path fill-rule="evenodd" clip-rule="evenodd" d="M2 4C2 3.44772 2.44772 3 3 3H21C21.5523 3 22 3.44772 22 4C22 4.55228 21.5523 5 21 5H3C2.44772 5 2 4.55228 2 4Z"/>
    <path fill-rule="evenodd" clip-rule="evenodd" d="M2 15.9973C2.00152 15.445 2.45047 14.9985 3.00275 15L7.00275 15.011C7.55396 15.0125 8 15.4598 8 16.011V17.9194L11.3753 15.2191C11.5533 15.0767 11.7746 14.9994 12.0026 15L21.0026 15.023C21.5548 15.0244 22.0014 15.4733 22 16.0256C21.9986 16.5778 21.5497 17.0244 20.9974 17.023L12.3497 17.0009L7.62469 20.7809C7.32452 21.021 6.91328 21.0678 6.56681 20.9013C6.22035 20.7348 6 20.3844 6 20V17.0083L2.99725 17C2.44497 16.9985 1.99849 16.5495 2 15.9973Z"/>
  </symbol>

  <symbol id="checkbox.icon" viewBox="0 0 24 24">
    <path fill-rule="evenodd" clip-rule="evenodd" d="M16.7071 9.29289C17.0976 9.68342 17.0976 10.3166 16.7071 10.7071L11.7071 15.7071C11.3166 16.0976 10.6834 16.0976 10.2929 15.7071L7.29289 12.7071C6.90237 12.3166 6.90237 11.6834 7.29289 11.2929C7.68342 10.9024 8.31658 10.9024 8.70711 11.2929L11 13.5858L15.2929 9.29289C15.6834 8.90237 16.3166 8.90237 16.7071 9.29289Z"/>
    <path fill-rule="evenodd" clip-rule="evenodd" d="M6 5C5.44728 5 5 5.44728 5 6V18C5 18.5527 5.44728 19 6 19H18C18.5527 19 19 18.5527 19 18V6C19 5.44728 18.5527 5 18 5H6ZM3 6C3 4.34272 4.34272 3 6 3H18C19.6573 3 21 4.34272 21 6V18C21 19.6573 19.6573 21 18 21H6C4.34272 21 3 19.6573 3 18V6Z"/>
  </symbol>

  <symbol id="checkbox-empty.icon" viewBox="0 0 24 24">
    <path fill-rule="evenodd" clip-rule="evenodd" d="M6 5C5.44728 5 5 5.44728 5 6V18C5 18.5527 5.44728 19 6 19H18C18.5527 19 19 18.5527 19 18V6C19 5.44728 18.5527 5 18 5H6ZM3 6C3 4.34272 4.34272 3 6 3H18C19.6573 3 21 4.34272 21 6V18C21 19.6573 19.6573 21 18 21H6C4.34272 21 3 19.6573 3 18V6Z"/>
  </symbol>

  <symbol id="close-circle.icon" viewBox="0 0 24 24">
    <path d="M8.4 17L12 13.4L15.6 17L17 15.6L13.4 12L17 8.4L15.6 7L12 10.6L8.4 7L7 8.4L10.6 12L7 15.6L8.4 17ZM12 22C10.6167 22 9.31667 21.7375 8.1 21.2125C6.88333 20.6875 5.825 19.975 4.925 19.075C4.025 18.175 3.3125 17.1167 2.7875 15.9C2.2625 14.6833 2 13.3833 2 12C2 10.6167 2.2625 9.31667 2.7875 8.1C3.3125 6.88333 4.025 5.825 4.925 4.925C5.825 4.025 6.88333 3.3125 8.1 2.7875C9.31667 2.2625 10.6167 2 12 2C13.3833 2 14.6833 2.2625 15.9 2.7875C17.1167 3.3125 18.175 4.025 19.075 4.925C19.975 5.825 20.6875 6.88333 21.2125 8.1C21.7375 9.31667 22 10.6167 22 12C22 13.3833 21.7375 14.6833 21.2125 15.9C20.6875 17.1167 19.975 18.175 19.075 19.075C18.175 19.975 17.1167 20.6875 15.9 21.2125C14.6833 21.7375 13.3833 22 12 22Z"/>
  </symbol>

  <symbol id="attachment.icon" viewBox="0 0 24 24">
    <path fill-rule="evenodd" clip-rule="evenodd" d="M11.5318 4.61443C13.7082 2.49156 17.1871 2.51324 19.3369 4.66308C21.4867 6.81292 21.5084 10.2917 19.3855 12.4682L19.3768 12.4771L17.1849 14.669C16.7944 15.0595 16.1612 15.0595 15.7707 14.669C15.3801 14.2785 15.3801 13.6453 15.7707 13.2548L17.9579 11.0676C19.3122 9.67459 19.297 7.45158 17.9227 6.07729C16.5484 4.703 14.3254 4.68778 12.9324 6.04208L10.7452 8.22931C10.3547 8.61984 9.7215 8.61984 9.33098 8.22931C8.94046 7.83879 8.94046 7.20563 9.33098 6.8151L11.5318 4.61443Z"/>
    <path fill-rule="evenodd" clip-rule="evenodd" d="M15.3754 8.62486C15.7659 9.01539 15.7659 9.64855 15.3754 10.0391L10.0391 15.3753C9.64861 15.7658 9.01545 15.7658 8.62492 15.3753C8.2344 14.9848 8.2344 14.3516 8.62492 13.9611L13.9611 8.62486C14.3517 8.23434 14.9848 8.23434 15.3754 8.62486Z"/>
    <path fill-rule="evenodd" clip-rule="evenodd" d="M8.22907 9.33116C8.61959 9.72169 8.61959 10.3549 8.22907 10.7454L6.04183 12.9326C4.68753 14.3256 4.70276 16.5486 6.07705 17.9229C7.45134 19.2972 9.67435 19.3124 11.0673 17.9581L13.2545 15.7708C13.6451 15.3803 14.2782 15.3803 14.6688 15.7708C15.0593 16.1614 15.0593 16.7945 14.6688 17.1851L12.468 19.3858C10.2916 21.5087 6.81267 21.4869 4.66283 19.3371C2.51299 17.1872 2.49131 13.7084 4.61418 11.5319L4.62289 11.523L6.81486 9.33116C7.20538 8.94064 7.83855 8.94064 8.22907 9.33116Z"/>
  </symbol>

  <symbol id="check.icon" viewBox="0 0 24 24">
    <path d="M9.54972 15.15L18.0247 6.675C18.2247 6.475 18.4622 6.375 18.7372 6.375C19.0122 6.375 19.2497 6.475 19.4497 6.675C19.6497 6.875 19.7497 7.1125 19.7497 7.3875C19.7497 7.6625 19.6497 7.9 19.4497 8.1L10.2497 17.3C10.0497 17.5 9.81639 17.6 9.54972 17.6C9.28305 17.6 9.04972 17.5 8.84972 17.3L4.54972 13C4.34972 12.8 4.25389 12.5625 4.26222 12.2875C4.27055 12.0125 4.37472 11.775 4.57472 11.575C4.77472 11.375 5.01222 11.275 5.28722 11.275C5.56222 11.275 5.79972 11.375 5.99972 11.575L9.54972 15.15Z"/>
  </symbol>

  <symbol id="check-circle.icon" viewBox="0 0 24 24">
    <path d="M10.6 16.6L17.65 9.55L16.25 8.15L10.6 13.8L7.75 10.95L6.35 12.35L10.6 16.6ZM12 22C10.6167 22 9.31667 21.7375 8.1 21.2125C6.88333 20.6875 5.825 19.975 4.925 19.075C4.025 18.175 3.3125 17.1167 2.7875 15.9C2.2625 14.6833 2 13.3833 2 12C2 10.6167 2.2625 9.31667 2.7875 8.1C3.3125 6.88333 4.025 5.825 4.925 4.925C5.825 4.025 6.88333 3.3125 8.1 2.7875C9.31667 2.2625 10.6167 2 12 2C13.3833 2 14.6833 2.2625 15.9 2.7875C17.1167 3.3125 18.175 4.025 19.075 4.925C19.975 5.825 20.6875 6.88333 21.2125 8.1C21.7375 9.31667 22 10.6167 22 12C22 13.3833 21.7375 14.6833 21.2125 15.9C20.6875 17.1167 19.975 18.175 19.075 19.075C18.175 19.975 17.1167 20.6875 15.9 21.2125C14.6833 21.7375 13.3833 22 12 22ZM12 20C14.2333 20 16.125 19.225 17.675 17.675C19.225 16.125 20 14.2333 20 12C20 9.76667 19.225 7.875 17.675 6.325C16.125 4.775 14.2333 4 12 4C9.76667 4 7.875 4.775 6.325 6.325C4.775 7.875 4 9.76667 4 12C4 14.2333 4.775 16.125 6.325 17.675C7.875 19.225 9.76667 20 12 20Z"/>
  </symbol>

  <symbol id="plus.icon" viewBox="0 0 24 24">
    <path d="M11 13H6C5.71667 13 5.47917 12.9042 5.2875 12.7125C5.09583 12.5208 5 12.2833 5 12C5 11.7167 5.09583 11.4792 5.2875 11.2875C5.47917 11.0958 5.71667 11 6 11H11V6C11 5.71667 11.0958 5.47917 11.2875 5.2875C11.4792 5.09583 11.7167 5 12 5C12.2833 5 12.5208 5.09583 12.7125 5.2875C12.9042 5.47917 13 5.71667 13 6V11H18C18.2833 11 18.5208 11.0958 18.7125 11.2875C18.9042 11.4792 19 11.7167 19 12C19 12.2833 18.9042 12.5208 18.7125 12.7125C18.5208 12.9042 18.2833 13 18 13H13V18C13 18.2833 12.9042 18.5208 12.7125 18.7125C12.5208 18.9042 12.2833 19 12 19C11.7167 19 11.4792 18.9042 11.2875 18.7125C11.0958 18.5208 11 18.2833 11 18V13Z"/>
  </symbol>

  <symbol id="radio-button-check.icon" viewBox="0 0 24 24">
    <path d="M12 17C13.3833 17 14.5625 16.5125 15.5375 15.5375C16.5125 14.5625 17 13.3833 17 12C17 10.6167 16.5125 9.4375 15.5375 8.4625C14.5625 7.4875 13.3833 7 12 7C10.6167 7 9.4375 7.4875 8.4625 8.4625C7.4875 9.4375 7 10.6167 7 12C7 13.3833 7.4875 14.5625 8.4625 15.5375C9.4375 16.5125 10.6167 17 12 17ZM12 22C10.6167 22 9.31667 21.7375 8.1 21.2125C6.88333 20.6875 5.825 19.975 4.925 19.075C4.025 18.175 3.3125 17.1167 2.7875 15.9C2.2625 14.6833 2 13.3833 2 12C2 10.6167 2.2625 9.31667 2.7875 8.1C3.3125 6.88333 4.025 5.825 4.925 4.925C5.825 4.025 6.88333 3.3125 8.1 2.7875C9.31667 2.2625 10.6167 2 12 2C13.3833 2 14.6833 2.2625 15.9 2.7875C17.1167 3.3125 18.175 4.025 19.075 4.925C19.975 5.825 20.6875 6.88333 21.2125 8.1C21.7375 9.31667 22 10.6167 22 12C22 13.3833 21.7375 14.6833 21.2125 15.9C20.6875 17.1167 19.975 18.175 19.075 19.075C18.175 19.975 17.1167 20.6875 15.9 21.2125C14.6833 21.7375 13.3833 22 12 22ZM12 20C14.2333 20 16.125 19.225 17.675 17.675C19.225 16.125 20 14.2333 20 12C20 9.76667 19.225 7.875 17.675 6.325C16.125 4.775 14.2333 4 12 4C9.76667 4 7.875 4.775 6.325 6.325C4.775 7.875 4 9.76667 4 12C4 14.2333 4.775 16.125 6.325 17.675C7.875 19.225 9.76667 20 12 20Z"/>
  </symbol>

  <symbol id="radio-button-uncheck.icon" viewBox="0 0 24 24">
    <path d="M12 22C10.6167 22 9.31667 21.7375 8.1 21.2125C6.88333 20.6875 5.825 19.975 4.925 19.075C4.025 18.175 3.3125 17.1167 2.7875 15.9C2.2625 14.6833 2 13.3833 2 12C2 10.6167 2.2625 9.31667 2.7875 8.1C3.3125 6.88333 4.025 5.825 4.925 4.925C5.825 4.025 6.88333 3.3125 8.1 2.7875C9.31667 2.2625 10.6167 2 12 2C13.3833 2 14.6833 2.2625 15.9 2.7875C17.1167 3.3125 18.175 4.025 19.075 4.925C19.975 5.825 20.6875 6.88333 21.2125 8.1C21.7375 9.31667 22 10.6167 22 12C22 13.3833 21.7375 14.6833 21.2125 15.9C20.6875 17.1167 19.975 18.175 19.075 19.075C18.175 19.975 17.1167 20.6875 15.9 21.2125C14.6833 21.7375 13.3833 22 12 22ZM12 20C14.2333 20 16.125 19.225 17.675 17.675C19.225 16.125 20 14.2333 20 12C20 9.76667 19.225 7.875 17.675 6.325C16.125 4.775 14.2333 4 12 4C9.76667 4 7.875 4.775 6.325 6.325C4.775 7.875 4 9.76667 4 12C4 14.2333 4.775 16.125 6.325 17.675C7.875 19.225 9.76667 20 12 20Z"/>
  </symbol>

  <symbol id="share.icon" viewBox="0 0 24 24">
    <path fill-rule="evenodd" clip-rule="evenodd" d="M10.4852 4.51093C10.762 4.17127 11.1804 3.97883 11.6185 3.98969C12.0102 3.99941 12.3011 4.1955 12.4346 4.29045C12.5783 4.39277 12.7401 4.53149 12.8928 4.66242C12.9012 4.66966 12.9096 4.67687 12.918 4.68405L19.9769 10.7346C19.9827 10.7395 19.9886 10.7445 19.9945 10.7497C20.0801 10.823 20.1866 10.9141 20.2733 11.0025C20.3728 11.1039 20.5207 11.2733 20.6097 11.5211C20.7209 11.8307 20.7209 12.1693 20.6097 12.4789C20.5207 12.7267 20.3728 12.8961 20.2733 12.9975C20.1866 13.0859 20.0802 13.177 19.9946 13.2503C19.9886 13.2554 19.9827 13.2605 19.9769 13.2654L12.918 19.3159C12.9096 19.3231 12.9012 19.3304 12.8927 19.3376C12.7401 19.4685 12.5783 19.6072 12.4346 19.7095C12.3012 19.8045 12.0102 20.0006 11.6185 20.0103C11.1804 20.0212 10.762 19.8287 10.4852 19.4891C10.2376 19.1853 10.1972 18.8368 10.1824 18.6737C10.1666 18.498 10.1666 18.2849 10.1667 18.0838C10.1667 18.0726 10.1667 18.0616 10.1667 18.0505V15.6973C9.465 15.8355 8.78159 16.0622 8.13316 16.3732C7.02872 16.903 6.05184 17.6653 5.26944 18.6079C5.0003 18.9321 4.55681 19.0528 4.16047 18.9097C3.76413 18.7667 3.5 18.3905 3.5 17.9691V17.4591C3.50116 15.2342 4.3214 13.0871 5.80423 11.4284C6.97426 10.1196 8.49219 9.18682 10.1667 8.72895V5.94948C10.1667 5.93844 10.1667 5.92735 10.1667 5.91622C10.1666 5.71511 10.1666 5.50202 10.1824 5.32629C10.1972 5.16319 10.2376 4.81471 10.4852 4.51093ZM12.1667 6.67422V9.52886C12.1667 10.0147 11.8175 10.4302 11.339 10.5139C9.78097 10.7865 8.35498 11.576 7.29529 12.7614C6.60271 13.5361 6.09565 14.4474 5.80038 15.4266C6.26441 15.1028 6.75512 14.8161 7.2681 14.57C8.47094 13.9929 9.77121 13.6511 11.099 13.5611C11.3753 13.5423 11.6471 13.639 11.8494 13.8281C12.0518 14.0172 12.1667 14.2818 12.1667 14.5588V17.3258L18.3801 12L12.1667 6.67422ZM11.2615 18.0892L11.2626 18.0885Z"/>
  </symbol>

  <symbol id="export.icon" viewBox="0 0 24 24">
    <path fill-rule="evenodd" clip-rule="evenodd" d="M3 16C3.55228 16 4 16.4477 4 17C4 18.6567 5.34328 20 7 20H17C18.6567 20 20 18.6567 20 17C20 16.4477 20.4477 16 21 16C21.5523 16 22 16.4477 22 17C22 19.7613 19.7613 22 17 22H7C4.23872 22 2 19.7613 2 17C2 16.4477 2.44772 16 3 16Z"/>
    <path fill-rule="evenodd" clip-rule="evenodd" d="M12 18.001C12.5523 18.001 13 17.5533 13 17.001V3.001C13 2.44871 12.5523 2.001 12 2.001C11.4477 2.001 11 2.44871 11 3.001V17.001C11 17.5533 11.4477 18.001 12 18.001Z"/>
    <path fill-rule="evenodd" clip-rule="evenodd" d="M6.29199 8.70818C6.68255 9.09866 7.31572 9.0986 7.7062 8.70804L11.9991 4.41428L16.2929 8.70811C16.6834 9.09863 17.3166 9.09863 17.7071 8.70811C18.0977 8.31758 18.0977 7.68442 17.7071 7.29389L12.7061 2.29289C12.5186 2.10534 12.2642 1.99999 11.999 2C11.7337 2.00001 11.4794 2.1054 11.2918 2.29296L6.29185 7.29396C5.90136 7.68453 5.90142 8.31769 6.29199 8.70818Z"/>
  </symbol>

  <symbol id="more-horiz.icon" viewBox="0 0 24 24">
    <path d="M6 14C5.45 14 4.97917 13.8042 4.5875 13.4125C4.19583 13.0208 4 12.55 4 12C4 11.45 4.19583 10.9792 4.5875 10.5875C4.97917 10.1958 5.45 10 6 10C6.55 10 7.02083 10.1958 7.4125 10.5875C7.80417 10.9792 8 11.45 8 12C8 12.55 7.80417 13.0208 7.4125 13.4125C7.02083 13.8042 6.55 14 6 14ZM12 14C11.45 14 10.9792 13.8042 10.5875 13.4125C10.1958 13.0208 10 12.55 10 12C10 11.45 10.1958 10.9792 10.5875 10.5875C10.9792 10.1958 11.45 10 12 10C12.55 10 13.0208 10.1958 13.4125 10.5875C13.8042 10.9792 14 11.45 14 12C14 12.55 13.8042 13.0208 13.4125 13.4125C13.0208 13.8042 12.55 14 12 14ZM18 14C17.45 14 16.9792 13.8042 16.5875 13.4125C16.1958 13.0208 16 12.55 16 12C16 11.45 16.1958 10.9792 16.5875 10.5875C16.9792 10.1958 17.45 10 18 10C18.55 10 19.0208 10.1958 19.4125 10.5875C19.8042 10.9792 20 11.45 20 12C20 12.55 19.8042 13.0208 19.4125 13.4125C19.0208 13.8042 18.55 14 18 14Z"/>
  </symbol>

  <symbol id="more-vert.icon" viewBox="0 0 24 24">
    <path d="M12 20C11.45 20 10.9792 19.8042 10.5875 19.4125C10.1958 19.0208 10 18.55 10 18C10 17.45 10.1958 16.9792 10.5875 16.5875C10.9792 16.1958 11.45 16 12 16C12.55 16 13.0208 16.1958 13.4125 16.5875C13.8042 16.9792 14 17.45 14 18C14 18.55 13.8042 19.0208 13.4125 19.4125C13.0208 19.8042 12.55 20 12 20ZM12 14C11.45 14 10.9792 13.8042 10.5875 13.4125C10.1958 13.0208 10 12.55 10 12C10 11.45 10.1958 10.9792 10.5875 10.5875C10.9792 10.1958 11.45 10 12 10C12.55 10 13.0208 10.1958 13.4125 10.5875C13.8042 10.9792 14 11.45 14 12C14 12.55 13.8042 13.0208 13.4125 13.4125C13.0208 13.8042 12.55 14 12 14ZM12 8C11.45 8 10.9792 7.80417 10.5875 7.4125C10.1958 7.02083 10 6.55 10 6C10 5.45 10.1958 4.97917 10.5875 4.5875C10.9792 4.19583 11.45 4 12 4C12.55 4 13.0208 4.19583 13.4125 4.5875C13.8042 4.97917 14 5.45 14 6C14 6.55 13.8042 7.02083 13.4125 7.4125C13.0208 7.80417 12.55 8 12 8Z"/>
  </symbol>

  <symbol id="open-in-full.icon" viewBox="0 0 24 24">
    <path d="M4 21C3.71667 21 3.47917 20.9042 3.2875 20.7125C3.09583 20.5208 3 20.2833 3 20V14C3 13.7167 3.09583 13.4792 3.2875 13.2875C3.47917 13.0958 3.71667 13 4 13C4.28333 13 4.52083 13.0958 4.7125 13.2875C4.90417 13.4792 5 13.7167 5 14V17.6L17.6 5H14C13.7167 5 13.4792 4.90417 13.2875 4.7125C13.0958 4.52083 13 4.28333 13 4C13 3.71667 13.0958 3.47917 13.2875 3.2875C13.4792 3.09583 13.7167 3 14 3H20C20.2833 3 20.5208 3.09583 20.7125 3.2875C20.9042 3.47917 21 3.71667 21 4V10C21 10.2833 20.9042 10.5208 20.7125 10.7125C20.5208 10.9042 20.2833 11 20 11C19.7167 11 19.4792 10.9042 19.2875 10.7125C19.0958 10.5208 19 10.2833 19 10V6.4L6.4 19H10C10.2833 19 10.5208 19.0958 10.7125 19.2875C10.9042 19.4792 11 19.7167 11 20C11 20.2833 10.9042 20.5208 10.7125 20.7125C10.5208 20.9042 10.2833 21 10 21H4Z"/>
  </symbol>

  <symbol id="delete.icon" viewBox="0 0 24 24">
    <path fill-rule="evenodd" clip-rule="evenodd" d="M4 7C4 6.44772 4.44772 6 5 6H19C19.5523 6 20 6.44772 20 7C20 7.55228 19.5523 8 19 8H5C4.44772 8 4 7.55228 4 7Z"/>
    <path fill-rule="evenodd" clip-rule="evenodd" d="M6 6C6.55228 6 7 6.44772 7 7V18C7 18.5527 7.44728 19 8 19H16C16.5527 19 17 18.5527 17 18V7C17 6.44772 17.4477 6 18 6C18.5523 6 19 6.44772 19 7V18C19 19.6573 17.6573 21 16 21H8C6.34272 21 5 19.6573 5 18V7C5 6.44772 5.44772 6 6 6Z"/>
    <path fill-rule="evenodd" clip-rule="evenodd" d="M8 3.75C8 3.19772 8.44772 2.75 9 2.75H15C15.5523 2.75 16 3.19772 16 3.75C16 4.30228 15.5523 4.75 15 4.75H9C8.44772 4.75 8 4.30228 8 3.75Z"/>
    <path fill-rule="evenodd" clip-rule="evenodd" d="M10 10C10.5523 10 11 10.4477 11 11V16C11 16.5523 10.5523 17 10 17C9.44772 17 9 16.5523 9 16V11C9 10.4477 9.44772 10 10 10Z"/>
    <path fill-rule="evenodd" clip-rule="evenodd" d="M14 10C14.5523 10 15 10.4477 15 11V16C15 16.5523 14.5523 17 14 17C13.4477 17 13 16.5523 13 16V11C13 10.4477 13.4477 10 14 10Z"/>
  </symbol>

  <symbol id="download.icon" viewBox="0 0 24 24">
    <path fill-rule="evenodd" clip-rule="evenodd" d="M12 2C12.5523 2 13 2.44772 13 3V17C13 17.5523 12.5523 18 12 18C11.4477 18 11 17.5523 11 17V3C11 2.44772 11.4477 2 12 2Z"/>
    <path fill-rule="evenodd" clip-rule="evenodd" d="M3 16C3.55228 16 4 16.4477 4 17C4 18.6567 5.34328 20 7 20H17C18.6567 20 20 18.6567 20 17C20 16.4477 20.4477 16 21 16C21.5523 16 22 16.4477 22 17C22 19.7613 19.7613 22 17 22H7C4.23872 22 2 19.7613 2 17C2 16.4477 2.44772 16 3 16Z"/>
    <path fill-rule="evenodd" clip-rule="evenodd" d="M6.29199 11.2928C6.68255 10.9023 7.31572 10.9024 7.7062 11.293L11.9991 15.5867L16.2929 11.2929C16.6834 10.9024 17.3166 10.9024 17.7071 11.2929C18.0977 11.6834 18.0977 12.3166 17.7071 12.7071L12.7061 17.7081C12.5186 17.8957 12.2642 18.001 11.999 18.001C11.7337 18.001 11.4794 17.8956 11.2918 17.708L6.29185 12.707C5.90136 12.3165 5.90142 11.6833 6.29199 11.2928Z"/>
  </symbol>

  <symbol id="edit.icon" viewBox="0 0 24 24">
    <path fill-rule="evenodd" clip-rule="evenodd" d="M16.3255 6.0007L6.00011 16.3261L6 18H7.67378L18.0003 7.67549L16.3255 6.0007ZM14.9119 4.58588C15.6924 3.80536 16.9586 3.80536 17.7391 4.58588L19.4151 6.26188C20.1956 7.04241 20.1956 8.30857 19.4151 9.0891L9.08999 19.4122L9.08866 19.4135C8.71307 19.7904 8.20405 20 7.675 20H5C4.44772 20 4 19.5523 4 19V16.325C4 15.7958 4.20968 15.2866 4.58679 14.911L4.58778 14.91L14.9119 4.58588Z"/>
    <path fill-rule="evenodd" clip-rule="evenodd" d="M13.0429 6.45288C13.4334 6.06236 14.0666 6.06236 14.4571 6.45288L17.5471 9.54288C17.9376 9.93341 17.9376 10.5666 17.5471 10.9571C17.1566 11.3476 16.5234 11.3476 16.1329 10.9571L13.0429 7.86709C12.6524 7.47657 12.6524 6.84341 13.0429 6.45288Z"/>
  </symbol>

  <symbol id="close.icon" viewBox="0 0 24 24">
    <path d="M11.9998 13.4L7.0998 18.3C6.91647 18.4834 6.68314 18.575 6.3998 18.575C6.11647 18.575 5.88314 18.4834 5.6998 18.3C5.51647 18.1167 5.4248 17.8834 5.4248 17.6C5.4248 17.3167 5.51647 17.0834 5.6998 16.9L10.5998 12L5.6998 7.10005C5.51647 6.91672 5.4248 6.68338 5.4248 6.40005C5.4248 6.11672 5.51647 5.88338 5.6998 5.70005C5.88314 5.51672 6.11647 5.42505 6.3998 5.42505C6.68314 5.42505 6.91647 5.51672 7.0998 5.70005L11.9998 10.6L16.8998 5.70005C17.0831 5.51672 17.3165 5.42505 17.5998 5.42505C17.8831 5.42505 18.1165 5.51672 18.2998 5.70005C18.4831 5.88338 18.5748 6.11672 18.5748 6.40005C18.5748 6.68338 18.4831 6.91672 18.2998 7.10005L13.3998 12L18.2998 16.9C18.4831 17.0834 18.5748 17.3167 18.5748 17.6C18.5748 17.8834 18.4831 18.1167 18.2998 18.3C18.1165 18.4834 17.8831 18.575 17.5998 18.575C17.3165 18.575 17.0831 18.4834 16.8998 18.3L11.9998 13.4Z"/>
  </symbol>

  <symbol id="close-fullscreen.icon" viewBox="0 0 24 24">
    <path d="M9.9998 15.4L4.0998 21.3C3.91647 21.4834 3.68314 21.575 3.3998 21.575C3.11647 21.575 2.88314 21.4834 2.6998 21.3C2.51647 21.1167 2.4248 20.8834 2.4248 20.6C2.4248 20.3167 2.51647 20.0834 2.6998 19.9L8.5998 14H4.9998C4.71647 14 4.47897 13.9042 4.2873 13.7125C4.09564 13.5209 3.9998 13.2834 3.9998 13C3.9998 12.7167 4.09564 12.4792 4.2873 12.2875C4.47897 12.0959 4.71647 12 4.9998 12H10.9998C11.2831 12 11.5206 12.0959 11.7123 12.2875C11.904 12.4792 11.9998 12.7167 11.9998 13V19C11.9998 19.2834 11.904 19.5209 11.7123 19.7125C11.5206 19.9042 11.2831 20 10.9998 20C10.7165 20 10.479 19.9042 10.2873 19.7125C10.0956 19.5209 9.9998 19.2834 9.9998 19V15.4ZM15.3998 10H18.9998C19.2831 10 19.5206 10.0959 19.7123 10.2875C19.904 10.4792 19.9998 10.7167 19.9998 11C19.9998 11.2834 19.904 11.5209 19.7123 11.7125C19.5206 11.9042 19.2831 12 18.9998 12H12.9998C12.7165 12 12.479 11.9042 12.2873 11.7125C12.0956 11.5209 11.9998 11.2834 11.9998 11V5.00005C11.9998 4.71672 12.0956 4.47922 12.2873 4.28755C12.479 4.09588 12.7165 4.00005 12.9998 4.00005C13.2831 4.00005 13.5206 4.09588 13.7123 4.28755C13.904 4.47922 13.9998 4.71672 13.9998 5.00005V8.60005L19.8998 2.70005C20.0831 2.51672 20.3165 2.42505 20.5998 2.42505C20.8831 2.42505 21.1165 2.51672 21.2998 2.70005C21.4831 2.88338 21.5748 3.11672 21.5748 3.40005C21.5748 3.68338 21.4831 3.91672 21.2998 4.10005L15.3998 10Z"/>
  </symbol>

  <symbol id="copy.icon" viewBox="0 0 24 24">
    <path fill-rule="evenodd" clip-rule="evenodd" d="M6 5C6 3.34272 7.34272 2 9 2H15.457C16.2536 2 17.0153 2.31662 17.5772 2.87695L17.5781 2.87789L20.122 5.42183C20.6831 5.9844 21 6.74599 21 7.543V16C21 17.6573 19.6573 19 18 19H9C7.34272 19 6 17.6573 6 16V5ZM9 4C8.44728 4 8 4.44728 8 5V16C8 16.5527 8.44728 17 9 17H18C18.5527 17 19 16.5527 19 16V7.543C19 7.27816 18.895 7.02387 18.7063 6.83447C18.7062 6.83437 18.7064 6.83458 18.7063 6.83447L16.1648 4.29305C16.1648 4.29297 16.1649 4.29313 16.1648 4.29305C15.9767 4.10553 15.7222 4 15.457 4H9Z"/>
    <path fill-rule="evenodd" clip-rule="evenodd" d="M15 2C15.5523 2 16 2.44772 16 3V7H20C20.5523 7 21 7.44772 21 8C21 8.55228 20.5523 9 20 9H16C14.8957 9 14 8.10428 14 7V3C14 2.44772 14.4477 2 15 2Z"/>
    <path fill-rule="evenodd" clip-rule="evenodd" d="M6 7C5.44728 7 5 7.44728 5 8V19C5 19.5527 5.44728 20 6 20H15C15.5527 20 16 19.5527 16 19V18C16 17.4477 16.4477 17 17 17C17.5523 17 18 17.4477 18 18V19C18 20.6573 16.6573 22 15 22H6C4.34272 22 3 20.6573 3 19V8C3 6.34272 4.34272 5 6 5H7C7.55228 5 8 5.44772 8 6C8 6.55228 7.55228 7 7 7H6Z"/>
  </symbol>

  <symbol id="ai-magic.icon" viewBox="0 0 24 24">
    <path fill-rule="evenodd" clip-rule="evenodd" d="M18.0208 17.6569L6.70711 6.34319C6.31658 5.95266 5.68342 5.95266 5.29289 6.34319C4.90237 6.73371 4.90237 7.36688 5.29289 7.7574L16.6066 19.0711C16.9971 19.4616 17.6303 19.4616 18.0208 19.0711C18.4113 18.6806 18.4113 18.0474 18.0208 17.6569ZM3.87868 4.92897C2.70711 6.10055 2.70711 8.00004 3.87868 9.17161L15.1924 20.4853C16.364 21.6569 18.2635 21.6569 19.435 20.4853C20.6066 19.3137 20.6066 17.4143 19.435 16.2427L8.12132 4.92897C6.94975 3.7574 5.05025 3.7574 3.87868 4.92897Z"/>
    <path d="M5.29252 10.5858L9.53516 6.34317L10.9494 7.75739L6.70673 12L5.29252 10.5858Z"/>
    <path d="M21.6638 9C20.5223 9 19.2638 7.2 19.2638 6C19.2638 7.2 18.0638 9 16.8638 9C18.3038 9 19.2638 10.8 19.2638 12C19.2638 10.8 20.4638 9 21.6638 9Z"/>
    <path d="M15.6637 4C14.5222 4 13.2637 2.2 13.2637 1C13.2637 2.2 12.0637 4 10.8637 4C12.3037 4 13.2637 5.8 13.2637 7C13.2637 5.8 14.4637 4 15.6637 4Z"/>
    <path d="M9.4 18C7.87808 18 6.2 15.6 6.2 14C6.2 15.6 4.86998 18 3 18C4.92 18 6.2 20.4 6.2 22C6.2 20.4 7.72712 18 9.4 18Z"/>
  </symbol>

  <symbol id="adjust.icon" viewBox="0 0 24 24">
    <path fill-rule="evenodd" clip-rule="evenodd" d="M12.001 9.125C12.5532 9.12499 13.001 9.5727 13.001 10.125L13.0011 20.25C13.0011 20.8023 12.5534 21.25 12.0011 21.25C11.4489 21.25 11.0011 20.8023 11.0011 20.25L11.001 10.125C11.001 9.57273 11.4487 9.12501 12.001 9.125Z"/>
    <path fill-rule="evenodd" clip-rule="evenodd" d="M12.0012 2.75C12.5535 2.75003 13.0012 3.19777 13.0011 3.75006L13.001 6.37506C13.0009 6.92734 12.5532 7.37503 12.0009 7.375C11.4486 7.37497 11.0009 6.92723 11.001 6.37494L11.0011 3.74994C11.0012 3.19766 11.4489 2.74997 12.0012 2.75Z"/>
    <path fill-rule="evenodd" clip-rule="evenodd" d="M12.0009 7.375C11.5177 7.375 11.126 7.76675 11.126 8.25C11.126 8.73325 11.5177 9.125 12.001 9.125C12.4842 9.125 12.876 8.73325 12.876 8.25C12.876 7.76675 12.4842 7.375 12.0009 7.375ZM9.12598 8.25C9.12598 6.66218 10.4132 5.375 12.001 5.375C13.5888 5.375 14.876 6.66218 14.876 8.25C14.876 9.83782 13.5888 11.125 12.001 11.125C10.4132 11.125 9.12598 9.83782 9.12598 8.25Z"/>
    <path fill-rule="evenodd" clip-rule="evenodd" d="M18.7509 16.625C19.3032 16.625 19.7509 17.0727 19.751 17.6249L19.7511 20.2499C19.7511 20.8022 19.3035 21.25 18.7512 21.25C18.1989 21.25 17.7511 20.8023 17.7511 20.2501L17.751 17.6251C17.7509 17.0728 18.1986 16.625 18.7509 16.625Z"/>
    <path fill-rule="evenodd" clip-rule="evenodd" d="M18.7511 2.75C19.3034 2.75001 19.7511 3.19773 19.7511 3.75001L19.751 13.875C19.751 14.4273 19.3032 14.875 18.751 14.875C18.1987 14.875 17.751 14.4273 17.751 13.875L17.7511 3.74999C17.7511 3.1977 18.1988 2.74999 18.7511 2.75Z"/>
    <path fill-rule="evenodd" clip-rule="evenodd" d="M18.751 14.875C18.2677 14.875 17.876 15.2668 17.876 15.75C17.876 16.2332 18.2677 16.625 18.7509 16.625C19.2342 16.625 19.626 16.2332 19.626 15.75C19.626 15.2668 19.2342 14.875 18.751 14.875ZM15.876 15.75C15.876 14.1622 17.1632 12.875 18.751 12.875C20.3388 12.875 21.626 14.1622 21.626 15.75C21.626 17.3378 20.3388 18.625 18.751 18.625C17.1632 18.625 15.876 17.3378 15.876 15.75Z"/>
    <path fill-rule="evenodd" clip-rule="evenodd" d="M5.25017 13.625C5.80245 13.625 6.25016 14.0727 6.25015 14.625L6.25004 20.25C6.25003 20.8023 5.8023 21.25 5.25002 21.25C4.69774 21.25 4.25003 20.8023 4.25004 20.25L4.25015 14.625C4.25016 14.0727 4.69788 13.625 5.25017 13.625Z"/>
    <path fill-rule="evenodd" clip-rule="evenodd" d="M5.25002 2.75C5.80231 2.74999 6.25003 3.1977 6.25004 3.74998L6.25015 10.875C6.25016 11.4273 5.80245 11.875 5.25016 11.875C4.69788 11.875 4.25016 11.4273 4.25015 10.875L4.25004 3.75002C4.25003 3.19773 4.69774 2.75001 5.25002 2.75Z"/>
    <path fill-rule="evenodd" clip-rule="evenodd" d="M5.25016 11.875C4.76691 11.875 4.37598 12.2668 4.37598 12.75C4.37598 13.2332 4.76692 13.625 5.25017 13.625C5.73342 13.625 6.12598 13.2332 6.12598 12.75C6.12598 12.2668 5.73341 11.875 5.25016 11.875ZM2.37598 12.75C2.37598 11.1622 3.66316 9.875 5.25098 9.875C6.8388 9.875 8.12598 11.1622 8.12598 12.75C8.12598 14.3378 6.8388 15.625 5.25098 15.625C3.66316 15.625 2.37598 14.3378 2.37598 12.75Z"/>
  </symbol>

  <symbol id="email.icon" viewBox="0 0 24 24">
    <path fill-rule="evenodd" clip-rule="evenodd" d="M2.01514 7.551C2.01514 5.58972 3.60485 4 5.56614 4H18.4491C20.4107 4 22.0001 5.58997 22.0001 7.552C22.0001 8.72915 21.4171 9.83077 20.4406 10.4912C20.4405 10.4913 20.4407 10.4911 20.4406 10.4912L15.9353 13.5457C13.5635 15.1533 10.4519 15.1534 8.08006 13.5458L3.57418 10.4908C3.57411 10.4908 3.57426 10.4909 3.57418 10.4908C2.59853 9.82964 2.01514 8.72835 2.01514 7.551ZM4.01514 7.551C4.01514 8.06556 4.26988 8.54635 4.69609 8.83515L9.20221 11.8902C10.8964 13.0386 13.1189 13.0386 14.8131 11.8902L19.32 8.8346C19.7453 8.54702 20.0001 8.06673 20.0001 7.552C20.0001 6.69403 19.3056 6 18.4491 6H5.56614C4.70942 6 4.01514 6.69428 4.01514 7.551Z"/>
    <path fill-rule="evenodd" clip-rule="evenodd" d="M3 6.55099C3.55228 6.55099 4 6.99871 4 7.55099V17C4 18.1047 4.89528 19 6 19H18C19.1047 19 20 18.1047 20 17L20.0001 7.552C20.0001 6.99972 20.4477 6.55199 21 6.55199C21.5523 6.55199 22.0001 6.99972 22.0001 7.552L22 17C22 19.2093 20.2093 21 18 21H6C3.79072 21 2 19.2093 2 17V7.55099C2 6.99871 2.44772 6.55099 3 6.55099Z"/>
  </symbol>

  <symbol id="file-two.icon" viewBox="0 0 24 24">
    <path fill-rule="evenodd" clip-rule="evenodd" d="M4 5C4 3.34272 5.34272 2 7 2H14.172C14.9675 2 15.7308 2.31657 16.2931 2.87889L19.1211 5.70689C19.6834 6.26922 20 7.03249 20 7.828V19C20 20.6573 18.6573 22 17 22H7C5.34272 22 4 20.6573 4 19V5ZM7 4C6.44728 4 6 4.44728 6 5V19C6 19.5527 6.44728 20 7 20H17C17.5527 20 18 19.5527 18 19V7.828C18 7.56352 17.8946 7.30878 17.7069 7.12111L14.8789 4.29311C14.6912 4.10543 14.4365 4 14.172 4H7Z"/>
    <path fill-rule="evenodd" clip-rule="evenodd" d="M14 2C14.5523 2 15 2.44772 15 3V7H19C19.5523 7 20 7.44772 20 8C20 8.55228 19.5523 9 19 9H15C13.8957 9 13 8.10428 13 7V3C13 2.44772 13.4477 2 14 2Z"/>
    <path fill-rule="evenodd" clip-rule="evenodd" d="M7 11C7 10.4477 7.44772 10 8 10H14C14.5523 10 15 10.4477 15 11C15 11.5523 14.5523 12 14 12H8C7.44772 12 7 11.5523 7 11Z"/>
    <path fill-rule="evenodd" clip-rule="evenodd" d="M7 14C7 13.4477 7.44772 13 8 13H14C14.5523 13 15 13.4477 15 14C15 14.5523 14.5523 15 14 15H8C7.44772 15 7 14.5523 7 14Z"/>
    <path fill-rule="evenodd" clip-rule="evenodd" d="M7 17C7 16.4477 7.44772 16 8 16H12.33C12.8823 16 13.33 16.4477 13.33 17C13.33 17.5523 12.8823 18 12.33 18H8C7.44772 18 7 17.5523 7 17Z"/>
  </symbol>

  <symbol id="folder.icon" viewBox="0 0 24 24">
    <path d="M4 20C3.45 20 2.97917 19.8042 2.5875 19.4125C2.19583 19.0208 2 18.55 2 18V6C2 5.45 2.19583 4.97917 2.5875 4.5875C2.97917 4.19583 3.45 4 4 4H10L12 6H20C20.55 6 21.0208 6.19583 21.4125 6.5875C21.8042 6.97917 22 7.45 22 8V18C22 18.55 21.8042 19.0208 21.4125 19.4125C21.0208 19.8042 20.55 20 20 20H4ZM4 18H20V8H11.175L9.175 6H4V18Z"/>
  </symbol>

  <symbol id="image.icon" viewBox="0 0 24 24">
    <path fill-rule="evenodd" clip-rule="evenodd" d="M14.4539 10.5454C15.2195 9.77837 16.4607 9.77985 17.2259 10.5451L21.3471 14.6663C21.7377 15.0569 21.7377 15.69 21.3471 16.0805C20.9566 16.4711 20.3235 16.4711 19.9329 16.0805L15.84 11.9877L11.7471 16.0805C11.3566 16.4711 10.7235 16.4711 10.3329 16.0805C9.94241 15.69 9.94241 15.0569 10.3329 14.6663L14.4539 10.5454C14.454 10.5452 14.4537 10.5456 14.4539 10.5454Z"/>
    <path fill-rule="evenodd" clip-rule="evenodd" d="M6 4C4.89528 4 4 4.89528 4 6V18C4 19.1047 4.89529 20 6 20H18C19.1047 20 20 19.1047 20 18V6C20 4.89529 19.1047 4 18 4H6ZM2 6C2 3.79072 3.79072 2 6 2H18C20.2093 2 22 3.79071 22 6V18C22 20.2093 20.2093 22 18 22H6C3.79071 22 2 20.2093 2 18V6Z"/>
    <path fill-rule="evenodd" clip-rule="evenodd" d="M7.73374 13.4254C8.49942 12.6584 9.74055 12.6599 10.5058 13.4251L16.547 19.4663C16.9376 19.8569 16.9376 20.49 16.547 20.8806C16.1565 21.2711 15.5233 21.2711 15.1328 20.8806L9.11993 14.8677L4.49519 19.4924C4.10467 19.8829 3.4715 19.8829 3.08098 19.4924C2.69045 19.1019 2.69045 18.4687 3.08098 18.0782L7.73374 13.4254C7.73392 13.4252 7.73356 13.4256 7.73374 13.4254Z"/>
    <path fill-rule="evenodd" clip-rule="evenodd" d="M8.15847 7.69174C8.68958 7.16062 9.55069 7.16062 10.0818 7.69174C10.6129 8.22285 10.6129 9.08395 10.0818 9.61507C9.55069 10.1462 8.68958 10.1462 8.15847 9.61507C7.62736 9.08395 7.62736 8.22285 8.15847 7.69174Z"/>
  </symbol>

  <symbol id="pdf.icon" viewBox="0 0 24 24">
    <path fill-rule="evenodd" clip-rule="evenodd" d="M4 5C4 3.34272 5.34272 2 7 2H14.172C14.9675 2 15.7308 2.31657 16.2931 2.87889L19.1211 5.70689C19.6834 6.26922 20 7.03249 20 7.828V19C20 20.6573 18.6573 22 17 22H7C5.34272 22 4 20.6573 4 19V5ZM7 4C6.44728 4 6 4.44728 6 5V19C6 19.5527 6.44728 20 7 20H17C17.5527 20 18 19.5527 18 19V7.828C18 7.56352 17.8946 7.30878 17.7069 7.12111L14.8789 4.29311C14.6912 4.10543 14.4365 4 14.172 4H7Z"/>
    <path fill-rule="evenodd" clip-rule="evenodd" d="M14 2C14.5523 2 15 2.44772 15 3V7H19C19.5523 7 20 7.44772 20 8C20 8.55228 19.5523 9 19 9H15C13.8957 9 13 8.10428 13 7V3C13 2.44772 13.4477 2 14 2Z"/>
    <path fill-rule="evenodd" clip-rule="evenodd" d="M9.34 16.55C9.34 15.9977 9.78772 15.55 10.34 15.55H13.66C14.2123 15.55 14.66 15.9977 14.66 16.55C14.66 17.1023 14.2123 17.55 13.66 17.55H10.34C9.78772 17.55 9.34 17.1023 9.34 16.55Z"/>
    <path fill-rule="evenodd" clip-rule="evenodd" d="M11.833 12V12.334H12.167V12H11.833ZM9.833 11.583C9.833 10.7087 10.5417 10 11.416 10H12.584C13.4583 10 14.167 10.7087 14.167 11.583V12.751C14.167 13.6253 13.4583 14.334 12.584 14.334H11.4129C10.5428 14.3313 9.833 13.626 9.833 12.751V11.583Z"/>
    <path fill-rule="evenodd" clip-rule="evenodd" d="M9 16.666V17H9.334V16.666H9ZM7 16.249C7 15.3747 7.70872 14.666 8.583 14.666H9.751C10.6253 14.666 11.334 15.3747 11.334 16.249V17.417C11.334 18.2913 10.6253 19 9.751 19H8.583C7.70872 19 7 18.2913 7 17.417V16.249Z"/>
    <path fill-rule="evenodd" clip-rule="evenodd" d="M14.667 16.666V17H15.001V16.666H14.667ZM12.667 16.249C12.667 15.3747 13.3757 14.666 14.25 14.666H15.418C16.2923 14.666 17.001 15.3747 17.001 16.249V17.4201C16.9983 18.2914 16.2919 19 15.417 19H14.249C13.3746 19 12.667 18.2902 12.667 17.417V16.249Z"/>
    <path fill-rule="evenodd" clip-rule="evenodd" d="M12.191 12.4677C12.6563 12.17 13.2747 12.3058 13.5723 12.771L15.0823 15.131C15.38 15.5963 15.2442 16.2147 14.779 16.5123C14.3137 16.81 13.6953 16.6742 13.3977 16.209L11.8877 13.849C11.59 13.3837 11.7258 12.7653 12.191 12.4677Z"/>
    <path fill-rule="evenodd" clip-rule="evenodd" d="M11.809 12.4677C12.2742 12.7653 12.41 13.3837 12.1123 13.849L10.6023 16.209C10.3047 16.6742 9.68626 16.81 9.22105 16.5123C8.75584 16.2147 8.62001 15.5963 8.91766 15.131L10.4277 12.771C10.7253 12.3058 11.3437 12.17 11.809 12.4677Z"/>
  </symbol>

  <symbol id="text.icon" viewBox="0 0 24 24">
    <path d="M8.5 20C8.08333 20 7.72917 19.8542 7.4375 19.5625C7.14583 19.2708 7 18.9167 7 18.5V7H3.5C3.08333 7 2.72917 6.85417 2.4375 6.5625C2.14583 6.27083 2 5.91667 2 5.5C2 5.08333 2.14583 4.72917 2.4375 4.4375C2.72917 4.14583 3.08333 4 3.5 4H13.5C13.9167 4 14.2708 4.14583 14.5625 4.4375C14.8542 4.72917 15 5.08333 15 5.5C15 5.91667 14.8542 6.27083 14.5625 6.5625C14.2708 6.85417 13.9167 7 13.5 7H10V18.5C10 18.9167 9.85417 19.2708 9.5625 19.5625C9.27083 19.8542 8.91667 20 8.5 20ZM17.5 20C17.0833 20 16.7292 19.8542 16.4375 19.5625C16.1458 19.2708 16 18.9167 16 18.5V12H14.5C14.0833 12 13.7292 11.8542 13.4375 11.5625C13.1458 11.2708 13 10.9167 13 10.5C13 10.0833 13.1458 9.72917 13.4375 9.4375C13.7292 9.14583 14.0833 9 14.5 9H20.5C20.9167 9 21.2708 9.14583 21.5625 9.4375C21.8542 9.72917 22 10.0833 22 10.5C22 10.9167 21.8542 11.2708 21.5625 11.5625C21.2708 11.8542 20.9167 12 20.5 12H19V18.5C19 18.9167 18.8542 19.2708 18.5625 19.5625C18.2708 19.8542 17.9167 20 17.5 20Z"/>
  </symbol>

  <symbol id="three-d-model.icon" viewBox="0 0 24 24">
    <path fill-rule="evenodd" clip-rule="evenodd" d="M6.70689 2.87889C7.26922 2.31657 8.03248 2 8.828 2H20C21.1043 2 22 2.89572 22 4V15.172C22 15.9675 21.6834 16.7308 21.1211 17.2931L17.2931 21.1211C16.7308 21.6834 15.9675 22 15.172 22H4C2.89572 22 2 21.1043 2 20V8.828C2 8.03248 2.31657 7.26922 2.87889 6.70689L6.70689 2.87889ZM8.828 4C8.56352 4 8.30878 4.10543 8.12111 4.29311L4.29311 8.12111C4.10543 8.30878 4 8.56352 4 8.828V20H15.172C15.4365 20 15.6912 19.8946 15.8789 19.7069L19.7069 15.8789C19.8946 15.6912 20 15.4365 20 15.172V4H8.828Z"/>
    <path fill-rule="evenodd" clip-rule="evenodd" d="M8 2.18597C8.55228 2.18597 9 2.63369 9 3.18597V8.99997C9 9.55226 8.55228 9.99997 8 9.99997H3C2.44772 9.99997 2 9.55226 2 8.99997C2 8.44769 2.44772 7.99997 3 7.99997H7V3.18597C7 2.63369 7.44772 2.18597 8 2.18597Z"/>
    <path fill-rule="evenodd" clip-rule="evenodd" d="M15 15C15 14.4477 15.4477 14 16 14H21C21.5523 14 22 14.4477 22 15C22 15.5523 21.5523 16 21 16H17V20.814C17 21.3663 16.5523 21.814 16 21.814C15.4477 21.814 15 21.3663 15 20.814V15Z"/>
    <path fill-rule="evenodd" clip-rule="evenodd" d="M21.3018 2.49486C21.7299 2.84377 21.7941 3.47367 21.4452 3.90178L16.7752 9.63178C16.4262 10.0599 15.7963 10.1241 15.3682 9.77518C14.9401 9.42627 14.8759 8.79637 15.2248 8.36826L19.8948 2.63826C20.2438 2.21015 20.8737 2.14594 21.3018 2.49486Z"/>
    <path fill-rule="evenodd" clip-rule="evenodd" d="M8.63184 14.2248C9.05995 14.5738 9.12415 15.2037 8.77524 15.6318L4.10524 21.3618C3.75633 21.7899 3.12642 21.8541 2.69831 21.5052C2.27021 21.1562 2.206 20.5263 2.55492 20.0982L7.22492 14.3682C7.57383 13.9401 8.20373 13.8759 8.63184 14.2248Z"/>
    <path fill-rule="evenodd" clip-rule="evenodd" d="M7 9C7 8.44772 7.44772 8 8 8H16C16.5523 8 17 8.44772 17 9V15C17 15.5523 16.5523 16 16 16H8C7.44772 16 7 15.5523 7 15V9ZM9 10V14H15V10H9Z"/>
  </symbol>

  <symbol id="code.icon" viewBox="0 0 24 24">
    <path fill-rule="evenodd" clip-rule="evenodd" d="M13.4472 9.10557C13.9412 9.35256 14.1414 9.95323 13.8944 10.4472L11.8944 14.4472C11.6474 14.9412 11.0468 15.1414 10.5528 14.8944C10.0588 14.6474 9.85858 14.0468 10.1056 13.5528L12.1056 9.55279C12.3526 9.05881 12.9532 8.85858 13.4472 9.10557Z"/>
    <path fill-rule="evenodd" clip-rule="evenodd" d="M15.2929 9.29289C15.6834 8.90237 16.3166 8.90237 16.7071 9.29289L18.7071 11.2929C19.0976 11.6834 19.0976 12.3166 18.7071 12.7071L16.7071 14.7071C16.3166 15.0976 15.6834 15.0976 15.2929 14.7071C14.9024 14.3166 14.9024 13.6834 15.2929 13.2929L16.5858 12L15.2929 10.7071C14.9024 10.3166 14.9024 9.68342 15.2929 9.29289Z"/>
    <path fill-rule="evenodd" clip-rule="evenodd" d="M8.70711 9.29289C9.09763 9.68342 9.09763 10.3166 8.70711 10.7071L7.41421 12L8.70711 13.2929C9.09763 13.6834 9.09763 14.3166 8.70711 14.7071C8.31658 15.0976 7.68342 15.0976 7.29289 14.7071L5.29289 12.7071C4.90237 12.3166 4.90237 11.6834 5.29289 11.2929L7.29289 9.29289C7.68342 8.90237 8.31658 8.90237 8.70711 9.29289Z"/>
    <path fill-rule="evenodd" clip-rule="evenodd" d="M17.6568 6.34314C14.5327 3.21895 9.46734 3.21895 6.34315 6.34315C3.21895 9.46732 3.21895 14.5326 6.34315 17.6568C9.46732 20.781 14.5326 20.781 17.6568 17.6568C20.781 14.5327 20.781 9.46734 17.6568 6.34314ZM19.0707 4.92863C15.1655 1.02369 8.83407 1.02379 4.92893 4.92893ZM19.0707 4.92863C19.0708 4.92873 19.0706 4.92852 19.0707 4.92863C22.976 8.83387 22.9763 15.1658 19.071 19.071C15.1658 22.9763 8.83416 22.9763 4.92893 19.071C1.02369 15.1658 1.02369 8.83416 4.92893 4.92893"/>
  </symbol>

  <symbol id="video.icon" viewBox="0 0 24 24">
    <path fill-rule="evenodd" clip-rule="evenodd" d="M18.9505 7.29908C19.5675 6.91872 20.342 6.90197 20.9749 7.2553C21.6078 7.60864 22 8.27676 22 9.00161V9.00161V15.9984C22 16.7232 21.6078 17.3914 20.975 17.7447C20.3421 18.098 19.5676 18.0813 18.9506 17.701L15.4753 15.5587C15.0051 15.2689 14.8589 14.6529 15.1487 14.1827C15.4385 13.7126 16.0546 13.5664 16.5247 13.8562L20 15.9984V9.00161L16.5247 11.1438C16.0546 11.4336 15.4385 11.2874 15.1487 10.8172C14.8589 10.3471 15.0051 9.73103 15.4753 9.44123L18.9505 7.29908V7.29908Z"/>
    <path fill-rule="evenodd" clip-rule="evenodd" d="M2 9C2 6.79086 3.79086 5 6 5H13C15.2091 5 17 6.79086 17 9V16C17 18.2091 15.2091 20 13 20H6C3.79086 20 2 18.2091 2 16V9ZM6 7C4.89543 7 4 7.89543 4 9V16C4 17.1046 4.89543 18 6 18H13C14.1046 18 15 17.1046 15 16V9C15 7.89543 14.1046 7 13 7H6Z"/>
  </symbol>

  <symbol id="xcl.icon" viewBox="0 0 24 24">
    <path fill-rule="evenodd" clip-rule="evenodd" d="M8.99888 3.99609C8.44614 3.99609 7.99805 4.44418 7.99805 4.99693V6.99776C7.99805 7.55005 7.55033 7.99776 6.99805 7.99776C6.44576 7.99776 5.99805 7.55005 5.99805 6.99776V4.99693C5.99805 3.33961 7.34157 1.99609 8.99888 1.99609H19.003C20.6604 1.99609 22.0039 3.33961 22.0039 4.99693V19.0028C22.0039 20.6601 20.6604 22.0036 19.003 22.0036H8.99888C7.34157 22.0036 5.99805 20.6601 5.99805 19.0028V17.0019C5.99805 16.4496 6.44576 16.0019 6.99805 16.0019C7.55033 16.0019 7.99805 16.4496 7.99805 17.0019V19.0028C7.99805 19.5555 8.44614 20.0036 8.99888 20.0036H19.003C19.5558 20.0036 20.0039 19.5555 20.0039 19.0028V4.99693C20.0039 4.44418 19.5558 3.99609 19.003 3.99609H8.99888Z"/>
    <path fill-rule="evenodd" clip-rule="evenodd" d="M2.99658 8.9978C2.99658 7.34094 4.33973 5.9978 5.99658 5.9978H12.0008C13.6576 5.9978 15.0007 7.34095 15.0007 8.9978V15.002C15.0007 16.6588 13.6576 18.002 12.0007 18.002H5.99658C4.33972 18.002 2.99658 16.6588 2.99658 15.002V8.9978ZM5.99658 7.9978C5.4443 7.9978 4.99658 8.44552 4.99658 8.9978V15.002C4.99658 15.5543 5.4443 16.002 5.99658 16.002H12.0007C12.553 16.002 13.0007 15.5543 13.0007 15.002V8.9978C13.0007 8.44552 12.553 7.9978 12.0008 7.9978H5.99658Z"/>
    <path fill-rule="evenodd" clip-rule="evenodd" d="M13.001 9.07864C13.001 8.52635 13.4487 8.07864 14.001 8.07864H21.0039C21.5562 8.07864 22.0039 8.52635 22.0039 9.07864C22.0039 9.63092 21.5562 10.0786 21.0039 10.0786H14.001C13.4487 10.0786 13.001 9.63092 13.001 9.07864Z"/>
    <path fill-rule="evenodd" clip-rule="evenodd" d="M13.0007 15.002C13.0007 14.4497 13.4487 14.0011 14.001 14.0011H21.0039C21.5562 14.0011 22.0039 14.4488 22.0039 15.0011C22.0039 15.5534 21.5562 16.0011 21.0039 16.0011H14.001C13.4487 16.0011 13.0007 15.5543 13.0007 15.002Z"/>
    <path fill-rule="evenodd" clip-rule="evenodd" d="M14.0012 1.99609C14.5535 1.99609 15.0012 2.44381 15.0012 2.99609V21.0036C15.0012 21.5559 14.5535 22.0036 14.0012 22.0036C13.4489 22.0036 13.0012 21.5559 13.0012 21.0036V2.99609C13.0012 2.44381 13.4489 1.99609 14.0012 1.99609Z"/>
    <path fill-rule="evenodd" clip-rule="evenodd" d="M6.91464 9.48989C7.33396 9.13047 7.96526 9.17903 8.32469 9.59835L11.3259 13.0998C11.6854 13.5191 11.6368 14.1504 11.2175 14.5099C10.7981 14.8693 10.1668 14.8207 9.80742 14.4014L6.80617 10.8999C6.44675 10.4806 6.49531 9.84931 6.91464 9.48989Z"/>
    <path fill-rule="evenodd" clip-rule="evenodd" d="M11.2175 9.48989C11.6368 9.84931 11.6854 10.4806 11.3259 10.8999L8.32469 14.4014C7.96526 14.8207 7.33396 14.8693 6.91464 14.5099C6.49531 14.1504 6.44675 13.5191 6.80617 13.0998L9.80742 9.59835C10.1668 9.17903 10.7981 9.13047 11.2175 9.48989Z"/>
  </symbol>

  <symbol id="zip.icon" viewBox="0 0 24 24">
    <path fill-rule="evenodd" clip-rule="evenodd" d="M4 5C4 3.34272 5.34272 2 7 2H14.172C14.9675 2 15.7308 2.31657 16.2931 2.87889L19.1211 5.70689C19.6834 6.26922 20 7.03249 20 7.828V19C20 20.6573 18.6573 22 17 22H7C5.34272 22 4 20.6573 4 19V5ZM7 4C6.44728 4 6 4.44728 6 5V19C6 19.5527 6.44728 20 7 20H17C17.5527 20 18 19.5527 18 19V7.828C18 7.56352 17.8946 7.30878 17.7069 7.12111L14.8789 4.29311C14.6912 4.10543 14.4365 4 14.172 4H7Z"/>
    <path fill-rule="evenodd" clip-rule="evenodd" d="M14 2C14.5523 2 15 2.44772 15 3V7H19C19.5523 7 20 7.44772 20 8C20 8.55228 19.5523 9 19 9H15C13.8957 9 13 8.10428 13 7V3C13 2.44772 13.4477 2 14 2Z"/>
    <path fill-rule="evenodd" clip-rule="evenodd" d="M10.3302 5.05413C10.2282 5.01905 10.1188 5 10.0049 5C9.89098 5 9.78152 5.01905 9.67952 5.05413C9.54498 5.09992 9.41134 5.17708 9.29415 5.29427C9.0805 5.50793 8.99988 5.77626 8.99988 6.005C8.99988 6.23375 9.0805 6.50208 9.29415 6.71574C9.50781 6.92939 9.77614 7.01 10.0049 7.01C10.2336 7.01 10.502 6.92939 10.7156 6.71574C10.9293 6.50208 11.0099 6.23375 11.0099 6.005C11.0099 5.77626 10.9293 5.50793 10.7156 5.29427C10.5984 5.17708 10.4648 5.09992 10.3302 5.05413Z"/>
    <path fill-rule="evenodd" clip-rule="evenodd" d="M10.3205 8.05413C10.2185 8.01905 10.109 8 9.99512 8C9.88121 8 9.77175 8.01905 9.66975 8.05413C9.53522 8.09992 9.40158 8.17708 9.28439 8.29427C9.07073 8.50793 8.99012 8.77626 8.99012 9.005C8.99012 9.23375 9.07073 9.50208 9.28439 9.71574C9.49804 9.92939 9.76637 10.01 9.99512 10.01C10.2239 10.01 10.4922 9.92939 10.7058 9.71574C10.9195 9.50208 11.0001 9.23375 11.0001 9.005C11.0001 8.77626 10.9195 8.50793 10.7058 8.29427C10.5887 8.17708 10.455 8.09992 10.3205 8.05413Z"/>
    <path fill-rule="evenodd" clip-rule="evenodd" d="M10.3302 11.0441C10.2282 11.009 10.1188 10.99 10.0049 10.99C9.89098 10.99 9.78152 11.009 9.67952 11.0441C9.54498 11.0899 9.41134 11.1671 9.29415 11.2843C9.0805 11.4979 8.99988 11.7662 8.99988 11.995C8.99988 12.2237 9.0805 12.4921 9.29415 12.7057C9.50781 12.9194 9.77614 13 10.0049 13C10.2336 13 10.502 12.9194 10.7156 12.7057C10.9293 12.4921 11.0099 12.2237 11.0099 11.995C11.0099 11.7662 10.9293 11.4979 10.7156 11.2843C10.5984 11.1671 10.4648 11.0899 10.3302 11.0441Z"/>
    <path fill-rule="evenodd" clip-rule="evenodd" d="M10.3205 14.0541C10.2185 14.019 10.109 14 9.99512 14C9.88121 14 9.77175 14.019 9.66975 14.0541C9.53522 14.0999 9.40158 14.1771 9.28439 14.2943C9.07073 14.5079 8.99012 14.7763 8.99012 15.005C8.99012 15.2338 9.07073 15.5021 9.28439 15.7157C9.49804 15.9294 9.76637 16.01 9.99512 16.01C10.2239 16.01 10.4922 15.9294 10.7058 15.7157C10.9195 15.5021 11.0001 15.2338 11.0001 15.005C11.0001 14.7763 10.9195 14.5079 10.7058 14.2943C10.5887 14.1771 10.455 14.0999 10.3205 14.0541Z"/>
    <path fill-rule="evenodd" clip-rule="evenodd" d="M10.3302 17.0441C10.2282 17.009 10.1188 16.99 10.0049 16.99C9.89098 16.99 9.78152 17.009 9.67952 17.0441C9.54498 17.0899 9.41134 17.1671 9.29415 17.2843C9.0805 17.4979 8.99988 17.7662 8.99988 17.995C8.99988 18.2237 9.0805 18.4921 9.29415 18.7057C9.50781 18.9194 9.77614 19 10.0049 19C10.2336 19 10.502 18.9194 10.7156 18.7057C10.9293 18.4921 11.0099 18.2237 11.0099 17.995C11.0099 17.7662 10.9293 17.4979 10.7156 17.2843C10.5984 17.1671 10.4648 17.0899 10.3302 17.0441Z"/>
  </symbol>

  <symbol id="file.icon" viewBox="0 0 24 24">
    <path fill-rule="evenodd" clip-rule="evenodd" d="M4 5C4 3.34272 5.34272 2 7 2H14.172C14.9675 2 15.7308 2.31657 16.2931 2.87889L19.1211 5.70689C19.6834 6.26922 20 7.03249 20 7.828V19C20 20.6573 18.6573 22 17 22H7C5.34272 22 4 20.6573 4 19V5ZM7 4C6.44728 4 6 4.44728 6 5V19C6 19.5527 6.44728 20 7 20H17C17.5527 20 18 19.5527 18 19V7.828C18 7.56352 17.8946 7.30878 17.7069 7.12111L14.8789 4.29311C14.6912 4.10543 14.4365 4 14.172 4H7Z"/>
    <path fill-rule="evenodd" clip-rule="evenodd" d="M14 2C14.5523 2 15 2.44772 15 3V7H19C19.5523 7 20 7.44772 20 8C20 8.55228 19.5523 9 19 9H15C13.8957 9 13 8.10428 13 7V3C13 2.44772 13.4477 2 14 2Z"/>
  </symbol>

  <symbol id="lab-panel.icon" viewBox="0 0 24 24">
    <path d="M3 21C2.45 21 1.97917 20.8042 1.5875 20.4125C1.19583 20.0208 1 19.55 1 19V14C1 13.45 1.19583 12.9792 1.5875 12.5875C1.97917 12.1958 2.45 12 3 12V7.725C2.7 7.54167 2.45833 7.30417 2.275 7.0125C2.09167 6.72083 2 6.38333 2 6V5C2 4.45 2.19583 3.97917 2.5875 3.5875C2.97917 3.19583 3.45 3 4 3H9C9.55 3 10.0208 3.19583 10.4125 3.5875C10.8042 3.97917 11 4.45 11 5V6C11 6.38333 10.9083 6.72083 10.725 7.0125C10.5417 7.30417 10.3 7.54167 10 7.725V12H14V7.725C13.7 7.54167 13.4583 7.30417 13.275 7.0125C13.0917 6.72083 13 6.38333 13 6V5C13 4.45 13.1958 3.97917 13.5875 3.5875C13.9792 3.19583 14.45 3 15 3H20C20.55 3 21.0208 3.19583 21.4125 3.5875C21.8042 3.97917 22 4.45 22 5V6C22 6.38333 21.9083 6.72083 21.725 7.0125C21.5417 7.30417 21.3 7.54167 21 7.725V12C21.55 12 22.0208 12.1958 22.4125 12.5875C22.8042 12.9792 23 13.45 23 14V19C23 19.55 22.8042 20.0208 22.4125 20.4125C22.0208 20.8042 21.55 21 21 21H3ZM15 6H20V5H15V6ZM4 6H9V5H4V6ZM16 12H19V8H16V12ZM5 12H8V8H5V12ZM3 19H21V14H3V19Z"/>
  </symbol>

  <symbol id="labs.icon" viewBox="0 0 24 24">
    <path d="M12 22C10.6167 22 9.4375 21.5125 8.4625 20.5375C7.4875 19.5625 7 18.3833 7 17V8C6.45 8 5.97917 7.80417 5.5875 7.4125C5.19583 7.02083 5 6.55 5 6V4C5 3.45 5.19583 2.97917 5.5875 2.5875C5.97917 2.19583 6.45 2 7 2H17C17.55 2 18.0208 2.19583 18.4125 2.5875C18.8042 2.97917 19 3.45 19 4V6C19 6.55 18.8042 7.02083 18.4125 7.4125C18.0208 7.80417 17.55 8 17 8V17C17 18.3833 16.5125 19.5625 15.5375 20.5375C14.5625 21.5125 13.3833 22 12 22ZM7 6H17V4H7V6ZM12 20C12.65 20 13.2333 19.8125 13.75 19.4375C14.2667 19.0625 14.625 18.5833 14.825 18H12V16H15V15H12V13H15V12H12V10H15V8H9V17C9 17.8333 9.29167 18.5417 9.875 19.125C10.4583 19.7083 11.1667 20 12 20Z"/>
  </symbol>

  <symbol id="symptoms.icon" viewBox="0 0 24 24">
    <path d="M12 19C9.56667 19 7.35 18.3208 5.35 16.9625C3.35 15.6042 1.9 13.7833 1 11.5C1.9 9.21667 3.35 7.39583 5.35 6.0375C7.35 4.67917 9.56667 4 12 4C14.4333 4 16.65 4.67917 18.65 6.0375C20.65 7.39583 22.1 9.21667 23 11.5C22.9 11.75 22.7958 11.9917 22.6875 12.225C22.5792 12.4583 22.4583 12.6833 22.325 12.9L20.75 11.425C19.9 9.75833 18.6958 8.4375 17.1375 7.4625C15.5792 6.4875 13.8667 6 12 6C10.1167 6 8.3875 6.49583 6.8125 7.4875C5.2375 8.47917 4.03333 9.81667 3.2 11.5C4.03333 13.1833 5.2375 14.5208 6.8125 15.5125C8.3875 16.5042 10.1167 17 12 17C12.1833 17 12.3625 16.9958 12.5375 16.9875C12.7125 16.9792 12.8917 16.9583 13.075 16.925C13.0083 17.2583 12.975 17.6 12.975 17.95C12.975 18.3 13.0083 18.6417 13.075 18.975C12.8917 18.9917 12.7125 19 12.5375 19H12ZM12 16C10.75 16 9.6875 15.5625 8.8125 14.6875C7.9375 13.8125 7.5 12.75 7.5 11.5C7.5 10.25 7.9375 9.1875 8.8125 8.3125C9.6875 7.4375 10.75 7 12 7C13.25 7 14.3125 7.4375 15.1875 8.3125C16.0625 9.1875 16.5 10.25 16.5 11.5C16.5 11.6167 16.4958 11.7292 16.4875 11.8375C16.4792 11.9458 16.4667 12.0583 16.45 12.175L14.9 13.6C14.5833 13.9167 14.3 14.2542 14.05 14.6125C13.8 14.9708 13.5917 15.35 13.425 15.75C13.1917 15.8333 12.9583 15.8958 12.725 15.9375C12.4917 15.9792 12.25 16 12 16ZM12 14.2C12.75 14.2 13.3875 13.9375 13.9125 13.4125C14.4375 12.8875 14.7 12.25 14.7 11.5C14.7 10.75 14.4375 10.1125 13.9125 9.5875C13.3875 9.0625 12.75 8.8 12 8.8C11.25 8.8 10.6125 9.0625 10.0875 9.5875C9.5625 10.1125 9.3 10.75 9.3 11.5C9.3 12.25 9.5625 12.8875 10.0875 13.4125C10.6125 13.9375 11.25 14.2 12 14.2ZM19 22C17.8833 22 16.9375 21.6083 16.1625 20.825C15.3875 20.0417 14.9917 19.0917 14.975 17.975C14.975 17.425 15.0917 16.9 15.325 16.4C15.5583 15.9 15.875 15.4583 16.275 15.075L19 12.5L21.7 15.075C22.1 15.4583 22.4125 15.8958 22.6375 16.3875C22.8625 16.8792 22.9833 17.4 23 17.95C23 19.0833 22.6083 20.0417 21.825 20.825C21.0417 21.6083 20.1 22 19 22ZM19 20C19.55 20 20.0208 19.8 20.4125 19.4C20.8042 19 20.9917 18.5167 20.975 17.95C20.975 17.6667 20.9125 17.4 20.7875 17.15C20.6625 16.9 20.5 16.6833 20.3 16.5L19 15.25L17.675 16.5C17.475 16.6833 17.3083 16.9042 17.175 17.1625C17.0417 17.4208 16.9833 17.6917 17 17.975C17 18.5417 17.1917 19.0208 17.575 19.4125C17.9583 19.8042 18.4333 20 19 20Z"/>
  </symbol>

  <symbol id="vital-sign.icon" viewBox="0 0 24 24">
    <path d="M9 20C8.68333 20 8.4 19.9083 8.15 19.725C7.9 19.5417 7.71667 19.3083 7.6 19.025L5.3 13H1V11H6.7L9 17.1L13.6 4.975C13.7167 4.69167 13.9 4.45833 14.15 4.275C14.4 4.09167 14.6833 4 15 4C15.3167 4 15.6 4.09167 15.85 4.275C16.1 4.45833 16.2833 4.69167 16.4 4.975L18.7 11H23V13H17.3L15 6.9L10.4 19.025C10.2833 19.3083 10.1 19.5417 9.85 19.725C9.6 19.9083 9.31667 20 9 20Z"/>
  </symbol>

  <symbol id="location.icon" viewBox="0 0 24 24">
    <path fill-rule="evenodd" clip-rule="evenodd" d="M12 8C10.8953 8 10 8.89528 10 10C10 11.1047 10.8953 12 12 12C13.1047 12 14 11.1047 14 10C14 8.89528 13.1047 8 12 8ZM12 6C9.79072 6 8 7.79072 8 10C8 12.2093 9.79072 14 12 14C14.2093 14 16 12.2093 16 10C16 7.79072 14.2093 6 12 6Z"/>
    <path fill-rule="evenodd" clip-rule="evenodd" d="M12 4C8.68628 4 6 6.68628 6 10C6 12.2428 7.53285 14.7523 9.26728 16.8274C10.1108 17.8367 10.9572 18.6909 11.5936 19.2932C11.7417 19.4334 11.8781 19.5596 12 19.6706C12.1219 19.5596 12.2583 19.4334 12.4064 19.2932C13.0428 18.6909 13.8892 17.8367 14.7327 16.8274C16.4672 14.7523 18 12.2428 18 10C18 6.68628 15.3137 4 12 4ZM11.3648 21.7724L11.3626 21.7706L11.3575 21.7663L11.3396 21.7515C11.3245 21.7389 11.3029 21.7208 11.2753 21.6974C11.2201 21.6507 11.1408 21.5828 11.0407 21.4953C10.8407 21.3202 10.5575 21.0663 10.2189 20.7458C9.54281 20.106 8.63917 19.1946 7.73272 18.1101C5.96715 15.9977 4 13.0072 4 10C4 5.58172 7.58172 2 12 2C16.4183 2 20 5.58172 20 10C20 13.0072 18.0328 15.9977 16.2673 18.1101C15.3608 19.1946 14.4572 20.106 13.7811 20.7458C13.4425 21.0663 13.1593 21.3202 12.9593 21.4953C12.8592 21.5828 12.7799 21.6507 12.7247 21.6974C12.6971 21.7208 12.6755 21.7389 12.6604 21.7515L12.6425 21.7663L12.6374 21.7706L12.6357 21.7719L11.3648 21.7724ZM11.3648 21.7724C11.7337 22.0754 12.2658 22.0758 12.6347 21.7727L11.3648 21.7724Z"/>
  </symbol>

  <symbol id="magic-wand.icon" viewBox="0 0 24 24">
    <path fill-rule="evenodd" clip-rule="evenodd" d="M10.2931 3.28948C10.6835 2.8991 11.3164 2.89893 11.7069 3.28908C11.8692 3.45116 12.1321 3.45116 12.2944 3.28908C12.6849 2.89893 13.3178 2.8991 13.7082 3.28948C14.0985 3.67985 14.0987 4.31271 13.7086 4.7033C13.5465 4.86556 13.5465 5.12844 13.7086 5.2907C14.0987 5.68129 14.0985 6.31415 13.7082 6.70452C13.3178 7.09489 12.6849 7.09507 12.2944 6.70491C12.1321 6.54283 11.8692 6.54283 11.7069 6.70491C11.3164 7.09507 10.6835 7.09489 10.2931 6.70452C9.90276 6.31415 9.90258 5.68129 10.2927 5.2907C10.4548 5.12844 10.4548 4.86556 10.2927 4.7033C9.90258 4.31271 9.90276 3.67985 10.2931 3.28948Z"/>
    <path fill-rule="evenodd" clip-rule="evenodd" d="M17.2961 3.28948C17.6864 2.8991 18.3193 2.89893 18.7099 3.28908C18.8721 3.45116 19.135 3.45116 19.2973 3.28908C19.6879 2.89893 20.3207 2.8991 20.7111 3.28948C21.1015 3.67985 21.1017 4.31271 20.7115 4.7033C20.5494 4.86556 20.5494 5.12844 20.7115 5.2907C21.1017 5.68129 21.1015 6.31415 20.7111 6.70452C20.3207 7.09489 19.6879 7.09507 19.2973 6.70491C19.135 6.54283 18.8721 6.54283 18.7099 6.70491C18.3193 7.09507 17.6864 7.09489 17.2961 6.70452C16.9057 6.31415 16.9055 5.68129 17.2957 5.2907C17.4577 5.12844 17.4577 4.86556 17.2957 4.7033C16.9055 4.31271 16.9057 3.67985 17.2961 3.28948Z"/>
    <path fill-rule="evenodd" clip-rule="evenodd" d="M11.294 9.16949C12.2707 8.19279 13.854 8.194 14.83 9.16993C15.8059 10.1459 15.8071 11.7292 14.8304 12.7059L7.26599 20.2703C6.2893 21.247 4.70594 21.2458 3.73001 20.2699C2.75409 19.294 2.75288 17.7106 3.72957 16.7339L11.294 9.16949ZM13.4158 10.5841C13.2201 10.3885 12.9031 10.3888 12.7082 10.5837L5.14378 18.1481C4.94891 18.343 4.94858 18.66 5.14423 18.8557C5.33987 19.0513 5.6569 19.051 5.85178 18.8561L13.4162 11.2917C13.6111 11.0968 13.6114 10.7798 13.4158 10.5841Z"/>
    <path fill-rule="evenodd" clip-rule="evenodd" d="M17.2961 10.2924C17.6864 9.90202 18.3193 9.90184 18.7099 10.292C18.8721 10.4541 19.135 10.4541 19.2973 10.292C19.6879 9.90184 20.3207 9.90202 20.7111 10.2924C21.1015 10.6828 21.1017 11.3156 20.7115 11.7062C20.5494 11.8685 20.5494 12.1314 20.7115 12.2936C21.1017 12.6842 21.1015 13.3171 20.7111 13.7074C20.3207 14.0978 19.6879 14.098 19.2973 13.7078C19.135 13.5457 18.8721 13.5457 18.7099 13.7078C18.3193 14.098 17.6864 14.0978 17.2961 13.7074C16.9057 13.3171 16.9055 12.6842 17.2957 12.2936C17.4577 12.1314 17.4577 11.8685 17.2957 11.7062C16.9055 11.3156 16.9057 10.6828 17.2961 10.2924Z"/>
  </symbol>

  <symbol id="lock.icon" viewBox="0 0 24 24">
    <path fill-rule="evenodd" clip-rule="evenodd" d="M7 11C6.44728 11 6 11.4473 6 12V19C6 19.5527 6.44728 20 7 20H17C17.5527 20 18 19.5527 18 19V12C18 11.4473 17.5527 11 17 11H7ZM4 12C4 10.3427 5.34272 9 7 9H17C18.6573 9 20 10.3427 20 12V19C20 20.6573 18.6573 22 17 22H7C5.34272 22 4 20.6573 4 19V12Z"/>
    <path fill-rule="evenodd" clip-rule="evenodd" d="M12 4C10.3433 4 9 5.34328 9 7V10C9 10.5523 8.55228 11 8 11C7.44772 11 7 10.5523 7 10V7C7 4.23872 9.23872 2 12 2C14.7613 2 17 4.23872 17 7V10C17 10.5523 16.5523 11 16 11C15.4477 11 15 10.5523 15 10V7C15 5.34328 13.6567 4 12 4Z"/>
  </symbol>

  <symbol id="user-one.icon" viewBox="0 0 24 24">
    <path d="M5 17.85C5.9 16.9667 6.94583 16.2708 8.1375 15.7625C9.32917 15.2542 10.6167 15 12 15C13.3833 15 14.6708 15.2542 15.8625 15.7625C17.0542 16.2708 18.1 16.9667 19 17.85V5H5V17.85ZM12 13C12.9667 13 13.7917 12.6583 14.475 11.975C15.1583 11.2917 15.5 10.4667 15.5 9.5C15.5 8.53333 15.1583 7.70833 14.475 7.025C13.7917 6.34167 12.9667 6 12 6C11.0333 6 10.2083 6.34167 9.525 7.025C8.84167 7.70833 8.5 8.53333 8.5 9.5C8.5 10.4667 8.84167 11.2917 9.525 11.975C10.2083 12.6583 11.0333 13 12 13ZM5 21C4.45 21 3.97917 20.8042 3.5875 20.4125C3.19583 20.0208 3 19.55 3 19V5C3 4.45 3.19583 3.97917 3.5875 3.5875C3.97917 3.19583 4.45 3 5 3H19C19.55 3 20.0208 3.19583 20.4125 3.5875C20.8042 3.97917 21 4.45 21 5V19C21 19.55 20.8042 20.0208 20.4125 20.4125C20.0208 20.8042 19.55 21 19 21H5ZM7 19H17V18.75C16.3 18.1667 15.525 17.7292 14.675 17.4375C13.825 17.1458 12.9333 17 12 17C11.0667 17 10.175 17.1458 9.325 17.4375C8.475 17.7292 7.7 18.1667 7 18.75V19ZM12 11C11.5833 11 11.2292 10.8542 10.9375 10.5625C10.6458 10.2708 10.5 9.91667 10.5 9.5C10.5 9.08333 10.6458 8.72917 10.9375 8.4375C11.2292 8.14583 11.5833 8 12 8C12.4167 8 12.7708 8.14583 13.0625 8.4375C13.3542 8.72917 13.5 9.08333 13.5 9.5C13.5 9.91667 13.3542 10.2708 13.0625 10.5625C12.7708 10.8542 12.4167 11 12 11Z"/>
  </symbol>

  <symbol id="user-two.icon" viewBox="0 0 24 24">
    <path fill-rule="evenodd" clip-rule="evenodd" d="M9.4 16.6C7.53738 16.6 6 18.0671 6 20C6 20.5523 5.55228 21 5 21C4.44772 21 4 20.5523 4 20C4 16.9329 6.46262 14.6 9.4 14.6H14.5C17.5671 14.6 19.9 17.0626 19.9 20C19.9 20.5523 19.4523 21 18.9 21C18.3477 21 17.9 20.5523 17.9 20C17.9 18.1374 16.4329 16.6 14.5 16.6H9.4Z"/>
    <path fill-rule="evenodd" clip-rule="evenodd" d="M14.3036 5.91784C12.9885 4.69061 10.9966 4.69406 9.68536 5.9282C8.44369 7.09682 8.45159 9.15825 9.72819 10.5146C10.8968 11.7563 12.9582 11.7484 14.3146 10.4718C15.5794 9.28141 15.6144 7.23992 14.3036 5.91784ZM15.6814 4.46811C13.5963 2.5094 10.3984 2.51063 8.31463 4.4718C6.15629 6.50318 6.34839 9.84175 8.27179 11.8854C10.3032 14.0437 13.6417 13.8516 15.6854 11.9282C17.8159 9.92299 17.7854 6.57507 15.7107 4.49654C15.706 4.49175 15.7012 4.48699 15.6963 4.48226C15.6914 4.47748 15.6864 4.47277 15.6814 4.46811Z"/>
  </symbol>

  <symbol id="calendar.icon" viewBox="0 0 24 24">
    <path fill-rule="evenodd" clip-rule="evenodd" d="M16 1C16.5523 1 17 1.44772 17 2V6C17 6.55228 16.5523 7 16 7C15.4477 7 15 6.55228 15 6V2C15 1.44772 15.4477 1 16 1Z"/>
    <path fill-rule="evenodd" clip-rule="evenodd" d="M8 1C8.55228 1 9 1.44772 9 2V6C9 6.55228 8.55228 7 8 7C7.44772 7 7 6.55228 7 6V2C7 1.44772 7.44772 1 8 1Z"/>
    <path fill-rule="evenodd" clip-rule="evenodd" d="M2 9C2 8.44772 2.44772 8 3 8H21C21.5523 8 22 8.44772 22 9C22 9.55228 21.5523 10 21 10H3C2.44772 10 2 9.55228 2 9Z"/>
    <path fill-rule="evenodd" clip-rule="evenodd" d="M2 6C2 4.34272 3.34272 3 5 3H19C20.6573 3 22 4.34272 22 6V19C22 20.6573 20.6573 22 19 22H5C3.34272 22 2 20.6573 2 19V6ZM5 5C4.44728 5 4 5.44728 4 6V19C4 19.5527 4.44728 20 5 20H19C19.5527 20 20 19.5527 20 19V6C20 5.44728 19.5527 5 19 5H5Z"/>
    <path fill-rule="evenodd" clip-rule="evenodd" d="M10.264 12.9845C10.267 13.9484 11.0494 14.729 12.014 14.729C12.9804 14.729 13.764 13.9454 13.764 12.979C13.764 12.0087 12.9765 11.229 12.013 11.229C11.0505 11.229 10.2599 12.01 10.264 12.9845ZM11.764 12.979C11.763 12.841 11.875 12.729 12.013 12.729C12.1503 12.7295 12.262 12.8394 12.264 12.9754L12.264 12.979C12.264 13.117 12.152 13.229 12.014 13.229C11.8765 13.2285 11.764 13.1167 11.764 12.979Z"/>
    <path fill-rule="evenodd" clip-rule="evenodd" d="M15.264 12.9845C15.267 13.9484 16.0494 14.729 17.014 14.729C17.9804 14.729 18.764 13.9454 18.764 12.979C18.764 12.0087 17.9765 11.229 17.013 11.229C16.0505 11.229 15.2599 12.01 15.264 12.9845ZM16.764 12.979C16.763 12.841 16.875 12.729 17.013 12.729C17.1503 12.7295 17.262 12.8394 17.264 12.9754L17.264 12.979C17.264 13.117 17.152 13.229 17.014 13.229C16.8765 13.2285 16.764 13.1167 16.764 12.979Z"/>
    <path fill-rule="evenodd" clip-rule="evenodd" d="M5.26401 16.9845C5.26697 17.9484 6.04941 18.729 7.014 18.729C7.98043 18.729 8.764 17.9454 8.764 16.979C8.764 16.0087 7.97652 15.229 7.013 15.229C6.05046 15.229 5.25986 16.01 5.26401 16.9845ZM6.764 16.979C6.763 16.841 6.875 16.729 7.013 16.729L7.014 16.729C7.15132 16.7295 7.26204 16.8394 7.26397 16.9754L7.264 16.979C7.264 17.117 7.152 17.229 7.014 17.229L7.013 17.229C6.87546 17.2285 6.764 17.1167 6.764 16.979Z"/>
    <path fill-rule="evenodd" clip-rule="evenodd" d="M10.264 16.9845C10.267 17.9484 11.0494 18.729 12.014 18.729C12.9804 18.729 13.764 17.9454 13.764 16.979C13.764 16.0087 12.9765 15.229 12.013 15.229C11.0505 15.229 10.2599 16.01 10.264 16.9845ZM11.764 16.979C11.763 16.841 11.875 16.729 12.013 16.729C12.1503 16.7295 12.262 16.8394 12.264 16.9754L12.264 16.979C12.264 17.117 12.152 17.229 12.014 17.229C11.8765 17.2285 11.764 17.1167 11.764 16.979Z"/>
  </symbol>

  <symbol id="alarm.icon" viewBox="0 0 24 24">
    <path fill-rule="evenodd" clip-rule="evenodd" d="M17.0327 17.8629C17.4232 17.4724 18.0564 17.4724 18.4469 17.8629L20.7069 20.1229C21.0974 20.5134 21.0974 21.1466 20.7069 21.5371C20.3164 21.9276 19.6832 21.9276 19.2927 21.5371L17.0327 19.2771C16.6422 18.8866 16.6422 18.2534 17.0327 17.8629Z"/>
    <path fill-rule="evenodd" clip-rule="evenodd" d="M6.9669 17.8629C7.35742 18.2534 7.35742 18.8866 6.9669 19.2771L4.7069 21.5371C4.31637 21.9276 3.68321 21.9276 3.29268 21.5371C2.90216 21.1466 2.90216 20.5134 3.29268 20.1229L5.55268 17.8629C5.94321 17.4724 6.57637 17.4724 6.9669 17.8629Z"/>
    <path fill-rule="evenodd" clip-rule="evenodd" d="M9.32151 6.53486C12.8933 5.05524 16.9873 6.75093 18.4669 10.3227ZM8.55619 4.68709C13.1484 2.78479 18.4123 4.9651 20.3147 9.55728C22.217 14.1496 20.0357 19.4135 15.4445 21.3149C10.8522 23.2173 5.58818 21.0359 3.68688 16.4446C1.78464 11.8535 3.96488 6.58848 8.55619 4.68709ZM9.32151 6.53486C5.75096 8.01348 4.05502 12.1084 5.53462 15.6792C7.01332 19.2499 11.1074 20.9467 14.6791 19.4671C18.2498 17.9884 19.9465 13.8944 18.4669 10.3227"/>
    <path fill-rule="evenodd" clip-rule="evenodd" d="M11.7498 8.432C12.3021 8.432 12.7498 8.87971 12.7498 9.432V13.0056L15.5205 14.6952C15.992 14.9828 16.1411 15.5981 15.8536 16.0697C15.566 16.5412 14.9506 16.6903 14.4791 16.4028L11.2291 14.4208C10.9314 14.2392 10.7498 13.9157 10.7498 13.567V9.432C10.7498 8.87971 11.1975 8.432 11.7498 8.432Z"/>
    <path fill-rule="evenodd" clip-rule="evenodd" d="M3.33068 3.27989C4.54577 2.0648 6.26451 1.70559 7.78702 2.13805C8.31829 2.28895 8.62664 2.84196 8.47574 3.37323C8.32483 3.9045 7.77182 4.21285 7.24055 4.06195C6.36914 3.81443 5.41396 4.02516 4.74506 4.69394C4.74501 4.69399 4.74512 4.69388 4.74506 4.69394M4.74506 4.69394C4.16946 5.27053 3.93405 6.05996 4.03613 6.83069C4.10865 7.3782 3.7236 7.88082 3.17609 7.95334C2.62859 8.02586 2.12596 7.6408 2.05345 7.0933C1.87556 5.75023 2.2846 4.32726 3.33068 3.27989"/>
    <path fill-rule="evenodd" clip-rule="evenodd" d="M19.2667 4.6941C18.5977 4.02509 17.6434 3.81445 16.772 4.06195C16.2408 4.21285 15.6877 3.9045 15.5368 3.37323C15.3859 2.84196 15.6943 2.28895 16.2256 2.13805C17.7482 1.70555 19.4659 2.0649 20.6809 3.27989C21.7284 4.32736 22.137 5.75015 21.9591 7.0933C21.8866 7.6408 21.384 8.02586 20.8365 7.95334C20.289 7.88082 19.9039 7.3782 19.9764 6.83069C20.0785 6.05985 19.8432 5.27063 19.2667 4.6941Z"/>
  </symbol>

  <symbol id="list.icon" viewBox="0 0 24 24">
    <path fill-rule="evenodd" clip-rule="evenodd" d="M11 5C11 4.44772 11.4477 4 12 4H20C20.5523 4 21 4.44772 21 5C21 5.55228 20.5523 6 20 6H12C11.4477 6 11 5.55228 11 5Z"/>
    <path fill-rule="evenodd" clip-rule="evenodd" d="M11 12C11 11.4477 11.4477 11 12 11H20C20.5523 11 21 11.4477 21 12C21 12.5523 20.5523 13 20 13H12C11.4477 13 11 12.5523 11 12Z"/>
    <path fill-rule="evenodd" clip-rule="evenodd" d="M11 19C11 18.4477 11.4477 18 12 18H20C20.5523 18 21 18.4477 21 19C21 19.5523 20.5523 20 20 20H12C11.4477 20 11 19.5523 11 19Z"/>
    <path fill-rule="evenodd" clip-rule="evenodd" d="M6 4C5.44772 4 5 4.44772 5 5C5 5.55228 5.44772 6 6 6C6.55228 6 7 5.55228 7 5C7 4.44772 6.55228 4 6 4ZM3 5C3 3.34315 4.34315 2 6 2C7.65685 2 9 3.34315 9 5C9 6.65685 7.65685 8 6 8C4.34315 8 3 6.65685 3 5Z"/>
    <path fill-rule="evenodd" clip-rule="evenodd" d="M6 11C5.44772 11 5 11.4477 5 12C5 12.5523 5.44772 13 6 13C6.55228 13 7 12.5523 7 12C7 11.4477 6.55228 11 6 11ZM3 12C3 10.3431 4.34315 9 6 9C7.65685 9 9 10.3431 9 12C9 13.6569 7.65685 15 6 15C4.34315 15 3 13.6569 3 12Z"/>
    <path fill-rule="evenodd" clip-rule="evenodd" d="M6 18C5.44772 18 5 18.4477 5 19C5 19.5523 5.44772 20 6 20C6.55228 20 7 19.5523 7 19C7 18.4477 6.55228 18 6 18ZM3 19C3 17.3431 4.34315 16 6 16C7.65685 16 9 17.3431 9 19C9 20.6569 7.65685 22 6 22C4.34315 22 3 20.6569 3 19Z"/>
  </symbol>

  <symbol id="bot.icon" viewBox="0 0 24 24">
    <path fill-rule="evenodd" clip-rule="evenodd" d="M12.6316 3.3574C13.0091 3.13899 13.2632 2.73076 13.2632 2.2632C13.2632 1.56555 12.6976 1 12 1C11.3024 1 10.7368 1.56555 10.7368 2.2632C10.7368 2.73076 10.9909 3.13899 11.3684 3.3574V4.78959H7.57895C3.39321 4.78959 0 8.1829 0 12.3688C0 16.5546 3.39321 19.9479 7.57895 19.9479H12.9474C15.1579 19.9479 13.5789 23.487 12.9474 23.8354C17.2336 22.7139 20.8367 19.9036 23.0032 16.1584H22.9861C23.6309 15.0436 24 13.7493 24 12.3688C24 8.1829 20.6068 4.78959 16.4211 4.78959H12.6316V3.3574ZM7.57895 6.05279C4.09083 6.05279 1.26316 8.88055 1.26316 12.3688C1.26316 15.857 4.09083 18.6847 7.57895 18.6847H16.4211C19.9092 18.6847 22.7368 15.857 22.7368 12.3688C22.7368 8.88055 19.9092 6.05279 16.4211 6.05279H7.57895ZM3.15789 12.3688C3.15789 9.92701 5.13727 7.94758 7.57895 7.94758H16.4211C18.8627 7.94758 20.8421 9.92701 20.8421 12.3688C20.8421 14.8105 18.8627 16.79 16.4211 16.79H7.57895C5.13727 16.79 3.15789 14.8105 3.15789 12.3688ZM9.47368 12.3688C9.47368 13.0664 8.90815 13.632 8.21053 13.632C7.5129 13.632 6.94737 13.0664 6.94737 12.3688C6.94737 11.6711 7.5129 11.1056 8.21053 11.1056C8.90815 11.1056 9.47368 11.6711 9.47368 12.3688ZM15.7895 13.632C16.4871 13.632 17.0526 13.0664 17.0526 12.3688C17.0526 11.6711 16.4871 11.1056 15.7895 11.1056C15.0919 11.1056 14.5263 11.6711 14.5263 12.3688C14.5263 13.0664 15.0919 13.632 15.7895 13.632Z" />
  </symbol>

  <symbol id="contents.icon" viewBox="0 0 24 24">
    <path fill-rule="evenodd" clip-rule="evenodd" d="M7.7587 1H16.2413H16.2414C17.0464 0.999991 17.7106 0.999983 18.2518 1.04419C18.8139 1.09012 19.3306 1.18868 19.816 1.43597C20.5686 1.81947 21.1805 2.43139 21.564 3.18404C21.8113 3.66937 21.9099 4.18608 21.9558 4.74817C22 5.28936 22 5.95372 22 6.75868V21C22 21.5523 21.5523 22 21 22C20.4477 22 20 21.5523 20 21V6.8C20 5.94342 19.9992 5.36113 19.9624 4.91104C19.9266 4.47262 19.8617 4.24842 19.782 4.09202C19.5903 3.7157 19.2843 3.40973 18.908 3.21799C18.7516 3.1383 18.5274 3.07337 18.089 3.03755C17.6389 3.00078 17.0566 3 16.2 3H7.8C6.94342 3 6.36113 3.00078 5.91104 3.03755C5.47262 3.07337 5.24842 3.1383 5.09202 3.21799C4.7157 3.40973 4.40973 3.7157 4.21799 4.09202C4.1383 4.24842 4.07337 4.47262 4.03755 4.91104C4.00078 5.36113 4 5.94342 4 6.8V20.9587C3.84509 22.1269 2.15491 22.1269 2 20.9587V6.7587V6.75859V6.75858C1.99999 5.95367 1.99998 5.28934 2.04419 4.74818C2.09012 4.18608 2.18868 3.66937 2.43597 3.18404C2.81947 2.43139 3.43139 1.81947 4.18404 1.43597C4.66937 1.18868 5.18608 1.09012 5.74817 1.04419C6.28935 0.999983 6.95367 0.999991 7.75859 1H7.7587ZM6 7C6 6.4477 6.44772 6 7 6H17C17.5523 6 18 6.4477 18 7C18 7.5523 17.5523 8 17 8H7C6.44772 8 6 7.5523 6 7ZM7 11C6.44772 11 6 11.4477 6 12C6 12.5523 6.44772 13 7 13H17C17.5523 13 18 12.5523 18 12C18 11.4477 17.5523 11 17 11H7ZM7 16C6.44772 16 6 16.4477 6 17C6 17.5523 6.44772 18 7 18H17C17.5523 18 18 17.5523 18 17C18 16.4477 17.5523 16 17 16H7Z"/>
  </symbol>

  <symbol id="settings.icon" viewBox="0 0 24 24">
    <path fill-rule="evenodd" clip-rule="evenodd" d="M12.0002 14C13.1048 14 14.0002 13.1046 14.0002 12C14.0002 10.8954 13.1048 10 12.0002 10C10.8957 10 10.0002 10.8954 10.0002 12C10.0002 13.1046 10.8957 14 12.0002 14ZM12.0002 16C14.2094 16 16.0002 14.2091 16.0002 12C16.0002 9.79086 14.2094 8 12.0002 8C9.79109 8 8.00022 9.79086 8.00022 12C8.00022 14.2091 9.79109 16 12.0002 16Z" fill="#191A1D"/>
    <path fill-rule="evenodd" clip-rule="evenodd" d="M21.9519 13.7802C21.9553 13.7836 21.9587 13.787 21.9621 13.7904C21.9689 13.7971 21.9757 13.8037 21.9825 13.8103C22.7055 14.504 23.4627 15.9426 22.6943 17.4484C22.4922 17.8444 22.2688 18.2275 22.0258 18.5963C21.0128 20.1334 19.222 20.057 18.2419 19.6685C18.1702 19.6401 18.0955 19.6152 18.0177 19.5944C16.9508 19.3085 15.8541 19.9417 15.5682 21.0086C15.5474 21.0862 15.5316 21.1632 15.5204 21.2393C15.3663 22.2837 14.5343 23.8751 12.6936 23.9802C12.4639 23.9934 12.2327 24 12.0001 24C11.7896 24 11.5802 23.9946 11.3721 23.9838C9.68476 23.8966 8.81641 22.5232 8.57642 21.5493C8.57309 21.5357 8.56961 21.5222 8.56597 21.5086C8.28009 20.4417 7.18341 19.8085 6.11648 20.0944C6.06006 20.1095 6.00526 20.1268 5.9521 20.1459C5.01209 20.4845 3.38985 20.5266 2.37973 19.1738C1.82309 18.4283 1.35062 17.6153 0.976912 16.7488C0.307076 15.1957 1.15734 13.8098 1.92077 13.1654C1.96417 13.1288 2.0067 13.0897 2.04822 13.0482C2.82927 12.2672 2.82927 11.0008 2.04822 10.2198C2.03805 10.2096 2.02783 10.1996 2.01756 10.1897C1.29457 9.49602 0.537418 8.05744 1.30583 6.55167C1.50793 6.15563 1.73129 5.77247 1.97435 5.40367C2.98733 3.86663 4.77818 3.94297 5.75828 4.33149C5.82995 4.3599 5.90466 4.38474 5.98242 4.40558C7.04936 4.69146 8.14603 4.0583 8.43191 2.99136C8.45271 2.91376 8.46853 2.8368 8.47976 2.76068C8.6338 1.71625 9.46583 0.124935 11.3065 0.0197664C11.5362 0.00664055 11.7675 0 12.0001 0C12.2106 0 12.42 0.00544119 12.6283 0.0162084C14.3155 0.103464 15.1839 1.47683 15.4239 2.45071C15.4272 2.46423 15.4307 2.47777 15.4343 2.49135C15.7202 3.55828 16.8169 4.19145 17.8838 3.90557C17.9402 3.89045 17.995 3.87324 18.0481 3.85409C18.9881 3.51556 20.6103 3.47347 21.6204 4.82622C22.1771 5.57167 22.6495 6.38467 23.0232 7.25116C23.6931 8.80429 22.8428 10.1902 22.0793 10.8346C22.0359 10.8713 21.9934 10.9103 21.9519 10.9518C21.1708 11.7329 21.1708 12.9992 21.9519 13.7802ZM18.7258 5.73579C19.1848 5.57049 19.726 5.63195 20.0179 6.02283C20.4821 6.64446 20.8756 7.32188 21.1867 8.04321C21.3801 8.49148 21.1624 8.9914 20.7893 9.30629C20.703 9.37915 20.619 9.45625 20.5377 9.53759C18.9756 11.0997 18.9756 13.6323 20.5377 15.1944C20.5576 15.2144 20.5776 15.234 20.5979 15.2534C20.9501 15.5914 21.1347 16.1045 20.9128 16.5393C20.7445 16.8691 20.5584 17.1883 20.3558 17.4958C20.0653 17.9365 19.4696 18.0038 18.9789 17.8093C18.8357 17.7525 18.6877 17.7034 18.5353 17.6626C16.4015 17.0908 14.2081 18.3571 13.6364 20.491C13.5956 20.6431 13.5642 20.7954 13.5418 20.9475C13.4646 21.4705 13.1074 21.9533 12.5795 21.9835C12.3878 21.9944 12.1946 22 12.0001 22C11.8241 22 11.6491 21.9955 11.4753 21.9865C10.9876 21.9613 10.6352 21.5449 10.5183 21.0708C10.5118 21.0442 10.5049 21.0176 10.4978 20.991C9.92605 18.8571 7.73271 17.5908 5.59884 18.1626C5.48832 18.1922 5.38012 18.2261 5.27438 18.2642C4.81541 18.4295 4.27414 18.3681 3.98226 17.9772C3.51808 17.3556 3.1245 16.6781 2.81339 15.9568C2.62006 15.5085 2.83778 15.0086 3.21082 14.6937C3.29714 14.6208 3.3811 14.5438 3.46243 14.4624C5.02453 12.9003 5.02453 10.3677 3.46243 8.80557C3.44253 8.78567 3.42248 8.76602 3.40227 8.74663C3.05003 8.40866 2.86539 7.89557 3.08728 7.46076C3.2556 7.13092 3.44169 6.81166 3.64429 6.50425C3.93479 6.06347 4.53052 5.99621 5.02126 6.19074C5.16444 6.2475 5.3124 6.2966 5.46479 6.33743C7.59865 6.9092 9.792 5.64287 10.3638 3.509C10.4045 3.35694 10.4359 3.20457 10.4584 3.05251C10.5355 2.52945 10.8927 2.04667 11.4206 2.01651C11.6124 2.00555 11.8056 2 12.0001 2C12.1761 2 12.3511 2.00455 12.525 2.01354C13.0127 2.03876 13.3651 2.45508 13.4819 2.92924C13.4885 2.95583 13.4953 2.98242 13.5025 3.00899C14.0742 5.14285 16.2676 6.40918 18.4014 5.83742C18.5119 5.80781 18.6201 5.77385 18.7258 5.73579Z" fill="#191A1D"/>
  </symbol>

  <symbol id="box.icon" viewBox="0 0 50 50">
    <path d="M44.0982 16.5468L49.5858 11.0146C49.7482 10.8508 49.8239 10.6201 49.7903 10.392C49.7566 10.1638 49.6175 9.96475 49.4148 9.85488L31.3976 0.0894531C31.1125 -0.0649414 30.7599 -0.0138672 30.5307 0.21543L24.9995 5.74658L19.4688 0.21582C19.3311 0.0771484 19.1465 0 18.9522 0C18.8301 0 18.71 0.0311523 18.6025 0.0898438L12.8155 3.22539C12.6437 3.31914 12.5187 3.47344 12.463 3.66094C12.4073 3.84844 12.4278 4.04668 12.5206 4.21855C12.6495 4.45488 12.8966 4.60244 13.1651 4.60244C13.2862 4.60244 13.4073 4.57119 13.5138 4.51357L18.8193 1.6377L23.787 6.60537L7.06769 15.6423L2.142 10.6765L10.9377 5.90908C11.1106 5.81631 11.2356 5.66201 11.2912 5.47451C11.3469 5.28701 11.3264 5.08877 11.2326 4.91689C11.1047 4.68057 10.8576 4.53311 10.5891 4.53311C10.468 4.53311 10.3479 4.56426 10.2404 4.62187L0.585362 9.85527C0.383214 9.96357 0.242589 10.1648 0.209386 10.3924C0.176182 10.6188 0.252452 10.8513 0.414464 11.0145L5.90147 16.547L0.414073 22.079C0.251671 22.2429 0.175889 22.4735 0.209483 22.7017C0.243175 22.9299 0.382335 23.1289 0.585069 23.2388L6.20157 26.2829V39.5001C6.20148 39.5254 6.20274 39.5506 6.20528 39.5755C6.20636 39.5861 6.20841 39.5965 6.20987 39.607C6.21173 39.6198 6.21319 39.6326 6.21573 39.6452C6.21886 39.6611 6.22316 39.6766 6.22726 39.6921C6.22921 39.6992 6.23067 39.7064 6.23282 39.7136C6.23761 39.7293 6.24337 39.7446 6.24913 39.7601C6.25167 39.7669 6.25382 39.7738 6.25665 39.7806C6.26231 39.7944 6.26886 39.8076 6.2753 39.8209C6.27931 39.8292 6.28292 39.8375 6.28722 39.8456C6.29308 39.8565 6.29962 39.867 6.30587 39.8775C6.31192 39.8876 6.31769 39.8978 6.32413 39.9076C6.3295 39.9157 6.33556 39.9234 6.34132 39.9313C6.34962 39.9428 6.35782 39.9544 6.36681 39.9655C6.37179 39.9717 6.37735 39.9773 6.38253 39.9833C6.39288 39.9952 6.40323 40.0071 6.41437 40.0184C6.42013 40.0241 6.42648 40.0294 6.43243 40.0352C6.44357 40.0456 6.4545 40.0562 6.46632 40.0659C6.47774 40.0754 6.48985 40.084 6.50177 40.0927C6.5088 40.0979 6.51534 40.1033 6.52257 40.1083C6.54356 40.1225 6.56534 40.1356 6.5878 40.1478L24.6479 49.9101C24.6738 49.9243 24.701 49.9366 24.7288 49.9478C24.7349 49.9501 24.741 49.9522 24.7472 49.9544C24.7675 49.9619 24.7881 49.9686 24.8093 49.9741C24.8169 49.9762 24.8244 49.9782 24.832 49.98C24.8525 49.9848 24.8733 49.9886 24.8944 49.9916C24.9017 49.9926 24.9087 49.9939 24.9159 49.9948C24.9435 49.9979 24.9714 50 24.9998 50C25.0282 50 25.0562 49.9979 25.0837 49.9948C25.0909 49.9939 25.0981 49.9926 25.1053 49.9916C25.1264 49.9886 25.1472 49.9848 25.1676 49.98C25.1752 49.9782 25.1828 49.9762 25.1903 49.9741C25.2114 49.9685 25.2321 49.9619 25.2524 49.9544C25.2585 49.9522 25.2647 49.9501 25.2707 49.9478C25.2984 49.9366 25.3256 49.9243 25.3516 49.9101L43.4116 40.1478C43.4341 40.1356 43.4559 40.1225 43.4769 40.1083C43.4841 40.1033 43.4907 40.0978 43.4977 40.0927C43.5097 40.0839 43.5218 40.0753 43.5331 40.0659C43.5449 40.0562 43.5559 40.0456 43.567 40.0352C43.573 40.0294 43.5793 40.0242 43.5851 40.0184C43.5962 40.0071 43.6066 39.9952 43.6169 39.9833C43.6221 39.9773 43.6276 39.9717 43.6326 39.9655C43.6416 39.9545 43.6498 39.9429 43.6581 39.9313C43.6639 39.9234 43.6699 39.9157 43.6753 39.9076C43.6817 39.8978 43.6875 39.8877 43.6936 39.8775C43.6999 39.867 43.7065 39.8565 43.7122 39.8456C43.7165 39.8375 43.7201 39.8292 43.7241 39.8209C43.7306 39.8076 43.7371 39.7944 43.7428 39.7806C43.7456 39.7738 43.7478 39.7669 43.7503 39.7601C43.7561 39.7447 43.7618 39.7294 43.7666 39.7136C43.7688 39.7065 43.7702 39.6993 43.7722 39.6921C43.7763 39.6766 43.7806 39.6611 43.7837 39.6452C43.7862 39.6326 43.7877 39.6198 43.7896 39.607C43.791 39.5965 43.7932 39.5861 43.7941 39.5755C43.7967 39.5505 43.798 39.5253 43.7979 39.5001V26.2829L49.4141 23.2389C49.6162 23.1295 49.7568 22.9283 49.79 22.7018C49.8232 22.4742 49.7471 22.2418 49.5859 22.0787L44.0982 16.5468ZM31.18 1.63779L47.8574 10.677L42.9318 15.6426L26.2127 6.60508L31.18 1.63779ZM7.27979 25.2013L2.1423 22.4167L7.06788 17.4511L23.7871 26.4886L18.8197 31.4559L7.28605 25.2046C7.28399 25.2034 7.28194 25.2023 7.27979 25.2013ZM24.2675 48.0392L7.66632 39.0654V27.0769L18.6023 33.0042C18.7121 33.0637 18.832 33.0927 18.951 33.0927C19.1407 33.0927 19.3282 33.019 19.4692 32.8782L24.2675 28.0799V48.0392ZM24.9999 25.479L8.47579 16.547L25.0003 7.61484L41.5244 16.5469L24.9999 25.479ZM42.7229 25.1998C42.7189 25.2019 42.715 25.204 42.711 25.2062L39.0621 27.184C38.8893 27.2768 38.7643 27.432 38.7086 27.6195C38.6529 27.8071 38.6734 28.0053 38.7662 28.1772C38.8951 28.4136 39.1422 28.5601 39.4107 28.5601C39.5318 28.5601 39.6529 28.5297 39.7594 28.4722L42.3334 27.077V39.0656L25.7323 48.0393V28.0795L30.5311 32.8782C30.6698 33.0169 30.8533 33.0931 31.0486 33.0931C31.1697 33.0931 31.2899 33.0618 31.3973 33.0042L37.1843 29.8676C37.3562 29.7748 37.4812 29.6195 37.5368 29.432C37.5925 29.2445 37.572 29.0473 37.4792 28.8754C37.3503 28.6381 37.1032 28.4916 36.8337 28.4916C36.7136 28.4916 36.5925 28.5219 36.486 28.5805L31.1805 31.4553L26.2128 26.4887L42.9322 17.4507L47.8579 22.4165L42.7229 25.1998Z"/>
  </symbol>

  <symbol id="logout.icon" viewBox="0 0 24 24">
    <path d="M3.125 5C3.125 3.34315 4.46815 2 6.125 2H13.125C13.6773 2 14.125 2.44772 14.125 3C14.125 3.55228 13.6773 4 13.125 4H6.125C5.57272 4 5.125 4.44772 5.125 5V19C5.125 19.5523 5.57272 20 6.125 20H13.125C13.6773 20 14.125 20.4477 14.125 21C14.125 21.5523 13.6773 22 13.125 22H6.125C4.46815 22 3.125 20.6569 3.125 19V5ZM16.3554 7.35539C16.7459 6.96487 17.3791 6.96487 17.7696 7.35539L21.7066 11.2924C21.7069 11.2927 21.7073 11.2931 21.7076 11.2934L22.4142 12L21.7076 12.7066C21.7073 12.7069 21.7069 12.7073 21.7066 12.7076L17.7696 16.6446C17.3791 17.0351 16.7459 17.0351 16.3554 16.6446C15.9649 16.2541 15.9649 15.6209 16.3554 15.2304L18.5858 13H10.3125C9.76022 13 9.3125 12.5523 9.3125 12C9.3125 11.4477 9.76022 11 10.3125 11H18.5858L16.3554 8.76961C15.9649 8.37908 15.9649 7.74592 16.3554 7.35539Z" />
  </symbol>

  <symbol id="thumb-down.icon" viewBox="0 0 20 20">
    <path d="M2.5 13.0003C2.125 13.0003 1.78125 12.8441 1.46875 12.5316C1.15625 12.2191 1 11.8753 1 11.5003V10.3128C1 10.2017 1.01042 10.0975 1.03125 10.0003C1.05208 9.9031 1.08333 9.81283 1.125 9.72949L3.60417 3.91699C3.72917 3.62533 3.96181 3.39616 4.30208 3.22949C4.64236 3.06283 4.97222 2.97949 5.29167 2.97949L14.5 3.00033V13.0003L9.625 17.8753C9.36111 18.1392 9.05903 18.3094 8.71875 18.3857C8.37847 18.4621 8.07292 18.4239 7.80208 18.2712C7.53125 18.1184 7.35764 17.8719 7.28125 17.5316C7.20486 17.1913 7.20833 16.8198 7.29167 16.417L8 13.0003H2.5ZM13 12.3753V4.50033H5L2.5 10.3128V11.5003H9.83333L8.8125 16.542L13 12.3753ZM17.5 3.00033C17.9306 3.00033 18.2882 3.1472 18.5729 3.44095C18.8576 3.7347 19 4.08783 19 4.50033V11.5003C19 11.9128 18.8576 12.266 18.5729 12.5597C18.2882 12.8535 17.9306 13.0003 17.5 13.0003H14.5V11.5003H17.5V4.50033H14.5V3.00033H17.5Z" fill="black"/>
  </symbol>

  <symbol id="thumb-up.icon" viewBox="0 0 20 20">
    <path d="M17.5 6.97928C17.875 6.97928 18.2188 7.13553 18.5312 7.44803C18.8438 7.76053 19 8.10428 19 8.47928V9.66678C19 9.77789 18.9896 9.88205 18.9688 9.97928C18.9479 10.0765 18.9167 10.1668 18.875 10.2501L16.3958 16.0626C16.2708 16.3543 16.0382 16.5834 15.6979 16.7501C15.3576 16.9168 15.0278 17.0001 14.7083 17.0001L5.5 16.9793V6.97928L10.375 2.10428C10.6389 1.84039 10.941 1.67025 11.2812 1.59386C11.6215 1.51747 11.9271 1.55566 12.1979 1.70844C12.4688 1.86122 12.6424 2.10775 12.7188 2.44803C12.7951 2.7883 12.7917 3.15983 12.7083 3.56261L12 6.97928H17.5ZM7 7.60428V15.4793H15L17.5 9.66678V8.47928H10.1667L11.1875 3.43761L7 7.60428ZM2.5 16.9793C2.06944 16.9793 1.71181 16.8324 1.42708 16.5387C1.14236 16.2449 1 15.8918 1 15.4793V8.47928C1 8.06678 1.14236 7.71365 1.42708 7.4199C1.71181 7.12615 2.06944 6.97928 2.5 6.97928H5.5V8.47928H2.5V15.4793H5.5V16.9793H2.5Z" fill="black"/>
  </symbol>

  <symbol id="thumb-down-filled.icon" viewBox="0 0 20 20">
    <path d="M2.5 13C2.125 13 1.78125 12.8472 1.46875 12.5417C1.15625 12.2361 1 11.8889 1 11.5V10.3125C1 10.2014 1.01042 10.1007 1.03125 10.0104C1.05208 9.92014 1.08333 9.82639 1.125 9.72917L3.60417 3.91667C3.71528 3.63889 3.89583 3.41667 4.14583 3.25C4.39583 3.08333 4.68056 3 5 3H13C13.4167 3 13.7708 3.14236 14.0625 3.42708C14.3542 3.71181 14.5 4.06944 14.5 4.5V12.375C14.5 12.5833 14.4583 12.7812 14.375 12.9688C14.2917 13.1562 14.1806 13.3194 14.0417 13.4583L9.85417 17.6458C9.60417 17.8958 9.29861 18.0556 8.9375 18.125C8.57639 18.1944 8.27083 18.1528 8.02083 18C7.70139 17.8194 7.49653 17.5556 7.40625 17.2083C7.31597 16.8611 7.30556 16.5208 7.375 16.1875L8 13H2.5ZM17.5 3C17.9028 3 18.2535 3.14931 18.5521 3.44792C18.8507 3.74653 19 4.09722 19 4.5V11.5C19 11.9028 18.8507 12.2535 18.5521 12.5521C18.2535 12.8507 17.9028 13 17.5 13C17.0972 13 16.7465 12.8507 16.4479 12.5521C16.1493 12.2535 16 11.9028 16 11.5V4.5C16 4.09722 16.1493 3.74653 16.4479 3.44792C16.7465 3.14931 17.0972 3 17.5 3Z" fill="#F44336"/>
  </symbol>

  <symbol id="thumb-up-filled.icon" viewBox="0 0 20 20">
    <path d="M17.5 7.00033C17.875 7.00033 18.2188 7.1531 18.5312 7.45866C18.8438 7.76421 19 8.11144 19 8.50033V9.68783C19 9.79894 18.9896 9.89963 18.9688 9.98991C18.9479 10.0802 18.9167 10.1739 18.875 10.2712L16.3958 16.0837C16.2847 16.3614 16.1042 16.5837 15.8542 16.7503C15.6042 16.917 15.3194 17.0003 15 17.0003H7C6.58333 17.0003 6.22917 16.858 5.9375 16.5732C5.64583 16.2885 5.5 15.9309 5.5 15.5003V7.62533C5.5 7.41699 5.54167 7.21908 5.625 7.03158C5.70833 6.84408 5.81944 6.68088 5.95833 6.54199L10.1458 2.35449C10.3958 2.10449 10.7014 1.94477 11.0625 1.87533C11.4236 1.80588 11.7292 1.84755 11.9792 2.00033C12.2986 2.18088 12.5035 2.44477 12.5938 2.79199C12.684 3.13921 12.6944 3.47949 12.625 3.81283L12 7.00033H17.5ZM2.5 17.0003C2.09722 17.0003 1.74653 16.851 1.44792 16.5524C1.14931 16.2538 1 15.9031 1 15.5003V8.50033C1 8.09755 1.14931 7.74685 1.44792 7.44824C1.74653 7.14963 2.09722 7.00033 2.5 7.00033C2.90278 7.00033 3.25347 7.14963 3.55208 7.44824C3.85069 7.74685 4 8.09755 4 8.50033V15.5003C4 15.9031 3.85069 16.2538 3.55208 16.5524C3.25347 16.851 2.90278 17.0003 2.5 17.0003Z" fill="#1184E9"/>
  </symbol>

  <symbol id="send.icon" viewBox="0 0 24 24">
    <path d="M2 19.4835C2 20.2014 2.73405 20.6854 3.39392 20.4026L20.8553 12.9191C21.6634 12.5728 21.6634 11.4272 20.8553 11.0809L3.39392 3.59739C2.73405 3.31459 2 3.79862 2 4.51654V9.12448C2 9.62569 2.37103 10.0495 2.86784 10.1157L9.56579 11.0088C10.7229 11.1631 10.7229 12.8369 9.56579 12.9912L2.86784 13.8843C2.37103 13.9505 2 14.3743 2 14.8755V19.4835Z" />
  </symbol>

  <symbol id="exit-full-screen.icon" viewBox="0 0 14 14">
    <path d="M0,11 L3,11 L3,14 L5,14 L5,9 L0,9 L0,11 L0,11 Z M3,3 L0,3 L0,5 L5,5 L5,0 L3,0 L3,3 L3,3 Z M9,14 L11,14 L11,11 L14,11 L14,9 L9,9 L9,14 L9,14 Z M11,3 L11,0 L9,0 L9,5 L14,5 L14,3 L11,3 L11,3 Z" id="Shape"/>
  </symbol>

  <symbol id="full-screen.icon" viewBox="0 0 14 14">
    <path d="M2,9 L0,9 L0,14 L5,14 L5,12 L2,12 L2,9 L2,9 Z M0,5 L2,5 L2,2 L5,2 L5,0 L0,0 L0,5 L0,5 Z M12,12 L9,12 L9,14 L14,14 L14,9 L12,9 L12,12 L12,12 Z M9,0 L9,2 L12,2 L12,5 L14,5 L14,0 L9,0 L9,0 Z"/>
  </symbol>
</svg>
