<svg width="24" height="24" viewBox="0 0 24 24" fill="none" xmlns="http://www.w3.org/2000/svg">
<path fill-rule="evenodd" clip-rule="evenodd" d="M11.5318 4.61443C13.7082 2.49156 17.1871 2.51324 19.3369 4.66308C21.4867 6.81292 21.5084 10.2917 19.3855 12.4682L19.3768 12.4771L17.1849 14.669C16.7944 15.0595 16.1612 15.0595 15.7707 14.669C15.3801 14.2785 15.3801 13.6453 15.7707 13.2548L17.9579 11.0676C19.3122 9.67459 19.297 7.45158 17.9227 6.07729C16.5484 4.703 14.3254 4.68778 12.9324 6.04208L10.7452 8.22931C10.3547 8.61984 9.7215 8.61984 9.33098 8.22931C8.94046 7.83879 8.94046 7.20563 9.33098 6.8151L11.5318 4.61443Z" fill="#191A1D"/>
<path fill-rule="evenodd" clip-rule="evenodd" d="M15.3754 8.62486C15.7659 9.01539 15.7659 9.64855 15.3754 10.0391L10.0391 15.3753C9.64861 15.7658 9.01545 15.7658 8.62492 15.3753C8.2344 14.9848 8.2344 14.3516 8.62492 13.9611L13.9611 8.62486C14.3517 8.23434 14.9848 8.23434 15.3754 8.62486Z" fill="#191A1D"/>
<path fill-rule="evenodd" clip-rule="evenodd" d="M8.22907 9.33116C8.61959 9.72169 8.61959 10.3549 8.22907 10.7454L6.04183 12.9326C4.68753 14.3256 4.70276 16.5486 6.07705 17.9229C7.45134 19.2972 9.67435 19.3124 11.0673 17.9581L13.2545 15.7708C13.6451 15.3803 14.2782 15.3803 14.6688 15.7708C15.0593 16.1614 15.0593 16.7945 14.6688 17.1851L12.468 19.3858C10.2916 21.5087 6.81267 21.4869 4.66283 19.3371C2.51299 17.1872 2.49131 13.7084 4.61418 11.5319L4.62289 11.523L6.81486 9.33116C7.20538 8.94064 7.83855 8.94064 8.22907 9.33116Z" fill="#191A1D"/>
</svg>
