<svg width="24" height="24" viewBox="0 0 24 24" fill="none" xmlns="http://www.w3.org/2000/svg">
<path fill-rule="evenodd" clip-rule="evenodd" d="M6 5C6 3.34272 7.34272 2 9 2H15.457C16.2536 2 17.0153 2.31662 17.5772 2.87695L17.5781 2.87789L20.122 5.42183C20.6831 5.9844 21 6.74599 21 7.543V16C21 17.6573 19.6573 19 18 19H9C7.34272 19 6 17.6573 6 16V5ZM9 4C8.44728 4 8 4.44728 8 5V16C8 16.5527 8.44728 17 9 17H18C18.5527 17 19 16.5527 19 16V7.543C19 7.27816 18.895 7.02387 18.7063 6.83447C18.7062 6.83437 18.7064 6.83458 18.7063 6.83447L16.1648 4.29305C16.1648 4.29297 16.1649 4.29313 16.1648 4.29305C15.9767 4.10553 15.7222 4 15.457 4H9Z" fill="#191A1D"/>
<path fill-rule="evenodd" clip-rule="evenodd" d="M15 2C15.5523 2 16 2.44772 16 3V7H20C20.5523 7 21 7.44772 21 8C21 8.55228 20.5523 9 20 9H16C14.8957 9 14 8.10428 14 7V3C14 2.44772 14.4477 2 15 2Z" fill="#191A1D"/>
<path fill-rule="evenodd" clip-rule="evenodd" d="M6 7C5.44728 7 5 7.44728 5 8V19C5 19.5527 5.44728 20 6 20H15C15.5527 20 16 19.5527 16 19V18C16 17.4477 16.4477 17 17 17C17.5523 17 18 17.4477 18 18V19C18 20.6573 16.6573 22 15 22H6C4.34272 22 3 20.6573 3 19V8C3 6.34272 4.34272 5 6 5H7C7.55228 5 8 5.44772 8 6C8 6.55228 7.55228 7 7 7H6Z" fill="#191A1D"/>
</svg>
