<svg width="24" height="24" viewBox="0 0 24 24" fill="none" xmlns="http://www.w3.org/2000/svg">
<path fill-rule="evenodd" clip-rule="evenodd" d="M4 7C4 6.44772 4.44772 6 5 6H19C19.5523 6 20 6.44772 20 7C20 7.55228 19.5523 8 19 8H5C4.44772 8 4 7.55228 4 7Z" fill="#191A1D"/>
<path fill-rule="evenodd" clip-rule="evenodd" d="M6 6C6.55228 6 7 6.44772 7 7V18C7 18.5527 7.44728 19 8 19H16C16.5527 19 17 18.5527 17 18V7C17 6.44772 17.4477 6 18 6C18.5523 6 19 6.44772 19 7V18C19 19.6573 17.6573 21 16 21H8C6.34272 21 5 19.6573 5 18V7C5 6.44772 5.44772 6 6 6Z" fill="#191A1D"/>
<path fill-rule="evenodd" clip-rule="evenodd" d="M8 3.75C8 3.19772 8.44772 2.75 9 2.75H15C15.5523 2.75 16 3.19772 16 3.75C16 4.30228 15.5523 4.75 15 4.75H9C8.44772 4.75 8 4.30228 8 3.75Z" fill="#191A1D"/>
<path fill-rule="evenodd" clip-rule="evenodd" d="M10 10C10.5523 10 11 10.4477 11 11V16C11 16.5523 10.5523 17 10 17C9.44772 17 9 16.5523 9 16V11C9 10.4477 9.44772 10 10 10Z" fill="#191A1D"/>
<path fill-rule="evenodd" clip-rule="evenodd" d="M14 10C14.5523 10 15 10.4477 15 11V16C15 16.5523 14.5523 17 14 17C13.4477 17 13 16.5523 13 16V11C13 10.4477 13.4477 10 14 10Z" fill="#191A1D"/>
</svg>
