<svg width="24" height="24" viewBox="0 0 24 24" fill="none" xmlns="http://www.w3.org/2000/svg">
<path fill-rule="evenodd" clip-rule="evenodd" d="M12 2C12.5523 2 13 2.44772 13 3V17C13 17.5523 12.5523 18 12 18C11.4477 18 11 17.5523 11 17V3C11 2.44772 11.4477 2 12 2Z" fill="#191A1D"/>
<path fill-rule="evenodd" clip-rule="evenodd" d="M3 16C3.55228 16 4 16.4477 4 17C4 18.6567 5.34328 20 7 20H17C18.6567 20 20 18.6567 20 17C20 16.4477 20.4477 16 21 16C21.5523 16 22 16.4477 22 17C22 19.7613 19.7613 22 17 22H7C4.23872 22 2 19.7613 2 17C2 16.4477 2.44772 16 3 16Z" fill="#191A1D"/>
<path fill-rule="evenodd" clip-rule="evenodd" d="M6.29199 11.2928C6.68255 10.9023 7.31572 10.9024 7.7062 11.293L11.9991 15.5867L16.2929 11.2929C16.6834 10.9024 17.3166 10.9024 17.7071 11.2929C18.0977 11.6834 18.0977 12.3166 17.7071 12.7071L12.7061 17.7081C12.5186 17.8957 12.2642 18.001 11.999 18.001C11.7337 18.001 11.4794 17.8956 11.2918 17.708L6.29185 12.707C5.90136 12.3165 5.90142 11.6833 6.29199 11.2928Z" fill="#191A1D"/>
</svg>
