<svg width="24" height="24" viewBox="0 0 24 24" fill="none" xmlns="http://www.w3.org/2000/svg">
<path fill-rule="evenodd" clip-rule="evenodd" d="M16.3255 6.0007L6.00011 16.3261L6 18H7.67378L18.0003 7.67549L16.3255 6.0007ZM14.9119 4.58588C15.6924 3.80536 16.9586 3.80536 17.7391 4.58588L19.4151 6.26188C20.1956 7.04241 20.1956 8.30857 19.4151 9.0891L9.08999 19.4122L9.08866 19.4135C8.71307 19.7904 8.20405 20 7.675 20H5C4.44772 20 4 19.5523 4 19V16.325C4 15.7958 4.20968 15.2866 4.58679 14.911L4.58778 14.91L14.9119 4.58588Z" fill="#191A1D"/>
<path fill-rule="evenodd" clip-rule="evenodd" d="M13.0429 6.45288C13.4334 6.06236 14.0666 6.06236 14.4571 6.45288L17.5471 9.54288C17.9376 9.93341 17.9376 10.5666 17.5471 10.9571C17.1566 11.3476 16.5234 11.3476 16.1329 10.9571L13.0429 7.86709C12.6524 7.47657 12.6524 6.84341 13.0429 6.45288Z" fill="#191A1D"/>
</svg>
