<svg width="24" height="24" viewBox="0 0 24 24" fill="none" xmlns="http://www.w3.org/2000/svg">
<path fill-rule="evenodd" clip-rule="evenodd" d="M3 16C3.55228 16 4 16.4477 4 17C4 18.6567 5.34328 20 7 20H17C18.6567 20 20 18.6567 20 17C20 16.4477 20.4477 16 21 16C21.5523 16 22 16.4477 22 17C22 19.7613 19.7613 22 17 22H7C4.23872 22 2 19.7613 2 17C2 16.4477 2.44772 16 3 16Z" fill="#191A1D"/>
<path fill-rule="evenodd" clip-rule="evenodd" d="M12 18.001C12.5523 18.001 13 17.5533 13 17.001V3.001C13 2.44871 12.5523 2.001 12 2.001C11.4477 2.001 11 2.44871 11 3.001V17.001C11 17.5533 11.4477 18.001 12 18.001Z" fill="#191A1D"/>
<path fill-rule="evenodd" clip-rule="evenodd" d="M6.29199 8.70818C6.68255 9.09866 7.31572 9.0986 7.7062 8.70804L11.9991 4.41428L16.2929 8.70811C16.6834 9.09863 17.3166 9.09863 17.7071 8.70811C18.0977 8.31758 18.0977 7.68442 17.7071 7.29389L12.7061 2.29289C12.5186 2.10534 12.2642 1.99999 11.999 2C11.7337 2.00001 11.4794 2.1054 11.2918 2.29296L6.29185 7.29396C5.90136 7.68453 5.90142 8.31769 6.29199 8.70818Z" fill="#191A1D"/>
</svg>
