<svg width="24" height="24" viewBox="0 0 24 24" fill="none" xmlns="http://www.w3.org/2000/svg">
<path fill-rule="evenodd" clip-rule="evenodd" d="M10.4852 4.51093C10.762 4.17127 11.1804 3.97883 11.6185 3.98969C12.0102 3.99941 12.3011 4.1955 12.4346 4.29045C12.5783 4.39277 12.7401 4.53149 12.8928 4.66242C12.9012 4.66966 12.9096 4.67687 12.918 4.68405L19.9769 10.7346C19.9827 10.7395 19.9886 10.7445 19.9945 10.7497C20.0801 10.823 20.1866 10.9141 20.2733 11.0025C20.3728 11.1039 20.5207 11.2733 20.6097 11.5211C20.7209 11.8307 20.7209 12.1693 20.6097 12.4789C20.5207 12.7267 20.3728 12.8961 20.2733 12.9975C20.1866 13.0859 20.0802 13.177 19.9946 13.2503C19.9886 13.2554 19.9827 13.2605 19.9769 13.2654L12.918 19.3159C12.9096 19.3231 12.9012 19.3304 12.8927 19.3376C12.7401 19.4685 12.5783 19.6072 12.4346 19.7095C12.3012 19.8045 12.0102 20.0006 11.6185 20.0103C11.1804 20.0212 10.762 19.8287 10.4852 19.4891C10.2376 19.1853 10.1972 18.8368 10.1824 18.6737C10.1666 18.498 10.1666 18.2849 10.1667 18.0838C10.1667 18.0726 10.1667 18.0616 10.1667 18.0505V15.6973C9.465 15.8355 8.78159 16.0622 8.13316 16.3732C7.02872 16.903 6.05184 17.6653 5.26944 18.6079C5.0003 18.9321 4.55681 19.0528 4.16047 18.9097C3.76413 18.7667 3.5 18.3905 3.5 17.9691V17.4591C3.50116 15.2342 4.3214 13.0871 5.80423 11.4284C6.97426 10.1196 8.49219 9.18682 10.1667 8.72895V5.94948C10.1667 5.93844 10.1667 5.92735 10.1667 5.91622C10.1666 5.71511 10.1666 5.50202 10.1824 5.32629C10.1972 5.16319 10.2376 4.81471 10.4852 4.51093ZM12.1667 6.67422V9.52886C12.1667 10.0147 11.8175 10.4302 11.339 10.5139C9.78097 10.7865 8.35498 11.576 7.29529 12.7614C6.60271 13.5361 6.09565 14.4474 5.80038 15.4266C6.26441 15.1028 6.75512 14.8161 7.2681 14.57C8.47094 13.9929 9.77121 13.6511 11.099 13.5611C11.3753 13.5423 11.6471 13.639 11.8494 13.8281C12.0518 14.0172 12.1667 14.2818 12.1667 14.5588V17.3258L18.3801 12L12.1667 6.67422ZM11.2615 18.0892L11.2626 18.0885Z" fill="#191A1D"/>
</svg>
