<svg width="182" height="130" viewBox="0 0 182 130" fill="none" xmlns="http://www.w3.org/2000/svg">
<g filter="url(#filter0_dddddd_2693_138050)">
<rect width="182" height="130" rx="12" fill="white"/>
<path d="M16.6761 14.9119V13.8182H24.3125V14.9119H21.1108V24H19.8778V14.9119H16.6761ZM27.9111 24.1591C27.2217 24.1591 26.6169 23.995 26.0965 23.6669C25.5795 23.3388 25.1751 22.8797 24.8834 22.2898C24.5951 21.6998 24.4509 21.0104 24.4509 20.2216C24.4509 19.4261 24.5951 18.7318 24.8834 18.1385C25.1751 17.5452 25.5795 17.0845 26.0965 16.7564C26.6169 16.4283 27.2217 16.2642 27.9111 16.2642C28.6005 16.2642 29.2038 16.4283 29.7208 16.7564C30.2412 17.0845 30.6455 17.5452 30.9339 18.1385C31.2255 18.7318 31.3714 19.4261 31.3714 20.2216C31.3714 21.0104 31.2255 21.6998 30.9339 22.2898C30.6455 22.8797 30.2412 23.3388 29.7208 23.6669C29.2038 23.995 28.6005 24.1591 27.9111 24.1591ZM27.9111 23.1051C28.4348 23.1051 28.8657 22.9709 29.2038 22.7024C29.5418 22.4339 29.7921 22.081 29.9545 21.6435C30.1169 21.206 30.1981 20.732 30.1981 20.2216C30.1981 19.7112 30.1169 19.2356 29.9545 18.7947C29.7921 18.3539 29.5418 17.9976 29.2038 17.7259C28.8657 17.4541 28.4348 17.3182 27.9111 17.3182C27.3875 17.3182 26.9566 17.4541 26.6185 17.7259C26.2805 17.9976 26.0302 18.3539 25.8678 18.7947C25.7054 19.2356 25.6242 19.7112 25.6242 20.2216C25.6242 20.732 25.7054 21.206 25.8678 21.6435C26.0302 22.081 26.2805 22.4339 26.6185 22.7024C26.9566 22.9709 27.3875 23.1051 27.9111 23.1051ZM36.3434 16.3636V17.358H32.386V16.3636H36.3434ZM33.5394 14.5341H34.7127V21.8125C34.7127 22.1439 34.7608 22.3925 34.8569 22.5582C34.9563 22.7206 35.0823 22.83 35.2347 22.8864C35.3905 22.9394 35.5546 22.9659 35.7269 22.9659C35.8562 22.9659 35.9622 22.9593 36.0451 22.946C36.128 22.9295 36.1943 22.9162 36.244 22.9062L36.4826 23.9602C36.4031 23.9901 36.292 24.0199 36.1495 24.0497C36.007 24.0829 35.8264 24.0994 35.6076 24.0994C35.2762 24.0994 34.9514 24.0282 34.6332 23.8857C34.3183 23.7431 34.0565 23.526 33.8477 23.2344C33.6422 22.9427 33.5394 22.5748 33.5394 22.1307V14.5341ZM40.2155 24.179C39.7316 24.179 39.2924 24.0878 38.898 23.9055C38.5036 23.7199 38.1904 23.4531 37.9584 23.1051C37.7264 22.7538 37.6104 22.3295 37.6104 21.8324C37.6104 21.3949 37.6965 21.0402 37.8689 20.7685C38.0412 20.4934 38.2716 20.2779 38.5599 20.1222C38.8483 19.9664 39.1665 19.8504 39.5145 19.7741C39.8658 19.6946 40.2188 19.6316 40.5734 19.5852C41.0374 19.5256 41.4136 19.4808 41.702 19.451C41.9936 19.4179 42.2058 19.3632 42.3383 19.2869C42.4742 19.2107 42.5422 19.0781 42.5422 18.8892V18.8494C42.5422 18.3589 42.4079 17.9777 42.1395 17.706C41.8743 17.4342 41.4716 17.2983 40.9314 17.2983C40.3713 17.2983 39.9321 17.4209 39.6139 17.6662C39.2957 17.9115 39.072 18.1733 38.9427 18.4517L37.8291 18.054C38.028 17.59 38.2931 17.2287 38.6246 16.9702C38.9593 16.7083 39.3239 16.526 39.7183 16.4233C40.116 16.3172 40.5071 16.2642 40.8916 16.2642C41.1369 16.2642 41.4186 16.294 41.7368 16.3537C42.0583 16.41 42.3682 16.5277 42.6665 16.7067C42.9681 16.8857 43.2183 17.1558 43.4172 17.517C43.616 17.8783 43.7155 18.3622 43.7155 18.9688V24H42.5422V22.9659H42.4825C42.403 23.1316 42.2704 23.3089 42.0848 23.4979C41.8992 23.6868 41.6523 23.8475 41.344 23.9801C41.0358 24.1127 40.6596 24.179 40.2155 24.179ZM40.3945 23.125C40.8585 23.125 41.2496 23.0339 41.5677 22.8516C41.8892 22.6693 42.1312 22.4339 42.2936 22.1456C42.4593 21.8572 42.5422 21.554 42.5422 21.2358V20.1619C42.4925 20.2216 42.3831 20.2763 42.2141 20.326C42.0483 20.3724 41.8561 20.4138 41.6374 20.4503C41.4219 20.4834 41.2115 20.5133 41.006 20.5398C40.8038 20.563 40.6397 20.5829 40.5138 20.5994C40.2088 20.6392 39.9238 20.7038 39.6587 20.7933C39.3968 20.8795 39.1847 21.0104 39.0223 21.1861C38.8632 21.3584 38.7837 21.5937 38.7837 21.892C38.7837 22.2997 38.9345 22.608 39.2361 22.8168C39.541 23.0223 39.9271 23.125 40.3945 23.125ZM46.8903 13.8182V24H45.717V13.8182H46.8903ZM55.799 24.1591C55.1096 24.1591 54.5048 23.995 53.9844 23.6669C53.4674 23.3388 53.063 22.8797 52.7713 22.2898C52.483 21.6998 52.3388 21.0104 52.3388 20.2216C52.3388 19.4261 52.483 18.7318 52.7713 18.1385C53.063 17.5452 53.4674 17.0845 53.9844 16.7564C54.5048 16.4283 55.1096 16.2642 55.799 16.2642C56.4884 16.2642 57.0916 16.4283 57.6087 16.7564C58.129 17.0845 58.5334 17.5452 58.8218 18.1385C59.1134 18.7318 59.2593 19.4261 59.2593 20.2216C59.2593 21.0104 59.1134 21.6998 58.8218 22.2898C58.5334 22.8797 58.129 23.3388 57.6087 23.6669C57.0916 23.995 56.4884 24.1591 55.799 24.1591ZM55.799 23.1051C56.3227 23.1051 56.7536 22.9709 57.0916 22.7024C57.4297 22.4339 57.6799 22.081 57.8424 21.6435C58.0048 21.206 58.086 20.732 58.086 20.2216C58.086 19.7112 58.0048 19.2356 57.8424 18.7947C57.6799 18.3539 57.4297 17.9976 57.0916 17.7259C56.7536 17.4541 56.3227 17.3182 55.799 17.3182C55.2754 17.3182 54.8445 17.4541 54.5064 17.7259C54.1683 17.9976 53.9181 18.3539 53.7557 18.7947C53.5933 19.2356 53.5121 19.7112 53.5121 20.2216C53.5121 20.732 53.5933 21.206 53.7557 21.6435C53.9181 22.081 54.1683 22.4339 54.5064 22.7024C54.8445 22.9709 55.2754 23.1051 55.799 23.1051ZM60.9103 24V16.3636H62.0438V17.517H62.1233C62.2625 17.1392 62.5144 16.8326 62.879 16.5973C63.2436 16.362 63.6546 16.2443 64.112 16.2443C64.1981 16.2443 64.3059 16.246 64.4351 16.2493C64.5644 16.2526 64.6622 16.2576 64.7285 16.2642V17.4574C64.6887 17.4474 64.5975 17.4325 64.455 17.4126C64.3158 17.3894 64.1683 17.3778 64.0125 17.3778C63.6413 17.3778 63.3099 17.4557 63.0182 17.6115C62.7299 17.764 62.5012 17.9761 62.3321 18.2479C62.1664 18.5163 62.0836 18.8229 62.0836 19.1676V24H60.9103ZM68.6304 24.1591C67.994 24.1591 67.4322 23.9983 66.945 23.6768C66.4578 23.352 66.0766 22.8946 65.8015 22.3047C65.5264 21.7114 65.3889 21.0104 65.3889 20.2017C65.3889 19.3996 65.5264 18.7036 65.8015 18.1136C66.0766 17.5237 66.4594 17.0679 66.95 16.7464C67.4405 16.425 68.0073 16.2642 68.6502 16.2642C69.1474 16.2642 69.5402 16.3471 69.8285 16.5128C70.1202 16.6752 70.3422 16.8608 70.4947 17.0696C70.6505 17.2751 70.7715 17.4441 70.8576 17.5767H70.9571V13.8182H72.1304V24H70.9968V22.8267H70.8576C70.7715 22.9659 70.6488 23.1416 70.4897 23.3537C70.3306 23.5625 70.1036 23.7498 69.8086 23.9155C69.5136 24.0779 69.1209 24.1591 68.6304 24.1591ZM68.7894 23.1051C69.2601 23.1051 69.6578 22.9825 69.9826 22.7372C70.3074 22.4886 70.5544 22.1456 70.7234 21.7081C70.8924 21.2673 70.9769 20.7585 70.9769 20.1818C70.9769 19.6117 70.8941 19.1129 70.7284 18.6854C70.5626 18.2545 70.3174 17.9197 69.9926 17.6811C69.6678 17.4392 69.2667 17.3182 68.7894 17.3182C68.2923 17.3182 67.878 17.4458 67.5465 17.701C67.2184 17.9529 66.9715 18.2959 66.8058 18.7301C66.6434 19.161 66.5622 19.6449 66.5622 20.1818C66.5622 20.7254 66.645 21.2192 66.8108 21.6634C66.9798 22.1042 67.2284 22.4555 67.5565 22.7173C67.8879 22.9759 68.2989 23.1051 68.7894 23.1051ZM77.5039 24.1591C76.7681 24.1591 76.1333 23.9967 75.5997 23.6719C75.0694 23.3438 74.6601 22.8864 74.3717 22.2997C74.0867 21.7098 73.9442 21.0237 73.9442 20.2415C73.9442 19.4593 74.0867 18.7699 74.3717 18.1733C74.6601 17.5734 75.0611 17.1061 75.5749 16.7713C76.0919 16.4332 76.6951 16.2642 77.3845 16.2642C77.7823 16.2642 78.175 16.3305 78.5628 16.4631C78.9506 16.5956 79.3036 16.8111 79.6217 17.1094C79.9399 17.4044 80.1935 17.7955 80.3824 18.2827C80.5713 18.7699 80.6658 19.3698 80.6658 20.0824V20.5795H74.7794V19.5653H79.4726C79.4726 19.1345 79.3864 18.75 79.2141 18.4119C79.045 18.0739 78.8031 17.8071 78.4882 17.6115C78.1767 17.416 77.8088 17.3182 77.3845 17.3182C76.9172 17.3182 76.5128 17.4342 76.1715 17.6662C75.8334 17.8949 75.5732 18.1932 75.3909 18.5611C75.2086 18.929 75.1175 19.3234 75.1175 19.7443V20.4205C75.1175 20.9972 75.2169 21.486 75.4158 21.8871C75.618 22.2848 75.898 22.5881 76.256 22.7969C76.6139 23.0024 77.0299 23.1051 77.5039 23.1051C77.8121 23.1051 78.0905 23.062 78.3391 22.9759C78.591 22.8864 78.8081 22.7538 78.9904 22.5781C79.1726 22.3991 79.3135 22.1771 79.4129 21.9119L80.5465 22.2301C80.4271 22.6146 80.2266 22.9527 79.9449 23.2443C79.6632 23.5327 79.3152 23.758 78.9009 23.9205C78.4866 24.0795 78.0209 24.1591 77.5039 24.1591ZM82.3106 24V16.3636H83.4441V17.517H83.5236C83.6629 17.1392 83.9147 16.8326 84.2793 16.5973C84.6439 16.362 85.0549 16.2443 85.5123 16.2443C85.5985 16.2443 85.7062 16.246 85.8354 16.2493C85.9647 16.2526 86.0625 16.2576 86.1288 16.2642V17.4574C86.089 17.4474 85.9978 17.4325 85.8553 17.4126C85.7161 17.3894 85.5686 17.3778 85.4129 17.3778C85.0416 17.3778 84.7102 17.4557 84.4185 17.6115C84.1302 17.764 83.9015 17.9761 83.7325 18.2479C83.5667 18.5163 83.4839 18.8229 83.4839 19.1676V24H82.3106ZM92.7887 18.0739L91.7347 18.3722C91.6684 18.1965 91.5706 18.0258 91.4414 17.8601C91.3154 17.6911 91.1431 17.5518 90.9243 17.4425C90.7056 17.3331 90.4255 17.2784 90.0841 17.2784C89.6168 17.2784 89.2273 17.3861 88.9158 17.6016C88.6075 17.8137 88.4534 18.0838 88.4534 18.4119C88.4534 18.7036 88.5595 18.9339 88.7716 19.103C88.9837 19.272 89.3152 19.4129 89.7659 19.5256L90.8995 19.804C91.5822 19.9697 92.091 20.2232 92.4257 20.5646C92.7605 20.9027 92.9279 21.3385 92.9279 21.8722C92.9279 22.3097 92.8019 22.7008 92.55 23.0455C92.3014 23.3902 91.9534 23.6619 91.506 23.8608C91.0585 24.0597 90.5382 24.1591 89.9449 24.1591C89.166 24.1591 88.5214 23.9901 88.011 23.652C87.5005 23.3139 87.1774 22.8201 87.0415 22.1705L88.1551 21.892C88.2612 22.303 88.4617 22.6113 88.7567 22.8168C89.055 23.0223 89.4444 23.125 89.925 23.125C90.4719 23.125 90.9061 23.009 91.2276 22.777C91.5524 22.5417 91.7148 22.2599 91.7148 21.9318C91.7148 21.6667 91.622 21.4446 91.4364 21.2656C91.2508 21.0833 90.9657 20.9474 90.5813 20.858L89.3085 20.5597C88.6092 20.3939 88.0955 20.1371 87.7674 19.7891C87.4425 19.4377 87.2801 18.9986 87.2801 18.4716C87.2801 18.0407 87.4011 17.6596 87.6431 17.3281C87.8883 16.9967 88.2214 16.7365 88.6424 16.5476C89.0666 16.3587 89.5472 16.2642 90.0841 16.2642C90.8398 16.2642 91.4331 16.4299 91.8639 16.7614C92.2981 17.0928 92.6064 17.5303 92.7887 18.0739Z" fill="#191A1D"/>
<path d="M17.6506 93V89.8977L24.8991 83.1861C25.5156 82.5895 26.0327 82.0526 26.4503 81.5753C26.8745 81.098 27.196 80.6307 27.4148 80.1733C27.6335 79.7093 27.7429 79.2088 27.7429 78.6719C27.7429 78.0753 27.607 77.5616 27.3352 77.1307C27.0634 76.6932 26.6922 76.3584 26.2216 76.1264C25.7509 75.8878 25.2173 75.7685 24.6207 75.7685C23.9976 75.7685 23.4541 75.8944 22.9901 76.1463C22.526 76.3982 22.1681 76.7595 21.9162 77.2301C21.6643 77.7008 21.5384 78.2609 21.5384 78.9105H17.4517C17.4517 77.5781 17.7533 76.4214 18.3565 75.4403C18.9598 74.4593 19.8049 73.7003 20.892 73.1634C21.9792 72.6264 23.232 72.358 24.6506 72.358C26.1089 72.358 27.3783 72.6165 28.4588 73.1335C29.5459 73.6439 30.3911 74.3532 30.9943 75.2614C31.5975 76.1695 31.8991 77.2102 31.8991 78.3835C31.8991 79.1525 31.7467 79.9115 31.4418 80.6605C31.1435 81.4096 30.6098 82.2415 29.8409 83.1562C29.072 84.0644 27.9882 85.1548 26.5895 86.4276L23.6165 89.3409V89.4801H32.1676V93H17.6506ZM42.6039 93.2784C41.0726 93.2784 39.7104 93.0298 38.5172 92.5327C37.3307 92.0289 36.3993 91.3428 35.7232 90.4744C35.0471 89.6061 34.709 88.6217 34.709 87.5213C34.709 86.6728 34.9012 85.8939 35.2857 85.1847C35.6768 84.4688 36.2071 83.8755 36.8766 83.4048C37.5461 82.9276 38.2952 82.6226 39.1238 82.4901V82.3509C38.0366 82.1321 37.155 81.6051 36.4789 80.7699C35.8027 79.928 35.4647 78.9503 35.4647 77.8366C35.4647 76.7827 35.7729 75.8447 36.3894 75.0227C37.0059 74.1941 37.851 73.5445 38.9249 73.0739C40.0054 72.5966 41.2317 72.358 42.6039 72.358C43.976 72.358 45.199 72.5966 46.2729 73.0739C47.3534 73.5511 48.2019 74.2041 48.8184 75.0327C49.4348 75.8546 49.7464 76.7893 49.753 77.8366C49.7464 78.9569 49.4017 79.9347 48.7189 80.7699C48.0362 81.6051 47.1612 82.1321 46.0939 82.3509V82.4901C46.9093 82.6226 47.6484 82.9276 48.3113 83.4048C48.9808 83.8755 49.5111 84.4688 49.9022 85.1847C50.2999 85.8939 50.5021 86.6728 50.5087 87.5213C50.5021 88.6217 50.1607 89.6061 49.4846 90.4744C48.8084 91.3428 47.8738 92.0289 46.6806 92.5327C45.494 93.0298 44.1351 93.2784 42.6039 93.2784ZM42.6039 90.1165C43.2866 90.1165 43.8832 89.9938 44.3937 89.7486C44.9041 89.4967 45.3018 89.152 45.5868 88.7145C45.8785 88.2704 46.0243 87.7599 46.0243 87.1832C46.0243 86.5933 45.8752 86.0729 45.5769 85.6222C45.2786 85.1648 44.8742 84.8068 44.3638 84.5483C43.8534 84.2831 43.2668 84.1506 42.6039 84.1506C41.9476 84.1506 41.361 84.2831 40.8439 84.5483C40.3269 84.8068 39.9192 85.1648 39.6209 85.6222C39.3293 86.0729 39.1834 86.5933 39.1834 87.1832C39.1834 87.7599 39.3259 88.2704 39.611 88.7145C39.896 89.152 40.2971 89.4967 40.8141 89.7486C41.3312 89.9938 41.9277 90.1165 42.6039 90.1165ZM42.6039 81.0185C43.174 81.0185 43.6811 80.9025 44.1252 80.6705C44.5693 80.4384 44.9173 80.117 45.1692 79.706C45.4211 79.295 45.5471 78.821 45.5471 78.2841C45.5471 77.7538 45.4211 77.2898 45.1692 76.892C44.9173 76.4877 44.5726 76.1728 44.1351 75.9474C43.6976 75.7154 43.1872 75.5994 42.6039 75.5994C42.0272 75.5994 41.5168 75.7154 41.0726 75.9474C40.6285 76.1728 40.2805 76.4877 40.0286 76.892C39.7833 77.2898 39.6607 77.7538 39.6607 78.2841C39.6607 78.821 39.7866 79.295 40.0385 79.706C40.2904 80.117 40.6384 80.4384 41.0826 80.6705C41.5267 80.9025 42.0338 81.0185 42.6039 81.0185ZM57.3083 90.2159L57.1989 91.3097C57.1127 92.1847 56.947 93.0563 56.7017 93.9247C56.4631 94.7997 56.2112 95.5919 55.946 96.3011C55.6875 97.0104 55.4787 97.5672 55.3196 97.9716H52.5753C52.6747 97.5805 52.8106 97.0336 52.983 96.331C53.1553 95.6349 53.3177 94.8527 53.4702 93.9844C53.6226 93.116 53.7188 92.2311 53.7585 91.3295L53.8083 90.2159H57.3083ZM67.6376 93.2784C66.1064 93.2784 64.7442 93.0298 63.551 92.5327C62.3644 92.0289 61.4331 91.3428 60.7569 90.4744C60.0808 89.6061 59.7427 88.6217 59.7427 87.5213C59.7427 86.6728 59.935 85.8939 60.3194 85.1847C60.7105 84.4688 61.2408 83.8755 61.9104 83.4048C62.5799 82.9276 63.3289 82.6226 64.1575 82.4901V82.3509C63.0704 82.1321 62.1888 81.6051 61.5126 80.7699C60.8365 79.928 60.4984 78.9503 60.4984 77.8366C60.4984 76.7827 60.8067 75.8447 61.4231 75.0227C62.0396 74.1941 62.8848 73.5445 63.9587 73.0739C65.0391 72.5966 66.2655 72.358 67.6376 72.358C69.0098 72.358 70.2328 72.5966 71.3067 73.0739C72.3872 73.5511 73.2356 74.2041 73.8521 75.0327C74.4686 75.8546 74.7801 76.7893 74.7868 77.8366C74.7801 78.9569 74.4355 79.9347 73.7527 80.7699C73.0699 81.6051 72.1949 82.1321 71.1277 82.3509V82.4901C71.943 82.6226 72.6821 82.9276 73.345 83.4048C74.0145 83.8755 74.5448 84.4688 74.9359 85.1847C75.3337 85.8939 75.5358 86.6728 75.5425 87.5213C75.5358 88.6217 75.1944 89.6061 74.5183 90.4744C73.8422 91.3428 72.9075 92.0289 71.7143 92.5327C70.5278 93.0298 69.1689 93.2784 67.6376 93.2784ZM67.6376 90.1165C68.3204 90.1165 68.917 89.9938 69.4274 89.7486C69.9378 89.4967 70.3355 89.152 70.6206 88.7145C70.9122 88.2704 71.0581 87.7599 71.0581 87.1832C71.0581 86.5933 70.9089 86.0729 70.6106 85.6222C70.3123 85.1648 69.908 84.8068 69.3976 84.5483C68.8872 84.2831 68.3005 84.1506 67.6376 84.1506C66.9814 84.1506 66.3947 84.2831 65.8777 84.5483C65.3606 84.8068 64.953 85.1648 64.6547 85.6222C64.363 86.0729 64.2172 86.5933 64.2172 87.1832C64.2172 87.7599 64.3597 88.2704 64.6447 88.7145C64.9298 89.152 65.3308 89.4967 65.8479 89.7486C66.3649 89.9938 66.9615 90.1165 67.6376 90.1165ZM67.6376 81.0185C68.2077 81.0185 68.7148 80.9025 69.1589 80.6705C69.6031 80.4384 69.9511 80.117 70.203 79.706C70.4549 79.295 70.5808 78.821 70.5808 78.2841C70.5808 77.7538 70.4549 77.2898 70.203 76.892C69.9511 76.4877 69.6064 76.1728 69.1689 75.9474C68.7314 75.7154 68.221 75.5994 67.6376 75.5994C67.0609 75.5994 66.5505 75.7154 66.1064 75.9474C65.6622 76.1728 65.3142 76.4877 65.0623 76.892C64.8171 77.2898 64.6944 77.7538 64.6944 78.2841C64.6944 78.821 64.8204 79.295 65.0723 79.706C65.3242 80.117 65.6722 80.4384 66.1163 80.6705C66.5604 80.9025 67.0676 81.0185 67.6376 81.0185ZM77.9645 89.4205V86.0298L86.4659 72.6364H89.3892V77.3295H87.6591L82.2997 85.8111V85.9702H94.3807V89.4205H77.9645ZM87.7387 93V88.3864L87.8182 86.8849V72.6364H91.8551V93H87.7387ZM104.496 93.2784C103.011 93.2784 101.689 93.0232 100.529 92.5128C99.3756 91.9957 98.4641 91.2865 97.7946 90.3849C97.1317 89.4768 96.7903 88.4295 96.7705 87.2429H101.106C101.132 87.7401 101.295 88.1776 101.593 88.5554C101.898 88.9266 102.302 89.215 102.806 89.4205C103.31 89.6259 103.877 89.7287 104.506 89.7287C105.162 89.7287 105.743 89.6127 106.246 89.3807C106.75 89.1487 107.145 88.8272 107.43 88.4162C107.715 88.0052 107.857 87.5312 107.857 86.9943C107.857 86.4508 107.705 85.9702 107.4 85.5526C107.101 85.1283 106.671 84.7969 106.107 84.5582C105.55 84.3196 104.887 84.2003 104.118 84.2003H102.219V81.0384H104.118C104.768 81.0384 105.341 80.9257 105.839 80.7003C106.342 80.4749 106.734 80.1634 107.012 79.7656C107.29 79.3613 107.43 78.8906 107.43 78.3537C107.43 77.8433 107.307 77.3958 107.062 77.0114C106.823 76.6203 106.485 76.3153 106.047 76.0966C105.617 75.8778 105.113 75.7685 104.536 75.7685C103.953 75.7685 103.419 75.8745 102.935 76.0866C102.451 76.2921 102.064 76.5871 101.772 76.9716C101.48 77.3561 101.324 77.8068 101.305 78.3239H97.1781C97.198 77.1506 97.5328 76.1165 98.1824 75.2216C98.832 74.3267 99.707 73.6274 100.807 73.1236C101.914 72.6132 103.164 72.358 104.556 72.358C105.961 72.358 107.191 72.6132 108.245 73.1236C109.299 73.634 110.118 74.3234 110.701 75.1918C111.291 76.0535 111.582 77.0213 111.576 78.0952C111.582 79.2353 111.228 80.1866 110.512 80.9489C109.803 81.7112 108.878 82.1951 107.738 82.4006V82.5597C109.236 82.7519 110.376 83.2723 111.158 84.1207C111.947 84.9626 112.338 86.0166 112.332 87.2827C112.338 88.4427 112.003 89.4735 111.327 90.375C110.658 91.2765 109.733 91.9858 108.553 92.5028C107.373 93.0199 106.021 93.2784 104.496 93.2784Z" fill="#191A1D"/>
<path d="M24.0783 114.465C24.2347 114.465 24.3494 114.398 24.4225 114.264C24.4956 114.129 24.4905 113.996 24.4074 113.865L20.5562 107.719C20.4782 107.596 20.3695 107.535 20.2302 107.535C20.0909 107.535 19.9812 107.596 19.9011 107.719L16.0633 113.865C15.9836 113.996 15.9794 114.129 16.0508 114.264C16.1221 114.398 16.236 114.465 16.3924 114.465H24.0783Z" fill="#388E3C"/>
<path d="M31.0914 106.773V115.5H30.0346V107.881H29.9835L27.8528 109.295V108.222L30.0346 106.773H31.0914ZM33.4814 115.5V114.733L36.3621 111.58C36.7001 111.21 36.9785 110.889 37.1973 110.616C37.416 110.341 37.578 110.082 37.6831 109.841C37.791 109.597 37.845 109.341 37.845 109.074C37.845 108.767 37.7712 108.501 37.6234 108.277C37.4785 108.053 37.2797 107.879 37.0268 107.757C36.774 107.635 36.4899 107.574 36.1746 107.574C35.8393 107.574 35.5467 107.643 35.2967 107.783C35.0496 107.919 34.8578 108.111 34.7214 108.358C34.5879 108.605 34.5212 108.895 34.5212 109.227H33.5155C33.5155 108.716 33.6334 108.267 33.8692 107.881C34.105 107.494 34.426 107.193 34.8322 106.977C35.2413 106.761 35.7001 106.653 36.2087 106.653C36.72 106.653 37.1731 106.761 37.568 106.977C37.9629 107.193 38.2726 107.484 38.497 107.851C38.7214 108.217 38.8337 108.625 38.8337 109.074C38.8337 109.395 38.7754 109.709 38.6589 110.016C38.5453 110.32 38.3464 110.659 38.0624 111.034C37.7811 111.406 37.3905 111.861 36.8905 112.398L34.9302 114.494V114.562H38.9871V115.5H33.4814ZM45.0759 113.864V113.403C45.0759 113.085 45.1412 112.794 45.2719 112.53C45.4054 112.263 45.5986 112.05 45.8514 111.891C46.1071 111.729 46.4168 111.648 46.7804 111.648C47.1497 111.648 47.4594 111.729 47.7094 111.891C47.9594 112.05 48.1483 112.263 48.2762 112.53C48.404 112.794 48.4679 113.085 48.4679 113.403V113.864C48.4679 114.182 48.4026 114.474 48.2719 114.741C48.1441 115.006 47.9537 115.219 47.7009 115.381C47.4509 115.54 47.1441 115.619 46.7804 115.619C46.4111 115.619 46.1 115.54 45.8472 115.381C45.5943 115.219 45.4026 115.006 45.2719 114.741C45.1412 114.474 45.0759 114.182 45.0759 113.864ZM45.9452 113.403V113.864C45.9452 114.128 46.0077 114.365 46.1327 114.575C46.2577 114.783 46.4736 114.886 46.7804 114.886C47.0787 114.886 47.2889 114.783 47.4111 114.575C47.5361 114.365 47.5986 114.128 47.5986 113.864V113.403C47.5986 113.139 47.5389 112.903 47.4196 112.696C47.3003 112.486 47.0872 112.381 46.7804 112.381C46.4821 112.381 46.2676 112.486 46.137 112.696C46.0091 112.903 45.9452 113.139 45.9452 113.403ZM40.7293 108.869V108.409C40.7293 108.091 40.7946 107.8 40.9253 107.536C41.0588 107.268 41.252 107.055 41.5049 106.896C41.7605 106.734 42.0702 106.653 42.4338 106.653C42.8031 106.653 43.1128 106.734 43.3628 106.896C43.6128 107.055 43.8017 107.268 43.9296 107.536C44.0574 107.8 44.1213 108.091 44.1213 108.409V108.869C44.1213 109.187 44.056 109.48 43.9253 109.747C43.7975 110.011 43.6071 110.224 43.3543 110.386C43.1043 110.545 42.7975 110.625 42.4338 110.625C42.0645 110.625 41.7534 110.545 41.5006 110.386C41.2478 110.224 41.056 110.011 40.9253 109.747C40.7946 109.48 40.7293 109.187 40.7293 108.869ZM41.5986 108.409V108.869C41.5986 109.134 41.6611 109.371 41.7861 109.581C41.9111 109.788 42.127 109.892 42.4338 109.892C42.7321 109.892 42.9424 109.788 43.0645 109.581C43.1895 109.371 43.252 109.134 43.252 108.869V108.409C43.252 108.145 43.1924 107.909 43.073 107.702C42.9537 107.491 42.7406 107.386 42.4338 107.386C42.1355 107.386 41.921 107.491 41.7904 107.702C41.6625 107.909 41.5986 108.145 41.5986 108.409ZM41.0531 115.5L47.0531 106.773H48.0247L42.0247 115.5H41.0531Z" fill="#388E3C"/>
<path d="M59.9509 113.966V108.341H60.9054V113.966H59.9509ZM57.6156 111.631V110.676H63.2406V111.631H57.6156ZM64.757 115.5V114.733L67.6377 111.58C67.9758 111.21 68.2542 110.889 68.4729 110.616C68.6917 110.341 68.8536 110.082 68.9587 109.841C69.0667 109.597 69.1206 109.341 69.1206 109.074C69.1206 108.767 69.0468 108.501 68.8991 108.277C68.7542 108.053 68.5553 107.879 68.3025 107.757C68.0496 107.635 67.7655 107.574 67.4502 107.574C67.115 107.574 66.8224 107.643 66.5724 107.783C66.3252 107.919 66.1334 108.111 65.9971 108.358C65.8635 108.605 65.7968 108.895 65.7968 109.227H64.7911C64.7911 108.716 64.909 108.267 65.1448 107.881C65.3806 107.494 65.7016 107.193 66.1079 106.977C66.517 106.761 66.9758 106.653 67.4843 106.653C67.9956 106.653 68.4488 106.761 68.8437 106.977C69.2385 107.193 69.5482 107.484 69.7726 107.851C69.9971 108.217 70.1093 108.625 70.1093 109.074C70.1093 109.395 70.051 109.709 69.9346 110.016C69.8209 110.32 69.6221 110.659 69.338 111.034C69.0567 111.406 68.6661 111.861 68.1661 112.398L66.2059 114.494V114.562H70.2627V115.5H64.757ZM73.4197 114.307L73.3515 114.767C73.3032 115.091 73.2293 115.438 73.1299 115.807C73.0333 116.176 72.9325 116.524 72.8274 116.851C72.7222 117.178 72.6356 117.438 72.5674 117.631H71.8004C71.8373 117.449 71.8856 117.209 71.9453 116.911C72.0049 116.612 72.0646 116.278 72.1242 115.909C72.1867 115.543 72.2379 115.168 72.2776 114.784L72.3288 114.307H73.4197ZM77.739 115.619C77.381 115.614 77.023 115.545 76.6651 115.415C76.3071 115.284 75.9804 115.064 75.685 114.754C75.3895 114.442 75.1523 114.02 74.9733 113.489C74.7944 112.955 74.7049 112.284 74.7049 111.477C74.7049 110.705 74.7773 110.02 74.9222 109.423C75.0671 108.824 75.2773 108.32 75.5529 107.911C75.8284 107.499 76.1608 107.186 76.55 106.973C76.9421 106.76 77.3838 106.653 77.8753 106.653C78.364 106.653 78.7986 106.751 79.1793 106.947C79.5628 107.141 79.8753 107.411 80.1168 107.757C80.3583 108.104 80.5145 108.503 80.5855 108.955H79.5458C79.4492 108.562 79.2617 108.237 78.9833 107.979C78.7049 107.72 78.3355 107.591 77.8753 107.591C77.1992 107.591 76.6665 107.885 76.2773 108.473C75.8909 109.061 75.6963 109.886 75.6935 110.949H75.7617C75.9208 110.707 76.1097 110.501 76.3284 110.331C76.55 110.158 76.7944 110.024 77.0614 109.93C77.3284 109.837 77.6111 109.79 77.9094 109.79C78.4094 109.79 78.8668 109.915 79.2816 110.165C79.6963 110.412 80.0287 110.754 80.2787 111.192C80.5287 111.626 80.6537 112.125 80.6537 112.688C80.6537 113.227 80.533 113.722 80.2915 114.17C80.05 114.616 79.7105 114.972 79.273 115.236C78.8384 115.497 78.327 115.625 77.739 115.619ZM77.739 114.682C78.0969 114.682 78.4179 114.592 78.702 114.413C78.989 114.234 79.2148 113.994 79.3796 113.693C79.5472 113.392 79.631 113.057 79.631 112.688C79.631 112.327 79.55 111.999 79.3881 111.703C79.229 111.405 79.0088 111.168 78.7276 110.991C78.4492 110.815 78.131 110.727 77.773 110.727C77.5032 110.727 77.2517 110.781 77.0188 110.889C76.7858 110.994 76.5813 111.139 76.4051 111.324C76.2319 111.509 76.0955 111.72 75.9961 111.959C75.8966 112.195 75.8469 112.443 75.8469 112.705C75.8469 113.051 75.9279 113.375 76.0898 113.676C76.2546 113.977 76.479 114.22 76.7631 114.405C77.05 114.589 77.3753 114.682 77.739 114.682ZM82.4822 115.5L86.3856 107.778V107.71H81.8856V106.773H87.4766V107.761L83.5902 115.5H82.4822ZM91.6552 115.619C91.2973 115.614 90.9393 115.545 90.5813 115.415C90.2234 115.284 89.8967 115.064 89.6012 114.754C89.3058 114.442 89.0686 114.02 88.8896 113.489C88.7106 112.955 88.6211 112.284 88.6211 111.477C88.6211 110.705 88.6936 110.02 88.8384 109.423C88.9833 108.824 89.1936 108.32 89.4691 107.911C89.7447 107.499 90.0771 107.186 90.4663 106.973C90.8583 106.76 91.3001 106.653 91.7916 106.653C92.2802 106.653 92.7149 106.751 93.0955 106.947C93.4791 107.141 93.7916 107.411 94.033 107.757C94.2745 108.104 94.4308 108.503 94.5018 108.955H93.462C93.3654 108.562 93.1779 108.237 92.8995 107.979C92.6211 107.72 92.2518 107.591 91.7916 107.591C91.1154 107.591 90.5828 107.885 90.1936 108.473C89.8072 109.061 89.6126 109.886 89.6098 110.949H89.6779C89.837 110.707 90.0259 110.501 90.2447 110.331C90.4663 110.158 90.7106 110.024 90.9777 109.93C91.2447 109.837 91.5274 109.79 91.8257 109.79C92.3257 109.79 92.783 109.915 93.1978 110.165C93.6126 110.412 93.945 110.754 94.195 111.192C94.445 111.626 94.57 112.125 94.57 112.688C94.57 113.227 94.4492 113.722 94.2078 114.17C93.9663 114.616 93.6268 114.972 93.1893 115.236C92.7546 115.497 92.2433 115.625 91.6552 115.619ZM91.6552 114.682C92.0132 114.682 92.3342 114.592 92.6183 114.413C92.9052 114.234 93.1311 113.994 93.2958 113.693C93.4634 113.392 93.5473 113.057 93.5473 112.688C93.5473 112.327 93.4663 111.999 93.3044 111.703C93.1453 111.405 92.9251 111.168 92.6438 110.991C92.3654 110.815 92.0473 110.727 91.6893 110.727C91.4194 110.727 91.168 110.781 90.935 110.889C90.7021 110.994 90.4975 111.139 90.3214 111.324C90.1481 111.509 90.0117 111.72 89.9123 111.959C89.8129 112.195 89.7632 112.443 89.7632 112.705C89.7632 113.051 89.8441 113.375 90.0061 113.676C90.1708 113.977 90.3953 114.22 90.6794 114.405C90.9663 114.589 91.2916 114.682 91.6552 114.682ZM102.244 108.955V109.807H98.8524V108.955H102.244ZM99.841 107.386H100.847V113.625C100.847 113.909 100.888 114.122 100.97 114.264C101.055 114.403 101.163 114.497 101.294 114.545C101.428 114.591 101.568 114.614 101.716 114.614C101.827 114.614 101.918 114.608 101.989 114.597C102.06 114.582 102.117 114.571 102.159 114.562L102.364 115.466C102.296 115.491 102.2 115.517 102.078 115.543C101.956 115.571 101.801 115.585 101.614 115.585C101.33 115.585 101.051 115.524 100.778 115.402C100.509 115.28 100.284 115.094 100.105 114.844C99.9291 114.594 99.841 114.278 99.841 113.898V107.386ZM106.226 115.636C105.635 115.636 105.117 115.496 104.671 115.214C104.227 114.933 103.881 114.54 103.631 114.034C103.384 113.528 103.26 112.937 103.26 112.261C103.26 111.58 103.384 110.984 103.631 110.476C103.881 109.967 104.227 109.572 104.671 109.291C105.117 109.01 105.635 108.869 106.226 108.869C106.817 108.869 107.334 109.01 107.777 109.291C108.223 109.572 108.57 109.967 108.817 110.476C109.067 110.984 109.192 111.58 109.192 112.261C109.192 112.937 109.067 113.528 108.817 114.034C108.57 114.54 108.223 114.933 107.777 115.214C107.334 115.496 106.817 115.636 106.226 115.636ZM106.226 114.733C106.675 114.733 107.044 114.618 107.334 114.388C107.624 114.158 107.838 113.855 107.977 113.48C108.117 113.105 108.186 112.699 108.186 112.261C108.186 111.824 108.117 111.416 107.977 111.038C107.838 110.661 107.624 110.355 107.334 110.122C107.044 109.889 106.675 109.773 106.226 109.773C105.777 109.773 105.408 109.889 105.118 110.122C104.828 110.355 104.614 110.661 104.475 111.038C104.335 111.416 104.266 111.824 104.266 112.261C104.266 112.699 104.335 113.105 104.475 113.48C104.614 113.855 104.828 114.158 105.118 114.388C105.408 114.618 105.777 114.733 106.226 114.733ZM113.079 115.636C112.533 115.636 112.052 115.499 111.634 115.223C111.216 114.945 110.89 114.553 110.654 114.047C110.418 113.538 110.3 112.938 110.3 112.244C110.3 111.557 110.418 110.96 110.654 110.455C110.89 109.949 111.218 109.558 111.638 109.283C112.059 109.007 112.545 108.869 113.096 108.869C113.522 108.869 113.858 108.94 114.106 109.082C114.356 109.222 114.546 109.381 114.677 109.56C114.81 109.736 114.914 109.881 114.988 109.994H115.073V106.773H116.079V115.5H115.107V114.494H114.988C114.914 114.614 114.809 114.764 114.672 114.946C114.536 115.125 114.341 115.286 114.089 115.428C113.836 115.567 113.499 115.636 113.079 115.636ZM113.215 114.733C113.618 114.733 113.959 114.628 114.238 114.418C114.516 114.205 114.728 113.911 114.873 113.536C115.018 113.158 115.09 112.722 115.09 112.227C115.09 111.739 115.019 111.311 114.877 110.945C114.735 110.575 114.525 110.288 114.246 110.084C113.968 109.876 113.624 109.773 113.215 109.773C112.789 109.773 112.434 109.882 112.15 110.101C111.868 110.317 111.657 110.611 111.515 110.983C111.375 111.352 111.306 111.767 111.306 112.227C111.306 112.693 111.377 113.116 111.519 113.497C111.664 113.875 111.877 114.176 112.158 114.401C112.442 114.622 112.795 114.733 113.215 114.733ZM119.866 115.653C119.452 115.653 119.075 115.575 118.737 115.419C118.399 115.26 118.13 115.031 117.932 114.733C117.733 114.432 117.633 114.068 117.633 113.642C117.633 113.267 117.707 112.963 117.855 112.73C118.003 112.494 118.2 112.31 118.447 112.176C118.694 112.043 118.967 111.943 119.265 111.878C119.567 111.81 119.869 111.756 120.173 111.716C120.571 111.665 120.893 111.626 121.14 111.601C121.39 111.572 121.572 111.526 121.686 111.46C121.802 111.395 121.861 111.281 121.861 111.119V111.085C121.861 110.665 121.746 110.338 121.515 110.105C121.288 109.872 120.943 109.756 120.48 109.756C120 109.756 119.623 109.861 119.351 110.071C119.078 110.281 118.886 110.506 118.775 110.744L117.821 110.403C117.991 110.006 118.219 109.696 118.503 109.474C118.79 109.25 119.102 109.094 119.44 109.006C119.781 108.915 120.116 108.869 120.446 108.869C120.656 108.869 120.898 108.895 121.17 108.946C121.446 108.994 121.711 109.095 121.967 109.249C122.226 109.402 122.44 109.634 122.611 109.943C122.781 110.253 122.866 110.668 122.866 111.188V115.5H121.861V114.614H121.809C121.741 114.756 121.628 114.908 121.469 115.07C121.309 115.232 121.098 115.369 120.834 115.483C120.569 115.597 120.247 115.653 119.866 115.653ZM120.02 114.75C120.417 114.75 120.753 114.672 121.025 114.516C121.301 114.359 121.508 114.158 121.648 113.911C121.79 113.663 121.861 113.403 121.861 113.131V112.21C121.818 112.261 121.724 112.308 121.579 112.351C121.437 112.391 121.273 112.426 121.085 112.457C120.9 112.486 120.72 112.511 120.544 112.534C120.371 112.554 120.23 112.571 120.122 112.585C119.861 112.619 119.616 112.675 119.389 112.751C119.165 112.825 118.983 112.937 118.844 113.088C118.707 113.236 118.639 113.437 118.639 113.693C118.639 114.043 118.768 114.307 119.027 114.486C119.288 114.662 119.619 114.75 120.02 114.75ZM124.995 117.955C124.825 117.955 124.673 117.94 124.539 117.912C124.406 117.886 124.313 117.861 124.262 117.835L124.518 116.949C124.762 117.011 124.978 117.034 125.166 117.017C125.353 117 125.519 116.916 125.664 116.766C125.812 116.618 125.947 116.378 126.069 116.045L126.257 115.534L123.836 108.955H124.927L126.734 114.17H126.802L128.609 108.955H129.7L126.921 116.455C126.796 116.793 126.642 117.072 126.457 117.294C126.272 117.518 126.058 117.685 125.813 117.793C125.572 117.901 125.299 117.955 124.995 117.955Z" fill="#5C697C"/>
</g>
<defs>
<filter id="filter0_dddddd_2693_138050" x="-80" y="-28" width="342" height="290" filterUnits="userSpaceOnUse" color-interpolation-filters="sRGB">
<feFlood flood-opacity="0" result="BackgroundImageFix"/>
<feColorMatrix in="SourceAlpha" type="matrix" values="0 0 0 0 0 0 0 0 0 0 0 0 0 0 0 0 0 0 127 0" result="hardAlpha"/>
<feOffset dy="1.43897"/>
<feGaussianBlur stdDeviation="1.1069"/>
<feColorMatrix type="matrix" values="0 0 0 0 0.109804 0 0 0 0 0.164706 0 0 0 0 0.278431 0 0 0 0.0168687 0"/>
<feBlend mode="normal" in2="BackgroundImageFix" result="effect1_dropShadow_2693_138050"/>
<feColorMatrix in="SourceAlpha" type="matrix" values="0 0 0 0 0 0 0 0 0 0 0 0 0 0 0 0 0 0 127 0" result="hardAlpha"/>
<feOffset dy="3.45805"/>
<feGaussianBlur stdDeviation="2.66004"/>
<feColorMatrix type="matrix" values="0 0 0 0 0.109804 0 0 0 0 0.164706 0 0 0 0 0.278431 0 0 0 0.0242336 0"/>
<feBlend mode="normal" in2="effect1_dropShadow_2693_138050" result="effect2_dropShadow_2693_138050"/>
<feColorMatrix in="SourceAlpha" type="matrix" values="0 0 0 0 0 0 0 0 0 0 0 0 0 0 0 0 0 0 127 0" result="hardAlpha"/>
<feOffset dy="6.51121"/>
<feGaussianBlur stdDeviation="5.00862"/>
<feColorMatrix type="matrix" values="0 0 0 0 0.109804 0 0 0 0 0.164706 0 0 0 0 0.278431 0 0 0 0.03 0"/>
<feBlend mode="normal" in2="effect2_dropShadow_2693_138050" result="effect3_dropShadow_2693_138050"/>
<feColorMatrix in="SourceAlpha" type="matrix" values="0 0 0 0 0 0 0 0 0 0 0 0 0 0 0 0 0 0 127 0" result="hardAlpha"/>
<feOffset dy="11.6149"/>
<feGaussianBlur stdDeviation="8.93452"/>
<feColorMatrix type="matrix" values="0 0 0 0 0.109804 0 0 0 0 0.164706 0 0 0 0 0.278431 0 0 0 0.0357664 0"/>
<feBlend mode="normal" in2="effect3_dropShadow_2693_138050" result="effect4_dropShadow_2693_138050"/>
<feColorMatrix in="SourceAlpha" type="matrix" values="0 0 0 0 0 0 0 0 0 0 0 0 0 0 0 0 0 0 127 0" result="hardAlpha"/>
<feOffset dy="21.7244"/>
<feGaussianBlur stdDeviation="16.711"/>
<feColorMatrix type="matrix" values="0 0 0 0 0.109804 0 0 0 0 0.164706 0 0 0 0 0.278431 0 0 0 0.0431313 0"/>
<feBlend mode="normal" in2="effect4_dropShadow_2693_138050" result="effect5_dropShadow_2693_138050"/>
<feColorMatrix in="SourceAlpha" type="matrix" values="0 0 0 0 0 0 0 0 0 0 0 0 0 0 0 0 0 0 127 0" result="hardAlpha"/>
<feOffset dy="52"/>
<feGaussianBlur stdDeviation="40"/>
<feColorMatrix type="matrix" values="0 0 0 0 0.109804 0 0 0 0 0.164706 0 0 0 0 0.278431 0 0 0 0.06 0"/>
<feBlend mode="normal" in2="effect5_dropShadow_2693_138050" result="effect6_dropShadow_2693_138050"/>
<feBlend mode="normal" in="SourceGraphic" in2="effect6_dropShadow_2693_138050" result="shape"/>
</filter>
</defs>
</svg>
