<svg width="182" height="130" viewBox="0 0 182 130" fill="none" xmlns="http://www.w3.org/2000/svg">
<g filter="url(#filter0_dddddd_2693_138051)">
<rect width="182" height="130" rx="12" fill="white"/>
<path d="M25.8239 18.9091C25.8239 19.983 25.63 20.911 25.2422 21.6932C24.8544 22.4754 24.3224 23.0786 23.6463 23.5028C22.9702 23.9271 22.1979 24.1392 21.3295 24.1392C20.4612 24.1392 19.6889 23.9271 19.0128 23.5028C18.3366 23.0786 17.8047 22.4754 17.4169 21.6932C17.0291 20.911 16.8352 19.983 16.8352 18.9091C16.8352 17.8352 17.0291 16.9072 17.4169 16.125C17.8047 15.3428 18.3366 14.7396 19.0128 14.3153C19.6889 13.8911 20.4612 13.679 21.3295 13.679C22.1979 13.679 22.9702 13.8911 23.6463 14.3153C24.3224 14.7396 24.8544 15.3428 25.2422 16.125C25.63 16.9072 25.8239 17.8352 25.8239 18.9091ZM24.6307 18.9091C24.6307 18.0275 24.4832 17.2834 24.1882 16.6768C23.8965 16.0703 23.5005 15.6113 23 15.2997C22.5028 14.9882 21.946 14.8324 21.3295 14.8324C20.7131 14.8324 20.1546 14.9882 19.6541 15.2997C19.157 15.6113 18.7609 16.0703 18.4659 16.6768C18.1742 17.2834 18.0284 18.0275 18.0284 18.9091C18.0284 19.7907 18.1742 20.5348 18.4659 21.1413C18.7609 21.7479 19.157 22.2069 19.6541 22.5185C20.1546 22.83 20.7131 22.9858 21.3295 22.9858C21.946 22.9858 22.5028 22.83 23 22.5185C23.5005 22.2069 23.8965 21.7479 24.1882 21.1413C24.4832 20.5348 24.6307 19.7907 24.6307 18.9091ZM27.5979 24V16.3636H28.7314V17.517H28.811C28.9502 17.1392 29.2021 16.8326 29.5667 16.5973C29.9313 16.362 30.3422 16.2443 30.7996 16.2443C30.8858 16.2443 30.9935 16.246 31.1228 16.2493C31.252 16.2526 31.3498 16.2576 31.4161 16.2642V17.4574C31.3763 17.4474 31.2852 17.4325 31.1427 17.4126C31.0035 17.3894 30.856 17.3778 30.7002 17.3778C30.329 17.3778 29.9975 17.4557 29.7059 17.6115C29.4175 17.764 29.1888 17.9761 29.0198 18.2479C28.8541 18.5163 28.7712 18.8229 28.7712 19.1676V24H27.5979ZM35.318 24.1591C34.6816 24.1591 34.1199 23.9983 33.6326 23.6768C33.1454 23.352 32.7643 22.8946 32.4892 22.3047C32.2141 21.7114 32.0765 21.0104 32.0765 20.2017C32.0765 19.3996 32.2141 18.7036 32.4892 18.1136C32.7643 17.5237 33.1471 17.0679 33.6376 16.7464C34.1281 16.425 34.6949 16.2642 35.3379 16.2642C35.8351 16.2642 36.2278 16.3471 36.5162 16.5128C36.8078 16.6752 37.0299 16.8608 37.1824 17.0696C37.3381 17.2751 37.4591 17.4441 37.5453 17.5767H37.6447V13.8182H38.818V24H37.6845V22.8267H37.5453C37.4591 22.9659 37.3365 23.1416 37.1774 23.3537C37.0183 23.5625 36.7913 23.7498 36.4963 23.9155C36.2013 24.0779 35.8085 24.1591 35.318 24.1591ZM35.4771 23.1051C35.9477 23.1051 36.3455 22.9825 36.6703 22.7372C36.9951 22.4886 37.242 22.1456 37.4111 21.7081C37.5801 21.2673 37.6646 20.7585 37.6646 20.1818C37.6646 19.6117 37.5817 19.1129 37.416 18.6854C37.2503 18.2545 37.005 17.9197 36.6802 17.6811C36.3554 17.4392 35.9544 17.3182 35.4771 17.3182C34.9799 17.3182 34.5656 17.4458 34.2342 17.701C33.9061 17.9529 33.6592 18.2959 33.4934 18.7301C33.331 19.161 33.2498 19.6449 33.2498 20.1818C33.2498 20.7254 33.3327 21.2192 33.4984 21.6634C33.6674 22.1042 33.916 22.4555 34.2441 22.7173C34.5756 22.9759 34.9866 23.1051 35.4771 23.1051ZM44.1915 24.1591C43.4557 24.1591 42.821 23.9967 42.2874 23.6719C41.7571 23.3438 41.3478 22.8864 41.0594 22.2997C40.7744 21.7098 40.6318 21.0237 40.6318 20.2415C40.6318 19.4593 40.7744 18.7699 41.0594 18.1733C41.3478 17.5734 41.7488 17.1061 42.2625 16.7713C42.7796 16.4332 43.3828 16.2642 44.0722 16.2642C44.4699 16.2642 44.8627 16.3305 45.2505 16.4631C45.6382 16.5956 45.9912 16.8111 46.3094 17.1094C46.6276 17.4044 46.8811 17.7955 47.0701 18.2827C47.259 18.7699 47.3534 19.3698 47.3534 20.0824V20.5795H41.4671V19.5653H46.1603C46.1603 19.1345 46.0741 18.75 45.9017 18.4119C45.7327 18.0739 45.4907 17.8071 45.1759 17.6115C44.8643 17.416 44.4964 17.3182 44.0722 17.3182C43.6049 17.3182 43.2005 17.4342 42.8591 17.6662C42.5211 17.8949 42.2609 18.1932 42.0786 18.5611C41.8963 18.929 41.8051 19.3234 41.8051 19.7443V20.4205C41.8051 20.9972 41.9046 21.486 42.1034 21.8871C42.3056 22.2848 42.5857 22.5881 42.9436 22.7969C43.3016 23.0024 43.7175 23.1051 44.1915 23.1051C44.4997 23.1051 44.7782 23.062 45.0267 22.9759C45.2786 22.8864 45.4957 22.7538 45.678 22.5781C45.8603 22.3991 46.0012 22.1771 46.1006 21.9119L47.2341 22.2301C47.1148 22.6146 46.9143 22.9527 46.6326 23.2443C46.3508 23.5327 46.0028 23.758 45.5885 23.9205C45.1742 24.0795 44.7086 24.1591 44.1915 24.1591ZM48.9982 24V16.3636H50.1318V17.517H50.2113C50.3505 17.1392 50.6024 16.8326 50.967 16.5973C51.3316 16.362 51.7426 16.2443 52.1999 16.2443C52.2861 16.2443 52.3938 16.246 52.5231 16.2493C52.6524 16.2526 52.7501 16.2576 52.8164 16.2642V17.4574C52.7766 17.4474 52.6855 17.4325 52.543 17.4126C52.4038 17.3894 52.2563 17.3778 52.1005 17.3778C51.7293 17.3778 51.3979 17.4557 51.1062 17.6115C50.8178 17.764 50.5891 17.9761 50.4201 18.2479C50.2544 18.5163 50.1715 18.8229 50.1715 19.1676V24H48.9982ZM59.4763 18.0739L58.4223 18.3722C58.356 18.1965 58.2583 18.0258 58.129 17.8601C58.0031 17.6911 57.8307 17.5518 57.612 17.4425C57.3932 17.3331 57.1132 17.2784 56.7718 17.2784C56.3044 17.2784 55.915 17.3861 55.6034 17.6016C55.2952 17.8137 55.1411 18.0838 55.1411 18.4119C55.1411 18.7036 55.2471 18.9339 55.4593 19.103C55.6714 19.272 56.0028 19.4129 56.4536 19.5256L57.5871 19.804C58.2699 19.9697 58.7786 20.2232 59.1134 20.5646C59.4481 20.9027 59.6155 21.3385 59.6155 21.8722C59.6155 22.3097 59.4896 22.7008 59.2377 23.0455C58.9891 23.3902 58.6411 23.6619 58.1936 23.8608C57.7462 24.0597 57.2258 24.1591 56.6326 24.1591C55.8537 24.1591 55.209 23.9901 54.6986 23.652C54.1882 23.3139 53.865 22.8201 53.7292 22.1705L54.8428 21.892C54.9489 22.303 55.1494 22.6113 55.4444 22.8168C55.7426 23.0223 56.1321 23.125 56.6127 23.125C57.1596 23.125 57.5937 23.009 57.9152 22.777C58.24 22.5417 58.4024 22.2599 58.4024 21.9318C58.4024 21.6667 58.3096 21.4446 58.124 21.2656C57.9384 21.0833 57.6534 20.9474 57.2689 20.858L55.9962 20.5597C55.2969 20.3939 54.7831 20.1371 54.455 19.7891C54.1302 19.4377 53.9678 18.9986 53.9678 18.4716C53.9678 18.0407 54.0888 17.6596 54.3307 17.3281C54.576 16.9967 54.9091 16.7365 55.33 16.5476C55.7542 16.3587 56.2348 16.2642 56.7718 16.2642C57.5274 16.2642 58.1207 16.4299 58.5516 16.7614C58.9858 17.0928 59.294 17.5303 59.4763 18.0739ZM68.1414 24.1591C67.4255 24.1591 66.8091 23.9901 66.292 23.652C65.775 23.3139 65.3772 22.8482 65.0988 22.255C64.8204 21.6617 64.6812 20.9839 64.6812 20.2216C64.6812 19.446 64.8237 18.7616 65.1088 18.1683C65.3971 17.5717 65.7982 17.1061 66.3119 16.7713C66.8289 16.4332 67.4322 16.2642 68.1216 16.2642C68.6585 16.2642 69.1424 16.3636 69.5733 16.5625C70.0041 16.7614 70.3571 17.0398 70.6322 17.3977C70.9073 17.7557 71.078 18.1733 71.1443 18.6506H69.971C69.8815 18.3026 69.6826 17.9943 69.3744 17.7259C69.0695 17.4541 68.6585 17.3182 68.1414 17.3182C67.6841 17.3182 67.283 17.4375 66.9383 17.6761C66.5969 17.9115 66.3301 18.2446 66.1379 18.6754C65.949 19.103 65.8545 19.6051 65.8545 20.1818C65.8545 20.7718 65.9473 21.2855 66.1329 21.723C66.3218 22.1605 66.587 22.5002 66.9284 22.7422C67.2731 22.9841 67.6774 23.1051 68.1414 23.1051C68.4464 23.1051 68.7231 23.0521 68.9717 22.946C69.2203 22.84 69.4307 22.6875 69.6031 22.4886C69.7754 22.2898 69.8981 22.0511 69.971 21.7727H71.1443C71.078 22.2235 70.9139 22.6295 70.6521 22.9908C70.3936 23.3487 70.0505 23.6338 69.623 23.8459C69.1987 24.0547 68.7049 24.1591 68.1414 24.1591ZM72.7195 24V16.3636H73.853V17.517H73.9326C74.0718 17.1392 74.3237 16.8326 74.6882 16.5973C75.0528 16.362 75.4638 16.2443 75.9212 16.2443C76.0074 16.2443 76.1151 16.246 76.2443 16.2493C76.3736 16.2526 76.4714 16.2576 76.5377 16.2642V17.4574C76.4979 17.4474 76.4068 17.4325 76.2642 17.4126C76.125 17.3894 75.9775 17.3778 75.8218 17.3778C75.4506 17.3778 75.1191 17.4557 74.8274 17.6115C74.5391 17.764 74.3104 17.9761 74.1414 18.2479C73.9756 18.5163 73.8928 18.8229 73.8928 19.1676V24H72.7195ZM80.7578 24.1591C80.022 24.1591 79.3873 23.9967 78.8536 23.6719C78.3233 23.3438 77.914 22.8864 77.6257 22.2997C77.3406 21.7098 77.1981 21.0237 77.1981 20.2415C77.1981 19.4593 77.3406 18.7699 77.6257 18.1733C77.914 17.5734 78.315 17.1061 78.8288 16.7713C79.3458 16.4332 79.949 16.2642 80.6384 16.2642C81.0362 16.2642 81.4289 16.3305 81.8167 16.4631C82.2045 16.5956 82.5575 16.8111 82.8757 17.1094C83.1938 17.4044 83.4474 17.7955 83.6363 18.2827C83.8252 18.7699 83.9197 19.3698 83.9197 20.0824V20.5795H78.0333V19.5653H82.7265C82.7265 19.1345 82.6403 18.75 82.468 18.4119C82.299 18.0739 82.057 17.8071 81.7421 17.6115C81.4306 17.416 81.0627 17.3182 80.6384 17.3182C80.1711 17.3182 79.7668 17.4342 79.4254 17.6662C79.0873 17.8949 78.8271 18.1932 78.6448 18.5611C78.4625 18.929 78.3714 19.3234 78.3714 19.7443V20.4205C78.3714 20.9972 78.4708 21.486 78.6697 21.8871C78.8719 22.2848 79.1519 22.5881 79.5099 22.7969C79.8678 23.0024 80.2838 23.1051 80.7578 23.1051C81.066 23.1051 81.3444 23.062 81.593 22.9759C81.8449 22.8864 82.062 22.7538 82.2443 22.5781C82.4266 22.3991 82.5674 22.1771 82.6668 21.9119L83.8004 22.2301C83.6811 22.6146 83.4805 22.9527 83.1988 23.2443C82.9171 23.5327 82.5691 23.758 82.1548 23.9205C81.7405 24.0795 81.2748 24.1591 80.7578 24.1591ZM87.8116 24.179C87.3277 24.179 86.8886 24.0878 86.4942 23.9055C86.0998 23.7199 85.7866 23.4531 85.5545 23.1051C85.3225 22.7538 85.2065 22.3295 85.2065 21.8324C85.2065 21.3949 85.2927 21.0402 85.4651 20.7685C85.6374 20.4934 85.8678 20.2779 86.1561 20.1222C86.4445 19.9664 86.7626 19.8504 87.1107 19.7741C87.462 19.6946 87.815 19.6316 88.1696 19.5852C88.6336 19.5256 89.0098 19.4808 89.2982 19.451C89.5898 19.4179 89.8019 19.3632 89.9345 19.2869C90.0704 19.2107 90.1384 19.0781 90.1384 18.8892V18.8494C90.1384 18.3589 90.0041 17.9777 89.7357 17.706C89.4705 17.4342 89.0678 17.2983 88.5276 17.2983C87.9674 17.2983 87.5283 17.4209 87.2101 17.6662C86.8919 17.9115 86.6682 18.1733 86.5389 18.4517L85.4253 18.054C85.6241 17.59 85.8893 17.2287 86.2207 16.9702C86.5555 16.7083 86.9201 16.526 87.3145 16.4233C87.7122 16.3172 88.1033 16.2642 88.4878 16.2642C88.733 16.2642 89.0148 16.294 89.333 16.3537C89.6544 16.41 89.9643 16.5277 90.2626 16.7067C90.5643 16.8857 90.8145 17.1558 91.0134 17.517C91.2122 17.8783 91.3116 18.3622 91.3116 18.9688V24H90.1384V22.9659H90.0787C89.9991 23.1316 89.8666 23.3089 89.681 23.4979C89.4954 23.6868 89.2484 23.8475 88.9402 23.9801C88.632 24.1127 88.2558 24.179 87.8116 24.179ZM87.9906 23.125C88.4546 23.125 88.8457 23.0339 89.1639 22.8516C89.4854 22.6693 89.7274 22.4339 89.8898 22.1456C90.0555 21.8572 90.1384 21.554 90.1384 21.2358V20.1619C90.0886 20.2216 89.9793 20.2763 89.8102 20.326C89.6445 20.3724 89.4523 20.4138 89.2335 20.4503C89.0181 20.4834 88.8076 20.5133 88.6021 20.5398C88.4 20.563 88.2359 20.5829 88.1099 20.5994C87.805 20.6392 87.52 20.7038 87.2548 20.7933C86.993 20.8795 86.7809 21.0104 86.6185 21.1861C86.4594 21.3584 86.3798 21.5937 86.3798 21.892C86.3798 22.2997 86.5306 22.608 86.8322 22.8168C87.1372 23.0223 87.5233 23.125 87.9906 23.125ZM96.6342 16.3636V17.358H92.6768V16.3636H96.6342ZM93.8302 14.5341H95.0035V21.8125C95.0035 22.1439 95.0516 22.3925 95.1477 22.5582C95.2471 22.7206 95.3731 22.83 95.5255 22.8864C95.6813 22.9394 95.8454 22.9659 96.0177 22.9659C96.147 22.9659 96.253 22.9593 96.3359 22.946C96.4187 22.9295 96.485 22.9162 96.5348 22.9062L96.7734 23.9602C96.6938 23.9901 96.5828 24.0199 96.4403 24.0497C96.2978 24.0829 96.1171 24.0994 95.8984 24.0994C95.5669 24.0994 95.2421 24.0282 94.924 23.8857C94.6091 23.7431 94.3473 23.526 94.1384 23.2344C93.933 22.9427 93.8302 22.5748 93.8302 22.1307V14.5341ZM101.379 24.1591C100.643 24.1591 100.008 23.9967 99.4747 23.6719C98.9443 23.3438 98.535 22.8864 98.2467 22.2997C97.9616 21.7098 97.8191 21.0237 97.8191 20.2415C97.8191 19.4593 97.9616 18.7699 98.2467 18.1733C98.535 17.5734 98.9361 17.1061 99.4498 16.7713C99.9668 16.4332 100.57 16.2642 101.259 16.2642C101.657 16.2642 102.05 16.3305 102.438 16.4631C102.826 16.5956 103.178 16.8111 103.497 17.1094C103.815 17.4044 104.068 17.7955 104.257 18.2827C104.446 18.7699 104.541 19.3698 104.541 20.0824V20.5795H98.6543V19.5653H103.348C103.348 19.1345 103.261 18.75 103.089 18.4119C102.92 18.0739 102.678 17.8071 102.363 17.6115C102.052 17.416 101.684 17.3182 101.259 17.3182C100.792 17.3182 100.388 17.4342 100.046 17.6662C99.7083 17.8949 99.4481 18.1932 99.2658 18.5611C99.0836 18.929 98.9924 19.3234 98.9924 19.7443V20.4205C98.9924 20.9972 99.0918 21.486 99.2907 21.8871C99.4929 22.2848 99.7729 22.5881 100.131 22.7969C100.489 23.0024 100.905 23.1051 101.379 23.1051C101.687 23.1051 101.965 23.062 102.214 22.9759C102.466 22.8864 102.683 22.7538 102.865 22.5781C103.048 22.3991 103.188 22.1771 103.288 21.9119L104.421 22.2301C104.302 22.6146 104.102 22.9527 103.82 23.2443C103.538 23.5327 103.19 23.758 102.776 23.9205C102.361 24.0795 101.896 24.1591 101.379 24.1591ZM109.069 24.1591C108.433 24.1591 107.871 23.9983 107.384 23.6768C106.896 23.352 106.515 22.8946 106.24 22.3047C105.965 21.7114 105.828 21.0104 105.828 20.2017C105.828 19.3996 105.965 18.7036 106.24 18.1136C106.515 17.5237 106.898 17.0679 107.389 16.7464C107.879 16.425 108.446 16.2642 109.089 16.2642C109.586 16.2642 109.979 16.3471 110.267 16.5128C110.559 16.6752 110.781 16.8608 110.933 17.0696C111.089 17.2751 111.21 17.4441 111.296 17.5767H111.396V13.8182H112.569V24H111.436V22.8267H111.296C111.21 22.9659 111.087 23.1416 110.928 23.3537C110.769 23.5625 110.542 23.7498 110.247 23.9155C109.952 24.0779 109.56 24.1591 109.069 24.1591ZM109.228 23.1051C109.699 23.1051 110.096 22.9825 110.421 22.7372C110.746 22.4886 110.993 22.1456 111.162 21.7081C111.331 21.2673 111.416 20.7585 111.416 20.1818C111.416 19.6117 111.333 19.1129 111.167 18.6854C111.001 18.2545 110.756 17.9197 110.431 17.6811C110.106 17.4392 109.705 17.3182 109.228 17.3182C108.731 17.3182 108.317 17.4458 107.985 17.701C107.657 17.9529 107.41 18.2959 107.244 18.7301C107.082 19.161 107.001 19.6449 107.001 20.1818C107.001 20.7254 107.084 21.2192 107.249 21.6634C107.418 22.1042 107.667 22.4555 107.995 22.7173C108.327 22.9759 108.738 23.1051 109.228 23.1051Z" fill="#191A1D"/>
<path d="M24.4205 36.6364C24.4205 37.5568 24.2543 38.3523 23.9219 39.0227C23.5895 39.6932 23.1335 40.2102 22.554 40.5739C21.9744 40.9375 21.3125 41.1193 20.5682 41.1193C19.8239 41.1193 19.1619 40.9375 18.5824 40.5739C18.0028 40.2102 17.5469 39.6932 17.2145 39.0227C16.8821 38.3523 16.7159 37.5568 16.7159 36.6364C16.7159 35.7159 16.8821 34.9205 17.2145 34.25C17.5469 33.5795 18.0028 33.0625 18.5824 32.6989C19.1619 32.3352 19.8239 32.1534 20.5682 32.1534C21.3125 32.1534 21.9744 32.3352 22.554 32.6989C23.1335 33.0625 23.5895 33.5795 23.9219 34.25C24.2543 34.9205 24.4205 35.7159 24.4205 36.6364ZM23.3977 36.6364C23.3977 35.8807 23.2713 35.2429 23.0185 34.723C22.7685 34.2031 22.429 33.8097 22 33.5426C21.5739 33.2756 21.0966 33.142 20.5682 33.142C20.0398 33.142 19.5611 33.2756 19.1321 33.5426C18.706 33.8097 18.3665 34.2031 18.1136 34.723C17.8636 35.2429 17.7386 35.8807 17.7386 36.6364C17.7386 37.392 17.8636 38.0298 18.1136 38.5497C18.3665 39.0696 18.706 39.4631 19.1321 39.7301C19.5611 39.9972 20.0398 40.1307 20.5682 40.1307C21.0966 40.1307 21.5739 39.9972 22 39.7301C22.429 39.4631 22.7685 39.0696 23.0185 38.5497C23.2713 38.0298 23.3977 37.392 23.3977 36.6364ZM28.6002 41.1364C27.9865 41.1364 27.4581 40.9915 27.0149 40.7017C26.5718 40.4119 26.2309 40.0128 25.9922 39.5043C25.7536 38.9957 25.6343 38.4148 25.6343 37.7614C25.6343 37.0966 25.7564 36.5099 26.0007 36.0014C26.2479 35.4901 26.5916 35.0909 27.032 34.804C27.4752 34.5142 27.9922 34.3693 28.5831 34.3693C29.0434 34.3693 29.4581 34.4545 29.8274 34.625C30.1968 34.7955 30.4993 35.0341 30.7351 35.3409C30.9709 35.6477 31.1172 36.0057 31.174 36.4148H30.1684C30.0916 36.1165 29.9212 35.8523 29.657 35.6222C29.3956 35.3892 29.0434 35.2727 28.6002 35.2727C28.2081 35.2727 27.8644 35.375 27.5689 35.5795C27.2763 35.7812 27.0476 36.0668 26.8828 36.4361C26.7209 36.8026 26.6399 37.233 26.6399 37.7273C26.6399 38.233 26.7195 38.6733 26.8786 39.0483C27.0405 39.4233 27.2678 39.7145 27.5604 39.9219C27.8559 40.1293 28.2024 40.233 28.6002 40.233C28.8615 40.233 29.0988 40.1875 29.3118 40.0966C29.5249 40.0057 29.7053 39.875 29.853 39.7045C30.0007 39.5341 30.1059 39.3295 30.1684 39.0909H31.174C31.1172 39.4773 30.9766 39.8253 30.7522 40.1349C30.5306 40.4418 30.2365 40.6861 29.8701 40.8679C29.5064 41.0469 29.0831 41.1364 28.6002 41.1364ZM35.3708 34.4545V35.3068H31.9788V34.4545H35.3708ZM32.9674 32.8864H33.9731V39.125C33.9731 39.4091 34.0143 39.6222 34.0966 39.7642C34.1819 39.9034 34.2898 39.9972 34.4205 40.0455C34.554 40.0909 34.6947 40.1136 34.8424 40.1136C34.9532 40.1136 35.0441 40.108 35.1151 40.0966C35.1861 40.0824 35.243 40.071 35.2856 40.0625L35.4901 40.9659C35.4219 40.9915 35.3268 41.017 35.2046 41.0426C35.0824 41.071 34.9276 41.0852 34.7401 41.0852C34.456 41.0852 34.1776 41.0241 33.9049 40.902C33.635 40.7798 33.4106 40.5938 33.2316 40.3438C33.0555 40.0938 32.9674 39.7784 32.9674 39.3977V32.8864ZM43.0697 32.2727V41H42.0129V33.3807H41.9618L39.8311 34.7955V33.7216L42.0129 32.2727H43.0697ZM48.3574 41.1193C47.9994 41.1136 47.6415 41.0455 47.2835 40.9148C46.9256 40.7841 46.5989 40.5639 46.3034 40.2543C46.008 39.9418 45.7707 39.5199 45.5918 38.9886C45.4128 38.4545 45.3233 37.7841 45.3233 36.9773C45.3233 36.2045 45.3957 35.5199 45.5406 34.9233C45.6855 34.3239 45.8957 33.8196 46.1713 33.4105C46.4469 32.9986 46.7793 32.6861 47.1685 32.473C47.5605 32.2599 48.0023 32.1534 48.4937 32.1534C48.9824 32.1534 49.417 32.2514 49.7977 32.4474C50.1812 32.6406 50.4937 32.9105 50.7352 33.2571C50.9767 33.6037 51.133 34.0028 51.204 34.4545H50.1642C50.0676 34.0625 49.8801 33.7372 49.6017 33.4787C49.3233 33.2202 48.954 33.0909 48.4937 33.0909C47.8176 33.0909 47.2849 33.3849 46.8957 33.973C46.5094 34.5611 46.3148 35.3864 46.3119 36.4489H46.3801C46.5392 36.2074 46.7281 36.0014 46.9469 35.831C47.1685 35.6577 47.4128 35.5241 47.6798 35.4304C47.9469 35.3366 48.2295 35.2898 48.5278 35.2898C49.0278 35.2898 49.4852 35.4148 49.9 35.6648C50.3148 35.9119 50.6472 36.2543 50.8972 36.6918C51.1472 37.1264 51.2722 37.625 51.2722 38.1875C51.2722 38.7273 51.1514 39.2216 50.9099 39.6705C50.6685 40.1165 50.329 40.4716 49.8915 40.7358C49.4568 40.9972 48.9455 41.125 48.3574 41.1193ZM48.3574 40.1818C48.7153 40.1818 49.0364 40.0923 49.3205 39.9134C49.6074 39.7344 49.8332 39.4943 49.998 39.1932C50.1656 38.892 50.2494 38.5568 50.2494 38.1875C50.2494 37.8267 50.1685 37.4986 50.0065 37.2031C49.8474 36.9048 49.6273 36.6676 49.346 36.4915C49.0676 36.3153 48.7494 36.2273 48.3915 36.2273C48.1216 36.2273 47.8702 36.2812 47.6372 36.3892C47.4043 36.4943 47.1997 36.6392 47.0236 36.8239C46.8503 37.0085 46.7139 37.2202 46.6145 37.4588C46.5151 37.6946 46.4653 37.9432 46.4653 38.2045C46.4653 38.5511 46.5463 38.875 46.7082 39.1761C46.873 39.4773 47.0974 39.7202 47.3815 39.9048C47.6685 40.0895 47.9937 40.1818 48.3574 40.1818ZM59.1852 31.8636L56.3727 42.3125H55.4523L58.2648 31.8636H59.1852ZM63.4953 41V40.233L66.376 37.0795C66.714 36.7102 66.9924 36.3892 67.2112 36.1165C67.4299 35.8409 67.5919 35.5824 67.697 35.3409C67.8049 35.0966 67.8589 34.8409 67.8589 34.5739C67.8589 34.267 67.7851 34.0014 67.6373 33.777C67.4924 33.5526 67.2936 33.3793 67.0407 33.2571C66.7879 33.1349 66.5038 33.0739 66.1885 33.0739C65.8532 33.0739 65.5606 33.1435 65.3106 33.2827C65.0635 33.419 64.8717 33.6108 64.7353 33.858C64.6018 34.1051 64.5351 34.3949 64.5351 34.7273H63.5294C63.5294 34.2159 63.6473 33.767 63.8831 33.3807C64.1189 32.9943 64.4399 32.6932 64.8461 32.4773C65.2552 32.2614 65.714 32.1534 66.2226 32.1534C66.7339 32.1534 67.187 32.2614 67.5819 32.4773C67.9768 32.6932 68.2865 32.9844 68.5109 33.3509C68.7353 33.7173 68.8476 34.125 68.8476 34.5739C68.8476 34.8949 68.7893 35.2088 68.6728 35.5156C68.5592 35.8196 68.3603 36.1591 68.0762 36.5341C67.795 36.9062 67.4044 37.3608 66.9044 37.8977L64.9441 39.9943V40.0625H69.001V41H63.4953ZM73.7091 32.2727V41H72.6523V33.3807H72.6011L70.4705 34.7955V33.7216L72.6523 32.2727H73.7091ZM83.1211 36.1676V37.1051H79.3029V36.1676H83.1211ZM95.0824 32.2727V41H94.0597L89.304 34.1477H89.2188V41H88.162V32.2727H89.1847L93.9574 39.142H94.0427V32.2727H95.0824ZM99.5999 41.1364C99.0089 41.1364 98.4905 40.9957 98.0445 40.7145C97.6013 40.4332 97.2547 40.0398 97.0047 39.5341C96.7575 39.0284 96.6339 38.4375 96.6339 37.7614C96.6339 37.0795 96.7575 36.4844 97.0047 35.9759C97.2547 35.4673 97.6013 35.0724 98.0445 34.7912C98.4905 34.5099 99.0089 34.3693 99.5999 34.3693C100.191 34.3693 100.708 34.5099 101.151 34.7912C101.597 35.0724 101.944 35.4673 102.191 35.9759C102.441 36.4844 102.566 37.0795 102.566 37.7614C102.566 38.4375 102.441 39.0284 102.191 39.5341C101.944 40.0398 101.597 40.4332 101.151 40.7145C100.708 40.9957 100.191 41.1364 99.5999 41.1364ZM99.5999 40.233C100.049 40.233 100.418 40.1179 100.708 39.8878C100.998 39.6577 101.212 39.3551 101.351 38.9801C101.49 38.6051 101.56 38.1989 101.56 37.7614C101.56 37.3239 101.49 36.9162 101.351 36.5384C101.212 36.1605 100.998 35.8551 100.708 35.6222C100.418 35.3892 100.049 35.2727 99.5999 35.2727C99.151 35.2727 98.7817 35.3892 98.4919 35.6222C98.2021 35.8551 97.9876 36.1605 97.8484 36.5384C97.7092 36.9162 97.6396 37.3239 97.6396 37.7614C97.6396 38.1989 97.7092 38.6051 97.8484 38.9801C97.9876 39.3551 98.2021 39.6577 98.4919 39.8878C98.7817 40.1179 99.151 40.233 99.5999 40.233ZM109.099 34.4545L106.678 41H105.656L103.235 34.4545H104.326L106.133 39.6705H106.201L108.008 34.4545H109.099ZM116.612 32.2727V41H115.556V33.3807H115.504L113.374 34.7955V33.7216L115.556 32.2727H116.612ZM118.798 39.2102V38.3409L122.633 32.2727H123.264V33.6193H122.838L119.94 38.2045V38.2727H125.105V39.2102H118.798ZM122.906 41V38.946V38.5412V32.2727H123.911V41H122.906ZM132.939 31.8636L130.126 42.3125H129.206L132.018 31.8636H132.939ZM137.249 41V40.233L140.13 37.0795C140.468 36.7102 140.746 36.3892 140.965 36.1165C141.184 35.8409 141.345 35.5824 141.451 35.3409C141.559 35.0966 141.613 34.8409 141.613 34.5739C141.613 34.267 141.539 34.0014 141.391 33.777C141.246 33.5526 141.047 33.3793 140.794 33.2571C140.541 33.1349 140.257 33.0739 139.942 33.0739C139.607 33.0739 139.314 33.1435 139.064 33.2827C138.817 33.419 138.625 33.6108 138.489 33.858C138.355 34.1051 138.289 34.3949 138.289 34.7273H137.283C137.283 34.2159 137.401 33.767 137.637 33.3807C137.872 32.9943 138.193 32.6932 138.6 32.4773C139.009 32.2614 139.468 32.1534 139.976 32.1534C140.488 32.1534 140.941 32.2614 141.336 32.4773C141.73 32.6932 142.04 32.9844 142.265 33.3509C142.489 33.7173 142.601 34.125 142.601 34.5739C142.601 34.8949 142.543 35.2088 142.426 35.5156C142.313 35.8196 142.114 36.1591 141.83 36.5341C141.549 36.9062 141.158 37.3608 140.658 37.8977L138.698 39.9943V40.0625H142.755V41H137.249ZM147.463 32.2727V41H146.406V33.3807H146.355L144.224 34.7955V33.7216L146.406 32.2727H147.463Z" fill="#5C697C"/>
<path d="M21.9801 98.8182V80.6364H23.1449V98.8182H21.9801ZM25.3395 86.4531C25.2732 85.8329 24.9938 85.3499 24.5014 85.0043C24.0137 84.6586 23.3793 84.4858 22.598 84.4858C22.0488 84.4858 21.5777 84.5687 21.1847 84.7344C20.7917 84.9001 20.491 85.125 20.2827 85.4091C20.0743 85.6932 19.9678 86.0175 19.9631 86.3821C19.9631 86.6851 20.0317 86.9479 20.169 87.1705C20.3111 87.393 20.5028 87.5824 20.7443 87.7386C20.9858 87.8902 21.2533 88.018 21.5469 88.1222C21.8404 88.2263 22.1364 88.3139 22.4347 88.3849L23.7983 88.7259C24.3475 88.8537 24.8755 89.0265 25.3821 89.2443C25.8935 89.4621 26.3504 89.7367 26.7528 90.0682C27.16 90.3996 27.482 90.7997 27.7188 91.2685C27.9555 91.7372 28.0739 92.2865 28.0739 92.9162C28.0739 93.7685 27.8561 94.5189 27.4205 95.1676C26.9848 95.8116 26.3551 96.3158 25.5312 96.6804C24.7121 97.0402 23.7202 97.2202 22.5554 97.2202C21.4238 97.2202 20.4413 97.045 19.608 96.6946C18.7794 96.3442 18.1307 95.8329 17.6619 95.1605C17.1979 94.4882 16.947 93.669 16.9091 92.7031H19.5014C19.5393 93.2098 19.6955 93.6312 19.9702 93.9673C20.2448 94.3035 20.6023 94.5545 21.0426 94.7202C21.4877 94.8859 21.9848 94.9688 22.5341 94.9688C23.107 94.9688 23.6089 94.8835 24.0398 94.7131C24.4754 94.5379 24.8163 94.2964 25.0625 93.9886C25.3087 93.6761 25.4342 93.3116 25.4389 92.8949C25.4342 92.5161 25.3229 92.2036 25.1051 91.9574C24.8873 91.7064 24.5819 91.4981 24.1889 91.3324C23.8007 91.1619 23.3461 91.0104 22.8253 90.8778L21.1705 90.4517C19.9725 90.1439 19.0256 89.6776 18.3295 89.0526C17.6383 88.4228 17.2926 87.5871 17.2926 86.5455C17.2926 85.6884 17.5246 84.938 17.9886 84.294C18.4574 83.6501 19.0942 83.1506 19.8991 82.7955C20.7041 82.4356 21.6155 82.2557 22.6335 82.2557C23.6657 82.2557 24.5701 82.4356 25.3466 82.7955C26.1278 83.1506 26.741 83.6454 27.1861 84.2798C27.6312 84.9096 27.8608 85.634 27.875 86.4531H25.3395ZM35.7971 82.4545V97H33.1621V85.0185H33.0769L29.6749 87.1918V84.777L33.29 82.4545H35.7971ZM44.3104 97.1989C43.2877 97.1989 42.3786 97.0237 41.5832 96.6733C40.7924 96.3229 40.1674 95.8352 39.7082 95.2102C39.2489 94.5852 39.005 93.8632 38.9766 93.044H41.6471C41.6708 93.437 41.801 93.7803 42.0377 94.0739C42.2745 94.3627 42.5893 94.5876 42.9823 94.7486C43.3753 94.9096 43.8156 94.9901 44.3033 94.9901C44.8242 94.9901 45.2858 94.9001 45.6883 94.7202C46.0907 94.5355 46.4056 94.2798 46.6329 93.9531C46.8602 93.6264 46.9714 93.25 46.9667 92.8239C46.9714 92.3835 46.8578 91.9953 46.6258 91.6591C46.3938 91.3229 46.0576 91.0601 45.6173 90.8707C45.1817 90.6813 44.6561 90.5866 44.0406 90.5866H42.755V88.5554H44.0406C44.5472 88.5554 44.9899 88.4678 45.3687 88.2926C45.7522 88.1174 46.0529 87.8712 46.2707 87.554C46.4885 87.232 46.595 86.8603 46.5903 86.4389C46.595 86.027 46.5027 85.6695 46.3133 85.3665C46.1286 85.0587 45.8658 84.8196 45.5249 84.6491C45.1888 84.4787 44.7934 84.3935 44.3389 84.3935C43.8938 84.3935 43.4818 84.474 43.1031 84.6349C42.7243 84.7959 42.4189 85.0256 42.1869 85.3239C41.9549 85.6174 41.8317 85.9678 41.8175 86.375H39.282C39.301 85.5606 39.5353 84.8456 39.9852 84.2301C40.4397 83.6098 41.0458 83.1269 41.8033 82.7812C42.5609 82.4309 43.4108 82.2557 44.3531 82.2557C45.3237 82.2557 46.1665 82.438 46.8815 82.8026C47.6012 83.1624 48.1575 83.6477 48.5505 84.2585C48.9435 84.8693 49.14 85.544 49.14 86.2827C49.1447 87.1018 48.9032 87.7884 48.4156 88.3423C47.9326 88.8963 47.2981 89.2585 46.5121 89.429V89.5426C47.5349 89.6847 48.3185 90.0634 48.863 90.679C49.4122 91.2898 49.6845 92.0497 49.6798 92.9588C49.6798 93.7732 49.4478 94.5024 48.9837 95.1463C48.5245 95.7855 47.89 96.2874 47.0803 96.652C46.2754 97.0166 45.3521 97.1989 44.3104 97.1989ZM51.4548 94.3011V92.206L57.6267 82.4545H59.3739V85.4375H58.3085L54.1537 92.0213V92.1349H62.7687V94.3011H51.4548ZM58.3937 97V93.6619L58.4222 92.7244V82.4545H60.908V97H58.3937ZM67.2746 95.0114L67.1823 95.7926C67.116 96.3892 66.9977 96.9953 66.8272 97.6108C66.6615 98.2311 66.4863 98.8016 66.3016 99.3224C66.117 99.8433 65.9678 100.253 65.8542 100.551H64.1212C64.1875 100.262 64.2775 99.8693 64.3911 99.3722C64.5095 98.875 64.6231 98.3163 64.732 97.696C64.8409 97.0758 64.9143 96.446 64.9522 95.8068L65.0019 95.0114H67.2746ZM74.5611 82.2557C75.2571 82.2604 75.9342 82.3835 76.5923 82.625C77.2552 82.8617 77.8518 83.25 78.3821 83.7898C78.9124 84.3248 79.3338 85.0421 79.6463 85.9418C79.9588 86.8414 80.1151 87.9541 80.1151 89.2798C80.1198 90.5298 79.9872 91.6473 79.7173 92.6321C79.4522 93.6122 79.071 94.4408 78.5739 95.1179C78.0767 95.795 77.4777 96.3111 76.777 96.6662C76.0762 97.0213 75.2879 97.1989 74.4119 97.1989C73.4934 97.1989 72.679 97.0189 71.9688 96.6591C71.2633 96.2992 70.6927 95.8068 70.2571 95.1818C69.8215 94.5568 69.554 93.8419 69.4545 93.0369H72.0469C72.1795 93.6146 72.4493 94.0739 72.8565 94.4148C73.2685 94.7509 73.7869 94.919 74.4119 94.919C75.4205 94.919 76.197 94.4811 76.7415 93.6051C77.286 92.7292 77.5582 91.5123 77.5582 89.9545H77.4588C77.2268 90.3712 76.9261 90.7311 76.5568 91.0341C76.1875 91.3324 75.7685 91.562 75.2997 91.723C74.8357 91.884 74.3433 91.9645 73.8224 91.9645C72.9702 91.9645 72.2031 91.7609 71.5213 91.3537C70.8442 90.9465 70.3068 90.3878 69.9091 89.6776C69.5161 88.9673 69.3172 88.1553 69.3125 87.2415C69.3125 86.2945 69.5303 85.4446 69.9659 84.6918C70.4063 83.9342 71.0194 83.3376 71.8054 82.902C72.5914 82.4616 73.5099 82.2462 74.5611 82.2557ZM74.5682 84.3864C74.0568 84.3864 73.5952 84.5118 73.1832 84.7628C72.776 85.009 72.4541 85.3452 72.2173 85.7713C71.9853 86.1927 71.8693 86.6638 71.8693 87.1847C71.8741 87.7008 71.9901 88.1695 72.2173 88.5909C72.4493 89.0123 72.7642 89.3461 73.1619 89.5923C73.5644 89.8385 74.0237 89.9616 74.5398 89.9616C74.9233 89.9616 75.2808 89.8883 75.6122 89.7415C75.9437 89.5947 76.2325 89.3911 76.4787 89.1307C76.7296 88.8655 76.9238 88.5649 77.0611 88.2287C77.2031 87.8925 77.2718 87.5374 77.267 87.1634C77.267 86.6662 77.1487 86.2069 76.9119 85.7855C76.6799 85.3641 76.3603 85.0256 75.9531 84.7699C75.5507 84.5142 75.089 84.3864 74.5682 84.3864ZM82.2222 97L88.4082 84.7557V84.6562H81.2278V82.4545H91.1355V84.706L84.9565 97H82.2222ZM98.0917 97.277C96.9222 97.277 95.9184 96.9811 95.0803 96.3892C94.247 95.7926 93.6054 94.9332 93.1556 93.8111C92.7105 92.6842 92.488 91.3277 92.488 89.7415C92.4927 88.1553 92.7176 86.8059 93.1627 85.6932C93.6125 84.5758 94.2541 83.7235 95.0874 83.1364C95.9255 82.5492 96.9269 82.2557 98.0917 82.2557C99.2565 82.2557 100.258 82.5492 101.096 83.1364C101.934 83.7235 102.576 84.5758 103.021 85.6932C103.47 86.8106 103.695 88.16 103.695 89.7415C103.695 91.3324 103.47 92.6913 103.021 93.8182C102.576 94.9403 101.934 95.7973 101.096 96.3892C100.263 96.9811 99.2612 97.277 98.0917 97.277ZM98.0917 95.054C99.0008 95.054 99.7181 94.6065 100.244 93.7116C100.774 92.812 101.039 91.4886 101.039 89.7415C101.039 88.5862 100.918 87.6155 100.677 86.8295C100.435 86.0436 100.095 85.4517 99.6542 85.054C99.2138 84.6515 98.693 84.4503 98.0917 84.4503C97.1873 84.4503 96.4724 84.9001 95.9468 85.7997C95.4212 86.6946 95.1561 88.0085 95.1513 89.7415C95.1466 90.9015 95.2626 91.8769 95.4994 92.6676C95.7408 93.4583 96.0817 94.0549 96.5221 94.4574C96.9624 94.8551 97.4856 95.054 98.0917 95.054Z" fill="#191A1D"/>
<path d="M19.4773 117.091V106.182H20.1761V117.091H19.4773ZM21.8295 109.455C21.7784 109.023 21.571 108.688 21.2074 108.449C20.8438 108.21 20.3977 108.091 19.8693 108.091C19.483 108.091 19.1449 108.153 18.8551 108.278C18.5682 108.403 18.3438 108.575 18.1818 108.794C18.0227 109.013 17.9432 109.261 17.9432 109.54C17.9432 109.773 17.9986 109.973 18.1094 110.141C18.223 110.305 18.3679 110.443 18.544 110.554C18.7202 110.662 18.9048 110.751 19.098 110.822C19.2912 110.891 19.4688 110.946 19.6307 110.989L20.517 111.227C20.7443 111.287 20.9972 111.369 21.2756 111.474C21.5568 111.58 21.8253 111.723 22.081 111.905C22.3395 112.084 22.5526 112.314 22.7202 112.595C22.8878 112.876 22.9716 113.222 22.9716 113.631C22.9716 114.102 22.848 114.528 22.6009 114.909C22.3565 115.29 21.9986 115.592 21.527 115.817C21.0582 116.041 20.4886 116.153 19.8182 116.153C19.1932 116.153 18.652 116.053 18.1946 115.851C17.7401 115.649 17.3821 115.368 17.1207 115.007C16.8622 114.646 16.7159 114.227 16.6818 113.75H17.7727C17.8011 114.08 17.9119 114.352 18.1051 114.568C18.3011 114.781 18.5483 114.94 18.8466 115.045C19.1477 115.148 19.4716 115.199 19.8182 115.199C20.2216 115.199 20.5838 115.134 20.9048 115.003C21.2259 114.869 21.4801 114.685 21.6676 114.449C21.8551 114.21 21.9489 113.932 21.9489 113.614C21.9489 113.324 21.8679 113.088 21.706 112.906C21.544 112.724 21.331 112.577 21.0668 112.463C20.8026 112.349 20.517 112.25 20.2102 112.165L19.1364 111.858C18.4545 111.662 17.9148 111.382 17.517 111.018C17.1193 110.655 16.9205 110.179 16.9205 109.591C16.9205 109.102 17.0526 108.676 17.3168 108.312C17.5838 107.946 17.9418 107.662 18.3906 107.46C18.8423 107.256 19.3466 107.153 19.9034 107.153C20.4659 107.153 20.9659 107.254 21.4034 107.456C21.8409 107.655 22.1875 107.928 22.4432 108.274C22.7017 108.621 22.8381 109.014 22.8523 109.455H21.8295ZM27.3846 116.119C26.8221 116.119 26.3207 116.023 25.8804 115.83C25.4429 115.636 25.0948 115.368 24.8363 115.024C24.5806 114.678 24.4414 114.276 24.4187 113.818H25.4926C25.5153 114.099 25.6119 114.342 25.7823 114.547C25.9528 114.749 26.1758 114.905 26.4514 115.016C26.7269 115.126 27.0323 115.182 27.3676 115.182C27.7426 115.182 28.075 115.116 28.3647 114.986C28.6545 114.855 28.8818 114.673 29.0465 114.44C29.2113 114.207 29.2937 113.938 29.2937 113.631C29.2937 113.31 29.2142 113.027 29.0551 112.783C28.896 112.536 28.663 112.342 28.3562 112.203C28.0494 112.064 27.6744 111.994 27.2312 111.994H26.5323V111.057H27.2312C27.5778 111.057 27.8818 110.994 28.1431 110.869C28.4073 110.744 28.6133 110.568 28.761 110.341C28.9116 110.114 28.9869 109.847 28.9869 109.54C28.9869 109.244 28.9215 108.987 28.7909 108.768C28.6602 108.55 28.4755 108.379 28.2369 108.257C28.0011 108.135 27.7227 108.074 27.4017 108.074C27.1005 108.074 26.8164 108.129 26.5494 108.24C26.2852 108.348 26.0693 108.506 25.9017 108.713C25.734 108.918 25.6431 109.165 25.6289 109.455H24.6062C24.6233 108.997 24.761 108.597 25.0196 108.253C25.2781 107.906 25.6162 107.636 26.0338 107.443C26.4542 107.25 26.9159 107.153 27.4187 107.153C27.9585 107.153 28.4215 107.263 28.8079 107.482C29.1943 107.697 29.4912 107.983 29.6985 108.338C29.9059 108.693 30.0096 109.077 30.0096 109.489C30.0096 109.98 29.8804 110.399 29.6218 110.746C29.3662 111.092 29.0181 111.332 28.5778 111.466V111.534C29.1289 111.625 29.5593 111.859 29.869 112.237C30.1787 112.612 30.3335 113.077 30.3335 113.631C30.3335 114.105 30.2042 114.531 29.9457 114.909C29.69 115.284 29.3406 115.58 28.8974 115.795C28.4542 116.011 27.95 116.119 27.3846 116.119ZM34.803 116.119C34.1609 116.119 33.614 115.945 33.1623 115.595C32.7106 115.243 32.3655 114.733 32.1268 114.065C31.8882 113.395 31.7689 112.585 31.7689 111.636C31.7689 110.693 31.8882 109.888 32.1268 109.22C32.3683 108.55 32.7149 108.038 33.1666 107.686C33.6212 107.331 34.1666 107.153 34.803 107.153C35.4393 107.153 35.9834 107.331 36.4351 107.686C36.8896 108.038 37.2362 108.55 37.4748 109.22C37.7163 109.888 37.8371 110.693 37.8371 111.636C37.8371 112.585 37.7177 113.395 37.4791 114.065C37.2405 114.733 36.8953 115.243 36.4436 115.595C35.9919 115.945 35.445 116.119 34.803 116.119ZM34.803 115.182C35.4393 115.182 35.9337 114.875 36.2859 114.261C36.6382 113.648 36.8143 112.773 36.8143 111.636C36.8143 110.881 36.7334 110.237 36.5714 109.706C36.4123 109.175 36.1822 108.77 35.8811 108.491C35.5828 108.213 35.2234 108.074 34.803 108.074C34.1723 108.074 33.6794 108.385 33.3243 109.007C32.9692 109.626 32.7916 110.503 32.7916 111.636C32.7916 112.392 32.8712 113.034 33.0302 113.562C33.1893 114.091 33.418 114.493 33.7163 114.768C34.0175 115.044 34.3797 115.182 34.803 115.182ZM40.5487 114.807L40.4806 115.267C40.4323 115.591 40.3584 115.938 40.259 116.307C40.1624 116.676 40.0615 117.024 39.9564 117.351C39.8513 117.678 39.7646 117.938 39.6965 118.131H38.9294C38.9663 117.949 39.0146 117.709 39.0743 117.411C39.134 117.112 39.1936 116.778 39.2533 116.409C39.3158 116.043 39.3669 115.668 39.4067 115.284L39.4578 114.807H40.5487ZM42.0704 114.21V113.341L45.9057 107.273H46.5363V108.619H46.1102L43.2125 113.205V113.273H48.3772V114.21H42.0704ZM46.1784 116V113.946V113.541V107.273H47.1841V116H46.1784ZM52.5815 116.119C52.0815 116.119 51.6312 116.02 51.2306 115.821C50.83 115.622 50.509 115.349 50.2675 115.003C50.0261 114.656 49.894 114.261 49.8712 113.818H50.894C50.9337 114.213 51.1127 114.54 51.4309 114.798C51.7519 115.054 52.1354 115.182 52.5815 115.182C52.9394 115.182 53.2576 115.098 53.536 114.93C53.8173 114.763 54.0374 114.533 54.1965 114.24C54.3585 113.945 54.4394 113.611 54.4394 113.239C54.4394 112.858 54.3556 112.518 54.188 112.22C54.0232 111.919 53.796 111.682 53.5062 111.509C53.2164 111.335 52.8854 111.247 52.5133 111.244C52.2462 111.241 51.9721 111.283 51.6908 111.368C51.4096 111.45 51.1781 111.557 50.9962 111.688L50.0076 111.568L50.536 107.273H55.0701V108.21H51.4224L51.1156 110.784H51.1667C51.3457 110.642 51.5701 110.524 51.84 110.43C52.1099 110.337 52.3911 110.29 52.6837 110.29C53.2178 110.29 53.6937 110.418 54.1113 110.673C54.5317 110.926 54.8613 111.273 55.0999 111.713C55.3414 112.153 55.4621 112.656 55.4621 113.222C55.4621 113.778 55.3371 114.276 55.0871 114.713C54.84 115.148 54.4991 115.491 54.0644 115.744C53.6298 115.994 53.1354 116.119 52.5815 116.119ZM60.1032 107.273V116H59.0463V108.381H58.9952L56.8645 109.795V108.722L59.0463 107.273H60.1032ZM68.6117 109.455V110.307H65.2197V109.455H68.6117ZM66.2083 107.886H67.214V114.125C67.214 114.409 67.2552 114.622 67.3376 114.764C67.4228 114.903 67.5308 114.997 67.6614 115.045C67.795 115.091 67.9356 115.114 68.0833 115.114C68.1941 115.114 68.285 115.108 68.3561 115.097C68.4271 115.082 68.4839 115.071 68.5265 115.062L68.7311 115.966C68.6629 115.991 68.5677 116.017 68.4455 116.043C68.3234 116.071 68.1686 116.085 67.9811 116.085C67.697 116.085 67.4186 116.024 67.1458 115.902C66.8759 115.78 66.6515 115.594 66.4725 115.344C66.2964 115.094 66.2083 114.778 66.2083 114.398V107.886ZM72.5933 116.136C72.0024 116.136 71.4839 115.996 71.0379 115.714C70.5947 115.433 70.2481 115.04 69.9981 114.534C69.751 114.028 69.6274 113.437 69.6274 112.761C69.6274 112.08 69.751 111.484 69.9981 110.976C70.2481 110.467 70.5947 110.072 71.0379 109.791C71.4839 109.51 72.0024 109.369 72.5933 109.369C73.1842 109.369 73.7012 109.51 74.1444 109.791C74.5905 110.072 74.937 110.467 75.1842 110.976C75.4342 111.484 75.5592 112.08 75.5592 112.761C75.5592 113.437 75.4342 114.028 75.1842 114.534C74.937 115.04 74.5905 115.433 74.1444 115.714C73.7012 115.996 73.1842 116.136 72.5933 116.136ZM72.5933 115.233C73.0422 115.233 73.4115 115.118 73.7012 114.888C73.991 114.658 74.2055 114.355 74.3447 113.98C74.4839 113.605 74.5535 113.199 74.5535 112.761C74.5535 112.324 74.4839 111.916 74.3447 111.538C74.2055 111.161 73.991 110.855 73.7012 110.622C73.4115 110.389 73.0422 110.273 72.5933 110.273C72.1444 110.273 71.7751 110.389 71.4853 110.622C71.1956 110.855 70.9811 111.161 70.8419 111.538C70.7027 111.916 70.6331 112.324 70.6331 112.761C70.6331 113.199 70.7027 113.605 70.8419 113.98C70.9811 114.355 71.1956 114.658 71.4853 114.888C71.7751 115.118 72.1444 115.233 72.5933 115.233ZM79.446 116.136C78.9005 116.136 78.419 115.999 78.0013 115.723C77.5837 115.445 77.257 115.053 77.0212 114.547C76.7854 114.038 76.6675 113.438 76.6675 112.744C76.6675 112.057 76.7854 111.46 77.0212 110.955C77.257 110.449 77.5852 110.058 78.0056 109.783C78.4261 109.507 78.9119 109.369 79.463 109.369C79.8891 109.369 80.2258 109.44 80.4729 109.582C80.7229 109.722 80.9133 109.881 81.044 110.06C81.1775 110.236 81.2812 110.381 81.355 110.494H81.4403V107.273H82.446V116H81.4744V114.994H81.355C81.2812 115.114 81.1761 115.264 81.0397 115.446C80.9033 115.625 80.7087 115.786 80.4559 115.928C80.2031 116.067 79.8664 116.136 79.446 116.136ZM79.5823 115.233C79.9857 115.233 80.3266 115.128 80.605 114.918C80.8835 114.705 81.0951 114.411 81.24 114.036C81.3849 113.658 81.4573 113.222 81.4573 112.727C81.4573 112.239 81.3863 111.811 81.2442 111.445C81.1022 111.075 80.892 110.788 80.6136 110.584C80.3352 110.376 79.9914 110.273 79.5823 110.273C79.1562 110.273 78.8011 110.382 78.517 110.601C78.2357 110.817 78.0241 111.111 77.882 111.483C77.7428 111.852 77.6732 112.267 77.6732 112.727C77.6732 113.193 77.7442 113.616 77.8863 113.997C78.0312 114.375 78.2442 114.676 78.5255 114.901C78.8096 115.122 79.1619 115.233 79.5823 115.233ZM86.2336 116.153C85.8188 116.153 85.4424 116.075 85.1044 115.919C84.7663 115.76 84.4978 115.531 84.299 115.233C84.1001 114.932 84.0007 114.568 84.0007 114.142C84.0007 113.767 84.0745 113.463 84.2223 113.23C84.37 112.994 84.5674 112.81 84.8146 112.676C85.0617 112.543 85.3345 112.443 85.6328 112.378C85.9339 112.31 86.2365 112.256 86.5404 112.216C86.9382 112.165 87.2606 112.126 87.5078 112.101C87.7578 112.072 87.9396 112.026 88.0532 111.96C88.1697 111.895 88.2279 111.781 88.2279 111.619V111.585C88.2279 111.165 88.1129 110.838 87.8828 110.605C87.6555 110.372 87.3103 110.256 86.8473 110.256C86.3671 110.256 85.9907 110.361 85.718 110.571C85.4453 110.781 85.2535 111.006 85.1427 111.244L84.1882 110.903C84.3586 110.506 84.5859 110.196 84.87 109.974C85.1569 109.75 85.4694 109.594 85.8075 109.506C86.1484 109.415 86.4836 109.369 86.8132 109.369C87.0234 109.369 87.2649 109.395 87.5376 109.446C87.8132 109.494 88.0788 109.595 88.3345 109.749C88.593 109.902 88.8075 110.134 88.9779 110.443C89.1484 110.753 89.2336 111.168 89.2336 111.688V116H88.2279V115.114H88.1768C88.1086 115.256 87.995 115.408 87.8359 115.57C87.6768 115.732 87.4652 115.869 87.201 115.983C86.9367 116.097 86.6143 116.153 86.2336 116.153ZM86.387 115.25C86.7848 115.25 87.12 115.172 87.3927 115.016C87.6683 114.859 87.8757 114.658 88.0149 114.411C88.1569 114.163 88.2279 113.903 88.2279 113.631V112.71C88.1853 112.761 88.0916 112.808 87.9467 112.851C87.8046 112.891 87.6399 112.926 87.4524 112.957C87.2677 112.986 87.0873 113.011 86.9112 113.034C86.7379 113.054 86.5973 113.071 86.4893 113.085C86.2279 113.119 85.9836 113.175 85.7563 113.251C85.5319 113.325 85.3501 113.437 85.2109 113.588C85.0745 113.736 85.0063 113.937 85.0063 114.193C85.0063 114.543 85.1356 114.807 85.3941 114.986C85.6555 115.162 85.9865 115.25 86.387 115.25ZM91.3626 118.455C91.1921 118.455 91.0401 118.44 90.9066 118.412C90.7731 118.386 90.6807 118.361 90.6296 118.335L90.8853 117.449C91.1296 117.511 91.3455 117.534 91.533 117.517C91.7205 117.5 91.8867 117.416 92.0316 117.266C92.1793 117.118 92.3143 116.878 92.4364 116.545L92.6239 116.034L90.2035 109.455H91.2944L93.1012 114.67H93.1694L94.9762 109.455H96.0671L93.2887 116.955C93.1637 117.293 93.0089 117.572 92.8242 117.794C92.6395 118.018 92.4251 118.185 92.1807 118.293C91.9393 118.401 91.6665 118.455 91.3626 118.455Z" fill="#5C697C"/>
<path d="M140.078 114.465C140.235 114.465 140.349 114.398 140.422 114.264C140.496 114.129 140.491 113.996 140.407 113.865L136.556 107.719C136.478 107.596 136.37 107.535 136.23 107.535C136.091 107.535 135.981 107.596 135.901 107.719L132.063 113.865C131.984 113.996 131.979 114.129 132.051 114.264C132.122 114.398 132.236 114.465 132.392 114.465H140.078Z" fill="#388E3C"/>
<path d="M147.091 106.773V115.5H146.035V107.881H145.983L143.853 109.295V108.222L146.035 106.773H147.091ZM149.481 115.5V114.733L152.362 111.58C152.7 111.21 152.979 110.889 153.197 110.616C153.416 110.341 153.578 110.082 153.683 109.841C153.791 109.597 153.845 109.341 153.845 109.074C153.845 108.767 153.771 108.501 153.623 108.277C153.479 108.053 153.28 107.879 153.027 107.757C152.774 107.635 152.49 107.574 152.175 107.574C151.839 107.574 151.547 107.643 151.297 107.783C151.05 107.919 150.858 108.111 150.721 108.358C150.588 108.605 150.521 108.895 150.521 109.227H149.515C149.515 108.716 149.633 108.267 149.869 107.881C150.105 107.494 150.426 107.193 150.832 106.977C151.241 106.761 151.7 106.653 152.209 106.653C152.72 106.653 153.173 106.761 153.568 106.977C153.963 107.193 154.273 107.484 154.497 107.851C154.721 108.217 154.834 108.625 154.834 109.074C154.834 109.395 154.775 109.709 154.659 110.016C154.545 110.32 154.346 110.659 154.062 111.034C153.781 111.406 153.39 111.861 152.89 112.398L150.93 114.494V114.562H154.987V115.5H149.481ZM161.076 113.864V113.403C161.076 113.085 161.141 112.794 161.272 112.53C161.405 112.263 161.599 112.05 161.851 111.891C162.107 111.729 162.417 111.648 162.78 111.648C163.15 111.648 163.459 111.729 163.709 111.891C163.959 112.05 164.148 112.263 164.276 112.53C164.404 112.794 164.468 113.085 164.468 113.403V113.864C164.468 114.182 164.403 114.474 164.272 114.741C164.144 115.006 163.954 115.219 163.701 115.381C163.451 115.54 163.144 115.619 162.78 115.619C162.411 115.619 162.1 115.54 161.847 115.381C161.594 115.219 161.403 115.006 161.272 114.741C161.141 114.474 161.076 114.182 161.076 113.864ZM161.945 113.403V113.864C161.945 114.128 162.008 114.365 162.133 114.575C162.258 114.783 162.474 114.886 162.78 114.886C163.079 114.886 163.289 114.783 163.411 114.575C163.536 114.365 163.599 114.128 163.599 113.864V113.403C163.599 113.139 163.539 112.903 163.42 112.696C163.3 112.486 163.087 112.381 162.78 112.381C162.482 112.381 162.268 112.486 162.137 112.696C162.009 112.903 161.945 113.139 161.945 113.403ZM156.729 108.869V108.409C156.729 108.091 156.795 107.8 156.925 107.536C157.059 107.268 157.252 107.055 157.505 106.896C157.761 106.734 158.07 106.653 158.434 106.653C158.803 106.653 159.113 106.734 159.363 106.896C159.613 107.055 159.802 107.268 159.93 107.536C160.057 107.8 160.121 108.091 160.121 108.409V108.869C160.121 109.187 160.056 109.48 159.925 109.747C159.797 110.011 159.607 110.224 159.354 110.386C159.104 110.545 158.797 110.625 158.434 110.625C158.064 110.625 157.753 110.545 157.501 110.386C157.248 110.224 157.056 110.011 156.925 109.747C156.795 109.48 156.729 109.187 156.729 108.869ZM157.599 108.409V108.869C157.599 109.134 157.661 109.371 157.786 109.581C157.911 109.788 158.127 109.892 158.434 109.892C158.732 109.892 158.942 109.788 159.064 109.581C159.189 109.371 159.252 109.134 159.252 108.869V108.409C159.252 108.145 159.192 107.909 159.073 107.702C158.954 107.491 158.741 107.386 158.434 107.386C158.136 107.386 157.921 107.491 157.79 107.702C157.662 107.909 157.599 108.145 157.599 108.409ZM157.053 115.5L163.053 106.773H164.025L158.025 115.5H157.053Z" fill="#388E3C"/>
</g>
<defs>
<filter id="filter0_dddddd_2693_138051" x="-80" y="-28" width="342" height="290" filterUnits="userSpaceOnUse" color-interpolation-filters="sRGB">
<feFlood flood-opacity="0" result="BackgroundImageFix"/>
<feColorMatrix in="SourceAlpha" type="matrix" values="0 0 0 0 0 0 0 0 0 0 0 0 0 0 0 0 0 0 127 0" result="hardAlpha"/>
<feOffset dy="1.43897"/>
<feGaussianBlur stdDeviation="1.1069"/>
<feColorMatrix type="matrix" values="0 0 0 0 0.109804 0 0 0 0 0.164706 0 0 0 0 0.278431 0 0 0 0.0168687 0"/>
<feBlend mode="normal" in2="BackgroundImageFix" result="effect1_dropShadow_2693_138051"/>
<feColorMatrix in="SourceAlpha" type="matrix" values="0 0 0 0 0 0 0 0 0 0 0 0 0 0 0 0 0 0 127 0" result="hardAlpha"/>
<feOffset dy="3.45805"/>
<feGaussianBlur stdDeviation="2.66004"/>
<feColorMatrix type="matrix" values="0 0 0 0 0.109804 0 0 0 0 0.164706 0 0 0 0 0.278431 0 0 0 0.0242336 0"/>
<feBlend mode="normal" in2="effect1_dropShadow_2693_138051" result="effect2_dropShadow_2693_138051"/>
<feColorMatrix in="SourceAlpha" type="matrix" values="0 0 0 0 0 0 0 0 0 0 0 0 0 0 0 0 0 0 127 0" result="hardAlpha"/>
<feOffset dy="6.51121"/>
<feGaussianBlur stdDeviation="5.00862"/>
<feColorMatrix type="matrix" values="0 0 0 0 0.109804 0 0 0 0 0.164706 0 0 0 0 0.278431 0 0 0 0.03 0"/>
<feBlend mode="normal" in2="effect2_dropShadow_2693_138051" result="effect3_dropShadow_2693_138051"/>
<feColorMatrix in="SourceAlpha" type="matrix" values="0 0 0 0 0 0 0 0 0 0 0 0 0 0 0 0 0 0 127 0" result="hardAlpha"/>
<feOffset dy="11.6149"/>
<feGaussianBlur stdDeviation="8.93452"/>
<feColorMatrix type="matrix" values="0 0 0 0 0.109804 0 0 0 0 0.164706 0 0 0 0 0.278431 0 0 0 0.0357664 0"/>
<feBlend mode="normal" in2="effect3_dropShadow_2693_138051" result="effect4_dropShadow_2693_138051"/>
<feColorMatrix in="SourceAlpha" type="matrix" values="0 0 0 0 0 0 0 0 0 0 0 0 0 0 0 0 0 0 127 0" result="hardAlpha"/>
<feOffset dy="21.7244"/>
<feGaussianBlur stdDeviation="16.711"/>
<feColorMatrix type="matrix" values="0 0 0 0 0.109804 0 0 0 0 0.164706 0 0 0 0 0.278431 0 0 0 0.0431313 0"/>
<feBlend mode="normal" in2="effect4_dropShadow_2693_138051" result="effect5_dropShadow_2693_138051"/>
<feColorMatrix in="SourceAlpha" type="matrix" values="0 0 0 0 0 0 0 0 0 0 0 0 0 0 0 0 0 0 127 0" result="hardAlpha"/>
<feOffset dy="52"/>
<feGaussianBlur stdDeviation="40"/>
<feColorMatrix type="matrix" values="0 0 0 0 0.109804 0 0 0 0 0.164706 0 0 0 0 0.278431 0 0 0 0.06 0"/>
<feBlend mode="normal" in2="effect5_dropShadow_2693_138051" result="effect6_dropShadow_2693_138051"/>
<feBlend mode="normal" in="SourceGraphic" in2="effect6_dropShadow_2693_138051" result="shape"/>
</filter>
</defs>
</svg>
