<svg width="182" height="280" viewBox="0 0 182 280" fill="none" xmlns="http://www.w3.org/2000/svg">
<g filter="url(#filter0_dddddd_2693_138052)">
<rect width="182" height="280" rx="12" fill="white"/>
<path d="M17.233 13.8182H18.7045L22.1648 22.2699H22.2841L25.7443 13.8182H27.2159V24H26.0625V16.2642H25.9631L22.7812 24H21.6676L18.4858 16.2642H18.3864V24H17.233V13.8182ZM31.6361 24.179C31.1522 24.179 30.713 24.0878 30.3186 23.9055C29.9242 23.7199 29.611 23.4531 29.379 23.1051C29.147 22.7538 29.031 22.3295 29.031 21.8324C29.031 21.3949 29.1172 21.0402 29.2895 20.7685C29.4619 20.4934 29.6922 20.2779 29.9806 20.1222C30.2689 19.9664 30.5871 19.8504 30.9351 19.7741C31.2864 19.6946 31.6394 19.6316 31.9941 19.5852C32.4581 19.5256 32.8343 19.4808 33.1226 19.451C33.4143 19.4179 33.6264 19.3632 33.759 19.2869C33.8949 19.2107 33.9628 19.0781 33.9628 18.8892V18.8494C33.9628 18.3589 33.8286 17.9777 33.5601 17.706C33.295 17.4342 32.8923 17.2983 32.352 17.2983C31.7919 17.2983 31.3527 17.4209 31.0345 17.6662C30.7164 17.9115 30.4926 18.1733 30.3634 18.4517L29.2497 18.054C29.4486 17.59 29.7138 17.2287 30.0452 16.9702C30.3799 16.7083 30.7445 16.526 31.1389 16.4233C31.5367 16.3172 31.9278 16.2642 32.3122 16.2642C32.5575 16.2642 32.8392 16.294 33.1574 16.3537C33.4789 16.41 33.7888 16.5277 34.0871 16.7067C34.3887 16.8857 34.6389 17.1558 34.8378 17.517C35.0367 17.8783 35.1361 18.3622 35.1361 18.9688V24H33.9628V22.9659H33.9031C33.8236 23.1316 33.691 23.3089 33.5054 23.4979C33.3198 23.6868 33.0729 23.8475 32.7647 23.9801C32.4564 24.1127 32.0802 24.179 31.6361 24.179ZM31.8151 23.125C32.2791 23.125 32.6702 23.0339 32.9884 22.8516C33.3099 22.6693 33.5518 22.4339 33.7142 22.1456C33.8799 21.8572 33.9628 21.554 33.9628 21.2358V20.1619C33.9131 20.2216 33.8037 20.2763 33.6347 20.326C33.469 20.3724 33.2767 20.4138 33.058 20.4503C32.8425 20.4834 32.6321 20.5133 32.4266 20.5398C32.2244 20.563 32.0603 20.5829 31.9344 20.5994C31.6295 20.6392 31.3444 20.7038 31.0793 20.7933C30.8174 20.8795 30.6053 21.0104 30.4429 21.1861C30.2838 21.3584 30.2043 21.5937 30.2043 21.892C30.2043 22.2997 30.3551 22.608 30.6567 22.8168C30.9616 23.0223 31.3477 23.125 31.8151 23.125ZM37.1376 24V16.3636H38.2711V17.517H38.3507C38.4899 17.1392 38.7418 16.8326 39.1064 16.5973C39.4709 16.362 39.8819 16.2443 40.3393 16.2443C40.4255 16.2443 40.5332 16.246 40.6625 16.2493C40.7917 16.2526 40.8895 16.2576 40.9558 16.2642V17.4574C40.916 17.4474 40.8249 17.4325 40.6824 17.4126C40.5432 17.3894 40.3957 17.3778 40.2399 17.3778C39.8687 17.3778 39.5372 17.4557 39.2456 17.6115C38.9572 17.764 38.7285 17.9761 38.5595 18.2479C38.3938 18.5163 38.3109 18.8229 38.3109 19.1676V24H37.1376ZM43.3003 21.2159L43.2805 19.7642H43.5191L46.86 16.3636H48.3117L44.7521 19.9631H44.6526L43.3003 21.2159ZM42.2066 24V13.8182H43.3799V24H42.2066ZM47.0589 24L44.0759 20.2216L44.9111 19.4062L48.5503 24H47.0589ZM52.5691 24.1591C51.8333 24.1591 51.1986 23.9967 50.665 23.6719C50.1347 23.3438 49.7253 22.8864 49.437 22.2997C49.1519 21.7098 49.0094 21.0237 49.0094 20.2415C49.0094 19.4593 49.1519 18.7699 49.437 18.1733C49.7253 17.5734 50.1264 17.1061 50.6401 16.7713C51.1572 16.4332 51.7604 16.2642 52.4498 16.2642C52.8475 16.2642 53.2402 16.3305 53.628 16.4631C54.0158 16.5956 54.3688 16.8111 54.687 17.1094C55.0052 17.4044 55.2587 17.7955 55.4476 18.2827C55.6366 18.7699 55.731 19.3698 55.731 20.0824V20.5795H49.8447V19.5653H54.5378C54.5378 19.1345 54.4517 18.75 54.2793 18.4119C54.1103 18.0739 53.8683 17.8071 53.5535 17.6115C53.2419 17.416 52.874 17.3182 52.4498 17.3182C51.9824 17.3182 51.5781 17.4342 51.2367 17.6662C50.8986 17.8949 50.6384 18.1932 50.4562 18.5611C50.2739 18.929 50.1827 19.3234 50.1827 19.7443V20.4205C50.1827 20.9972 50.2822 21.486 50.481 21.8871C50.6832 22.2848 50.9633 22.5881 51.3212 22.7969C51.6792 23.0024 52.0951 23.1051 52.5691 23.1051C52.8773 23.1051 53.1557 23.062 53.4043 22.9759C53.6562 22.8864 53.8733 22.7538 54.0556 22.5781C54.2379 22.3991 54.3787 22.1771 54.4782 21.9119L55.6117 22.2301C55.4924 22.6146 55.2919 22.9527 55.0101 23.2443C54.7284 23.5327 54.3804 23.758 53.9661 23.9205C53.5518 24.0795 53.0861 24.1591 52.5691 24.1591ZM60.6968 16.3636V17.358H56.7395V16.3636H60.6968ZM57.8929 14.5341H59.0662V21.8125C59.0662 22.1439 59.1142 22.3925 59.2103 22.5582C59.3098 22.7206 59.4357 22.83 59.5882 22.8864C59.744 22.9394 59.908 22.9659 60.0804 22.9659C60.2096 22.9659 60.3157 22.9593 60.3985 22.946C60.4814 22.9295 60.5477 22.9162 60.5974 22.9062L60.836 23.9602C60.7565 23.9901 60.6455 24.0199 60.5029 24.0497C60.3604 24.0829 60.1798 24.0994 59.961 24.0994C59.6296 24.0994 59.3048 24.0282 58.9866 23.8857C58.6717 23.7431 58.4099 23.526 58.2011 23.2344C57.9956 22.9427 57.8929 22.5748 57.8929 22.1307V14.5341ZM62.3218 24V16.3636H63.495V24H62.3218ZM62.9183 15.0909C62.6897 15.0909 62.4924 15.013 62.3267 14.8572C62.1643 14.7015 62.0831 14.5142 62.0831 14.2955C62.0831 14.0767 62.1643 13.8894 62.3267 13.7337C62.4924 13.5779 62.6897 13.5 62.9183 13.5C63.147 13.5 63.3426 13.5779 63.505 13.7337C63.6707 13.8894 63.7536 14.0767 63.7536 14.2955C63.7536 14.5142 63.6707 14.7015 63.505 14.8572C63.3426 15.013 63.147 15.0909 62.9183 15.0909ZM66.6773 19.4062V24H65.504V16.3636H66.6375V17.5568H66.737C66.916 17.169 67.1877 16.8575 67.5523 16.6222C67.9169 16.3835 68.3875 16.2642 68.9642 16.2642C69.4813 16.2642 69.9337 16.3703 70.3215 16.5824C70.7093 16.7912 71.0109 17.1094 71.2263 17.5369C71.4418 17.9612 71.5495 18.4981 71.5495 19.1477V24H70.3762V19.2273C70.3762 18.6274 70.2204 18.16 69.9089 17.8253C69.5973 17.4872 69.1697 17.3182 68.6262 17.3182C68.2517 17.3182 67.9169 17.3994 67.6219 17.5618C67.3303 17.7242 67.0999 17.9612 66.9309 18.2727C66.7618 18.5843 66.6773 18.9621 66.6773 19.4062ZM76.6359 27.0227C76.0691 27.0227 75.5819 26.9498 75.1742 26.804C74.7665 26.6615 74.4268 26.4725 74.155 26.2372C73.8866 26.0052 73.6728 25.7566 73.5137 25.4915L74.4484 24.8352C74.5544 24.9744 74.6887 25.1335 74.8511 25.3125C75.0135 25.4948 75.2355 25.6522 75.5173 25.7848C75.8023 25.9207 76.1752 25.9886 76.6359 25.9886C77.2523 25.9886 77.7611 25.8395 78.1621 25.5412C78.5632 25.2429 78.7637 24.7756 78.7637 24.1392V22.5881H78.6643C78.5781 22.7273 78.4555 22.8996 78.2964 23.1051C78.1406 23.3073 77.9152 23.4879 77.6202 23.647C77.3286 23.8028 76.9342 23.8807 76.437 23.8807C75.8205 23.8807 75.267 23.7348 74.7765 23.4432C74.2893 23.1515 73.9031 22.7273 73.6181 22.1705C73.3364 21.6136 73.1955 20.9375 73.1955 20.142C73.1955 19.3598 73.3331 18.6787 73.6082 18.0987C73.8833 17.5154 74.2661 17.0646 74.7566 16.7464C75.2471 16.425 75.8139 16.2642 76.4569 16.2642C76.954 16.2642 77.3485 16.3471 77.6401 16.5128C77.9351 16.6752 78.1605 16.8608 78.3163 17.0696C78.4753 17.2751 78.598 17.4441 78.6842 17.5767H78.8035V16.3636H79.937V24.2188C79.937 24.875 79.7878 25.4086 79.4896 25.8196C79.1946 26.2339 78.7968 26.5372 78.2964 26.7294C77.7992 26.925 77.2457 27.0227 76.6359 27.0227ZM76.5961 22.8267C77.0667 22.8267 77.4645 22.719 77.7893 22.5036C78.1141 22.2881 78.361 21.9782 78.53 21.5739C78.6991 21.1695 78.7836 20.6856 78.7836 20.1222C78.7836 19.572 78.7007 19.0864 78.535 18.6655C78.3693 18.2446 78.124 17.9148 77.7992 17.6761C77.4744 17.4375 77.0734 17.3182 76.5961 17.3182C76.0989 17.3182 75.6846 17.4441 75.3532 17.696C75.0251 17.9479 74.7781 18.286 74.6124 18.7102C74.45 19.1345 74.3688 19.6051 74.3688 20.1222C74.3688 20.6525 74.4517 21.1214 74.6174 21.5291C74.7864 21.9335 75.035 22.2517 75.3631 22.4837C75.6946 22.7124 76.1056 22.8267 76.5961 22.8267ZM85.9013 24V13.8182H87.0746V17.5767H87.174C87.2602 17.4441 87.3795 17.2751 87.532 17.0696C87.6878 16.8608 87.9098 16.6752 88.1982 16.5128C88.4899 16.3471 88.8843 16.2642 89.3814 16.2642C90.0244 16.2642 90.5912 16.425 91.0817 16.7464C91.5722 17.0679 91.9551 17.5237 92.2301 18.1136C92.5052 18.7036 92.6428 19.3996 92.6428 20.2017C92.6428 21.0104 92.5052 21.7114 92.2301 22.3047C91.9551 22.8946 91.5739 23.352 91.0867 23.6768C90.5995 23.9983 90.0377 24.1591 89.4013 24.1591C88.9108 24.1591 88.518 24.0779 88.223 23.9155C87.9281 23.7498 87.701 23.5625 87.5419 23.3537C87.3828 23.1416 87.2602 22.9659 87.174 22.8267H87.0348V24H85.9013ZM87.0547 20.1818C87.0547 20.7585 87.1392 21.2673 87.3083 21.7081C87.4773 22.1456 87.7242 22.4886 88.049 22.7372C88.3739 22.9825 88.7716 23.1051 89.2422 23.1051C89.7328 23.1051 90.1421 22.9759 90.4702 22.7173C90.8016 22.4555 91.0502 22.1042 91.2159 21.6634C91.385 21.2192 91.4695 20.7254 91.4695 20.1818C91.4695 19.6449 91.3866 19.161 91.2209 18.7301C91.0585 18.2959 90.8116 17.9529 90.4801 17.701C90.152 17.4458 89.7394 17.3182 89.2422 17.3182C88.7649 17.3182 88.3639 17.4392 88.0391 17.6811C87.7143 17.9197 87.469 18.2545 87.3033 18.6854C87.1376 19.1129 87.0547 19.6117 87.0547 20.1818ZM99.11 20.8778V16.3636H100.283V24H99.11V22.7074H99.0305C98.8515 23.0952 98.5731 23.425 98.1953 23.6967C97.8174 23.9652 97.3401 24.0994 96.7634 24.0994C96.2862 24.0994 95.8619 23.995 95.4907 23.7862C95.1195 23.5741 94.8278 23.2559 94.6157 22.8317C94.4036 22.4041 94.2975 21.8655 94.2975 21.2159V16.3636H95.4708V21.1364C95.4708 21.6932 95.6266 22.1373 95.9382 22.4688C96.253 22.8002 96.6541 22.9659 97.1413 22.9659C97.433 22.9659 97.7296 22.8913 98.0312 22.7422C98.3361 22.593 98.5913 22.3643 98.7968 22.0561C99.0056 21.7479 99.11 21.3551 99.11 20.8778ZM105.176 24.1591C104.539 24.1591 103.978 23.9983 103.49 23.6768C103.003 23.352 102.622 22.8946 102.347 22.3047C102.072 21.7114 101.934 21.0104 101.934 20.2017C101.934 19.3996 102.072 18.7036 102.347 18.1136C102.622 17.5237 103.005 17.0679 103.495 16.7464C103.986 16.425 104.553 16.2642 105.196 16.2642C105.693 16.2642 106.086 16.3471 106.374 16.5128C106.666 16.6752 106.888 16.8608 107.04 17.0696C107.196 17.2751 107.317 17.4441 107.403 17.5767H107.503V13.8182H108.676V24H107.542V22.8267H107.403C107.317 22.9659 107.194 23.1416 107.035 23.3537C106.876 23.5625 106.649 23.7498 106.354 23.9155C106.059 24.0779 105.666 24.1591 105.176 24.1591ZM105.335 23.1051C105.806 23.1051 106.203 22.9825 106.528 22.7372C106.853 22.4886 107.1 22.1456 107.269 21.7081C107.438 21.2673 107.522 20.7585 107.522 20.1818C107.522 19.6117 107.44 19.1129 107.274 18.6854C107.108 18.2545 106.863 17.9197 106.538 17.6811C106.213 17.4392 105.812 17.3182 105.335 17.3182C104.838 17.3182 104.423 17.4458 104.092 17.701C103.764 17.9529 103.517 18.2959 103.351 18.7301C103.189 19.161 103.108 19.6449 103.108 20.1818C103.108 20.7254 103.191 21.2192 103.356 21.6634C103.525 22.1042 103.774 22.4555 104.102 22.7173C104.433 22.9759 104.844 23.1051 105.335 23.1051ZM113.93 27.0227C113.363 27.0227 112.876 26.9498 112.468 26.804C112.061 26.6615 111.721 26.4725 111.449 26.2372C111.181 26.0052 110.967 25.7566 110.808 25.4915L111.743 24.8352C111.849 24.9744 111.983 25.1335 112.145 25.3125C112.308 25.4948 112.53 25.6522 112.811 25.7848C113.096 25.9207 113.469 25.9886 113.93 25.9886C114.546 25.9886 115.055 25.8395 115.456 25.5412C115.857 25.2429 116.058 24.7756 116.058 24.1392V22.5881H115.958C115.872 22.7273 115.75 22.8996 115.591 23.1051C115.435 23.3073 115.209 23.4879 114.914 23.647C114.623 23.8028 114.228 23.8807 113.731 23.8807C113.115 23.8807 112.561 23.7348 112.071 23.4432C111.583 23.1515 111.197 22.7273 110.912 22.1705C110.631 21.6136 110.49 20.9375 110.49 20.142C110.49 19.3598 110.627 18.6787 110.902 18.0987C111.177 17.5154 111.56 17.0646 112.051 16.7464C112.541 16.425 113.108 16.2642 113.751 16.2642C114.248 16.2642 114.643 16.3471 114.934 16.5128C115.229 16.6752 115.455 16.8608 115.61 17.0696C115.769 17.2751 115.892 17.4441 115.978 17.5767H116.098V16.3636H117.231V24.2188C117.231 24.875 117.082 25.4086 116.784 25.8196C116.489 26.2339 116.091 26.5372 115.591 26.7294C115.093 26.925 114.54 27.0227 113.93 27.0227ZM113.89 22.8267C114.361 22.8267 114.759 22.719 115.083 22.5036C115.408 22.2881 115.655 21.9782 115.824 21.5739C115.993 21.1695 116.078 20.6856 116.078 20.1222C116.078 19.572 115.995 19.0864 115.829 18.6655C115.663 18.2446 115.418 17.9148 115.093 17.6761C114.769 17.4375 114.368 17.3182 113.89 17.3182C113.393 17.3182 112.979 17.4441 112.647 17.696C112.319 17.9479 112.072 18.286 111.907 18.7102C111.744 19.1345 111.663 19.6051 111.663 20.1222C111.663 20.6525 111.746 21.1214 111.912 21.5291C112.081 21.9335 112.329 22.2517 112.657 22.4837C112.989 22.7124 113.4 22.8267 113.89 22.8267ZM122.441 24.1591C121.705 24.1591 121.07 23.9967 120.536 23.6719C120.006 23.3438 119.597 22.8864 119.308 22.2997C119.023 21.7098 118.881 21.0237 118.881 20.2415C118.881 19.4593 119.023 18.7699 119.308 18.1733C119.597 17.5734 119.998 17.1061 120.512 16.7713C121.029 16.4332 121.632 16.2642 122.321 16.2642C122.719 16.2642 123.112 16.3305 123.5 16.4631C123.887 16.5956 124.24 16.8111 124.558 17.1094C124.877 17.4044 125.13 17.7955 125.319 18.2827C125.508 18.7699 125.603 19.3698 125.603 20.0824V20.5795H119.716V19.5653H124.409C124.409 19.1345 124.323 18.75 124.151 18.4119C123.982 18.0739 123.74 17.8071 123.425 17.6115C123.113 17.416 122.745 17.3182 122.321 17.3182C121.854 17.3182 121.45 17.4342 121.108 17.6662C120.77 17.8949 120.51 18.1932 120.328 18.5611C120.145 18.929 120.054 19.3234 120.054 19.7443V20.4205C120.054 20.9972 120.154 21.486 120.353 21.8871C120.555 22.2848 120.835 22.5881 121.193 22.7969C121.551 23.0024 121.967 23.1051 122.441 23.1051C122.749 23.1051 123.027 23.062 123.276 22.9759C123.528 22.8864 123.745 22.7538 123.927 22.5781C124.109 22.3991 124.25 22.1771 124.35 21.9119L125.483 22.2301C125.364 22.6146 125.163 22.9527 124.882 23.2443C124.6 23.5327 124.252 23.758 123.838 23.9205C123.423 24.0795 122.958 24.1591 122.441 24.1591ZM130.568 16.3636V17.358H126.611V16.3636H130.568ZM127.764 14.5341H128.938V21.8125C128.938 22.1439 128.986 22.3925 129.082 22.5582C129.181 22.7206 129.307 22.83 129.46 22.8864C129.615 22.9394 129.779 22.9659 129.952 22.9659C130.081 22.9659 130.187 22.9593 130.27 22.946C130.353 22.9295 130.419 22.9162 130.469 22.9062L130.708 23.9602C130.628 23.9901 130.517 24.0199 130.374 24.0497C130.232 24.0829 130.051 24.0994 129.833 24.0994C129.501 24.0994 129.176 24.0282 128.858 23.8857C128.543 23.7431 128.281 23.526 128.073 23.2344C127.867 22.9427 127.764 22.5748 127.764 22.1307V14.5341Z" fill="#191A1D"/>
<path d="M90.9995 66.0001C77.3338 66.0001 64.0509 70.5151 53.216 78.8432C42.381 87.1712 34.6011 98.8457 31.0858 112.051L61.0426 120.026C62.8003 113.423 66.6903 107.586 72.1077 103.422C77.5252 99.2577 84.1666 97.0002 90.9995 97.0002V66.0001Z" fill="#E3E7EB" stroke="white" stroke-width="0.83784"/>
<path d="M31.0864 112.051C27.892 124.051 28.3748 136.734 32.4721 148.457C36.5694 160.179 44.0924 170.401 54.0667 177.799C64.041 185.196 76.0068 189.428 88.414 189.946C100.821 190.464 113.098 187.244 123.654 180.704L107.327 154.352C102.049 157.622 95.9107 159.232 89.7071 158.973C83.5035 158.714 77.5206 156.598 72.5334 152.899C67.5463 149.201 63.7848 144.09 61.7361 138.228C59.6875 132.367 59.4461 126.026 61.0433 120.025L31.0864 112.051Z" fill="#1184E9"/>
<path d="M123.654 180.705C135.116 173.603 143.95 162.959 148.818 150.385C153.686 137.811 154.323 123.993 150.631 111.025C146.939 98.0565 139.12 86.6453 128.36 78.5206C117.599 70.3958 104.483 66.0003 91 66.0003V97.0004C97.7417 97.0004 104.3 99.1981 109.68 103.26C115.06 107.323 118.97 113.028 120.815 119.513C122.661 125.997 122.343 132.906 119.909 139.193C117.475 145.48 113.058 150.802 107.327 154.353L123.654 180.705Z" fill="#1184E9"/>
<path d="M20.7841 232.455V217.909H21.7159V232.455H20.7841ZM23.4716 222.562C23.4186 222.066 23.1951 221.68 22.8011 221.403C22.411 221.127 21.9034 220.989 21.2784 220.989C20.839 220.989 20.4621 221.055 20.1477 221.188C19.8333 221.32 19.5928 221.5 19.4261 221.727C19.2595 221.955 19.1742 222.214 19.1705 222.506C19.1705 222.748 19.2254 222.958 19.3352 223.136C19.4489 223.314 19.6023 223.466 19.7955 223.591C19.9886 223.712 20.2027 223.814 20.4375 223.898C20.6723 223.981 20.9091 224.051 21.1477 224.108L22.2386 224.381C22.678 224.483 23.1004 224.621 23.5057 224.795C23.9148 224.97 24.2803 225.189 24.6023 225.455C24.928 225.72 25.1856 226.04 25.375 226.415C25.5644 226.79 25.6591 227.229 25.6591 227.733C25.6591 228.415 25.4848 229.015 25.1364 229.534C24.7879 230.049 24.2841 230.453 23.625 230.744C22.9697 231.032 22.1761 231.176 21.2443 231.176C20.339 231.176 19.553 231.036 18.8864 230.756C18.2235 230.475 17.7045 230.066 17.3295 229.528C16.9583 228.991 16.7576 228.335 16.7273 227.562H18.8011C18.8314 227.968 18.9564 228.305 19.1761 228.574C19.3958 228.843 19.6818 229.044 20.0341 229.176C20.3902 229.309 20.7879 229.375 21.2273 229.375C21.6856 229.375 22.0871 229.307 22.4318 229.17C22.7803 229.03 23.053 228.837 23.25 228.591C23.447 228.341 23.5473 228.049 23.5511 227.716C23.5473 227.413 23.4583 227.163 23.2841 226.966C23.1098 226.765 22.8655 226.598 22.5511 226.466C22.2405 226.33 21.8769 226.208 21.4602 226.102L20.1364 225.761C19.178 225.515 18.4205 225.142 17.8636 224.642C17.3106 224.138 17.0341 223.47 17.0341 222.636C17.0341 221.951 17.2197 221.35 17.5909 220.835C17.9659 220.32 18.4754 219.92 19.1193 219.636C19.7633 219.348 20.4924 219.205 21.3068 219.205C22.1326 219.205 22.8561 219.348 23.4773 219.636C24.1023 219.92 24.5928 220.316 24.9489 220.824C25.3049 221.328 25.4886 221.907 25.5 222.562H23.4716ZM31.3102 231.159C30.5526 231.159 29.8746 231.017 29.2761 230.733C28.6776 230.445 28.2022 230.051 27.8499 229.551C27.5015 229.051 27.3159 228.479 27.2931 227.835H29.3386C29.3765 228.312 29.5829 228.703 29.9579 229.006C30.3329 229.305 30.7837 229.455 31.3102 229.455C31.723 229.455 32.0905 229.36 32.4124 229.17C32.7344 228.981 32.9882 228.718 33.1738 228.381C33.3594 228.044 33.4503 227.659 33.4465 227.227C33.4503 226.788 33.3575 226.398 33.1681 226.057C32.9787 225.716 32.7193 225.449 32.3897 225.256C32.0602 225.059 31.6814 224.96 31.2534 224.96C30.9049 224.956 30.5621 225.021 30.2249 225.153C29.8878 225.286 29.6208 225.46 29.4238 225.676L27.5204 225.364L28.1284 219.364H34.8784V221.125H29.8727L29.5374 224.21H29.6056C29.8215 223.956 30.1265 223.746 30.5204 223.58C30.9143 223.409 31.3462 223.324 31.8159 223.324C32.5204 223.324 33.1492 223.491 33.7022 223.824C34.2552 224.153 34.6909 224.608 35.009 225.188C35.3272 225.767 35.4863 226.43 35.4863 227.176C35.4863 227.945 35.3083 228.631 34.9522 229.233C34.5999 229.831 34.1094 230.303 33.4806 230.648C32.8556 230.989 32.1321 231.159 31.3102 231.159ZM41.2695 219.205C41.8263 219.208 42.368 219.307 42.8945 219.5C43.4248 219.689 43.9021 220 44.3263 220.432C44.7505 220.86 45.0877 221.434 45.3377 222.153C45.5877 222.873 45.7127 223.763 45.7127 224.824C45.7165 225.824 45.6104 226.718 45.3945 227.506C45.1824 228.29 44.8774 228.953 44.4797 229.494C44.082 230.036 43.6028 230.449 43.0422 230.733C42.4816 231.017 41.8509 231.159 41.1502 231.159C40.4153 231.159 39.7638 231.015 39.1956 230.727C38.6312 230.439 38.1748 230.045 37.8263 229.545C37.4778 229.045 37.2638 228.473 37.1843 227.83H39.2581C39.3642 228.292 39.5801 228.659 39.9059 228.932C40.2354 229.201 40.6502 229.335 41.1502 229.335C41.957 229.335 42.5782 228.985 43.0138 228.284C43.4494 227.583 43.6672 226.61 43.6672 225.364H43.5877C43.4021 225.697 43.1615 225.985 42.8661 226.227C42.5706 226.466 42.2354 226.65 41.8604 226.778C41.4892 226.907 41.0952 226.972 40.6786 226.972C39.9968 226.972 39.3831 226.809 38.8377 226.483C38.296 226.157 37.8661 225.71 37.5479 225.142C37.2335 224.574 37.0744 223.924 37.0706 223.193C37.0706 222.436 37.2449 221.756 37.5934 221.153C37.9456 220.547 38.4362 220.07 39.0649 219.722C39.6937 219.369 40.4286 219.197 41.2695 219.205ZM41.2752 220.909C40.8661 220.909 40.4968 221.009 40.1672 221.21C39.8415 221.407 39.5839 221.676 39.3945 222.017C39.2089 222.354 39.1161 222.731 39.1161 223.148C39.1199 223.561 39.2127 223.936 39.3945 224.273C39.5801 224.61 39.832 224.877 40.1502 225.074C40.4721 225.271 40.8396 225.369 41.2524 225.369C41.5593 225.369 41.8452 225.311 42.1104 225.193C42.3755 225.076 42.6066 224.913 42.8036 224.705C43.0043 224.492 43.1596 224.252 43.2695 223.983C43.3831 223.714 43.438 223.43 43.4343 223.131C43.4343 222.733 43.3396 222.366 43.1502 222.028C42.9646 221.691 42.7089 221.42 42.3831 221.216C42.0612 221.011 41.6918 220.909 41.2752 220.909ZM47.2345 228.841V227.165L52.172 219.364H53.5697V221.75H52.7174L49.3936 227.017V227.108H56.2856V228.841H47.2345ZM52.7856 231V228.33L52.8084 227.58V219.364H54.797V231H52.7856Z" fill="#191A1D"/>
<path d="M94.5795 217.21V216.273H101.125V217.21H98.3807V225H97.3239V217.21H94.5795ZM104.21 225.136C103.619 225.136 103.1 224.996 102.654 224.714C102.211 224.433 101.864 224.04 101.614 223.534C101.367 223.028 101.244 222.437 101.244 221.761C101.244 221.08 101.367 220.484 101.614 219.976C101.864 219.467 102.211 219.072 102.654 218.791C103.1 218.51 103.619 218.369 104.21 218.369C104.8 218.369 105.318 218.51 105.761 218.791C106.207 219.072 106.553 219.467 106.8 219.976C107.05 220.484 107.175 221.08 107.175 221.761C107.175 222.437 107.05 223.028 106.8 223.534C106.553 224.04 106.207 224.433 105.761 224.714C105.318 224.996 104.8 225.136 104.21 225.136ZM104.21 224.233C104.658 224.233 105.028 224.118 105.318 223.888C105.607 223.658 105.822 223.355 105.961 222.98C106.1 222.605 106.17 222.199 106.17 221.761C106.17 221.324 106.1 220.916 105.961 220.538C105.822 220.161 105.607 219.855 105.318 219.622C105.028 219.389 104.658 219.273 104.21 219.273C103.761 219.273 103.391 219.389 103.102 219.622C102.812 219.855 102.597 220.161 102.458 220.538C102.319 220.916 102.249 221.324 102.249 221.761C102.249 222.199 102.319 222.605 102.458 222.98C102.597 223.355 102.812 223.658 103.102 223.888C103.391 224.118 103.761 224.233 104.21 224.233ZM111.437 218.455V219.307H108.045V218.455H111.437ZM109.034 216.886H110.039V223.125C110.039 223.409 110.081 223.622 110.163 223.764C110.248 223.903 110.356 223.997 110.487 224.045C110.62 224.091 110.761 224.114 110.909 224.114C111.02 224.114 111.11 224.108 111.182 224.097C111.253 224.082 111.309 224.071 111.352 224.062L111.557 224.966C111.488 224.991 111.393 225.017 111.271 225.043C111.149 225.071 110.994 225.085 110.807 225.085C110.522 225.085 110.244 225.024 109.971 224.902C109.701 224.78 109.477 224.594 109.298 224.344C109.122 224.094 109.034 223.778 109.034 223.398V216.886ZM114.756 225.153C114.341 225.153 113.965 225.075 113.627 224.919C113.289 224.76 113.02 224.531 112.821 224.233C112.623 223.932 112.523 223.568 112.523 223.142C112.523 222.767 112.597 222.463 112.745 222.23C112.892 221.994 113.09 221.81 113.337 221.676C113.584 221.543 113.857 221.443 114.155 221.378C114.456 221.31 114.759 221.256 115.063 221.216C115.461 221.165 115.783 221.126 116.03 221.101C116.28 221.072 116.462 221.026 116.576 220.96C116.692 220.895 116.75 220.781 116.75 220.619V220.585C116.75 220.165 116.635 219.838 116.405 219.605C116.178 219.372 115.833 219.256 115.37 219.256C114.89 219.256 114.513 219.361 114.24 219.571C113.968 219.781 113.776 220.006 113.665 220.244L112.711 219.903C112.881 219.506 113.108 219.196 113.392 218.974C113.679 218.75 113.992 218.594 114.33 218.506C114.671 218.415 115.006 218.369 115.336 218.369C115.546 218.369 115.787 218.395 116.06 218.446C116.336 218.494 116.601 218.595 116.857 218.749C117.115 218.902 117.33 219.134 117.5 219.443C117.671 219.753 117.756 220.168 117.756 220.688V225H116.75V224.114H116.699C116.631 224.256 116.517 224.408 116.358 224.57C116.199 224.732 115.988 224.869 115.723 224.983C115.459 225.097 115.137 225.153 114.756 225.153ZM114.91 224.25C115.307 224.25 115.642 224.172 115.915 224.016C116.191 223.859 116.398 223.658 116.537 223.411C116.679 223.163 116.75 222.903 116.75 222.631V221.71C116.708 221.761 116.614 221.808 116.469 221.851C116.327 221.891 116.162 221.926 115.975 221.957C115.79 221.986 115.61 222.011 115.434 222.034C115.26 222.054 115.12 222.071 115.012 222.085C114.75 222.119 114.506 222.175 114.279 222.251C114.054 222.325 113.873 222.437 113.733 222.588C113.597 222.736 113.529 222.937 113.529 223.193C113.529 223.543 113.658 223.807 113.917 223.986C114.178 224.162 114.509 224.25 114.91 224.25ZM120.477 216.273V225H119.472V216.273H120.477ZM125.591 225V216.273H126.596V219.494H126.682C126.755 219.381 126.858 219.236 126.988 219.06C127.122 218.881 127.312 218.722 127.559 218.582C127.809 218.44 128.148 218.369 128.574 218.369C129.125 218.369 129.611 218.507 130.031 218.783C130.452 219.058 130.78 219.449 131.015 219.955C131.251 220.46 131.369 221.057 131.369 221.744C131.369 222.438 131.251 223.038 131.015 223.547C130.78 224.053 130.453 224.445 130.035 224.723C129.618 224.999 129.136 225.136 128.591 225.136C128.17 225.136 127.834 225.067 127.581 224.928C127.328 224.786 127.133 224.625 126.997 224.446C126.861 224.264 126.755 224.114 126.682 223.994H126.562V225H125.591ZM126.579 221.727C126.579 222.222 126.652 222.658 126.797 223.036C126.942 223.411 127.153 223.705 127.432 223.918C127.71 224.128 128.051 224.233 128.454 224.233C128.875 224.233 129.226 224.122 129.507 223.901C129.791 223.676 130.004 223.375 130.146 222.997C130.291 222.616 130.363 222.193 130.363 221.727C130.363 221.267 130.292 220.852 130.15 220.483C130.011 220.111 129.8 219.817 129.515 219.601C129.234 219.382 128.88 219.273 128.454 219.273C128.045 219.273 127.702 219.376 127.423 219.584C127.145 219.788 126.934 220.075 126.792 220.445C126.65 220.811 126.579 221.239 126.579 221.727ZM136.912 222.324V218.455H137.918V225H136.912V223.892H136.844C136.691 224.224 136.452 224.507 136.128 224.74C135.805 224.97 135.395 225.085 134.901 225.085C134.492 225.085 134.128 224.996 133.81 224.817C133.492 224.635 133.242 224.362 133.06 223.999C132.878 223.632 132.787 223.17 132.787 222.614V218.455H133.793V222.545C133.793 223.023 133.927 223.403 134.194 223.688C134.464 223.972 134.807 224.114 135.225 224.114C135.475 224.114 135.729 224.05 135.988 223.922C136.249 223.794 136.468 223.598 136.644 223.334C136.823 223.07 136.912 222.733 136.912 222.324ZM142.112 225.136C141.566 225.136 141.085 224.999 140.667 224.723C140.25 224.445 139.923 224.053 139.687 223.547C139.451 223.038 139.333 222.438 139.333 221.744C139.333 221.057 139.451 220.46 139.687 219.955C139.923 219.449 140.251 219.058 140.671 218.783C141.092 218.507 141.578 218.369 142.129 218.369C142.555 218.369 142.892 218.44 143.139 218.582C143.389 218.722 143.579 218.881 143.71 219.06C143.843 219.236 143.947 219.381 144.021 219.494H144.106V216.273H145.112V225H144.14V223.994H144.021C143.947 224.114 143.842 224.264 143.705 224.446C143.569 224.625 143.375 224.786 143.122 224.928C142.869 225.067 142.532 225.136 142.112 225.136ZM142.248 224.233C142.652 224.233 142.992 224.128 143.271 223.918C143.549 223.705 143.761 223.411 143.906 223.036C144.051 222.658 144.123 222.222 144.123 221.727C144.123 221.239 144.052 220.811 143.91 220.445C143.768 220.075 143.558 219.788 143.279 219.584C143.001 219.376 142.657 219.273 142.248 219.273C141.822 219.273 141.467 219.382 141.183 219.601C140.902 219.817 140.69 220.111 140.548 220.483C140.409 220.852 140.339 221.267 140.339 221.727C140.339 222.193 140.41 222.616 140.552 222.997C140.697 223.375 140.91 223.676 141.191 223.901C141.475 224.122 141.828 224.233 142.248 224.233ZM149.615 227.591C149.13 227.591 148.712 227.528 148.362 227.403C148.013 227.281 147.722 227.119 147.489 226.918C147.259 226.719 147.076 226.506 146.939 226.278L147.74 225.716C147.831 225.835 147.946 225.972 148.085 226.125C148.225 226.281 148.415 226.416 148.657 226.53C148.901 226.646 149.22 226.705 149.615 226.705C150.144 226.705 150.58 226.577 150.924 226.321C151.267 226.065 151.439 225.665 151.439 225.119V223.79H151.354C151.28 223.909 151.175 224.057 151.039 224.233C150.905 224.406 150.712 224.561 150.459 224.697C150.209 224.831 149.871 224.898 149.445 224.898C148.916 224.898 148.442 224.773 148.022 224.523C147.604 224.273 147.273 223.909 147.029 223.432C146.787 222.955 146.666 222.375 146.666 221.693C146.666 221.023 146.784 220.439 147.02 219.942C147.256 219.442 147.584 219.055 148.005 218.783C148.425 218.507 148.911 218.369 149.462 218.369C149.888 218.369 150.226 218.44 150.476 218.582C150.729 218.722 150.922 218.881 151.056 219.06C151.192 219.236 151.297 219.381 151.371 219.494H151.473V218.455H152.445V225.188C152.445 225.75 152.317 226.207 152.061 226.56C151.808 226.915 151.468 227.175 151.039 227.339C150.612 227.507 150.138 227.591 149.615 227.591ZM149.581 223.994C149.985 223.994 150.326 223.902 150.604 223.717C150.882 223.533 151.094 223.267 151.239 222.92C151.384 222.574 151.456 222.159 151.456 221.676C151.456 221.205 151.385 220.788 151.243 220.428C151.101 220.067 150.891 219.784 150.612 219.58C150.334 219.375 149.99 219.273 149.581 219.273C149.155 219.273 148.8 219.381 148.516 219.597C148.235 219.812 148.023 220.102 147.881 220.466C147.742 220.83 147.672 221.233 147.672 221.676C147.672 222.131 147.743 222.533 147.885 222.882C148.03 223.229 148.243 223.501 148.524 223.7C148.808 223.896 149.161 223.994 149.581 223.994ZM156.91 225.136C156.279 225.136 155.735 224.997 155.278 224.719C154.823 224.438 154.473 224.045 154.225 223.543C153.981 223.037 153.859 222.449 153.859 221.778C153.859 221.108 153.981 220.517 154.225 220.006C154.473 219.491 154.816 219.091 155.257 218.804C155.7 218.514 156.217 218.369 156.808 218.369C157.149 218.369 157.485 218.426 157.818 218.54C158.15 218.653 158.453 218.838 158.725 219.094C158.998 219.347 159.215 219.682 159.377 220.099C159.539 220.517 159.62 221.031 159.62 221.642V222.068H154.575V221.199H158.598C158.598 220.83 158.524 220.5 158.376 220.21C158.231 219.92 158.024 219.692 157.754 219.524C157.487 219.357 157.171 219.273 156.808 219.273C156.407 219.273 156.061 219.372 155.768 219.571C155.478 219.767 155.255 220.023 155.099 220.338C154.943 220.653 154.865 220.991 154.865 221.352V221.932C154.865 222.426 154.95 222.845 155.12 223.189C155.294 223.53 155.534 223.79 155.84 223.969C156.147 224.145 156.504 224.233 156.91 224.233C157.174 224.233 157.413 224.196 157.626 224.122C157.842 224.045 158.028 223.932 158.184 223.781C158.34 223.628 158.461 223.437 158.546 223.21L159.518 223.483C159.416 223.812 159.244 224.102 159.002 224.352C158.761 224.599 158.463 224.793 158.108 224.932C157.752 225.068 157.353 225.136 156.91 225.136ZM163.877 218.455V219.307H160.485V218.455H163.877ZM161.473 216.886H162.479V223.125C162.479 223.409 162.52 223.622 162.603 223.764C162.688 223.903 162.796 223.997 162.926 224.045C163.06 224.091 163.201 224.114 163.348 224.114C163.459 224.114 163.55 224.108 163.621 224.097C163.692 224.082 163.749 224.071 163.792 224.062L163.996 224.966C163.928 224.991 163.833 225.017 163.711 225.043C163.588 225.071 163.434 225.085 163.246 225.085C162.962 225.085 162.684 225.024 162.411 224.902C162.141 224.78 161.917 224.594 161.738 224.344C161.561 224.094 161.473 223.778 161.473 223.398V216.886Z" fill="#191A1D"/>
<line x1="16" y1="240.5" x2="166" y2="240.5" stroke="#E3E7EB"/>
<path d="M20.7841 264.455V249.909H21.7159V264.455H20.7841ZM23.4716 254.562C23.4186 254.066 23.1951 253.68 22.8011 253.403C22.411 253.127 21.9034 252.989 21.2784 252.989C20.839 252.989 20.4621 253.055 20.1477 253.188C19.8333 253.32 19.5928 253.5 19.4261 253.727C19.2595 253.955 19.1742 254.214 19.1705 254.506C19.1705 254.748 19.2254 254.958 19.3352 255.136C19.4489 255.314 19.6023 255.466 19.7955 255.591C19.9886 255.712 20.2027 255.814 20.4375 255.898C20.6723 255.981 20.9091 256.051 21.1477 256.108L22.2386 256.381C22.678 256.483 23.1004 256.621 23.5057 256.795C23.9148 256.97 24.2803 257.189 24.6023 257.455C24.928 257.72 25.1856 258.04 25.375 258.415C25.5644 258.79 25.6591 259.229 25.6591 259.733C25.6591 260.415 25.4848 261.015 25.1364 261.534C24.7879 262.049 24.2841 262.453 23.625 262.744C22.9697 263.032 22.1761 263.176 21.2443 263.176C20.339 263.176 19.553 263.036 18.8864 262.756C18.2235 262.475 17.7045 262.066 17.3295 261.528C16.9583 260.991 16.7576 260.335 16.7273 259.562H18.8011C18.8314 259.968 18.9564 260.305 19.1761 260.574C19.3958 260.843 19.6818 261.044 20.0341 261.176C20.3902 261.309 20.7879 261.375 21.2273 261.375C21.6856 261.375 22.0871 261.307 22.4318 261.17C22.7803 261.03 23.053 260.837 23.25 260.591C23.447 260.341 23.5473 260.049 23.5511 259.716C23.5473 259.413 23.4583 259.163 23.2841 258.966C23.1098 258.765 22.8655 258.598 22.5511 258.466C22.2405 258.33 21.8769 258.208 21.4602 258.102L20.1364 257.761C19.178 257.515 18.4205 257.142 17.8636 256.642C17.3106 256.138 17.0341 255.47 17.0341 254.636C17.0341 253.951 17.2197 253.35 17.5909 252.835C17.9659 252.32 18.4754 251.92 19.1193 251.636C19.7633 251.348 20.4924 251.205 21.3068 251.205C22.1326 251.205 22.8561 251.348 23.4773 251.636C24.1023 251.92 24.5928 252.316 24.9489 252.824C25.3049 253.328 25.4886 253.907 25.5 254.562H23.4716ZM31.9977 251.364V263H29.8897V253.415H29.8215L27.0999 255.153V253.222L29.992 251.364H31.9977ZM34.7922 263V261.477L38.832 257.517C39.2184 257.127 39.5403 256.78 39.7979 256.477C40.0555 256.174 40.2487 255.881 40.3774 255.597C40.5062 255.312 40.5706 255.009 40.5706 254.688C40.5706 254.32 40.4873 254.006 40.3206 253.744C40.154 253.479 39.9248 253.275 39.6331 253.131C39.3415 252.987 39.01 252.915 38.6388 252.915C38.2562 252.915 37.921 252.994 37.6331 253.153C37.3452 253.309 37.1218 253.53 36.9627 253.818C36.8074 254.106 36.7297 254.449 36.7297 254.847H34.724C34.724 254.108 34.8926 253.466 35.2297 252.92C35.5668 252.375 36.0309 251.953 36.6218 251.653C37.2165 251.354 37.8983 251.205 38.6672 251.205C39.4475 251.205 40.1331 251.35 40.724 251.642C41.3149 251.934 41.7733 252.333 42.099 252.841C42.4286 253.348 42.5934 253.928 42.5934 254.58C42.5934 255.015 42.51 255.443 42.3434 255.864C42.1767 256.284 41.8831 256.75 41.4627 257.261C41.046 257.773 40.4608 258.392 39.707 259.119L37.7013 261.159V261.239H42.7695V263H34.7922ZM44.5697 263V261.477L48.6095 257.517C48.9959 257.127 49.3178 256.78 49.5754 256.477C49.833 256.174 50.0262 255.881 50.1549 255.597C50.2837 255.312 50.3481 255.009 50.3481 254.688C50.3481 254.32 50.2648 254.006 50.0981 253.744C49.9315 253.479 49.7023 253.275 49.4106 253.131C49.119 252.987 48.7875 252.915 48.4163 252.915C48.0337 252.915 47.6985 252.994 47.4106 253.153C47.1227 253.309 46.8993 253.53 46.7402 253.818C46.5849 254.106 46.5072 254.449 46.5072 254.847H44.5015C44.5015 254.108 44.6701 253.466 45.0072 252.92C45.3443 252.375 45.8084 251.953 46.3993 251.653C46.994 251.354 47.6758 251.205 48.4447 251.205C49.225 251.205 49.9106 251.35 50.5015 251.642C51.0924 251.934 51.5508 252.333 51.8765 252.841C52.2061 253.348 52.3709 253.928 52.3709 254.58C52.3709 255.015 52.2875 255.443 52.1209 255.864C51.9542 256.284 51.6606 256.75 51.2402 257.261C50.8235 257.773 50.2383 258.392 49.4845 259.119L47.4788 261.159V261.239H52.547V263H44.5697Z" fill="#191A1D"/>
<path d="M95.0568 259V250.273H98.108C98.7159 250.273 99.2173 250.378 99.6122 250.588C100.007 250.795 100.301 251.075 100.494 251.428C100.688 251.777 100.784 252.165 100.784 252.591C100.784 252.966 100.717 253.276 100.584 253.52C100.453 253.764 100.28 253.957 100.064 254.099C99.8509 254.241 99.6193 254.347 99.3693 254.415V254.5C99.6364 254.517 99.9048 254.611 100.175 254.781C100.445 254.952 100.67 255.196 100.852 255.514C101.034 255.832 101.125 256.222 101.125 256.682C101.125 257.119 101.026 257.513 100.827 257.862C100.628 258.212 100.314 258.489 99.8849 258.693C99.456 258.898 98.8977 259 98.2102 259H95.0568ZM96.1136 258.062H98.2102C98.9006 258.062 99.3906 257.929 99.6804 257.662C99.973 257.392 100.119 257.065 100.119 256.682C100.119 256.386 100.044 256.114 99.8935 255.864C99.7429 255.611 99.5284 255.409 99.25 255.259C98.9716 255.105 98.642 255.028 98.2614 255.028H96.1136V258.062ZM96.1136 254.108H98.0739C98.392 254.108 98.679 254.045 98.9347 253.92C99.1932 253.795 99.3977 253.619 99.5483 253.392C99.7017 253.165 99.7784 252.898 99.7784 252.591C99.7784 252.207 99.6449 251.882 99.3778 251.615C99.1108 251.345 98.6875 251.21 98.108 251.21H96.1136V254.108ZM106.73 256.324V252.455H107.736V259H106.73V257.892H106.662C106.509 258.224 106.27 258.507 105.946 258.74C105.622 258.97 105.213 259.085 104.719 259.085C104.31 259.085 103.946 258.996 103.628 258.817C103.31 258.635 103.06 258.362 102.878 257.999C102.696 257.632 102.605 257.17 102.605 256.614V252.455H103.611V256.545C103.611 257.023 103.744 257.403 104.011 257.688C104.281 257.972 104.625 258.114 105.043 258.114C105.293 258.114 105.547 258.05 105.805 257.922C106.067 257.794 106.286 257.598 106.462 257.334C106.641 257.07 106.73 256.733 106.73 256.324ZM111.929 259.136C111.384 259.136 110.902 258.999 110.485 258.723C110.067 258.445 109.74 258.053 109.505 257.547C109.269 257.038 109.151 256.438 109.151 255.744C109.151 255.057 109.269 254.46 109.505 253.955C109.74 253.449 110.069 253.058 110.489 252.783C110.91 252.507 111.395 252.369 111.946 252.369C112.373 252.369 112.709 252.44 112.956 252.582C113.206 252.722 113.397 252.881 113.527 253.06C113.661 253.236 113.765 253.381 113.838 253.494H113.924V250.273H114.929V259H113.958V257.994H113.838C113.765 258.114 113.66 258.264 113.523 258.446C113.387 258.625 113.192 258.786 112.939 258.928C112.686 259.067 112.35 259.136 111.929 259.136ZM112.066 258.233C112.469 258.233 112.81 258.128 113.088 257.918C113.367 257.705 113.579 257.411 113.723 257.036C113.868 256.658 113.941 256.222 113.941 255.727C113.941 255.239 113.87 254.811 113.728 254.445C113.586 254.075 113.375 253.788 113.097 253.584C112.819 253.376 112.475 253.273 112.066 253.273C111.64 253.273 111.285 253.382 111 253.601C110.719 253.817 110.508 254.111 110.365 254.483C110.226 254.852 110.157 255.267 110.157 255.727C110.157 256.193 110.228 256.616 110.37 256.997C110.515 257.375 110.728 257.676 111.009 257.901C111.293 258.122 111.645 258.233 112.066 258.233ZM119.433 261.591C118.947 261.591 118.53 261.528 118.18 261.403C117.831 261.281 117.54 261.119 117.307 260.918C117.076 260.719 116.893 260.506 116.757 260.278L117.558 259.716C117.649 259.835 117.764 259.972 117.903 260.125C118.042 260.281 118.233 260.416 118.474 260.53C118.718 260.646 119.038 260.705 119.433 260.705C119.961 260.705 120.397 260.577 120.741 260.321C121.085 260.065 121.257 259.665 121.257 259.119V257.79H121.172C121.098 257.909 120.993 258.057 120.856 258.233C120.723 258.406 120.53 258.561 120.277 258.697C120.027 258.831 119.689 258.898 119.263 258.898C118.734 258.898 118.26 258.773 117.839 258.523C117.422 258.273 117.091 257.909 116.846 257.432C116.605 256.955 116.484 256.375 116.484 255.693C116.484 255.023 116.602 254.439 116.838 253.942C117.074 253.442 117.402 253.055 117.822 252.783C118.243 252.507 118.728 252.369 119.28 252.369C119.706 252.369 120.044 252.44 120.294 252.582C120.547 252.722 120.74 252.881 120.873 253.06C121.01 253.236 121.115 253.381 121.189 253.494H121.291V252.455H122.263V259.188C122.263 259.75 122.135 260.207 121.879 260.56C121.626 260.915 121.285 261.175 120.856 261.339C120.43 261.507 119.956 261.591 119.433 261.591ZM119.399 257.994C119.802 257.994 120.143 257.902 120.422 257.717C120.7 257.533 120.912 257.267 121.057 256.92C121.201 256.574 121.274 256.159 121.274 255.676C121.274 255.205 121.203 254.788 121.061 254.428C120.919 254.067 120.709 253.784 120.43 253.58C120.152 253.375 119.808 253.273 119.399 253.273C118.973 253.273 118.618 253.381 118.334 253.597C118.052 253.812 117.841 254.102 117.699 254.466C117.559 254.83 117.49 255.233 117.49 255.676C117.49 256.131 117.561 256.533 117.703 256.882C117.848 257.229 118.061 257.501 118.342 257.7C118.626 257.896 118.978 257.994 119.399 257.994ZM126.728 259.136C126.097 259.136 125.553 258.997 125.096 258.719C124.641 258.438 124.29 258.045 124.043 257.543C123.799 257.037 123.677 256.449 123.677 255.778C123.677 255.108 123.799 254.517 124.043 254.006C124.29 253.491 124.634 253.091 125.074 252.804C125.518 252.514 126.035 252.369 126.625 252.369C126.966 252.369 127.303 252.426 127.635 252.54C127.968 252.653 128.27 252.838 128.543 253.094C128.816 253.347 129.033 253.682 129.195 254.099C129.357 254.517 129.438 255.031 129.438 255.642V256.068H124.393V255.199H128.415C128.415 254.83 128.341 254.5 128.194 254.21C128.049 253.92 127.841 253.692 127.571 253.524C127.304 253.357 126.989 253.273 126.625 253.273C126.225 253.273 125.878 253.372 125.586 253.571C125.296 253.767 125.073 254.023 124.917 254.338C124.76 254.653 124.682 254.991 124.682 255.352V255.932C124.682 256.426 124.768 256.845 124.938 257.189C125.111 257.53 125.351 257.79 125.658 257.969C125.965 258.145 126.321 258.233 126.728 258.233C126.992 258.233 127.231 258.196 127.444 258.122C127.66 258.045 127.846 257.932 128.002 257.781C128.158 257.628 128.279 257.437 128.364 257.21L129.336 257.483C129.233 257.812 129.062 258.102 128.82 258.352C128.579 258.599 128.28 258.793 127.925 258.932C127.57 259.068 127.171 259.136 126.728 259.136ZM133.694 252.455V253.307H130.302V252.455H133.694ZM131.291 250.886H132.297V257.125C132.297 257.409 132.338 257.622 132.42 257.764C132.505 257.903 132.613 257.997 132.744 258.045C132.878 258.091 133.018 258.114 133.166 258.114C133.277 258.114 133.368 258.108 133.439 258.097C133.51 258.082 133.567 258.071 133.609 258.062L133.814 258.966C133.746 258.991 133.65 259.017 133.528 259.043C133.406 259.071 133.251 259.085 133.064 259.085C132.78 259.085 132.501 259.024 132.228 258.902C131.959 258.78 131.734 258.594 131.555 258.344C131.379 258.094 131.291 257.778 131.291 257.398V250.886ZM139.348 250.273V259H138.342V250.273H139.348ZM143.814 259.136C143.183 259.136 142.639 258.997 142.182 258.719C141.728 258.438 141.377 258.045 141.129 257.543C140.885 257.037 140.763 256.449 140.763 255.778C140.763 255.108 140.885 254.517 141.129 254.006C141.377 253.491 141.72 253.091 142.161 252.804C142.604 252.514 143.121 252.369 143.712 252.369C144.053 252.369 144.389 252.426 144.722 252.54C145.054 252.653 145.357 252.838 145.629 253.094C145.902 253.347 146.12 253.682 146.281 254.099C146.443 254.517 146.524 255.031 146.524 255.642V256.068H141.479V255.199H145.502C145.502 254.83 145.428 254.5 145.28 254.21C145.135 253.92 144.928 253.692 144.658 253.524C144.391 253.357 144.076 253.273 143.712 253.273C143.311 253.273 142.965 253.372 142.672 253.571C142.382 253.767 142.159 254.023 142.003 254.338C141.847 254.653 141.769 254.991 141.769 255.352V255.932C141.769 256.426 141.854 256.845 142.024 257.189C142.198 257.53 142.438 257.79 142.745 257.969C143.051 258.145 143.408 258.233 143.814 258.233C144.078 258.233 144.317 258.196 144.53 258.122C144.746 258.045 144.932 257.932 145.088 257.781C145.245 257.628 145.365 257.437 145.451 257.21L146.422 257.483C146.32 257.812 146.148 258.102 145.906 258.352C145.665 258.599 145.367 258.793 145.012 258.932C144.656 259.068 144.257 259.136 143.814 259.136ZM150.849 252.455V253.307H147.321V252.455H150.849ZM148.377 259V251.551C148.377 251.176 148.465 250.864 148.642 250.614C148.818 250.364 149.046 250.176 149.328 250.051C149.609 249.926 149.906 249.864 150.218 249.864C150.465 249.864 150.667 249.884 150.823 249.923C150.98 249.963 151.096 250 151.173 250.034L150.883 250.903C150.832 250.886 150.761 250.865 150.67 250.839C150.582 250.814 150.465 250.801 150.321 250.801C149.988 250.801 149.748 250.885 149.6 251.053C149.456 251.22 149.383 251.466 149.383 251.79V259H148.377ZM154.985 252.455V253.307H151.593V252.455H154.985ZM152.582 250.886H153.587V257.125C153.587 257.409 153.628 257.622 153.711 257.764C153.796 257.903 153.904 257.997 154.035 258.045C154.168 258.091 154.309 258.114 154.457 258.114C154.567 258.114 154.658 258.108 154.729 258.097C154.8 258.082 154.857 258.071 154.9 258.062L155.104 258.966C155.036 258.991 154.941 259.017 154.819 259.043C154.697 259.071 154.542 259.085 154.354 259.085C154.07 259.085 153.792 259.024 153.519 258.902C153.249 258.78 153.025 258.594 152.846 258.344C152.67 258.094 152.582 257.778 152.582 257.398V250.886Z" fill="#191A1D"/>
</g>
<defs>
<filter id="filter0_dddddd_2693_138052" x="-80" y="-28" width="342" height="440" filterUnits="userSpaceOnUse" color-interpolation-filters="sRGB">
<feFlood flood-opacity="0" result="BackgroundImageFix"/>
<feColorMatrix in="SourceAlpha" type="matrix" values="0 0 0 0 0 0 0 0 0 0 0 0 0 0 0 0 0 0 127 0" result="hardAlpha"/>
<feOffset dy="1.43897"/>
<feGaussianBlur stdDeviation="1.1069"/>
<feColorMatrix type="matrix" values="0 0 0 0 0.109804 0 0 0 0 0.164706 0 0 0 0 0.278431 0 0 0 0.0168687 0"/>
<feBlend mode="normal" in2="BackgroundImageFix" result="effect1_dropShadow_2693_138052"/>
<feColorMatrix in="SourceAlpha" type="matrix" values="0 0 0 0 0 0 0 0 0 0 0 0 0 0 0 0 0 0 127 0" result="hardAlpha"/>
<feOffset dy="3.45805"/>
<feGaussianBlur stdDeviation="2.66004"/>
<feColorMatrix type="matrix" values="0 0 0 0 0.109804 0 0 0 0 0.164706 0 0 0 0 0.278431 0 0 0 0.0242336 0"/>
<feBlend mode="normal" in2="effect1_dropShadow_2693_138052" result="effect2_dropShadow_2693_138052"/>
<feColorMatrix in="SourceAlpha" type="matrix" values="0 0 0 0 0 0 0 0 0 0 0 0 0 0 0 0 0 0 127 0" result="hardAlpha"/>
<feOffset dy="6.51121"/>
<feGaussianBlur stdDeviation="5.00862"/>
<feColorMatrix type="matrix" values="0 0 0 0 0.109804 0 0 0 0 0.164706 0 0 0 0 0.278431 0 0 0 0.03 0"/>
<feBlend mode="normal" in2="effect2_dropShadow_2693_138052" result="effect3_dropShadow_2693_138052"/>
<feColorMatrix in="SourceAlpha" type="matrix" values="0 0 0 0 0 0 0 0 0 0 0 0 0 0 0 0 0 0 127 0" result="hardAlpha"/>
<feOffset dy="11.6149"/>
<feGaussianBlur stdDeviation="8.93452"/>
<feColorMatrix type="matrix" values="0 0 0 0 0.109804 0 0 0 0 0.164706 0 0 0 0 0.278431 0 0 0 0.0357664 0"/>
<feBlend mode="normal" in2="effect3_dropShadow_2693_138052" result="effect4_dropShadow_2693_138052"/>
<feColorMatrix in="SourceAlpha" type="matrix" values="0 0 0 0 0 0 0 0 0 0 0 0 0 0 0 0 0 0 127 0" result="hardAlpha"/>
<feOffset dy="21.7244"/>
<feGaussianBlur stdDeviation="16.711"/>
<feColorMatrix type="matrix" values="0 0 0 0 0.109804 0 0 0 0 0.164706 0 0 0 0 0.278431 0 0 0 0.0431313 0"/>
<feBlend mode="normal" in2="effect4_dropShadow_2693_138052" result="effect5_dropShadow_2693_138052"/>
<feColorMatrix in="SourceAlpha" type="matrix" values="0 0 0 0 0 0 0 0 0 0 0 0 0 0 0 0 0 0 127 0" result="hardAlpha"/>
<feOffset dy="52"/>
<feGaussianBlur stdDeviation="40"/>
<feColorMatrix type="matrix" values="0 0 0 0 0.109804 0 0 0 0 0.164706 0 0 0 0 0.278431 0 0 0 0.06 0"/>
<feBlend mode="normal" in2="effect5_dropShadow_2693_138052" result="effect6_dropShadow_2693_138052"/>
<feBlend mode="normal" in="SourceGraphic" in2="effect6_dropShadow_2693_138052" result="shape"/>
</filter>
</defs>
</svg>
