<svg width="182" height="130" viewBox="0 0 182 130" fill="none" xmlns="http://www.w3.org/2000/svg">
<g filter="url(#filter0_dddddd_2693_138053)">
<rect width="182" height="130" rx="12" fill="white"/>
<path d="M25.3068 13.8182V24H24.1136L18.5653 16.0057H18.4659V24H17.233V13.8182H18.4261L23.9943 21.8324H24.0938V13.8182H25.3068ZM30.6766 24.1591C29.9408 24.1591 29.3061 23.9967 28.7725 23.6719C28.2422 23.3438 27.8328 22.8864 27.5445 22.2997C27.2594 21.7098 27.1169 21.0237 27.1169 20.2415C27.1169 19.4593 27.2594 18.7699 27.5445 18.1733C27.8328 17.5734 28.2339 17.1061 28.7476 16.7713C29.2647 16.4332 29.8679 16.2642 30.5573 16.2642C30.955 16.2642 31.3477 16.3305 31.7355 16.4631C32.1233 16.5956 32.4763 16.8111 32.7945 17.1094C33.1127 17.4044 33.3662 17.7955 33.5551 18.2827C33.7441 18.7699 33.8385 19.3698 33.8385 20.0824V20.5795H27.9522V19.5653H32.6453C32.6453 19.1345 32.5592 18.75 32.3868 18.4119C32.2178 18.0739 31.9758 17.8071 31.661 17.6115C31.3494 17.416 30.9815 17.3182 30.5573 17.3182C30.0899 17.3182 29.6856 17.4342 29.3442 17.6662C29.0061 17.8949 28.7459 18.1932 28.5637 18.5611C28.3814 18.929 28.2902 19.3234 28.2902 19.7443V20.4205C28.2902 20.9972 28.3897 21.486 28.5885 21.8871C28.7907 22.2848 29.0708 22.5881 29.4287 22.7969C29.7867 23.0024 30.2026 23.1051 30.6766 23.1051C30.9848 23.1051 31.2632 23.062 31.5118 22.9759C31.7637 22.8864 31.9808 22.7538 32.1631 22.5781C32.3454 22.3991 32.4862 22.1771 32.5857 21.9119L33.7192 22.2301C33.5999 22.6146 33.3994 22.9527 33.1176 23.2443C32.8359 23.5327 32.4879 23.758 32.0736 23.9205C31.6593 24.0795 31.1936 24.1591 30.6766 24.1591ZM37.2134 24L34.8867 16.3636H36.1197L37.7702 22.2102H37.8498L39.4805 16.3636H40.7333L42.3441 22.1903H42.4237L44.0742 16.3636H45.3072L42.9805 24H41.8271L40.1566 18.1335H40.0373L38.3668 24H37.2134ZM55.9249 18.0739L54.8709 18.3722C54.8046 18.1965 54.7069 18.0258 54.5776 17.8601C54.4517 17.6911 54.2793 17.5518 54.0606 17.4425C53.8418 17.3331 53.5617 17.2784 53.2204 17.2784C52.753 17.2784 52.3636 17.3861 52.052 17.6016C51.7438 17.8137 51.5897 18.0838 51.5897 18.4119C51.5897 18.7036 51.6957 18.9339 51.9079 19.103C52.12 19.272 52.4514 19.4129 52.9022 19.5256L54.0357 19.804C54.7185 19.9697 55.2272 20.2232 55.562 20.5646C55.8967 20.9027 56.0641 21.3385 56.0641 21.8722C56.0641 22.3097 55.9382 22.7008 55.6863 23.0455C55.4377 23.3902 55.0897 23.6619 54.6422 23.8608C54.1948 24.0597 53.6744 24.1591 53.0812 24.1591C52.3023 24.1591 51.6576 23.9901 51.1472 23.652C50.6368 23.3139 50.3136 22.8201 50.1777 22.1705L51.2914 21.892C51.3974 22.303 51.598 22.6113 51.8929 22.8168C52.1912 23.0223 52.5807 23.125 53.0613 23.125C53.6081 23.125 54.0423 23.009 54.3638 22.777C54.6886 22.5417 54.851 22.2599 54.851 21.9318C54.851 21.6667 54.7582 21.4446 54.5726 21.2656C54.387 21.0833 54.102 20.9474 53.7175 20.858L52.4448 20.5597C51.7455 20.3939 51.2317 20.1371 50.9036 19.7891C50.5788 19.4377 50.4164 18.9986 50.4164 18.4716C50.4164 18.0407 50.5374 17.6596 50.7793 17.3281C51.0246 16.9967 51.3577 16.7365 51.7786 16.5476C52.2028 16.3587 52.6834 16.2642 53.2204 16.2642C53.976 16.2642 54.5693 16.4299 55.0002 16.7614C55.4344 17.0928 55.7426 17.5303 55.9249 18.0739ZM62.5028 20.8778V16.3636H63.6761V24H62.5028V22.7074H62.4232C62.2442 23.0952 61.9658 23.425 61.588 23.6967C61.2102 23.9652 60.7329 24.0994 60.1562 24.0994C59.6789 24.0994 59.2547 23.995 58.8835 23.7862C58.5122 23.5741 58.2206 23.2559 58.0085 22.8317C57.7963 22.4041 57.6903 21.8655 57.6903 21.2159V16.3636H58.8636V21.1364C58.8636 21.6932 59.0193 22.1373 59.3309 22.4688C59.6458 22.8002 60.0468 22.9659 60.534 22.9659C60.8257 22.9659 61.1223 22.8913 61.4239 22.7422C61.7289 22.593 61.9841 22.3643 62.1896 22.0561C62.3984 21.7479 62.5028 21.3551 62.5028 20.8778ZM65.8441 24V13.8182H67.0174V17.5767H67.1169C67.203 17.4441 67.3223 17.2751 67.4748 17.0696C67.6306 16.8608 67.8526 16.6752 68.141 16.5128C68.4327 16.3471 68.8271 16.2642 69.3242 16.2642C69.9672 16.2642 70.534 16.425 71.0245 16.7464C71.5151 17.0679 71.8979 17.5237 72.173 18.1136C72.4481 18.7036 72.5856 19.3996 72.5856 20.2017C72.5856 21.0104 72.4481 21.7114 72.173 22.3047C71.8979 22.8946 71.5167 23.352 71.0295 23.6768C70.5423 23.9983 69.9805 24.1591 69.3441 24.1591C68.8536 24.1591 68.4608 24.0779 68.1659 23.9155C67.8709 23.7498 67.6438 23.5625 67.4848 23.3537C67.3257 23.1416 67.203 22.9659 67.1169 22.8267H66.9776V24H65.8441ZM66.9975 20.1818C66.9975 20.7585 67.0821 21.2673 67.2511 21.7081C67.4201 22.1456 67.667 22.4886 67.9919 22.7372C68.3167 22.9825 68.7144 23.1051 69.185 23.1051C69.6756 23.1051 70.0849 22.9759 70.413 22.7173C70.7445 22.4555 70.993 22.1042 71.1588 21.6634C71.3278 21.2192 71.4123 20.7254 71.4123 20.1818C71.4123 19.6449 71.3294 19.161 71.1637 18.7301C71.0013 18.2959 70.7544 17.9529 70.423 17.701C70.0948 17.4458 69.6822 17.3182 69.185 17.3182C68.7078 17.3182 68.3067 17.4392 67.9819 17.6811C67.6571 17.9197 67.4118 18.2545 67.2461 18.6854C67.0804 19.1129 66.9975 19.6117 66.9975 20.1818ZM79.6494 18.0739L78.5955 18.3722C78.5292 18.1965 78.4314 18.0258 78.3021 17.8601C78.1762 17.6911 78.0038 17.5518 77.7851 17.4425C77.5663 17.3331 77.2863 17.2784 76.9449 17.2784C76.4776 17.2784 76.0881 17.3861 75.7766 17.6016C75.4683 17.8137 75.3142 18.0838 75.3142 18.4119C75.3142 18.7036 75.4203 18.9339 75.6324 19.103C75.8445 19.272 76.176 19.4129 76.6267 19.5256L77.7602 19.804C78.443 19.9697 78.9518 20.2232 79.2865 20.5646C79.6213 20.9027 79.7886 21.3385 79.7886 21.8722C79.7886 22.3097 79.6627 22.7008 79.4108 23.0455C79.1622 23.3902 78.8142 23.6619 78.3668 23.8608C77.9193 24.0597 77.399 24.1591 76.8057 24.1591C76.0268 24.1591 75.3822 23.9901 74.8717 23.652C74.3613 23.3139 74.0382 22.8201 73.9023 22.1705L75.0159 21.892C75.122 22.303 75.3225 22.6113 75.6175 22.8168C75.9158 23.0223 76.3052 23.125 76.7858 23.125C77.3327 23.125 77.7669 23.009 78.0884 22.777C78.4132 22.5417 78.5756 22.2599 78.5756 21.9318C78.5756 21.6667 78.4828 21.4446 78.2972 21.2656C78.1116 21.0833 77.8265 20.9474 77.4421 20.858L76.1693 20.5597C75.47 20.3939 74.9563 20.1371 74.6281 19.7891C74.3033 19.4377 74.1409 18.9986 74.1409 18.4716C74.1409 18.0407 74.2619 17.6596 74.5038 17.3281C74.7491 16.9967 75.0822 16.7365 75.5031 16.5476C75.9274 16.3587 76.408 16.2642 76.9449 16.2642C77.7006 16.2642 78.2939 16.4299 78.7247 16.7614C79.1589 17.0928 79.4671 17.5303 79.6494 18.0739ZM84.5171 24.1591C83.8012 24.1591 83.1847 23.9901 82.6676 23.652C82.1506 23.3139 81.7529 22.8482 81.4745 22.255C81.196 21.6617 81.0568 20.9839 81.0568 20.2216C81.0568 19.446 81.1994 18.7616 81.4844 18.1683C81.7728 17.5717 82.1738 17.1061 82.6875 16.7713C83.2046 16.4332 83.8078 16.2642 84.4972 16.2642C85.0341 16.2642 85.518 16.3636 85.9489 16.5625C86.3798 16.7614 86.7327 17.0398 87.0078 17.3977C87.2829 17.7557 87.4536 18.1733 87.5199 18.6506H86.3466C86.2571 18.3026 86.0583 17.9943 85.75 17.7259C85.4451 17.4541 85.0341 17.3182 84.5171 17.3182C84.0597 17.3182 83.6586 17.4375 83.3139 17.6761C82.9726 17.9115 82.7058 18.2446 82.5135 18.6754C82.3246 19.103 82.2301 19.6051 82.2301 20.1818C82.2301 20.7718 82.3229 21.2855 82.5085 21.723C82.6975 22.1605 82.9626 22.5002 83.304 22.7422C83.6487 22.9841 84.0531 23.1051 84.5171 23.1051C84.822 23.1051 85.0987 23.0521 85.3473 22.946C85.5959 22.84 85.8064 22.6875 85.9787 22.4886C86.1511 22.2898 86.2737 22.0511 86.3466 21.7727H87.5199C87.4536 22.2235 87.2896 22.6295 87.0277 22.9908C86.7692 23.3487 86.4262 23.6338 85.9986 23.8459C85.5744 24.0547 85.0805 24.1591 84.5171 24.1591ZM89.0951 24V16.3636H90.2286V17.517H90.3082C90.4474 17.1392 90.6993 16.8326 91.0639 16.5973C91.4284 16.362 91.8394 16.2443 92.2968 16.2443C92.383 16.2443 92.4907 16.246 92.62 16.2493C92.7492 16.2526 92.847 16.2576 92.9133 16.2642V17.4574C92.8735 17.4474 92.7824 17.4325 92.6399 17.4126C92.5007 17.3894 92.3532 17.3778 92.1974 17.3778C91.8262 17.3778 91.4947 17.4557 91.2031 17.6115C90.9147 17.764 90.686 17.9761 90.517 18.2479C90.3513 18.5163 90.2684 18.8229 90.2684 19.1676V24H89.0951ZM94.1641 24V16.3636H95.3374V24H94.1641ZM94.7607 15.0909C94.532 15.0909 94.3348 15.013 94.1691 14.8572C94.0067 14.7015 93.9255 14.5142 93.9255 14.2955C93.9255 14.0767 94.0067 13.8894 94.1691 13.7337C94.3348 13.5779 94.532 13.5 94.7607 13.5C94.9894 13.5 95.1849 13.5779 95.3473 13.7337C95.5131 13.8894 95.5959 14.0767 95.5959 14.2955C95.5959 14.5142 95.5131 14.7015 95.3473 14.8572C95.1849 15.013 94.9894 15.0909 94.7607 15.0909ZM97.3464 26.8636V16.3636H98.4799V17.5767H98.6191C98.7053 17.4441 98.8246 17.2751 98.977 17.0696C99.1328 16.8608 99.3549 16.6752 99.6432 16.5128C99.9349 16.3471 100.329 16.2642 100.826 16.2642C101.469 16.2642 102.036 16.425 102.527 16.7464C103.017 17.0679 103.4 17.5237 103.675 18.1136C103.95 18.7036 104.088 19.3996 104.088 20.2017C104.088 21.0104 103.95 21.7114 103.675 22.3047C103.4 22.8946 103.019 23.352 102.532 23.6768C102.045 23.9983 101.483 24.1591 100.846 24.1591C100.356 24.1591 99.9631 24.0779 99.6681 23.9155C99.3731 23.7498 99.1461 23.5625 98.987 23.3537C98.8279 23.1416 98.7053 22.9659 98.6191 22.8267H98.5197V26.8636H97.3464ZM98.4998 20.1818C98.4998 20.7585 98.5843 21.2673 98.7533 21.7081C98.9224 22.1456 99.1693 22.4886 99.4941 22.7372C99.8189 22.9825 100.217 23.1051 100.687 23.1051C101.178 23.1051 101.587 22.9759 101.915 22.7173C102.247 22.4555 102.495 22.1042 102.661 21.6634C102.83 21.2192 102.915 20.7254 102.915 20.1818C102.915 19.6449 102.832 19.161 102.666 18.7301C102.504 18.2959 102.257 17.9529 101.925 17.701C101.597 17.4458 101.184 17.3182 100.687 17.3182C100.21 17.3182 99.809 17.4392 99.4841 17.6811C99.1593 17.9197 98.9141 18.2545 98.7484 18.6854C98.5826 19.1129 98.4998 19.6117 98.4998 20.1818ZM109.059 16.3636V17.358H105.101V16.3636H109.059ZM106.255 14.5341H107.428V21.8125C107.428 22.1439 107.476 22.3925 107.572 22.5582C107.672 22.7206 107.798 22.83 107.95 22.8864C108.106 22.9394 108.27 22.9659 108.442 22.9659C108.571 22.9659 108.677 22.9593 108.76 22.946C108.843 22.9295 108.909 22.9162 108.959 22.9062L109.198 23.9602C109.118 23.9901 109.007 24.0199 108.865 24.0497C108.722 24.0829 108.542 24.0994 108.323 24.0994C107.991 24.0994 107.667 24.0282 107.348 23.8857C107.034 23.7431 106.772 23.526 106.563 23.2344C106.357 22.9427 106.255 22.5748 106.255 22.1307V14.5341ZM110.684 24V16.3636H111.857V24H110.684ZM111.28 15.0909C111.051 15.0909 110.854 15.013 110.689 14.8572C110.526 14.7015 110.445 14.5142 110.445 14.2955C110.445 14.0767 110.526 13.8894 110.689 13.7337C110.854 13.5779 111.051 13.5 111.28 13.5C111.509 13.5 111.704 13.5779 111.867 13.7337C112.033 13.8894 112.115 14.0767 112.115 14.2955C112.115 14.5142 112.033 14.7015 111.867 14.8572C111.704 15.013 111.509 15.0909 111.28 15.0909ZM116.968 24.1591C116.279 24.1591 115.674 23.995 115.153 23.6669C114.636 23.3388 114.232 22.8797 113.94 22.2898C113.652 21.6998 113.508 21.0104 113.508 20.2216C113.508 19.4261 113.652 18.7318 113.94 18.1385C114.232 17.5452 114.636 17.0845 115.153 16.7564C115.674 16.4283 116.279 16.2642 116.968 16.2642C117.657 16.2642 118.261 16.4283 118.778 16.7564C119.298 17.0845 119.702 17.5452 119.991 18.1385C120.282 18.7318 120.428 19.4261 120.428 20.2216C120.428 21.0104 120.282 21.6998 119.991 22.2898C119.702 22.8797 119.298 23.3388 118.778 23.6669C118.261 23.995 117.657 24.1591 116.968 24.1591ZM116.968 23.1051C117.492 23.1051 117.923 22.9709 118.261 22.7024C118.599 22.4339 118.849 22.081 119.011 21.6435C119.174 21.206 119.255 20.732 119.255 20.2216C119.255 19.7112 119.174 19.2356 119.011 18.7947C118.849 18.3539 118.599 17.9976 118.261 17.7259C117.923 17.4541 117.492 17.3182 116.968 17.3182C116.444 17.3182 116.014 17.4541 115.675 17.7259C115.337 17.9976 115.087 18.3539 114.925 18.7947C114.762 19.2356 114.681 19.7112 114.681 20.2216C114.681 20.732 114.762 21.206 114.925 21.6435C115.087 22.081 115.337 22.4339 115.675 22.7024C116.014 22.9709 116.444 23.1051 116.968 23.1051ZM123.253 19.4062V24H122.079V16.3636H123.213V17.5568H123.312C123.491 17.169 123.763 16.8575 124.128 16.6222C124.492 16.3835 124.963 16.2642 125.54 16.2642C126.057 16.2642 126.509 16.3703 126.897 16.5824C127.285 16.7912 127.586 17.1094 127.802 17.5369C128.017 17.9612 128.125 18.4981 128.125 19.1477V24H126.951V19.2273C126.951 18.6274 126.796 18.16 126.484 17.8253C126.173 17.4872 125.745 17.3182 125.201 17.3182C124.827 17.3182 124.492 17.3994 124.197 17.5618C123.906 17.7242 123.675 17.9612 123.506 18.2727C123.337 18.5843 123.253 18.9621 123.253 19.4062ZM135.538 18.0739L134.484 18.3722C134.418 18.1965 134.32 18.0258 134.191 17.8601C134.065 17.6911 133.892 17.5518 133.674 17.4425C133.455 17.3331 133.175 17.2784 132.833 17.2784C132.366 17.2784 131.977 17.3861 131.665 17.6016C131.357 17.8137 131.203 18.0838 131.203 18.4119C131.203 18.7036 131.309 18.9339 131.521 19.103C131.733 19.272 132.064 19.4129 132.515 19.5256L133.649 19.804C134.331 19.9697 134.84 20.2232 135.175 20.5646C135.51 20.9027 135.677 21.3385 135.677 21.8722C135.677 22.3097 135.551 22.7008 135.299 23.0455C135.051 23.3902 134.703 23.6619 134.255 23.8608C133.808 24.0597 133.287 24.1591 132.694 24.1591C131.915 24.1591 131.271 23.9901 130.76 23.652C130.25 23.3139 129.927 22.8201 129.791 22.1705L130.904 21.892C131.01 22.303 131.211 22.6113 131.506 22.8168C131.804 23.0223 132.194 23.125 132.674 23.125C133.221 23.125 133.655 23.009 133.977 22.777C134.302 22.5417 134.464 22.2599 134.464 21.9318C134.464 21.6667 134.371 21.4446 134.186 21.2656C134 21.0833 133.715 20.9474 133.33 20.858L132.058 20.5597C131.358 20.3939 130.845 20.1371 130.517 19.7891C130.192 19.4377 130.029 18.9986 130.029 18.4716C130.029 18.0407 130.15 17.6596 130.392 17.3281C130.638 16.9967 130.971 16.7365 131.392 16.5476C131.816 16.3587 132.296 16.2642 132.833 16.2642C133.589 16.2642 134.182 16.4299 134.613 16.7614C135.047 17.0928 135.356 17.5303 135.538 18.0739Z" fill="#191A1D"/>
<path d="M17.2926 52V50.0966L22.3423 45.1463C22.8253 44.6586 23.2277 44.2254 23.5497 43.8466C23.8717 43.4678 24.1132 43.1009 24.2741 42.7457C24.4351 42.3906 24.5156 42.0118 24.5156 41.6094C24.5156 41.1501 24.4115 40.7571 24.2031 40.4304C23.9948 40.099 23.7083 39.8433 23.3438 39.6634C22.9792 39.4834 22.5649 39.3935 22.1009 39.3935C21.6226 39.3935 21.2036 39.4929 20.8438 39.6918C20.4839 39.8859 20.2045 40.1629 20.0057 40.5227C19.8116 40.8826 19.7145 41.3111 19.7145 41.8082H17.2074C17.2074 40.8849 17.4181 40.0824 17.8395 39.4006C18.2609 38.7187 18.8409 38.1908 19.5795 37.8168C20.3229 37.4427 21.1752 37.2557 22.1364 37.2557C23.1117 37.2557 23.9688 37.438 24.7074 37.8026C25.446 38.1671 26.0189 38.6667 26.4261 39.3011C26.8381 39.9356 27.044 40.66 27.044 41.4744C27.044 42.0189 26.9399 42.554 26.7315 43.0795C26.5232 43.6051 26.1563 44.1875 25.6307 44.8267C25.1098 45.4659 24.3783 46.2401 23.4361 47.1491L20.929 49.6989V49.7983H27.2642V52H17.2926ZM29.3145 52V50.0966L34.3642 45.1463C34.8472 44.6586 35.2496 44.2254 35.5716 43.8466C35.8936 43.4678 36.135 43.1009 36.296 42.7457C36.457 42.3906 36.5375 42.0118 36.5375 41.6094C36.5375 41.1501 36.4333 40.7571 36.225 40.4304C36.0167 40.099 35.7302 39.8433 35.3656 39.6634C35.001 39.4834 34.5867 39.3935 34.1227 39.3935C33.6445 39.3935 33.2255 39.4929 32.8656 39.6918C32.5058 39.8859 32.2264 40.1629 32.0276 40.5227C31.8334 40.8826 31.7364 41.3111 31.7364 41.8082H29.2293C29.2293 40.8849 29.44 40.0824 29.8614 39.4006C30.2828 38.7187 30.8628 38.1908 31.6014 37.8168C32.3448 37.4427 33.1971 37.2557 34.1582 37.2557C35.1336 37.2557 35.9906 37.438 36.7293 37.8026C37.4679 38.1671 38.0408 38.6667 38.448 39.3011C38.8599 39.9356 39.0659 40.66 39.0659 41.4744C39.0659 42.0189 38.9617 42.554 38.7534 43.0795C38.5451 43.6051 38.1781 44.1875 37.6526 44.8267C37.1317 45.4659 36.4002 46.2401 35.458 47.1491L32.9509 49.6989V49.7983H39.2861V52H29.3145Z" fill="#191A1D"/>
<path d="M53.0782 51.4653C53.2346 51.4653 53.3494 51.398 53.4225 51.2635C53.4955 51.129 53.4905 50.996 53.4074 50.8646L49.5561 44.7195C49.4782 44.5964 49.3695 44.5349 49.2302 44.5349C49.0909 44.5349 48.9811 44.5964 48.901 44.7195L45.0632 50.8646C44.9835 50.996 44.9794 51.129 45.0507 51.2635C45.1221 51.398 45.236 51.4653 45.3924 51.4653H53.0782Z" fill="#388E3C"/>
<path d="M60.0914 43.7727V52.5H59.0346V44.8807H58.9835L56.8528 46.2955V45.2216L59.0346 43.7727H60.0914ZM62.4814 52.5V51.733L65.362 48.5795C65.7001 48.2102 65.9785 47.8892 66.1973 47.6165C66.416 47.3409 66.5779 47.0824 66.6831 46.8409C66.791 46.5966 66.845 46.3409 66.845 46.0739C66.845 45.767 66.7711 45.5014 66.6234 45.277C66.4785 45.0526 66.2797 44.8793 66.0268 44.7571C65.774 44.6349 65.4899 44.5739 65.1745 44.5739C64.8393 44.5739 64.5467 44.6435 64.2967 44.7827C64.0495 44.919 63.8578 45.1108 63.7214 45.358C63.5879 45.6051 63.5211 45.8949 63.5211 46.2273H62.5154C62.5154 45.7159 62.6333 45.267 62.8691 44.8807C63.1049 44.4943 63.426 44.1932 63.8322 43.9773C64.2413 43.7614 64.7001 43.6534 65.2086 43.6534C65.72 43.6534 66.1731 43.7614 66.568 43.9773C66.9629 44.1932 67.2725 44.4844 67.497 44.8509C67.7214 45.2173 67.8336 45.625 67.8336 46.0739C67.8336 46.3949 67.7754 46.7088 67.6589 47.0156C67.5453 47.3196 67.3464 47.6591 67.0623 48.0341C66.7811 48.4062 66.3904 48.8608 65.8904 49.3977L63.9302 51.4943V51.5625H67.987V52.5H62.4814ZM74.0758 50.8636V50.4034C74.0758 50.0852 74.1412 49.794 74.2719 49.5298C74.4054 49.2628 74.5986 49.0497 74.8514 48.8906C75.1071 48.7287 75.4168 48.6477 75.7804 48.6477C76.1497 48.6477 76.4594 48.7287 76.7094 48.8906C76.9594 49.0497 77.1483 49.2628 77.2761 49.5298C77.404 49.794 77.4679 50.0852 77.4679 50.4034V50.8636C77.4679 51.1818 77.4025 51.4744 77.2719 51.7415C77.144 52.0057 76.9537 52.2187 76.7008 52.3807C76.4508 52.5398 76.144 52.6193 75.7804 52.6193C75.4111 52.6193 75.1 52.5398 74.8472 52.3807C74.5943 52.2187 74.4025 52.0057 74.2719 51.7415C74.1412 51.4744 74.0758 51.1818 74.0758 50.8636ZM74.9452 50.4034V50.8636C74.9452 51.1278 75.0077 51.3651 75.1327 51.5753C75.2577 51.7827 75.4736 51.8864 75.7804 51.8864C76.0787 51.8864 76.2889 51.7827 76.4111 51.5753C76.5361 51.3651 76.5986 51.1278 76.5986 50.8636V50.4034C76.5986 50.1392 76.5389 49.9034 76.4196 49.696C76.3003 49.4858 76.0872 49.3807 75.7804 49.3807C75.4821 49.3807 75.2676 49.4858 75.1369 49.696C75.0091 49.9034 74.9452 50.1392 74.9452 50.4034ZM69.7293 45.8693V45.4091C69.7293 45.0909 69.7946 44.7997 69.9253 44.5355C70.0588 44.2685 70.252 44.0554 70.5048 43.8963C70.7605 43.7344 71.0702 43.6534 71.4338 43.6534C71.8031 43.6534 72.1128 43.7344 72.3628 43.8963C72.6128 44.0554 72.8017 44.2685 72.9295 44.5355C73.0574 44.7997 73.1213 45.0909 73.1213 45.4091V45.8693C73.1213 46.1875 73.056 46.4801 72.9253 46.7472C72.7974 47.0114 72.6071 47.2244 72.3543 47.3864C72.1043 47.5455 71.7974 47.625 71.4338 47.625C71.0645 47.625 70.7534 47.5455 70.5006 47.3864C70.2477 47.2244 70.056 47.0114 69.9253 46.7472C69.7946 46.4801 69.7293 46.1875 69.7293 45.8693ZM70.5986 45.4091V45.8693C70.5986 46.1335 70.6611 46.3707 70.7861 46.581C70.9111 46.7884 71.127 46.892 71.4338 46.892C71.7321 46.892 71.9423 46.7884 72.0645 46.581C72.1895 46.3707 72.252 46.1335 72.252 45.8693V45.4091C72.252 45.1449 72.1923 44.9091 72.073 44.7017C71.9537 44.4915 71.7406 44.3864 71.4338 44.3864C71.1355 44.3864 70.921 44.4915 70.7903 44.7017C70.6625 44.9091 70.5986 45.1449 70.5986 45.4091ZM70.0531 52.5L76.0531 43.7727H77.0247L71.0247 52.5H70.0531Z" fill="#388E3C"/>
<path d="M16 81C16 79.8954 16.8954 79 18 79H21C22.1046 79 23 79.8954 23 81L23 113C23 114.105 22.1046 115 21 115H18C16.8954 115 16 114.105 16 113L16 81Z" fill="#FF7001"/>
<path d="M25 88C25 86.8954 25.8954 86 27 86H30C31.1046 86 32 86.8954 32 88L32 113C32 114.105 31.1046 115 30 115H27C25.8954 115 25 114.105 25 113L25 88Z" fill="#FF7001"/>
<path d="M34 90C34 88.8954 34.8954 88 36 88H39C40.1046 88 41 88.8954 41 90L41 113C41 114.105 40.1046 115 39 115H36C34.8954 115 34 114.105 34 113L34 90Z" fill="#1184E9"/>
<path d="M43 93C43 91.8954 43.8954 91 45 91H48C49.1046 91 50 91.8954 50 93L50 113C50 114.105 49.1046 115 48 115H45C43.8954 115 43 114.105 43 113L43 93Z" fill="#FFD7B8"/>
<path d="M52 96C52 94.8954 52.8954 94 54 94H57C58.1046 94 59 94.8954 59 96L59 113C59 114.105 58.1046 115 57 115H54C52.8954 115 52 114.105 52 113L52 96Z" fill="#1184E9"/>
<path d="M61 100C61 98.8954 61.8954 98 63 98H66C67.1046 98 68 98.8954 68 100L68 113C68 114.105 67.1046 115 66 115H63C61.8954 115 61 114.105 61 113L61 100Z" fill="#FFD7B8"/>
<path d="M70 102C70 100.895 70.8954 100 72 100H75C76.1046 100 77 100.895 77 102L77 113C77 114.105 76.1046 115 75 115H72C70.8954 115 70 114.105 70 113L70 102Z" fill="#FFD7B8"/>
<path d="M79 102C79 100.895 79.8954 100 81 100H84C85.1046 100 86 100.895 86 102L86 113C86 114.105 85.1046 115 84 115H81C79.8954 115 79 114.105 79 113L79 102Z" fill="#1184E9"/>
<path d="M88 102C88 100.895 88.8954 100 90 100H93C94.1046 100 95 100.895 95 102L95 113C95 114.105 94.1046 115 93 115H90C88.8954 115 88 114.105 88 113L88 102Z" fill="#1184E9"/>
<path d="M97 100C97 98.8954 97.8954 98 99 98H102C103.105 98 104 98.8954 104 100L104 113C104 114.105 103.105 115 102 115H99C97.8954 115 97 114.105 97 113L97 100Z" fill="#FF7001"/>
<path d="M106 93C106 91.8954 106.895 91 108 91H111C112.105 91 113 91.8954 113 93L113 113C113 114.105 112.105 115 111 115H108C106.895 115 106 114.105 106 113L106 93Z" fill="#FFD7B8"/>
<path d="M115 81C115 79.8954 115.895 79 117 79H120C121.105 79 122 79.8954 122 81L122 113C122 114.105 121.105 115 120 115H117C115.895 115 115 114.105 115 113L115 81Z" fill="#1184E9"/>
<path d="M124 77C124 75.8954 124.895 75 126 75H129C130.105 75 131 75.8954 131 77V113C131 114.105 130.105 115 129 115H126C124.895 115 124 114.105 124 113L124 77Z" fill="#1184E9"/>
<path d="M133 77C133 75.8954 133.895 75 135 75H138C139.105 75 140 75.8954 140 77V113C140 114.105 139.105 115 138 115H135C133.895 115 133 114.105 133 113V77Z" fill="#FFD7B8"/>
<path d="M142 84C142 82.8954 142.895 82 144 82H147C148.105 82 149 82.8954 149 84V113C149 114.105 148.105 115 147 115H144C142.895 115 142 114.105 142 113V84Z" fill="#FFD7B8"/>
<path d="M151 81C151 79.8954 151.895 79 153 79H156C157.105 79 158 79.8954 158 81V113C158 114.105 157.105 115 156 115H153C151.895 115 151 114.105 151 113V81Z" fill="#FF7001"/>
<path d="M160 90C160 88.8954 160.895 88 162 88H165C166.105 88 167 88.8954 167 90V113C167 114.105 166.105 115 165 115H162C160.895 115 160 114.105 160 113V90Z" fill="#FF7001"/>
</g>
<defs>
<filter id="filter0_dddddd_2693_138053" x="-80" y="-28" width="342" height="290" filterUnits="userSpaceOnUse" color-interpolation-filters="sRGB">
<feFlood flood-opacity="0" result="BackgroundImageFix"/>
<feColorMatrix in="SourceAlpha" type="matrix" values="0 0 0 0 0 0 0 0 0 0 0 0 0 0 0 0 0 0 127 0" result="hardAlpha"/>
<feOffset dy="1.43897"/>
<feGaussianBlur stdDeviation="1.1069"/>
<feColorMatrix type="matrix" values="0 0 0 0 0.109804 0 0 0 0 0.164706 0 0 0 0 0.278431 0 0 0 0.0168687 0"/>
<feBlend mode="normal" in2="BackgroundImageFix" result="effect1_dropShadow_2693_138053"/>
<feColorMatrix in="SourceAlpha" type="matrix" values="0 0 0 0 0 0 0 0 0 0 0 0 0 0 0 0 0 0 127 0" result="hardAlpha"/>
<feOffset dy="3.45805"/>
<feGaussianBlur stdDeviation="2.66004"/>
<feColorMatrix type="matrix" values="0 0 0 0 0.109804 0 0 0 0 0.164706 0 0 0 0 0.278431 0 0 0 0.0242336 0"/>
<feBlend mode="normal" in2="effect1_dropShadow_2693_138053" result="effect2_dropShadow_2693_138053"/>
<feColorMatrix in="SourceAlpha" type="matrix" values="0 0 0 0 0 0 0 0 0 0 0 0 0 0 0 0 0 0 127 0" result="hardAlpha"/>
<feOffset dy="6.51121"/>
<feGaussianBlur stdDeviation="5.00862"/>
<feColorMatrix type="matrix" values="0 0 0 0 0.109804 0 0 0 0 0.164706 0 0 0 0 0.278431 0 0 0 0.03 0"/>
<feBlend mode="normal" in2="effect2_dropShadow_2693_138053" result="effect3_dropShadow_2693_138053"/>
<feColorMatrix in="SourceAlpha" type="matrix" values="0 0 0 0 0 0 0 0 0 0 0 0 0 0 0 0 0 0 127 0" result="hardAlpha"/>
<feOffset dy="11.6149"/>
<feGaussianBlur stdDeviation="8.93452"/>
<feColorMatrix type="matrix" values="0 0 0 0 0.109804 0 0 0 0 0.164706 0 0 0 0 0.278431 0 0 0 0.0357664 0"/>
<feBlend mode="normal" in2="effect3_dropShadow_2693_138053" result="effect4_dropShadow_2693_138053"/>
<feColorMatrix in="SourceAlpha" type="matrix" values="0 0 0 0 0 0 0 0 0 0 0 0 0 0 0 0 0 0 127 0" result="hardAlpha"/>
<feOffset dy="21.7244"/>
<feGaussianBlur stdDeviation="16.711"/>
<feColorMatrix type="matrix" values="0 0 0 0 0.109804 0 0 0 0 0.164706 0 0 0 0 0.278431 0 0 0 0.0431313 0"/>
<feBlend mode="normal" in2="effect4_dropShadow_2693_138053" result="effect5_dropShadow_2693_138053"/>
<feColorMatrix in="SourceAlpha" type="matrix" values="0 0 0 0 0 0 0 0 0 0 0 0 0 0 0 0 0 0 127 0" result="hardAlpha"/>
<feOffset dy="52"/>
<feGaussianBlur stdDeviation="40"/>
<feColorMatrix type="matrix" values="0 0 0 0 0.109804 0 0 0 0 0.164706 0 0 0 0 0.278431 0 0 0 0.06 0"/>
<feBlend mode="normal" in2="effect5_dropShadow_2693_138053" result="effect6_dropShadow_2693_138053"/>
<feBlend mode="normal" in="SourceGraphic" in2="effect6_dropShadow_2693_138053" result="shape"/>
</filter>
</defs>
</svg>
