<svg width="182" height="130" viewBox="0 0 182 130" fill="none" xmlns="http://www.w3.org/2000/svg">
<g filter="url(#filter0_dddddd_2693_138054)">
<rect width="182" height="130" rx="12" fill="white"/>
<path d="M22.8011 16.3636C22.7415 15.8598 22.4995 15.4688 22.0753 15.1903C21.651 14.9119 21.1307 14.7727 20.5142 14.7727C20.0634 14.7727 19.669 14.8456 19.331 14.9915C18.9962 15.1373 18.7344 15.3378 18.5455 15.593C18.3598 15.8482 18.267 16.1383 18.267 16.4631C18.267 16.7348 18.3317 16.9685 18.4609 17.1641C18.5935 17.3563 18.7625 17.517 18.968 17.6463C19.1735 17.7723 19.389 17.8767 19.6143 17.9595C19.8397 18.0391 20.0469 18.1037 20.2358 18.1534L21.2699 18.4318C21.535 18.5014 21.83 18.5975 22.1548 18.7202C22.483 18.8428 22.7962 19.0102 23.0945 19.2223C23.3961 19.4311 23.6446 19.6996 23.8402 20.0277C24.0357 20.3558 24.1335 20.7585 24.1335 21.2358C24.1335 21.786 23.9893 22.2831 23.701 22.7273C23.416 23.1714 22.9983 23.5244 22.4482 23.7862C21.9013 24.0481 21.2367 24.179 20.4545 24.179C19.7254 24.179 19.094 24.0613 18.5604 23.826C18.0301 23.5907 17.6125 23.2625 17.3075 22.8416C17.0059 22.4207 16.8352 21.9318 16.7955 21.375H18.0682C18.1013 21.7595 18.2306 22.0777 18.456 22.3295C18.6847 22.5781 18.973 22.7637 19.321 22.8864C19.6723 23.0057 20.0502 23.0653 20.4545 23.0653C20.9252 23.0653 21.3478 22.9891 21.7223 22.8366C22.0968 22.6809 22.3935 22.4654 22.6122 22.1903C22.831 21.9119 22.9403 21.5871 22.9403 21.2159C22.9403 20.8778 22.8459 20.6027 22.657 20.3906C22.468 20.1785 22.2195 20.0062 21.9112 19.8736C21.603 19.741 21.2699 19.625 20.9119 19.5256L19.6591 19.1676C18.8636 18.9389 18.2339 18.6125 17.7699 18.1882C17.3059 17.764 17.0739 17.2088 17.0739 16.5227C17.0739 15.9527 17.228 15.4555 17.5362 15.0312C17.8478 14.6037 18.2654 14.2723 18.7891 14.0369C19.3161 13.7983 19.9044 13.679 20.554 13.679C21.2102 13.679 21.7936 13.7966 22.304 14.032C22.8144 14.264 23.2188 14.5821 23.517 14.9865C23.8187 15.3909 23.9777 15.8499 23.9943 16.3636H22.8011ZM30.6741 20.8778V16.3636H31.8474V24H30.6741V22.7074H30.5946C30.4156 23.0952 30.1372 23.425 29.7593 23.6967C29.3815 23.9652 28.9042 24.0994 28.3275 24.0994C27.8502 24.0994 27.426 23.995 27.0548 23.7862C26.6836 23.5741 26.3919 23.2559 26.1798 22.8317C25.9677 22.4041 25.8616 21.8655 25.8616 21.2159V16.3636H27.0349V21.1364C27.0349 21.6932 27.1907 22.1373 27.5022 22.4688C27.8171 22.8002 28.2181 22.9659 28.7053 22.9659C28.997 22.9659 29.2937 22.8913 29.5953 22.7422C29.9002 22.593 30.1554 22.3643 30.3609 22.0561C30.5697 21.7479 30.6741 21.3551 30.6741 20.8778ZM34.0155 24V13.8182H35.1887V17.5767H35.2882C35.3744 17.4441 35.4937 17.2751 35.6461 17.0696C35.8019 16.8608 36.024 16.6752 36.3123 16.5128C36.604 16.3471 36.9984 16.2642 37.4956 16.2642C38.1386 16.2642 38.7053 16.425 39.1959 16.7464C39.6864 17.0679 40.0692 17.5237 40.3443 18.1136C40.6194 18.7036 40.7569 19.3996 40.7569 20.2017C40.7569 21.0104 40.6194 21.7114 40.3443 22.3047C40.0692 22.8946 39.688 23.352 39.2008 23.6768C38.7136 23.9983 38.1518 24.1591 37.5155 24.1591C37.0249 24.1591 36.6322 24.0779 36.3372 23.9155C36.0422 23.7498 35.8152 23.5625 35.6561 23.3537C35.497 23.1416 35.3744 22.9659 35.2882 22.8267H35.149V24H34.0155ZM35.1689 20.1818C35.1689 20.7585 35.2534 21.2673 35.4224 21.7081C35.5914 22.1456 35.8384 22.4886 36.1632 22.7372C36.488 22.9825 36.8857 23.1051 37.3564 23.1051C37.8469 23.1051 38.2562 22.9759 38.5843 22.7173C38.9158 22.4555 39.1644 22.1042 39.3301 21.6634C39.4991 21.2192 39.5836 20.7254 39.5836 20.1818C39.5836 19.6449 39.5008 19.161 39.3351 18.7301C39.1727 18.2959 38.9257 17.9529 38.5943 17.701C38.2662 17.4458 37.8535 17.3182 37.3564 17.3182C36.8791 17.3182 36.478 17.4392 36.1532 17.6811C35.8284 17.9197 35.5832 18.2545 35.4174 18.6854C35.2517 19.1129 35.1689 19.6117 35.1689 20.1818ZM47.8208 18.0739L46.7668 18.3722C46.7005 18.1965 46.6027 18.0258 46.4735 17.8601C46.3475 17.6911 46.1752 17.5518 45.9564 17.4425C45.7377 17.3331 45.4576 17.2784 45.1162 17.2784C44.6489 17.2784 44.2595 17.3861 43.9479 17.6016C43.6397 17.8137 43.4855 18.0838 43.4855 18.4119C43.4855 18.7036 43.5916 18.9339 43.8037 19.103C44.0158 19.272 44.3473 19.4129 44.798 19.5256L45.9316 19.804C46.6143 19.9697 47.1231 20.2232 47.4578 20.5646C47.7926 20.9027 47.96 21.3385 47.96 21.8722C47.96 22.3097 47.834 22.7008 47.5821 23.0455C47.3336 23.3902 46.9855 23.6619 46.5381 23.8608C46.0907 24.0597 45.5703 24.1591 44.977 24.1591C44.1981 24.1591 43.5535 23.9901 43.0431 23.652C42.5327 23.3139 42.2095 22.8201 42.0736 22.1705L43.1872 21.892C43.2933 22.303 43.4938 22.6113 43.7888 22.8168C44.0871 23.0223 44.4765 23.125 44.9571 23.125C45.504 23.125 45.9382 23.009 46.2597 22.777C46.5845 22.5417 46.7469 22.2599 46.7469 21.9318C46.7469 21.6667 46.6541 21.4446 46.4685 21.2656C46.2829 21.0833 45.9979 20.9474 45.6134 20.858L44.3407 20.5597C43.6413 20.3939 43.1276 20.1371 42.7995 19.7891C42.4746 19.4377 42.3122 18.9986 42.3122 18.4716C42.3122 18.0407 42.4332 17.6596 42.6752 17.3281C42.9204 16.9967 43.2535 16.7365 43.6745 16.5476C44.0987 16.3587 44.5793 16.2642 45.1162 16.2642C45.8719 16.2642 46.4652 16.4299 46.8961 16.7614C47.3302 17.0928 47.6385 17.5303 47.8208 18.0739ZM52.6884 24.1591C51.9725 24.1591 51.356 23.9901 50.839 23.652C50.3219 23.3139 49.9242 22.8482 49.6458 22.255C49.3674 21.6617 49.2282 20.9839 49.2282 20.2216C49.2282 19.446 49.3707 18.7616 49.6557 18.1683C49.9441 17.5717 50.3451 17.1061 50.8589 16.7713C51.3759 16.4332 51.9791 16.2642 52.6685 16.2642C53.2054 16.2642 53.6893 16.3636 54.1202 16.5625C54.5511 16.7614 54.9041 17.0398 55.1792 17.3977C55.4543 17.7557 55.625 18.1733 55.6912 18.6506H54.5179C54.4285 18.3026 54.2296 17.9943 53.9214 17.7259C53.6164 17.4541 53.2054 17.3182 52.6884 17.3182C52.231 17.3182 51.83 17.4375 51.4853 17.6761C51.1439 17.9115 50.8771 18.2446 50.6848 18.6754C50.4959 19.103 50.4015 19.6051 50.4015 20.1818C50.4015 20.7718 50.4943 21.2855 50.6799 21.723C50.8688 22.1605 51.1339 22.5002 51.4753 22.7422C51.82 22.9841 52.2244 23.1051 52.6884 23.1051C52.9933 23.1051 53.2701 23.0521 53.5187 22.946C53.7672 22.84 53.9777 22.6875 54.15 22.4886C54.3224 22.2898 54.445 22.0511 54.5179 21.7727H55.6912C55.625 22.2235 55.4609 22.6295 55.1991 22.9908C54.9405 23.3487 54.5975 23.6338 54.1699 23.8459C53.7457 24.0547 53.2518 24.1591 52.6884 24.1591ZM57.2664 24V16.3636H58.4V17.517H58.4795C58.6187 17.1392 58.8706 16.8326 59.2352 16.5973C59.5998 16.362 60.0108 16.2443 60.4681 16.2443C60.5543 16.2443 60.662 16.246 60.7913 16.2493C60.9206 16.2526 61.0183 16.2576 61.0846 16.2642V17.4574C61.0449 17.4474 60.9537 17.4325 60.8112 17.4126C60.672 17.3894 60.5245 17.3778 60.3687 17.3778C59.9975 17.3778 59.6661 17.4557 59.3744 17.6115C59.086 17.764 58.8574 17.9761 58.6883 18.2479C58.5226 18.5163 58.4397 18.8229 58.4397 19.1676V24H57.2664ZM62.3354 24V16.3636H63.5087V24H62.3354ZM62.932 15.0909C62.7033 15.0909 62.5061 15.013 62.3404 14.8572C62.178 14.7015 62.0968 14.5142 62.0968 14.2955C62.0968 14.0767 62.178 13.8894 62.3404 13.7337C62.5061 13.5779 62.7033 13.5 62.932 13.5C63.1607 13.5 63.3563 13.5779 63.5187 13.7337C63.6844 13.8894 63.7672 14.0767 63.7672 14.2955C63.7672 14.5142 63.6844 14.7015 63.5187 14.8572C63.3563 15.013 63.1607 15.0909 62.932 15.0909ZM65.5177 26.8636V16.3636H66.6512V17.5767H66.7904C66.8766 17.4441 66.9959 17.2751 67.1484 17.0696C67.3042 16.8608 67.5262 16.6752 67.8146 16.5128C68.1062 16.3471 68.5006 16.2642 68.9978 16.2642C69.6408 16.2642 70.2076 16.425 70.6981 16.7464C71.1886 17.0679 71.5714 17.5237 71.8465 18.1136C72.1216 18.7036 72.2592 19.3996 72.2592 20.2017C72.2592 21.0104 72.1216 21.7114 71.8465 22.3047C71.5714 22.8946 71.1903 23.352 70.7031 23.6768C70.2158 23.9983 69.6541 24.1591 69.0177 24.1591C68.5272 24.1591 68.1344 24.0779 67.8394 23.9155C67.5444 23.7498 67.3174 23.5625 67.1583 23.3537C66.9992 23.1416 66.8766 22.9659 66.7904 22.8267H66.691V26.8636H65.5177ZM66.6711 20.1818C66.6711 20.7585 66.7556 21.2673 66.9247 21.7081C67.0937 22.1456 67.3406 22.4886 67.6654 22.7372C67.9902 22.9825 68.388 23.1051 68.8586 23.1051C69.3491 23.1051 69.7585 22.9759 70.0866 22.7173C70.418 22.4555 70.6666 22.1042 70.8323 21.6634C71.0014 21.2192 71.0859 20.7254 71.0859 20.1818C71.0859 19.6449 71.003 19.161 70.8373 18.7301C70.6749 18.2959 70.428 17.9529 70.0965 17.701C69.7684 17.4458 69.3558 17.3182 68.8586 17.3182C68.3813 17.3182 67.9803 17.4392 67.6555 17.6811C67.3307 17.9197 67.0854 18.2545 66.9197 18.6854C66.754 19.1129 66.6711 19.6117 66.6711 20.1818ZM77.23 16.3636V17.358H73.2726V16.3636H77.23ZM74.426 14.5341H75.5993V21.8125C75.5993 22.1439 75.6473 22.3925 75.7435 22.5582C75.8429 22.7206 75.9688 22.83 76.1213 22.8864C76.2771 22.9394 76.4411 22.9659 76.6135 22.9659C76.7427 22.9659 76.8488 22.9593 76.9317 22.946C77.0145 22.9295 77.0808 22.9162 77.1305 22.9062L77.3692 23.9602C77.2896 23.9901 77.1786 24.0199 77.0361 24.0497C76.8936 24.0829 76.7129 24.0994 76.4942 24.0994C76.1627 24.0994 75.8379 24.0282 75.5197 23.8857C75.2049 23.7431 74.943 23.526 74.7342 23.2344C74.5287 22.9427 74.426 22.5748 74.426 22.1307V14.5341ZM78.8549 24V16.3636H80.0282V24H78.8549ZM79.4515 15.0909C79.2228 15.0909 79.0256 15.013 78.8599 14.8572C78.6974 14.7015 78.6162 14.5142 78.6162 14.2955C78.6162 14.0767 78.6974 13.8894 78.8599 13.7337C79.0256 13.5779 79.2228 13.5 79.4515 13.5C79.6802 13.5 79.8757 13.5779 80.0381 13.7337C80.2038 13.8894 80.2867 14.0767 80.2867 14.2955C80.2867 14.5142 80.2038 14.7015 80.0381 14.8572C79.8757 15.013 79.6802 15.0909 79.4515 15.0909ZM85.1394 24.1591C84.45 24.1591 83.8451 23.995 83.3248 23.6669C82.8077 23.3388 82.4034 22.8797 82.1117 22.2898C81.8234 21.6998 81.6792 21.0104 81.6792 20.2216C81.6792 19.4261 81.8234 18.7318 82.1117 18.1385C82.4034 17.5452 82.8077 17.0845 83.3248 16.7564C83.8451 16.4283 84.45 16.2642 85.1394 16.2642C85.8288 16.2642 86.432 16.4283 86.9491 16.7564C87.4694 17.0845 87.8738 17.5452 88.1621 18.1385C88.4538 18.7318 88.5996 19.4261 88.5996 20.2216C88.5996 21.0104 88.4538 21.6998 88.1621 22.2898C87.8738 22.8797 87.4694 23.3388 86.9491 23.6669C86.432 23.995 85.8288 24.1591 85.1394 24.1591ZM85.1394 23.1051C85.6631 23.1051 86.094 22.9709 86.432 22.7024C86.7701 22.4339 87.0203 22.081 87.1827 21.6435C87.3451 21.206 87.4263 20.732 87.4263 20.2216C87.4263 19.7112 87.3451 19.2356 87.1827 18.7947C87.0203 18.3539 86.7701 17.9976 86.432 17.7259C86.094 17.4541 85.6631 17.3182 85.1394 17.3182C84.6157 17.3182 84.1849 17.4541 83.8468 17.7259C83.5087 17.9976 83.2585 18.3539 83.0961 18.7947C82.9337 19.2356 82.8525 19.7112 82.8525 20.2216C82.8525 20.732 82.9337 21.206 83.0961 21.6435C83.2585 22.081 83.5087 22.4339 83.8468 22.7024C84.1849 22.9709 84.6157 23.1051 85.1394 23.1051ZM91.424 19.4062V24H90.2507V16.3636H91.3842V17.5568H91.4836C91.6626 17.169 91.9344 16.8575 92.299 16.6222C92.6635 16.3835 93.1342 16.2642 93.7109 16.2642C94.2279 16.2642 94.6803 16.3703 95.0681 16.5824C95.4559 16.7912 95.7575 17.1094 95.973 17.5369C96.1884 17.9612 96.2961 18.4981 96.2961 19.1477V24H95.1228V19.2273C95.1228 18.6274 94.967 18.16 94.6555 17.8253C94.3439 17.4872 93.9164 17.3182 93.3728 17.3182C92.9983 17.3182 92.6635 17.3994 92.3686 17.5618C92.0769 17.7242 91.8465 17.9612 91.6775 18.2727C91.5085 18.5843 91.424 18.9621 91.424 19.4062ZM103.709 18.0739L102.655 18.3722C102.589 18.1965 102.491 18.0258 102.362 17.8601C102.236 17.6911 102.064 17.5518 101.845 17.4425C101.626 17.3331 101.346 17.2784 101.005 17.2784C100.537 17.2784 100.148 17.3861 99.8363 17.6016C99.5281 17.8137 99.374 18.0838 99.374 18.4119C99.374 18.7036 99.48 18.9339 99.6922 19.103C99.9043 19.272 100.236 19.4129 100.686 19.5256L101.82 19.804C102.503 19.9697 103.012 20.2232 103.346 20.5646C103.681 20.9027 103.848 21.3385 103.848 21.8722C103.848 22.3097 103.722 22.7008 103.471 23.0455C103.222 23.3902 102.874 23.6619 102.427 23.8608C101.979 24.0597 101.459 24.1591 100.865 24.1591C100.087 24.1591 99.4419 23.9901 98.9315 23.652C98.4211 23.3139 98.0979 22.8201 97.962 22.1705L99.0757 21.892C99.1817 22.303 99.3823 22.6113 99.6772 22.8168C99.9755 23.0223 100.365 23.125 100.846 23.125C101.392 23.125 101.827 23.009 102.148 22.777C102.473 22.5417 102.635 22.2599 102.635 21.9318C102.635 21.6667 102.543 21.4446 102.357 21.2656C102.171 21.0833 101.886 20.9474 101.502 20.858L100.229 20.5597C99.5298 20.3939 99.016 20.1371 98.6879 19.7891C98.3631 19.4377 98.2007 18.9986 98.2007 18.4716C98.2007 18.0407 98.3217 17.6596 98.5636 17.3281C98.8089 16.9967 99.142 16.7365 99.5629 16.5476C99.9871 16.3587 100.468 16.2642 101.005 16.2642C101.76 16.2642 102.354 16.4299 102.784 16.7614C103.219 17.0928 103.527 17.5303 103.709 18.0739ZM17.233 44V33.8182H18.4062V37.5767H18.5057C18.5919 37.4441 18.7112 37.2751 18.8636 37.0696C19.0194 36.8608 19.2415 36.6752 19.5298 36.5128C19.8215 36.3471 20.2159 36.2642 20.7131 36.2642C21.3561 36.2642 21.9228 36.425 22.4134 36.7464C22.9039 37.0679 23.2867 37.5237 23.5618 38.1136C23.8369 38.7036 23.9744 39.3996 23.9744 40.2017C23.9744 41.0104 23.8369 41.7114 23.5618 42.3047C23.2867 42.8946 22.9055 43.352 22.4183 43.6768C21.9311 43.9983 21.3693 44.1591 20.733 44.1591C20.2424 44.1591 19.8497 44.0779 19.5547 43.9155C19.2597 43.7498 19.0327 43.5625 18.8736 43.3537C18.7145 43.1416 18.5919 42.9659 18.5057 42.8267H18.3665V44H17.233ZM18.3864 40.1818C18.3864 40.7585 18.4709 41.2673 18.6399 41.7081C18.8089 42.1456 19.0559 42.4886 19.3807 42.7372C19.7055 42.9825 20.1032 43.1051 20.5739 43.1051C21.0644 43.1051 21.4737 42.9759 21.8018 42.7173C22.1333 42.4555 22.3819 42.1042 22.5476 41.6634C22.7166 41.2192 22.8011 40.7254 22.8011 40.1818C22.8011 39.6449 22.7183 39.161 22.5526 38.7301C22.3902 38.2959 22.1432 37.9529 21.8118 37.701C21.4837 37.4458 21.071 37.3182 20.5739 37.3182C20.0966 37.3182 19.6955 37.4392 19.3707 37.6811C19.0459 37.9197 18.8007 38.2545 18.6349 38.6854C18.4692 39.1129 18.3864 39.6117 18.3864 40.1818ZM27.8763 44.179C27.3924 44.179 26.9533 44.0878 26.5589 43.9055C26.1645 43.7199 25.8512 43.4531 25.6192 43.1051C25.3872 42.7538 25.2712 42.3295 25.2712 41.8324C25.2712 41.3949 25.3574 41.0402 25.5297 40.7685C25.7021 40.4934 25.9324 40.2779 26.2208 40.1222C26.5091 39.9664 26.8273 39.8504 27.1753 39.7741C27.5267 39.6946 27.8796 39.6316 28.2343 39.5852C28.6983 39.5256 29.0745 39.4808 29.3628 39.451C29.6545 39.4179 29.8666 39.3632 29.9992 39.2869C30.1351 39.2107 30.203 39.0781 30.203 38.8892V38.8494C30.203 38.3589 30.0688 37.9777 29.8003 37.706C29.5352 37.4342 29.1325 37.2983 28.5922 37.2983C28.0321 37.2983 27.593 37.4209 27.2748 37.6662C26.9566 37.9115 26.7329 38.1733 26.6036 38.4517L25.49 38.054C25.6888 37.59 25.954 37.2287 26.2854 36.9702C26.6202 36.7083 26.9848 36.526 27.3792 36.4233C27.7769 36.3172 28.168 36.2642 28.5525 36.2642C28.7977 36.2642 29.0795 36.294 29.3976 36.3537C29.7191 36.41 30.029 36.5277 30.3273 36.7067C30.6289 36.8857 30.8792 37.1558 31.078 37.517C31.2769 37.8783 31.3763 38.3622 31.3763 38.9688V44H30.203V42.9659H30.1434C30.0638 43.1316 29.9313 43.3089 29.7457 43.4979C29.56 43.6868 29.3131 43.8475 29.0049 43.9801C28.6966 44.1127 28.3205 44.179 27.8763 44.179ZM28.0553 43.125C28.5193 43.125 28.9104 43.0339 29.2286 42.8516C29.5501 42.6693 29.7921 42.4339 29.9545 42.1456C30.1202 41.8572 30.203 41.554 30.203 41.2358V40.1619C30.1533 40.2216 30.0439 40.2763 29.8749 40.326C29.7092 40.3724 29.517 40.4138 29.2982 40.4503C29.0828 40.4834 28.8723 40.5133 28.6668 40.5398C28.4646 40.563 28.3006 40.5829 28.1746 40.5994C27.8697 40.6392 27.5847 40.7038 27.3195 40.7933C27.0577 40.8795 26.8456 41.0104 26.6832 41.1861C26.5241 41.3584 26.4445 41.5937 26.4445 41.892C26.4445 42.2997 26.5953 42.608 26.8969 42.8168C27.2019 43.0223 27.588 43.125 28.0553 43.125ZM34.5511 33.8182V44H33.3778V33.8182H34.5511ZM38.8073 44.179C38.3234 44.179 37.8842 44.0878 37.4898 43.9055C37.0954 43.7199 36.7822 43.4531 36.5502 43.1051C36.3182 42.7538 36.2022 42.3295 36.2022 41.8324C36.2022 41.3949 36.2883 41.0402 36.4607 40.7685C36.633 40.4934 36.8634 40.2779 37.1517 40.1222C37.4401 39.9664 37.7583 39.8504 38.1063 39.7741C38.4576 39.6946 38.8106 39.6316 39.1652 39.5852C39.6292 39.5256 40.0054 39.4808 40.2938 39.451C40.5854 39.4179 40.7976 39.3632 40.9301 39.2869C41.066 39.2107 41.134 39.0781 41.134 38.8892V38.8494C41.134 38.3589 40.9997 37.9777 40.7313 37.706C40.4661 37.4342 40.0634 37.2983 39.5232 37.2983C38.963 37.2983 38.5239 37.4209 38.2057 37.6662C37.8875 37.9115 37.6638 38.1733 37.5345 38.4517L36.4209 38.054C36.6198 37.59 36.8849 37.2287 37.2164 36.9702C37.5511 36.7083 37.9157 36.526 38.3101 36.4233C38.7078 36.3172 39.0989 36.2642 39.4834 36.2642C39.7287 36.2642 40.0104 36.294 40.3286 36.3537C40.6501 36.41 40.96 36.5277 41.2583 36.7067C41.5599 36.8857 41.8101 37.1558 42.009 37.517C42.2078 37.8783 42.3073 38.3622 42.3073 38.9688V44H41.134V42.9659H41.0743C40.9948 43.1316 40.8622 43.3089 40.6766 43.4979C40.491 43.6868 40.2441 43.8475 39.9358 43.9801C39.6276 44.1127 39.2514 44.179 38.8073 44.179ZM38.9862 43.125C39.4503 43.125 39.8414 43.0339 40.1595 42.8516C40.481 42.6693 40.723 42.4339 40.8854 42.1456C41.0511 41.8572 41.134 41.554 41.134 41.2358V40.1619C41.0843 40.2216 40.9749 40.2763 40.8059 40.326C40.6401 40.3724 40.4479 40.4138 40.2291 40.4503C40.0137 40.4834 39.8032 40.5133 39.5978 40.5398C39.3956 40.563 39.2315 40.5829 39.1056 40.5994C38.8006 40.6392 38.5156 40.7038 38.2505 40.7933C37.9886 40.8795 37.7765 41.0104 37.6141 41.1861C37.455 41.3584 37.3755 41.5937 37.3755 41.892C37.3755 42.2997 37.5263 42.608 37.8279 42.8168C38.1328 43.0223 38.5189 43.125 38.9862 43.125ZM45.4821 39.4062V44H44.3088V36.3636H45.4423V37.5568H45.5417C45.7207 37.169 45.9925 36.8575 46.3571 36.6222C46.7217 36.3835 47.1923 36.2642 47.769 36.2642C48.2861 36.2642 48.7385 36.3703 49.1263 36.5824C49.514 36.7912 49.8157 37.1094 50.0311 37.5369C50.2465 37.9612 50.3542 38.4981 50.3542 39.1477V44H49.1809V39.2273C49.1809 38.6274 49.0252 38.16 48.7136 37.8253C48.4021 37.4872 47.9745 37.3182 47.4309 37.3182C47.0564 37.3182 46.7217 37.3994 46.4267 37.5618C46.135 37.7242 45.9047 37.9612 45.7356 38.2727C45.5666 38.5843 45.4821 38.9621 45.4821 39.4062ZM55.4605 44.1591C54.7446 44.1591 54.1281 43.9901 53.6111 43.652C53.094 43.3139 52.6963 42.8482 52.4179 42.255C52.1395 41.6617 52.0003 40.9839 52.0003 40.2216C52.0003 39.446 52.1428 38.7616 52.4278 38.1683C52.7162 37.5717 53.1172 37.1061 53.631 36.7713C54.148 36.4332 54.7512 36.2642 55.4406 36.2642C55.9776 36.2642 56.4615 36.3636 56.8923 36.5625C57.3232 36.7614 57.6762 37.0398 57.9513 37.3977C58.2264 37.7557 58.3971 38.1733 58.4634 38.6506H57.2901C57.2006 38.3026 57.0017 37.9943 56.6935 37.7259C56.3885 37.4541 55.9776 37.3182 55.4605 37.3182C55.0031 37.3182 54.6021 37.4375 54.2574 37.6761C53.916 37.9115 53.6492 38.2446 53.457 38.6754C53.268 39.103 53.1736 39.6051 53.1736 40.1818C53.1736 40.7718 53.2664 41.2855 53.452 41.723C53.6409 42.1605 53.9061 42.5002 54.2474 42.7422C54.5921 42.9841 54.9965 43.1051 55.4605 43.1051C55.7654 43.1051 56.0422 43.0521 56.2908 42.946C56.5393 42.84 56.7498 42.6875 56.9222 42.4886C57.0945 42.2898 57.2171 42.0511 57.2901 41.7727H58.4634C58.3971 42.2235 58.233 42.6295 57.9712 42.9908C57.7126 43.3487 57.3696 43.6338 56.942 43.8459C56.5178 44.0547 56.024 44.1591 55.4605 44.1591ZM63.2403 44.1591C62.5045 44.1591 61.8698 43.9967 61.3361 43.6719C60.8058 43.3438 60.3965 42.8864 60.1082 42.2997C59.8231 41.7098 59.6806 41.0237 59.6806 40.2415C59.6806 39.4593 59.8231 38.7699 60.1082 38.1733C60.3965 37.5734 60.7975 37.1061 61.3113 36.7713C61.8283 36.4332 62.4315 36.2642 63.1209 36.2642C63.5187 36.2642 63.9114 36.3305 64.2992 36.4631C64.687 36.5956 65.04 36.8111 65.3582 37.1094C65.6763 37.4044 65.9299 37.7955 66.1188 38.2827C66.3077 38.7699 66.4022 39.3698 66.4022 40.0824V40.5795H60.5158V39.5653H65.209C65.209 39.1345 65.1228 38.75 64.9505 38.4119C64.7814 38.0739 64.5395 37.8071 64.2246 37.6115C63.9131 37.416 63.5452 37.3182 63.1209 37.3182C62.6536 37.3182 62.2493 37.4342 61.9079 37.6662C61.5698 37.8949 61.3096 38.1932 61.1273 38.5611C60.945 38.929 60.8539 39.3234 60.8539 39.7443V40.4205C60.8539 40.9972 60.9533 41.486 61.1522 41.8871C61.3544 42.2848 61.6344 42.5881 61.9924 42.7969C62.3503 43.0024 62.7663 43.1051 63.2403 43.1051C63.5485 43.1051 63.8269 43.062 64.0755 42.9759C64.3274 42.8864 64.5445 42.7538 64.7268 42.5781C64.9091 42.3991 65.0499 42.1771 65.1493 41.9119L66.2829 42.2301C66.1636 42.6146 65.963 42.9527 65.6813 43.2443C65.3996 43.5327 65.0516 43.758 64.6373 43.9205C64.223 44.0795 63.7573 44.1591 63.2403 44.1591Z" fill="#191A1D"/>
<path d="M21.6108 69.6705V59.8409H23.8409V69.6705H21.6108ZM17.8111 65.8707V63.6406H27.6406V65.8707H17.8111ZM29.8418 72V70.0966L34.8915 65.1463C35.3745 64.6586 35.777 64.2254 36.0989 63.8466C36.4209 63.4678 36.6624 63.1009 36.8234 62.7457C36.9844 62.3906 37.0648 62.0118 37.0648 61.6094C37.0648 61.1501 36.9607 60.7571 36.7523 60.4304C36.544 60.099 36.2576 59.8433 35.893 59.6634C35.5284 59.4834 35.1141 59.3935 34.6501 59.3935C34.1719 59.3935 33.7528 59.4929 33.393 59.6918C33.0331 59.8859 32.7538 60.1629 32.5549 60.5227C32.3608 60.8826 32.2637 61.3111 32.2637 61.8082H29.7566C29.7566 60.8849 29.9673 60.0824 30.3887 59.4006C30.8101 58.7187 31.3901 58.1908 32.1288 57.8168C32.8721 57.4427 33.7244 57.2557 34.6856 57.2557C35.661 57.2557 36.518 57.438 37.2566 57.8026C37.9952 58.1671 38.5682 58.6667 38.9754 59.3011C39.3873 59.9356 39.5933 60.66 39.5933 61.4744C39.5933 62.0189 39.4891 62.554 39.2808 63.0795C39.0724 63.6051 38.7055 64.1875 38.1799 64.8267C37.6591 65.4659 36.9275 66.2401 35.9853 67.1491L33.4782 69.6989V69.7983H39.8134V72H29.8418ZM41.8637 72V70.0966L46.9134 65.1463C47.3964 64.6586 47.7988 64.2254 48.1208 63.8466C48.4428 63.4678 48.6843 63.1009 48.8452 62.7457C49.0062 62.3906 49.0867 62.0118 49.0867 61.6094C49.0867 61.1501 48.9826 60.7571 48.7742 60.4304C48.5659 60.099 48.2794 59.8433 47.9148 59.6634C47.5503 59.4834 47.136 59.3935 46.6719 59.3935C46.1937 59.3935 45.7747 59.4929 45.4148 59.6918C45.055 59.8859 44.7756 60.1629 44.5768 60.5227C44.3826 60.8826 44.2856 61.3111 44.2856 61.8082H41.7785C41.7785 60.8849 41.9892 60.0824 42.4106 59.4006C42.832 58.7187 43.412 58.1908 44.1506 57.8168C44.894 57.4427 45.7463 57.2557 46.7075 57.2557C47.6828 57.2557 48.5398 57.438 49.2785 57.8026C50.0171 58.1671 50.59 58.6667 50.9972 59.3011C51.4092 59.9356 51.6151 60.66 51.6151 61.4744C51.6151 62.0189 51.511 62.554 51.3026 63.0795C51.0943 63.6051 50.7273 64.1875 50.2018 64.8267C49.6809 65.4659 48.9494 66.2401 48.0072 67.1491L45.5001 69.6989V69.7983H51.8353V72H41.8637Z" fill="#191A1D"/>
<path d="M65.0782 71.4653C65.2346 71.4653 65.3494 71.398 65.4225 71.2635C65.4955 71.129 65.4905 70.996 65.4074 70.8646L61.5561 64.7195C61.4782 64.5964 61.3695 64.5349 61.2302 64.5349C61.0909 64.5349 60.9811 64.5964 60.901 64.7195L57.0632 70.8646C56.9835 70.996 56.9794 71.129 57.0507 71.2635C57.1221 71.398 57.236 71.4653 57.3924 71.4653H65.0782Z" fill="#388E3C"/>
<path d="M72.0914 63.7727V72.5H71.0346V64.8807H70.9835L68.8528 66.2955V65.2216L71.0346 63.7727H72.0914ZM74.4814 72.5V71.733L77.362 68.5795C77.7001 68.2102 77.9785 67.8892 78.1973 67.6165C78.416 67.3409 78.5779 67.0824 78.6831 66.8409C78.791 66.5966 78.845 66.3409 78.845 66.0739C78.845 65.767 78.7711 65.5014 78.6234 65.277C78.4785 65.0526 78.2797 64.8793 78.0268 64.7571C77.774 64.6349 77.4899 64.5739 77.1745 64.5739C76.8393 64.5739 76.5467 64.6435 76.2967 64.7827C76.0495 64.919 75.8578 65.1108 75.7214 65.358C75.5879 65.6051 75.5211 65.8949 75.5211 66.2273H74.5154C74.5154 65.7159 74.6333 65.267 74.8691 64.8807C75.1049 64.4943 75.426 64.1932 75.8322 63.9773C76.2413 63.7614 76.7001 63.6534 77.2086 63.6534C77.72 63.6534 78.1731 63.7614 78.568 63.9773C78.9629 64.1932 79.2725 64.4844 79.497 64.8509C79.7214 65.2173 79.8336 65.625 79.8336 66.0739C79.8336 66.3949 79.7754 66.7088 79.6589 67.0156C79.5453 67.3196 79.3464 67.6591 79.0623 68.0341C78.7811 68.4062 78.3904 68.8608 77.8904 69.3977L75.9302 71.4943V71.5625H79.987V72.5H74.4814ZM86.0758 70.8636V70.4034C86.0758 70.0852 86.1412 69.794 86.2719 69.5298C86.4054 69.2628 86.5986 69.0497 86.8514 68.8906C87.1071 68.7287 87.4168 68.6477 87.7804 68.6477C88.1497 68.6477 88.4594 68.7287 88.7094 68.8906C88.9594 69.0497 89.1483 69.2628 89.2761 69.5298C89.404 69.794 89.4679 70.0852 89.4679 70.4034V70.8636C89.4679 71.1818 89.4025 71.4744 89.2719 71.7415C89.144 72.0057 88.9537 72.2187 88.7008 72.3807C88.4508 72.5398 88.144 72.6193 87.7804 72.6193C87.4111 72.6193 87.1 72.5398 86.8472 72.3807C86.5943 72.2187 86.4025 72.0057 86.2719 71.7415C86.1412 71.4744 86.0758 71.1818 86.0758 70.8636ZM86.9452 70.4034V70.8636C86.9452 71.1278 87.0077 71.3651 87.1327 71.5753C87.2577 71.7827 87.4736 71.8864 87.7804 71.8864C88.0787 71.8864 88.2889 71.7827 88.4111 71.5753C88.5361 71.3651 88.5986 71.1278 88.5986 70.8636V70.4034C88.5986 70.1392 88.5389 69.9034 88.4196 69.696C88.3003 69.4858 88.0872 69.3807 87.7804 69.3807C87.4821 69.3807 87.2676 69.4858 87.1369 69.696C87.0091 69.9034 86.9452 70.1392 86.9452 70.4034ZM81.7293 65.8693V65.4091C81.7293 65.0909 81.7946 64.7997 81.9253 64.5355C82.0588 64.2685 82.252 64.0554 82.5048 63.8963C82.7605 63.7344 83.0702 63.6534 83.4338 63.6534C83.8031 63.6534 84.1128 63.7344 84.3628 63.8963C84.6128 64.0554 84.8017 64.2685 84.9295 64.5355C85.0574 64.7997 85.1213 65.0909 85.1213 65.4091V65.8693C85.1213 66.1875 85.056 66.4801 84.9253 66.7472C84.7974 67.0114 84.6071 67.2244 84.3543 67.3864C84.1043 67.5455 83.7974 67.625 83.4338 67.625C83.0645 67.625 82.7534 67.5455 82.5006 67.3864C82.2477 67.2244 82.056 67.0114 81.9253 66.7472C81.7946 66.4801 81.7293 66.1875 81.7293 65.8693ZM82.5986 65.4091V65.8693C82.5986 66.1335 82.6611 66.3707 82.7861 66.581C82.9111 66.7884 83.127 66.892 83.4338 66.892C83.7321 66.892 83.9423 66.7884 84.0645 66.581C84.1895 66.3707 84.252 66.1335 84.252 65.8693V65.4091C84.252 65.1449 84.1923 64.9091 84.073 64.7017C83.9537 64.4915 83.7406 64.3864 83.4338 64.3864C83.1355 64.3864 82.921 64.4915 82.7903 64.7017C82.6625 64.9091 82.5986 65.1449 82.5986 65.4091ZM82.0531 72.5L88.0531 63.7727H89.0247L83.0247 72.5H82.0531Z" fill="#388E3C"/>
<g clip-path="url(#clip0_2693_138054)">
<line x1="16" y1="98" x2="166" y2="98" stroke="#B0BAC5" stroke-width="2" stroke-dasharray="6 2"/>
<path d="M17 103L38.0375 101.558C38.5889 101.52 39.14 101.636 39.6301 101.891L63.0385 114.102C64.0867 114.649 65.3584 114.529 66.286 113.796L90.0332 95.0297C90.2089 94.8908 90.3996 94.7721 90.6018 94.6757L115.066 83.0067C115.568 82.7674 116.127 82.6722 116.679 82.7317L141.665 85.4241C141.833 85.4421 141.998 85.4742 142.16 85.5201L166 92.2618" stroke="#1184E9" stroke-width="2"/>
</g>
</g>
<defs>
<filter id="filter0_dddddd_2693_138054" x="-80" y="-28" width="342" height="290" filterUnits="userSpaceOnUse" color-interpolation-filters="sRGB">
<feFlood flood-opacity="0" result="BackgroundImageFix"/>
<feColorMatrix in="SourceAlpha" type="matrix" values="0 0 0 0 0 0 0 0 0 0 0 0 0 0 0 0 0 0 127 0" result="hardAlpha"/>
<feOffset dy="1.43897"/>
<feGaussianBlur stdDeviation="1.1069"/>
<feColorMatrix type="matrix" values="0 0 0 0 0.109804 0 0 0 0 0.164706 0 0 0 0 0.278431 0 0 0 0.0168687 0"/>
<feBlend mode="normal" in2="BackgroundImageFix" result="effect1_dropShadow_2693_138054"/>
<feColorMatrix in="SourceAlpha" type="matrix" values="0 0 0 0 0 0 0 0 0 0 0 0 0 0 0 0 0 0 127 0" result="hardAlpha"/>
<feOffset dy="3.45805"/>
<feGaussianBlur stdDeviation="2.66004"/>
<feColorMatrix type="matrix" values="0 0 0 0 0.109804 0 0 0 0 0.164706 0 0 0 0 0.278431 0 0 0 0.0242336 0"/>
<feBlend mode="normal" in2="effect1_dropShadow_2693_138054" result="effect2_dropShadow_2693_138054"/>
<feColorMatrix in="SourceAlpha" type="matrix" values="0 0 0 0 0 0 0 0 0 0 0 0 0 0 0 0 0 0 127 0" result="hardAlpha"/>
<feOffset dy="6.51121"/>
<feGaussianBlur stdDeviation="5.00862"/>
<feColorMatrix type="matrix" values="0 0 0 0 0.109804 0 0 0 0 0.164706 0 0 0 0 0.278431 0 0 0 0.03 0"/>
<feBlend mode="normal" in2="effect2_dropShadow_2693_138054" result="effect3_dropShadow_2693_138054"/>
<feColorMatrix in="SourceAlpha" type="matrix" values="0 0 0 0 0 0 0 0 0 0 0 0 0 0 0 0 0 0 127 0" result="hardAlpha"/>
<feOffset dy="11.6149"/>
<feGaussianBlur stdDeviation="8.93452"/>
<feColorMatrix type="matrix" values="0 0 0 0 0.109804 0 0 0 0 0.164706 0 0 0 0 0.278431 0 0 0 0.0357664 0"/>
<feBlend mode="normal" in2="effect3_dropShadow_2693_138054" result="effect4_dropShadow_2693_138054"/>
<feColorMatrix in="SourceAlpha" type="matrix" values="0 0 0 0 0 0 0 0 0 0 0 0 0 0 0 0 0 0 127 0" result="hardAlpha"/>
<feOffset dy="21.7244"/>
<feGaussianBlur stdDeviation="16.711"/>
<feColorMatrix type="matrix" values="0 0 0 0 0.109804 0 0 0 0 0.164706 0 0 0 0 0.278431 0 0 0 0.0431313 0"/>
<feBlend mode="normal" in2="effect4_dropShadow_2693_138054" result="effect5_dropShadow_2693_138054"/>
<feColorMatrix in="SourceAlpha" type="matrix" values="0 0 0 0 0 0 0 0 0 0 0 0 0 0 0 0 0 0 127 0" result="hardAlpha"/>
<feOffset dy="52"/>
<feGaussianBlur stdDeviation="40"/>
<feColorMatrix type="matrix" values="0 0 0 0 0.109804 0 0 0 0 0.164706 0 0 0 0 0.278431 0 0 0 0.06 0"/>
<feBlend mode="normal" in2="effect5_dropShadow_2693_138054" result="effect6_dropShadow_2693_138054"/>
<feBlend mode="normal" in="SourceGraphic" in2="effect6_dropShadow_2693_138054" result="shape"/>
</filter>
<clipPath id="clip0_2693_138054">
<rect x="16" y="81" width="150" height="36" rx="3" fill="white"/>
</clipPath>
</defs>
</svg>
