<svg width="384" height="130" viewBox="0 0 384 130" fill="none" xmlns="http://www.w3.org/2000/svg">
<g filter="url(#filter0_dddddd_2693_138060)">
<rect width="384" height="130" rx="12" fill="white"/>
<path d="M16.6761 14.9119V13.8182H24.3125V14.9119H21.1108V24H19.8778V14.9119H16.6761ZM27.9111 24.1591C27.2217 24.1591 26.6169 23.995 26.0965 23.6669C25.5795 23.3388 25.1751 22.8797 24.8834 22.2898C24.5951 21.6998 24.4509 21.0104 24.4509 20.2216C24.4509 19.4261 24.5951 18.7318 24.8834 18.1385C25.1751 17.5452 25.5795 17.0845 26.0965 16.7564C26.6169 16.4283 27.2217 16.2642 27.9111 16.2642C28.6005 16.2642 29.2038 16.4283 29.7208 16.7564C30.2412 17.0845 30.6455 17.5452 30.9339 18.1385C31.2255 18.7318 31.3714 19.4261 31.3714 20.2216C31.3714 21.0104 31.2255 21.6998 30.9339 22.2898C30.6455 22.8797 30.2412 23.3388 29.7208 23.6669C29.2038 23.995 28.6005 24.1591 27.9111 24.1591ZM27.9111 23.1051C28.4348 23.1051 28.8657 22.9709 29.2038 22.7024C29.5418 22.4339 29.7921 22.081 29.9545 21.6435C30.1169 21.206 30.1981 20.732 30.1981 20.2216C30.1981 19.7112 30.1169 19.2356 29.9545 18.7947C29.7921 18.3539 29.5418 17.9976 29.2038 17.7259C28.8657 17.4541 28.4348 17.3182 27.9111 17.3182C27.3875 17.3182 26.9566 17.4541 26.6185 17.7259C26.2805 17.9976 26.0302 18.3539 25.8678 18.7947C25.7054 19.2356 25.6242 19.7112 25.6242 20.2216C25.6242 20.732 25.7054 21.206 25.8678 21.6435C26.0302 22.081 26.2805 22.4339 26.6185 22.7024C26.9566 22.9709 27.3875 23.1051 27.9111 23.1051ZM36.3434 16.3636V17.358H32.386V16.3636H36.3434ZM33.5394 14.5341H34.7127V21.8125C34.7127 22.1439 34.7608 22.3925 34.8569 22.5582C34.9563 22.7206 35.0823 22.83 35.2347 22.8864C35.3905 22.9394 35.5546 22.9659 35.7269 22.9659C35.8562 22.9659 35.9622 22.9593 36.0451 22.946C36.128 22.9295 36.1943 22.9162 36.244 22.9062L36.4826 23.9602C36.4031 23.9901 36.292 24.0199 36.1495 24.0497C36.007 24.0829 35.8264 24.0994 35.6076 24.0994C35.2762 24.0994 34.9514 24.0282 34.6332 23.8857C34.3183 23.7431 34.0565 23.526 33.8477 23.2344C33.6422 22.9427 33.5394 22.5748 33.5394 22.1307V14.5341ZM40.2155 24.179C39.7316 24.179 39.2924 24.0878 38.898 23.9055C38.5036 23.7199 38.1904 23.4531 37.9584 23.1051C37.7264 22.7538 37.6104 22.3295 37.6104 21.8324C37.6104 21.3949 37.6965 21.0402 37.8689 20.7685C38.0412 20.4934 38.2716 20.2779 38.5599 20.1222C38.8483 19.9664 39.1665 19.8504 39.5145 19.7741C39.8658 19.6946 40.2188 19.6316 40.5734 19.5852C41.0374 19.5256 41.4136 19.4808 41.702 19.451C41.9936 19.4179 42.2058 19.3632 42.3383 19.2869C42.4742 19.2107 42.5422 19.0781 42.5422 18.8892V18.8494C42.5422 18.3589 42.4079 17.9777 42.1395 17.706C41.8743 17.4342 41.4716 17.2983 40.9314 17.2983C40.3713 17.2983 39.9321 17.4209 39.6139 17.6662C39.2957 17.9115 39.072 18.1733 38.9427 18.4517L37.8291 18.054C38.028 17.59 38.2931 17.2287 38.6246 16.9702C38.9593 16.7083 39.3239 16.526 39.7183 16.4233C40.116 16.3172 40.5071 16.2642 40.8916 16.2642C41.1369 16.2642 41.4186 16.294 41.7368 16.3537C42.0583 16.41 42.3682 16.5277 42.6665 16.7067C42.9681 16.8857 43.2183 17.1558 43.4172 17.517C43.616 17.8783 43.7155 18.3622 43.7155 18.9688V24H42.5422V22.9659H42.4825C42.403 23.1316 42.2704 23.3089 42.0848 23.4979C41.8992 23.6868 41.6523 23.8475 41.344 23.9801C41.0358 24.1127 40.6596 24.179 40.2155 24.179ZM40.3945 23.125C40.8585 23.125 41.2496 23.0339 41.5677 22.8516C41.8892 22.6693 42.1312 22.4339 42.2936 22.1456C42.4593 21.8572 42.5422 21.554 42.5422 21.2358V20.1619C42.4925 20.2216 42.3831 20.2763 42.2141 20.326C42.0483 20.3724 41.8561 20.4138 41.6374 20.4503C41.4219 20.4834 41.2115 20.5133 41.006 20.5398C40.8038 20.563 40.6397 20.5829 40.5138 20.5994C40.2088 20.6392 39.9238 20.7038 39.6587 20.7933C39.3968 20.8795 39.1847 21.0104 39.0223 21.1861C38.8632 21.3584 38.7837 21.5937 38.7837 21.892C38.7837 22.2997 38.9345 22.608 39.2361 22.8168C39.541 23.0223 39.9271 23.125 40.3945 23.125ZM46.8903 13.8182V24H45.717V13.8182H46.8903ZM55.799 24.1591C55.1096 24.1591 54.5048 23.995 53.9844 23.6669C53.4674 23.3388 53.063 22.8797 52.7713 22.2898C52.483 21.6998 52.3388 21.0104 52.3388 20.2216C52.3388 19.4261 52.483 18.7318 52.7713 18.1385C53.063 17.5452 53.4674 17.0845 53.9844 16.7564C54.5048 16.4283 55.1096 16.2642 55.799 16.2642C56.4884 16.2642 57.0916 16.4283 57.6087 16.7564C58.129 17.0845 58.5334 17.5452 58.8218 18.1385C59.1134 18.7318 59.2593 19.4261 59.2593 20.2216C59.2593 21.0104 59.1134 21.6998 58.8218 22.2898C58.5334 22.8797 58.129 23.3388 57.6087 23.6669C57.0916 23.995 56.4884 24.1591 55.799 24.1591ZM55.799 23.1051C56.3227 23.1051 56.7536 22.9709 57.0916 22.7024C57.4297 22.4339 57.6799 22.081 57.8424 21.6435C58.0048 21.206 58.086 20.732 58.086 20.2216C58.086 19.7112 58.0048 19.2356 57.8424 18.7947C57.6799 18.3539 57.4297 17.9976 57.0916 17.7259C56.7536 17.4541 56.3227 17.3182 55.799 17.3182C55.2754 17.3182 54.8445 17.4541 54.5064 17.7259C54.1683 17.9976 53.9181 18.3539 53.7557 18.7947C53.5933 19.2356 53.5121 19.7112 53.5121 20.2216C53.5121 20.732 53.5933 21.206 53.7557 21.6435C53.9181 22.081 54.1683 22.4339 54.5064 22.7024C54.8445 22.9709 55.2754 23.1051 55.799 23.1051ZM60.9103 24V16.3636H62.0438V17.517H62.1233C62.2625 17.1392 62.5144 16.8326 62.879 16.5973C63.2436 16.362 63.6546 16.2443 64.112 16.2443C64.1981 16.2443 64.3059 16.246 64.4351 16.2493C64.5644 16.2526 64.6622 16.2576 64.7285 16.2642V17.4574C64.6887 17.4474 64.5975 17.4325 64.455 17.4126C64.3158 17.3894 64.1683 17.3778 64.0125 17.3778C63.6413 17.3778 63.3099 17.4557 63.0182 17.6115C62.7299 17.764 62.5012 17.9761 62.3321 18.2479C62.1664 18.5163 62.0836 18.8229 62.0836 19.1676V24H60.9103ZM68.6304 24.1591C67.994 24.1591 67.4322 23.9983 66.945 23.6768C66.4578 23.352 66.0766 22.8946 65.8015 22.3047C65.5264 21.7114 65.3889 21.0104 65.3889 20.2017C65.3889 19.3996 65.5264 18.7036 65.8015 18.1136C66.0766 17.5237 66.4594 17.0679 66.95 16.7464C67.4405 16.425 68.0073 16.2642 68.6502 16.2642C69.1474 16.2642 69.5402 16.3471 69.8285 16.5128C70.1202 16.6752 70.3422 16.8608 70.4947 17.0696C70.6505 17.2751 70.7715 17.4441 70.8576 17.5767H70.9571V13.8182H72.1304V24H70.9968V22.8267H70.8576C70.7715 22.9659 70.6488 23.1416 70.4897 23.3537C70.3306 23.5625 70.1036 23.7498 69.8086 23.9155C69.5136 24.0779 69.1209 24.1591 68.6304 24.1591ZM68.7894 23.1051C69.2601 23.1051 69.6578 22.9825 69.9826 22.7372C70.3074 22.4886 70.5544 22.1456 70.7234 21.7081C70.8924 21.2673 70.9769 20.7585 70.9769 20.1818C70.9769 19.6117 70.8941 19.1129 70.7284 18.6854C70.5626 18.2545 70.3174 17.9197 69.9926 17.6811C69.6678 17.4392 69.2667 17.3182 68.7894 17.3182C68.2923 17.3182 67.878 17.4458 67.5465 17.701C67.2184 17.9529 66.9715 18.2959 66.8058 18.7301C66.6434 19.161 66.5622 19.6449 66.5622 20.1818C66.5622 20.7254 66.645 21.2192 66.8108 21.6634C66.9798 22.1042 67.2284 22.4555 67.5565 22.7173C67.8879 22.9759 68.2989 23.1051 68.7894 23.1051ZM77.5039 24.1591C76.7681 24.1591 76.1333 23.9967 75.5997 23.6719C75.0694 23.3438 74.6601 22.8864 74.3717 22.2997C74.0867 21.7098 73.9442 21.0237 73.9442 20.2415C73.9442 19.4593 74.0867 18.7699 74.3717 18.1733C74.6601 17.5734 75.0611 17.1061 75.5749 16.7713C76.0919 16.4332 76.6951 16.2642 77.3845 16.2642C77.7823 16.2642 78.175 16.3305 78.5628 16.4631C78.9506 16.5956 79.3036 16.8111 79.6217 17.1094C79.9399 17.4044 80.1935 17.7955 80.3824 18.2827C80.5713 18.7699 80.6658 19.3698 80.6658 20.0824V20.5795H74.7794V19.5653H79.4726C79.4726 19.1345 79.3864 18.75 79.2141 18.4119C79.045 18.0739 78.8031 17.8071 78.4882 17.6115C78.1767 17.416 77.8088 17.3182 77.3845 17.3182C76.9172 17.3182 76.5128 17.4342 76.1715 17.6662C75.8334 17.8949 75.5732 18.1932 75.3909 18.5611C75.2086 18.929 75.1175 19.3234 75.1175 19.7443V20.4205C75.1175 20.9972 75.2169 21.486 75.4158 21.8871C75.618 22.2848 75.898 22.5881 76.256 22.7969C76.6139 23.0024 77.0299 23.1051 77.5039 23.1051C77.8121 23.1051 78.0905 23.062 78.3391 22.9759C78.591 22.8864 78.8081 22.7538 78.9904 22.5781C79.1726 22.3991 79.3135 22.1771 79.4129 21.9119L80.5465 22.2301C80.4271 22.6146 80.2266 22.9527 79.9449 23.2443C79.6632 23.5327 79.3152 23.758 78.9009 23.9205C78.4866 24.0795 78.0209 24.1591 77.5039 24.1591ZM82.3106 24V16.3636H83.4441V17.517H83.5236C83.6629 17.1392 83.9147 16.8326 84.2793 16.5973C84.6439 16.362 85.0549 16.2443 85.5123 16.2443C85.5985 16.2443 85.7062 16.246 85.8354 16.2493C85.9647 16.2526 86.0625 16.2576 86.1288 16.2642V17.4574C86.089 17.4474 85.9978 17.4325 85.8553 17.4126C85.7161 17.3894 85.5686 17.3778 85.4129 17.3778C85.0416 17.3778 84.7102 17.4557 84.4185 17.6115C84.1302 17.764 83.9015 17.9761 83.7325 18.2479C83.5667 18.5163 83.4839 18.8229 83.4839 19.1676V24H82.3106ZM92.7887 18.0739L91.7347 18.3722C91.6684 18.1965 91.5706 18.0258 91.4414 17.8601C91.3154 17.6911 91.1431 17.5518 90.9243 17.4425C90.7056 17.3331 90.4255 17.2784 90.0841 17.2784C89.6168 17.2784 89.2273 17.3861 88.9158 17.6016C88.6075 17.8137 88.4534 18.0838 88.4534 18.4119C88.4534 18.7036 88.5595 18.9339 88.7716 19.103C88.9837 19.272 89.3152 19.4129 89.7659 19.5256L90.8995 19.804C91.5822 19.9697 92.091 20.2232 92.4257 20.5646C92.7605 20.9027 92.9279 21.3385 92.9279 21.8722C92.9279 22.3097 92.8019 22.7008 92.55 23.0455C92.3014 23.3902 91.9534 23.6619 91.506 23.8608C91.0585 24.0597 90.5382 24.1591 89.9449 24.1591C89.166 24.1591 88.5214 23.9901 88.011 23.652C87.5005 23.3139 87.1774 22.8201 87.0415 22.1705L88.1551 21.892C88.2612 22.303 88.4617 22.6113 88.7567 22.8168C89.055 23.0223 89.4444 23.125 89.925 23.125C90.4719 23.125 90.9061 23.009 91.2276 22.777C91.5524 22.5417 91.7148 22.2599 91.7148 21.9318C91.7148 21.6667 91.622 21.4446 91.4364 21.2656C91.2508 21.0833 90.9657 20.9474 90.5813 20.858L89.3085 20.5597C88.6092 20.3939 88.0955 20.1371 87.7674 19.7891C87.4425 19.4377 87.2801 18.9986 87.2801 18.4716C87.2801 18.0407 87.4011 17.6596 87.6431 17.3281C87.8883 16.9967 88.2214 16.7365 88.6424 16.5476C89.0666 16.3587 89.5472 16.2642 90.0841 16.2642C90.8398 16.2642 91.4331 16.4299 91.8639 16.7614C92.2981 17.0928 92.6064 17.5303 92.7887 18.0739Z" fill="#191A1D"/>
<path d="M17.6506 93V89.8977L24.8991 83.1861C25.5156 82.5895 26.0327 82.0526 26.4503 81.5753C26.8745 81.098 27.196 80.6307 27.4148 80.1733C27.6335 79.7093 27.7429 79.2088 27.7429 78.6719C27.7429 78.0753 27.607 77.5616 27.3352 77.1307C27.0634 76.6932 26.6922 76.3584 26.2216 76.1264C25.7509 75.8878 25.2173 75.7685 24.6207 75.7685C23.9976 75.7685 23.4541 75.8944 22.9901 76.1463C22.526 76.3982 22.1681 76.7595 21.9162 77.2301C21.6643 77.7008 21.5384 78.2609 21.5384 78.9105H17.4517C17.4517 77.5781 17.7533 76.4214 18.3565 75.4403C18.9598 74.4593 19.8049 73.7003 20.892 73.1634C21.9792 72.6264 23.232 72.358 24.6506 72.358C26.1089 72.358 27.3783 72.6165 28.4588 73.1335C29.5459 73.6439 30.3911 74.3532 30.9943 75.2614C31.5975 76.1695 31.8991 77.2102 31.8991 78.3835C31.8991 79.1525 31.7467 79.9115 31.4418 80.6605C31.1435 81.4096 30.6098 82.2415 29.8409 83.1562C29.072 84.0644 27.9882 85.1548 26.5895 86.4276L23.6165 89.3409V89.4801H32.1676V93H17.6506ZM42.6039 93.2784C41.0726 93.2784 39.7104 93.0298 38.5172 92.5327C37.3307 92.0289 36.3993 91.3428 35.7232 90.4744C35.0471 89.6061 34.709 88.6217 34.709 87.5213C34.709 86.6728 34.9012 85.8939 35.2857 85.1847C35.6768 84.4688 36.2071 83.8755 36.8766 83.4048C37.5461 82.9276 38.2952 82.6226 39.1238 82.4901V82.3509C38.0366 82.1321 37.155 81.6051 36.4789 80.7699C35.8027 79.928 35.4647 78.9503 35.4647 77.8366C35.4647 76.7827 35.7729 75.8447 36.3894 75.0227C37.0059 74.1941 37.851 73.5445 38.9249 73.0739C40.0054 72.5966 41.2317 72.358 42.6039 72.358C43.976 72.358 45.199 72.5966 46.2729 73.0739C47.3534 73.5511 48.2019 74.2041 48.8184 75.0327C49.4348 75.8546 49.7464 76.7893 49.753 77.8366C49.7464 78.9569 49.4017 79.9347 48.7189 80.7699C48.0362 81.6051 47.1612 82.1321 46.0939 82.3509V82.4901C46.9093 82.6226 47.6484 82.9276 48.3113 83.4048C48.9808 83.8755 49.5111 84.4688 49.9022 85.1847C50.2999 85.8939 50.5021 86.6728 50.5087 87.5213C50.5021 88.6217 50.1607 89.6061 49.4846 90.4744C48.8084 91.3428 47.8738 92.0289 46.6806 92.5327C45.494 93.0298 44.1351 93.2784 42.6039 93.2784ZM42.6039 90.1165C43.2866 90.1165 43.8832 89.9938 44.3937 89.7486C44.9041 89.4967 45.3018 89.152 45.5868 88.7145C45.8785 88.2704 46.0243 87.7599 46.0243 87.1832C46.0243 86.5933 45.8752 86.0729 45.5769 85.6222C45.2786 85.1648 44.8742 84.8068 44.3638 84.5483C43.8534 84.2831 43.2668 84.1506 42.6039 84.1506C41.9476 84.1506 41.361 84.2831 40.8439 84.5483C40.3269 84.8068 39.9192 85.1648 39.6209 85.6222C39.3293 86.0729 39.1834 86.5933 39.1834 87.1832C39.1834 87.7599 39.3259 88.2704 39.611 88.7145C39.896 89.152 40.2971 89.4967 40.8141 89.7486C41.3312 89.9938 41.9277 90.1165 42.6039 90.1165ZM42.6039 81.0185C43.174 81.0185 43.6811 80.9025 44.1252 80.6705C44.5693 80.4384 44.9173 80.117 45.1692 79.706C45.4211 79.295 45.5471 78.821 45.5471 78.2841C45.5471 77.7538 45.4211 77.2898 45.1692 76.892C44.9173 76.4877 44.5726 76.1728 44.1351 75.9474C43.6976 75.7154 43.1872 75.5994 42.6039 75.5994C42.0272 75.5994 41.5168 75.7154 41.0726 75.9474C40.6285 76.1728 40.2805 76.4877 40.0286 76.892C39.7833 77.2898 39.6607 77.7538 39.6607 78.2841C39.6607 78.821 39.7866 79.295 40.0385 79.706C40.2904 80.117 40.6384 80.4384 41.0826 80.6705C41.5267 80.9025 42.0338 81.0185 42.6039 81.0185ZM57.3083 90.2159L57.1989 91.3097C57.1127 92.1847 56.947 93.0563 56.7017 93.9247C56.4631 94.7997 56.2112 95.5919 55.946 96.3011C55.6875 97.0104 55.4787 97.5672 55.3196 97.9716H52.5753C52.6747 97.5805 52.8106 97.0336 52.983 96.331C53.1553 95.6349 53.3177 94.8527 53.4702 93.9844C53.6226 93.116 53.7188 92.2311 53.7585 91.3295L53.8083 90.2159H57.3083ZM67.6376 93.2784C66.1064 93.2784 64.7442 93.0298 63.551 92.5327C62.3644 92.0289 61.4331 91.3428 60.7569 90.4744C60.0808 89.6061 59.7427 88.6217 59.7427 87.5213C59.7427 86.6728 59.935 85.8939 60.3194 85.1847C60.7105 84.4688 61.2408 83.8755 61.9104 83.4048C62.5799 82.9276 63.3289 82.6226 64.1575 82.4901V82.3509C63.0704 82.1321 62.1888 81.6051 61.5126 80.7699C60.8365 79.928 60.4984 78.9503 60.4984 77.8366C60.4984 76.7827 60.8067 75.8447 61.4231 75.0227C62.0396 74.1941 62.8848 73.5445 63.9587 73.0739C65.0391 72.5966 66.2655 72.358 67.6376 72.358C69.0098 72.358 70.2328 72.5966 71.3067 73.0739C72.3872 73.5511 73.2356 74.2041 73.8521 75.0327C74.4686 75.8546 74.7801 76.7893 74.7868 77.8366C74.7801 78.9569 74.4355 79.9347 73.7527 80.7699C73.0699 81.6051 72.1949 82.1321 71.1277 82.3509V82.4901C71.943 82.6226 72.6821 82.9276 73.345 83.4048C74.0145 83.8755 74.5448 84.4688 74.9359 85.1847C75.3337 85.8939 75.5358 86.6728 75.5425 87.5213C75.5358 88.6217 75.1944 89.6061 74.5183 90.4744C73.8422 91.3428 72.9075 92.0289 71.7143 92.5327C70.5278 93.0298 69.1689 93.2784 67.6376 93.2784ZM67.6376 90.1165C68.3204 90.1165 68.917 89.9938 69.4274 89.7486C69.9378 89.4967 70.3355 89.152 70.6206 88.7145C70.9122 88.2704 71.0581 87.7599 71.0581 87.1832C71.0581 86.5933 70.9089 86.0729 70.6106 85.6222C70.3123 85.1648 69.908 84.8068 69.3976 84.5483C68.8872 84.2831 68.3005 84.1506 67.6376 84.1506C66.9814 84.1506 66.3947 84.2831 65.8777 84.5483C65.3606 84.8068 64.953 85.1648 64.6547 85.6222C64.363 86.0729 64.2172 86.5933 64.2172 87.1832C64.2172 87.7599 64.3597 88.2704 64.6447 88.7145C64.9298 89.152 65.3308 89.4967 65.8479 89.7486C66.3649 89.9938 66.9615 90.1165 67.6376 90.1165ZM67.6376 81.0185C68.2077 81.0185 68.7148 80.9025 69.1589 80.6705C69.6031 80.4384 69.9511 80.117 70.203 79.706C70.4549 79.295 70.5808 78.821 70.5808 78.2841C70.5808 77.7538 70.4549 77.2898 70.203 76.892C69.9511 76.4877 69.6064 76.1728 69.1689 75.9474C68.7314 75.7154 68.221 75.5994 67.6376 75.5994C67.0609 75.5994 66.5505 75.7154 66.1064 75.9474C65.6622 76.1728 65.3142 76.4877 65.0623 76.892C64.8171 77.2898 64.6944 77.7538 64.6944 78.2841C64.6944 78.821 64.8204 79.295 65.0723 79.706C65.3242 80.117 65.6722 80.4384 66.1163 80.6705C66.5604 80.9025 67.0676 81.0185 67.6376 81.0185ZM77.9645 89.4205V86.0298L86.4659 72.6364H89.3892V77.3295H87.6591L82.2997 85.8111V85.9702H94.3807V89.4205H77.9645ZM87.7387 93V88.3864L87.8182 86.8849V72.6364H91.8551V93H87.7387ZM104.496 93.2784C103.011 93.2784 101.689 93.0232 100.529 92.5128C99.3756 91.9957 98.4641 91.2865 97.7946 90.3849C97.1317 89.4768 96.7903 88.4295 96.7705 87.2429H101.106C101.132 87.7401 101.295 88.1776 101.593 88.5554C101.898 88.9266 102.302 89.215 102.806 89.4205C103.31 89.6259 103.877 89.7287 104.506 89.7287C105.162 89.7287 105.743 89.6127 106.246 89.3807C106.75 89.1487 107.145 88.8272 107.43 88.4162C107.715 88.0052 107.857 87.5312 107.857 86.9943C107.857 86.4508 107.705 85.9702 107.4 85.5526C107.101 85.1283 106.671 84.7969 106.107 84.5582C105.55 84.3196 104.887 84.2003 104.118 84.2003H102.219V81.0384H104.118C104.768 81.0384 105.341 80.9257 105.839 80.7003C106.342 80.4749 106.734 80.1634 107.012 79.7656C107.29 79.3613 107.43 78.8906 107.43 78.3537C107.43 77.8433 107.307 77.3958 107.062 77.0114C106.823 76.6203 106.485 76.3153 106.047 76.0966C105.617 75.8778 105.113 75.7685 104.536 75.7685C103.953 75.7685 103.419 75.8745 102.935 76.0866C102.451 76.2921 102.064 76.5871 101.772 76.9716C101.48 77.3561 101.324 77.8068 101.305 78.3239H97.1781C97.198 77.1506 97.5328 76.1165 98.1824 75.2216C98.832 74.3267 99.707 73.6274 100.807 73.1236C101.914 72.6132 103.164 72.358 104.556 72.358C105.961 72.358 107.191 72.6132 108.245 73.1236C109.299 73.634 110.118 74.3234 110.701 75.1918C111.291 76.0535 111.582 77.0213 111.576 78.0952C111.582 79.2353 111.228 80.1866 110.512 80.9489C109.803 81.7112 108.878 82.1951 107.738 82.4006V82.5597C109.236 82.7519 110.376 83.2723 111.158 84.1207C111.947 84.9626 112.338 86.0166 112.332 87.2827C112.338 88.4427 112.003 89.4735 111.327 90.375C110.658 91.2765 109.733 91.9858 108.553 92.5028C107.373 93.0199 106.021 93.2784 104.496 93.2784Z" fill="#191A1D"/>
<path d="M24.0783 114.465C24.2347 114.465 24.3494 114.398 24.4225 114.263C24.4956 114.129 24.4905 113.996 24.4074 113.864L20.5562 107.719C20.4782 107.596 20.3695 107.535 20.2302 107.535C20.0909 107.535 19.9812 107.596 19.9011 107.719L16.0633 113.864C15.9836 113.996 15.9794 114.129 16.0508 114.263C16.1221 114.398 16.236 114.465 16.3924 114.465H24.0783Z" fill="#388E3C"/>
<path d="M31.0914 106.773V115.5H30.0346V107.881H29.9835L27.8528 109.295V108.222L30.0346 106.773H31.0914ZM33.4814 115.5V114.733L36.3621 111.58C36.7001 111.21 36.9785 110.889 37.1973 110.616C37.416 110.341 37.578 110.082 37.6831 109.841C37.791 109.597 37.845 109.341 37.845 109.074C37.845 108.767 37.7712 108.501 37.6234 108.277C37.4785 108.053 37.2797 107.879 37.0268 107.757C36.774 107.635 36.4899 107.574 36.1746 107.574C35.8393 107.574 35.5467 107.643 35.2967 107.783C35.0496 107.919 34.8578 108.111 34.7214 108.358C34.5879 108.605 34.5212 108.895 34.5212 109.227H33.5155C33.5155 108.716 33.6334 108.267 33.8692 107.881C34.105 107.494 34.426 107.193 34.8322 106.977C35.2413 106.761 35.7001 106.653 36.2087 106.653C36.72 106.653 37.1731 106.761 37.568 106.977C37.9629 107.193 38.2726 107.484 38.497 107.851C38.7214 108.217 38.8337 108.625 38.8337 109.074C38.8337 109.395 38.7754 109.709 38.6589 110.016C38.5453 110.32 38.3464 110.659 38.0624 111.034C37.7811 111.406 37.3905 111.861 36.8905 112.398L34.9302 114.494V114.562H38.9871V115.5H33.4814ZM45.0759 113.864V113.403C45.0759 113.085 45.1412 112.794 45.2719 112.53C45.4054 112.263 45.5986 112.05 45.8514 111.891C46.1071 111.729 46.4168 111.648 46.7804 111.648C47.1497 111.648 47.4594 111.729 47.7094 111.891C47.9594 112.05 48.1483 112.263 48.2762 112.53C48.404 112.794 48.4679 113.085 48.4679 113.403V113.864C48.4679 114.182 48.4026 114.474 48.2719 114.741C48.1441 115.006 47.9537 115.219 47.7009 115.381C47.4509 115.54 47.1441 115.619 46.7804 115.619C46.4111 115.619 46.1 115.54 45.8472 115.381C45.5943 115.219 45.4026 115.006 45.2719 114.741C45.1412 114.474 45.0759 114.182 45.0759 113.864ZM45.9452 113.403V113.864C45.9452 114.128 46.0077 114.365 46.1327 114.575C46.2577 114.783 46.4736 114.886 46.7804 114.886C47.0787 114.886 47.2889 114.783 47.4111 114.575C47.5361 114.365 47.5986 114.128 47.5986 113.864V113.403C47.5986 113.139 47.5389 112.903 47.4196 112.696C47.3003 112.486 47.0872 112.381 46.7804 112.381C46.4821 112.381 46.2676 112.486 46.137 112.696C46.0091 112.903 45.9452 113.139 45.9452 113.403ZM40.7293 108.869V108.409C40.7293 108.091 40.7946 107.8 40.9253 107.536C41.0588 107.268 41.252 107.055 41.5049 106.896C41.7605 106.734 42.0702 106.653 42.4338 106.653C42.8031 106.653 43.1128 106.734 43.3628 106.896C43.6128 107.055 43.8017 107.268 43.9296 107.536C44.0574 107.8 44.1213 108.091 44.1213 108.409V108.869C44.1213 109.187 44.056 109.48 43.9253 109.747C43.7975 110.011 43.6071 110.224 43.3543 110.386C43.1043 110.545 42.7975 110.625 42.4338 110.625C42.0645 110.625 41.7534 110.545 41.5006 110.386C41.2478 110.224 41.056 110.011 40.9253 109.747C40.7946 109.48 40.7293 109.187 40.7293 108.869ZM41.5986 108.409V108.869C41.5986 109.134 41.6611 109.371 41.7861 109.581C41.9111 109.788 42.127 109.892 42.4338 109.892C42.7321 109.892 42.9424 109.788 43.0645 109.581C43.1895 109.371 43.252 109.134 43.252 108.869V108.409C43.252 108.145 43.1924 107.909 43.073 107.702C42.9537 107.491 42.7406 107.386 42.4338 107.386C42.1355 107.386 41.921 107.491 41.7904 107.702C41.6625 107.909 41.5986 108.145 41.5986 108.409ZM41.0531 115.5L47.0531 106.773H48.0247L42.0247 115.5H41.0531Z" fill="#388E3C"/>
<path d="M59.9509 113.966V108.341H60.9054V113.966H59.9509ZM57.6156 111.631V110.676H63.2406V111.631H57.6156ZM64.757 115.5V114.733L67.6377 111.58C67.9758 111.21 68.2542 110.889 68.4729 110.616C68.6917 110.341 68.8536 110.082 68.9587 109.841C69.0667 109.597 69.1206 109.341 69.1206 109.074C69.1206 108.767 69.0468 108.501 68.8991 108.277C68.7542 108.053 68.5553 107.879 68.3025 107.757C68.0496 107.635 67.7655 107.574 67.4502 107.574C67.115 107.574 66.8224 107.643 66.5724 107.783C66.3252 107.919 66.1334 108.111 65.9971 108.358C65.8635 108.605 65.7968 108.895 65.7968 109.227H64.7911C64.7911 108.716 64.909 108.267 65.1448 107.881C65.3806 107.494 65.7016 107.193 66.1079 106.977C66.517 106.761 66.9758 106.653 67.4843 106.653C67.9956 106.653 68.4488 106.761 68.8437 106.977C69.2385 107.193 69.5482 107.484 69.7726 107.851C69.9971 108.217 70.1093 108.625 70.1093 109.074C70.1093 109.395 70.051 109.709 69.9346 110.016C69.8209 110.32 69.6221 110.659 69.338 111.034C69.0567 111.406 68.6661 111.861 68.1661 112.398L66.2059 114.494V114.562H70.2627V115.5H64.757ZM73.4197 114.307L73.3515 114.767C73.3032 115.091 73.2293 115.438 73.1299 115.807C73.0333 116.176 72.9325 116.524 72.8274 116.851C72.7222 117.178 72.6356 117.438 72.5674 117.631H71.8004C71.8373 117.449 71.8856 117.209 71.9453 116.911C72.0049 116.612 72.0646 116.278 72.1242 115.909C72.1867 115.543 72.2379 115.168 72.2776 114.784L72.3288 114.307H73.4197ZM77.739 115.619C77.381 115.614 77.023 115.545 76.6651 115.415C76.3071 115.284 75.9804 115.064 75.685 114.754C75.3895 114.442 75.1523 114.02 74.9733 113.489C74.7944 112.955 74.7049 112.284 74.7049 111.477C74.7049 110.705 74.7773 110.02 74.9222 109.423C75.0671 108.824 75.2773 108.32 75.5529 107.911C75.8284 107.499 76.1608 107.186 76.55 106.973C76.9421 106.76 77.3838 106.653 77.8753 106.653C78.364 106.653 78.7986 106.751 79.1793 106.947C79.5628 107.141 79.8753 107.411 80.1168 107.757C80.3583 108.104 80.5145 108.503 80.5855 108.955H79.5458C79.4492 108.562 79.2617 108.237 78.9833 107.979C78.7049 107.72 78.3355 107.591 77.8753 107.591C77.1992 107.591 76.6665 107.885 76.2773 108.473C75.8909 109.061 75.6963 109.886 75.6935 110.949H75.7617C75.9208 110.707 76.1097 110.501 76.3284 110.331C76.55 110.158 76.7944 110.024 77.0614 109.93C77.3284 109.837 77.6111 109.79 77.9094 109.79C78.4094 109.79 78.8668 109.915 79.2816 110.165C79.6963 110.412 80.0287 110.754 80.2787 111.192C80.5287 111.626 80.6537 112.125 80.6537 112.688C80.6537 113.227 80.533 113.722 80.2915 114.17C80.05 114.616 79.7105 114.972 79.273 115.236C78.8384 115.497 78.327 115.625 77.739 115.619ZM77.739 114.682C78.0969 114.682 78.4179 114.592 78.702 114.413C78.989 114.234 79.2148 113.994 79.3796 113.693C79.5472 113.392 79.631 113.057 79.631 112.688C79.631 112.327 79.55 111.999 79.3881 111.703C79.229 111.405 79.0088 111.168 78.7276 110.991C78.4492 110.815 78.131 110.727 77.773 110.727C77.5032 110.727 77.2517 110.781 77.0188 110.889C76.7858 110.994 76.5813 111.139 76.4051 111.324C76.2319 111.509 76.0955 111.72 75.9961 111.959C75.8966 112.195 75.8469 112.443 75.8469 112.705C75.8469 113.051 75.9279 113.375 76.0898 113.676C76.2546 113.977 76.479 114.22 76.7631 114.405C77.05 114.589 77.3753 114.682 77.739 114.682ZM82.4822 115.5L86.3856 107.778V107.71H81.8856V106.773H87.4766V107.761L83.5902 115.5H82.4822ZM91.6552 115.619C91.2973 115.614 90.9393 115.545 90.5813 115.415C90.2234 115.284 89.8967 115.064 89.6012 114.754C89.3058 114.442 89.0686 114.02 88.8896 113.489C88.7106 112.955 88.6211 112.284 88.6211 111.477C88.6211 110.705 88.6936 110.02 88.8384 109.423C88.9833 108.824 89.1936 108.32 89.4691 107.911C89.7447 107.499 90.0771 107.186 90.4663 106.973C90.8583 106.76 91.3001 106.653 91.7916 106.653C92.2802 106.653 92.7149 106.751 93.0955 106.947C93.4791 107.141 93.7916 107.411 94.033 107.757C94.2745 108.104 94.4308 108.503 94.5018 108.955H93.462C93.3654 108.562 93.1779 108.237 92.8995 107.979C92.6211 107.72 92.2518 107.591 91.7916 107.591C91.1154 107.591 90.5828 107.885 90.1936 108.473C89.8072 109.061 89.6126 109.886 89.6098 110.949H89.6779C89.837 110.707 90.0259 110.501 90.2447 110.331C90.4663 110.158 90.7106 110.024 90.9777 109.93C91.2447 109.837 91.5274 109.79 91.8257 109.79C92.3257 109.79 92.783 109.915 93.1978 110.165C93.6126 110.412 93.945 110.754 94.195 111.192C94.445 111.626 94.57 112.125 94.57 112.688C94.57 113.227 94.4492 113.722 94.2078 114.17C93.9663 114.616 93.6268 114.972 93.1893 115.236C92.7546 115.497 92.2433 115.625 91.6552 115.619ZM91.6552 114.682C92.0132 114.682 92.3342 114.592 92.6183 114.413C92.9052 114.234 93.1311 113.994 93.2958 113.693C93.4634 113.392 93.5473 113.057 93.5473 112.688C93.5473 112.327 93.4663 111.999 93.3044 111.703C93.1453 111.405 92.9251 111.168 92.6438 110.991C92.3654 110.815 92.0473 110.727 91.6893 110.727C91.4194 110.727 91.168 110.781 90.935 110.889C90.7021 110.994 90.4975 111.139 90.3214 111.324C90.1481 111.509 90.0117 111.72 89.9123 111.959C89.8129 112.195 89.7632 112.443 89.7632 112.705C89.7632 113.051 89.8441 113.375 90.0061 113.676C90.1708 113.977 90.3953 114.22 90.6794 114.405C90.9663 114.589 91.2916 114.682 91.6552 114.682ZM102.244 108.955V109.807H98.8524V108.955H102.244ZM99.841 107.386H100.847V113.625C100.847 113.909 100.888 114.122 100.97 114.264C101.055 114.403 101.163 114.497 101.294 114.545C101.428 114.591 101.568 114.614 101.716 114.614C101.827 114.614 101.918 114.608 101.989 114.597C102.06 114.582 102.117 114.571 102.159 114.562L102.364 115.466C102.296 115.491 102.2 115.517 102.078 115.543C101.956 115.571 101.801 115.585 101.614 115.585C101.33 115.585 101.051 115.524 100.778 115.402C100.509 115.28 100.284 115.094 100.105 114.844C99.9291 114.594 99.841 114.278 99.841 113.898V107.386ZM106.226 115.636C105.635 115.636 105.117 115.496 104.671 115.214C104.227 114.933 103.881 114.54 103.631 114.034C103.384 113.528 103.26 112.937 103.26 112.261C103.26 111.58 103.384 110.984 103.631 110.476C103.881 109.967 104.227 109.572 104.671 109.291C105.117 109.01 105.635 108.869 106.226 108.869C106.817 108.869 107.334 109.01 107.777 109.291C108.223 109.572 108.57 109.967 108.817 110.476C109.067 110.984 109.192 111.58 109.192 112.261C109.192 112.937 109.067 113.528 108.817 114.034C108.57 114.54 108.223 114.933 107.777 115.214C107.334 115.496 106.817 115.636 106.226 115.636ZM106.226 114.733C106.675 114.733 107.044 114.618 107.334 114.388C107.624 114.158 107.838 113.855 107.977 113.48C108.117 113.105 108.186 112.699 108.186 112.261C108.186 111.824 108.117 111.416 107.977 111.038C107.838 110.661 107.624 110.355 107.334 110.122C107.044 109.889 106.675 109.773 106.226 109.773C105.777 109.773 105.408 109.889 105.118 110.122C104.828 110.355 104.614 110.661 104.475 111.038C104.335 111.416 104.266 111.824 104.266 112.261C104.266 112.699 104.335 113.105 104.475 113.48C104.614 113.855 104.828 114.158 105.118 114.388C105.408 114.618 105.777 114.733 106.226 114.733ZM113.079 115.636C112.533 115.636 112.052 115.499 111.634 115.223C111.216 114.945 110.89 114.553 110.654 114.047C110.418 113.538 110.3 112.938 110.3 112.244C110.3 111.557 110.418 110.96 110.654 110.455C110.89 109.949 111.218 109.558 111.638 109.283C112.059 109.007 112.545 108.869 113.096 108.869C113.522 108.869 113.858 108.94 114.106 109.082C114.356 109.222 114.546 109.381 114.677 109.56C114.81 109.736 114.914 109.881 114.988 109.994H115.073V106.773H116.079V115.5H115.107V114.494H114.988C114.914 114.614 114.809 114.764 114.672 114.946C114.536 115.125 114.341 115.286 114.089 115.428C113.836 115.567 113.499 115.636 113.079 115.636ZM113.215 114.733C113.618 114.733 113.959 114.628 114.238 114.418C114.516 114.205 114.728 113.911 114.873 113.536C115.018 113.158 115.09 112.722 115.09 112.227C115.09 111.739 115.019 111.311 114.877 110.945C114.735 110.575 114.525 110.288 114.246 110.084C113.968 109.876 113.624 109.773 113.215 109.773C112.789 109.773 112.434 109.882 112.15 110.101C111.868 110.317 111.657 110.611 111.515 110.983C111.375 111.352 111.306 111.767 111.306 112.227C111.306 112.693 111.377 113.116 111.519 113.497C111.664 113.875 111.877 114.176 112.158 114.401C112.442 114.622 112.795 114.733 113.215 114.733ZM119.866 115.653C119.452 115.653 119.075 115.575 118.737 115.419C118.399 115.26 118.13 115.031 117.932 114.733C117.733 114.432 117.633 114.068 117.633 113.642C117.633 113.267 117.707 112.963 117.855 112.73C118.003 112.494 118.2 112.31 118.447 112.176C118.694 112.043 118.967 111.943 119.265 111.878C119.567 111.81 119.869 111.756 120.173 111.716C120.571 111.665 120.893 111.626 121.14 111.601C121.39 111.572 121.572 111.526 121.686 111.46C121.802 111.395 121.861 111.281 121.861 111.119V111.085C121.861 110.665 121.746 110.338 121.515 110.105C121.288 109.872 120.943 109.756 120.48 109.756C120 109.756 119.623 109.861 119.351 110.071C119.078 110.281 118.886 110.506 118.775 110.744L117.821 110.403C117.991 110.006 118.219 109.696 118.503 109.474C118.79 109.25 119.102 109.094 119.44 109.006C119.781 108.915 120.116 108.869 120.446 108.869C120.656 108.869 120.898 108.895 121.17 108.946C121.446 108.994 121.711 109.095 121.967 109.249C122.226 109.402 122.44 109.634 122.611 109.943C122.781 110.253 122.866 110.668 122.866 111.188V115.5H121.861V114.614H121.809C121.741 114.756 121.628 114.908 121.469 115.07C121.309 115.232 121.098 115.369 120.834 115.483C120.569 115.597 120.247 115.653 119.866 115.653ZM120.02 114.75C120.417 114.75 120.753 114.672 121.025 114.516C121.301 114.359 121.508 114.158 121.648 113.911C121.79 113.663 121.861 113.403 121.861 113.131V112.21C121.818 112.261 121.724 112.308 121.579 112.351C121.437 112.391 121.273 112.426 121.085 112.457C120.9 112.486 120.72 112.511 120.544 112.534C120.371 112.554 120.23 112.571 120.122 112.585C119.861 112.619 119.616 112.675 119.389 112.751C119.165 112.825 118.983 112.937 118.844 113.088C118.707 113.236 118.639 113.437 118.639 113.693C118.639 114.043 118.768 114.307 119.027 114.486C119.288 114.662 119.619 114.75 120.02 114.75ZM124.995 117.955C124.825 117.955 124.673 117.94 124.539 117.912C124.406 117.886 124.313 117.861 124.262 117.835L124.518 116.949C124.762 117.011 124.978 117.034 125.166 117.017C125.353 117 125.519 116.916 125.664 116.766C125.812 116.618 125.947 116.378 126.069 116.045L126.257 115.534L123.836 108.955H124.927L126.734 114.17H126.802L128.609 108.955H129.7L126.921 116.455C126.796 116.793 126.642 117.072 126.457 117.294C126.272 117.518 126.058 117.685 125.813 117.793C125.572 117.901 125.299 117.955 124.995 117.955Z" fill="#5C697C"/>
<path d="M225.42 18.6364C225.42 19.5568 225.254 20.3523 224.922 21.0227C224.589 21.6932 224.134 22.2102 223.554 22.5739C222.974 22.9375 222.313 23.1193 221.568 23.1193C220.824 23.1193 220.162 22.9375 219.582 22.5739C219.003 22.2102 218.547 21.6932 218.214 21.0227C217.882 20.3523 217.716 19.5568 217.716 18.6364C217.716 17.7159 217.882 16.9205 218.214 16.25C218.547 15.5795 219.003 15.0625 219.582 14.6989C220.162 14.3352 220.824 14.1534 221.568 14.1534C222.313 14.1534 222.974 14.3352 223.554 14.6989C224.134 15.0625 224.589 15.5795 224.922 16.25C225.254 16.9205 225.42 17.7159 225.42 18.6364ZM224.398 18.6364C224.398 17.8807 224.271 17.2429 224.018 16.723C223.768 16.2031 223.429 15.8097 223 15.5426C222.574 15.2756 222.097 15.142 221.568 15.142C221.04 15.142 220.561 15.2756 220.132 15.5426C219.706 15.8097 219.366 16.2031 219.114 16.723C218.864 17.2429 218.739 17.8807 218.739 18.6364C218.739 19.392 218.864 20.0298 219.114 20.5497C219.366 21.0696 219.706 21.4631 220.132 21.7301C220.561 21.9972 221.04 22.1307 221.568 22.1307C222.097 22.1307 222.574 21.9972 223 21.7301C223.429 21.4631 223.768 21.0696 224.018 20.5497C224.271 20.0298 224.398 19.392 224.398 18.6364ZM226.941 23V16.4545H227.913V17.4432H227.981C228.1 17.1193 228.316 16.8565 228.629 16.6548C228.941 16.4531 229.293 16.3523 229.685 16.3523C229.759 16.3523 229.852 16.3537 229.962 16.3565C230.073 16.3594 230.157 16.3636 230.214 16.3693V17.392C230.18 17.3835 230.102 17.3707 229.979 17.3537C229.86 17.3338 229.734 17.3239 229.6 17.3239C229.282 17.3239 228.998 17.3906 228.748 17.5241C228.501 17.6548 228.305 17.8366 228.16 18.0696C228.018 18.2997 227.947 18.5625 227.947 18.858V23H226.941ZM233.558 23.1364C233.013 23.1364 232.531 22.9986 232.114 22.723C231.696 22.4446 231.369 22.0526 231.134 21.5469C230.898 21.0384 230.78 20.4375 230.78 19.7443C230.78 19.0568 230.898 18.4602 231.134 17.9545C231.369 17.4489 231.698 17.0582 232.118 16.7827C232.538 16.5071 233.024 16.3693 233.575 16.3693C234.001 16.3693 234.338 16.4403 234.585 16.5824C234.835 16.7216 235.026 16.8807 235.156 17.0597C235.29 17.2358 235.394 17.3807 235.467 17.4943H235.553V14.2727H236.558V23H235.587V21.9943H235.467C235.394 22.1136 235.288 22.2642 235.152 22.446C235.016 22.625 234.821 22.7855 234.568 22.9276C234.315 23.0668 233.979 23.1364 233.558 23.1364ZM233.695 22.233C234.098 22.233 234.439 22.1278 234.717 21.9176C234.996 21.7045 235.207 21.4105 235.352 21.0355C235.497 20.6577 235.57 20.2216 235.57 19.7273C235.57 19.2386 235.499 18.8111 235.357 18.4446C235.215 18.0753 235.004 17.7884 234.726 17.5838C234.448 17.3764 234.104 17.2727 233.695 17.2727C233.269 17.2727 232.913 17.3821 232.629 17.6009C232.348 17.8168 232.136 18.1108 231.994 18.483C231.855 18.8523 231.786 19.267 231.786 19.7273C231.786 20.1932 231.857 20.6165 231.999 20.9972C232.144 21.375 232.357 21.6761 232.638 21.9006C232.922 22.1222 233.274 22.233 233.695 22.233ZM241.164 23.1364C240.533 23.1364 239.989 22.9972 239.532 22.7188C239.077 22.4375 238.727 22.0455 238.479 21.5426C238.235 21.0369 238.113 20.4489 238.113 19.7784C238.113 19.108 238.235 18.517 238.479 18.0057C238.727 17.4915 239.07 17.0909 239.511 16.804C239.954 16.5142 240.471 16.3693 241.062 16.3693C241.403 16.3693 241.739 16.4261 242.072 16.5398C242.404 16.6534 242.707 16.8381 242.979 17.0938C243.252 17.3466 243.47 17.6818 243.631 18.0994C243.793 18.517 243.874 19.0312 243.874 19.642V20.0682H238.829V19.1989H242.852C242.852 18.8295 242.778 18.5 242.63 18.2102C242.485 17.9205 242.278 17.6918 242.008 17.5241C241.741 17.3565 241.426 17.2727 241.062 17.2727C240.661 17.2727 240.315 17.3722 240.022 17.571C239.732 17.767 239.509 18.0227 239.353 18.3381C239.197 18.6534 239.119 18.9915 239.119 19.3523V19.9318C239.119 20.4261 239.204 20.8452 239.374 21.1889C239.548 21.5298 239.788 21.7898 240.095 21.9688C240.401 22.1449 240.758 22.233 241.164 22.233C241.428 22.233 241.667 22.196 241.88 22.1222C242.096 22.0455 242.282 21.9318 242.438 21.7812C242.595 21.6278 242.715 21.4375 242.801 21.2102L243.772 21.483C243.67 21.8125 243.498 22.1023 243.256 22.3523C243.015 22.5994 242.717 22.7926 242.362 22.9318C242.006 23.0682 241.607 23.1364 241.164 23.1364ZM245.284 23V16.4545H246.256V17.4432H246.324C246.443 17.1193 246.659 16.8565 246.972 16.6548C247.284 16.4531 247.636 16.3523 248.029 16.3523C248.102 16.3523 248.195 16.3537 248.306 16.3565C248.416 16.3594 248.5 16.3636 248.557 16.3693V17.392C248.523 17.3835 248.445 17.3707 248.323 17.3537C248.203 17.3338 248.077 17.3239 247.943 17.3239C247.625 17.3239 247.341 17.3906 247.091 17.5241C246.844 17.6548 246.648 17.8366 246.503 18.0696C246.361 18.2997 246.29 18.5625 246.29 18.858V23H245.284ZM254.265 17.9205L253.362 18.1761C253.305 18.0256 253.221 17.8793 253.111 17.7372C253.003 17.5923 252.855 17.473 252.667 17.3793C252.48 17.2855 252.24 17.2386 251.947 17.2386C251.547 17.2386 251.213 17.331 250.946 17.5156C250.682 17.6974 250.55 17.929 250.55 18.2102C250.55 18.4602 250.64 18.6577 250.822 18.8026C251.004 18.9474 251.288 19.0682 251.675 19.1648L252.646 19.4034C253.231 19.5455 253.667 19.7628 253.954 20.0554C254.241 20.3452 254.385 20.7187 254.385 21.1761C254.385 21.5511 254.277 21.8864 254.061 22.1818C253.848 22.4773 253.55 22.7102 253.166 22.8807C252.782 23.0511 252.336 23.1364 251.828 23.1364C251.16 23.1364 250.608 22.9915 250.17 22.7017C249.733 22.4119 249.456 21.9886 249.339 21.4318L250.294 21.1932C250.385 21.5455 250.557 21.8097 250.809 21.9858C251.065 22.1619 251.399 22.25 251.811 22.25C252.28 22.25 252.652 22.1506 252.927 21.9517C253.206 21.75 253.345 21.5085 253.345 21.2273C253.345 21 253.265 20.8097 253.106 20.6562C252.947 20.5 252.703 20.3835 252.373 20.3068L251.282 20.0511C250.683 19.9091 250.243 19.6889 249.961 19.3906C249.683 19.0895 249.544 18.7131 249.544 18.2614C249.544 17.892 249.648 17.5653 249.855 17.2812C250.065 16.9972 250.351 16.7741 250.711 16.6122C251.075 16.4503 251.487 16.3693 251.947 16.3693C252.595 16.3693 253.103 16.5114 253.473 16.7955C253.845 17.0795 254.109 17.4545 254.265 17.9205ZM259.528 23H258.42L261.624 14.2727H262.715L265.92 23H264.812L262.204 15.6534H262.136L259.528 23ZM259.937 19.5909H264.403V20.5284H259.937V19.5909Z" fill="#191A1D"/>
<path d="M339.462 23.1193C338.962 23.1193 338.512 23.0199 338.111 22.821C337.711 22.6222 337.39 22.3494 337.148 22.0028C336.907 21.6562 336.775 21.2614 336.752 20.8182H337.775C337.815 21.2131 337.993 21.5398 338.312 21.7983C338.633 22.054 339.016 22.1818 339.462 22.1818C339.82 22.1818 340.138 22.098 340.417 21.9304C340.698 21.7628 340.918 21.5327 341.077 21.2401C341.239 20.9446 341.32 20.6108 341.32 20.2386C341.32 19.858 341.236 19.5185 341.069 19.2202C340.904 18.919 340.677 18.6818 340.387 18.5085C340.097 18.3352 339.766 18.2472 339.394 18.2443C339.127 18.2415 338.853 18.2827 338.572 18.3679C338.29 18.4503 338.059 18.5568 337.877 18.6875L336.888 18.5682L337.417 14.2727H341.951V15.2102H338.303L337.996 17.7841H338.047C338.226 17.642 338.451 17.5241 338.721 17.4304C338.991 17.3366 339.272 17.2898 339.565 17.2898C340.099 17.2898 340.574 17.4176 340.992 17.6733C341.413 17.9261 341.742 18.2727 341.981 18.7131C342.222 19.1534 342.343 19.6562 342.343 20.2216C342.343 20.7784 342.218 21.2756 341.968 21.7131C341.721 22.1477 341.38 22.4915 340.945 22.7443C340.511 22.9943 340.016 23.1193 339.462 23.1193ZM345.105 21.8068L345.036 22.267C344.988 22.5909 344.914 22.9375 344.815 23.3068C344.718 23.6761 344.617 24.0241 344.512 24.3509C344.407 24.6776 344.321 24.9375 344.252 25.1307H343.485C343.522 24.9489 343.571 24.7088 343.63 24.4105C343.69 24.1122 343.75 23.7784 343.809 23.4091C343.872 23.0426 343.923 22.6676 343.963 22.2841L344.014 21.8068H345.105ZM349.452 23.1193C348.889 23.1193 348.388 23.0227 347.947 22.8295C347.51 22.6364 347.162 22.3679 346.903 22.0241C346.648 21.6776 346.508 21.2756 346.486 20.8182H347.56C347.582 21.0994 347.679 21.3423 347.849 21.5469C348.02 21.7486 348.243 21.9048 348.518 22.0156C348.794 22.1264 349.099 22.1818 349.435 22.1818C349.81 22.1818 350.142 22.1165 350.432 21.9858C350.722 21.8551 350.949 21.6733 351.114 21.4403C351.278 21.2074 351.361 20.9375 351.361 20.6307C351.361 20.3097 351.281 20.027 351.122 19.7827C350.963 19.5355 350.73 19.3423 350.423 19.2031C350.116 19.0639 349.741 18.9943 349.298 18.9943H348.599V18.0568H349.298C349.645 18.0568 349.949 17.9943 350.21 17.8693C350.474 17.7443 350.68 17.5682 350.828 17.3409C350.979 17.1136 351.054 16.8466 351.054 16.5398C351.054 16.2443 350.989 15.9872 350.858 15.7685C350.727 15.5497 350.543 15.3793 350.304 15.2571C350.068 15.1349 349.79 15.0739 349.469 15.0739C349.168 15.0739 348.883 15.1293 348.616 15.2401C348.352 15.348 348.136 15.5057 347.969 15.7131C347.801 15.9176 347.71 16.1648 347.696 16.4545H346.673C346.69 15.9972 346.828 15.5966 347.087 15.2528C347.345 14.9062 347.683 14.6364 348.101 14.4432C348.521 14.25 348.983 14.1534 349.486 14.1534C350.026 14.1534 350.489 14.2628 350.875 14.4815C351.261 14.6974 351.558 14.983 351.766 15.3381C351.973 15.6932 352.077 16.0767 352.077 16.4886C352.077 16.9801 351.947 17.3991 351.689 17.7457C351.433 18.0923 351.085 18.3324 350.645 18.4659V18.5341C351.196 18.625 351.626 18.8594 351.936 19.2372C352.246 19.6122 352.401 20.0767 352.401 20.6307C352.401 21.1051 352.271 21.5312 352.013 21.9091C351.757 22.2841 351.408 22.5795 350.964 22.7955C350.521 23.0114 350.017 23.1193 349.452 23.1193ZM356.87 23.1193C356.228 23.1193 355.681 22.9446 355.229 22.5952C354.778 22.2429 354.432 21.733 354.194 21.0653C353.955 20.3949 353.836 19.5852 353.836 18.6364C353.836 17.6932 353.955 16.8878 354.194 16.2202C354.435 15.5497 354.782 15.0384 355.234 14.6861C355.688 14.331 356.234 14.1534 356.87 14.1534C357.506 14.1534 358.05 14.331 358.502 14.6861C358.957 15.0384 359.303 15.5497 359.542 16.2202C359.783 16.8878 359.904 17.6932 359.904 18.6364C359.904 19.5852 359.785 20.3949 359.546 21.0653C359.307 21.733 358.962 22.2429 358.511 22.5952C358.059 22.9446 357.512 23.1193 356.87 23.1193ZM356.87 22.1818C357.506 22.1818 358.001 21.875 358.353 21.2614C358.705 20.6477 358.881 19.7727 358.881 18.6364C358.881 17.8807 358.8 17.2372 358.638 16.706C358.479 16.1747 358.249 15.7699 357.948 15.4915C357.65 15.2131 357.29 15.0739 356.87 15.0739C356.239 15.0739 355.746 15.3849 355.391 16.0071C355.036 16.6264 354.859 17.5028 354.859 18.6364C354.859 19.392 354.938 20.0341 355.097 20.5625C355.256 21.0909 355.485 21.4929 355.783 21.7685C356.084 22.044 356.447 22.1818 356.87 22.1818ZM364.25 23.1193C363.608 23.1193 363.061 22.9446 362.609 22.5952C362.158 22.2429 361.813 21.733 361.574 21.0653C361.335 20.3949 361.216 19.5852 361.216 18.6364C361.216 17.6932 361.335 16.8878 361.574 16.2202C361.815 15.5497 362.162 15.0384 362.614 14.6861C363.068 14.331 363.614 14.1534 364.25 14.1534C364.886 14.1534 365.43 14.331 365.882 14.6861C366.337 15.0384 366.683 15.5497 366.922 16.2202C367.163 16.8878 367.284 17.6932 367.284 18.6364C367.284 19.5852 367.165 20.3949 366.926 21.0653C366.688 21.733 366.342 22.2429 365.891 22.5952C365.439 22.9446 364.892 23.1193 364.25 23.1193ZM364.25 22.1818C364.886 22.1818 365.381 21.875 365.733 21.2614C366.085 20.6477 366.261 19.7727 366.261 18.6364C366.261 17.8807 366.18 17.2372 366.018 16.706C365.859 16.1747 365.629 15.7699 365.328 15.4915C365.03 15.2131 364.67 15.0739 364.25 15.0739C363.619 15.0739 363.126 15.3849 362.771 16.0071C362.416 16.6264 362.239 17.5028 362.239 18.6364C362.239 19.392 362.318 20.0341 362.477 20.5625C362.636 21.0909 362.865 21.4929 363.163 21.7685C363.464 22.044 363.827 22.1818 364.25 22.1818Z" fill="#191A1D"/>
<line x1="217" y1="33.5" x2="367" y2="33.5" stroke="#E3E7EB"/>
<path d="M225.42 49.6364C225.42 50.5568 225.254 51.3523 224.922 52.0227C224.589 52.6932 224.134 53.2102 223.554 53.5739C222.974 53.9375 222.313 54.1193 221.568 54.1193C220.824 54.1193 220.162 53.9375 219.582 53.5739C219.003 53.2102 218.547 52.6932 218.214 52.0227C217.882 51.3523 217.716 50.5568 217.716 49.6364C217.716 48.7159 217.882 47.9205 218.214 47.25C218.547 46.5795 219.003 46.0625 219.582 45.6989C220.162 45.3352 220.824 45.1534 221.568 45.1534C222.313 45.1534 222.974 45.3352 223.554 45.6989C224.134 46.0625 224.589 46.5795 224.922 47.25C225.254 47.9205 225.42 48.7159 225.42 49.6364ZM224.398 49.6364C224.398 48.8807 224.271 48.2429 224.018 47.723C223.768 47.2031 223.429 46.8097 223 46.5426C222.574 46.2756 222.097 46.142 221.568 46.142C221.04 46.142 220.561 46.2756 220.132 46.5426C219.706 46.8097 219.366 47.2031 219.114 47.723C218.864 48.2429 218.739 48.8807 218.739 49.6364C218.739 50.392 218.864 51.0298 219.114 51.5497C219.366 52.0696 219.706 52.4631 220.132 52.7301C220.561 52.9972 221.04 53.1307 221.568 53.1307C222.097 53.1307 222.574 52.9972 223 52.7301C223.429 52.4631 223.768 52.0696 224.018 51.5497C224.271 51.0298 224.398 50.392 224.398 49.6364ZM226.941 54V47.4545H227.913V48.4432H227.981C228.1 48.1193 228.316 47.8565 228.629 47.6548C228.941 47.4531 229.293 47.3523 229.685 47.3523C229.759 47.3523 229.852 47.3537 229.962 47.3565C230.073 47.3594 230.157 47.3636 230.214 47.3693V48.392C230.18 48.3835 230.102 48.3707 229.979 48.3537C229.86 48.3338 229.734 48.3239 229.6 48.3239C229.282 48.3239 228.998 48.3906 228.748 48.5241C228.501 48.6548 228.305 48.8366 228.16 49.0696C228.018 49.2997 227.947 49.5625 227.947 49.858V54H226.941ZM233.558 54.1364C233.013 54.1364 232.531 53.9986 232.114 53.723C231.696 53.4446 231.369 53.0526 231.134 52.5469C230.898 52.0384 230.78 51.4375 230.78 50.7443C230.78 50.0568 230.898 49.4602 231.134 48.9545C231.369 48.4489 231.698 48.0582 232.118 47.7827C232.538 47.5071 233.024 47.3693 233.575 47.3693C234.001 47.3693 234.338 47.4403 234.585 47.5824C234.835 47.7216 235.026 47.8807 235.156 48.0597C235.29 48.2358 235.394 48.3807 235.467 48.4943H235.553V45.2727H236.558V54H235.587V52.9943H235.467C235.394 53.1136 235.288 53.2642 235.152 53.446C235.016 53.625 234.821 53.7855 234.568 53.9276C234.315 54.0668 233.979 54.1364 233.558 54.1364ZM233.695 53.233C234.098 53.233 234.439 53.1278 234.717 52.9176C234.996 52.7045 235.207 52.4105 235.352 52.0355C235.497 51.6577 235.57 51.2216 235.57 50.7273C235.57 50.2386 235.499 49.8111 235.357 49.4446C235.215 49.0753 235.004 48.7884 234.726 48.5838C234.448 48.3764 234.104 48.2727 233.695 48.2727C233.269 48.2727 232.913 48.3821 232.629 48.6009C232.348 48.8168 232.136 49.1108 231.994 49.483C231.855 49.8523 231.786 50.267 231.786 50.7273C231.786 51.1932 231.857 51.6165 231.999 51.9972C232.144 52.375 232.357 52.6761 232.638 52.9006C232.922 53.1222 233.274 53.233 233.695 53.233ZM241.164 54.1364C240.533 54.1364 239.989 53.9972 239.532 53.7188C239.077 53.4375 238.727 53.0455 238.479 52.5426C238.235 52.0369 238.113 51.4489 238.113 50.7784C238.113 50.108 238.235 49.517 238.479 49.0057C238.727 48.4915 239.07 48.0909 239.511 47.804C239.954 47.5142 240.471 47.3693 241.062 47.3693C241.403 47.3693 241.739 47.4261 242.072 47.5398C242.404 47.6534 242.707 47.8381 242.979 48.0938C243.252 48.3466 243.47 48.6818 243.631 49.0994C243.793 49.517 243.874 50.0312 243.874 50.642V51.0682H238.829V50.1989H242.852C242.852 49.8295 242.778 49.5 242.63 49.2102C242.485 48.9205 242.278 48.6918 242.008 48.5241C241.741 48.3565 241.426 48.2727 241.062 48.2727C240.661 48.2727 240.315 48.3722 240.022 48.571C239.732 48.767 239.509 49.0227 239.353 49.3381C239.197 49.6534 239.119 49.9915 239.119 50.3523V50.9318C239.119 51.4261 239.204 51.8452 239.374 52.1889C239.548 52.5298 239.788 52.7898 240.095 52.9688C240.401 53.1449 240.758 53.233 241.164 53.233C241.428 53.233 241.667 53.196 241.88 53.1222C242.096 53.0455 242.282 52.9318 242.438 52.7812C242.595 52.6278 242.715 52.4375 242.801 52.2102L243.772 52.483C243.67 52.8125 243.498 53.1023 243.256 53.3523C243.015 53.5994 242.717 53.7926 242.362 53.9318C242.006 54.0682 241.607 54.1364 241.164 54.1364ZM245.284 54V47.4545H246.256V48.4432H246.324C246.443 48.1193 246.659 47.8565 246.972 47.6548C247.284 47.4531 247.636 47.3523 248.029 47.3523C248.102 47.3523 248.195 47.3537 248.306 47.3565C248.416 47.3594 248.5 47.3636 248.557 47.3693V48.392C248.523 48.3835 248.445 48.3707 248.323 48.3537C248.203 48.3338 248.077 48.3239 247.943 48.3239C247.625 48.3239 247.341 48.3906 247.091 48.5241C246.844 48.6548 246.648 48.8366 246.503 49.0696C246.361 49.2997 246.29 49.5625 246.29 49.858V54H245.284ZM254.265 48.9205L253.362 49.1761C253.305 49.0256 253.221 48.8793 253.111 48.7372C253.003 48.5923 252.855 48.473 252.667 48.3793C252.48 48.2855 252.24 48.2386 251.947 48.2386C251.547 48.2386 251.213 48.331 250.946 48.5156C250.682 48.6974 250.55 48.929 250.55 49.2102C250.55 49.4602 250.64 49.6577 250.822 49.8026C251.004 49.9474 251.288 50.0682 251.675 50.1648L252.646 50.4034C253.231 50.5455 253.667 50.7628 253.954 51.0554C254.241 51.3452 254.385 51.7187 254.385 52.1761C254.385 52.5511 254.277 52.8864 254.061 53.1818C253.848 53.4773 253.55 53.7102 253.166 53.8807C252.782 54.0511 252.336 54.1364 251.828 54.1364C251.16 54.1364 250.608 53.9915 250.17 53.7017C249.733 53.4119 249.456 52.9886 249.339 52.4318L250.294 52.1932C250.385 52.5455 250.557 52.8097 250.809 52.9858C251.065 53.1619 251.399 53.25 251.811 53.25C252.28 53.25 252.652 53.1506 252.927 52.9517C253.206 52.75 253.345 52.5085 253.345 52.2273C253.345 52 253.265 51.8097 253.106 51.6562C252.947 51.5 252.703 51.3835 252.373 51.3068L251.282 51.0511C250.683 50.9091 250.243 50.6889 249.961 50.3906C249.683 50.0895 249.544 49.7131 249.544 49.2614C249.544 48.892 249.648 48.5653 249.855 48.2812C250.065 47.9972 250.351 47.7741 250.711 47.6122C251.075 47.4503 251.487 47.3693 251.947 47.3693C252.595 47.3693 253.103 47.5114 253.473 47.7955C253.845 48.0795 254.109 48.4545 254.265 48.9205ZM259.17 54V45.2727H262.221C262.829 45.2727 263.33 45.3778 263.725 45.5881C264.12 45.7955 264.414 46.0753 264.607 46.4276C264.801 46.777 264.897 47.1648 264.897 47.5909C264.897 47.9659 264.83 48.2756 264.697 48.5199C264.566 48.7642 264.393 48.9574 264.177 49.0994C263.964 49.2415 263.732 49.3466 263.482 49.4148V49.5C263.749 49.517 264.018 49.6108 264.288 49.7812C264.558 49.9517 264.784 50.196 264.965 50.5142C265.147 50.8324 265.238 51.2216 265.238 51.6818C265.238 52.1193 265.139 52.5128 264.94 52.8622C264.741 53.2116 264.427 53.4886 263.998 53.6932C263.569 53.8977 263.011 54 262.323 54H259.17ZM260.227 53.0625H262.323C263.014 53.0625 263.504 52.929 263.794 52.6619C264.086 52.392 264.232 52.0653 264.232 51.6818C264.232 51.3864 264.157 51.1136 264.007 50.8636C263.856 50.6108 263.642 50.4091 263.363 50.2585C263.085 50.1051 262.755 50.0284 262.374 50.0284H260.227V53.0625ZM260.227 49.108H262.187C262.505 49.108 262.792 49.0455 263.048 48.9205C263.306 48.7955 263.511 48.6193 263.661 48.392C263.815 48.1648 263.892 47.8977 263.892 47.5909C263.892 47.2074 263.758 46.8821 263.491 46.6151C263.224 46.3452 262.801 46.2102 262.221 46.2102H260.227V49.108Z" fill="#191A1D"/>
<path d="M336.29 54V53.233L339.17 50.0795C339.508 49.7102 339.787 49.3892 340.006 49.1165C340.224 48.8409 340.386 48.5824 340.491 48.3409C340.599 48.0966 340.653 47.8409 340.653 47.5739C340.653 47.267 340.579 47.0014 340.432 46.777C340.287 46.5526 340.088 46.3793 339.835 46.2571C339.582 46.1349 339.298 46.0739 338.983 46.0739C338.648 46.0739 338.355 46.1435 338.105 46.2827C337.858 46.419 337.666 46.6108 337.53 46.858C337.396 47.1051 337.329 47.3949 337.329 47.7273H336.324C336.324 47.2159 336.442 46.767 336.677 46.3807C336.913 45.9943 337.234 45.6932 337.641 45.4773C338.05 45.2614 338.508 45.1534 339.017 45.1534C339.528 45.1534 339.981 45.2614 340.376 45.4773C340.771 45.6932 341.081 45.9844 341.305 46.3509C341.53 46.7173 341.642 47.125 341.642 47.5739C341.642 47.8949 341.584 48.2088 341.467 48.5156C341.354 48.8196 341.155 49.1591 340.871 49.5341C340.589 49.9062 340.199 50.3608 339.699 50.8977L337.739 52.9943V53.0625H341.795V54H336.29ZM344.952 52.8068L344.884 53.267C344.836 53.5909 344.762 53.9375 344.663 54.3068C344.566 54.6761 344.465 55.0241 344.36 55.3509C344.255 55.6776 344.168 55.9375 344.1 56.1307H343.333C343.37 55.9489 343.418 55.7088 343.478 55.4105C343.538 55.1122 343.597 54.7784 343.657 54.4091C343.719 54.0426 343.771 53.6676 343.81 53.2841L343.861 52.8068H344.952ZM349.23 54.1193C348.73 54.1193 348.28 54.0199 347.879 53.821C347.479 53.6222 347.158 53.3494 346.916 53.0028C346.675 52.6562 346.543 52.2614 346.52 51.8182H347.543C347.582 52.2131 347.761 52.5398 348.079 52.7983C348.401 53.054 348.784 53.1818 349.23 53.1818C349.588 53.1818 349.906 53.098 350.185 52.9304C350.466 52.7628 350.686 52.5327 350.845 52.2401C351.007 51.9446 351.088 51.6108 351.088 51.2386C351.088 50.858 351.004 50.5185 350.837 50.2202C350.672 49.919 350.445 49.6818 350.155 49.5085C349.865 49.3352 349.534 49.2472 349.162 49.2443C348.895 49.2415 348.621 49.2827 348.339 49.3679C348.058 49.4503 347.827 49.5568 347.645 49.6875L346.656 49.5682L347.185 45.2727H351.719V46.2102H348.071L347.764 48.7841H347.815C347.994 48.642 348.219 48.5241 348.489 48.4304C348.758 48.3366 349.04 48.2898 349.332 48.2898C349.866 48.2898 350.342 48.4176 350.76 48.6733C351.18 48.9261 351.51 49.2727 351.749 49.7131C351.99 50.1534 352.111 50.6562 352.111 51.2216C352.111 51.7784 351.986 52.2756 351.736 52.7131C351.489 53.1477 351.148 53.4915 350.713 53.7443C350.278 53.9943 349.784 54.1193 349.23 54.1193ZM353.479 52.2102V51.3409L357.314 45.2727H357.945V46.6193H357.519L354.621 51.2045V51.2727H359.786V52.2102H353.479ZM357.587 54V51.946V51.5412V45.2727H358.593V54H357.587ZM364.212 54.1193C363.649 54.1193 363.148 54.0227 362.707 53.8295C362.27 53.6364 361.922 53.3679 361.663 53.0241C361.408 52.6776 361.268 52.2756 361.246 51.8182H362.32C362.342 52.0994 362.439 52.3423 362.609 52.5469C362.78 52.7486 363.003 52.9048 363.278 53.0156C363.554 53.1264 363.859 53.1818 364.195 53.1818C364.57 53.1818 364.902 53.1165 365.192 52.9858C365.482 52.8551 365.709 52.6733 365.874 52.4403C366.038 52.2074 366.121 51.9375 366.121 51.6307C366.121 51.3097 366.041 51.027 365.882 50.7827C365.723 50.5355 365.49 50.3423 365.183 50.2031C364.876 50.0639 364.501 49.9943 364.058 49.9943H363.359V49.0568H364.058C364.405 49.0568 364.709 48.9943 364.97 48.8693C365.234 48.7443 365.44 48.5682 365.588 48.3409C365.739 48.1136 365.814 47.8466 365.814 47.5398C365.814 47.2443 365.749 46.9872 365.618 46.7685C365.487 46.5497 365.303 46.3793 365.064 46.2571C364.828 46.1349 364.55 46.0739 364.229 46.0739C363.928 46.0739 363.643 46.1293 363.376 46.2401C363.112 46.348 362.896 46.5057 362.729 46.7131C362.561 46.9176 362.47 47.1648 362.456 47.4545H361.433C361.45 46.9972 361.588 46.5966 361.847 46.2528C362.105 45.9062 362.443 45.6364 362.861 45.4432C363.281 45.25 363.743 45.1534 364.246 45.1534C364.786 45.1534 365.249 45.2628 365.635 45.4815C366.021 45.6974 366.318 45.983 366.526 46.3381C366.733 46.6932 366.837 47.0767 366.837 47.4886C366.837 47.9801 366.707 48.3991 366.449 48.7457C366.193 49.0923 365.845 49.3324 365.405 49.4659V49.5341C365.956 49.625 366.386 49.8594 366.696 50.2372C367.006 50.6122 367.161 51.0767 367.161 51.6307C367.161 52.1051 367.031 52.5312 366.773 52.9091C366.517 53.2841 366.168 53.5795 365.724 53.7955C365.281 54.0114 364.777 54.1193 364.212 54.1193Z" fill="#191A1D"/>
<line x1="217" y1="64.5" x2="367" y2="64.5" stroke="#E3E7EB"/>
<path d="M225.42 80.6364C225.42 81.5568 225.254 82.3523 224.922 83.0227C224.589 83.6932 224.134 84.2102 223.554 84.5739C222.974 84.9375 222.313 85.1193 221.568 85.1193C220.824 85.1193 220.162 84.9375 219.582 84.5739C219.003 84.2102 218.547 83.6932 218.214 83.0227C217.882 82.3523 217.716 81.5568 217.716 80.6364C217.716 79.7159 217.882 78.9205 218.214 78.25C218.547 77.5795 219.003 77.0625 219.582 76.6989C220.162 76.3352 220.824 76.1534 221.568 76.1534C222.313 76.1534 222.974 76.3352 223.554 76.6989C224.134 77.0625 224.589 77.5795 224.922 78.25C225.254 78.9205 225.42 79.7159 225.42 80.6364ZM224.398 80.6364C224.398 79.8807 224.271 79.2429 224.018 78.723C223.768 78.2031 223.429 77.8097 223 77.5426C222.574 77.2756 222.097 77.142 221.568 77.142C221.04 77.142 220.561 77.2756 220.132 77.5426C219.706 77.8097 219.366 78.2031 219.114 78.723C218.864 79.2429 218.739 79.8807 218.739 80.6364C218.739 81.392 218.864 82.0298 219.114 82.5497C219.366 83.0696 219.706 83.4631 220.132 83.7301C220.561 83.9972 221.04 84.1307 221.568 84.1307C222.097 84.1307 222.574 83.9972 223 83.7301C223.429 83.4631 223.768 83.0696 224.018 82.5497C224.271 82.0298 224.398 81.392 224.398 80.6364ZM226.941 85V78.4545H227.913V79.4432H227.981C228.1 79.1193 228.316 78.8565 228.629 78.6548C228.941 78.4531 229.293 78.3523 229.685 78.3523C229.759 78.3523 229.852 78.3537 229.962 78.3565C230.073 78.3594 230.157 78.3636 230.214 78.3693V79.392C230.18 79.3835 230.102 79.3707 229.979 79.3537C229.86 79.3338 229.734 79.3239 229.6 79.3239C229.282 79.3239 228.998 79.3906 228.748 79.5241C228.501 79.6548 228.305 79.8366 228.16 80.0696C228.018 80.2997 227.947 80.5625 227.947 80.858V85H226.941ZM233.558 85.1364C233.013 85.1364 232.531 84.9986 232.114 84.723C231.696 84.4446 231.369 84.0526 231.134 83.5469C230.898 83.0384 230.78 82.4375 230.78 81.7443C230.78 81.0568 230.898 80.4602 231.134 79.9545C231.369 79.4489 231.698 79.0582 232.118 78.7827C232.538 78.5071 233.024 78.3693 233.575 78.3693C234.001 78.3693 234.338 78.4403 234.585 78.5824C234.835 78.7216 235.026 78.8807 235.156 79.0597C235.29 79.2358 235.394 79.3807 235.467 79.4943H235.553V76.2727H236.558V85H235.587V83.9943H235.467C235.394 84.1136 235.288 84.2642 235.152 84.446C235.016 84.625 234.821 84.7855 234.568 84.9276C234.315 85.0668 233.979 85.1364 233.558 85.1364ZM233.695 84.233C234.098 84.233 234.439 84.1278 234.717 83.9176C234.996 83.7045 235.207 83.4105 235.352 83.0355C235.497 82.6577 235.57 82.2216 235.57 81.7273C235.57 81.2386 235.499 80.8111 235.357 80.4446C235.215 80.0753 235.004 79.7884 234.726 79.5838C234.448 79.3764 234.104 79.2727 233.695 79.2727C233.269 79.2727 232.913 79.3821 232.629 79.6009C232.348 79.8168 232.136 80.1108 231.994 80.483C231.855 80.8523 231.786 81.267 231.786 81.7273C231.786 82.1932 231.857 82.6165 231.999 82.9972C232.144 83.375 232.357 83.6761 232.638 83.9006C232.922 84.1222 233.274 84.233 233.695 84.233ZM241.164 85.1364C240.533 85.1364 239.989 84.9972 239.532 84.7188C239.077 84.4375 238.727 84.0455 238.479 83.5426C238.235 83.0369 238.113 82.4489 238.113 81.7784C238.113 81.108 238.235 80.517 238.479 80.0057C238.727 79.4915 239.07 79.0909 239.511 78.804C239.954 78.5142 240.471 78.3693 241.062 78.3693C241.403 78.3693 241.739 78.4261 242.072 78.5398C242.404 78.6534 242.707 78.8381 242.979 79.0938C243.252 79.3466 243.47 79.6818 243.631 80.0994C243.793 80.517 243.874 81.0312 243.874 81.642V82.0682H238.829V81.1989H242.852C242.852 80.8295 242.778 80.5 242.63 80.2102C242.485 79.9205 242.278 79.6918 242.008 79.5241C241.741 79.3565 241.426 79.2727 241.062 79.2727C240.661 79.2727 240.315 79.3722 240.022 79.571C239.732 79.767 239.509 80.0227 239.353 80.3381C239.197 80.6534 239.119 80.9915 239.119 81.3523V81.9318C239.119 82.4261 239.204 82.8452 239.374 83.1889C239.548 83.5298 239.788 83.7898 240.095 83.9688C240.401 84.1449 240.758 84.233 241.164 84.233C241.428 84.233 241.667 84.196 241.88 84.1222C242.096 84.0455 242.282 83.9318 242.438 83.7812C242.595 83.6278 242.715 83.4375 242.801 83.2102L243.772 83.483C243.67 83.8125 243.498 84.1023 243.256 84.3523C243.015 84.5994 242.717 84.7926 242.362 84.9318C242.006 85.0682 241.607 85.1364 241.164 85.1364ZM245.284 85V78.4545H246.256V79.4432H246.324C246.443 79.1193 246.659 78.8565 246.972 78.6548C247.284 78.4531 247.636 78.3523 248.029 78.3523C248.102 78.3523 248.195 78.3537 248.306 78.3565C248.416 78.3594 248.5 78.3636 248.557 78.3693V79.392C248.523 79.3835 248.445 79.3707 248.323 79.3537C248.203 79.3338 248.077 79.3239 247.943 79.3239C247.625 79.3239 247.341 79.3906 247.091 79.5241C246.844 79.6548 246.648 79.8366 246.503 80.0696C246.361 80.2997 246.29 80.5625 246.29 80.858V85H245.284ZM254.265 79.9205L253.362 80.1761C253.305 80.0256 253.221 79.8793 253.111 79.7372C253.003 79.5923 252.855 79.473 252.667 79.3793C252.48 79.2855 252.24 79.2386 251.947 79.2386C251.547 79.2386 251.213 79.331 250.946 79.5156C250.682 79.6974 250.55 79.929 250.55 80.2102C250.55 80.4602 250.64 80.6577 250.822 80.8026C251.004 80.9474 251.288 81.0682 251.675 81.1648L252.646 81.4034C253.231 81.5455 253.667 81.7628 253.954 82.0554C254.241 82.3452 254.385 82.7187 254.385 83.1761C254.385 83.5511 254.277 83.8864 254.061 84.1818C253.848 84.4773 253.55 84.7102 253.166 84.8807C252.782 85.0511 252.336 85.1364 251.828 85.1364C251.16 85.1364 250.608 84.9915 250.17 84.7017C249.733 84.4119 249.456 83.9886 249.339 83.4318L250.294 83.1932C250.385 83.5455 250.557 83.8097 250.809 83.9858C251.065 84.1619 251.399 84.25 251.811 84.25C252.28 84.25 252.652 84.1506 252.927 83.9517C253.206 83.75 253.345 83.5085 253.345 83.2273C253.345 83 253.265 82.8097 253.106 82.6562C252.947 82.5 252.703 82.3835 252.373 82.3068L251.282 82.0511C250.683 81.9091 250.243 81.6889 249.961 81.3906C249.683 81.0895 249.544 80.7131 249.544 80.2614C249.544 79.892 249.648 79.5653 249.855 79.2812C250.065 78.9972 250.351 78.7741 250.711 78.6122C251.075 78.4503 251.487 78.3693 251.947 78.3693C252.595 78.3693 253.103 78.5114 253.473 78.7955C253.845 79.0795 254.109 79.4545 254.265 79.9205ZM266.193 79H265.136C265.073 78.696 264.964 78.429 264.808 78.1989C264.654 77.9688 264.467 77.7756 264.245 77.6193C264.026 77.4602 263.784 77.3409 263.517 77.2614C263.249 77.1818 262.971 77.142 262.681 77.142C262.153 77.142 261.674 77.2756 261.245 77.5426C260.819 77.8097 260.48 78.2031 260.227 78.723C259.977 79.2429 259.852 79.8807 259.852 80.6364C259.852 81.392 259.977 82.0298 260.227 82.5497C260.48 83.0696 260.819 83.4631 261.245 83.7301C261.674 83.9972 262.153 84.1307 262.681 84.1307C262.971 84.1307 263.249 84.0909 263.517 84.0114C263.784 83.9318 264.026 83.8139 264.245 83.6577C264.467 83.4986 264.654 83.304 264.808 83.0739C264.964 82.8409 265.073 82.5739 265.136 82.2727H266.193C266.113 82.7187 265.968 83.1179 265.758 83.4702C265.548 83.8224 265.286 84.1222 264.974 84.3693C264.661 84.6136 264.311 84.7997 263.921 84.9276C263.535 85.0554 263.122 85.1193 262.681 85.1193C261.937 85.1193 261.275 84.9375 260.696 84.5739C260.116 84.2102 259.66 83.6932 259.328 83.0227C258.995 82.3523 258.829 81.5568 258.829 80.6364C258.829 79.7159 258.995 78.9205 259.328 78.25C259.66 77.5795 260.116 77.0625 260.696 76.6989C261.275 76.3352 261.937 76.1534 262.681 76.1534C263.122 76.1534 263.535 76.2173 263.921 76.3452C264.311 76.473 264.661 76.6605 264.974 76.9077C265.286 77.152 265.548 77.4503 265.758 77.8026C265.968 78.152 266.113 78.5511 266.193 79Z" fill="#191A1D"/>
<path d="M338.894 85L342.798 77.2784V77.2102H338.298V76.2727H343.889V77.2614L340.002 85H338.894ZM345.374 83.8068L345.306 84.267C345.258 84.5909 345.184 84.9375 345.084 85.3068C344.988 85.6761 344.887 86.0241 344.782 86.3509C344.677 86.6776 344.59 86.9375 344.522 87.1307H343.755C343.792 86.9489 343.84 86.7088 343.9 86.4105C343.959 86.1122 344.019 85.7784 344.079 85.4091C344.141 85.0426 344.192 84.6676 344.232 84.2841L344.283 83.8068H345.374ZM346.896 83.2102V82.3409L350.731 76.2727H351.362V77.6193H350.936L348.038 82.2045V82.2727H353.203V83.2102H346.896ZM351.004 85V82.946V82.5412V76.2727H352.01V85H351.004ZM357.577 85.1193C357.219 85.1136 356.861 85.0455 356.504 84.9148C356.146 84.7841 355.819 84.5639 355.523 84.2543C355.228 83.9418 354.991 83.5199 354.812 82.9886C354.633 82.4545 354.543 81.7841 354.543 80.9773C354.543 80.2045 354.616 79.5199 354.761 78.9233C354.906 78.3239 355.116 77.8196 355.391 77.4105C355.667 76.9986 355.999 76.6861 356.388 76.473C356.781 76.2599 357.222 76.1534 357.714 76.1534C358.202 76.1534 358.637 76.2514 359.018 76.4474C359.401 76.6406 359.714 76.9105 359.955 77.2571C360.197 77.6037 360.353 78.0028 360.424 78.4545H359.384C359.288 78.0625 359.1 77.7372 358.822 77.4787C358.543 77.2202 358.174 77.0909 357.714 77.0909C357.038 77.0909 356.505 77.3849 356.116 77.973C355.729 78.5611 355.535 79.3864 355.532 80.4489H355.6C355.759 80.2074 355.948 80.0014 356.167 79.831C356.388 79.6577 356.633 79.5241 356.9 79.4304C357.167 79.3366 357.45 79.2898 357.748 79.2898C358.248 79.2898 358.705 79.4148 359.12 79.6648C359.535 79.9119 359.867 80.2543 360.117 80.6918C360.367 81.1264 360.492 81.625 360.492 82.1875C360.492 82.7273 360.371 83.2216 360.13 83.6705C359.888 84.1165 359.549 84.4716 359.111 84.7358C358.677 84.9972 358.165 85.125 357.577 85.1193ZM357.577 84.1818C357.935 84.1818 358.256 84.0923 358.54 83.9134C358.827 83.7344 359.053 83.4943 359.218 83.1932C359.386 82.892 359.469 82.5568 359.469 82.1875C359.469 81.8267 359.388 81.4986 359.227 81.2031C359.067 80.9048 358.847 80.6676 358.566 80.4915C358.288 80.3153 357.969 80.2273 357.611 80.2273C357.342 80.2273 357.09 80.2812 356.857 80.3892C356.624 80.4943 356.42 80.6392 356.244 80.8239C356.07 81.0085 355.934 81.2202 355.834 81.4588C355.735 81.6946 355.685 81.9432 355.685 82.2045C355.685 82.5511 355.766 82.875 355.928 83.1761C356.093 83.4773 356.317 83.7202 356.602 83.9048C356.888 84.0895 357.214 84.1818 357.577 84.1818ZM362.321 85L366.224 77.2784V77.2102H361.724V76.2727H367.315V77.2614L363.429 85H362.321Z" fill="#191A1D"/>
<line x1="217" y1="95.5" x2="367" y2="95.5" stroke="#E3E7EB"/>
<path d="M225.42 111.636C225.42 112.557 225.254 113.352 224.922 114.023C224.589 114.693 224.134 115.21 223.554 115.574C222.974 115.938 222.313 116.119 221.568 116.119C220.824 116.119 220.162 115.938 219.582 115.574C219.003 115.21 218.547 114.693 218.214 114.023C217.882 113.352 217.716 112.557 217.716 111.636C217.716 110.716 217.882 109.92 218.214 109.25C218.547 108.58 219.003 108.062 219.582 107.699C220.162 107.335 220.824 107.153 221.568 107.153C222.313 107.153 222.974 107.335 223.554 107.699C224.134 108.062 224.589 108.58 224.922 109.25C225.254 109.92 225.42 110.716 225.42 111.636ZM224.398 111.636C224.398 110.881 224.271 110.243 224.018 109.723C223.768 109.203 223.429 108.81 223 108.543C222.574 108.276 222.097 108.142 221.568 108.142C221.04 108.142 220.561 108.276 220.132 108.543C219.706 108.81 219.366 109.203 219.114 109.723C218.864 110.243 218.739 110.881 218.739 111.636C218.739 112.392 218.864 113.03 219.114 113.55C219.366 114.07 219.706 114.463 220.132 114.73C220.561 114.997 221.04 115.131 221.568 115.131C222.097 115.131 222.574 114.997 223 114.73C223.429 114.463 223.768 114.07 224.018 113.55C224.271 113.03 224.398 112.392 224.398 111.636ZM226.941 116V109.455H227.913V110.443H227.981C228.1 110.119 228.316 109.857 228.629 109.655C228.941 109.453 229.293 109.352 229.685 109.352C229.759 109.352 229.852 109.354 229.962 109.357C230.073 109.359 230.157 109.364 230.214 109.369V110.392C230.18 110.384 230.102 110.371 229.979 110.354C229.86 110.334 229.734 110.324 229.6 110.324C229.282 110.324 228.998 110.391 228.748 110.524C228.501 110.655 228.305 110.837 228.16 111.07C228.018 111.3 227.947 111.562 227.947 111.858V116H226.941ZM233.558 116.136C233.013 116.136 232.531 115.999 232.114 115.723C231.696 115.445 231.369 115.053 231.134 114.547C230.898 114.038 230.78 113.438 230.78 112.744C230.78 112.057 230.898 111.46 231.134 110.955C231.369 110.449 231.698 110.058 232.118 109.783C232.538 109.507 233.024 109.369 233.575 109.369C234.001 109.369 234.338 109.44 234.585 109.582C234.835 109.722 235.026 109.881 235.156 110.06C235.29 110.236 235.394 110.381 235.467 110.494H235.553V107.273H236.558V116H235.587V114.994H235.467C235.394 115.114 235.288 115.264 235.152 115.446C235.016 115.625 234.821 115.786 234.568 115.928C234.315 116.067 233.979 116.136 233.558 116.136ZM233.695 115.233C234.098 115.233 234.439 115.128 234.717 114.918C234.996 114.705 235.207 114.411 235.352 114.036C235.497 113.658 235.57 113.222 235.57 112.727C235.57 112.239 235.499 111.811 235.357 111.445C235.215 111.075 235.004 110.788 234.726 110.584C234.448 110.376 234.104 110.273 233.695 110.273C233.269 110.273 232.913 110.382 232.629 110.601C232.348 110.817 232.136 111.111 231.994 111.483C231.855 111.852 231.786 112.267 231.786 112.727C231.786 113.193 231.857 113.616 231.999 113.997C232.144 114.375 232.357 114.676 232.638 114.901C232.922 115.122 233.274 115.233 233.695 115.233ZM241.164 116.136C240.533 116.136 239.989 115.997 239.532 115.719C239.077 115.438 238.727 115.045 238.479 114.543C238.235 114.037 238.113 113.449 238.113 112.778C238.113 112.108 238.235 111.517 238.479 111.006C238.727 110.491 239.07 110.091 239.511 109.804C239.954 109.514 240.471 109.369 241.062 109.369C241.403 109.369 241.739 109.426 242.072 109.54C242.404 109.653 242.707 109.838 242.979 110.094C243.252 110.347 243.47 110.682 243.631 111.099C243.793 111.517 243.874 112.031 243.874 112.642V113.068H238.829V112.199H242.852C242.852 111.83 242.778 111.5 242.63 111.21C242.485 110.92 242.278 110.692 242.008 110.524C241.741 110.357 241.426 110.273 241.062 110.273C240.661 110.273 240.315 110.372 240.022 110.571C239.732 110.767 239.509 111.023 239.353 111.338C239.197 111.653 239.119 111.991 239.119 112.352V112.932C239.119 113.426 239.204 113.845 239.374 114.189C239.548 114.53 239.788 114.79 240.095 114.969C240.401 115.145 240.758 115.233 241.164 115.233C241.428 115.233 241.667 115.196 241.88 115.122C242.096 115.045 242.282 114.932 242.438 114.781C242.595 114.628 242.715 114.437 242.801 114.21L243.772 114.483C243.67 114.812 243.498 115.102 243.256 115.352C243.015 115.599 242.717 115.793 242.362 115.932C242.006 116.068 241.607 116.136 241.164 116.136ZM245.284 116V109.455H246.256V110.443H246.324C246.443 110.119 246.659 109.857 246.972 109.655C247.284 109.453 247.636 109.352 248.029 109.352C248.102 109.352 248.195 109.354 248.306 109.357C248.416 109.359 248.5 109.364 248.557 109.369V110.392C248.523 110.384 248.445 110.371 248.323 110.354C248.203 110.334 248.077 110.324 247.943 110.324C247.625 110.324 247.341 110.391 247.091 110.524C246.844 110.655 246.648 110.837 246.503 111.07C246.361 111.3 246.29 111.562 246.29 111.858V116H245.284ZM254.265 110.92L253.362 111.176C253.305 111.026 253.221 110.879 253.111 110.737C253.003 110.592 252.855 110.473 252.667 110.379C252.48 110.286 252.24 110.239 251.947 110.239C251.547 110.239 251.213 110.331 250.946 110.516C250.682 110.697 250.55 110.929 250.55 111.21C250.55 111.46 250.64 111.658 250.822 111.803C251.004 111.947 251.288 112.068 251.675 112.165L252.646 112.403C253.231 112.545 253.667 112.763 253.954 113.055C254.241 113.345 254.385 113.719 254.385 114.176C254.385 114.551 254.277 114.886 254.061 115.182C253.848 115.477 253.55 115.71 253.166 115.881C252.782 116.051 252.336 116.136 251.828 116.136C251.16 116.136 250.608 115.991 250.17 115.702C249.733 115.412 249.456 114.989 249.339 114.432L250.294 114.193C250.385 114.545 250.557 114.81 250.809 114.986C251.065 115.162 251.399 115.25 251.811 115.25C252.28 115.25 252.652 115.151 252.927 114.952C253.206 114.75 253.345 114.509 253.345 114.227C253.345 114 253.265 113.81 253.106 113.656C252.947 113.5 252.703 113.384 252.373 113.307L251.282 113.051C250.683 112.909 250.243 112.689 249.961 112.391C249.683 112.089 249.544 111.713 249.544 111.261C249.544 110.892 249.648 110.565 249.855 110.281C250.065 109.997 250.351 109.774 250.711 109.612C251.075 109.45 251.487 109.369 251.947 109.369C252.595 109.369 253.103 109.511 253.473 109.795C253.845 110.08 254.109 110.455 254.265 110.92ZM261.863 116H259.17V107.273H261.982C262.829 107.273 263.553 107.447 264.156 107.797C264.758 108.143 265.22 108.642 265.541 109.293C265.862 109.94 266.022 110.716 266.022 111.619C266.022 112.528 265.86 113.311 265.536 113.967C265.213 114.621 264.741 115.124 264.122 115.476C263.502 115.825 262.749 116 261.863 116ZM260.227 115.062H261.795C262.517 115.062 263.115 114.923 263.589 114.645C264.063 114.366 264.417 113.97 264.65 113.456C264.883 112.942 264.999 112.33 264.999 111.619C264.999 110.915 264.884 110.308 264.654 109.8C264.424 109.288 264.08 108.896 263.623 108.624C263.166 108.348 262.596 108.21 261.914 108.21H260.227V115.062Z" fill="#191A1D"/>
<path d="M333.853 107.273V116H332.796V108.381H332.745L330.614 109.795V108.722L332.796 107.273H333.853ZM339.192 116.119C338.629 116.119 338.128 116.023 337.687 115.83C337.25 115.636 336.902 115.368 336.643 115.024C336.388 114.678 336.248 114.276 336.226 113.818H337.3C337.322 114.099 337.419 114.342 337.589 114.547C337.76 114.749 337.983 114.905 338.258 115.016C338.534 115.126 338.839 115.182 339.175 115.182C339.55 115.182 339.882 115.116 340.172 114.986C340.462 114.855 340.689 114.673 340.854 114.44C341.018 114.207 341.101 113.938 341.101 113.631C341.101 113.31 341.021 113.027 340.862 112.783C340.703 112.536 340.47 112.342 340.163 112.203C339.856 112.064 339.481 111.994 339.038 111.994H338.339V111.057H339.038C339.385 111.057 339.689 110.994 339.95 110.869C340.214 110.744 340.42 110.568 340.568 110.341C340.719 110.114 340.794 109.847 340.794 109.54C340.794 109.244 340.729 108.987 340.598 108.768C340.467 108.55 340.283 108.379 340.044 108.257C339.808 108.135 339.53 108.074 339.209 108.074C338.908 108.074 338.623 108.129 338.356 108.24C338.092 108.348 337.876 108.506 337.709 108.713C337.541 108.918 337.45 109.165 337.436 109.455H336.413C336.43 108.997 336.568 108.597 336.827 108.253C337.085 107.906 337.423 107.636 337.841 107.443C338.261 107.25 338.723 107.153 339.226 107.153C339.766 107.153 340.229 107.263 340.615 107.482C341.001 107.697 341.298 107.983 341.506 108.338C341.713 108.693 341.817 109.077 341.817 109.489C341.817 109.98 341.687 110.399 341.429 110.746C341.173 111.092 340.825 111.332 340.385 111.466V111.534C340.936 111.625 341.366 111.859 341.676 112.237C341.986 112.612 342.141 113.077 342.141 113.631C342.141 114.105 342.011 114.531 341.753 114.909C341.497 115.284 341.148 115.58 340.704 115.795C340.261 116.011 339.757 116.119 339.192 116.119ZM345.011 114.807L344.943 115.267C344.894 115.591 344.821 115.938 344.721 116.307C344.625 116.676 344.524 117.024 344.419 117.351C344.313 117.678 344.227 117.938 344.159 118.131H343.392C343.429 117.949 343.477 117.709 343.536 117.411C343.596 117.112 343.656 116.778 343.715 116.409C343.778 116.043 343.829 115.668 343.869 115.284L343.92 114.807H345.011ZM349.289 116.119C348.789 116.119 348.338 116.02 347.938 115.821C347.537 115.622 347.216 115.349 346.975 115.003C346.733 114.656 346.601 114.261 346.578 113.818H347.601C347.641 114.213 347.82 114.54 348.138 114.798C348.459 115.054 348.843 115.182 349.289 115.182C349.647 115.182 349.965 115.098 350.243 114.93C350.524 114.763 350.745 114.533 350.904 114.24C351.066 113.945 351.147 113.611 351.147 113.239C351.147 112.858 351.063 112.518 350.895 112.22C350.73 111.919 350.503 111.682 350.213 111.509C349.924 111.335 349.593 111.247 349.22 111.244C348.953 111.241 348.679 111.283 348.398 111.368C348.117 111.45 347.885 111.557 347.703 111.688L346.715 111.568L347.243 107.273H351.777V108.21H348.13L347.823 110.784H347.874C348.053 110.642 348.277 110.524 348.547 110.43C348.817 110.337 349.098 110.29 349.391 110.29C349.925 110.29 350.401 110.418 350.818 110.673C351.239 110.926 351.568 111.273 351.807 111.713C352.049 112.153 352.169 112.656 352.169 113.222C352.169 113.778 352.044 114.276 351.794 114.713C351.547 115.148 351.206 115.491 350.772 115.744C350.337 115.994 349.843 116.119 349.289 116.119ZM356.691 116.119C356.129 116.119 355.627 116.023 355.187 115.83C354.749 115.636 354.401 115.368 354.143 115.024C353.887 114.678 353.748 114.276 353.725 113.818H354.799C354.822 114.099 354.918 114.342 355.089 114.547C355.259 114.749 355.482 114.905 355.758 115.016C356.033 115.126 356.339 115.182 356.674 115.182C357.049 115.182 357.381 115.116 357.671 114.986C357.961 114.855 358.188 114.673 358.353 114.44C358.518 114.207 358.6 113.938 358.6 113.631C358.6 113.31 358.521 113.027 358.361 112.783C358.202 112.536 357.969 112.342 357.663 112.203C357.356 112.064 356.981 111.994 356.538 111.994H355.839V111.057H356.538C356.884 111.057 357.188 110.994 357.45 110.869C357.714 110.744 357.92 110.568 358.067 110.341C358.218 110.114 358.293 109.847 358.293 109.54C358.293 109.244 358.228 108.987 358.097 108.768C357.967 108.55 357.782 108.379 357.543 108.257C357.307 108.135 357.029 108.074 356.708 108.074C356.407 108.074 356.123 108.129 355.856 108.24C355.592 108.348 355.376 108.506 355.208 108.713C355.04 108.918 354.95 109.165 354.935 109.455H353.913C353.93 108.997 354.067 108.597 354.326 108.253C354.584 107.906 354.923 107.636 355.34 107.443C355.761 107.25 356.222 107.153 356.725 107.153C357.265 107.153 357.728 107.263 358.114 107.482C358.501 107.697 358.798 107.983 359.005 108.338C359.212 108.693 359.316 109.077 359.316 109.489C359.316 109.98 359.187 110.399 358.928 110.746C358.673 111.092 358.325 111.332 357.884 111.466V111.534C358.435 111.625 358.866 111.859 359.175 112.237C359.485 112.612 359.64 113.077 359.64 113.631C359.64 114.105 359.511 114.531 359.252 114.909C358.996 115.284 358.647 115.58 358.204 115.795C357.761 116.011 357.256 116.119 356.691 116.119ZM364.212 116.119C363.649 116.119 363.148 116.023 362.707 115.83C362.27 115.636 361.922 115.368 361.663 115.024C361.408 114.678 361.268 114.276 361.246 113.818H362.32C362.342 114.099 362.439 114.342 362.609 114.547C362.78 114.749 363.003 114.905 363.278 115.016C363.554 115.126 363.859 115.182 364.195 115.182C364.57 115.182 364.902 115.116 365.192 114.986C365.482 114.855 365.709 114.673 365.874 114.44C366.038 114.207 366.121 113.938 366.121 113.631C366.121 113.31 366.041 113.027 365.882 112.783C365.723 112.536 365.49 112.342 365.183 112.203C364.876 112.064 364.501 111.994 364.058 111.994H363.359V111.057H364.058C364.405 111.057 364.709 110.994 364.97 110.869C365.234 110.744 365.44 110.568 365.588 110.341C365.739 110.114 365.814 109.847 365.814 109.54C365.814 109.244 365.749 108.987 365.618 108.768C365.487 108.55 365.303 108.379 365.064 108.257C364.828 108.135 364.55 108.074 364.229 108.074C363.928 108.074 363.643 108.129 363.376 108.24C363.112 108.348 362.896 108.506 362.729 108.713C362.561 108.918 362.47 109.165 362.456 109.455H361.433C361.45 108.997 361.588 108.597 361.847 108.253C362.105 107.906 362.443 107.636 362.861 107.443C363.281 107.25 363.743 107.153 364.246 107.153C364.786 107.153 365.249 107.263 365.635 107.482C366.021 107.697 366.318 107.983 366.526 108.338C366.733 108.693 366.837 109.077 366.837 109.489C366.837 109.98 366.707 110.399 366.449 110.746C366.193 111.092 365.845 111.332 365.405 111.466V111.534C365.956 111.625 366.386 111.859 366.696 112.237C367.006 112.612 367.161 113.077 367.161 113.631C367.161 114.105 367.031 114.531 366.773 114.909C366.517 115.284 366.168 115.58 365.724 115.795C365.281 116.011 364.777 116.119 364.212 116.119Z" fill="#191A1D"/>
</g>
<defs>
<filter id="filter0_dddddd_2693_138060" x="-80" y="-28" width="544" height="290" filterUnits="userSpaceOnUse" color-interpolation-filters="sRGB">
<feFlood flood-opacity="0" result="BackgroundImageFix"/>
<feColorMatrix in="SourceAlpha" type="matrix" values="0 0 0 0 0 0 0 0 0 0 0 0 0 0 0 0 0 0 127 0" result="hardAlpha"/>
<feOffset dy="1.43897"/>
<feGaussianBlur stdDeviation="1.1069"/>
<feColorMatrix type="matrix" values="0 0 0 0 0.109804 0 0 0 0 0.164706 0 0 0 0 0.278431 0 0 0 0.0168687 0"/>
<feBlend mode="normal" in2="BackgroundImageFix" result="effect1_dropShadow_2693_138060"/>
<feColorMatrix in="SourceAlpha" type="matrix" values="0 0 0 0 0 0 0 0 0 0 0 0 0 0 0 0 0 0 127 0" result="hardAlpha"/>
<feOffset dy="3.45805"/>
<feGaussianBlur stdDeviation="2.66004"/>
<feColorMatrix type="matrix" values="0 0 0 0 0.109804 0 0 0 0 0.164706 0 0 0 0 0.278431 0 0 0 0.0242336 0"/>
<feBlend mode="normal" in2="effect1_dropShadow_2693_138060" result="effect2_dropShadow_2693_138060"/>
<feColorMatrix in="SourceAlpha" type="matrix" values="0 0 0 0 0 0 0 0 0 0 0 0 0 0 0 0 0 0 127 0" result="hardAlpha"/>
<feOffset dy="6.51121"/>
<feGaussianBlur stdDeviation="5.00862"/>
<feColorMatrix type="matrix" values="0 0 0 0 0.109804 0 0 0 0 0.164706 0 0 0 0 0.278431 0 0 0 0.03 0"/>
<feBlend mode="normal" in2="effect2_dropShadow_2693_138060" result="effect3_dropShadow_2693_138060"/>
<feColorMatrix in="SourceAlpha" type="matrix" values="0 0 0 0 0 0 0 0 0 0 0 0 0 0 0 0 0 0 127 0" result="hardAlpha"/>
<feOffset dy="11.6149"/>
<feGaussianBlur stdDeviation="8.93452"/>
<feColorMatrix type="matrix" values="0 0 0 0 0.109804 0 0 0 0 0.164706 0 0 0 0 0.278431 0 0 0 0.0357664 0"/>
<feBlend mode="normal" in2="effect3_dropShadow_2693_138060" result="effect4_dropShadow_2693_138060"/>
<feColorMatrix in="SourceAlpha" type="matrix" values="0 0 0 0 0 0 0 0 0 0 0 0 0 0 0 0 0 0 127 0" result="hardAlpha"/>
<feOffset dy="21.7244"/>
<feGaussianBlur stdDeviation="16.711"/>
<feColorMatrix type="matrix" values="0 0 0 0 0.109804 0 0 0 0 0.164706 0 0 0 0 0.278431 0 0 0 0.0431313 0"/>
<feBlend mode="normal" in2="effect4_dropShadow_2693_138060" result="effect5_dropShadow_2693_138060"/>
<feColorMatrix in="SourceAlpha" type="matrix" values="0 0 0 0 0 0 0 0 0 0 0 0 0 0 0 0 0 0 127 0" result="hardAlpha"/>
<feOffset dy="52"/>
<feGaussianBlur stdDeviation="40"/>
<feColorMatrix type="matrix" values="0 0 0 0 0.109804 0 0 0 0 0.164706 0 0 0 0 0.278431 0 0 0 0.06 0"/>
<feBlend mode="normal" in2="effect5_dropShadow_2693_138060" result="effect6_dropShadow_2693_138060"/>
<feBlend mode="normal" in="SourceGraphic" in2="effect6_dropShadow_2693_138060" result="shape"/>
</filter>
</defs>
</svg>
