<svg width="384" height="130" viewBox="0 0 384 130" fill="none" xmlns="http://www.w3.org/2000/svg">
<g filter="url(#filter0_dddddd_2693_138056)">
<rect width="384" height="130" rx="12" fill="white"/>
<path d="M25.8239 18.9091C25.8239 19.983 25.63 20.911 25.2422 21.6932C24.8544 22.4754 24.3224 23.0786 23.6463 23.5028C22.9702 23.9271 22.1979 24.1392 21.3295 24.1392C20.4612 24.1392 19.6889 23.9271 19.0128 23.5028C18.3366 23.0786 17.8047 22.4754 17.4169 21.6932C17.0291 20.911 16.8352 19.983 16.8352 18.9091C16.8352 17.8352 17.0291 16.9072 17.4169 16.125C17.8047 15.3428 18.3366 14.7396 19.0128 14.3153C19.6889 13.8911 20.4612 13.679 21.3295 13.679C22.1979 13.679 22.9702 13.8911 23.6463 14.3153C24.3224 14.7396 24.8544 15.3428 25.2422 16.125C25.63 16.9072 25.8239 17.8352 25.8239 18.9091ZM24.6307 18.9091C24.6307 18.0275 24.4832 17.2834 24.1882 16.6768C23.8965 16.0703 23.5005 15.6113 23 15.2997C22.5028 14.9882 21.946 14.8324 21.3295 14.8324C20.7131 14.8324 20.1546 14.9882 19.6541 15.2997C19.157 15.6113 18.7609 16.0703 18.4659 16.6768C18.1742 17.2834 18.0284 18.0275 18.0284 18.9091C18.0284 19.7907 18.1742 20.5348 18.4659 21.1413C18.7609 21.7479 19.157 22.2069 19.6541 22.5185C20.1546 22.83 20.7131 22.9858 21.3295 22.9858C21.946 22.9858 22.5028 22.83 23 22.5185C23.5005 22.2069 23.8965 21.7479 24.1882 21.1413C24.4832 20.5348 24.6307 19.7907 24.6307 18.9091ZM27.5979 24V16.3636H28.7314V17.517H28.811C28.9502 17.1392 29.2021 16.8326 29.5667 16.5973C29.9313 16.362 30.3422 16.2443 30.7996 16.2443C30.8858 16.2443 30.9935 16.246 31.1228 16.2493C31.252 16.2526 31.3498 16.2576 31.4161 16.2642V17.4574C31.3763 17.4474 31.2852 17.4325 31.1427 17.4126C31.0035 17.3894 30.856 17.3778 30.7002 17.3778C30.329 17.3778 29.9975 17.4557 29.7059 17.6115C29.4175 17.764 29.1888 17.9761 29.0198 18.2479C28.8541 18.5163 28.7712 18.8229 28.7712 19.1676V24H27.5979ZM35.318 24.1591C34.6816 24.1591 34.1199 23.9983 33.6326 23.6768C33.1454 23.352 32.7643 22.8946 32.4892 22.3047C32.2141 21.7114 32.0765 21.0104 32.0765 20.2017C32.0765 19.3996 32.2141 18.7036 32.4892 18.1136C32.7643 17.5237 33.1471 17.0679 33.6376 16.7464C34.1281 16.425 34.6949 16.2642 35.3379 16.2642C35.8351 16.2642 36.2278 16.3471 36.5162 16.5128C36.8078 16.6752 37.0299 16.8608 37.1824 17.0696C37.3381 17.2751 37.4591 17.4441 37.5453 17.5767H37.6447V13.8182H38.818V24H37.6845V22.8267H37.5453C37.4591 22.9659 37.3365 23.1416 37.1774 23.3537C37.0183 23.5625 36.7913 23.7498 36.4963 23.9155C36.2013 24.0779 35.8085 24.1591 35.318 24.1591ZM35.4771 23.1051C35.9477 23.1051 36.3455 22.9825 36.6703 22.7372C36.9951 22.4886 37.242 22.1456 37.4111 21.7081C37.5801 21.2673 37.6646 20.7585 37.6646 20.1818C37.6646 19.6117 37.5817 19.1129 37.416 18.6854C37.2503 18.2545 37.005 17.9197 36.6802 17.6811C36.3554 17.4392 35.9544 17.3182 35.4771 17.3182C34.9799 17.3182 34.5656 17.4458 34.2342 17.701C33.9061 17.9529 33.6592 18.2959 33.4934 18.7301C33.331 19.161 33.2498 19.6449 33.2498 20.1818C33.2498 20.7254 33.3327 21.2192 33.4984 21.6634C33.6674 22.1042 33.916 22.4555 34.2441 22.7173C34.5756 22.9759 34.9866 23.1051 35.4771 23.1051ZM44.1915 24.1591C43.4557 24.1591 42.821 23.9967 42.2874 23.6719C41.7571 23.3438 41.3478 22.8864 41.0594 22.2997C40.7744 21.7098 40.6318 21.0237 40.6318 20.2415C40.6318 19.4593 40.7744 18.7699 41.0594 18.1733C41.3478 17.5734 41.7488 17.1061 42.2625 16.7713C42.7796 16.4332 43.3828 16.2642 44.0722 16.2642C44.4699 16.2642 44.8627 16.3305 45.2505 16.4631C45.6382 16.5956 45.9912 16.8111 46.3094 17.1094C46.6276 17.4044 46.8811 17.7955 47.0701 18.2827C47.259 18.7699 47.3534 19.3698 47.3534 20.0824V20.5795H41.4671V19.5653H46.1603C46.1603 19.1345 46.0741 18.75 45.9017 18.4119C45.7327 18.0739 45.4907 17.8071 45.1759 17.6115C44.8643 17.416 44.4964 17.3182 44.0722 17.3182C43.6049 17.3182 43.2005 17.4342 42.8591 17.6662C42.5211 17.8949 42.2609 18.1932 42.0786 18.5611C41.8963 18.929 41.8051 19.3234 41.8051 19.7443V20.4205C41.8051 20.9972 41.9046 21.486 42.1034 21.8871C42.3056 22.2848 42.5857 22.5881 42.9436 22.7969C43.3016 23.0024 43.7175 23.1051 44.1915 23.1051C44.4997 23.1051 44.7782 23.062 45.0267 22.9759C45.2786 22.8864 45.4957 22.7538 45.678 22.5781C45.8603 22.3991 46.0012 22.1771 46.1006 21.9119L47.2341 22.2301C47.1148 22.6146 46.9143 22.9527 46.6326 23.2443C46.3508 23.5327 46.0028 23.758 45.5885 23.9205C45.1742 24.0795 44.7086 24.1591 44.1915 24.1591ZM48.9982 24V16.3636H50.1318V17.517H50.2113C50.3505 17.1392 50.6024 16.8326 50.967 16.5973C51.3316 16.362 51.7426 16.2443 52.1999 16.2443C52.2861 16.2443 52.3938 16.246 52.5231 16.2493C52.6524 16.2526 52.7501 16.2576 52.8164 16.2642V17.4574C52.7766 17.4474 52.6855 17.4325 52.543 17.4126C52.4038 17.3894 52.2563 17.3778 52.1005 17.3778C51.7293 17.3778 51.3979 17.4557 51.1062 17.6115C50.8178 17.764 50.5891 17.9761 50.4201 18.2479C50.2544 18.5163 50.1715 18.8229 50.1715 19.1676V24H48.9982ZM59.4763 18.0739L58.4223 18.3722C58.356 18.1965 58.2583 18.0258 58.129 17.8601C58.0031 17.6911 57.8307 17.5518 57.612 17.4425C57.3932 17.3331 57.1132 17.2784 56.7718 17.2784C56.3044 17.2784 55.915 17.3861 55.6034 17.6016C55.2952 17.8137 55.1411 18.0838 55.1411 18.4119C55.1411 18.7036 55.2471 18.9339 55.4593 19.103C55.6714 19.272 56.0028 19.4129 56.4536 19.5256L57.5871 19.804C58.2699 19.9697 58.7786 20.2232 59.1134 20.5646C59.4481 20.9027 59.6155 21.3385 59.6155 21.8722C59.6155 22.3097 59.4896 22.7008 59.2377 23.0455C58.9891 23.3902 58.6411 23.6619 58.1936 23.8608C57.7462 24.0597 57.2258 24.1591 56.6326 24.1591C55.8537 24.1591 55.209 23.9901 54.6986 23.652C54.1882 23.3139 53.865 22.8201 53.7292 22.1705L54.8428 21.892C54.9489 22.303 55.1494 22.6113 55.4444 22.8168C55.7426 23.0223 56.1321 23.125 56.6127 23.125C57.1596 23.125 57.5937 23.009 57.9152 22.777C58.24 22.5417 58.4024 22.2599 58.4024 21.9318C58.4024 21.6667 58.3096 21.4446 58.124 21.2656C57.9384 21.0833 57.6534 20.9474 57.2689 20.858L55.9962 20.5597C55.2969 20.3939 54.7831 20.1371 54.455 19.7891C54.1302 19.4377 53.9678 18.9986 53.9678 18.4716C53.9678 18.0407 54.0888 17.6596 54.3307 17.3281C54.576 16.9967 54.9091 16.7365 55.33 16.5476C55.7542 16.3587 56.2348 16.2642 56.7718 16.2642C57.5274 16.2642 58.1207 16.4299 58.5516 16.7614C58.9858 17.0928 59.294 17.5303 59.4763 18.0739ZM68.1414 24.1591C67.4255 24.1591 66.8091 23.9901 66.292 23.652C65.775 23.3139 65.3772 22.8482 65.0988 22.255C64.8204 21.6617 64.6812 20.9839 64.6812 20.2216C64.6812 19.446 64.8237 18.7616 65.1088 18.1683C65.3971 17.5717 65.7982 17.1061 66.3119 16.7713C66.8289 16.4332 67.4322 16.2642 68.1216 16.2642C68.6585 16.2642 69.1424 16.3636 69.5733 16.5625C70.0041 16.7614 70.3571 17.0398 70.6322 17.3977C70.9073 17.7557 71.078 18.1733 71.1443 18.6506H69.971C69.8815 18.3026 69.6826 17.9943 69.3744 17.7259C69.0695 17.4541 68.6585 17.3182 68.1414 17.3182C67.6841 17.3182 67.283 17.4375 66.9383 17.6761C66.5969 17.9115 66.3301 18.2446 66.1379 18.6754C65.949 19.103 65.8545 19.6051 65.8545 20.1818C65.8545 20.7718 65.9473 21.2855 66.1329 21.723C66.3218 22.1605 66.587 22.5002 66.9284 22.7422C67.2731 22.9841 67.6774 23.1051 68.1414 23.1051C68.4464 23.1051 68.7231 23.0521 68.9717 22.946C69.2203 22.84 69.4307 22.6875 69.6031 22.4886C69.7754 22.2898 69.8981 22.0511 69.971 21.7727H71.1443C71.078 22.2235 70.9139 22.6295 70.6521 22.9908C70.3936 23.3487 70.0505 23.6338 69.623 23.8459C69.1987 24.0547 68.7049 24.1591 68.1414 24.1591ZM72.7195 24V16.3636H73.853V17.517H73.9326C74.0718 17.1392 74.3237 16.8326 74.6882 16.5973C75.0528 16.362 75.4638 16.2443 75.9212 16.2443C76.0074 16.2443 76.1151 16.246 76.2443 16.2493C76.3736 16.2526 76.4714 16.2576 76.5377 16.2642V17.4574C76.4979 17.4474 76.4068 17.4325 76.2642 17.4126C76.125 17.3894 75.9775 17.3778 75.8218 17.3778C75.4506 17.3778 75.1191 17.4557 74.8274 17.6115C74.5391 17.764 74.3104 17.9761 74.1414 18.2479C73.9756 18.5163 73.8928 18.8229 73.8928 19.1676V24H72.7195ZM80.7578 24.1591C80.022 24.1591 79.3873 23.9967 78.8536 23.6719C78.3233 23.3438 77.914 22.8864 77.6257 22.2997C77.3406 21.7098 77.1981 21.0237 77.1981 20.2415C77.1981 19.4593 77.3406 18.7699 77.6257 18.1733C77.914 17.5734 78.315 17.1061 78.8288 16.7713C79.3458 16.4332 79.949 16.2642 80.6384 16.2642C81.0362 16.2642 81.4289 16.3305 81.8167 16.4631C82.2045 16.5956 82.5575 16.8111 82.8757 17.1094C83.1938 17.4044 83.4474 17.7955 83.6363 18.2827C83.8252 18.7699 83.9197 19.3698 83.9197 20.0824V20.5795H78.0333V19.5653H82.7265C82.7265 19.1345 82.6403 18.75 82.468 18.4119C82.299 18.0739 82.057 17.8071 81.7421 17.6115C81.4306 17.416 81.0627 17.3182 80.6384 17.3182C80.1711 17.3182 79.7668 17.4342 79.4254 17.6662C79.0873 17.8949 78.8271 18.1932 78.6448 18.5611C78.4625 18.929 78.3714 19.3234 78.3714 19.7443V20.4205C78.3714 20.9972 78.4708 21.486 78.6697 21.8871C78.8719 22.2848 79.1519 22.5881 79.5099 22.7969C79.8678 23.0024 80.2838 23.1051 80.7578 23.1051C81.066 23.1051 81.3444 23.062 81.593 22.9759C81.8449 22.8864 82.062 22.7538 82.2443 22.5781C82.4266 22.3991 82.5674 22.1771 82.6668 21.9119L83.8004 22.2301C83.6811 22.6146 83.4805 22.9527 83.1988 23.2443C82.9171 23.5327 82.5691 23.758 82.1548 23.9205C81.7405 24.0795 81.2748 24.1591 80.7578 24.1591ZM87.8116 24.179C87.3277 24.179 86.8886 24.0878 86.4942 23.9055C86.0998 23.7199 85.7866 23.4531 85.5545 23.1051C85.3225 22.7538 85.2065 22.3295 85.2065 21.8324C85.2065 21.3949 85.2927 21.0402 85.4651 20.7685C85.6374 20.4934 85.8678 20.2779 86.1561 20.1222C86.4445 19.9664 86.7626 19.8504 87.1107 19.7741C87.462 19.6946 87.815 19.6316 88.1696 19.5852C88.6336 19.5256 89.0098 19.4808 89.2982 19.451C89.5898 19.4179 89.8019 19.3632 89.9345 19.2869C90.0704 19.2107 90.1384 19.0781 90.1384 18.8892V18.8494C90.1384 18.3589 90.0041 17.9777 89.7357 17.706C89.4705 17.4342 89.0678 17.2983 88.5276 17.2983C87.9674 17.2983 87.5283 17.4209 87.2101 17.6662C86.8919 17.9115 86.6682 18.1733 86.5389 18.4517L85.4253 18.054C85.6241 17.59 85.8893 17.2287 86.2207 16.9702C86.5555 16.7083 86.9201 16.526 87.3145 16.4233C87.7122 16.3172 88.1033 16.2642 88.4878 16.2642C88.733 16.2642 89.0148 16.294 89.333 16.3537C89.6544 16.41 89.9643 16.5277 90.2626 16.7067C90.5643 16.8857 90.8145 17.1558 91.0134 17.517C91.2122 17.8783 91.3116 18.3622 91.3116 18.9688V24H90.1384V22.9659H90.0787C89.9991 23.1316 89.8666 23.3089 89.681 23.4979C89.4954 23.6868 89.2484 23.8475 88.9402 23.9801C88.632 24.1127 88.2558 24.179 87.8116 24.179ZM87.9906 23.125C88.4546 23.125 88.8457 23.0339 89.1639 22.8516C89.4854 22.6693 89.7274 22.4339 89.8898 22.1456C90.0555 21.8572 90.1384 21.554 90.1384 21.2358V20.1619C90.0886 20.2216 89.9793 20.2763 89.8102 20.326C89.6445 20.3724 89.4523 20.4138 89.2335 20.4503C89.0181 20.4834 88.8076 20.5133 88.6021 20.5398C88.4 20.563 88.2359 20.5829 88.1099 20.5994C87.805 20.6392 87.52 20.7038 87.2548 20.7933C86.993 20.8795 86.7809 21.0104 86.6185 21.1861C86.4594 21.3584 86.3798 21.5937 86.3798 21.892C86.3798 22.2997 86.5306 22.608 86.8322 22.8168C87.1372 23.0223 87.5233 23.125 87.9906 23.125ZM96.6342 16.3636V17.358H92.6768V16.3636H96.6342ZM93.8302 14.5341H95.0035V21.8125C95.0035 22.1439 95.0516 22.3925 95.1477 22.5582C95.2471 22.7206 95.3731 22.83 95.5255 22.8864C95.6813 22.9394 95.8454 22.9659 96.0177 22.9659C96.147 22.9659 96.253 22.9593 96.3359 22.946C96.4187 22.9295 96.485 22.9162 96.5348 22.9062L96.7734 23.9602C96.6938 23.9901 96.5828 24.0199 96.4403 24.0497C96.2978 24.0829 96.1171 24.0994 95.8984 24.0994C95.5669 24.0994 95.2421 24.0282 94.924 23.8857C94.6091 23.7431 94.3473 23.526 94.1384 23.2344C93.933 22.9427 93.8302 22.5748 93.8302 22.1307V14.5341ZM101.379 24.1591C100.643 24.1591 100.008 23.9967 99.4747 23.6719C98.9443 23.3438 98.535 22.8864 98.2467 22.2997C97.9616 21.7098 97.8191 21.0237 97.8191 20.2415C97.8191 19.4593 97.9616 18.7699 98.2467 18.1733C98.535 17.5734 98.9361 17.1061 99.4498 16.7713C99.9668 16.4332 100.57 16.2642 101.259 16.2642C101.657 16.2642 102.05 16.3305 102.438 16.4631C102.826 16.5956 103.178 16.8111 103.497 17.1094C103.815 17.4044 104.068 17.7955 104.257 18.2827C104.446 18.7699 104.541 19.3698 104.541 20.0824V20.5795H98.6543V19.5653H103.348C103.348 19.1345 103.261 18.75 103.089 18.4119C102.92 18.0739 102.678 17.8071 102.363 17.6115C102.052 17.416 101.684 17.3182 101.259 17.3182C100.792 17.3182 100.388 17.4342 100.046 17.6662C99.7083 17.8949 99.4481 18.1932 99.2658 18.5611C99.0836 18.929 98.9924 19.3234 98.9924 19.7443V20.4205C98.9924 20.9972 99.0918 21.486 99.2907 21.8871C99.4929 22.2848 99.7729 22.5881 100.131 22.7969C100.489 23.0024 100.905 23.1051 101.379 23.1051C101.687 23.1051 101.965 23.062 102.214 22.9759C102.466 22.8864 102.683 22.7538 102.865 22.5781C103.048 22.3991 103.188 22.1771 103.288 21.9119L104.421 22.2301C104.302 22.6146 104.102 22.9527 103.82 23.2443C103.538 23.5327 103.19 23.758 102.776 23.9205C102.361 24.0795 101.896 24.1591 101.379 24.1591ZM109.069 24.1591C108.433 24.1591 107.871 23.9983 107.384 23.6768C106.896 23.352 106.515 22.8946 106.24 22.3047C105.965 21.7114 105.828 21.0104 105.828 20.2017C105.828 19.3996 105.965 18.7036 106.24 18.1136C106.515 17.5237 106.898 17.0679 107.389 16.7464C107.879 16.425 108.446 16.2642 109.089 16.2642C109.586 16.2642 109.979 16.3471 110.267 16.5128C110.559 16.6752 110.781 16.8608 110.933 17.0696C111.089 17.2751 111.21 17.4441 111.296 17.5767H111.396V13.8182H112.569V24H111.436V22.8267H111.296C111.21 22.9659 111.087 23.1416 110.928 23.3537C110.769 23.5625 110.542 23.7498 110.247 23.9155C109.952 24.0779 109.56 24.1591 109.069 24.1591ZM109.228 23.1051C109.699 23.1051 110.096 22.9825 110.421 22.7372C110.746 22.4886 110.993 22.1456 111.162 21.7081C111.331 21.2673 111.416 20.7585 111.416 20.1818C111.416 19.6117 111.333 19.1129 111.167 18.6854C111.001 18.2545 110.756 17.9197 110.431 17.6811C110.106 17.4392 109.705 17.3182 109.228 17.3182C108.731 17.3182 108.317 17.4458 107.985 17.701C107.657 17.9529 107.41 18.2959 107.244 18.7301C107.082 19.161 107.001 19.6449 107.001 20.1818C107.001 20.7254 107.084 21.2192 107.249 21.6634C107.418 22.1042 107.667 22.4555 107.995 22.7173C108.327 22.9759 108.738 23.1051 109.228 23.1051Z" fill="#191A1D"/>
<path d="M24.4205 36.6364C24.4205 37.5568 24.2543 38.3523 23.9219 39.0227C23.5895 39.6932 23.1335 40.2102 22.554 40.5739C21.9744 40.9375 21.3125 41.1193 20.5682 41.1193C19.8239 41.1193 19.1619 40.9375 18.5824 40.5739C18.0028 40.2102 17.5469 39.6932 17.2145 39.0227C16.8821 38.3523 16.7159 37.5568 16.7159 36.6364C16.7159 35.7159 16.8821 34.9205 17.2145 34.25C17.5469 33.5795 18.0028 33.0625 18.5824 32.6989C19.1619 32.3352 19.8239 32.1534 20.5682 32.1534C21.3125 32.1534 21.9744 32.3352 22.554 32.6989C23.1335 33.0625 23.5895 33.5795 23.9219 34.25C24.2543 34.9205 24.4205 35.7159 24.4205 36.6364ZM23.3977 36.6364C23.3977 35.8807 23.2713 35.2429 23.0185 34.723C22.7685 34.2031 22.429 33.8097 22 33.5426C21.5739 33.2756 21.0966 33.142 20.5682 33.142C20.0398 33.142 19.5611 33.2756 19.1321 33.5426C18.706 33.8097 18.3665 34.2031 18.1136 34.723C17.8636 35.2429 17.7386 35.8807 17.7386 36.6364C17.7386 37.392 17.8636 38.0298 18.1136 38.5497C18.3665 39.0696 18.706 39.4631 19.1321 39.7301C19.5611 39.9972 20.0398 40.1307 20.5682 40.1307C21.0966 40.1307 21.5739 39.9972 22 39.7301C22.429 39.4631 22.7685 39.0696 23.0185 38.5497C23.2713 38.0298 23.3977 37.392 23.3977 36.6364ZM28.6002 41.1364C27.9865 41.1364 27.4581 40.9915 27.0149 40.7017C26.5718 40.4119 26.2309 40.0128 25.9922 39.5043C25.7536 38.9957 25.6343 38.4148 25.6343 37.7614C25.6343 37.0966 25.7564 36.5099 26.0007 36.0014C26.2479 35.4901 26.5916 35.0909 27.032 34.804C27.4752 34.5142 27.9922 34.3693 28.5831 34.3693C29.0434 34.3693 29.4581 34.4545 29.8274 34.625C30.1968 34.7955 30.4993 35.0341 30.7351 35.3409C30.9709 35.6477 31.1172 36.0057 31.174 36.4148H30.1684C30.0916 36.1165 29.9212 35.8523 29.657 35.6222C29.3956 35.3892 29.0434 35.2727 28.6002 35.2727C28.2081 35.2727 27.8644 35.375 27.5689 35.5795C27.2763 35.7812 27.0476 36.0668 26.8828 36.4361C26.7209 36.8026 26.6399 37.233 26.6399 37.7273C26.6399 38.233 26.7195 38.6733 26.8786 39.0483C27.0405 39.4233 27.2678 39.7145 27.5604 39.9219C27.8559 40.1293 28.2024 40.233 28.6002 40.233C28.8615 40.233 29.0988 40.1875 29.3118 40.0966C29.5249 40.0057 29.7053 39.875 29.853 39.7045C30.0007 39.5341 30.1059 39.3295 30.1684 39.0909H31.174C31.1172 39.4773 30.9766 39.8253 30.7522 40.1349C30.5306 40.4418 30.2365 40.6861 29.8701 40.8679C29.5064 41.0469 29.0831 41.1364 28.6002 41.1364ZM35.3708 34.4545V35.3068H31.9788V34.4545H35.3708ZM32.9674 32.8864H33.9731V39.125C33.9731 39.4091 34.0143 39.6222 34.0966 39.7642C34.1819 39.9034 34.2898 39.9972 34.4205 40.0455C34.554 40.0909 34.6947 40.1136 34.8424 40.1136C34.9532 40.1136 35.0441 40.108 35.1151 40.0966C35.1861 40.0824 35.243 40.071 35.2856 40.0625L35.4901 40.9659C35.4219 40.9915 35.3268 41.017 35.2046 41.0426C35.0824 41.071 34.9276 41.0852 34.7401 41.0852C34.456 41.0852 34.1776 41.0241 33.9049 40.902C33.635 40.7798 33.4106 40.5938 33.2316 40.3438C33.0555 40.0938 32.9674 39.7784 32.9674 39.3977V32.8864ZM43.0697 32.2727V41H42.0129V33.3807H41.9618L39.8311 34.7955V33.7216L42.0129 32.2727H43.0697ZM48.3574 41.1193C47.9994 41.1136 47.6415 41.0455 47.2835 40.9148C46.9256 40.7841 46.5989 40.5639 46.3034 40.2543C46.008 39.9418 45.7707 39.5199 45.5918 38.9886C45.4128 38.4545 45.3233 37.7841 45.3233 36.9773C45.3233 36.2045 45.3957 35.5199 45.5406 34.9233C45.6855 34.3239 45.8957 33.8196 46.1713 33.4105C46.4469 32.9986 46.7793 32.6861 47.1685 32.473C47.5605 32.2599 48.0023 32.1534 48.4937 32.1534C48.9824 32.1534 49.417 32.2514 49.7977 32.4474C50.1812 32.6406 50.4937 32.9105 50.7352 33.2571C50.9767 33.6037 51.133 34.0028 51.204 34.4545H50.1642C50.0676 34.0625 49.8801 33.7372 49.6017 33.4787C49.3233 33.2202 48.954 33.0909 48.4937 33.0909C47.8176 33.0909 47.2849 33.3849 46.8957 33.973C46.5094 34.5611 46.3148 35.3864 46.3119 36.4489H46.3801C46.5392 36.2074 46.7281 36.0014 46.9469 35.831C47.1685 35.6577 47.4128 35.5241 47.6798 35.4304C47.9469 35.3366 48.2295 35.2898 48.5278 35.2898C49.0278 35.2898 49.4852 35.4148 49.9 35.6648C50.3148 35.9119 50.6472 36.2543 50.8972 36.6918C51.1472 37.1264 51.2722 37.625 51.2722 38.1875C51.2722 38.7273 51.1514 39.2216 50.9099 39.6705C50.6685 40.1165 50.329 40.4716 49.8915 40.7358C49.4568 40.9972 48.9455 41.125 48.3574 41.1193ZM48.3574 40.1818C48.7153 40.1818 49.0364 40.0923 49.3205 39.9134C49.6074 39.7344 49.8332 39.4943 49.998 39.1932C50.1656 38.892 50.2494 38.5568 50.2494 38.1875C50.2494 37.8267 50.1685 37.4986 50.0065 37.2031C49.8474 36.9048 49.6273 36.6676 49.346 36.4915C49.0676 36.3153 48.7494 36.2273 48.3915 36.2273C48.1216 36.2273 47.8702 36.2812 47.6372 36.3892C47.4043 36.4943 47.1997 36.6392 47.0236 36.8239C46.8503 37.0085 46.7139 37.2202 46.6145 37.4588C46.5151 37.6946 46.4653 37.9432 46.4653 38.2045C46.4653 38.5511 46.5463 38.875 46.7082 39.1761C46.873 39.4773 47.0974 39.7202 47.3815 39.9048C47.6685 40.0895 47.9937 40.1818 48.3574 40.1818ZM59.1852 31.8636L56.3727 42.3125H55.4523L58.2648 31.8636H59.1852ZM63.4953 41V40.233L66.376 37.0795C66.714 36.7102 66.9924 36.3892 67.2112 36.1165C67.4299 35.8409 67.5919 35.5824 67.697 35.3409C67.8049 35.0966 67.8589 34.8409 67.8589 34.5739C67.8589 34.267 67.7851 34.0014 67.6373 33.777C67.4924 33.5526 67.2936 33.3793 67.0407 33.2571C66.7879 33.1349 66.5038 33.0739 66.1885 33.0739C65.8532 33.0739 65.5606 33.1435 65.3106 33.2827C65.0635 33.419 64.8717 33.6108 64.7353 33.858C64.6018 34.1051 64.5351 34.3949 64.5351 34.7273H63.5294C63.5294 34.2159 63.6473 33.767 63.8831 33.3807C64.1189 32.9943 64.4399 32.6932 64.8461 32.4773C65.2552 32.2614 65.714 32.1534 66.2226 32.1534C66.7339 32.1534 67.187 32.2614 67.5819 32.4773C67.9768 32.6932 68.2865 32.9844 68.5109 33.3509C68.7353 33.7173 68.8476 34.125 68.8476 34.5739C68.8476 34.8949 68.7893 35.2088 68.6728 35.5156C68.5592 35.8196 68.3603 36.1591 68.0762 36.5341C67.795 36.9062 67.4044 37.3608 66.9044 37.8977L64.9441 39.9943V40.0625H69.001V41H63.4953ZM73.7091 32.2727V41H72.6523V33.3807H72.6011L70.4705 34.7955V33.7216L72.6523 32.2727H73.7091ZM83.1211 36.1676V37.1051H79.3029V36.1676H83.1211ZM95.0824 32.2727V41H94.0597L89.304 34.1477H89.2188V41H88.162V32.2727H89.1847L93.9574 39.142H94.0427V32.2727H95.0824ZM99.5999 41.1364C99.0089 41.1364 98.4905 40.9957 98.0445 40.7145C97.6013 40.4332 97.2547 40.0398 97.0047 39.5341C96.7575 39.0284 96.6339 38.4375 96.6339 37.7614C96.6339 37.0795 96.7575 36.4844 97.0047 35.9759C97.2547 35.4673 97.6013 35.0724 98.0445 34.7912C98.4905 34.5099 99.0089 34.3693 99.5999 34.3693C100.191 34.3693 100.708 34.5099 101.151 34.7912C101.597 35.0724 101.944 35.4673 102.191 35.9759C102.441 36.4844 102.566 37.0795 102.566 37.7614C102.566 38.4375 102.441 39.0284 102.191 39.5341C101.944 40.0398 101.597 40.4332 101.151 40.7145C100.708 40.9957 100.191 41.1364 99.5999 41.1364ZM99.5999 40.233C100.049 40.233 100.418 40.1179 100.708 39.8878C100.998 39.6577 101.212 39.3551 101.351 38.9801C101.49 38.6051 101.56 38.1989 101.56 37.7614C101.56 37.3239 101.49 36.9162 101.351 36.5384C101.212 36.1605 100.998 35.8551 100.708 35.6222C100.418 35.3892 100.049 35.2727 99.5999 35.2727C99.151 35.2727 98.7817 35.3892 98.4919 35.6222C98.2021 35.8551 97.9876 36.1605 97.8484 36.5384C97.7092 36.9162 97.6396 37.3239 97.6396 37.7614C97.6396 38.1989 97.7092 38.6051 97.8484 38.9801C97.9876 39.3551 98.2021 39.6577 98.4919 39.8878C98.7817 40.1179 99.151 40.233 99.5999 40.233ZM109.099 34.4545L106.678 41H105.656L103.235 34.4545H104.326L106.133 39.6705H106.201L108.008 34.4545H109.099ZM116.612 32.2727V41H115.556V33.3807H115.504L113.374 34.7955V33.7216L115.556 32.2727H116.612ZM118.798 39.2102V38.3409L122.633 32.2727H123.264V33.6193H122.838L119.94 38.2045V38.2727H125.105V39.2102H118.798ZM122.906 41V38.946V38.5412V32.2727H123.911V41H122.906ZM132.939 31.8636L130.126 42.3125H129.206L132.018 31.8636H132.939ZM137.249 41V40.233L140.13 37.0795C140.468 36.7102 140.746 36.3892 140.965 36.1165C141.184 35.8409 141.345 35.5824 141.451 35.3409C141.559 35.0966 141.613 34.8409 141.613 34.5739C141.613 34.267 141.539 34.0014 141.391 33.777C141.246 33.5526 141.047 33.3793 140.794 33.2571C140.541 33.1349 140.257 33.0739 139.942 33.0739C139.607 33.0739 139.314 33.1435 139.064 33.2827C138.817 33.419 138.625 33.6108 138.489 33.858C138.355 34.1051 138.289 34.3949 138.289 34.7273H137.283C137.283 34.2159 137.401 33.767 137.637 33.3807C137.872 32.9943 138.193 32.6932 138.6 32.4773C139.009 32.2614 139.468 32.1534 139.976 32.1534C140.488 32.1534 140.941 32.2614 141.336 32.4773C141.73 32.6932 142.04 32.9844 142.265 33.3509C142.489 33.7173 142.601 34.125 142.601 34.5739C142.601 34.8949 142.543 35.2088 142.426 35.5156C142.313 35.8196 142.114 36.1591 141.83 36.5341C141.549 36.9062 141.158 37.3608 140.658 37.8977L138.698 39.9943V40.0625H142.755V41H137.249ZM147.463 32.2727V41H146.406V33.3807H146.355L144.224 34.7955V33.7216L146.406 32.2727H147.463Z" fill="#5C697C"/>
<path d="M21.9801 102.818V84.6364H23.1449V102.818H21.9801ZM25.3395 90.4531C25.2732 89.8329 24.9938 89.3499 24.5014 89.0043C24.0137 88.6586 23.3793 88.4858 22.598 88.4858C22.0488 88.4858 21.5777 88.5687 21.1847 88.7344C20.7917 88.9001 20.491 89.125 20.2827 89.4091C20.0743 89.6932 19.9678 90.0175 19.9631 90.3821C19.9631 90.6851 20.0317 90.9479 20.169 91.1705C20.3111 91.393 20.5028 91.5824 20.7443 91.7386C20.9858 91.8902 21.2533 92.018 21.5469 92.1222C21.8404 92.2263 22.1364 92.3139 22.4347 92.3849L23.7983 92.7259C24.3475 92.8537 24.8755 93.0265 25.3821 93.2443C25.8935 93.4621 26.3504 93.7367 26.7528 94.0682C27.16 94.3996 27.482 94.7997 27.7188 95.2685C27.9555 95.7372 28.0739 96.2865 28.0739 96.9162C28.0739 97.7685 27.8561 98.5189 27.4205 99.1676C26.9848 99.8116 26.3551 100.316 25.5312 100.68C24.7121 101.04 23.7202 101.22 22.5554 101.22C21.4238 101.22 20.4413 101.045 19.608 100.695C18.7794 100.344 18.1307 99.8329 17.6619 99.1605C17.1979 98.4882 16.947 97.669 16.9091 96.7031H19.5014C19.5393 97.2098 19.6955 97.6312 19.9702 97.9673C20.2448 98.3035 20.6023 98.5545 21.0426 98.7202C21.4877 98.8859 21.9848 98.9688 22.5341 98.9688C23.107 98.9688 23.6089 98.8835 24.0398 98.7131C24.4754 98.5379 24.8163 98.2964 25.0625 97.9886C25.3087 97.6761 25.4342 97.3116 25.4389 96.8949C25.4342 96.5161 25.3229 96.2036 25.1051 95.9574C24.8873 95.7064 24.5819 95.4981 24.1889 95.3324C23.8007 95.1619 23.3461 95.0104 22.8253 94.8778L21.1705 94.4517C19.9725 94.1439 19.0256 93.6776 18.3295 93.0526C17.6383 92.4228 17.2926 91.5871 17.2926 90.5455C17.2926 89.6884 17.5246 88.938 17.9886 88.294C18.4574 87.6501 19.0942 87.1506 19.8991 86.7955C20.7041 86.4356 21.6155 86.2557 22.6335 86.2557C23.6657 86.2557 24.5701 86.4356 25.3466 86.7955C26.1278 87.1506 26.741 87.6454 27.1861 88.2798C27.6312 88.9096 27.8608 89.634 27.875 90.4531H25.3395ZM35.7971 86.4545V101H33.1621V89.0185H33.0769L29.6749 91.1918V88.777L33.29 86.4545H35.7971ZM44.3104 101.199C43.2877 101.199 42.3786 101.024 41.5832 100.673C40.7924 100.323 40.1674 99.8352 39.7082 99.2102C39.2489 98.5852 39.005 97.8632 38.9766 97.044H41.6471C41.6708 97.437 41.801 97.7803 42.0377 98.0739C42.2745 98.3627 42.5893 98.5876 42.9823 98.7486C43.3753 98.9096 43.8156 98.9901 44.3033 98.9901C44.8242 98.9901 45.2858 98.9001 45.6883 98.7202C46.0907 98.5355 46.4056 98.2798 46.6329 97.9531C46.8602 97.6264 46.9714 97.25 46.9667 96.8239C46.9714 96.3835 46.8578 95.9953 46.6258 95.6591C46.3938 95.3229 46.0576 95.0601 45.6173 94.8707C45.1817 94.6813 44.6561 94.5866 44.0406 94.5866H42.755V92.5554H44.0406C44.5472 92.5554 44.9899 92.4678 45.3687 92.2926C45.7522 92.1174 46.0529 91.8712 46.2707 91.554C46.4885 91.232 46.595 90.8603 46.5903 90.4389C46.595 90.027 46.5027 89.6695 46.3133 89.3665C46.1286 89.0587 45.8658 88.8196 45.5249 88.6491C45.1888 88.4787 44.7934 88.3935 44.3389 88.3935C43.8938 88.3935 43.4818 88.474 43.1031 88.6349C42.7243 88.7959 42.4189 89.0256 42.1869 89.3239C41.9549 89.6174 41.8317 89.9678 41.8175 90.375H39.282C39.301 89.5606 39.5353 88.8456 39.9852 88.2301C40.4397 87.6098 41.0458 87.1269 41.8033 86.7812C42.5609 86.4309 43.4108 86.2557 44.3531 86.2557C45.3237 86.2557 46.1665 86.438 46.8815 86.8026C47.6012 87.1624 48.1575 87.6477 48.5505 88.2585C48.9435 88.8693 49.14 89.544 49.14 90.2827C49.1447 91.1018 48.9032 91.7884 48.4156 92.3423C47.9326 92.8963 47.2981 93.2585 46.5121 93.429V93.5426C47.5349 93.6847 48.3185 94.0634 48.863 94.679C49.4122 95.2898 49.6845 96.0497 49.6798 96.9588C49.6798 97.7732 49.4478 98.5024 48.9837 99.1463C48.5245 99.7855 47.89 100.287 47.0803 100.652C46.2754 101.017 45.3521 101.199 44.3104 101.199ZM51.4548 98.3011V96.206L57.6267 86.4545H59.3739V89.4375H58.3085L54.1537 96.0213V96.1349H62.7687V98.3011H51.4548ZM58.3937 101V97.6619L58.4222 96.7244V86.4545H60.908V101H58.3937ZM67.2746 99.0114L67.1823 99.7926C67.116 100.389 66.9977 100.995 66.8272 101.611C66.6615 102.231 66.4863 102.802 66.3016 103.322C66.117 103.843 65.9678 104.253 65.8542 104.551H64.1212C64.1875 104.262 64.2775 103.869 64.3911 103.372C64.5095 102.875 64.6231 102.316 64.732 101.696C64.8409 101.076 64.9143 100.446 64.9522 99.8068L65.0019 99.0114H67.2746ZM74.5611 86.2557C75.2571 86.2604 75.9342 86.3835 76.5923 86.625C77.2552 86.8617 77.8518 87.25 78.3821 87.7898C78.9124 88.3248 79.3338 89.0421 79.6463 89.9418C79.9588 90.8414 80.1151 91.9541 80.1151 93.2798C80.1198 94.5298 79.9872 95.6473 79.7173 96.6321C79.4522 97.6122 79.071 98.4408 78.5739 99.1179C78.0767 99.795 77.4777 100.311 76.777 100.666C76.0762 101.021 75.2879 101.199 74.4119 101.199C73.4934 101.199 72.679 101.019 71.9688 100.659C71.2633 100.299 70.6927 99.8068 70.2571 99.1818C69.8215 98.5568 69.554 97.8419 69.4545 97.0369H72.0469C72.1795 97.6146 72.4493 98.0739 72.8565 98.4148C73.2685 98.7509 73.7869 98.919 74.4119 98.919C75.4205 98.919 76.197 98.4811 76.7415 97.6051C77.286 96.7292 77.5582 95.5123 77.5582 93.9545H77.4588C77.2268 94.3712 76.9261 94.7311 76.5568 95.0341C76.1875 95.3324 75.7685 95.562 75.2997 95.723C74.8357 95.884 74.3433 95.9645 73.8224 95.9645C72.9702 95.9645 72.2031 95.7609 71.5213 95.3537C70.8442 94.9465 70.3068 94.3878 69.9091 93.6776C69.5161 92.9673 69.3172 92.1553 69.3125 91.2415C69.3125 90.2945 69.5303 89.4446 69.9659 88.6918C70.4063 87.9342 71.0194 87.3376 71.8054 86.902C72.5914 86.4616 73.5099 86.2462 74.5611 86.2557ZM74.5682 88.3864C74.0568 88.3864 73.5952 88.5118 73.1832 88.7628C72.776 89.009 72.4541 89.3452 72.2173 89.7713C71.9853 90.1927 71.8693 90.6638 71.8693 91.1847C71.8741 91.7008 71.9901 92.1695 72.2173 92.5909C72.4493 93.0123 72.7642 93.3461 73.1619 93.5923C73.5644 93.8385 74.0237 93.9616 74.5398 93.9616C74.9233 93.9616 75.2808 93.8883 75.6122 93.7415C75.9437 93.5947 76.2325 93.3911 76.4787 93.1307C76.7296 92.8655 76.9238 92.5649 77.0611 92.2287C77.2031 91.8925 77.2718 91.5374 77.267 91.1634C77.267 90.6662 77.1487 90.2069 76.9119 89.7855C76.6799 89.3641 76.3603 89.0256 75.9531 88.7699C75.5507 88.5142 75.089 88.3864 74.5682 88.3864ZM82.2222 101L88.4082 88.7557V88.6562H81.2278V86.4545H91.1355V88.706L84.9565 101H82.2222ZM98.0917 101.277C96.9222 101.277 95.9184 100.981 95.0803 100.389C94.247 99.7926 93.6054 98.9332 93.1556 97.8111C92.7105 96.6842 92.488 95.3277 92.488 93.7415C92.4927 92.1553 92.7176 90.8059 93.1627 89.6932C93.6125 88.5758 94.2541 87.7235 95.0874 87.1364C95.9255 86.5492 96.9269 86.2557 98.0917 86.2557C99.2565 86.2557 100.258 86.5492 101.096 87.1364C101.934 87.7235 102.576 88.5758 103.021 89.6932C103.47 90.8106 103.695 92.16 103.695 93.7415C103.695 95.3324 103.47 96.6913 103.021 97.8182C102.576 98.9403 101.934 99.7973 101.096 100.389C100.263 100.981 99.2612 101.277 98.0917 101.277ZM98.0917 99.054C99.0008 99.054 99.7181 98.6065 100.244 97.7116C100.774 96.812 101.039 95.4886 101.039 93.7415C101.039 92.5862 100.918 91.6155 100.677 90.8295C100.435 90.0436 100.095 89.4517 99.6542 89.054C99.2138 88.6515 98.693 88.4503 98.0917 88.4503C97.1873 88.4503 96.4724 88.9001 95.9468 89.7997C95.4212 90.6946 95.1561 92.0085 95.1513 93.7415C95.1466 94.9015 95.2626 95.8769 95.4994 96.6676C95.7408 97.4583 96.0817 98.0549 96.5221 98.4574C96.9624 98.8551 97.4856 99.054 98.0917 99.054Z" fill="#191A1D"/>
<path d="M119.078 100.465C119.235 100.465 119.349 100.398 119.422 100.263C119.496 100.129 119.491 99.9958 119.407 99.8644L115.556 93.7192C115.478 93.5962 115.37 93.5346 115.23 93.5346C115.091 93.5346 114.981 93.5962 114.901 93.7192L111.063 99.8644C110.984 99.9958 110.979 100.129 111.051 100.263C111.122 100.398 111.236 100.465 111.392 100.465H119.078Z" fill="#388E3C"/>
<path d="M126.091 92.7727V101.5H125.035V93.8807H124.983L122.853 95.2955V94.2216L125.035 92.7727H126.091ZM128.481 101.5V100.733L131.362 97.5795C131.7 97.2102 131.979 96.8892 132.197 96.6165C132.416 96.3409 132.578 96.0824 132.683 95.8409C132.791 95.5966 132.845 95.3409 132.845 95.0739C132.845 94.767 132.771 94.5014 132.623 94.277C132.479 94.0526 132.28 93.8793 132.027 93.7571C131.774 93.6349 131.49 93.5739 131.175 93.5739C130.839 93.5739 130.547 93.6435 130.297 93.7827C130.05 93.919 129.858 94.1108 129.721 94.358C129.588 94.6051 129.521 94.8949 129.521 95.2273H128.515C128.515 94.7159 128.633 94.267 128.869 93.8807C129.105 93.4943 129.426 93.1932 129.832 92.9773C130.241 92.7614 130.7 92.6534 131.209 92.6534C131.72 92.6534 132.173 92.7614 132.568 92.9773C132.963 93.1932 133.273 93.4844 133.497 93.8509C133.721 94.2173 133.834 94.625 133.834 95.0739C133.834 95.3949 133.775 95.7088 133.659 96.0156C133.545 96.3196 133.346 96.6591 133.062 97.0341C132.781 97.4062 132.39 97.8608 131.89 98.3977L129.93 100.494V100.562H133.987V101.5H128.481ZM140.076 99.8636V99.4034C140.076 99.0852 140.141 98.794 140.272 98.5298C140.405 98.2628 140.599 98.0497 140.851 97.8906C141.107 97.7287 141.417 97.6477 141.78 97.6477C142.15 97.6477 142.459 97.7287 142.709 97.8906C142.959 98.0497 143.148 98.2628 143.276 98.5298C143.404 98.794 143.468 99.0852 143.468 99.4034V99.8636C143.468 100.182 143.403 100.474 143.272 100.741C143.144 101.006 142.954 101.219 142.701 101.381C142.451 101.54 142.144 101.619 141.78 101.619C141.411 101.619 141.1 101.54 140.847 101.381C140.594 101.219 140.403 101.006 140.272 100.741C140.141 100.474 140.076 100.182 140.076 99.8636ZM140.945 99.4034V99.8636C140.945 100.128 141.008 100.365 141.133 100.575C141.258 100.783 141.474 100.886 141.78 100.886C142.079 100.886 142.289 100.783 142.411 100.575C142.536 100.365 142.599 100.128 142.599 99.8636V99.4034C142.599 99.1392 142.539 98.9034 142.42 98.696C142.3 98.4858 142.087 98.3807 141.78 98.3807C141.482 98.3807 141.268 98.4858 141.137 98.696C141.009 98.9034 140.945 99.1392 140.945 99.4034ZM135.729 94.8693V94.4091C135.729 94.0909 135.795 93.7997 135.925 93.5355C136.059 93.2685 136.252 93.0554 136.505 92.8963C136.761 92.7344 137.07 92.6534 137.434 92.6534C137.803 92.6534 138.113 92.7344 138.363 92.8963C138.613 93.0554 138.802 93.2685 138.93 93.5355C139.057 93.7997 139.121 94.0909 139.121 94.4091V94.8693C139.121 95.1875 139.056 95.4801 138.925 95.7472C138.797 96.0114 138.607 96.2244 138.354 96.3864C138.104 96.5455 137.797 96.625 137.434 96.625C137.064 96.625 136.753 96.5455 136.501 96.3864C136.248 96.2244 136.056 96.0114 135.925 95.7472C135.795 95.4801 135.729 95.1875 135.729 94.8693ZM136.599 94.4091V94.8693C136.599 95.1335 136.661 95.3707 136.786 95.581C136.911 95.7884 137.127 95.892 137.434 95.892C137.732 95.892 137.942 95.7884 138.064 95.581C138.189 95.3707 138.252 95.1335 138.252 94.8693V94.4091C138.252 94.1449 138.192 93.9091 138.073 93.7017C137.954 93.4915 137.741 93.3864 137.434 93.3864C137.136 93.3864 136.921 93.4915 136.79 93.7017C136.662 93.9091 136.599 94.1449 136.599 94.4091ZM136.053 101.5L142.053 92.7727H143.025L137.025 101.5H136.053Z" fill="#388E3C"/>
<path d="M19.4773 121.091V110.182H20.1761V121.091H19.4773ZM21.8295 113.455C21.7784 113.023 21.571 112.688 21.2074 112.449C20.8438 112.21 20.3977 112.091 19.8693 112.091C19.483 112.091 19.1449 112.153 18.8551 112.278C18.5682 112.403 18.3438 112.575 18.1818 112.794C18.0227 113.013 17.9432 113.261 17.9432 113.54C17.9432 113.773 17.9986 113.973 18.1094 114.141C18.223 114.305 18.3679 114.443 18.544 114.554C18.7202 114.662 18.9048 114.751 19.098 114.822C19.2912 114.891 19.4688 114.946 19.6307 114.989L20.517 115.227C20.7443 115.287 20.9972 115.369 21.2756 115.474C21.5568 115.58 21.8253 115.723 22.081 115.905C22.3395 116.084 22.5526 116.314 22.7202 116.595C22.8878 116.876 22.9716 117.222 22.9716 117.631C22.9716 118.102 22.848 118.528 22.6009 118.909C22.3565 119.29 21.9986 119.592 21.527 119.817C21.0582 120.041 20.4886 120.153 19.8182 120.153C19.1932 120.153 18.652 120.053 18.1946 119.851C17.7401 119.649 17.3821 119.368 17.1207 119.007C16.8622 118.646 16.7159 118.227 16.6818 117.75H17.7727C17.8011 118.08 17.9119 118.352 18.1051 118.568C18.3011 118.781 18.5483 118.94 18.8466 119.045C19.1477 119.148 19.4716 119.199 19.8182 119.199C20.2216 119.199 20.5838 119.134 20.9048 119.003C21.2259 118.869 21.4801 118.685 21.6676 118.449C21.8551 118.21 21.9489 117.932 21.9489 117.614C21.9489 117.324 21.8679 117.088 21.706 116.906C21.544 116.724 21.331 116.577 21.0668 116.463C20.8026 116.349 20.517 116.25 20.2102 116.165L19.1364 115.858C18.4545 115.662 17.9148 115.382 17.517 115.018C17.1193 114.655 16.9205 114.179 16.9205 113.591C16.9205 113.102 17.0526 112.676 17.3168 112.312C17.5838 111.946 17.9418 111.662 18.3906 111.46C18.8423 111.256 19.3466 111.153 19.9034 111.153C20.4659 111.153 20.9659 111.254 21.4034 111.456C21.8409 111.655 22.1875 111.928 22.4432 112.274C22.7017 112.621 22.8381 113.014 22.8523 113.455H21.8295ZM27.3846 120.119C26.8221 120.119 26.3207 120.023 25.8804 119.83C25.4429 119.636 25.0948 119.368 24.8363 119.024C24.5806 118.678 24.4414 118.276 24.4187 117.818H25.4926C25.5153 118.099 25.6119 118.342 25.7823 118.547C25.9528 118.749 26.1758 118.905 26.4514 119.016C26.7269 119.126 27.0323 119.182 27.3676 119.182C27.7426 119.182 28.075 119.116 28.3647 118.986C28.6545 118.855 28.8818 118.673 29.0465 118.44C29.2113 118.207 29.2937 117.938 29.2937 117.631C29.2937 117.31 29.2142 117.027 29.0551 116.783C28.896 116.536 28.663 116.342 28.3562 116.203C28.0494 116.064 27.6744 115.994 27.2312 115.994H26.5323V115.057H27.2312C27.5778 115.057 27.8818 114.994 28.1431 114.869C28.4073 114.744 28.6133 114.568 28.761 114.341C28.9116 114.114 28.9869 113.847 28.9869 113.54C28.9869 113.244 28.9215 112.987 28.7909 112.768C28.6602 112.55 28.4755 112.379 28.2369 112.257C28.0011 112.135 27.7227 112.074 27.4017 112.074C27.1005 112.074 26.8164 112.129 26.5494 112.24C26.2852 112.348 26.0693 112.506 25.9017 112.713C25.734 112.918 25.6431 113.165 25.6289 113.455H24.6062C24.6233 112.997 24.761 112.597 25.0196 112.253C25.2781 111.906 25.6162 111.636 26.0338 111.443C26.4542 111.25 26.9159 111.153 27.4187 111.153C27.9585 111.153 28.4215 111.263 28.8079 111.482C29.1943 111.697 29.4912 111.983 29.6985 112.338C29.9059 112.693 30.0096 113.077 30.0096 113.489C30.0096 113.98 29.8804 114.399 29.6218 114.746C29.3662 115.092 29.0181 115.332 28.5778 115.466V115.534C29.1289 115.625 29.5593 115.859 29.869 116.237C30.1787 116.612 30.3335 117.077 30.3335 117.631C30.3335 118.105 30.2042 118.531 29.9457 118.909C29.69 119.284 29.3406 119.58 28.8974 119.795C28.4542 120.011 27.95 120.119 27.3846 120.119ZM34.803 120.119C34.1609 120.119 33.614 119.945 33.1623 119.595C32.7106 119.243 32.3655 118.733 32.1268 118.065C31.8882 117.395 31.7689 116.585 31.7689 115.636C31.7689 114.693 31.8882 113.888 32.1268 113.22C32.3683 112.55 32.7149 112.038 33.1666 111.686C33.6212 111.331 34.1666 111.153 34.803 111.153C35.4393 111.153 35.9834 111.331 36.4351 111.686C36.8896 112.038 37.2362 112.55 37.4748 113.22C37.7163 113.888 37.8371 114.693 37.8371 115.636C37.8371 116.585 37.7177 117.395 37.4791 118.065C37.2405 118.733 36.8953 119.243 36.4436 119.595C35.9919 119.945 35.445 120.119 34.803 120.119ZM34.803 119.182C35.4393 119.182 35.9337 118.875 36.2859 118.261C36.6382 117.648 36.8143 116.773 36.8143 115.636C36.8143 114.881 36.7334 114.237 36.5714 113.706C36.4123 113.175 36.1822 112.77 35.8811 112.491C35.5828 112.213 35.2234 112.074 34.803 112.074C34.1723 112.074 33.6794 112.385 33.3243 113.007C32.9692 113.626 32.7916 114.503 32.7916 115.636C32.7916 116.392 32.8712 117.034 33.0302 117.562C33.1893 118.091 33.418 118.493 33.7163 118.768C34.0175 119.044 34.3797 119.182 34.803 119.182ZM40.5487 118.807L40.4806 119.267C40.4323 119.591 40.3584 119.938 40.259 120.307C40.1624 120.676 40.0615 121.024 39.9564 121.351C39.8513 121.678 39.7646 121.938 39.6965 122.131H38.9294C38.9663 121.949 39.0146 121.709 39.0743 121.411C39.134 121.112 39.1936 120.778 39.2533 120.409C39.3158 120.043 39.3669 119.668 39.4067 119.284L39.4578 118.807H40.5487ZM42.0704 118.21V117.341L45.9057 111.273H46.5363V112.619H46.1102L43.2125 117.205V117.273H48.3772V118.21H42.0704ZM46.1784 120V117.946V117.541V111.273H47.1841V120H46.1784ZM52.5815 120.119C52.0815 120.119 51.6312 120.02 51.2306 119.821C50.83 119.622 50.509 119.349 50.2675 119.003C50.0261 118.656 49.894 118.261 49.8712 117.818H50.894C50.9337 118.213 51.1127 118.54 51.4309 118.798C51.7519 119.054 52.1354 119.182 52.5815 119.182C52.9394 119.182 53.2576 119.098 53.536 118.93C53.8173 118.763 54.0374 118.533 54.1965 118.24C54.3585 117.945 54.4394 117.611 54.4394 117.239C54.4394 116.858 54.3556 116.518 54.188 116.22C54.0232 115.919 53.796 115.682 53.5062 115.509C53.2164 115.335 52.8854 115.247 52.5133 115.244C52.2462 115.241 51.9721 115.283 51.6908 115.368C51.4096 115.45 51.1781 115.557 50.9962 115.688L50.0076 115.568L50.536 111.273H55.0701V112.21H51.4224L51.1156 114.784H51.1667C51.3457 114.642 51.5701 114.524 51.84 114.43C52.1099 114.337 52.3911 114.29 52.6837 114.29C53.2178 114.29 53.6937 114.418 54.1113 114.673C54.5317 114.926 54.8613 115.273 55.0999 115.713C55.3414 116.153 55.4621 116.656 55.4621 117.222C55.4621 117.778 55.3371 118.276 55.0871 118.713C54.84 119.148 54.4991 119.491 54.0644 119.744C53.6298 119.994 53.1354 120.119 52.5815 120.119ZM60.1032 111.273V120H59.0463V112.381H58.9952L56.8645 113.795V112.722L59.0463 111.273H60.1032ZM68.6117 113.455V114.307H65.2197V113.455H68.6117ZM66.2083 111.886H67.214V118.125C67.214 118.409 67.2552 118.622 67.3376 118.764C67.4228 118.903 67.5308 118.997 67.6614 119.045C67.795 119.091 67.9356 119.114 68.0833 119.114C68.1941 119.114 68.285 119.108 68.3561 119.097C68.4271 119.082 68.4839 119.071 68.5265 119.062L68.7311 119.966C68.6629 119.991 68.5677 120.017 68.4455 120.043C68.3234 120.071 68.1686 120.085 67.9811 120.085C67.697 120.085 67.4186 120.024 67.1458 119.902C66.8759 119.78 66.6515 119.594 66.4725 119.344C66.2964 119.094 66.2083 118.778 66.2083 118.398V111.886ZM72.5933 120.136C72.0024 120.136 71.4839 119.996 71.0379 119.714C70.5947 119.433 70.2481 119.04 69.9981 118.534C69.751 118.028 69.6274 117.437 69.6274 116.761C69.6274 116.08 69.751 115.484 69.9981 114.976C70.2481 114.467 70.5947 114.072 71.0379 113.791C71.4839 113.51 72.0024 113.369 72.5933 113.369C73.1842 113.369 73.7012 113.51 74.1444 113.791C74.5905 114.072 74.937 114.467 75.1842 114.976C75.4342 115.484 75.5592 116.08 75.5592 116.761C75.5592 117.437 75.4342 118.028 75.1842 118.534C74.937 119.04 74.5905 119.433 74.1444 119.714C73.7012 119.996 73.1842 120.136 72.5933 120.136ZM72.5933 119.233C73.0422 119.233 73.4115 119.118 73.7012 118.888C73.991 118.658 74.2055 118.355 74.3447 117.98C74.4839 117.605 74.5535 117.199 74.5535 116.761C74.5535 116.324 74.4839 115.916 74.3447 115.538C74.2055 115.161 73.991 114.855 73.7012 114.622C73.4115 114.389 73.0422 114.273 72.5933 114.273C72.1444 114.273 71.7751 114.389 71.4853 114.622C71.1956 114.855 70.9811 115.161 70.8419 115.538C70.7027 115.916 70.6331 116.324 70.6331 116.761C70.6331 117.199 70.7027 117.605 70.8419 117.98C70.9811 118.355 71.1956 118.658 71.4853 118.888C71.7751 119.118 72.1444 119.233 72.5933 119.233ZM79.446 120.136C78.9005 120.136 78.419 119.999 78.0013 119.723C77.5837 119.445 77.257 119.053 77.0212 118.547C76.7854 118.038 76.6675 117.438 76.6675 116.744C76.6675 116.057 76.7854 115.46 77.0212 114.955C77.257 114.449 77.5852 114.058 78.0056 113.783C78.4261 113.507 78.9119 113.369 79.463 113.369C79.8891 113.369 80.2258 113.44 80.4729 113.582C80.7229 113.722 80.9133 113.881 81.044 114.06C81.1775 114.236 81.2812 114.381 81.355 114.494H81.4403V111.273H82.446V120H81.4744V118.994H81.355C81.2812 119.114 81.1761 119.264 81.0397 119.446C80.9033 119.625 80.7087 119.786 80.4559 119.928C80.2031 120.067 79.8664 120.136 79.446 120.136ZM79.5823 119.233C79.9857 119.233 80.3266 119.128 80.605 118.918C80.8835 118.705 81.0951 118.411 81.24 118.036C81.3849 117.658 81.4573 117.222 81.4573 116.727C81.4573 116.239 81.3863 115.811 81.2442 115.445C81.1022 115.075 80.892 114.788 80.6136 114.584C80.3352 114.376 79.9914 114.273 79.5823 114.273C79.1562 114.273 78.8011 114.382 78.517 114.601C78.2357 114.817 78.0241 115.111 77.882 115.483C77.7428 115.852 77.6732 116.267 77.6732 116.727C77.6732 117.193 77.7442 117.616 77.8863 117.997C78.0312 118.375 78.2442 118.676 78.5255 118.901C78.8096 119.122 79.1619 119.233 79.5823 119.233ZM86.2336 120.153C85.8188 120.153 85.4424 120.075 85.1044 119.919C84.7663 119.76 84.4978 119.531 84.299 119.233C84.1001 118.932 84.0007 118.568 84.0007 118.142C84.0007 117.767 84.0745 117.463 84.2223 117.23C84.37 116.994 84.5674 116.81 84.8146 116.676C85.0617 116.543 85.3345 116.443 85.6328 116.378C85.9339 116.31 86.2365 116.256 86.5404 116.216C86.9382 116.165 87.2606 116.126 87.5078 116.101C87.7578 116.072 87.9396 116.026 88.0532 115.96C88.1697 115.895 88.2279 115.781 88.2279 115.619V115.585C88.2279 115.165 88.1129 114.838 87.8828 114.605C87.6555 114.372 87.3103 114.256 86.8473 114.256C86.3671 114.256 85.9907 114.361 85.718 114.571C85.4453 114.781 85.2535 115.006 85.1427 115.244L84.1882 114.903C84.3586 114.506 84.5859 114.196 84.87 113.974C85.1569 113.75 85.4694 113.594 85.8075 113.506C86.1484 113.415 86.4836 113.369 86.8132 113.369C87.0234 113.369 87.2649 113.395 87.5376 113.446C87.8132 113.494 88.0788 113.595 88.3345 113.749C88.593 113.902 88.8075 114.134 88.9779 114.443C89.1484 114.753 89.2336 115.168 89.2336 115.688V120H88.2279V119.114H88.1768C88.1086 119.256 87.995 119.408 87.8359 119.57C87.6768 119.732 87.4652 119.869 87.201 119.983C86.9367 120.097 86.6143 120.153 86.2336 120.153ZM86.387 119.25C86.7848 119.25 87.12 119.172 87.3927 119.016C87.6683 118.859 87.8757 118.658 88.0149 118.411C88.1569 118.163 88.2279 117.903 88.2279 117.631V116.71C88.1853 116.761 88.0916 116.808 87.9467 116.851C87.8046 116.891 87.6399 116.926 87.4524 116.957C87.2677 116.986 87.0873 117.011 86.9112 117.034C86.7379 117.054 86.5973 117.071 86.4893 117.085C86.2279 117.119 85.9836 117.175 85.7563 117.251C85.5319 117.325 85.3501 117.437 85.2109 117.588C85.0745 117.736 85.0063 117.937 85.0063 118.193C85.0063 118.543 85.1356 118.807 85.3941 118.986C85.6555 119.162 85.9865 119.25 86.387 119.25ZM91.3626 122.455C91.1921 122.455 91.0401 122.44 90.9066 122.412C90.7731 122.386 90.6807 122.361 90.6296 122.335L90.8853 121.449C91.1296 121.511 91.3455 121.534 91.533 121.517C91.7205 121.5 91.8867 121.416 92.0316 121.266C92.1793 121.118 92.3143 120.878 92.4364 120.545L92.6239 120.034L90.2035 113.455H91.2944L93.1012 118.67H93.1694L94.9762 113.455H96.0671L93.2887 120.955C93.1637 121.293 93.0089 121.572 92.8242 121.794C92.6395 122.018 92.4251 122.185 92.1807 122.293C91.9393 122.401 91.6665 122.455 91.3626 122.455Z" fill="#5C697C"/>
<path d="M225.08 17H224.023C223.96 16.696 223.851 16.429 223.695 16.1989C223.541 15.9688 223.354 15.7756 223.132 15.6193C222.913 15.4602 222.67 15.3409 222.403 15.2614C222.136 15.1818 221.858 15.142 221.568 15.142C221.04 15.142 220.561 15.2756 220.132 15.5426C219.706 15.8097 219.366 16.2031 219.114 16.723C218.864 17.2429 218.739 17.8807 218.739 18.6364C218.739 19.392 218.864 20.0298 219.114 20.5497C219.366 21.0696 219.706 21.4631 220.132 21.7301C220.561 21.9972 221.04 22.1307 221.568 22.1307C221.858 22.1307 222.136 22.0909 222.403 22.0114C222.67 21.9318 222.913 21.8139 223.132 21.6577C223.354 21.4986 223.541 21.304 223.695 21.0739C223.851 20.8409 223.96 20.5739 224.023 20.2727H225.08C225 20.7187 224.855 21.1179 224.645 21.4702C224.435 21.8224 224.173 22.1222 223.861 22.3693C223.548 22.6136 223.197 22.7997 222.808 22.9276C222.422 23.0554 222.009 23.1193 221.568 23.1193C220.824 23.1193 220.162 22.9375 219.582 22.5739C219.003 22.2102 218.547 21.6932 218.214 21.0227C217.882 20.3523 217.716 19.5568 217.716 18.6364C217.716 17.7159 217.882 16.9205 218.214 16.25C218.547 15.5795 219.003 15.0625 219.582 14.6989C220.162 14.3352 220.824 14.1534 221.568 14.1534C222.009 14.1534 222.422 14.2173 222.808 14.3452C223.197 14.473 223.548 14.6605 223.861 14.9077C224.173 15.152 224.435 15.4503 224.645 15.8026C224.855 16.152 225 16.5511 225.08 17ZM227.537 19.0625V23H226.531V14.2727H227.537V17.4773H227.622C227.775 17.1392 228.005 16.8707 228.312 16.6719C228.622 16.4702 229.034 16.3693 229.548 16.3693C229.994 16.3693 230.385 16.4588 230.72 16.6378C231.055 16.8139 231.315 17.0852 231.5 17.4517C231.687 17.8153 231.781 18.2784 231.781 18.8409V23H230.775V18.9091C230.775 18.3892 230.64 17.9872 230.37 17.7031C230.103 17.4162 229.733 17.2727 229.258 17.2727C228.929 17.2727 228.633 17.3423 228.372 17.4815C228.113 17.6207 227.909 17.8239 227.758 18.0909C227.61 18.358 227.537 18.6818 227.537 19.0625ZM235.427 23.1534C235.012 23.1534 234.636 23.0753 234.298 22.919C233.96 22.7599 233.691 22.5312 233.492 22.233C233.293 21.9318 233.194 21.5682 233.194 21.142C233.194 20.767 233.268 20.4631 233.416 20.2301C233.563 19.9943 233.761 19.8097 234.008 19.6761C234.255 19.5426 234.528 19.4432 234.826 19.3778C235.127 19.3097 235.43 19.2557 235.734 19.2159C236.131 19.1648 236.454 19.1264 236.701 19.1009C236.951 19.0724 237.133 19.0256 237.247 18.9602C237.363 18.8949 237.421 18.7812 237.421 18.6193V18.5852C237.421 18.1648 237.306 17.8381 237.076 17.6051C236.849 17.3722 236.504 17.2557 236.041 17.2557C235.56 17.2557 235.184 17.3608 234.911 17.571C234.639 17.7812 234.447 18.0057 234.336 18.2443L233.381 17.9034C233.552 17.5057 233.779 17.196 234.063 16.9744C234.35 16.75 234.663 16.5937 235.001 16.5057C235.342 16.4148 235.677 16.3693 236.006 16.3693C236.217 16.3693 236.458 16.3949 236.731 16.446C237.006 16.4943 237.272 16.5952 237.528 16.7486C237.786 16.902 238.001 17.1335 238.171 17.4432C238.342 17.7528 238.427 18.1676 238.427 18.6875V23H237.421V22.1136H237.37C237.302 22.2557 237.188 22.4077 237.029 22.5696C236.87 22.7315 236.658 22.8693 236.394 22.983C236.13 23.0966 235.808 23.1534 235.427 23.1534ZM235.58 22.25C235.978 22.25 236.313 22.1719 236.586 22.0156C236.862 21.8594 237.069 21.6577 237.208 21.4105C237.35 21.1634 237.421 20.9034 237.421 20.6307V19.7102C237.379 19.7614 237.285 19.8082 237.14 19.8509C236.998 19.8906 236.833 19.9261 236.646 19.9574C236.461 19.9858 236.281 20.0114 236.104 20.0341C235.931 20.054 235.791 20.071 235.683 20.0852C235.421 20.1193 235.177 20.1747 234.95 20.2514C234.725 20.3253 234.543 20.4375 234.404 20.5881C234.268 20.7358 234.2 20.9375 234.2 21.1932C234.2 21.5426 234.329 21.8068 234.587 21.9858C234.849 22.1619 235.18 22.25 235.58 22.25ZM241.148 19.0625V23H240.142V16.4545H241.114V17.4773H241.199C241.353 17.1449 241.586 16.8778 241.898 16.6761C242.211 16.4716 242.614 16.3693 243.108 16.3693C243.552 16.3693 243.939 16.4602 244.272 16.642C244.604 16.821 244.863 17.0938 245.047 17.4602C245.232 17.8239 245.324 18.2841 245.324 18.8409V23H244.319V18.9091C244.319 18.3949 244.185 17.9943 243.918 17.7074C243.651 17.4176 243.285 17.2727 242.819 17.2727C242.498 17.2727 242.211 17.3423 241.958 17.4815C241.708 17.6207 241.51 17.8239 241.365 18.0909C241.221 18.358 241.148 18.6818 241.148 19.0625ZM248.048 19.0625V23H247.042V16.4545H248.014V17.4773H248.099C248.252 17.1449 248.485 16.8778 248.798 16.6761C249.11 16.4716 249.514 16.3693 250.008 16.3693C250.451 16.3693 250.839 16.4602 251.171 16.642C251.504 16.821 251.762 17.0938 251.947 17.4602C252.132 17.8239 252.224 18.2841 252.224 18.8409V23H251.218V18.9091C251.218 18.3949 251.085 17.9943 250.818 17.7074C250.551 17.4176 250.184 17.2727 249.718 17.2727C249.397 17.2727 249.11 17.3423 248.857 17.4815C248.607 17.6207 248.41 17.8239 248.265 18.0909C248.12 18.358 248.048 18.6818 248.048 19.0625ZM256.686 23.1364C256.055 23.1364 255.511 22.9972 255.054 22.7188C254.599 22.4375 254.248 22.0455 254.001 21.5426C253.757 21.0369 253.635 20.4489 253.635 19.7784C253.635 19.108 253.757 18.517 254.001 18.0057C254.248 17.4915 254.592 17.0909 255.032 16.804C255.476 16.5142 255.993 16.3693 256.584 16.3693C256.925 16.3693 257.261 16.4261 257.594 16.5398C257.926 16.6534 258.228 16.8381 258.501 17.0938C258.774 17.3466 258.991 17.6818 259.153 18.0994C259.315 18.517 259.396 19.0312 259.396 19.642V20.0682H254.351V19.1989H258.373C258.373 18.8295 258.3 18.5 258.152 18.2102C258.007 17.9205 257.8 17.6918 257.53 17.5241C257.263 17.3565 256.947 17.2727 256.584 17.2727C256.183 17.2727 255.836 17.3722 255.544 17.571C255.254 17.767 255.031 18.0227 254.875 18.3381C254.719 18.6534 254.64 18.9915 254.64 19.3523V19.9318C254.64 20.4261 254.726 20.8452 254.896 21.1889C255.069 21.5298 255.309 21.7898 255.616 21.9688C255.923 22.1449 256.28 22.233 256.686 22.233C256.95 22.233 257.189 22.196 257.402 22.1222C257.618 22.0455 257.804 21.9318 257.96 21.7812C258.116 21.6278 258.237 21.4375 258.322 21.2102L259.294 21.483C259.192 21.8125 259.02 22.1023 258.778 22.3523C258.537 22.5994 258.238 22.7926 257.883 22.9318C257.528 23.0682 257.129 23.1364 256.686 23.1364ZM261.812 14.2727V23H260.806V14.2727H261.812ZM267.283 23H266.175L269.379 14.2727H270.47L273.675 23H272.567L269.959 15.6534H269.891L267.283 23ZM267.692 19.5909H272.158V20.5284H267.692V19.5909Z" fill="#191A1D"/>
<path d="M339.462 23.1193C338.962 23.1193 338.512 23.0199 338.111 22.821C337.711 22.6222 337.39 22.3494 337.148 22.0028C336.907 21.6562 336.775 21.2614 336.752 20.8182H337.775C337.815 21.2131 337.993 21.5398 338.312 21.7983C338.633 22.054 339.016 22.1818 339.462 22.1818C339.82 22.1818 340.138 22.098 340.417 21.9304C340.698 21.7628 340.918 21.5327 341.077 21.2401C341.239 20.9446 341.32 20.6108 341.32 20.2386C341.32 19.858 341.236 19.5185 341.069 19.2202C340.904 18.919 340.677 18.6818 340.387 18.5085C340.097 18.3352 339.766 18.2472 339.394 18.2443C339.127 18.2415 338.853 18.2827 338.572 18.3679C338.29 18.4503 338.059 18.5568 337.877 18.6875L336.888 18.5682L337.417 14.2727H341.951V15.2102H338.303L337.996 17.7841H338.047C338.226 17.642 338.451 17.5241 338.721 17.4304C338.991 17.3366 339.272 17.2898 339.565 17.2898C340.099 17.2898 340.574 17.4176 340.992 17.6733C341.413 17.9261 341.742 18.2727 341.981 18.7131C342.222 19.1534 342.343 19.6562 342.343 20.2216C342.343 20.7784 342.218 21.2756 341.968 21.7131C341.721 22.1477 341.38 22.4915 340.945 22.7443C340.511 22.9943 340.016 23.1193 339.462 23.1193ZM345.105 21.8068L345.036 22.267C344.988 22.5909 344.914 22.9375 344.815 23.3068C344.718 23.6761 344.617 24.0241 344.512 24.3509C344.407 24.6776 344.321 24.9375 344.252 25.1307H343.485C343.522 24.9489 343.571 24.7088 343.63 24.4105C343.69 24.1122 343.75 23.7784 343.809 23.4091C343.872 23.0426 343.923 22.6676 343.963 22.2841L344.014 21.8068H345.105ZM349.452 23.1193C348.889 23.1193 348.388 23.0227 347.947 22.8295C347.51 22.6364 347.162 22.3679 346.903 22.0241C346.648 21.6776 346.508 21.2756 346.486 20.8182H347.56C347.582 21.0994 347.679 21.3423 347.849 21.5469C348.02 21.7486 348.243 21.9048 348.518 22.0156C348.794 22.1264 349.099 22.1818 349.435 22.1818C349.81 22.1818 350.142 22.1165 350.432 21.9858C350.722 21.8551 350.949 21.6733 351.114 21.4403C351.278 21.2074 351.361 20.9375 351.361 20.6307C351.361 20.3097 351.281 20.027 351.122 19.7827C350.963 19.5355 350.73 19.3423 350.423 19.2031C350.116 19.0639 349.741 18.9943 349.298 18.9943H348.599V18.0568H349.298C349.645 18.0568 349.949 17.9943 350.21 17.8693C350.474 17.7443 350.68 17.5682 350.828 17.3409C350.979 17.1136 351.054 16.8466 351.054 16.5398C351.054 16.2443 350.989 15.9872 350.858 15.7685C350.727 15.5497 350.543 15.3793 350.304 15.2571C350.068 15.1349 349.79 15.0739 349.469 15.0739C349.168 15.0739 348.883 15.1293 348.616 15.2401C348.352 15.348 348.136 15.5057 347.969 15.7131C347.801 15.9176 347.71 16.1648 347.696 16.4545H346.673C346.69 15.9972 346.828 15.5966 347.087 15.2528C347.345 14.9062 347.683 14.6364 348.101 14.4432C348.521 14.25 348.983 14.1534 349.486 14.1534C350.026 14.1534 350.489 14.2628 350.875 14.4815C351.261 14.6974 351.558 14.983 351.766 15.3381C351.973 15.6932 352.077 16.0767 352.077 16.4886C352.077 16.9801 351.947 17.3991 351.689 17.7457C351.433 18.0923 351.085 18.3324 350.645 18.4659V18.5341C351.196 18.625 351.626 18.8594 351.936 19.2372C352.246 19.6122 352.401 20.0767 352.401 20.6307C352.401 21.1051 352.271 21.5312 352.013 21.9091C351.757 22.2841 351.408 22.5795 350.964 22.7955C350.521 23.0114 350.017 23.1193 349.452 23.1193ZM356.87 23.1193C356.228 23.1193 355.681 22.9446 355.229 22.5952C354.778 22.2429 354.432 21.733 354.194 21.0653C353.955 20.3949 353.836 19.5852 353.836 18.6364C353.836 17.6932 353.955 16.8878 354.194 16.2202C354.435 15.5497 354.782 15.0384 355.234 14.6861C355.688 14.331 356.234 14.1534 356.87 14.1534C357.506 14.1534 358.05 14.331 358.502 14.6861C358.957 15.0384 359.303 15.5497 359.542 16.2202C359.783 16.8878 359.904 17.6932 359.904 18.6364C359.904 19.5852 359.785 20.3949 359.546 21.0653C359.307 21.733 358.962 22.2429 358.511 22.5952C358.059 22.9446 357.512 23.1193 356.87 23.1193ZM356.87 22.1818C357.506 22.1818 358.001 21.875 358.353 21.2614C358.705 20.6477 358.881 19.7727 358.881 18.6364C358.881 17.8807 358.8 17.2372 358.638 16.706C358.479 16.1747 358.249 15.7699 357.948 15.4915C357.65 15.2131 357.29 15.0739 356.87 15.0739C356.239 15.0739 355.746 15.3849 355.391 16.0071C355.036 16.6264 354.859 17.5028 354.859 18.6364C354.859 19.392 354.938 20.0341 355.097 20.5625C355.256 21.0909 355.485 21.4929 355.783 21.7685C356.084 22.044 356.447 22.1818 356.87 22.1818ZM364.25 23.1193C363.608 23.1193 363.061 22.9446 362.609 22.5952C362.158 22.2429 361.813 21.733 361.574 21.0653C361.335 20.3949 361.216 19.5852 361.216 18.6364C361.216 17.6932 361.335 16.8878 361.574 16.2202C361.815 15.5497 362.162 15.0384 362.614 14.6861C363.068 14.331 363.614 14.1534 364.25 14.1534C364.886 14.1534 365.43 14.331 365.882 14.6861C366.337 15.0384 366.683 15.5497 366.922 16.2202C367.163 16.8878 367.284 17.6932 367.284 18.6364C367.284 19.5852 367.165 20.3949 366.926 21.0653C366.688 21.733 366.342 22.2429 365.891 22.5952C365.439 22.9446 364.892 23.1193 364.25 23.1193ZM364.25 22.1818C364.886 22.1818 365.381 21.875 365.733 21.2614C366.085 20.6477 366.261 19.7727 366.261 18.6364C366.261 17.8807 366.18 17.2372 366.018 16.706C365.859 16.1747 365.629 15.7699 365.328 15.4915C365.03 15.2131 364.67 15.0739 364.25 15.0739C363.619 15.0739 363.126 15.3849 362.771 16.0071C362.416 16.6264 362.239 17.5028 362.239 18.6364C362.239 19.392 362.318 20.0341 362.477 20.5625C362.636 21.0909 362.865 21.4929 363.163 21.7685C363.464 22.044 363.827 22.1818 364.25 22.1818Z" fill="#191A1D"/>
<line x1="217" y1="33.5" x2="367" y2="33.5" stroke="#E3E7EB"/>
<path d="M225.08 48H224.023C223.96 47.696 223.851 47.429 223.695 47.1989C223.541 46.9688 223.354 46.7756 223.132 46.6193C222.913 46.4602 222.67 46.3409 222.403 46.2614C222.136 46.1818 221.858 46.142 221.568 46.142C221.04 46.142 220.561 46.2756 220.132 46.5426C219.706 46.8097 219.366 47.2031 219.114 47.723C218.864 48.2429 218.739 48.8807 218.739 49.6364C218.739 50.392 218.864 51.0298 219.114 51.5497C219.366 52.0696 219.706 52.4631 220.132 52.7301C220.561 52.9972 221.04 53.1307 221.568 53.1307C221.858 53.1307 222.136 53.0909 222.403 53.0114C222.67 52.9318 222.913 52.8139 223.132 52.6577C223.354 52.4986 223.541 52.304 223.695 52.0739C223.851 51.8409 223.96 51.5739 224.023 51.2727H225.08C225 51.7187 224.855 52.1179 224.645 52.4702C224.435 52.8224 224.173 53.1222 223.861 53.3693C223.548 53.6136 223.197 53.7997 222.808 53.9276C222.422 54.0554 222.009 54.1193 221.568 54.1193C220.824 54.1193 220.162 53.9375 219.582 53.5739C219.003 53.2102 218.547 52.6932 218.214 52.0227C217.882 51.3523 217.716 50.5568 217.716 49.6364C217.716 48.7159 217.882 47.9205 218.214 47.25C218.547 46.5795 219.003 46.0625 219.582 45.6989C220.162 45.3352 220.824 45.1534 221.568 45.1534C222.009 45.1534 222.422 45.2173 222.808 45.3452C223.197 45.473 223.548 45.6605 223.861 45.9077C224.173 46.152 224.435 46.4503 224.645 46.8026C224.855 47.152 225 47.5511 225.08 48ZM227.537 50.0625V54H226.531V45.2727H227.537V48.4773H227.622C227.775 48.1392 228.005 47.8707 228.312 47.6719C228.622 47.4702 229.034 47.3693 229.548 47.3693C229.994 47.3693 230.385 47.4588 230.72 47.6378C231.055 47.8139 231.315 48.0852 231.5 48.4517C231.687 48.8153 231.781 49.2784 231.781 49.8409V54H230.775V49.9091C230.775 49.3892 230.64 48.9872 230.37 48.7031C230.103 48.4162 229.733 48.2727 229.258 48.2727C228.929 48.2727 228.633 48.3423 228.372 48.4815C228.113 48.6207 227.909 48.8239 227.758 49.0909C227.61 49.358 227.537 49.6818 227.537 50.0625ZM235.427 54.1534C235.012 54.1534 234.636 54.0753 234.298 53.919C233.96 53.7599 233.691 53.5312 233.492 53.233C233.293 52.9318 233.194 52.5682 233.194 52.142C233.194 51.767 233.268 51.4631 233.416 51.2301C233.563 50.9943 233.761 50.8097 234.008 50.6761C234.255 50.5426 234.528 50.4432 234.826 50.3778C235.127 50.3097 235.43 50.2557 235.734 50.2159C236.131 50.1648 236.454 50.1264 236.701 50.1009C236.951 50.0724 237.133 50.0256 237.247 49.9602C237.363 49.8949 237.421 49.7812 237.421 49.6193V49.5852C237.421 49.1648 237.306 48.8381 237.076 48.6051C236.849 48.3722 236.504 48.2557 236.041 48.2557C235.56 48.2557 235.184 48.3608 234.911 48.571C234.639 48.7812 234.447 49.0057 234.336 49.2443L233.381 48.9034C233.552 48.5057 233.779 48.196 234.063 47.9744C234.35 47.75 234.663 47.5937 235.001 47.5057C235.342 47.4148 235.677 47.3693 236.006 47.3693C236.217 47.3693 236.458 47.3949 236.731 47.446C237.006 47.4943 237.272 47.5952 237.528 47.7486C237.786 47.902 238.001 48.1335 238.171 48.4432C238.342 48.7528 238.427 49.1676 238.427 49.6875V54H237.421V53.1136H237.37C237.302 53.2557 237.188 53.4077 237.029 53.5696C236.87 53.7315 236.658 53.8693 236.394 53.983C236.13 54.0966 235.808 54.1534 235.427 54.1534ZM235.58 53.25C235.978 53.25 236.313 53.1719 236.586 53.0156C236.862 52.8594 237.069 52.6577 237.208 52.4105C237.35 52.1634 237.421 51.9034 237.421 51.6307V50.7102C237.379 50.7614 237.285 50.8082 237.14 50.8509C236.998 50.8906 236.833 50.9261 236.646 50.9574C236.461 50.9858 236.281 51.0114 236.104 51.0341C235.931 51.054 235.791 51.071 235.683 51.0852C235.421 51.1193 235.177 51.1747 234.95 51.2514C234.725 51.3253 234.543 51.4375 234.404 51.5881C234.268 51.7358 234.2 51.9375 234.2 52.1932C234.2 52.5426 234.329 52.8068 234.587 52.9858C234.849 53.1619 235.18 53.25 235.58 53.25ZM241.148 50.0625V54H240.142V47.4545H241.114V48.4773H241.199C241.353 48.1449 241.586 47.8778 241.898 47.6761C242.211 47.4716 242.614 47.3693 243.108 47.3693C243.552 47.3693 243.939 47.4602 244.272 47.642C244.604 47.821 244.863 48.0938 245.047 48.4602C245.232 48.8239 245.324 49.2841 245.324 49.8409V54H244.319V49.9091C244.319 49.3949 244.185 48.9943 243.918 48.7074C243.651 48.4176 243.285 48.2727 242.819 48.2727C242.498 48.2727 242.211 48.3423 241.958 48.4815C241.708 48.6207 241.51 48.8239 241.365 49.0909C241.221 49.358 241.148 49.6818 241.148 50.0625ZM248.048 50.0625V54H247.042V47.4545H248.014V48.4773H248.099C248.252 48.1449 248.485 47.8778 248.798 47.6761C249.11 47.4716 249.514 47.3693 250.008 47.3693C250.451 47.3693 250.839 47.4602 251.171 47.642C251.504 47.821 251.762 48.0938 251.947 48.4602C252.132 48.8239 252.224 49.2841 252.224 49.8409V54H251.218V49.9091C251.218 49.3949 251.085 48.9943 250.818 48.7074C250.551 48.4176 250.184 48.2727 249.718 48.2727C249.397 48.2727 249.11 48.3423 248.857 48.4815C248.607 48.6207 248.41 48.8239 248.265 49.0909C248.12 49.358 248.048 49.6818 248.048 50.0625ZM256.686 54.1364C256.055 54.1364 255.511 53.9972 255.054 53.7188C254.599 53.4375 254.248 53.0455 254.001 52.5426C253.757 52.0369 253.635 51.4489 253.635 50.7784C253.635 50.108 253.757 49.517 254.001 49.0057C254.248 48.4915 254.592 48.0909 255.032 47.804C255.476 47.5142 255.993 47.3693 256.584 47.3693C256.925 47.3693 257.261 47.4261 257.594 47.5398C257.926 47.6534 258.228 47.8381 258.501 48.0938C258.774 48.3466 258.991 48.6818 259.153 49.0994C259.315 49.517 259.396 50.0312 259.396 50.642V51.0682H254.351V50.1989H258.373C258.373 49.8295 258.3 49.5 258.152 49.2102C258.007 48.9205 257.8 48.6918 257.53 48.5241C257.263 48.3565 256.947 48.2727 256.584 48.2727C256.183 48.2727 255.836 48.3722 255.544 48.571C255.254 48.767 255.031 49.0227 254.875 49.3381C254.719 49.6534 254.64 49.9915 254.64 50.3523V50.9318C254.64 51.4261 254.726 51.8452 254.896 52.1889C255.069 52.5298 255.309 52.7898 255.616 52.9688C255.923 53.1449 256.28 53.233 256.686 53.233C256.95 53.233 257.189 53.196 257.402 53.1222C257.618 53.0455 257.804 52.9318 257.96 52.7812C258.116 52.6278 258.237 52.4375 258.322 52.2102L259.294 52.483C259.192 52.8125 259.02 53.1023 258.778 53.3523C258.537 53.5994 258.238 53.7926 257.883 53.9318C257.528 54.0682 257.129 54.1364 256.686 54.1364ZM261.812 45.2727V54H260.806V45.2727H261.812ZM266.925 54V45.2727H269.976C270.584 45.2727 271.085 45.3778 271.48 45.5881C271.875 45.7955 272.169 46.0753 272.362 46.4276C272.556 46.777 272.652 47.1648 272.652 47.5909C272.652 47.9659 272.585 48.2756 272.452 48.5199C272.321 48.7642 272.148 48.9574 271.932 49.0994C271.719 49.2415 271.487 49.3466 271.237 49.4148V49.5C271.504 49.517 271.773 49.6108 272.043 49.7812C272.313 49.9517 272.539 50.196 272.72 50.5142C272.902 50.8324 272.993 51.2216 272.993 51.6818C272.993 52.1193 272.894 52.5128 272.695 52.8622C272.496 53.2116 272.182 53.4886 271.753 53.6932C271.324 53.8977 270.766 54 270.078 54H266.925ZM267.982 53.0625H270.078C270.769 53.0625 271.259 52.929 271.549 52.6619C271.841 52.392 271.987 52.0653 271.987 51.6818C271.987 51.3864 271.912 51.1136 271.762 50.8636C271.611 50.6108 271.397 50.4091 271.118 50.2585C270.84 50.1051 270.51 50.0284 270.129 50.0284H267.982V53.0625ZM267.982 49.108H269.942C270.26 49.108 270.547 49.0455 270.803 48.9205C271.061 48.7955 271.266 48.6193 271.416 48.392C271.57 48.1648 271.647 47.8977 271.647 47.5909C271.647 47.2074 271.513 46.8821 271.246 46.6151C270.979 46.3452 270.556 46.2102 269.976 46.2102H267.982V49.108Z" fill="#191A1D"/>
<path d="M336.29 54V53.233L339.17 50.0795C339.508 49.7102 339.787 49.3892 340.006 49.1165C340.224 48.8409 340.386 48.5824 340.491 48.3409C340.599 48.0966 340.653 47.8409 340.653 47.5739C340.653 47.267 340.579 47.0014 340.432 46.777C340.287 46.5526 340.088 46.3793 339.835 46.2571C339.582 46.1349 339.298 46.0739 338.983 46.0739C338.648 46.0739 338.355 46.1435 338.105 46.2827C337.858 46.419 337.666 46.6108 337.53 46.858C337.396 47.1051 337.329 47.3949 337.329 47.7273H336.324C336.324 47.2159 336.442 46.767 336.677 46.3807C336.913 45.9943 337.234 45.6932 337.641 45.4773C338.05 45.2614 338.508 45.1534 339.017 45.1534C339.528 45.1534 339.981 45.2614 340.376 45.4773C340.771 45.6932 341.081 45.9844 341.305 46.3509C341.53 46.7173 341.642 47.125 341.642 47.5739C341.642 47.8949 341.584 48.2088 341.467 48.5156C341.354 48.8196 341.155 49.1591 340.871 49.5341C340.589 49.9062 340.199 50.3608 339.699 50.8977L337.739 52.9943V53.0625H341.795V54H336.29ZM344.952 52.8068L344.884 53.267C344.836 53.5909 344.762 53.9375 344.663 54.3068C344.566 54.6761 344.465 55.0241 344.36 55.3509C344.255 55.6776 344.168 55.9375 344.1 56.1307H343.333C343.37 55.9489 343.418 55.7088 343.478 55.4105C343.538 55.1122 343.597 54.7784 343.657 54.4091C343.719 54.0426 343.771 53.6676 343.81 53.2841L343.861 52.8068H344.952ZM349.23 54.1193C348.73 54.1193 348.28 54.0199 347.879 53.821C347.479 53.6222 347.158 53.3494 346.916 53.0028C346.675 52.6562 346.543 52.2614 346.52 51.8182H347.543C347.582 52.2131 347.761 52.5398 348.079 52.7983C348.401 53.054 348.784 53.1818 349.23 53.1818C349.588 53.1818 349.906 53.098 350.185 52.9304C350.466 52.7628 350.686 52.5327 350.845 52.2401C351.007 51.9446 351.088 51.6108 351.088 51.2386C351.088 50.858 351.004 50.5185 350.837 50.2202C350.672 49.919 350.445 49.6818 350.155 49.5085C349.865 49.3352 349.534 49.2472 349.162 49.2443C348.895 49.2415 348.621 49.2827 348.339 49.3679C348.058 49.4503 347.827 49.5568 347.645 49.6875L346.656 49.5682L347.185 45.2727H351.719V46.2102H348.071L347.764 48.7841H347.815C347.994 48.642 348.219 48.5241 348.489 48.4304C348.758 48.3366 349.04 48.2898 349.332 48.2898C349.866 48.2898 350.342 48.4176 350.76 48.6733C351.18 48.9261 351.51 49.2727 351.749 49.7131C351.99 50.1534 352.111 50.6562 352.111 51.2216C352.111 51.7784 351.986 52.2756 351.736 52.7131C351.489 53.1477 351.148 53.4915 350.713 53.7443C350.278 53.9943 349.784 54.1193 349.23 54.1193ZM353.479 52.2102V51.3409L357.314 45.2727H357.945V46.6193H357.519L354.621 51.2045V51.2727H359.786V52.2102H353.479ZM357.587 54V51.946V51.5412V45.2727H358.593V54H357.587ZM364.212 54.1193C363.649 54.1193 363.148 54.0227 362.707 53.8295C362.27 53.6364 361.922 53.3679 361.663 53.0241C361.408 52.6776 361.268 52.2756 361.246 51.8182H362.32C362.342 52.0994 362.439 52.3423 362.609 52.5469C362.78 52.7486 363.003 52.9048 363.278 53.0156C363.554 53.1264 363.859 53.1818 364.195 53.1818C364.57 53.1818 364.902 53.1165 365.192 52.9858C365.482 52.8551 365.709 52.6733 365.874 52.4403C366.038 52.2074 366.121 51.9375 366.121 51.6307C366.121 51.3097 366.041 51.027 365.882 50.7827C365.723 50.5355 365.49 50.3423 365.183 50.2031C364.876 50.0639 364.501 49.9943 364.058 49.9943H363.359V49.0568H364.058C364.405 49.0568 364.709 48.9943 364.97 48.8693C365.234 48.7443 365.44 48.5682 365.588 48.3409C365.739 48.1136 365.814 47.8466 365.814 47.5398C365.814 47.2443 365.749 46.9872 365.618 46.7685C365.487 46.5497 365.303 46.3793 365.064 46.2571C364.828 46.1349 364.55 46.0739 364.229 46.0739C363.928 46.0739 363.643 46.1293 363.376 46.2401C363.112 46.348 362.896 46.5057 362.729 46.7131C362.561 46.9176 362.47 47.1648 362.456 47.4545H361.433C361.45 46.9972 361.588 46.5966 361.847 46.2528C362.105 45.9062 362.443 45.6364 362.861 45.4432C363.281 45.25 363.743 45.1534 364.246 45.1534C364.786 45.1534 365.249 45.2628 365.635 45.4815C366.021 45.6974 366.318 45.983 366.526 46.3381C366.733 46.6932 366.837 47.0767 366.837 47.4886C366.837 47.9801 366.707 48.3991 366.449 48.7457C366.193 49.0923 365.845 49.3324 365.405 49.4659V49.5341C365.956 49.625 366.386 49.8594 366.696 50.2372C367.006 50.6122 367.161 51.0767 367.161 51.6307C367.161 52.1051 367.031 52.5312 366.773 52.9091C366.517 53.2841 366.168 53.5795 365.724 53.7955C365.281 54.0114 364.777 54.1193 364.212 54.1193Z" fill="#191A1D"/>
<line x1="217" y1="64.5" x2="367" y2="64.5" stroke="#E3E7EB"/>
<path d="M225.08 79H224.023C223.96 78.696 223.851 78.429 223.695 78.1989C223.541 77.9688 223.354 77.7756 223.132 77.6193C222.913 77.4602 222.67 77.3409 222.403 77.2614C222.136 77.1818 221.858 77.142 221.568 77.142C221.04 77.142 220.561 77.2756 220.132 77.5426C219.706 77.8097 219.366 78.2031 219.114 78.723C218.864 79.2429 218.739 79.8807 218.739 80.6364C218.739 81.392 218.864 82.0298 219.114 82.5497C219.366 83.0696 219.706 83.4631 220.132 83.7301C220.561 83.9972 221.04 84.1307 221.568 84.1307C221.858 84.1307 222.136 84.0909 222.403 84.0114C222.67 83.9318 222.913 83.8139 223.132 83.6577C223.354 83.4986 223.541 83.304 223.695 83.0739C223.851 82.8409 223.96 82.5739 224.023 82.2727H225.08C225 82.7187 224.855 83.1179 224.645 83.4702C224.435 83.8224 224.173 84.1222 223.861 84.3693C223.548 84.6136 223.197 84.7997 222.808 84.9276C222.422 85.0554 222.009 85.1193 221.568 85.1193C220.824 85.1193 220.162 84.9375 219.582 84.5739C219.003 84.2102 218.547 83.6932 218.214 83.0227C217.882 82.3523 217.716 81.5568 217.716 80.6364C217.716 79.7159 217.882 78.9205 218.214 78.25C218.547 77.5795 219.003 77.0625 219.582 76.6989C220.162 76.3352 220.824 76.1534 221.568 76.1534C222.009 76.1534 222.422 76.2173 222.808 76.3452C223.197 76.473 223.548 76.6605 223.861 76.9077C224.173 77.152 224.435 77.4503 224.645 77.8026C224.855 78.152 225 78.5511 225.08 79ZM227.537 81.0625V85H226.531V76.2727H227.537V79.4773H227.622C227.775 79.1392 228.005 78.8707 228.312 78.6719C228.622 78.4702 229.034 78.3693 229.548 78.3693C229.994 78.3693 230.385 78.4588 230.72 78.6378C231.055 78.8139 231.315 79.0852 231.5 79.4517C231.687 79.8153 231.781 80.2784 231.781 80.8409V85H230.775V80.9091C230.775 80.3892 230.64 79.9872 230.37 79.7031C230.103 79.4162 229.733 79.2727 229.258 79.2727C228.929 79.2727 228.633 79.3423 228.372 79.4815C228.113 79.6207 227.909 79.8239 227.758 80.0909C227.61 80.358 227.537 80.6818 227.537 81.0625ZM235.427 85.1534C235.012 85.1534 234.636 85.0753 234.298 84.919C233.96 84.7599 233.691 84.5312 233.492 84.233C233.293 83.9318 233.194 83.5682 233.194 83.142C233.194 82.767 233.268 82.4631 233.416 82.2301C233.563 81.9943 233.761 81.8097 234.008 81.6761C234.255 81.5426 234.528 81.4432 234.826 81.3778C235.127 81.3097 235.43 81.2557 235.734 81.2159C236.131 81.1648 236.454 81.1264 236.701 81.1009C236.951 81.0724 237.133 81.0256 237.247 80.9602C237.363 80.8949 237.421 80.7812 237.421 80.6193V80.5852C237.421 80.1648 237.306 79.8381 237.076 79.6051C236.849 79.3722 236.504 79.2557 236.041 79.2557C235.56 79.2557 235.184 79.3608 234.911 79.571C234.639 79.7812 234.447 80.0057 234.336 80.2443L233.381 79.9034C233.552 79.5057 233.779 79.196 234.063 78.9744C234.35 78.75 234.663 78.5937 235.001 78.5057C235.342 78.4148 235.677 78.3693 236.006 78.3693C236.217 78.3693 236.458 78.3949 236.731 78.446C237.006 78.4943 237.272 78.5952 237.528 78.7486C237.786 78.902 238.001 79.1335 238.171 79.4432C238.342 79.7528 238.427 80.1676 238.427 80.6875V85H237.421V84.1136H237.37C237.302 84.2557 237.188 84.4077 237.029 84.5696C236.87 84.7315 236.658 84.8693 236.394 84.983C236.13 85.0966 235.808 85.1534 235.427 85.1534ZM235.58 84.25C235.978 84.25 236.313 84.1719 236.586 84.0156C236.862 83.8594 237.069 83.6577 237.208 83.4105C237.35 83.1634 237.421 82.9034 237.421 82.6307V81.7102C237.379 81.7614 237.285 81.8082 237.14 81.8509C236.998 81.8906 236.833 81.9261 236.646 81.9574C236.461 81.9858 236.281 82.0114 236.104 82.0341C235.931 82.054 235.791 82.071 235.683 82.0852C235.421 82.1193 235.177 82.1747 234.95 82.2514C234.725 82.3253 234.543 82.4375 234.404 82.5881C234.268 82.7358 234.2 82.9375 234.2 83.1932C234.2 83.5426 234.329 83.8068 234.587 83.9858C234.849 84.1619 235.18 84.25 235.58 84.25ZM241.148 81.0625V85H240.142V78.4545H241.114V79.4773H241.199C241.353 79.1449 241.586 78.8778 241.898 78.6761C242.211 78.4716 242.614 78.3693 243.108 78.3693C243.552 78.3693 243.939 78.4602 244.272 78.642C244.604 78.821 244.863 79.0938 245.047 79.4602C245.232 79.8239 245.324 80.2841 245.324 80.8409V85H244.319V80.9091C244.319 80.3949 244.185 79.9943 243.918 79.7074C243.651 79.4176 243.285 79.2727 242.819 79.2727C242.498 79.2727 242.211 79.3423 241.958 79.4815C241.708 79.6207 241.51 79.8239 241.365 80.0909C241.221 80.358 241.148 80.6818 241.148 81.0625ZM248.048 81.0625V85H247.042V78.4545H248.014V79.4773H248.099C248.252 79.1449 248.485 78.8778 248.798 78.6761C249.11 78.4716 249.514 78.3693 250.008 78.3693C250.451 78.3693 250.839 78.4602 251.171 78.642C251.504 78.821 251.762 79.0938 251.947 79.4602C252.132 79.8239 252.224 80.2841 252.224 80.8409V85H251.218V80.9091C251.218 80.3949 251.085 79.9943 250.818 79.7074C250.551 79.4176 250.184 79.2727 249.718 79.2727C249.397 79.2727 249.11 79.3423 248.857 79.4815C248.607 79.6207 248.41 79.8239 248.265 80.0909C248.12 80.358 248.048 80.6818 248.048 81.0625ZM256.686 85.1364C256.055 85.1364 255.511 84.9972 255.054 84.7188C254.599 84.4375 254.248 84.0455 254.001 83.5426C253.757 83.0369 253.635 82.4489 253.635 81.7784C253.635 81.108 253.757 80.517 254.001 80.0057C254.248 79.4915 254.592 79.0909 255.032 78.804C255.476 78.5142 255.993 78.3693 256.584 78.3693C256.925 78.3693 257.261 78.4261 257.594 78.5398C257.926 78.6534 258.228 78.8381 258.501 79.0938C258.774 79.3466 258.991 79.6818 259.153 80.0994C259.315 80.517 259.396 81.0312 259.396 81.642V82.0682H254.351V81.1989H258.373C258.373 80.8295 258.3 80.5 258.152 80.2102C258.007 79.9205 257.8 79.6918 257.53 79.5241C257.263 79.3565 256.947 79.2727 256.584 79.2727C256.183 79.2727 255.836 79.3722 255.544 79.571C255.254 79.767 255.031 80.0227 254.875 80.3381C254.719 80.6534 254.64 80.9915 254.64 81.3523V81.9318C254.64 82.4261 254.726 82.8452 254.896 83.1889C255.069 83.5298 255.309 83.7898 255.616 83.9688C255.923 84.1449 256.28 84.233 256.686 84.233C256.95 84.233 257.189 84.196 257.402 84.1222C257.618 84.0455 257.804 83.9318 257.96 83.7812C258.116 83.6278 258.237 83.4375 258.322 83.2102L259.294 83.483C259.192 83.8125 259.02 84.1023 258.778 84.3523C258.537 84.5994 258.238 84.7926 257.883 84.9318C257.528 85.0682 257.129 85.1364 256.686 85.1364ZM261.812 76.2727V85H260.806V76.2727H261.812ZM273.948 79H272.891C272.828 78.696 272.719 78.429 272.563 78.1989C272.409 77.9688 272.222 77.7756 272 77.6193C271.781 77.4602 271.539 77.3409 271.272 77.2614C271.004 77.1818 270.726 77.142 270.436 77.142C269.908 77.142 269.429 77.2756 269 77.5426C268.574 77.8097 268.235 78.2031 267.982 78.723C267.732 79.2429 267.607 79.8807 267.607 80.6364C267.607 81.392 267.732 82.0298 267.982 82.5497C268.235 83.0696 268.574 83.4631 269 83.7301C269.429 83.9972 269.908 84.1307 270.436 84.1307C270.726 84.1307 271.004 84.0909 271.272 84.0114C271.539 83.9318 271.781 83.8139 272 83.6577C272.222 83.4986 272.409 83.304 272.563 83.0739C272.719 82.8409 272.828 82.5739 272.891 82.2727H273.948C273.868 82.7187 273.723 83.1179 273.513 83.4702C273.303 83.8224 273.041 84.1222 272.729 84.3693C272.416 84.6136 272.066 84.7997 271.676 84.9276C271.29 85.0554 270.877 85.1193 270.436 85.1193C269.692 85.1193 269.03 84.9375 268.451 84.5739C267.871 84.2102 267.415 83.6932 267.083 83.0227C266.75 82.3523 266.584 81.5568 266.584 80.6364C266.584 79.7159 266.75 78.9205 267.083 78.25C267.415 77.5795 267.871 77.0625 268.451 76.6989C269.03 76.3352 269.692 76.1534 270.436 76.1534C270.877 76.1534 271.29 76.2173 271.676 76.3452C272.066 76.473 272.416 76.6605 272.729 76.9077C273.041 77.152 273.303 77.4503 273.513 77.8026C273.723 78.152 273.868 78.5511 273.948 79Z" fill="#191A1D"/>
<path d="M338.894 85L342.798 77.2784V77.2102H338.298V76.2727H343.889V77.2614L340.002 85H338.894ZM345.374 83.8068L345.306 84.267C345.258 84.5909 345.184 84.9375 345.084 85.3068C344.988 85.6761 344.887 86.0241 344.782 86.3509C344.677 86.6776 344.59 86.9375 344.522 87.1307H343.755C343.792 86.9489 343.84 86.7088 343.9 86.4105C343.959 86.1122 344.019 85.7784 344.079 85.4091C344.141 85.0426 344.192 84.6676 344.232 84.2841L344.283 83.8068H345.374ZM346.896 83.2102V82.3409L350.731 76.2727H351.362V77.6193H350.936L348.038 82.2045V82.2727H353.203V83.2102H346.896ZM351.004 85V82.946V82.5412V76.2727H352.01V85H351.004ZM357.577 85.1193C357.219 85.1136 356.861 85.0455 356.504 84.9148C356.146 84.7841 355.819 84.5639 355.523 84.2543C355.228 83.9418 354.991 83.5199 354.812 82.9886C354.633 82.4545 354.543 81.7841 354.543 80.9773C354.543 80.2045 354.616 79.5199 354.761 78.9233C354.906 78.3239 355.116 77.8196 355.391 77.4105C355.667 76.9986 355.999 76.6861 356.388 76.473C356.781 76.2599 357.222 76.1534 357.714 76.1534C358.202 76.1534 358.637 76.2514 359.018 76.4474C359.401 76.6406 359.714 76.9105 359.955 77.2571C360.197 77.6037 360.353 78.0028 360.424 78.4545H359.384C359.288 78.0625 359.1 77.7372 358.822 77.4787C358.543 77.2202 358.174 77.0909 357.714 77.0909C357.038 77.0909 356.505 77.3849 356.116 77.973C355.729 78.5611 355.535 79.3864 355.532 80.4489H355.6C355.759 80.2074 355.948 80.0014 356.167 79.831C356.388 79.6577 356.633 79.5241 356.9 79.4304C357.167 79.3366 357.45 79.2898 357.748 79.2898C358.248 79.2898 358.705 79.4148 359.12 79.6648C359.535 79.9119 359.867 80.2543 360.117 80.6918C360.367 81.1264 360.492 81.625 360.492 82.1875C360.492 82.7273 360.371 83.2216 360.13 83.6705C359.888 84.1165 359.549 84.4716 359.111 84.7358C358.677 84.9972 358.165 85.125 357.577 85.1193ZM357.577 84.1818C357.935 84.1818 358.256 84.0923 358.54 83.9134C358.827 83.7344 359.053 83.4943 359.218 83.1932C359.386 82.892 359.469 82.5568 359.469 82.1875C359.469 81.8267 359.388 81.4986 359.227 81.2031C359.067 80.9048 358.847 80.6676 358.566 80.4915C358.288 80.3153 357.969 80.2273 357.611 80.2273C357.342 80.2273 357.09 80.2812 356.857 80.3892C356.624 80.4943 356.42 80.6392 356.244 80.8239C356.07 81.0085 355.934 81.2202 355.834 81.4588C355.735 81.6946 355.685 81.9432 355.685 82.2045C355.685 82.5511 355.766 82.875 355.928 83.1761C356.093 83.4773 356.317 83.7202 356.602 83.9048C356.888 84.0895 357.214 84.1818 357.577 84.1818ZM362.321 85L366.224 77.2784V77.2102H361.724V76.2727H367.315V77.2614L363.429 85H362.321Z" fill="#191A1D"/>
<line x1="217" y1="95.5" x2="367" y2="95.5" stroke="#E3E7EB"/>
<path d="M225.08 110H224.023C223.96 109.696 223.851 109.429 223.695 109.199C223.541 108.969 223.354 108.776 223.132 108.619C222.913 108.46 222.67 108.341 222.403 108.261C222.136 108.182 221.858 108.142 221.568 108.142C221.04 108.142 220.561 108.276 220.132 108.543C219.706 108.81 219.366 109.203 219.114 109.723C218.864 110.243 218.739 110.881 218.739 111.636C218.739 112.392 218.864 113.03 219.114 113.55C219.366 114.07 219.706 114.463 220.132 114.73C220.561 114.997 221.04 115.131 221.568 115.131C221.858 115.131 222.136 115.091 222.403 115.011C222.67 114.932 222.913 114.814 223.132 114.658C223.354 114.499 223.541 114.304 223.695 114.074C223.851 113.841 223.96 113.574 224.023 113.273H225.08C225 113.719 224.855 114.118 224.645 114.47C224.435 114.822 224.173 115.122 223.861 115.369C223.548 115.614 223.197 115.8 222.808 115.928C222.422 116.055 222.009 116.119 221.568 116.119C220.824 116.119 220.162 115.938 219.582 115.574C219.003 115.21 218.547 114.693 218.214 114.023C217.882 113.352 217.716 112.557 217.716 111.636C217.716 110.716 217.882 109.92 218.214 109.25C218.547 108.58 219.003 108.062 219.582 107.699C220.162 107.335 220.824 107.153 221.568 107.153C222.009 107.153 222.422 107.217 222.808 107.345C223.197 107.473 223.548 107.661 223.861 107.908C224.173 108.152 224.435 108.45 224.645 108.803C224.855 109.152 225 109.551 225.08 110ZM227.537 112.062V116H226.531V107.273H227.537V110.477H227.622C227.775 110.139 228.005 109.871 228.312 109.672C228.622 109.47 229.034 109.369 229.548 109.369C229.994 109.369 230.385 109.459 230.72 109.638C231.055 109.814 231.315 110.085 231.5 110.452C231.687 110.815 231.781 111.278 231.781 111.841V116H230.775V111.909C230.775 111.389 230.64 110.987 230.37 110.703C230.103 110.416 229.733 110.273 229.258 110.273C228.929 110.273 228.633 110.342 228.372 110.482C228.113 110.621 227.909 110.824 227.758 111.091C227.61 111.358 227.537 111.682 227.537 112.062ZM235.427 116.153C235.012 116.153 234.636 116.075 234.298 115.919C233.96 115.76 233.691 115.531 233.492 115.233C233.293 114.932 233.194 114.568 233.194 114.142C233.194 113.767 233.268 113.463 233.416 113.23C233.563 112.994 233.761 112.81 234.008 112.676C234.255 112.543 234.528 112.443 234.826 112.378C235.127 112.31 235.43 112.256 235.734 112.216C236.131 112.165 236.454 112.126 236.701 112.101C236.951 112.072 237.133 112.026 237.247 111.96C237.363 111.895 237.421 111.781 237.421 111.619V111.585C237.421 111.165 237.306 110.838 237.076 110.605C236.849 110.372 236.504 110.256 236.041 110.256C235.56 110.256 235.184 110.361 234.911 110.571C234.639 110.781 234.447 111.006 234.336 111.244L233.381 110.903C233.552 110.506 233.779 110.196 234.063 109.974C234.35 109.75 234.663 109.594 235.001 109.506C235.342 109.415 235.677 109.369 236.006 109.369C236.217 109.369 236.458 109.395 236.731 109.446C237.006 109.494 237.272 109.595 237.528 109.749C237.786 109.902 238.001 110.134 238.171 110.443C238.342 110.753 238.427 111.168 238.427 111.688V116H237.421V115.114H237.37C237.302 115.256 237.188 115.408 237.029 115.57C236.87 115.732 236.658 115.869 236.394 115.983C236.13 116.097 235.808 116.153 235.427 116.153ZM235.58 115.25C235.978 115.25 236.313 115.172 236.586 115.016C236.862 114.859 237.069 114.658 237.208 114.411C237.35 114.163 237.421 113.903 237.421 113.631V112.71C237.379 112.761 237.285 112.808 237.14 112.851C236.998 112.891 236.833 112.926 236.646 112.957C236.461 112.986 236.281 113.011 236.104 113.034C235.931 113.054 235.791 113.071 235.683 113.085C235.421 113.119 235.177 113.175 234.95 113.251C234.725 113.325 234.543 113.437 234.404 113.588C234.268 113.736 234.2 113.937 234.2 114.193C234.2 114.543 234.329 114.807 234.587 114.986C234.849 115.162 235.18 115.25 235.58 115.25ZM241.148 112.062V116H240.142V109.455H241.114V110.477H241.199C241.353 110.145 241.586 109.878 241.898 109.676C242.211 109.472 242.614 109.369 243.108 109.369C243.552 109.369 243.939 109.46 244.272 109.642C244.604 109.821 244.863 110.094 245.047 110.46C245.232 110.824 245.324 111.284 245.324 111.841V116H244.319V111.909C244.319 111.395 244.185 110.994 243.918 110.707C243.651 110.418 243.285 110.273 242.819 110.273C242.498 110.273 242.211 110.342 241.958 110.482C241.708 110.621 241.51 110.824 241.365 111.091C241.221 111.358 241.148 111.682 241.148 112.062ZM248.048 112.062V116H247.042V109.455H248.014V110.477H248.099C248.252 110.145 248.485 109.878 248.798 109.676C249.11 109.472 249.514 109.369 250.008 109.369C250.451 109.369 250.839 109.46 251.171 109.642C251.504 109.821 251.762 110.094 251.947 110.46C252.132 110.824 252.224 111.284 252.224 111.841V116H251.218V111.909C251.218 111.395 251.085 110.994 250.818 110.707C250.551 110.418 250.184 110.273 249.718 110.273C249.397 110.273 249.11 110.342 248.857 110.482C248.607 110.621 248.41 110.824 248.265 111.091C248.12 111.358 248.048 111.682 248.048 112.062ZM256.686 116.136C256.055 116.136 255.511 115.997 255.054 115.719C254.599 115.438 254.248 115.045 254.001 114.543C253.757 114.037 253.635 113.449 253.635 112.778C253.635 112.108 253.757 111.517 254.001 111.006C254.248 110.491 254.592 110.091 255.032 109.804C255.476 109.514 255.993 109.369 256.584 109.369C256.925 109.369 257.261 109.426 257.594 109.54C257.926 109.653 258.228 109.838 258.501 110.094C258.774 110.347 258.991 110.682 259.153 111.099C259.315 111.517 259.396 112.031 259.396 112.642V113.068H254.351V112.199H258.373C258.373 111.83 258.3 111.5 258.152 111.21C258.007 110.92 257.8 110.692 257.53 110.524C257.263 110.357 256.947 110.273 256.584 110.273C256.183 110.273 255.836 110.372 255.544 110.571C255.254 110.767 255.031 111.023 254.875 111.338C254.719 111.653 254.64 111.991 254.64 112.352V112.932C254.64 113.426 254.726 113.845 254.896 114.189C255.069 114.53 255.309 114.79 255.616 114.969C255.923 115.145 256.28 115.233 256.686 115.233C256.95 115.233 257.189 115.196 257.402 115.122C257.618 115.045 257.804 114.932 257.96 114.781C258.116 114.628 258.237 114.437 258.322 114.21L259.294 114.483C259.192 114.812 259.02 115.102 258.778 115.352C258.537 115.599 258.238 115.793 257.883 115.932C257.528 116.068 257.129 116.136 256.686 116.136ZM261.812 107.273V116H260.806V107.273H261.812ZM269.618 116H266.925V107.273H269.737C270.584 107.273 271.308 107.447 271.911 107.797C272.513 108.143 272.975 108.642 273.296 109.293C273.617 109.94 273.777 110.716 273.777 111.619C273.777 112.528 273.615 113.311 273.291 113.967C272.968 114.621 272.496 115.124 271.877 115.476C271.257 115.825 270.504 116 269.618 116ZM267.982 115.062H269.55C270.272 115.062 270.87 114.923 271.344 114.645C271.818 114.366 272.172 113.97 272.405 113.456C272.638 112.942 272.754 112.33 272.754 111.619C272.754 110.915 272.639 110.308 272.409 109.8C272.179 109.288 271.835 108.896 271.378 108.624C270.921 108.348 270.351 108.21 269.669 108.21H267.982V115.062Z" fill="#191A1D"/>
<path d="M333.853 107.273V116H332.796V108.381H332.745L330.614 109.795V108.722L332.796 107.273H333.853ZM339.192 116.119C338.629 116.119 338.128 116.023 337.687 115.83C337.25 115.636 336.902 115.368 336.643 115.024C336.388 114.678 336.248 114.276 336.226 113.818H337.3C337.322 114.099 337.419 114.342 337.589 114.547C337.76 114.749 337.983 114.905 338.258 115.016C338.534 115.126 338.839 115.182 339.175 115.182C339.55 115.182 339.882 115.116 340.172 114.986C340.462 114.855 340.689 114.673 340.854 114.44C341.018 114.207 341.101 113.938 341.101 113.631C341.101 113.31 341.021 113.027 340.862 112.783C340.703 112.536 340.47 112.342 340.163 112.203C339.856 112.064 339.481 111.994 339.038 111.994H338.339V111.057H339.038C339.385 111.057 339.689 110.994 339.95 110.869C340.214 110.744 340.42 110.568 340.568 110.341C340.719 110.114 340.794 109.847 340.794 109.54C340.794 109.244 340.729 108.987 340.598 108.768C340.467 108.55 340.283 108.379 340.044 108.257C339.808 108.135 339.53 108.074 339.209 108.074C338.908 108.074 338.623 108.129 338.356 108.24C338.092 108.348 337.876 108.506 337.709 108.713C337.541 108.918 337.45 109.165 337.436 109.455H336.413C336.43 108.997 336.568 108.597 336.827 108.253C337.085 107.906 337.423 107.636 337.841 107.443C338.261 107.25 338.723 107.153 339.226 107.153C339.766 107.153 340.229 107.263 340.615 107.482C341.001 107.697 341.298 107.983 341.506 108.338C341.713 108.693 341.817 109.077 341.817 109.489C341.817 109.98 341.687 110.399 341.429 110.746C341.173 111.092 340.825 111.332 340.385 111.466V111.534C340.936 111.625 341.366 111.859 341.676 112.237C341.986 112.612 342.141 113.077 342.141 113.631C342.141 114.105 342.011 114.531 341.753 114.909C341.497 115.284 341.148 115.58 340.704 115.795C340.261 116.011 339.757 116.119 339.192 116.119ZM345.011 114.807L344.943 115.267C344.894 115.591 344.821 115.938 344.721 116.307C344.625 116.676 344.524 117.024 344.419 117.351C344.313 117.678 344.227 117.938 344.159 118.131H343.392C343.429 117.949 343.477 117.709 343.536 117.411C343.596 117.112 343.656 116.778 343.715 116.409C343.778 116.043 343.829 115.668 343.869 115.284L343.92 114.807H345.011ZM349.289 116.119C348.789 116.119 348.338 116.02 347.938 115.821C347.537 115.622 347.216 115.349 346.975 115.003C346.733 114.656 346.601 114.261 346.578 113.818H347.601C347.641 114.213 347.82 114.54 348.138 114.798C348.459 115.054 348.843 115.182 349.289 115.182C349.647 115.182 349.965 115.098 350.243 114.93C350.524 114.763 350.745 114.533 350.904 114.24C351.066 113.945 351.147 113.611 351.147 113.239C351.147 112.858 351.063 112.518 350.895 112.22C350.73 111.919 350.503 111.682 350.213 111.509C349.924 111.335 349.593 111.247 349.22 111.244C348.953 111.241 348.679 111.283 348.398 111.368C348.117 111.45 347.885 111.557 347.703 111.688L346.715 111.568L347.243 107.273H351.777V108.21H348.13L347.823 110.784H347.874C348.053 110.642 348.277 110.524 348.547 110.43C348.817 110.337 349.098 110.29 349.391 110.29C349.925 110.29 350.401 110.418 350.818 110.673C351.239 110.926 351.568 111.273 351.807 111.713C352.049 112.153 352.169 112.656 352.169 113.222C352.169 113.778 352.044 114.276 351.794 114.713C351.547 115.148 351.206 115.491 350.772 115.744C350.337 115.994 349.843 116.119 349.289 116.119ZM356.691 116.119C356.129 116.119 355.627 116.023 355.187 115.83C354.749 115.636 354.401 115.368 354.143 115.024C353.887 114.678 353.748 114.276 353.725 113.818H354.799C354.822 114.099 354.918 114.342 355.089 114.547C355.259 114.749 355.482 114.905 355.758 115.016C356.033 115.126 356.339 115.182 356.674 115.182C357.049 115.182 357.381 115.116 357.671 114.986C357.961 114.855 358.188 114.673 358.353 114.44C358.518 114.207 358.6 113.938 358.6 113.631C358.6 113.31 358.521 113.027 358.361 112.783C358.202 112.536 357.969 112.342 357.663 112.203C357.356 112.064 356.981 111.994 356.538 111.994H355.839V111.057H356.538C356.884 111.057 357.188 110.994 357.45 110.869C357.714 110.744 357.92 110.568 358.067 110.341C358.218 110.114 358.293 109.847 358.293 109.54C358.293 109.244 358.228 108.987 358.097 108.768C357.967 108.55 357.782 108.379 357.543 108.257C357.307 108.135 357.029 108.074 356.708 108.074C356.407 108.074 356.123 108.129 355.856 108.24C355.592 108.348 355.376 108.506 355.208 108.713C355.04 108.918 354.95 109.165 354.935 109.455H353.913C353.93 108.997 354.067 108.597 354.326 108.253C354.584 107.906 354.923 107.636 355.34 107.443C355.761 107.25 356.222 107.153 356.725 107.153C357.265 107.153 357.728 107.263 358.114 107.482C358.501 107.697 358.798 107.983 359.005 108.338C359.212 108.693 359.316 109.077 359.316 109.489C359.316 109.98 359.187 110.399 358.928 110.746C358.673 111.092 358.325 111.332 357.884 111.466V111.534C358.435 111.625 358.866 111.859 359.175 112.237C359.485 112.612 359.64 113.077 359.64 113.631C359.64 114.105 359.511 114.531 359.252 114.909C358.996 115.284 358.647 115.58 358.204 115.795C357.761 116.011 357.256 116.119 356.691 116.119ZM364.212 116.119C363.649 116.119 363.148 116.023 362.707 115.83C362.27 115.636 361.922 115.368 361.663 115.024C361.408 114.678 361.268 114.276 361.246 113.818H362.32C362.342 114.099 362.439 114.342 362.609 114.547C362.78 114.749 363.003 114.905 363.278 115.016C363.554 115.126 363.859 115.182 364.195 115.182C364.57 115.182 364.902 115.116 365.192 114.986C365.482 114.855 365.709 114.673 365.874 114.44C366.038 114.207 366.121 113.938 366.121 113.631C366.121 113.31 366.041 113.027 365.882 112.783C365.723 112.536 365.49 112.342 365.183 112.203C364.876 112.064 364.501 111.994 364.058 111.994H363.359V111.057H364.058C364.405 111.057 364.709 110.994 364.97 110.869C365.234 110.744 365.44 110.568 365.588 110.341C365.739 110.114 365.814 109.847 365.814 109.54C365.814 109.244 365.749 108.987 365.618 108.768C365.487 108.55 365.303 108.379 365.064 108.257C364.828 108.135 364.55 108.074 364.229 108.074C363.928 108.074 363.643 108.129 363.376 108.24C363.112 108.348 362.896 108.506 362.729 108.713C362.561 108.918 362.47 109.165 362.456 109.455H361.433C361.45 108.997 361.588 108.597 361.847 108.253C362.105 107.906 362.443 107.636 362.861 107.443C363.281 107.25 363.743 107.153 364.246 107.153C364.786 107.153 365.249 107.263 365.635 107.482C366.021 107.697 366.318 107.983 366.526 108.338C366.733 108.693 366.837 109.077 366.837 109.489C366.837 109.98 366.707 110.399 366.449 110.746C366.193 111.092 365.845 111.332 365.405 111.466V111.534C365.956 111.625 366.386 111.859 366.696 112.237C367.006 112.612 367.161 113.077 367.161 113.631C367.161 114.105 367.031 114.531 366.773 114.909C366.517 115.284 366.168 115.58 365.724 115.795C365.281 116.011 364.777 116.119 364.212 116.119Z" fill="#191A1D"/>
</g>
<defs>
<filter id="filter0_dddddd_2693_138056" x="-80" y="-28" width="544" height="290" filterUnits="userSpaceOnUse" color-interpolation-filters="sRGB">
<feFlood flood-opacity="0" result="BackgroundImageFix"/>
<feColorMatrix in="SourceAlpha" type="matrix" values="0 0 0 0 0 0 0 0 0 0 0 0 0 0 0 0 0 0 127 0" result="hardAlpha"/>
<feOffset dy="1.43897"/>
<feGaussianBlur stdDeviation="1.1069"/>
<feColorMatrix type="matrix" values="0 0 0 0 0.109804 0 0 0 0 0.164706 0 0 0 0 0.278431 0 0 0 0.0168687 0"/>
<feBlend mode="normal" in2="BackgroundImageFix" result="effect1_dropShadow_2693_138056"/>
<feColorMatrix in="SourceAlpha" type="matrix" values="0 0 0 0 0 0 0 0 0 0 0 0 0 0 0 0 0 0 127 0" result="hardAlpha"/>
<feOffset dy="3.45805"/>
<feGaussianBlur stdDeviation="2.66004"/>
<feColorMatrix type="matrix" values="0 0 0 0 0.109804 0 0 0 0 0.164706 0 0 0 0 0.278431 0 0 0 0.0242336 0"/>
<feBlend mode="normal" in2="effect1_dropShadow_2693_138056" result="effect2_dropShadow_2693_138056"/>
<feColorMatrix in="SourceAlpha" type="matrix" values="0 0 0 0 0 0 0 0 0 0 0 0 0 0 0 0 0 0 127 0" result="hardAlpha"/>
<feOffset dy="6.51121"/>
<feGaussianBlur stdDeviation="5.00862"/>
<feColorMatrix type="matrix" values="0 0 0 0 0.109804 0 0 0 0 0.164706 0 0 0 0 0.278431 0 0 0 0.03 0"/>
<feBlend mode="normal" in2="effect2_dropShadow_2693_138056" result="effect3_dropShadow_2693_138056"/>
<feColorMatrix in="SourceAlpha" type="matrix" values="0 0 0 0 0 0 0 0 0 0 0 0 0 0 0 0 0 0 127 0" result="hardAlpha"/>
<feOffset dy="11.6149"/>
<feGaussianBlur stdDeviation="8.93452"/>
<feColorMatrix type="matrix" values="0 0 0 0 0.109804 0 0 0 0 0.164706 0 0 0 0 0.278431 0 0 0 0.0357664 0"/>
<feBlend mode="normal" in2="effect3_dropShadow_2693_138056" result="effect4_dropShadow_2693_138056"/>
<feColorMatrix in="SourceAlpha" type="matrix" values="0 0 0 0 0 0 0 0 0 0 0 0 0 0 0 0 0 0 127 0" result="hardAlpha"/>
<feOffset dy="21.7244"/>
<feGaussianBlur stdDeviation="16.711"/>
<feColorMatrix type="matrix" values="0 0 0 0 0.109804 0 0 0 0 0.164706 0 0 0 0 0.278431 0 0 0 0.0431313 0"/>
<feBlend mode="normal" in2="effect4_dropShadow_2693_138056" result="effect5_dropShadow_2693_138056"/>
<feColorMatrix in="SourceAlpha" type="matrix" values="0 0 0 0 0 0 0 0 0 0 0 0 0 0 0 0 0 0 127 0" result="hardAlpha"/>
<feOffset dy="52"/>
<feGaussianBlur stdDeviation="40"/>
<feColorMatrix type="matrix" values="0 0 0 0 0.109804 0 0 0 0 0.164706 0 0 0 0 0.278431 0 0 0 0.06 0"/>
<feBlend mode="normal" in2="effect5_dropShadow_2693_138056" result="effect6_dropShadow_2693_138056"/>
<feBlend mode="normal" in="SourceGraphic" in2="effect6_dropShadow_2693_138056" result="shape"/>
</filter>
</defs>
</svg>
