<svg width="182" height="130" viewBox="0 0 182 130" fill="none" xmlns="http://www.w3.org/2000/svg">
<g filter="url(#filter0_dddddd_2693_138057)">
<rect width="182" height="130" rx="12" fill="white"/>
<path d="M70.1133 100.818V82.6364H71.2781V100.818H70.1133ZM73.4727 88.4531C73.4064 87.8329 73.127 87.3499 72.6346 87.0043C72.1469 86.6586 71.5125 86.4858 70.7312 86.4858C70.182 86.4858 69.7109 86.5687 69.3179 86.7344C68.9249 86.9001 68.6242 87.125 68.4159 87.4091C68.2075 87.6932 68.101 88.0175 68.0963 88.3821C68.0963 88.6851 68.1649 88.9479 68.3022 89.1705C68.4443 89.393 68.636 89.5824 68.8775 89.7386C69.119 89.8902 69.3865 90.018 69.6801 90.1222C69.9736 90.2263 70.2696 90.3139 70.5679 90.3849L71.9315 90.7259C72.4807 90.8537 73.0087 91.0265 73.5153 91.2443C74.0267 91.4621 74.4836 91.7367 74.886 92.0682C75.2932 92.3996 75.6152 92.7997 75.852 93.2685C76.0887 93.7372 76.2071 94.2865 76.2071 94.9162C76.2071 95.7685 75.9893 96.5189 75.5537 97.1676C75.1181 97.8116 74.4883 98.3158 73.6645 98.6804C72.8453 99.0402 71.8534 99.2202 70.6886 99.2202C69.557 99.2202 68.5745 99.045 67.7412 98.6946C66.9126 98.3442 66.2639 97.8329 65.7951 97.1605C65.3311 96.4882 65.0802 95.669 65.0423 94.7031H67.6346C67.6725 95.2098 67.8288 95.6312 68.1034 95.9673C68.378 96.3035 68.7355 96.5545 69.1758 96.7202C69.6209 96.8859 70.1181 96.9688 70.6673 96.9688C71.2402 96.9688 71.7421 96.8835 72.173 96.7131C72.6086 96.5379 72.9495 96.2964 73.1957 95.9886C73.4419 95.6761 73.5674 95.3116 73.5721 94.8949C73.5674 94.5161 73.4561 94.2036 73.2383 93.9574C73.0205 93.7064 72.7151 93.4981 72.3221 93.3324C71.9339 93.1619 71.4793 93.0104 70.9585 92.8778L69.3037 92.4517C68.1057 92.1439 67.1588 91.6776 66.4627 91.0526C65.7715 90.4228 65.4258 89.5871 65.4258 88.5455C65.4258 87.6884 65.6578 86.938 66.1218 86.294C66.5906 85.6501 67.2274 85.1506 68.0324 84.7955C68.8373 84.4356 69.7487 84.2557 70.7667 84.2557C71.7989 84.2557 72.7033 84.4356 73.4798 84.7955C74.261 85.1506 74.8742 85.6454 75.3193 86.2798C75.7644 86.9096 75.994 87.634 76.0082 88.4531H73.4727ZM83.0709 99.1989C82.1239 99.1989 81.2764 99.0213 80.5283 98.6662C79.7802 98.3063 79.186 97.8139 78.7456 97.1889C78.31 96.5639 78.078 95.849 78.0496 95.044H80.6064C80.6538 95.6406 80.9118 96.1283 81.3806 96.5071C81.8493 96.8812 82.4128 97.0682 83.0709 97.0682C83.587 97.0682 84.0463 96.9498 84.4488 96.7131C84.8512 96.4763 85.1685 96.1473 85.4005 95.7259C85.6325 95.3045 85.7461 94.8239 85.7414 94.2841C85.7461 93.7348 85.6301 93.2472 85.3934 92.821C85.1566 92.3949 84.8323 92.0611 84.4203 91.8196C84.0084 91.5734 83.5349 91.4503 82.9999 91.4503C82.5643 91.4455 82.1358 91.526 81.7144 91.6918C81.293 91.8575 80.9592 92.0753 80.713 92.3452L78.3337 91.9545L79.0936 84.4545H87.5311V86.6562H81.274L80.855 90.5128H80.9402C81.2101 90.1955 81.5913 89.9328 82.0837 89.7244C82.5761 89.5114 83.1159 89.4048 83.703 89.4048C84.5837 89.4048 85.3697 89.6132 86.061 90.0298C86.7523 90.4418 87.2968 91.0099 87.6945 91.7344C88.0922 92.4588 88.2911 93.2874 88.2911 94.2202C88.2911 95.1813 88.0685 96.0384 87.6235 96.7912C87.1831 97.5393 86.57 98.1288 85.784 98.5597C85.0027 98.9858 84.0984 99.1989 83.0709 99.1989ZM95.3201 84.2557C96.0161 84.2604 96.6932 84.3835 97.3513 84.625C98.0142 84.8617 98.6108 85.25 99.1411 85.7898C99.6714 86.3248 100.093 87.0421 100.405 87.9418C100.718 88.8414 100.874 89.9541 100.874 91.2798C100.879 92.5298 100.746 93.6473 100.476 94.6321C100.211 95.6122 99.83 96.4408 99.3328 97.1179C98.8357 97.795 98.2367 98.3111 97.536 98.6662C96.8352 99.0213 96.0469 99.1989 95.1709 99.1989C94.2524 99.1989 93.438 99.0189 92.7277 98.6591C92.0222 98.2992 91.4517 97.8068 91.0161 97.1818C90.5805 96.5568 90.313 95.8419 90.2135 95.0369H92.8059C92.9384 95.6146 93.2083 96.0739 93.6155 96.4148C94.0275 96.7509 94.5459 96.919 95.1709 96.919C96.1794 96.919 96.956 96.4811 97.5005 95.6051C98.045 94.7292 98.3172 93.5123 98.3172 91.9545H98.2178C97.9858 92.3712 97.6851 92.7311 97.3158 93.0341C96.9465 93.3324 96.5275 93.562 96.0587 93.723C95.5947 93.884 95.1023 93.9645 94.5814 93.9645C93.7292 93.9645 92.9621 93.7609 92.2803 93.3537C91.6032 92.9465 91.0658 92.3878 90.6681 91.6776C90.2751 90.9673 90.0762 90.1553 90.0715 89.2415C90.0715 88.2945 90.2893 87.4446 90.7249 86.6918C91.1652 85.9342 91.7784 85.3376 92.5644 84.902C93.3504 84.4616 94.2689 84.2462 95.3201 84.2557ZM95.3272 86.3864C94.8158 86.3864 94.3542 86.5118 93.9422 86.7628C93.535 87.009 93.2131 87.3452 92.9763 87.7713C92.7443 88.1927 92.6283 88.6638 92.6283 89.1847C92.633 89.7008 92.749 90.1695 92.9763 90.5909C93.2083 91.0123 93.5232 91.3461 93.9209 91.5923C94.3234 91.8385 94.7827 91.9616 95.2988 91.9616C95.6823 91.9616 96.0398 91.8883 96.3712 91.7415C96.7026 91.5947 96.9915 91.3911 97.2377 91.1307C97.4886 90.8655 97.6828 90.5649 97.8201 90.2287C97.9621 89.8925 98.0308 89.5374 98.026 89.1634C98.026 88.6662 97.9077 88.2069 97.6709 87.7855C97.4389 87.3641 97.1193 87.0256 96.7121 86.7699C96.3096 86.5142 95.848 86.3864 95.3272 86.3864ZM102.576 96.3011V94.206L108.748 84.4545H110.495V87.4375H109.43L105.275 94.0213V94.1349H113.89V96.3011H102.576ZM109.515 99V95.6619L109.544 94.7244V84.4545H112.029V99H109.515Z" fill="#191A1D"/>
<path d="M41.2199 110.273H42.4813L45.4472 117.517H45.5495L48.5154 110.273H49.7768V119H48.7881V112.369H48.7029L45.9756 119H45.0211L42.2938 112.369H42.2086V119H41.2199V110.273ZM53.5655 119.153C53.1507 119.153 52.7743 119.075 52.4362 118.919C52.0982 118.76 51.8297 118.531 51.6308 118.233C51.432 117.932 51.3325 117.568 51.3325 117.142C51.3325 116.767 51.4064 116.463 51.5541 116.23C51.7019 115.994 51.8993 115.81 52.1465 115.676C52.3936 115.543 52.6663 115.443 52.9646 115.378C53.2658 115.31 53.5683 115.256 53.8723 115.216C54.27 115.165 54.5925 115.126 54.8396 115.101C55.0896 115.072 55.2715 115.026 55.3851 114.96C55.5016 114.895 55.5598 114.781 55.5598 114.619V114.585C55.5598 114.165 55.4448 113.838 55.2146 113.605C54.9874 113.372 54.6422 113.256 54.1791 113.256C53.699 113.256 53.3226 113.361 53.0499 113.571C52.7771 113.781 52.5854 114.006 52.4746 114.244L51.52 113.903C51.6905 113.506 51.9178 113.196 52.2019 112.974C52.4888 112.75 52.8013 112.594 53.1394 112.506C53.4803 112.415 53.8155 112.369 54.145 112.369C54.3553 112.369 54.5967 112.395 54.8695 112.446C55.145 112.494 55.4107 112.595 55.6663 112.749C55.9249 112.902 56.1394 113.134 56.3098 113.443C56.4803 113.753 56.5655 114.168 56.5655 114.688V119H55.5598V118.114H55.5087C55.4405 118.256 55.3269 118.408 55.1678 118.57C55.0087 118.732 54.797 118.869 54.5328 118.983C54.2686 119.097 53.9462 119.153 53.5655 119.153ZM53.7189 118.25C54.1166 118.25 54.4519 118.172 54.7246 118.016C55.0002 117.859 55.2075 117.658 55.3467 117.411C55.4888 117.163 55.5598 116.903 55.5598 116.631V115.71C55.5172 115.761 55.4235 115.808 55.2786 115.851C55.1365 115.891 54.9717 115.926 54.7842 115.957C54.5996 115.986 54.4192 116.011 54.2431 116.034C54.0698 116.054 53.9291 116.071 53.8212 116.085C53.5598 116.119 53.3155 116.175 53.0882 116.251C52.8638 116.325 52.682 116.437 52.5428 116.588C52.4064 116.736 52.3382 116.937 52.3382 117.193C52.3382 117.543 52.4675 117.807 52.726 117.986C52.9874 118.162 53.3183 118.25 53.7189 118.25ZM58.2811 119V112.455H59.2527V113.443H59.3209C59.4402 113.119 59.6561 112.857 59.9686 112.655C60.2811 112.453 60.6334 112.352 61.0254 112.352C61.0993 112.352 61.1916 112.354 61.3024 112.357C61.4132 112.359 61.497 112.364 61.5538 112.369V113.392C61.5197 113.384 61.4416 113.371 61.3194 113.354C61.2001 113.334 61.0737 113.324 60.9402 113.324C60.622 113.324 60.3379 113.391 60.0879 113.524C59.8407 113.655 59.6447 113.837 59.4998 114.07C59.3578 114.3 59.2868 114.562 59.2868 114.858V119H58.2811ZM63.5634 116.614L63.5464 115.369H63.7509L66.6146 112.455H67.8589L64.8077 115.54H64.7225L63.5634 116.614ZM62.6259 119V110.273H63.6316V119H62.6259ZM66.785 119L64.2282 115.761L64.9441 115.062L68.0634 119H66.785ZM71.5081 119.136C70.8774 119.136 70.3333 118.997 69.876 118.719C69.4214 118.438 69.0706 118.045 68.8234 117.543C68.5791 117.037 68.4569 116.449 68.4569 115.778C68.4569 115.108 68.5791 114.517 68.8234 114.006C69.0706 113.491 69.4143 113.091 69.8546 112.804C70.2978 112.514 70.8149 112.369 71.4058 112.369C71.7467 112.369 72.0833 112.426 72.4157 112.54C72.7481 112.653 73.0507 112.838 73.3234 113.094C73.5961 113.347 73.8135 113.682 73.9754 114.099C74.1373 114.517 74.2183 115.031 74.2183 115.642V116.068H69.1728V115.199H73.1956C73.1956 114.83 73.1217 114.5 72.974 114.21C72.8291 113.92 72.6217 113.692 72.3518 113.524C72.0848 113.357 71.7694 113.273 71.4058 113.273C71.0052 113.273 70.6586 113.372 70.366 113.571C70.0762 113.767 69.8532 114.023 69.697 114.338C69.5407 114.653 69.4626 114.991 69.4626 115.352V115.932C69.4626 116.426 69.5478 116.845 69.7183 117.189C69.8916 117.53 70.1316 117.79 70.4385 117.969C70.7453 118.145 71.1018 118.233 71.5081 118.233C71.7723 118.233 72.0109 118.196 72.224 118.122C72.4399 118.045 72.626 117.932 72.7822 117.781C72.9385 117.628 73.0592 117.437 73.1444 117.21L74.116 117.483C74.0137 117.812 73.8419 118.102 73.6004 118.352C73.3589 118.599 73.0606 118.793 72.7055 118.932C72.3504 119.068 71.9512 119.136 71.5081 119.136ZM78.4747 112.455V113.307H75.0827V112.455H78.4747ZM76.0713 110.886H77.077V117.125C77.077 117.409 77.1182 117.622 77.2006 117.764C77.2858 117.903 77.3937 117.997 77.5244 118.045C77.6579 118.091 77.7986 118.114 77.9463 118.114C78.0571 118.114 78.148 118.108 78.219 118.097C78.29 118.082 78.3469 118.071 78.3895 118.062L78.594 118.966C78.5258 118.991 78.4307 119.017 78.3085 119.043C78.1864 119.071 78.0315 119.085 77.844 119.085C77.5599 119.085 77.2815 119.024 77.0088 118.902C76.7389 118.78 76.5145 118.594 76.3355 118.344C76.1594 118.094 76.0713 117.778 76.0713 117.398V110.886ZM79.8675 119V112.455H80.8732V119H79.8675ZM80.3788 111.364C80.1828 111.364 80.0138 111.297 79.8717 111.163C79.7325 111.03 79.6629 110.869 79.6629 110.682C79.6629 110.494 79.7325 110.334 79.8717 110.2C80.0138 110.067 80.1828 110 80.3788 110C80.5749 110 80.7425 110.067 80.8817 110.2C81.0237 110.334 81.0948 110.494 81.0948 110.682C81.0948 110.869 81.0237 111.03 80.8817 111.163C80.7425 111.297 80.5749 111.364 80.3788 111.364ZM83.6008 115.062V119H82.5951V112.455H83.5667V113.477H83.652C83.8054 113.145 84.0383 112.878 84.3508 112.676C84.6633 112.472 85.0667 112.369 85.5611 112.369C86.0042 112.369 86.392 112.46 86.7244 112.642C87.0568 112.821 87.3153 113.094 87.5 113.46C87.6846 113.824 87.777 114.284 87.777 114.841V119H86.7713V114.909C86.7713 114.395 86.6378 113.994 86.3707 113.707C86.1037 113.418 85.7372 113.273 85.2713 113.273C84.9503 113.273 84.6633 113.342 84.4105 113.482C84.1605 113.621 83.963 113.824 83.8182 114.091C83.6733 114.358 83.6008 114.682 83.6008 115.062ZM92.1367 121.591C91.6509 121.591 91.2333 121.528 90.8839 121.403C90.5344 121.281 90.2433 121.119 90.0103 120.918C89.7802 120.719 89.5969 120.506 89.4606 120.278L90.2617 119.716C90.3526 119.835 90.4677 119.972 90.6069 120.125C90.7461 120.281 90.9364 120.416 91.1779 120.53C91.4222 120.646 91.7418 120.705 92.1367 120.705C92.6651 120.705 93.1012 120.577 93.445 120.321C93.7887 120.065 93.9606 119.665 93.9606 119.119V117.79H93.8754C93.8015 117.909 93.6964 118.057 93.56 118.233C93.4265 118.406 93.2333 118.561 92.9805 118.697C92.7305 118.831 92.3924 118.898 91.9663 118.898C91.4379 118.898 90.9634 118.773 90.543 118.523C90.1254 118.273 89.7944 117.909 89.5501 117.432C89.3086 116.955 89.1879 116.375 89.1879 115.693C89.1879 115.023 89.3058 114.439 89.5415 113.942C89.7773 113.442 90.1055 113.055 90.5259 112.783C90.9464 112.507 91.4322 112.369 91.9833 112.369C92.4094 112.369 92.7475 112.44 92.9975 112.582C93.2504 112.722 93.4435 112.881 93.5771 113.06C93.7134 113.236 93.8185 113.381 93.8924 113.494H93.9947V112.455H94.9663V119.188C94.9663 119.75 94.8384 120.207 94.5827 120.56C94.3299 120.915 93.989 121.175 93.56 121.339C93.1339 121.507 92.6594 121.591 92.1367 121.591ZM92.1026 117.994C92.506 117.994 92.8469 117.902 93.1254 117.717C93.4038 117.533 93.6154 117.267 93.7603 116.92C93.9052 116.574 93.9776 116.159 93.9776 115.676C93.9776 115.205 93.9066 114.788 93.7646 114.428C93.6225 114.067 93.4123 113.784 93.1339 113.58C92.8555 113.375 92.5117 113.273 92.1026 113.273C91.6765 113.273 91.3214 113.381 91.0373 113.597C90.756 113.812 90.5444 114.102 90.4023 114.466C90.2631 114.83 90.1935 115.233 90.1935 115.676C90.1935 116.131 90.2646 116.533 90.4066 116.882C90.5515 117.229 90.7646 117.501 91.0458 117.7C91.3299 117.896 91.6822 117.994 92.1026 117.994ZM100.079 119V110.273H101.084V113.494H101.169C101.243 113.381 101.346 113.236 101.476 113.06C101.61 112.881 101.8 112.722 102.047 112.582C102.297 112.44 102.635 112.369 103.061 112.369C103.613 112.369 104.098 112.507 104.519 112.783C104.939 113.058 105.267 113.449 105.503 113.955C105.739 114.46 105.857 115.057 105.857 115.744C105.857 116.438 105.739 117.038 105.503 117.547C105.267 118.053 104.941 118.445 104.523 118.723C104.106 118.999 103.624 119.136 103.079 119.136C102.658 119.136 102.321 119.067 102.069 118.928C101.816 118.786 101.621 118.625 101.485 118.446C101.348 118.264 101.243 118.114 101.169 117.994H101.05V119H100.079ZM101.067 115.727C101.067 116.222 101.14 116.658 101.285 117.036C101.429 117.411 101.641 117.705 101.919 117.918C102.198 118.128 102.539 118.233 102.942 118.233C103.363 118.233 103.713 118.122 103.995 117.901C104.279 117.676 104.492 117.375 104.634 116.997C104.779 116.616 104.851 116.193 104.851 115.727C104.851 115.267 104.78 114.852 104.638 114.483C104.499 114.111 104.287 113.817 104.003 113.601C103.722 113.382 103.368 113.273 102.942 113.273C102.533 113.273 102.189 113.376 101.911 113.584C101.633 113.788 101.422 114.075 101.28 114.445C101.138 114.811 101.067 115.239 101.067 115.727ZM111.4 116.324V112.455H112.406V119H111.4V117.892H111.332C111.179 118.224 110.94 118.507 110.616 118.74C110.292 118.97 109.883 119.085 109.389 119.085C108.98 119.085 108.616 118.996 108.298 118.817C107.98 118.635 107.73 118.362 107.548 117.999C107.366 117.632 107.275 117.17 107.275 116.614V112.455H108.281V116.545C108.281 117.023 108.415 117.403 108.682 117.688C108.951 117.972 109.295 118.114 109.713 118.114C109.963 118.114 110.217 118.05 110.476 117.922C110.737 117.794 110.956 117.598 111.132 117.334C111.311 117.07 111.4 116.733 111.4 116.324ZM116.6 119.136C116.054 119.136 115.573 118.999 115.155 118.723C114.737 118.445 114.411 118.053 114.175 117.547C113.939 117.038 113.821 116.438 113.821 115.744C113.821 115.057 113.939 114.46 114.175 113.955C114.411 113.449 114.739 113.058 115.159 112.783C115.58 112.507 116.065 112.369 116.617 112.369C117.043 112.369 117.379 112.44 117.627 112.582C117.877 112.722 118.067 112.881 118.198 113.06C118.331 113.236 118.435 113.381 118.509 113.494H118.594V110.273H119.6V119H118.628V117.994H118.509C118.435 118.114 118.33 118.264 118.193 118.446C118.057 118.625 117.862 118.786 117.609 118.928C117.357 119.067 117.02 119.136 116.6 119.136ZM116.736 118.233C117.139 118.233 117.48 118.128 117.759 117.918C118.037 117.705 118.249 117.411 118.394 117.036C118.538 116.658 118.611 116.222 118.611 115.727C118.611 115.239 118.54 114.811 118.398 114.445C118.256 114.075 118.046 113.788 117.767 113.584C117.489 113.376 117.145 113.273 116.736 113.273C116.31 113.273 115.955 113.382 115.671 113.601C115.389 113.817 115.178 114.111 115.036 114.483C114.896 114.852 114.827 115.267 114.827 115.727C114.827 116.193 114.898 116.616 115.04 116.997C115.185 117.375 115.398 117.676 115.679 117.901C115.963 118.122 116.315 118.233 116.736 118.233ZM124.103 121.591C123.617 121.591 123.2 121.528 122.85 121.403C122.501 121.281 122.21 121.119 121.977 120.918C121.747 120.719 121.563 120.506 121.427 120.278L122.228 119.716C122.319 119.835 122.434 119.972 122.573 120.125C122.713 120.281 122.903 120.416 123.144 120.53C123.389 120.646 123.708 120.705 124.103 120.705C124.632 120.705 125.068 120.577 125.411 120.321C125.755 120.065 125.927 119.665 125.927 119.119V117.79H125.842C125.768 117.909 125.663 118.057 125.526 118.233C125.393 118.406 125.2 118.561 124.947 118.697C124.697 118.831 124.359 118.898 123.933 118.898C123.404 118.898 122.93 118.773 122.509 118.523C122.092 118.273 121.761 117.909 121.516 117.432C121.275 116.955 121.154 116.375 121.154 115.693C121.154 115.023 121.272 114.439 121.508 113.942C121.744 113.442 122.072 113.055 122.492 112.783C122.913 112.507 123.399 112.369 123.95 112.369C124.376 112.369 124.714 112.44 124.964 112.582C125.217 112.722 125.41 112.881 125.543 113.06C125.68 113.236 125.785 113.381 125.859 113.494H125.961V112.455H126.933V119.188C126.933 119.75 126.805 120.207 126.549 120.56C126.296 120.915 125.955 121.175 125.526 121.339C125.1 121.507 124.626 121.591 124.103 121.591ZM124.069 117.994C124.472 117.994 124.813 117.902 125.092 117.717C125.37 117.533 125.582 117.267 125.727 116.92C125.872 116.574 125.944 116.159 125.944 115.676C125.944 115.205 125.873 114.788 125.731 114.428C125.589 114.067 125.379 113.784 125.1 113.58C124.822 113.375 124.478 113.273 124.069 113.273C123.643 113.273 123.288 113.381 123.004 113.597C122.722 113.812 122.511 114.102 122.369 114.466C122.23 114.83 122.16 115.233 122.16 115.676C122.16 116.131 122.231 116.533 122.373 116.882C122.518 117.229 122.731 117.501 123.012 117.7C123.296 117.896 123.649 117.994 124.069 117.994ZM131.398 119.136C130.767 119.136 130.223 118.997 129.766 118.719C129.311 118.438 128.96 118.045 128.713 117.543C128.469 117.037 128.347 116.449 128.347 115.778C128.347 115.108 128.469 114.517 128.713 114.006C128.96 113.491 129.304 113.091 129.744 112.804C130.188 112.514 130.705 112.369 131.296 112.369C131.637 112.369 131.973 112.426 132.306 112.54C132.638 112.653 132.941 112.838 133.213 113.094C133.486 113.347 133.703 113.682 133.865 114.099C134.027 114.517 134.108 115.031 134.108 115.642V116.068H129.063V115.199H133.085C133.085 114.83 133.012 114.5 132.864 114.21C132.719 113.92 132.512 113.692 132.242 113.524C131.975 113.357 131.659 113.273 131.296 113.273C130.895 113.273 130.548 113.372 130.256 113.571C129.966 113.767 129.743 114.023 129.587 114.338C129.431 114.653 129.352 114.991 129.352 115.352V115.932C129.352 116.426 129.438 116.845 129.608 117.189C129.781 117.53 130.021 117.79 130.328 117.969C130.635 118.145 130.992 118.233 131.398 118.233C131.662 118.233 131.901 118.196 132.114 118.122C132.33 118.045 132.516 117.932 132.672 117.781C132.828 117.628 132.949 117.437 133.034 117.21L134.006 117.483C133.904 117.812 133.732 118.102 133.49 118.352C133.249 118.599 132.95 118.793 132.595 118.932C132.24 119.068 131.841 119.136 131.398 119.136ZM138.365 112.455V113.307H134.972V112.455H138.365ZM135.961 110.886H136.967V117.125C136.967 117.409 137.008 117.622 137.09 117.764C137.176 117.903 137.284 117.997 137.414 118.045C137.548 118.091 137.688 118.114 137.836 118.114C137.947 118.114 138.038 118.108 138.109 118.097C138.18 118.082 138.237 118.071 138.279 118.062L138.484 118.966C138.416 118.991 138.321 119.017 138.198 119.043C138.076 119.071 137.921 119.085 137.734 119.085C137.45 119.085 137.171 119.024 136.899 118.902C136.629 118.78 136.404 118.594 136.225 118.344C136.049 118.094 135.961 117.778 135.961 117.398V110.886Z" fill="#191A1D"/>
<path d="M161.881 87.7183C163.538 87.7173 164.886 86.3727 164.819 84.7172C164.391 74.2485 161.758 63.9758 157.079 54.5758C151.954 44.2795 144.514 35.31 135.343 28.3705L123.547 43.9603C130.311 49.0782 135.798 55.6932 139.577 63.2867C142.911 69.9837 144.836 77.2812 145.248 84.7295C145.339 86.3838 146.674 87.7272 148.331 87.7262L161.881 87.7183Z" fill="#E3E7EB" stroke="white" stroke-width="0.930929"/>
<path d="M32.6554 84.8906C34.2724 84.9188 35.612 83.6586 35.7802 82.0501C37.054 69.8653 42.3721 58.4196 50.935 49.5698C60.2647 39.9276 72.8012 34.0338 86.1784 33.0007C99.5556 31.9677 112.848 35.867 123.548 43.9625L135.344 28.3727C120.836 17.3956 102.812 12.1086 84.6732 13.5093C66.5346 14.91 49.536 22.9016 36.8856 35.9758C24.2351 49.0501 16.8078 66.3027 16.0053 84.4776C16.0024 84.5446 16.0553 84.6009 16.1224 84.602L32.6554 84.8906Z" fill="#1184E9" stroke="white" stroke-width="0.930929"/>
<path d="M79.0782 59.465C79.2346 59.465 79.3494 59.3978 79.4225 59.2633C79.4955 59.1288 79.4905 58.9958 79.4074 58.8644L75.5561 52.7192C75.4782 52.5962 75.3695 52.5346 75.2302 52.5346C75.0909 52.5346 74.9811 52.5962 74.901 52.7192L71.0632 58.8644C70.9835 58.9958 70.9794 59.1288 71.0507 59.2633C71.1221 59.3978 71.236 59.465 71.3924 59.465H79.0782Z" fill="#388E3C"/>
<path d="M86.0914 51.7727V60.5H85.0346V52.8807H84.9835L82.8528 54.2955V53.2216L85.0346 51.7727H86.0914ZM88.4814 60.5V59.733L91.362 56.5795C91.7001 56.2102 91.9785 55.8892 92.1973 55.6165C92.416 55.3409 92.5779 55.0824 92.6831 54.8409C92.791 54.5966 92.845 54.3409 92.845 54.0739C92.845 53.767 92.7711 53.5014 92.6234 53.277C92.4785 53.0526 92.2797 52.8793 92.0268 52.7571C91.774 52.6349 91.4899 52.5739 91.1745 52.5739C90.8393 52.5739 90.5467 52.6435 90.2967 52.7827C90.0495 52.919 89.8578 53.1108 89.7214 53.358C89.5879 53.6051 89.5211 53.8949 89.5211 54.2273H88.5154C88.5154 53.7159 88.6333 53.267 88.8691 52.8807C89.1049 52.4943 89.426 52.1932 89.8322 51.9773C90.2413 51.7614 90.7001 51.6534 91.2086 51.6534C91.72 51.6534 92.1731 51.7614 92.568 51.9773C92.9629 52.1932 93.2725 52.4844 93.497 52.8509C93.7214 53.2173 93.8336 53.625 93.8336 54.0739C93.8336 54.3949 93.7754 54.7088 93.6589 55.0156C93.5453 55.3196 93.3464 55.6591 93.0623 56.0341C92.7811 56.4062 92.3904 56.8608 91.8904 57.3977L89.9302 59.4943V59.5625H93.987V60.5H88.4814ZM100.076 58.8636V58.4034C100.076 58.0852 100.141 57.794 100.272 57.5298C100.405 57.2628 100.599 57.0497 100.851 56.8906C101.107 56.7287 101.417 56.6477 101.78 56.6477C102.15 56.6477 102.459 56.7287 102.709 56.8906C102.959 57.0497 103.148 57.2628 103.276 57.5298C103.404 57.794 103.468 58.0852 103.468 58.4034V58.8636C103.468 59.1818 103.403 59.4744 103.272 59.7415C103.144 60.0057 102.954 60.2187 102.701 60.3807C102.451 60.5398 102.144 60.6193 101.78 60.6193C101.411 60.6193 101.1 60.5398 100.847 60.3807C100.594 60.2187 100.403 60.0057 100.272 59.7415C100.141 59.4744 100.076 59.1818 100.076 58.8636ZM100.945 58.4034V58.8636C100.945 59.1278 101.008 59.3651 101.133 59.5753C101.258 59.7827 101.474 59.8864 101.78 59.8864C102.079 59.8864 102.289 59.7827 102.411 59.5753C102.536 59.3651 102.599 59.1278 102.599 58.8636V58.4034C102.599 58.1392 102.539 57.9034 102.42 57.696C102.3 57.4858 102.087 57.3807 101.78 57.3807C101.482 57.3807 101.268 57.4858 101.137 57.696C101.009 57.9034 100.945 58.1392 100.945 58.4034ZM95.7293 53.8693V53.4091C95.7293 53.0909 95.7946 52.7997 95.9253 52.5355C96.0588 52.2685 96.252 52.0554 96.5048 51.8963C96.7605 51.7344 97.0702 51.6534 97.4338 51.6534C97.8031 51.6534 98.1128 51.7344 98.3628 51.8963C98.6128 52.0554 98.8017 52.2685 98.9295 52.5355C99.0574 52.7997 99.1213 53.0909 99.1213 53.4091V53.8693C99.1213 54.1875 99.056 54.4801 98.9253 54.7472C98.7974 55.0114 98.6071 55.2244 98.3543 55.3864C98.1043 55.5455 97.7974 55.625 97.4338 55.625C97.0645 55.625 96.7534 55.5455 96.5006 55.3864C96.2477 55.2244 96.056 55.0114 95.9253 54.7472C95.7946 54.4801 95.7293 54.1875 95.7293 53.8693ZM96.5986 53.4091V53.8693C96.5986 54.1335 96.6611 54.3707 96.7861 54.581C96.9111 54.7884 97.127 54.892 97.4338 54.892C97.7321 54.892 97.9423 54.7884 98.0645 54.581C98.1895 54.3707 98.252 54.1335 98.252 53.8693V53.4091C98.252 53.1449 98.1923 52.9091 98.073 52.7017C97.9537 52.4915 97.7406 52.3864 97.4338 52.3864C97.1355 52.3864 96.921 52.4915 96.7903 52.7017C96.6625 52.9091 96.5986 53.1449 96.5986 53.4091ZM96.0531 60.5L102.053 51.7727H103.025L97.0247 60.5H96.0531Z" fill="#388E3C"/>
</g>
<defs>
<filter id="filter0_dddddd_2693_138057" x="-80" y="-28" width="342" height="290" filterUnits="userSpaceOnUse" color-interpolation-filters="sRGB">
<feFlood flood-opacity="0" result="BackgroundImageFix"/>
<feColorMatrix in="SourceAlpha" type="matrix" values="0 0 0 0 0 0 0 0 0 0 0 0 0 0 0 0 0 0 127 0" result="hardAlpha"/>
<feOffset dy="1.43897"/>
<feGaussianBlur stdDeviation="1.1069"/>
<feColorMatrix type="matrix" values="0 0 0 0 0.109804 0 0 0 0 0.164706 0 0 0 0 0.278431 0 0 0 0.0168687 0"/>
<feBlend mode="normal" in2="BackgroundImageFix" result="effect1_dropShadow_2693_138057"/>
<feColorMatrix in="SourceAlpha" type="matrix" values="0 0 0 0 0 0 0 0 0 0 0 0 0 0 0 0 0 0 127 0" result="hardAlpha"/>
<feOffset dy="3.45805"/>
<feGaussianBlur stdDeviation="2.66004"/>
<feColorMatrix type="matrix" values="0 0 0 0 0.109804 0 0 0 0 0.164706 0 0 0 0 0.278431 0 0 0 0.0242336 0"/>
<feBlend mode="normal" in2="effect1_dropShadow_2693_138057" result="effect2_dropShadow_2693_138057"/>
<feColorMatrix in="SourceAlpha" type="matrix" values="0 0 0 0 0 0 0 0 0 0 0 0 0 0 0 0 0 0 127 0" result="hardAlpha"/>
<feOffset dy="6.51121"/>
<feGaussianBlur stdDeviation="5.00862"/>
<feColorMatrix type="matrix" values="0 0 0 0 0.109804 0 0 0 0 0.164706 0 0 0 0 0.278431 0 0 0 0.03 0"/>
<feBlend mode="normal" in2="effect2_dropShadow_2693_138057" result="effect3_dropShadow_2693_138057"/>
<feColorMatrix in="SourceAlpha" type="matrix" values="0 0 0 0 0 0 0 0 0 0 0 0 0 0 0 0 0 0 127 0" result="hardAlpha"/>
<feOffset dy="11.6149"/>
<feGaussianBlur stdDeviation="8.93452"/>
<feColorMatrix type="matrix" values="0 0 0 0 0.109804 0 0 0 0 0.164706 0 0 0 0 0.278431 0 0 0 0.0357664 0"/>
<feBlend mode="normal" in2="effect3_dropShadow_2693_138057" result="effect4_dropShadow_2693_138057"/>
<feColorMatrix in="SourceAlpha" type="matrix" values="0 0 0 0 0 0 0 0 0 0 0 0 0 0 0 0 0 0 127 0" result="hardAlpha"/>
<feOffset dy="21.7244"/>
<feGaussianBlur stdDeviation="16.711"/>
<feColorMatrix type="matrix" values="0 0 0 0 0.109804 0 0 0 0 0.164706 0 0 0 0 0.278431 0 0 0 0.0431313 0"/>
<feBlend mode="normal" in2="effect4_dropShadow_2693_138057" result="effect5_dropShadow_2693_138057"/>
<feColorMatrix in="SourceAlpha" type="matrix" values="0 0 0 0 0 0 0 0 0 0 0 0 0 0 0 0 0 0 127 0" result="hardAlpha"/>
<feOffset dy="52"/>
<feGaussianBlur stdDeviation="40"/>
<feColorMatrix type="matrix" values="0 0 0 0 0.109804 0 0 0 0 0.164706 0 0 0 0 0.278431 0 0 0 0.06 0"/>
<feBlend mode="normal" in2="effect5_dropShadow_2693_138057" result="effect6_dropShadow_2693_138057"/>
<feBlend mode="normal" in="SourceGraphic" in2="effect6_dropShadow_2693_138057" result="shape"/>
</filter>
</defs>
</svg>
