<svg width="182" height="130" viewBox="0 0 182 130" fill="none" xmlns="http://www.w3.org/2000/svg">
<g filter="url(#filter0_dddddd_2693_138058)">
<rect width="182" height="130" rx="12" fill="white"/>
<path d="M17.3423 30.4205V27.0298L25.8438 13.6364H28.767V18.3295H27.0369L21.6776 26.8111V26.9702H33.7585V30.4205H17.3423ZM27.1165 34V29.3864L27.196 27.8849V13.6364H31.233V34H27.1165ZM37.1525 34L45.5943 17.2955V17.1562H35.7605V13.6364H50.0488V17.206L41.5971 34H37.1525ZM63.8658 30.1818V29.108C63.8658 28.2926 64.0381 27.5436 64.3828 26.8608C64.7342 26.1714 65.2413 25.6212 65.9041 25.2102C66.5736 24.7926 67.389 24.5838 68.3502 24.5838C69.3246 24.5838 70.1432 24.7893 70.8061 25.2003C71.4756 25.6113 71.9794 26.1615 72.3175 26.8509C72.6622 27.5336 72.8345 28.286 72.8345 29.108V30.1818C72.8345 30.9972 72.6622 31.7495 72.3175 32.4389C71.9728 33.1217 71.4657 33.6686 70.7962 34.0795C70.1267 34.4972 69.3113 34.706 68.3502 34.706C67.3757 34.706 66.5571 34.4972 65.8942 34.0795C65.2313 33.6686 64.7275 33.1217 64.3828 32.4389C64.0381 31.7495 63.8658 30.9972 63.8658 30.1818ZM66.7592 29.108V30.1818C66.7592 30.6525 66.8719 31.0966 67.0973 31.5142C67.3293 31.9318 67.7469 32.1406 68.3502 32.1406C68.9534 32.1406 69.3644 31.9351 69.5831 31.5241C69.8085 31.1132 69.9212 30.6657 69.9212 30.1818V29.108C69.9212 28.6241 69.8151 28.1733 69.603 27.7557C69.3909 27.3381 68.9733 27.1293 68.3502 27.1293C67.7536 27.1293 67.3393 27.3381 67.1073 27.7557C66.8752 28.1733 66.7592 28.6241 66.7592 29.108ZM53.4155 18.5284V17.4545C53.4155 16.6326 53.5912 15.8802 53.9425 15.1974C54.2938 14.508 54.8009 13.9579 55.4638 13.5469C56.1333 13.1359 56.942 12.9304 57.8899 12.9304C58.871 12.9304 59.693 13.1359 60.3558 13.5469C61.0187 13.9579 61.5225 14.508 61.8672 15.1974C62.2119 15.8802 62.3842 16.6326 62.3842 17.4545V18.5284C62.3842 19.3504 62.2086 20.1027 61.8573 20.7855C61.5126 21.4683 61.0055 22.0152 60.336 22.4261C59.6731 22.8305 58.8577 23.0327 57.8899 23.0327C56.9221 23.0327 56.1035 22.8272 55.434 22.4162C54.7711 21.9986 54.2673 21.4517 53.9226 20.7756C53.5845 20.0928 53.4155 19.3437 53.4155 18.5284ZM56.3288 17.4545V18.5284C56.3288 19.0123 56.4415 19.4598 56.6669 19.8707C56.8989 20.2817 57.3066 20.4872 57.8899 20.4872C58.4998 20.4872 58.9141 20.2817 59.1328 19.8707C59.3582 19.4598 59.4709 19.0123 59.4709 18.5284V17.4545C59.4709 16.9706 59.3648 16.5199 59.1527 16.1023C58.9406 15.6847 58.5197 15.4759 57.8899 15.4759C57.3 15.4759 56.8923 15.688 56.6669 16.1122C56.4415 16.5365 56.3288 16.9839 56.3288 17.4545ZM54.728 34L68.728 13.6364H71.3331L57.3331 34H54.728Z" fill="#191A1D"/>
<path d="M24.0783 54.465C24.2347 54.465 24.3494 54.3978 24.4225 54.2633C24.4956 54.1288 24.4906 53.9958 24.4075 53.8644L20.5562 47.7192C20.4782 47.5962 20.3696 47.5346 20.2302 47.5346C20.0909 47.5346 19.9812 47.5962 19.9011 47.7192L16.0633 53.8644C15.9836 53.9958 15.9794 54.1288 16.0508 54.2633C16.1221 54.3978 16.236 54.465 16.3924 54.465H24.0783Z" fill="#388E3C"/>
<path d="M31.0915 46.7727V55.5H30.0347V47.8807H29.9835L27.8528 49.2955V48.2216L30.0347 46.7727H31.0915ZM33.4814 55.5V54.733L36.3621 51.5795C36.7002 51.2102 36.9786 50.8892 37.1973 50.6165C37.4161 50.3409 37.578 50.0824 37.6831 49.8409C37.7911 49.5966 37.8451 49.3409 37.8451 49.0739C37.8451 48.767 37.7712 48.5014 37.6235 48.277C37.4786 48.0526 37.2797 47.8793 37.0269 47.7571C36.774 47.6349 36.4899 47.5739 36.1746 47.5739C35.8394 47.5739 35.5468 47.6435 35.2968 47.7827C35.0496 47.919 34.8578 48.1108 34.7215 48.358C34.588 48.6051 34.5212 48.8949 34.5212 49.2273H33.5155C33.5155 48.7159 33.6334 48.267 33.8692 47.8807C34.105 47.4943 34.426 47.1932 34.8323 46.9773C35.2414 46.7614 35.7002 46.6534 36.2087 46.6534C36.7201 46.6534 37.1732 46.7614 37.5681 46.9773C37.963 47.1932 38.2726 47.4844 38.497 47.8509C38.7215 48.2173 38.8337 48.625 38.8337 49.0739C38.8337 49.3949 38.7755 49.7088 38.659 50.0156C38.5453 50.3196 38.3465 50.6591 38.0624 51.0341C37.7811 51.4062 37.3905 51.8608 36.8905 52.3977L34.9303 54.4943V54.5625H38.9871V55.5H33.4814ZM45.0759 53.8636V53.4034C45.0759 53.0852 45.1412 52.794 45.2719 52.5298C45.4055 52.2628 45.5986 52.0497 45.8515 51.8906C46.1072 51.7287 46.4168 51.6477 46.7805 51.6477C47.1498 51.6477 47.4594 51.7287 47.7094 51.8906C47.9594 52.0497 48.1483 52.2628 48.2762 52.5298C48.404 52.794 48.468 53.0852 48.468 53.4034V53.8636C48.468 54.1818 48.4026 54.4744 48.2719 54.7415C48.1441 55.0057 47.9537 55.2187 47.7009 55.3807C47.4509 55.5398 47.1441 55.6193 46.7805 55.6193C46.4111 55.6193 46.1001 55.5398 45.8472 55.3807C45.5944 55.2187 45.4026 55.0057 45.2719 54.7415C45.1412 54.4744 45.0759 54.1818 45.0759 53.8636ZM45.9452 53.4034V53.8636C45.9452 54.1278 46.0077 54.3651 46.1327 54.5753C46.2577 54.7827 46.4736 54.8864 46.7805 54.8864C47.0787 54.8864 47.289 54.7827 47.4111 54.5753C47.5361 54.3651 47.5986 54.1278 47.5986 53.8636V53.4034C47.5986 53.1392 47.539 52.9034 47.4197 52.696C47.3003 52.4858 47.0873 52.3807 46.7805 52.3807C46.4822 52.3807 46.2677 52.4858 46.137 52.696C46.0091 52.9034 45.9452 53.1392 45.9452 53.4034ZM40.7293 48.8693V48.4091C40.7293 48.0909 40.7947 47.7997 40.9253 47.5355C41.0589 47.2685 41.252 47.0554 41.5049 46.8963C41.7606 46.7344 42.0702 46.6534 42.4339 46.6534C42.8032 46.6534 43.1128 46.7344 43.3628 46.8963C43.6128 47.0554 43.8018 47.2685 43.9296 47.5355C44.0574 47.7997 44.1214 48.0909 44.1214 48.4091V48.8693C44.1214 49.1875 44.056 49.4801 43.9253 49.7472C43.7975 50.0114 43.6072 50.2244 43.3543 50.3864C43.1043 50.5455 42.7975 50.625 42.4339 50.625C42.0645 50.625 41.7535 50.5455 41.5006 50.3864C41.2478 50.2244 41.056 50.0114 40.9253 49.7472C40.7947 49.4801 40.7293 49.1875 40.7293 48.8693ZM41.5986 48.4091V48.8693C41.5986 49.1335 41.6611 49.3707 41.7861 49.581C41.9111 49.7884 42.127 49.892 42.4339 49.892C42.7322 49.892 42.9424 49.7884 43.0645 49.581C43.1895 49.3707 43.252 49.1335 43.252 48.8693V48.4091C43.252 48.1449 43.1924 47.9091 43.0731 47.7017C42.9537 47.4915 42.7407 47.3864 42.4339 47.3864C42.1356 47.3864 41.9211 47.4915 41.7904 47.7017C41.6626 47.9091 41.5986 48.1449 41.5986 48.4091ZM41.0532 55.5L47.0532 46.7727H48.0248L42.0248 55.5H41.0532Z" fill="#388E3C"/>
<path d="M17.6506 97H16.358L20.0966 86.8182H21.3693L25.108 97H23.8153L20.7727 88.429H20.6932L17.6506 97ZM18.1278 93.0227H23.3381V94.1165H18.1278V93.0227ZM29.4971 97.1591C28.7812 97.1591 28.1647 96.9901 27.6476 96.652C27.1306 96.3139 26.7329 95.8482 26.4545 95.255C26.1761 94.6617 26.0368 93.9839 26.0368 93.2216C26.0368 92.446 26.1794 91.7616 26.4644 91.1683C26.7528 90.5717 27.1538 90.1061 27.6675 89.7713C28.1846 89.4332 28.7878 89.2642 29.4772 89.2642C30.0141 89.2642 30.498 89.3636 30.9289 89.5625C31.3598 89.7614 31.7127 90.0398 31.9878 90.3977C32.2629 90.7557 32.4336 91.1733 32.4999 91.6506H31.3266C31.2371 91.3026 31.0383 90.9943 30.73 90.7259C30.4251 90.4541 30.0141 90.3182 29.4971 90.3182C29.0397 90.3182 28.6386 90.4375 28.2939 90.6761C27.9526 90.9115 27.6858 91.2446 27.4935 91.6754C27.3046 92.103 27.2101 92.6051 27.2101 93.1818C27.2101 93.7718 27.3029 94.2855 27.4886 94.723C27.6775 95.1605 27.9426 95.5002 28.284 95.7422C28.6287 95.9841 29.0331 96.1051 29.4971 96.1051C29.802 96.1051 30.0787 96.0521 30.3273 95.946C30.5759 95.84 30.7864 95.6875 30.9587 95.4886C31.1311 95.2898 31.2537 95.0511 31.3266 94.7727H32.4999C32.4336 95.2235 32.2696 95.6295 32.0077 95.9908C31.7492 96.3487 31.4062 96.6338 30.9786 96.8459C30.5544 97.0547 30.0605 97.1591 29.4971 97.1591ZM37.3961 89.3636V90.358H33.4387V89.3636H37.3961ZM34.5922 87.5341H35.7655V94.8125C35.7655 95.1439 35.8135 95.3925 35.9096 95.5582C36.0091 95.7206 36.135 95.83 36.2875 95.8864C36.4432 95.9394 36.6073 95.9659 36.7797 95.9659C36.9089 95.9659 37.015 95.9593 37.0978 95.946C37.1807 95.9295 37.247 95.9162 37.2967 95.9062L37.5353 96.9602C37.4558 96.9901 37.3448 97.0199 37.2022 97.0497C37.0597 97.0829 36.8791 97.0994 36.6603 97.0994C36.3289 97.0994 36.0041 97.0282 35.6859 96.8857C35.371 96.7431 35.1092 96.526 34.9004 96.2344C34.6949 95.9427 34.5922 95.5748 34.5922 95.1307V87.5341ZM39.0211 97V89.3636H40.1943V97H39.0211ZM39.6176 88.0909C39.3889 88.0909 39.1917 88.013 39.026 87.8572C38.8636 87.7015 38.7824 87.5142 38.7824 87.2955C38.7824 87.0767 38.8636 86.8894 39.026 86.7337C39.1917 86.5779 39.3889 86.5 39.6176 86.5C39.8463 86.5 40.0419 86.5779 40.2043 86.7337C40.37 86.8894 40.4529 87.0767 40.4529 87.2955C40.4529 87.5142 40.37 87.7015 40.2043 87.8572C40.0419 88.013 39.8463 88.0909 39.6176 88.0909ZM48.4476 89.3636L45.6238 97H44.4306L41.6067 89.3636H42.8795L44.9874 95.4489H45.067L47.1749 89.3636H48.4476ZM49.8563 97V89.3636H51.0296V97H49.8563ZM50.4529 88.0909C50.2242 88.0909 50.027 88.013 49.8613 87.8572C49.6989 87.7015 49.6176 87.5142 49.6176 87.2955C49.6176 87.0767 49.6989 86.8894 49.8613 86.7337C50.027 86.5779 50.2242 86.5 50.4529 86.5C50.6816 86.5 50.8771 86.5779 51.0395 86.7337C51.2052 86.8894 51.2881 87.0767 51.2881 87.2955C51.2881 87.5142 51.2052 87.7015 51.0395 87.8572C50.8771 88.013 50.6816 88.0909 50.4529 88.0909ZM56.3596 89.3636V90.358H52.4022V89.3636H56.3596ZM53.5556 87.5341H54.7289V94.8125C54.7289 95.1439 54.777 95.3925 54.8731 95.5582C54.9725 95.7206 55.0984 95.83 55.2509 95.8864C55.4067 95.9394 55.5707 95.9659 55.7431 95.9659C55.8724 95.9659 55.9784 95.9593 56.0613 95.946C56.1441 95.9295 56.2104 95.9162 56.2601 95.9062L56.4988 96.9602C56.4192 96.9901 56.3082 97.0199 56.1657 97.0497C56.0232 97.0829 55.8425 97.0994 55.6238 97.0994C55.2923 97.0994 54.9675 97.0282 54.6493 96.8857C54.3345 96.7431 54.0726 96.526 53.8638 96.2344C53.6583 95.9427 53.5556 95.5748 53.5556 95.1307V87.5341ZM58.7402 99.8636C58.5413 99.8636 58.364 99.8471 58.2082 99.8139C58.0524 99.7841 57.9447 99.7543 57.8851 99.7244L58.1834 98.6903C58.4684 98.7633 58.7203 98.7898 58.939 98.7699C59.1578 98.75 59.3517 98.6522 59.5207 98.4766C59.6931 98.3042 59.8505 98.0241 59.993 97.6364L60.2118 97.0398L57.3879 89.3636H58.6606L60.7686 95.4489H60.8481L62.9561 89.3636H64.2288L60.9873 98.1136C60.8415 98.508 60.6609 98.8345 60.4454 99.093C60.23 99.3549 59.9798 99.5488 59.6947 99.6747C59.413 99.8007 59.0948 99.8636 58.7402 99.8636ZM68.4439 86.3409L65.1627 98.5312H64.0888L67.3701 86.3409H68.4439ZM69.6947 97V89.3636H70.8282V90.5568H70.9277C71.0868 90.1491 71.3436 89.8326 71.6983 89.6072C72.0529 89.3786 72.4788 89.2642 72.976 89.2642C73.4798 89.2642 73.899 89.3786 74.2338 89.6072C74.5719 89.8326 74.8353 90.1491 75.0243 90.5568H75.1038C75.2994 90.1624 75.5927 89.8492 75.9838 89.6172C76.3749 89.3819 76.8439 89.2642 77.3907 89.2642C78.0735 89.2642 78.632 89.478 79.0662 89.9055C79.5004 90.3298 79.7175 90.991 79.7175 91.8892V97H78.5442V91.8892C78.5442 91.3258 78.39 90.9231 78.0818 90.6811C77.7736 90.4392 77.4106 90.3182 76.993 90.3182C76.4561 90.3182 76.0401 90.4806 75.7452 90.8054C75.4502 91.1269 75.3027 91.5346 75.3027 92.0284V97H74.1095V91.7699C74.1095 91.3357 73.9686 90.986 73.6869 90.7209C73.4052 90.4524 73.0423 90.3182 72.5981 90.3182C72.2932 90.3182 72.0082 90.3994 71.743 90.5618C71.4812 90.7242 71.2691 90.9496 71.1067 91.2379C70.9476 91.523 70.868 91.8527 70.868 92.2273V97H69.6947ZM84.9244 97.1591C84.1886 97.1591 83.5539 96.9967 83.0203 96.6719C82.49 96.3438 82.0806 95.8864 81.7923 95.2997C81.5073 94.7098 81.3647 94.0237 81.3647 93.2415C81.3647 92.4593 81.5073 91.7699 81.7923 91.1733C82.0806 90.5734 82.4817 90.1061 82.9954 89.7713C83.5125 89.4332 84.1157 89.2642 84.8051 89.2642C85.2028 89.2642 85.5956 89.3305 85.9833 89.4631C86.3711 89.5956 86.7241 89.8111 87.0423 90.1094C87.3605 90.4044 87.614 90.7955 87.8029 91.2827C87.9919 91.7699 88.0863 92.3698 88.0863 93.0824V93.5795H82.2V92.5653H86.8931C86.8931 92.1345 86.807 91.75 86.6346 91.4119C86.4656 91.0739 86.2236 90.8071 85.9088 90.6115C85.5972 90.416 85.2293 90.3182 84.8051 90.3182C84.3377 90.3182 83.9334 90.4342 83.592 90.6662C83.2539 90.8949 82.9938 91.1932 82.8115 91.5611C82.6292 91.929 82.538 92.3234 82.538 92.7443V93.4205C82.538 93.9972 82.6375 94.486 82.8363 94.8871C83.0385 95.2848 83.3186 95.5881 83.6765 95.7969C84.0345 96.0024 84.4504 96.1051 84.9244 96.1051C85.2326 96.1051 85.511 96.062 85.7596 95.9759C86.0115 95.8864 86.2286 95.7538 86.4109 95.5781C86.5932 95.3991 86.7341 95.1771 86.8335 94.9119L87.967 95.2301C87.8477 95.6146 87.6472 95.9527 87.3654 96.2443C87.0837 96.5327 86.7357 96.758 86.3214 96.9205C85.9071 97.0795 85.4414 97.1591 84.9244 97.1591ZM93.0522 89.3636V90.358H89.0948V89.3636H93.0522ZM90.2482 87.5341H91.4215V94.8125C91.4215 95.1439 91.4695 95.3925 91.5656 95.5582C91.6651 95.7206 91.791 95.83 91.9435 95.8864C92.0993 95.9394 92.2633 95.9659 92.4357 95.9659C92.5649 95.9659 92.671 95.9593 92.7539 95.946C92.8367 95.9295 92.903 95.9162 92.9527 95.9062L93.1914 96.9602C93.1118 96.9901 93.0008 97.0199 92.8583 97.0497C92.7157 97.0829 92.5351 97.0994 92.3164 97.0994C91.9849 97.0994 91.6601 97.0282 91.3419 96.8857C91.0271 96.7431 90.7652 96.526 90.5564 96.2344C90.3509 95.9427 90.2482 95.5748 90.2482 95.1307V87.5341ZM94.6771 97V89.3636H95.8106V90.517H95.8901C96.0293 90.1392 96.2812 89.8326 96.6458 89.5973C97.0104 89.362 97.4214 89.2443 97.8788 89.2443C97.9649 89.2443 98.0727 89.246 98.2019 89.2493C98.3312 89.2526 98.429 89.2576 98.4952 89.2642V90.4574C98.4555 90.4474 98.3643 90.4325 98.2218 90.4126C98.0826 90.3894 97.9351 90.3778 97.7793 90.3778C97.4081 90.3778 97.0767 90.4557 96.785 90.6115C96.4967 90.764 96.268 90.9761 96.0989 91.2479C95.9332 91.5163 95.8504 91.8229 95.8504 92.1676V97H94.6771ZM99.7461 97V89.3636H100.919V97H99.7461ZM100.343 88.0909C100.114 88.0909 99.9167 88.013 99.751 87.8572C99.5886 87.7015 99.5074 87.5142 99.5074 87.2955C99.5074 87.0767 99.5886 86.8894 99.751 86.7337C99.9167 86.5779 100.114 86.5 100.343 86.5C100.571 86.5 100.767 86.5779 100.929 86.7337C101.095 86.8894 101.178 87.0767 101.178 87.2955C101.178 87.5142 101.095 87.7015 100.929 87.8572C100.767 88.013 100.571 88.0909 100.343 88.0909ZM106.031 97.1591C105.315 97.1591 104.698 96.9901 104.181 96.652C103.664 96.3139 103.266 95.8482 102.988 95.255C102.71 94.6617 102.57 93.9839 102.57 93.2216C102.57 92.446 102.713 91.7616 102.998 91.1683C103.286 90.5717 103.687 90.1061 104.201 89.7713C104.718 89.4332 105.321 89.2642 106.011 89.2642C106.548 89.2642 107.032 89.3636 107.462 89.5625C107.893 89.7614 108.246 90.0398 108.521 90.3977C108.796 90.7557 108.967 91.1733 109.033 91.6506H107.86C107.771 91.3026 107.572 90.9943 107.264 90.7259C106.959 90.4541 106.548 90.3182 106.031 90.3182C105.573 90.3182 105.172 90.4375 104.827 90.6761C104.486 90.9115 104.219 91.2446 104.027 91.6754C103.838 92.103 103.744 92.6051 103.744 93.1818C103.744 93.7718 103.836 94.2855 104.022 94.723C104.211 95.1605 104.476 95.5002 104.818 95.7422C105.162 95.9841 105.567 96.1051 106.031 96.1051C106.336 96.1051 106.612 96.0521 106.861 95.946C107.109 95.84 107.32 95.6875 107.492 95.4886C107.665 95.2898 107.787 95.0511 107.86 94.7727H109.033C108.967 95.2235 108.803 95.6295 108.541 95.9908C108.283 96.3487 107.94 96.6338 107.512 96.8459C107.088 97.0547 106.594 97.1591 106.031 97.1591ZM115.579 92.4062V97H114.406V89.3636H115.54V90.5568H115.639C115.818 90.169 116.09 89.8575 116.454 89.6222C116.819 89.3835 117.29 89.2642 117.866 89.2642C118.383 89.2642 118.836 89.3703 119.224 89.5824C119.611 89.7912 119.913 90.1094 120.128 90.5369C120.344 90.9612 120.452 91.4981 120.452 92.1477V97H119.278V92.2273C119.278 91.6274 119.123 91.16 118.811 90.8253C118.499 90.4872 118.072 90.3182 117.528 90.3182C117.154 90.3182 116.819 90.3994 116.524 90.5618C116.232 90.7242 116.002 90.9612 115.833 91.2727C115.664 91.5843 115.579 91.9621 115.579 92.4062ZM124.703 97.179C124.219 97.179 123.78 97.0878 123.385 96.9055C122.991 96.7199 122.678 96.4531 122.446 96.1051C122.214 95.7538 122.098 95.3295 122.098 94.8324C122.098 94.3949 122.184 94.0402 122.356 93.7685C122.529 93.4934 122.759 93.2779 123.047 93.1222C123.336 92.9664 123.654 92.8504 124.002 92.7741C124.353 92.6946 124.706 92.6316 125.061 92.5852C125.525 92.5256 125.901 92.4808 126.189 92.451C126.481 92.4179 126.693 92.3632 126.826 92.2869C126.962 92.2107 127.029 92.0781 127.029 91.8892V91.8494C127.029 91.3589 126.895 90.9777 126.627 90.706C126.362 90.4342 125.959 90.2983 125.419 90.2983C124.859 90.2983 124.419 90.4209 124.101 90.6662C123.783 90.9115 123.559 91.1733 123.43 91.4517L122.316 91.054C122.515 90.59 122.78 90.2287 123.112 89.9702C123.447 89.7083 123.811 89.526 124.206 89.4233C124.603 89.3172 124.994 89.2642 125.379 89.2642C125.624 89.2642 125.906 89.294 126.224 89.3537C126.546 89.41 126.855 89.5277 127.154 89.7067C127.455 89.8857 127.706 90.1558 127.904 90.517C128.103 90.8783 128.203 91.3622 128.203 91.9688V97H127.029V95.9659H126.97C126.89 96.1316 126.758 96.3089 126.572 96.4979C126.386 96.6868 126.14 96.8475 125.831 96.9801C125.523 97.1127 125.147 97.179 124.703 97.179ZM124.882 96.125C125.346 96.125 125.737 96.0339 126.055 95.8516C126.377 95.6693 126.618 95.4339 126.781 95.1456C126.947 94.8572 127.029 94.554 127.029 94.2358V93.1619C126.98 93.2216 126.87 93.2763 126.701 93.326C126.536 93.3724 126.343 93.4138 126.125 93.4503C125.909 93.4834 125.699 93.5133 125.493 93.5398C125.291 93.563 125.127 93.5829 125.001 93.5994C124.696 93.6392 124.411 93.7038 124.146 93.7933C123.884 93.8795 123.672 94.0104 123.51 94.1861C123.35 94.3584 123.271 94.5937 123.271 94.892C123.271 95.2997 123.422 95.608 123.723 95.8168C124.028 96.0223 124.414 96.125 124.882 96.125ZM130.204 97V89.3636H131.338V90.5568H131.437C131.596 90.1491 131.853 89.8326 132.208 89.6072C132.562 89.3786 132.988 89.2642 133.486 89.2642C133.989 89.2642 134.409 89.3786 134.743 89.6072C135.081 89.8326 135.345 90.1491 135.534 90.5568H135.613C135.809 90.1624 136.102 89.8492 136.493 89.6172C136.884 89.3819 137.353 89.2642 137.9 89.2642C138.583 89.2642 139.142 89.478 139.576 89.9055C140.01 90.3298 140.227 90.991 140.227 91.8892V97H139.054V91.8892C139.054 91.3258 138.9 90.9231 138.591 90.6811C138.283 90.4392 137.92 90.3182 137.503 90.3182C136.966 90.3182 136.55 90.4806 136.255 90.8054C135.96 91.1269 135.812 91.5346 135.812 92.0284V97H134.619V91.7699C134.619 91.3357 134.478 90.986 134.196 90.7209C133.915 90.4524 133.552 90.3182 133.108 90.3182C132.803 90.3182 132.518 90.3994 132.253 90.5618C131.991 90.7242 131.779 90.9496 131.616 91.2379C131.457 91.523 131.378 91.8527 131.378 92.2273V97H130.204ZM145.434 97.1591C144.698 97.1591 144.063 96.9967 143.53 96.6719C143 96.3438 142.59 95.8864 142.302 95.2997C142.017 94.7098 141.874 94.0237 141.874 93.2415C141.874 92.4593 142.017 91.7699 142.302 91.1733C142.59 90.5734 142.991 90.1061 143.505 89.7713C144.022 89.4332 144.625 89.2642 145.315 89.2642C145.712 89.2642 146.105 89.3305 146.493 89.4631C146.881 89.5956 147.234 89.8111 147.552 90.1094C147.87 90.4044 148.124 90.7955 148.312 91.2827C148.501 91.7699 148.596 92.3698 148.596 93.0824V93.5795H142.709V92.5653H147.403C147.403 92.1345 147.316 91.75 147.144 91.4119C146.975 91.0739 146.733 90.8071 146.418 90.6115C146.107 90.416 145.739 90.3182 145.315 90.3182C144.847 90.3182 144.443 90.4342 144.102 90.6662C143.763 90.8949 143.503 91.1932 143.321 91.5611C143.139 91.929 143.048 92.3234 143.048 92.7443V93.4205C143.048 93.9972 143.147 94.486 143.346 94.8871C143.548 95.2848 143.828 95.5881 144.186 95.7969C144.544 96.0024 144.96 96.1051 145.434 96.1051C145.742 96.1051 146.021 96.062 146.269 95.9759C146.521 95.8864 146.738 95.7538 146.92 95.5781C147.103 95.3991 147.244 95.1771 147.343 94.9119L148.477 95.2301C148.357 95.6146 148.157 95.9527 147.875 96.2443C147.593 96.5327 147.245 96.758 146.831 96.9205C146.417 97.0795 145.951 97.1591 145.434 97.1591Z" fill="#191A1D"/>
<rect width="150" height="4" transform="translate(16 110)" fill="#E3E7EB"/>
<rect x="16" y="110" width="72" height="4" fill="#FF7911"/>
</g>
<defs>
<filter id="filter0_dddddd_2693_138058" x="-80" y="-28" width="342" height="290" filterUnits="userSpaceOnUse" color-interpolation-filters="sRGB">
<feFlood flood-opacity="0" result="BackgroundImageFix"/>
<feColorMatrix in="SourceAlpha" type="matrix" values="0 0 0 0 0 0 0 0 0 0 0 0 0 0 0 0 0 0 127 0" result="hardAlpha"/>
<feOffset dy="1.43897"/>
<feGaussianBlur stdDeviation="1.1069"/>
<feColorMatrix type="matrix" values="0 0 0 0 0.109804 0 0 0 0 0.164706 0 0 0 0 0.278431 0 0 0 0.0168687 0"/>
<feBlend mode="normal" in2="BackgroundImageFix" result="effect1_dropShadow_2693_138058"/>
<feColorMatrix in="SourceAlpha" type="matrix" values="0 0 0 0 0 0 0 0 0 0 0 0 0 0 0 0 0 0 127 0" result="hardAlpha"/>
<feOffset dy="3.45805"/>
<feGaussianBlur stdDeviation="2.66004"/>
<feColorMatrix type="matrix" values="0 0 0 0 0.109804 0 0 0 0 0.164706 0 0 0 0 0.278431 0 0 0 0.0242336 0"/>
<feBlend mode="normal" in2="effect1_dropShadow_2693_138058" result="effect2_dropShadow_2693_138058"/>
<feColorMatrix in="SourceAlpha" type="matrix" values="0 0 0 0 0 0 0 0 0 0 0 0 0 0 0 0 0 0 127 0" result="hardAlpha"/>
<feOffset dy="6.51121"/>
<feGaussianBlur stdDeviation="5.00862"/>
<feColorMatrix type="matrix" values="0 0 0 0 0.109804 0 0 0 0 0.164706 0 0 0 0 0.278431 0 0 0 0.03 0"/>
<feBlend mode="normal" in2="effect2_dropShadow_2693_138058" result="effect3_dropShadow_2693_138058"/>
<feColorMatrix in="SourceAlpha" type="matrix" values="0 0 0 0 0 0 0 0 0 0 0 0 0 0 0 0 0 0 127 0" result="hardAlpha"/>
<feOffset dy="11.6149"/>
<feGaussianBlur stdDeviation="8.93452"/>
<feColorMatrix type="matrix" values="0 0 0 0 0.109804 0 0 0 0 0.164706 0 0 0 0 0.278431 0 0 0 0.0357664 0"/>
<feBlend mode="normal" in2="effect3_dropShadow_2693_138058" result="effect4_dropShadow_2693_138058"/>
<feColorMatrix in="SourceAlpha" type="matrix" values="0 0 0 0 0 0 0 0 0 0 0 0 0 0 0 0 0 0 127 0" result="hardAlpha"/>
<feOffset dy="21.7244"/>
<feGaussianBlur stdDeviation="16.711"/>
<feColorMatrix type="matrix" values="0 0 0 0 0.109804 0 0 0 0 0.164706 0 0 0 0 0.278431 0 0 0 0.0431313 0"/>
<feBlend mode="normal" in2="effect4_dropShadow_2693_138058" result="effect5_dropShadow_2693_138058"/>
<feColorMatrix in="SourceAlpha" type="matrix" values="0 0 0 0 0 0 0 0 0 0 0 0 0 0 0 0 0 0 127 0" result="hardAlpha"/>
<feOffset dy="52"/>
<feGaussianBlur stdDeviation="40"/>
<feColorMatrix type="matrix" values="0 0 0 0 0.109804 0 0 0 0 0.164706 0 0 0 0 0.278431 0 0 0 0.06 0"/>
<feBlend mode="normal" in2="effect5_dropShadow_2693_138058" result="effect6_dropShadow_2693_138058"/>
<feBlend mode="normal" in="SourceGraphic" in2="effect6_dropShadow_2693_138058" result="shape"/>
</filter>
</defs>
</svg>
