<svg width="385" height="56" viewBox="0 0 385 56" fill="none" xmlns="http://www.w3.org/2000/svg">
<rect width="385" height="56" rx="12" fill="white"/>
<path d="M19.75 19H17.0568V10.2727H19.8693C20.7159 10.2727 21.4403 10.4474 22.0426 10.7969C22.6449 11.1435 23.1065 11.642 23.4276 12.2926C23.7486 12.9403 23.9091 13.7159 23.9091 14.6193C23.9091 15.5284 23.7472 16.3111 23.4233 16.9673C23.0994 17.6207 22.6278 18.1236 22.0085 18.4759C21.3892 18.8253 20.6364 19 19.75 19ZM18.1136 18.0625H19.6818C20.4034 18.0625 21.0014 17.9233 21.4759 17.6449C21.9503 17.3665 22.304 16.9702 22.5369 16.456C22.7699 15.9418 22.8864 15.3295 22.8864 14.6193C22.8864 13.9148 22.7713 13.3082 22.5412 12.7997C22.3111 12.2884 21.9673 11.8963 21.5099 11.6236C21.0526 11.348 20.483 11.2102 19.8011 11.2102H18.1136V18.0625ZM27.3516 19.1534C26.9368 19.1534 26.5604 19.0753 26.2223 18.919C25.8843 18.7599 25.6158 18.5312 25.4169 18.233C25.2181 17.9318 25.1186 17.5682 25.1186 17.142C25.1186 16.767 25.1925 16.4631 25.3402 16.2301C25.488 15.9943 25.6854 15.8097 25.9326 15.6761C26.1797 15.5426 26.4524 15.4432 26.7507 15.3778C27.0519 15.3097 27.3544 15.2557 27.6584 15.2159C28.0561 15.1648 28.3786 15.1264 28.6257 15.1009C28.8757 15.0724 29.0576 15.0256 29.1712 14.9602C29.2877 14.8949 29.3459 14.7812 29.3459 14.6193V14.5852C29.3459 14.1648 29.2309 13.8381 29.0007 13.6051C28.7735 13.3722 28.4283 13.2557 27.9652 13.2557C27.4851 13.2557 27.1087 13.3608 26.836 13.571C26.5632 13.7812 26.3715 14.0057 26.2607 14.2443L25.3061 13.9034C25.4766 13.5057 25.7039 13.196 25.988 12.9744C26.2749 12.75 26.5874 12.5937 26.9255 12.5057C27.2664 12.4148 27.6016 12.3693 27.9311 12.3693C28.1414 12.3693 28.3828 12.3949 28.6556 12.446C28.9311 12.4943 29.1968 12.5952 29.4524 12.7486C29.711 12.902 29.9255 13.1335 30.0959 13.4432C30.2664 13.7528 30.3516 14.1676 30.3516 14.6875V19H29.3459V18.1136H29.2948C29.2266 18.2557 29.113 18.4077 28.9539 18.5696C28.7948 18.7315 28.5831 18.8693 28.3189 18.983C28.0547 19.0966 27.7323 19.1534 27.3516 19.1534ZM27.505 18.25C27.9027 18.25 28.238 18.1719 28.5107 18.0156C28.7863 17.8594 28.9936 17.6577 29.1328 17.4105C29.2749 17.1634 29.3459 16.9034 29.3459 16.6307V15.7102C29.3033 15.7614 29.2095 15.8082 29.0647 15.8509C28.9226 15.8906 28.7578 15.9261 28.5703 15.9574C28.3857 15.9858 28.2053 16.0114 28.0291 16.0341C27.8559 16.054 27.7152 16.071 27.6073 16.0852C27.3459 16.1193 27.1016 16.1747 26.8743 16.2514C26.6499 16.3253 26.4681 16.4375 26.3289 16.5881C26.1925 16.7358 26.1243 16.9375 26.1243 17.1932C26.1243 17.5426 26.2536 17.8068 26.5121 17.9858C26.7735 18.1619 27.1044 18.25 27.505 18.25ZM34.9138 12.4545V13.3068H31.5217V12.4545H34.9138ZM32.5104 10.8864H33.516V17.125C33.516 17.4091 33.5572 17.6222 33.6396 17.7642C33.7248 17.9034 33.8328 17.9972 33.9635 18.0455C34.097 18.0909 34.2376 18.1136 34.3854 18.1136C34.4962 18.1136 34.5871 18.108 34.6581 18.0966C34.7291 18.0824 34.7859 18.071 34.8285 18.0625L35.0331 18.9659C34.9649 18.9915 34.8697 19.017 34.7476 19.0426C34.6254 19.071 34.4706 19.0852 34.2831 19.0852C33.999 19.0852 33.7206 19.0241 33.4479 18.902C33.178 18.7798 32.9535 18.5938 32.7746 18.3438C32.5984 18.0938 32.5104 17.7784 32.5104 17.3977V10.8864ZM38.2327 19.1534C37.8179 19.1534 37.4415 19.0753 37.1034 18.919C36.7654 18.7599 36.4969 18.5312 36.298 18.233C36.0992 17.9318 35.9997 17.5682 35.9997 17.142C35.9997 16.767 36.0736 16.4631 36.2213 16.2301C36.369 15.9943 36.5665 15.8097 36.8136 15.6761C37.0608 15.5426 37.3335 15.4432 37.6318 15.3778C37.933 15.3097 38.2355 15.2557 38.5395 15.2159C38.9372 15.1648 39.2597 15.1264 39.5068 15.1009C39.7568 15.0724 39.9387 15.0256 40.0523 14.9602C40.1688 14.8949 40.227 14.7812 40.227 14.6193V14.5852C40.227 14.1648 40.1119 13.8381 39.8818 13.6051C39.6546 13.3722 39.3094 13.2557 38.8463 13.2557C38.3662 13.2557 37.9898 13.3608 37.7171 13.571C37.4443 13.7812 37.2526 14.0057 37.1418 14.2443L36.1872 13.9034C36.3577 13.5057 36.585 13.196 36.869 12.9744C37.156 12.75 37.4685 12.5937 37.8065 12.5057C38.1475 12.4148 38.4827 12.3693 38.8122 12.3693C39.0225 12.3693 39.2639 12.3949 39.5367 12.446C39.8122 12.4943 40.0779 12.5952 40.3335 12.7486C40.5921 12.902 40.8065 13.1335 40.977 13.4432C41.1475 13.7528 41.2327 14.1676 41.2327 14.6875V19H40.227V18.1136H40.1759C40.1077 18.2557 39.994 18.4077 39.835 18.5696C39.6759 18.7315 39.4642 18.8693 39.2 18.983C38.9358 19.0966 38.6134 19.1534 38.2327 19.1534ZM38.3861 18.25C38.7838 18.25 39.119 18.1719 39.3918 18.0156C39.6673 17.8594 39.8747 17.6577 40.0139 17.4105C40.156 17.1634 40.227 16.9034 40.227 16.6307V15.7102C40.1844 15.7614 40.0906 15.8082 39.9458 15.8509C39.8037 15.8906 39.6389 15.9261 39.4514 15.9574C39.2668 15.9858 39.0864 16.0114 38.9102 16.0341C38.7369 16.054 38.5963 16.071 38.4884 16.0852C38.227 16.1193 37.9827 16.1747 37.7554 16.2514C37.531 16.3253 37.3492 16.4375 37.21 16.5881C37.0736 16.7358 37.0054 16.9375 37.0054 17.1932C37.0054 17.5426 37.1347 17.8068 37.3932 17.9858C37.6546 18.1619 37.9855 18.25 38.3861 18.25ZM46.2033 21.4545V12.4545H47.1749V13.4943H47.2942C47.368 13.3807 47.4703 13.2358 47.601 13.0597C47.7345 12.8807 47.9249 12.7216 48.172 12.5824C48.422 12.4403 48.7601 12.3693 49.1862 12.3693C49.7374 12.3693 50.2232 12.5071 50.6436 12.7827C51.0641 13.0582 51.3922 13.4489 51.628 13.9545C51.8638 14.4602 51.9817 15.0568 51.9817 15.7443C51.9817 16.4375 51.8638 17.0384 51.628 17.5469C51.3922 18.0526 51.0655 18.4446 50.6479 18.723C50.2303 18.9986 49.7487 19.1364 49.2033 19.1364C48.7828 19.1364 48.4462 19.0668 48.1933 18.9276C47.9405 18.7855 47.7459 18.625 47.6095 18.446C47.4732 18.2642 47.368 18.1136 47.2942 17.9943H47.2089V21.4545H46.2033ZM47.1919 15.7273C47.1919 16.2216 47.2643 16.6577 47.4092 17.0355C47.5541 17.4105 47.7658 17.7045 48.0442 17.9176C48.3226 18.1278 48.6635 18.233 49.0669 18.233C49.4874 18.233 49.8382 18.1222 50.1195 17.9006C50.4036 17.6761 50.6166 17.375 50.7587 16.9972C50.9036 16.6165 50.976 16.1932 50.976 15.7273C50.976 15.267 50.905 14.8523 50.7629 14.483C50.6237 14.1108 50.4121 13.8168 50.128 13.6009C49.8467 13.3821 49.493 13.2727 49.0669 13.2727C48.6578 13.2727 48.3141 13.3764 48.0357 13.5838C47.7572 13.7884 47.547 14.0753 47.405 14.4446C47.2629 14.8111 47.1919 15.2386 47.1919 15.7273ZM56.1401 19.1364C55.5094 19.1364 54.9654 18.9972 54.508 18.7188C54.0534 18.4375 53.7026 18.0455 53.4554 17.5426C53.2111 17.0369 53.0889 16.4489 53.0889 15.7784C53.0889 15.108 53.2111 14.517 53.4554 14.0057C53.7026 13.4915 54.0463 13.0909 54.4867 12.804C54.9299 12.5142 55.4469 12.3693 56.0378 12.3693C56.3787 12.3693 56.7154 12.4261 57.0478 12.5398C57.3801 12.6534 57.6827 12.8381 57.9554 13.0938C58.2282 13.3466 58.4455 13.6818 58.6074 14.0994C58.7693 14.517 58.8503 15.0312 58.8503 15.642V16.0682H53.8049V15.1989H57.8276C57.8276 14.8295 57.7537 14.5 57.606 14.2102C57.4611 13.9205 57.2537 13.6918 56.9838 13.5241C56.7168 13.3565 56.4014 13.2727 56.0378 13.2727C55.6372 13.2727 55.2907 13.3722 54.998 13.571C54.7083 13.767 54.4853 14.0227 54.329 14.3381C54.1728 14.6534 54.0946 14.9915 54.0946 15.3523V15.9318C54.0946 16.4261 54.1799 16.8452 54.3503 17.1889C54.5236 17.5298 54.7637 17.7898 55.0705 17.9688C55.3773 18.1449 55.7338 18.233 56.1401 18.233C56.4043 18.233 56.6429 18.196 56.856 18.1222C57.0719 18.0455 57.258 17.9318 57.4142 17.7812C57.5705 17.6278 57.6912 17.4375 57.7764 17.2102L58.748 17.483C58.6458 17.8125 58.4739 18.1023 58.2324 18.3523C57.9909 18.5994 57.6926 18.7926 57.3375 18.9318C56.9824 19.0682 56.5833 19.1364 56.1401 19.1364ZM60.2601 19V12.4545H61.2317V13.4432H61.2999C61.4192 13.1193 61.6351 12.8565 61.9476 12.6548C62.2601 12.4531 62.6124 12.3523 63.0045 12.3523C63.0783 12.3523 63.1707 12.3537 63.2814 12.3565C63.3922 12.3594 63.4761 12.3636 63.5329 12.3693V13.392C63.4988 13.3835 63.4207 13.3707 63.2985 13.3537C63.1792 13.3338 63.0528 13.3239 62.9192 13.3239C62.6011 13.3239 62.317 13.3906 62.067 13.5241C61.8198 13.6548 61.6238 13.8366 61.4789 14.0696C61.3368 14.2997 61.2658 14.5625 61.2658 14.858V19H60.2601ZM64.605 19V12.4545H65.6107V19H64.605ZM65.1164 11.3636C64.9203 11.3636 64.7513 11.2969 64.6092 11.1634C64.47 11.0298 64.4004 10.8693 64.4004 10.6818C64.4004 10.4943 64.47 10.3338 64.6092 10.2003C64.7513 10.0668 64.9203 10 65.1164 10C65.3124 10 65.48 10.0668 65.6192 10.2003C65.7612 10.3338 65.8323 10.4943 65.8323 10.6818C65.8323 10.8693 65.7612 11.0298 65.6192 11.1634C65.48 11.2969 65.3124 11.3636 65.1164 11.3636ZM69.9917 19.1364C69.4008 19.1364 68.8824 18.9957 68.4363 18.7145C67.9932 18.4332 67.6466 18.0398 67.3966 17.5341C67.1494 17.0284 67.0258 16.4375 67.0258 15.7614C67.0258 15.0795 67.1494 14.4844 67.3966 13.9759C67.6466 13.4673 67.9932 13.0724 68.4363 12.7912C68.8824 12.5099 69.4008 12.3693 69.9917 12.3693C70.5826 12.3693 71.0997 12.5099 71.5429 12.7912C71.9889 13.0724 72.3355 13.4673 72.5826 13.9759C72.8326 14.4844 72.9576 15.0795 72.9576 15.7614C72.9576 16.4375 72.8326 17.0284 72.5826 17.5341C72.3355 18.0398 71.9889 18.4332 71.5429 18.7145C71.0997 18.9957 70.5826 19.1364 69.9917 19.1364ZM69.9917 18.233C70.4406 18.233 70.8099 18.1179 71.0997 17.8878C71.3895 17.6577 71.6039 17.3551 71.7432 16.9801C71.8824 16.6051 71.952 16.1989 71.952 15.7614C71.952 15.3239 71.8824 14.9162 71.7432 14.5384C71.6039 14.1605 71.3895 13.8551 71.0997 13.6222C70.8099 13.3892 70.4406 13.2727 69.9917 13.2727C69.5429 13.2727 69.1735 13.3892 68.8838 13.6222C68.594 13.8551 68.3795 14.1605 68.2403 14.5384C68.1011 14.9162 68.0315 15.3239 68.0315 15.7614C68.0315 16.1989 68.1011 16.6051 68.2403 16.9801C68.3795 17.3551 68.594 17.6577 68.8838 17.8878C69.1735 18.1179 69.5429 18.233 69.9917 18.233ZM76.8444 19.1364C76.2989 19.1364 75.8174 18.9986 75.3998 18.723C74.9822 18.4446 74.6555 18.0526 74.4197 17.5469C74.1839 17.0384 74.066 16.4375 74.066 15.7443C74.066 15.0568 74.1839 14.4602 74.4197 13.9545C74.6555 13.4489 74.9836 13.0582 75.404 12.7827C75.8245 12.5071 76.3103 12.3693 76.8614 12.3693C77.2876 12.3693 77.6242 12.4403 77.8714 12.5824C78.1214 12.7216 78.3117 12.8807 78.4424 13.0597C78.5759 13.2358 78.6796 13.3807 78.7535 13.4943H78.8387V10.2727H79.8444V19H78.8728V17.9943H78.7535C78.6796 18.1136 78.5745 18.2642 78.4381 18.446C78.3018 18.625 78.1072 18.7855 77.8543 18.9276C77.6015 19.0668 77.2648 19.1364 76.8444 19.1364ZM76.9808 18.233C77.3842 18.233 77.7251 18.1278 78.0035 17.9176C78.2819 17.7045 78.4935 17.4105 78.6384 17.0355C78.7833 16.6577 78.8558 16.2216 78.8558 15.7273C78.8558 15.2386 78.7847 14.8111 78.6427 14.4446C78.5006 14.0753 78.2904 13.7884 78.012 13.5838C77.7336 13.3764 77.3898 13.2727 76.9808 13.2727C76.5546 13.2727 76.1995 13.3821 75.9154 13.6009C75.6342 13.8168 75.4225 14.1108 75.2805 14.483C75.1413 14.8523 75.0717 15.267 75.0717 15.7273C75.0717 16.1932 75.1427 16.6165 75.2847 16.9972C75.4296 17.375 75.6427 17.6761 75.9239 17.9006C76.208 18.1222 76.5603 18.233 76.9808 18.233Z" fill="#5C697C"/>
<path d="M20.9645 29.0909V40H19.6435V30.4759H19.5795L16.9162 32.2443V30.902L19.6435 29.0909H20.9645ZM27.6602 40.1491C26.8576 40.1491 26.174 39.9308 25.6094 39.494C25.0447 39.0536 24.6133 38.4162 24.315 37.5817C24.0167 36.7436 23.8675 35.7315 23.8675 34.5455C23.8675 33.3665 24.0167 32.3597 24.315 31.5252C24.6168 30.6871 25.0501 30.0479 25.6147 29.6076C26.1829 29.1637 26.8647 28.9418 27.6602 28.9418C28.4556 28.9418 29.1357 29.1637 29.7003 29.6076C30.2685 30.0479 30.7017 30.6871 31 31.5252C31.3018 32.3597 31.4528 33.3665 31.4528 34.5455C31.4528 35.7315 31.3036 36.7436 31.0053 37.5817C30.707 38.4162 30.2756 39.0536 29.7109 39.494C29.1463 39.9308 28.4627 40.1491 27.6602 40.1491ZM27.6602 38.9773C28.4556 38.9773 29.0735 38.5937 29.5138 37.8267C29.9542 37.0597 30.1744 35.9659 30.1744 34.5455C30.1744 33.6009 30.0732 32.7965 29.8707 32.1325C29.6719 31.4684 29.3842 30.9624 29.0078 30.6143C28.6349 30.2663 28.1857 30.0923 27.6602 30.0923C26.8718 30.0923 26.2557 30.4812 25.8118 31.2589C25.3679 32.033 25.146 33.1286 25.146 34.5455C25.146 35.4901 25.2454 36.2926 25.4442 36.9531C25.6431 37.6136 25.929 38.1161 26.3018 38.4606C26.6783 38.805 27.131 38.9773 27.6602 38.9773ZM37.3548 28.5795L33.8391 41.6406H32.6886L36.2042 28.5795H37.3548ZM42.6588 29.0909V40H41.3378V30.4759H41.2739L38.6105 32.2443V30.902L41.3378 29.0909H42.6588ZM45.7963 40V39.0412L49.3971 35.0994C49.8197 34.6378 50.1677 34.2365 50.4411 33.8956C50.7146 33.5511 50.917 33.228 51.0484 32.9261C51.1833 32.6207 51.2508 32.3011 51.2508 31.9673C51.2508 31.5838 51.1585 31.2518 50.9738 30.9712C50.7927 30.6907 50.5441 30.4741 50.2281 30.3214C49.912 30.1687 49.5569 30.0923 49.1627 30.0923C48.7437 30.0923 48.3779 30.1793 48.0654 30.3533C47.7565 30.5238 47.5168 30.7635 47.3463 31.0724C47.1794 31.3814 47.096 31.7436 47.096 32.1591H45.8389C45.8389 31.5199 45.9862 30.9588 46.281 30.4759C46.5757 29.9929 46.977 29.6165 47.4848 29.3466C47.9962 29.0767 48.5697 28.9418 49.2053 28.9418C49.8445 28.9418 50.411 29.0767 50.9046 29.3466C51.3982 29.6165 51.7852 29.9805 52.0658 30.4386C52.3463 30.8967 52.4866 31.4062 52.4866 31.9673C52.4866 32.3686 52.4138 32.761 52.2682 33.1445C52.1262 33.5245 51.8776 33.9489 51.5225 34.4176C51.1709 34.8828 50.6826 35.451 50.0576 36.1222L47.6073 38.7429V38.8281H52.6784V40H45.7963ZM58.7561 28.5795L55.2405 41.6406H54.0899L57.6056 28.5795H58.7561ZM60.225 40V39.0412L63.8258 35.0994C64.2484 34.6378 64.5964 34.2365 64.8699 33.8956C65.1433 33.5511 65.3457 33.228 65.4771 32.9261C65.612 32.6207 65.6795 32.3011 65.6795 31.9673C65.6795 31.5838 65.5872 31.2518 65.4025 30.9712C65.2214 30.6907 64.9728 30.4741 64.6568 30.3214C64.3407 30.1687 63.9856 30.0923 63.5914 30.0923C63.1724 30.0923 62.8066 30.1793 62.4941 30.3533C62.1852 30.5238 61.9455 30.7635 61.775 31.0724C61.6081 31.3814 61.5247 31.7436 61.5247 32.1591H60.2676C60.2676 31.5199 60.415 30.9588 60.7097 30.4759C61.0044 29.9929 61.4057 29.6165 61.9135 29.3466C62.4249 29.0767 62.9984 28.9418 63.6341 28.9418C64.2733 28.9418 64.8397 29.0767 65.3333 29.3466C65.8269 29.6165 66.214 29.9805 66.4945 30.4386C66.775 30.8967 66.9153 31.4062 66.9153 31.9673C66.9153 32.3686 66.8425 32.761 66.6969 33.1445C66.5549 33.5245 66.3063 33.9489 65.9512 34.4176C65.5996 34.8828 65.1113 35.451 64.4863 36.1222L62.036 38.7429V38.8281H67.1071V40H60.225ZM72.8652 40.1491C72.0627 40.1491 71.3791 39.9308 70.8145 39.494C70.2498 39.0536 69.8184 38.4162 69.5201 37.5817C69.2218 36.7436 69.0726 35.7315 69.0726 34.5455C69.0726 33.3665 69.2218 32.3597 69.5201 31.5252C69.8219 30.6871 70.2551 30.0479 70.8198 29.6076C71.388 29.1637 72.0698 28.9418 72.8652 28.9418C73.6607 28.9418 74.3407 29.1637 74.9054 29.6076C75.4735 30.0479 75.9068 30.6871 76.2051 31.5252C76.5069 32.3597 76.6578 33.3665 76.6578 34.5455C76.6578 35.7315 76.5087 36.7436 76.2104 37.5817C75.9121 38.4162 75.4806 39.0536 74.916 39.494C74.3514 39.9308 73.6678 40.1491 72.8652 40.1491ZM72.8652 38.9773C73.6607 38.9773 74.2786 38.5937 74.7189 37.8267C75.1593 37.0597 75.3794 35.9659 75.3794 34.5455C75.3794 33.6009 75.2782 32.7965 75.0758 32.1325C74.877 31.4684 74.5893 30.9624 74.2129 30.6143C73.84 30.2663 73.3908 30.0923 72.8652 30.0923C72.0769 30.0923 71.4608 30.4812 71.0169 31.2589C70.573 32.033 70.351 33.1286 70.351 34.5455C70.351 35.4901 70.4505 36.2926 70.6493 36.9531C70.8482 37.6136 71.1341 38.1161 71.5069 38.4606C71.8833 38.805 72.3361 38.9773 72.8652 38.9773ZM82.5172 29.0909V40H81.1962V30.4759H81.1323L78.4689 32.2443V30.902L81.1962 29.0909H82.5172ZM89.2768 40.1491C88.8294 40.142 88.3819 40.0568 87.9345 39.8935C87.487 39.7301 87.0787 39.4549 86.7093 39.0678C86.34 38.6772 86.0435 38.1499 85.8198 37.4858C85.5961 36.8182 85.4842 35.9801 85.4842 34.9716C85.4842 34.0057 85.5748 33.1499 85.7559 32.4041C85.937 31.6548 86.1998 31.0245 86.5442 30.5131C86.8887 29.9982 87.3042 29.6076 87.7907 29.3413C88.2807 29.0749 88.8329 28.9418 89.4473 28.9418C90.0581 28.9418 90.6014 29.0643 91.0772 29.3093C91.5566 29.5508 91.9473 29.8881 92.2491 30.3214C92.551 30.7546 92.7463 31.2536 92.8351 31.8182H91.5353C91.4146 31.3281 91.1802 30.9215 90.8322 30.5984C90.4842 30.2752 90.0225 30.1136 89.4473 30.1136C88.6021 30.1136 87.9363 30.4812 87.4498 31.2163C86.9668 31.9513 86.7235 32.983 86.72 34.3111H86.8052C87.0041 34.0092 87.2402 33.7518 87.5137 33.5387C87.7907 33.3221 88.0961 33.1552 88.4299 33.038C88.7637 32.9208 89.117 32.8622 89.4899 32.8622C90.1149 32.8622 90.6866 33.0185 91.2051 33.331C91.7235 33.6399 92.139 34.0678 92.4515 34.6147C92.764 35.158 92.9203 35.7812 92.9203 36.4844C92.9203 37.1591 92.7694 37.777 92.4675 38.3381C92.1657 38.8956 91.7413 39.3395 91.1944 39.6697C90.6511 39.9964 90.0119 40.1562 89.2768 40.1491ZM89.2768 38.9773C89.7243 38.9773 90.1255 38.8654 90.4806 38.6417C90.8393 38.418 91.1216 38.1179 91.3276 37.7415C91.5371 37.3651 91.6419 36.946 91.6419 36.4844C91.6419 36.0334 91.5407 35.6232 91.3382 35.2539C91.1394 34.881 90.8642 34.5845 90.5126 34.3643C90.1646 34.1442 89.7669 34.0341 89.3194 34.0341C88.9821 34.0341 88.6678 34.1016 88.3766 34.2365C88.0854 34.3679 87.8297 34.549 87.6096 34.7798C87.3929 35.0107 87.2225 35.2752 87.0982 35.5735C86.9739 35.8683 86.9118 36.179 86.9118 36.5057C86.9118 36.9389 87.013 37.3437 87.2154 37.7202C87.4213 38.0966 87.7019 38.4002 88.057 38.631C88.4157 38.8619 88.8223 38.9773 89.2768 38.9773ZM103.943 33.9595V35.1314H99.1698V33.9595H103.943ZM114.187 29.0909V40H112.866V30.4759H112.802L110.139 32.2443V30.902L112.866 29.0909H114.187ZM121.16 29.0909V40H119.839V30.4759H119.775L117.112 32.2443V30.902L119.839 29.0909H121.16ZM128.175 28.5795L124.659 41.6406H123.509L127.025 28.5795H128.175ZM133.33 40.1491C132.627 40.1491 132 40.0284 131.45 39.7869C130.903 39.5455 130.468 39.2099 130.145 38.7802C129.825 38.3469 129.651 37.8445 129.623 37.2727H130.965C130.993 37.6243 131.114 37.9279 131.327 38.1836C131.54 38.4357 131.819 38.631 132.163 38.7695C132.508 38.908 132.89 38.9773 133.309 38.9773C133.777 38.9773 134.193 38.8956 134.555 38.7322C134.917 38.5689 135.201 38.3416 135.407 38.0504C135.613 37.7592 135.716 37.4219 135.716 37.0384C135.716 36.6371 135.617 36.2837 135.418 35.9783C135.219 35.6694 134.928 35.4279 134.544 35.2539C134.161 35.0799 133.692 34.9929 133.138 34.9929H132.265V33.821H133.138C133.571 33.821 133.951 33.7429 134.278 33.5866C134.608 33.4304 134.866 33.2102 135.051 32.9261C135.239 32.642 135.333 32.3082 135.333 31.9247C135.333 31.5554 135.251 31.234 135.088 30.9606C134.924 30.6871 134.694 30.4741 134.395 30.3214C134.101 30.1687 133.753 30.0923 133.351 30.0923C132.975 30.0923 132.62 30.1616 132.286 30.3001C131.956 30.435 131.686 30.6321 131.476 30.8913C131.267 31.147 131.153 31.456 131.135 31.8182H129.857C129.878 31.2464 130.051 30.7457 130.374 30.3161C130.697 29.8828 131.119 29.5455 131.641 29.304C132.167 29.0625 132.744 28.9418 133.373 28.9418C134.047 28.9418 134.626 29.0785 135.109 29.3519C135.592 29.6218 135.963 29.9787 136.222 30.4226C136.482 30.8665 136.611 31.3459 136.611 31.8608C136.611 32.4751 136.45 32.9989 136.127 33.4322C135.807 33.8654 135.372 34.1655 134.821 34.3324V34.4176C135.51 34.5312 136.048 34.8242 136.435 35.2965C136.823 35.7653 137.016 36.3459 137.016 37.0384C137.016 37.6314 136.854 38.1641 136.531 38.6364C136.212 39.1051 135.775 39.4744 135.221 39.7443C134.667 40.0142 134.037 40.1491 133.33 40.1491ZM142.753 40.1491C141.95 40.1491 141.267 39.9308 140.702 39.494C140.138 39.0536 139.706 38.4162 139.408 37.5817C139.109 36.7436 138.96 35.7315 138.96 34.5455C138.96 33.3665 139.109 32.3597 139.408 31.5252C139.71 30.6871 140.143 30.0479 140.707 29.6076C141.276 29.1637 141.957 28.9418 142.753 28.9418C143.548 28.9418 144.228 29.1637 144.793 29.6076C145.361 30.0479 145.794 30.6871 146.093 31.5252C146.395 32.3597 146.546 33.3665 146.546 34.5455C146.546 35.7315 146.396 36.7436 146.098 37.5817C145.8 38.4162 145.368 39.0536 144.804 39.494C144.239 39.9308 143.555 40.1491 142.753 40.1491ZM142.753 38.9773C143.548 38.9773 144.166 38.5937 144.607 37.8267C145.047 37.0597 145.267 35.9659 145.267 34.5455C145.267 33.6009 145.166 32.7965 144.964 32.1325C144.765 31.4684 144.477 30.9624 144.101 30.6143C143.728 30.2663 143.278 30.0923 142.753 30.0923C141.965 30.0923 141.348 30.4812 140.905 31.2589C140.461 32.033 140.239 33.1286 140.239 34.5455C140.239 35.4901 140.338 36.2926 140.537 36.9531C140.736 37.6136 141.022 38.1161 141.395 38.4606C141.771 38.805 142.224 38.9773 142.753 38.9773ZM152.448 28.5795L148.932 41.6406H147.781L151.297 28.5795H152.448ZM153.916 40V39.0412L157.517 35.0994C157.94 34.6378 158.288 34.2365 158.561 33.8956C158.835 33.5511 159.037 33.228 159.169 32.9261C159.303 32.6207 159.371 32.3011 159.371 31.9673C159.371 31.5838 159.279 31.2518 159.094 30.9712C158.913 30.6907 158.664 30.4741 158.348 30.3214C158.032 30.1687 157.677 30.0923 157.283 30.0923C156.864 30.0923 156.498 30.1793 156.186 30.3533C155.877 30.5238 155.637 30.7635 155.466 31.0724C155.3 31.3814 155.216 31.7436 155.216 32.1591H153.959C153.959 31.5199 154.106 30.9588 154.401 30.4759C154.696 29.9929 155.097 29.6165 155.605 29.3466C156.116 29.0767 156.69 28.9418 157.325 28.9418C157.965 28.9418 158.531 29.0767 159.025 29.3466C159.518 29.6165 159.905 29.9805 160.186 30.4386C160.466 30.8967 160.607 31.4062 160.607 31.9673C160.607 32.3686 160.534 32.761 160.388 33.1445C160.246 33.5245 159.998 33.9489 159.643 34.4176C159.291 34.8828 158.803 35.451 158.178 36.1222L155.727 38.7429V38.8281H160.798V40H153.916ZM166.557 40.1491C165.754 40.1491 165.07 39.9308 164.506 39.494C163.941 39.0536 163.51 38.4162 163.211 37.5817C162.913 36.7436 162.764 35.7315 162.764 34.5455C162.764 33.3665 162.913 32.3597 163.211 31.5252C163.513 30.6871 163.947 30.0479 164.511 29.6076C165.079 29.1637 165.761 28.9418 166.557 28.9418C167.352 28.9418 168.032 29.1637 168.597 29.6076C169.165 30.0479 169.598 30.6871 169.896 31.5252C170.198 32.3597 170.349 33.3665 170.349 34.5455C170.349 35.7315 170.2 36.7436 169.902 37.5817C169.604 38.4162 169.172 39.0536 168.607 39.494C168.043 39.9308 167.359 40.1491 166.557 40.1491ZM166.557 38.9773C167.352 38.9773 167.97 38.5937 168.41 37.8267C168.851 37.0597 169.071 35.9659 169.071 34.5455C169.071 33.6009 168.97 32.7965 168.767 32.1325C168.568 31.4684 168.281 30.9624 167.904 30.6143C167.531 30.2663 167.082 30.0923 166.557 30.0923C165.768 30.0923 165.152 30.4812 164.708 31.2589C164.264 32.033 164.042 33.1286 164.042 34.5455C164.042 35.4901 164.142 36.2926 164.341 36.9531C164.54 37.6136 164.825 38.1161 165.198 38.4606C165.575 38.805 166.028 38.9773 166.557 38.9773ZM176.209 29.0909V40H174.888V30.4759H174.824L172.16 32.2443V30.902L174.888 29.0909H176.209ZM182.968 40.1491C182.521 40.142 182.073 40.0568 181.626 39.8935C181.178 39.7301 180.77 39.4549 180.401 39.0678C180.031 38.6772 179.735 38.1499 179.511 37.4858C179.287 36.8182 179.176 35.9801 179.176 34.9716C179.176 34.0057 179.266 33.1499 179.447 32.4041C179.628 31.6548 179.891 31.0245 180.236 30.5131C180.58 29.9982 180.996 29.6076 181.482 29.3413C181.972 29.0749 182.524 28.9418 183.139 28.9418C183.749 28.9418 184.293 29.0643 184.769 29.3093C185.248 29.5508 185.639 29.8881 185.941 30.3214C186.242 30.7546 186.438 31.2536 186.526 31.8182H185.227C185.106 31.3281 184.872 30.9215 184.524 30.5984C184.176 30.2752 183.714 30.1136 183.139 30.1136C182.294 30.1136 181.628 30.4812 181.141 31.2163C180.658 31.9513 180.415 32.983 180.411 34.3111H180.497C180.695 34.0092 180.932 33.7518 181.205 33.5387C181.482 33.3221 181.787 33.1552 182.121 33.038C182.455 32.9208 182.808 32.8622 183.181 32.8622C183.806 32.8622 184.378 33.0185 184.896 33.331C185.415 33.6399 185.83 34.0678 186.143 34.6147C186.455 35.158 186.612 35.7812 186.612 36.4844C186.612 37.1591 186.461 37.777 186.159 38.3381C185.857 38.8956 185.433 39.3395 184.886 39.6697C184.343 39.9964 183.703 40.1562 182.968 40.1491ZM182.968 38.9773C183.416 38.9773 183.817 38.8654 184.172 38.6417C184.531 38.418 184.813 38.1179 185.019 37.7415C185.229 37.3651 185.333 36.946 185.333 36.4844C185.333 36.0334 185.232 35.6232 185.03 35.2539C184.831 34.881 184.556 34.5845 184.204 34.3643C183.856 34.1442 183.458 34.0341 183.011 34.0341C182.673 34.0341 182.359 34.1016 182.068 34.2365C181.777 34.3679 181.521 34.549 181.301 34.7798C181.084 35.0107 180.914 35.2752 180.79 35.5735C180.665 35.8683 180.603 36.179 180.603 36.5057C180.603 36.9389 180.704 37.3437 180.907 37.7202C181.113 38.0966 181.393 38.4002 181.748 38.631C182.107 38.8619 182.514 38.9773 182.968 38.9773Z" fill="#212121"/>
<path fill-rule="evenodd" clip-rule="evenodd" d="M361 17C361.552 17 362 17.4477 362 18V22C362 22.5523 361.552 23 361 23C360.448 23 360 22.5523 360 22V18C360 17.4477 360.448 17 361 17Z" fill="#191A1D"/>
<path fill-rule="evenodd" clip-rule="evenodd" d="M353 17C353.552 17 354 17.4477 354 18V22C354 22.5523 353.552 23 353 23C352.448 23 352 22.5523 352 22V18C352 17.4477 352.448 17 353 17Z" fill="#191A1D"/>
<path fill-rule="evenodd" clip-rule="evenodd" d="M347 25C347 24.4477 347.448 24 348 24H366C366.552 24 367 24.4477 367 25C367 25.5523 366.552 26 366 26H348C347.448 26 347 25.5523 347 25Z" fill="#191A1D"/>
<path fill-rule="evenodd" clip-rule="evenodd" d="M347 22C347 20.3427 348.343 19 350 19H364C365.657 19 367 20.3427 367 22V35C367 36.6573 365.657 38 364 38H350C348.343 38 347 36.6573 347 35V22ZM350 21C349.447 21 349 21.4473 349 22V35C349 35.5527 349.447 36 350 36H364C364.553 36 365 35.5527 365 35V22C365 21.4473 364.553 21 364 21H350Z" fill="#191A1D"/>
<path fill-rule="evenodd" clip-rule="evenodd" d="M355.264 28.9845C355.267 29.9484 356.049 30.729 357.014 30.729C357.98 30.729 358.764 29.9454 358.764 28.979C358.764 28.0087 357.977 27.229 357.013 27.229C356.05 27.229 355.26 28.01 355.264 28.9845ZM356.764 28.979C356.763 28.841 356.875 28.729 357.013 28.729C357.15 28.7295 357.262 28.8394 357.264 28.9754L357.264 28.979C357.264 29.117 357.152 29.229 357.014 29.229C356.876 29.2285 356.764 29.1167 356.764 28.979Z" fill="#191A1D"/>
<path fill-rule="evenodd" clip-rule="evenodd" d="M360.264 28.9845C360.267 29.9484 361.049 30.729 362.014 30.729C362.98 30.729 363.764 29.9454 363.764 28.979C363.764 28.0087 362.977 27.229 362.013 27.229C361.05 27.229 360.26 28.01 360.264 28.9845ZM361.764 28.979C361.763 28.841 361.875 28.729 362.013 28.729C362.15 28.7295 362.262 28.8394 362.264 28.9754L362.264 28.979C362.264 29.117 362.152 29.229 362.014 29.229C361.876 29.2285 361.764 29.1167 361.764 28.979Z" fill="#191A1D"/>
<path fill-rule="evenodd" clip-rule="evenodd" d="M350.264 32.9845C350.267 33.9484 351.049 34.729 352.014 34.729C352.98 34.729 353.764 33.9454 353.764 32.979C353.764 32.0087 352.977 31.229 352.013 31.229C351.05 31.229 350.26 32.01 350.264 32.9845ZM351.764 32.979C351.763 32.841 351.875 32.729 352.013 32.729L352.014 32.729C352.151 32.7295 352.262 32.8394 352.264 32.9754L352.264 32.979C352.264 33.117 352.152 33.229 352.014 33.229L352.013 33.229C351.875 33.2285 351.764 33.1167 351.764 32.979Z" fill="#191A1D"/>
<path fill-rule="evenodd" clip-rule="evenodd" d="M355.264 32.9845C355.267 33.9484 356.049 34.729 357.014 34.729C357.98 34.729 358.764 33.9454 358.764 32.979C358.764 32.0087 357.977 31.229 357.013 31.229C356.05 31.229 355.26 32.01 355.264 32.9845ZM356.764 32.979C356.763 32.841 356.875 32.729 357.013 32.729C357.15 32.7295 357.262 32.8394 357.264 32.9754L357.264 32.979C357.264 33.117 357.152 33.229 357.014 33.229C356.876 33.2285 356.764 33.1167 356.764 32.979Z" fill="#191A1D"/>
</svg>
