<svg width="790" height="280" viewBox="0 0 790 280" fill="none" xmlns="http://www.w3.org/2000/svg">
<g filter="url(#filter0_dddddd_2693_137945)">
<rect width="790" height="280" rx="12" fill="white"/>
<path d="M20.7727 29H17.076V18.0909H20.8473C21.9304 18.0909 22.8608 18.3093 23.6385 18.7461C24.4197 19.1793 25.0199 19.8026 25.4389 20.6158C25.858 21.429 26.0675 22.402 26.0675 23.5348C26.0675 24.6712 25.8562 25.6477 25.4336 26.4645C25.0146 27.2812 24.4091 27.908 23.6172 28.3448C22.8288 28.7816 21.8807 29 20.7727 29ZM19.0522 27.2901H20.6768C21.4368 27.2901 22.0707 27.1516 22.5785 26.8746C23.0863 26.5941 23.468 26.1768 23.7237 25.6229C23.9794 25.0653 24.1072 24.3693 24.1072 23.5348C24.1072 22.7003 23.9794 22.0078 23.7237 21.4574C23.468 20.9034 23.0898 20.4897 22.5891 20.2163C22.092 19.9393 21.4741 19.8008 20.7354 19.8008H19.0522V27.2901ZM30.2143 29.1651C29.6958 29.1651 29.2289 29.0728 28.8134 28.8881C28.4015 28.6999 28.0748 28.4229 27.8333 28.0572C27.5953 27.6914 27.4764 27.2404 27.4764 26.7042C27.4764 26.2425 27.5616 25.8608 27.7321 25.5589C27.9025 25.2571 28.1351 25.0156 28.4299 24.8345C28.7246 24.6534 29.0566 24.5167 29.426 24.4244C29.7988 24.3285 30.1841 24.2592 30.5819 24.2166C31.0613 24.1669 31.4501 24.1225 31.7484 24.0835C32.0467 24.0408 32.2633 23.9769 32.3983 23.8917C32.5368 23.8029 32.606 23.6662 32.606 23.4815V23.4496C32.606 23.0483 32.487 22.7376 32.2491 22.5174C32.0112 22.2972 31.6685 22.1871 31.2211 22.1871C30.7488 22.1871 30.3741 22.2901 30.0971 22.4961C29.8237 22.7021 29.639 22.9453 29.5431 23.2259L27.7427 22.9702C27.8848 22.473 28.1191 22.0575 28.4458 21.7237C28.7725 21.3864 29.1721 21.1342 29.6444 20.9673C30.1167 20.7969 30.6387 20.7116 31.2104 20.7116C31.6046 20.7116 31.997 20.7578 32.3876 20.8501C32.7782 20.9425 33.1351 21.0952 33.4583 21.3082C33.7814 21.5178 34.0407 21.8036 34.236 22.1658C34.4348 22.5281 34.5343 22.9808 34.5343 23.5241V29H32.6806V27.8761H32.6167C32.4995 28.1033 32.3343 28.3164 32.1213 28.5153C31.9118 28.7106 31.6472 28.8686 31.3276 28.9893C31.0115 29.1065 30.6404 29.1651 30.2143 29.1651ZM30.715 27.7482C31.1021 27.7482 31.4377 27.6719 31.7218 27.5192C32.0059 27.3629 32.2243 27.157 32.377 26.9013C32.5332 26.6456 32.6113 26.3668 32.6113 26.065V25.1009C32.551 25.1506 32.448 25.1967 32.3024 25.2393C32.1603 25.282 32.0005 25.3192 31.823 25.3512C31.6454 25.3832 31.4696 25.4116 31.2956 25.4364C31.1216 25.4613 30.9707 25.4826 30.8429 25.5004C30.5552 25.5394 30.2978 25.6033 30.0705 25.6921C29.8432 25.7809 29.6639 25.9052 29.5325 26.065C29.4011 26.2212 29.3354 26.4237 29.3354 26.6722C29.3354 27.0273 29.465 27.2955 29.7243 27.4766C29.9835 27.6577 30.3137 27.7482 30.715 27.7482ZM36.4732 29V20.8182H38.4015V29H36.4732ZM37.4426 19.657C37.1373 19.657 36.8745 19.5558 36.6543 19.3533C36.4341 19.1474 36.324 18.9006 36.324 18.6129C36.324 18.3217 36.4341 18.0749 36.6543 17.8725C36.8745 17.6665 37.1373 17.5636 37.4426 17.5636C37.7516 17.5636 38.0144 17.6665 38.231 17.8725C38.4512 18.0749 38.5613 18.3217 38.5613 18.6129C38.5613 18.9006 38.4512 19.1474 38.231 19.3533C38.0144 19.5558 37.7516 19.657 37.4426 19.657ZM42.3126 18.0909V29H40.3843V18.0909H42.3126ZM45.494 32.0682C45.2312 32.0682 44.9879 32.0469 44.7642 32.0043C44.544 31.9652 44.3683 31.919 44.2369 31.8658L44.6843 30.3636C44.9648 30.4453 45.2152 30.4844 45.4354 30.4808C45.6555 30.4773 45.8491 30.408 46.016 30.2731C46.1864 30.1417 46.3303 29.9215 46.4474 29.6126L46.6126 29.1705L43.6456 20.8182H45.6911L47.5767 26.9972H47.6619L49.5529 20.8182H51.6037L48.3278 29.9908C48.1751 30.424 47.9727 30.7951 47.7205 31.104C47.4684 31.4165 47.1594 31.6545 46.7937 31.8178C46.4315 31.9847 45.9982 32.0682 45.494 32.0682ZM56.6587 32.0682V20.8182H58.555V22.1712H58.6669C58.7663 21.9723 58.9066 21.761 59.0877 21.5373C59.2688 21.31 59.5138 21.1165 59.8228 20.9567C60.1317 20.7933 60.5259 20.7116 61.0053 20.7116C61.6374 20.7116 62.2074 20.8732 62.7152 21.1964C63.2266 21.516 63.6314 21.9901 63.9297 22.6186C64.2315 23.2436 64.3825 24.0107 64.3825 24.9197C64.3825 25.8182 64.2351 26.5817 63.9403 27.2102C63.6456 27.8388 63.2443 28.3182 62.7365 28.6484C62.2287 28.9787 61.6534 29.1438 61.0107 29.1438C60.5419 29.1438 60.1531 29.0657 59.8441 28.9094C59.5352 28.7532 59.2866 28.565 59.0984 28.3448C58.9137 28.1211 58.7699 27.9098 58.6669 27.7109H58.587V32.0682H56.6587ZM58.5497 24.9091C58.5497 25.4382 58.6243 25.9016 58.7734 26.2994C58.9261 26.6971 59.1445 27.0078 59.4286 27.2315C59.7163 27.4517 60.0643 27.5618 60.4727 27.5618C60.8988 27.5618 61.2557 27.4482 61.5433 27.2209C61.831 26.9901 62.0476 26.6758 62.1932 26.2781C62.3423 25.8768 62.4169 25.4205 62.4169 24.9091C62.4169 24.4013 62.3441 23.9503 62.1985 23.5561C62.0529 23.1619 61.8363 22.853 61.5487 22.6293C61.261 22.4055 60.9023 22.2937 60.4727 22.2937C60.0607 22.2937 59.7109 22.402 59.4233 22.6186C59.1357 22.8352 58.9173 23.1388 58.7681 23.5295C58.6225 23.9201 58.5497 24.38 58.5497 24.9091ZM69.6559 29.1598C68.8356 29.1598 68.1271 28.9893 67.5305 28.6484C66.9375 28.304 66.4812 27.8175 66.1616 27.1889C65.842 26.5568 65.6822 25.8129 65.6822 24.957C65.6822 24.1154 65.842 23.3768 66.1616 22.7411C66.4847 22.1019 66.9357 21.6048 67.5146 21.2496C68.0934 20.891 68.7734 20.7116 69.5547 20.7116C70.0589 20.7116 70.5348 20.7933 70.9822 20.9567C71.4332 21.1165 71.831 21.3651 72.1754 21.7024C72.5234 22.0398 72.7969 22.4695 72.9957 22.9915C73.1946 23.5099 73.294 24.1278 73.294 24.8452V25.4364H66.5877V24.1367H71.4457C71.4421 23.7674 71.3622 23.4389 71.206 23.1513C71.0497 22.8601 70.8313 22.631 70.5508 22.4641C70.2738 22.2972 69.9506 22.2138 69.5813 22.2138C69.1871 22.2138 68.8409 22.3097 68.5426 22.5014C68.2443 22.6896 68.0117 22.9382 67.8448 23.2472C67.6815 23.5526 67.598 23.8881 67.5945 24.2539V25.3885C67.5945 25.8643 67.6815 26.2727 67.8555 26.6136C68.0295 26.951 68.2727 27.2102 68.5852 27.3913C68.8977 27.5689 69.2635 27.6577 69.6825 27.6577C69.9631 27.6577 70.217 27.6186 70.4442 27.5405C70.6715 27.4588 70.8686 27.3398 71.0355 27.1836C71.2024 27.0273 71.3285 26.8338 71.4137 26.603L73.2141 26.8054C73.1005 27.2812 72.8839 27.6967 72.5643 28.0518C72.2482 28.4034 71.8434 28.6768 71.3498 28.8722C70.8562 29.0639 70.2915 29.1598 69.6559 29.1598ZM74.9253 29V20.8182H76.795V22.1818H76.8802C77.0294 21.7095 77.2851 21.3455 77.6473 21.0898C78.0131 20.8306 78.4303 20.701 78.8991 20.701C79.0056 20.701 79.1246 20.7063 79.2559 20.717C79.3909 20.7241 79.5028 20.7365 79.5915 20.7543V22.5281C79.5099 22.4996 79.3802 22.4748 79.2027 22.4535C79.0287 22.4286 78.86 22.4162 78.6966 22.4162C78.3451 22.4162 78.029 22.4925 77.7485 22.6452C77.4715 22.7944 77.2531 23.0021 77.0933 23.2685C76.9335 23.5348 76.8536 23.842 76.8536 24.19V29H74.9253ZM85.4562 20.8182V22.3097H80.6196V20.8182H85.4562ZM81.8287 29V20.0458C81.8287 19.4954 81.9424 19.0373 82.1697 18.6715C82.4005 18.3058 82.7094 18.0323 83.0965 17.8512C83.4836 17.6701 83.9133 17.5795 84.3856 17.5795C84.7194 17.5795 85.0159 17.6062 85.2751 17.6594C85.5344 17.7127 85.7261 17.7607 85.8504 17.8033L85.4669 19.2947C85.3852 19.2699 85.2822 19.245 85.1579 19.2202C85.0336 19.1918 84.8952 19.1776 84.7425 19.1776C84.3838 19.1776 84.1299 19.2646 83.9807 19.4386C83.8351 19.609 83.7623 19.854 83.7623 20.1737V29H81.8287ZM90.2276 29.1598C89.4286 29.1598 88.7362 28.984 88.1502 28.6325C87.5643 28.2809 87.1097 27.7891 86.7866 27.157C86.467 26.5249 86.3072 25.7862 86.3072 24.9411C86.3072 24.0959 86.467 23.3555 86.7866 22.7198C87.1097 22.0842 87.5643 21.5906 88.1502 21.239C88.7362 20.8874 89.4286 20.7116 90.2276 20.7116C91.0266 20.7116 91.7191 20.8874 92.305 21.239C92.891 21.5906 93.3438 22.0842 93.6634 22.7198C93.9865 23.3555 94.1481 24.0959 94.1481 24.9411C94.1481 25.7862 93.9865 26.5249 93.6634 27.157C93.3438 27.7891 92.891 28.2809 92.305 28.6325C91.7191 28.984 91.0266 29.1598 90.2276 29.1598ZM90.2383 27.6151C90.6715 27.6151 91.0337 27.4961 91.3249 27.2582C91.6161 27.0167 91.8327 26.6935 91.9748 26.2887C92.1204 25.8839 92.1932 25.4329 92.1932 24.9357C92.1932 24.435 92.1204 23.9822 91.9748 23.5774C91.8327 23.169 91.6161 22.8441 91.3249 22.6026C91.0337 22.3612 90.6715 22.2404 90.2383 22.2404C89.7944 22.2404 89.4251 22.3612 89.1303 22.6026C88.8391 22.8441 88.6207 23.169 88.4751 23.5774C88.3331 23.9822 88.2621 24.435 88.2621 24.9357C88.2621 25.4329 88.3331 25.8839 88.4751 26.2887C88.6207 26.6935 88.8391 27.0167 89.1303 27.2582C89.4251 27.4961 89.7944 27.6151 90.2383 27.6151ZM95.7847 29V20.8182H97.6544V22.1818H97.7396C97.8888 21.7095 98.1444 21.3455 98.5067 21.0898C98.8724 20.8306 99.2897 20.701 99.7584 20.701C99.865 20.701 99.9839 20.7063 100.115 20.717C100.25 20.7241 100.362 20.7365 100.451 20.7543V22.5281C100.369 22.4996 100.24 22.4748 100.062 22.4535C99.8881 22.4286 99.7194 22.4162 99.556 22.4162C99.2045 22.4162 98.8884 22.4925 98.6079 22.6452C98.3309 22.7944 98.1125 23.0021 97.9527 23.2685C97.7929 23.5348 97.713 23.842 97.713 24.19V29H95.7847ZM101.732 29V20.8182H103.575V22.2085H103.671C103.841 21.7397 104.124 21.3739 104.518 21.1112C104.912 20.8448 105.383 20.7116 105.929 20.7116C106.483 20.7116 106.95 20.8466 107.33 21.1165C107.714 21.3828 107.984 21.7468 108.14 22.2085H108.225C108.406 21.7539 108.712 21.3917 109.141 21.1218C109.575 20.8484 110.088 20.7116 110.681 20.7116C111.434 20.7116 112.048 20.9496 112.524 21.4254C113 21.9013 113.238 22.5955 113.238 23.5082V29H111.304V23.8065C111.304 23.2987 111.169 22.9276 110.899 22.6932C110.629 22.4553 110.299 22.3363 109.908 22.3363C109.443 22.3363 109.079 22.4819 108.816 22.7731C108.557 23.0607 108.428 23.4354 108.428 23.897V29H106.537V23.7266C106.537 23.304 106.409 22.9666 106.153 22.7145C105.901 22.4624 105.571 22.3363 105.162 22.3363C104.885 22.3363 104.633 22.4073 104.406 22.5494C104.179 22.6879 103.998 22.8849 103.863 23.1406C103.728 23.3928 103.66 23.6875 103.66 24.0249V29H101.732ZM117.548 29.1651C117.03 29.1651 116.563 29.0728 116.147 28.8881C115.735 28.6999 115.409 28.4229 115.167 28.0572C114.929 27.6914 114.81 27.2404 114.81 26.7042C114.81 26.2425 114.896 25.8608 115.066 25.5589C115.237 25.2571 115.469 25.0156 115.764 24.8345C116.059 24.6534 116.391 24.5167 116.76 24.4244C117.133 24.3285 117.518 24.2592 117.916 24.2166C118.395 24.1669 118.784 24.1225 119.082 24.0835C119.381 24.0408 119.597 23.9769 119.732 23.8917C119.871 23.8029 119.94 23.6662 119.94 23.4815V23.4496C119.94 23.0483 119.821 22.7376 119.583 22.5174C119.345 22.2972 119.002 22.1871 118.555 22.1871C118.083 22.1871 117.708 22.2901 117.431 22.4961C117.158 22.7021 116.973 22.9453 116.877 23.2259L115.077 22.9702C115.219 22.473 115.453 22.0575 115.78 21.7237C116.107 21.3864 116.506 21.1342 116.978 20.9673C117.451 20.7969 117.973 20.7116 118.544 20.7116C118.939 20.7116 119.331 20.7578 119.722 20.8501C120.112 20.9425 120.469 21.0952 120.792 21.3082C121.115 21.5178 121.375 21.8036 121.57 22.1658C121.769 22.5281 121.868 22.9808 121.868 23.5241V29H120.015V27.8761H119.951C119.833 28.1033 119.668 28.3164 119.455 28.5153C119.246 28.7106 118.981 28.8686 118.662 28.9893C118.346 29.1065 117.974 29.1651 117.548 29.1651ZM118.049 27.7482C118.436 27.7482 118.772 27.6719 119.056 27.5192C119.34 27.3629 119.558 27.157 119.711 26.9013C119.867 26.6456 119.945 26.3668 119.945 26.065V25.1009C119.885 25.1506 119.782 25.1967 119.636 25.2393C119.494 25.282 119.335 25.3192 119.157 25.3512C118.979 25.3832 118.804 25.4116 118.63 25.4364C118.456 25.4613 118.305 25.4826 118.177 25.5004C117.889 25.5394 117.632 25.6033 117.404 25.6921C117.177 25.7809 116.998 25.9052 116.866 26.065C116.735 26.2212 116.669 26.4237 116.669 26.6722C116.669 27.0273 116.799 27.2955 117.058 27.4766C117.317 27.6577 117.648 27.7482 118.049 27.7482ZM125.735 24.206V29H123.807V20.8182H125.65V22.2085H125.746C125.934 21.7504 126.234 21.3864 126.646 21.1165C127.062 20.8466 127.575 20.7116 128.186 20.7116C128.75 20.7116 129.242 20.8324 129.661 21.0739C130.084 21.3153 130.411 21.6651 130.641 22.1232C130.876 22.5813 130.991 23.1371 130.988 23.7905V29H129.059V24.0888C129.059 23.5419 128.917 23.114 128.633 22.805C128.353 22.4961 127.964 22.3416 127.467 22.3416C127.129 22.3416 126.829 22.4162 126.566 22.5653C126.307 22.7109 126.103 22.9222 125.954 23.1992C125.808 23.4762 125.735 23.8118 125.735 24.206ZM136.517 29.1598C135.7 29.1598 134.999 28.9805 134.413 28.6218C133.83 28.2631 133.381 27.7678 133.065 27.1357C132.752 26.5 132.596 25.7685 132.596 24.9411C132.596 24.1101 132.756 23.3768 133.076 22.7411C133.395 22.1019 133.846 21.6048 134.429 21.2496C135.015 20.891 135.707 20.7116 136.506 20.7116C137.17 20.7116 137.758 20.8342 138.269 21.0792C138.784 21.3207 139.194 21.6634 139.5 22.1072C139.805 22.5476 139.979 23.0625 140.022 23.652H138.179C138.104 23.2578 137.926 22.9293 137.646 22.6665C137.369 22.4002 136.998 22.267 136.533 22.267C136.138 22.267 135.792 22.3736 135.494 22.5866C135.196 22.7962 134.963 23.098 134.796 23.4922C134.633 23.8864 134.551 24.3587 134.551 24.9091C134.551 25.4666 134.633 25.946 134.796 26.3473C134.96 26.745 135.189 27.0522 135.483 27.2688C135.782 27.4819 136.131 27.5884 136.533 27.5884C136.817 27.5884 137.071 27.5352 137.294 27.4286C137.522 27.3185 137.712 27.1605 137.864 26.9545C138.017 26.7486 138.122 26.4982 138.179 26.2035H140.022C139.975 26.7823 139.805 27.2955 139.51 27.7429C139.216 28.1868 138.814 28.5348 138.306 28.7869C137.799 29.0355 137.202 29.1598 136.517 29.1598ZM145.227 29.1598C144.407 29.1598 143.698 28.9893 143.102 28.6484C142.509 28.304 142.052 27.8175 141.733 27.1889C141.413 26.5568 141.253 25.8129 141.253 24.957C141.253 24.1154 141.413 23.3768 141.733 22.7411C142.056 22.1019 142.507 21.6048 143.086 21.2496C143.665 20.891 144.345 20.7116 145.126 20.7116C145.63 20.7116 146.106 20.7933 146.554 20.9567C147.005 21.1165 147.402 21.3651 147.747 21.7024C148.095 22.0398 148.368 22.4695 148.567 22.9915C148.766 23.5099 148.865 24.1278 148.865 24.8452V25.4364H142.159V24.1367H147.017C147.013 23.7674 146.934 23.4389 146.777 23.1513C146.621 22.8601 146.403 22.631 146.122 22.4641C145.845 22.2972 145.522 22.2138 145.153 22.2138C144.758 22.2138 144.412 22.3097 144.114 22.5014C143.816 22.6896 143.583 22.9382 143.416 23.2472C143.253 23.5526 143.169 23.8881 143.166 24.2539V25.3885C143.166 25.8643 143.253 26.2727 143.427 26.6136C143.601 26.951 143.844 27.2102 144.157 27.3913C144.469 27.5689 144.835 27.6577 145.254 27.6577C145.534 27.6577 145.788 27.6186 146.016 27.5405C146.243 27.4588 146.44 27.3398 146.607 27.1836C146.774 27.0273 146.9 26.8338 146.985 26.603L148.785 26.8054C148.672 27.2812 148.455 27.6967 148.136 28.0518C147.82 28.4034 147.415 28.6768 146.921 28.8722C146.427 29.0639 145.863 29.1598 145.227 29.1598Z" fill="#191A1D"/>
<path d="M22.8011 43.3636C22.7415 42.8598 22.4995 42.4688 22.0753 42.1903C21.651 41.9119 21.1307 41.7727 20.5142 41.7727C20.0634 41.7727 19.669 41.8456 19.331 41.9915C18.9962 42.1373 18.7344 42.3378 18.5455 42.593C18.3598 42.8482 18.267 43.1383 18.267 43.4631C18.267 43.7348 18.3317 43.9685 18.4609 44.1641C18.5935 44.3563 18.7625 44.517 18.968 44.6463C19.1735 44.7723 19.389 44.8767 19.6143 44.9595C19.8397 45.0391 20.0469 45.1037 20.2358 45.1534L21.2699 45.4318C21.535 45.5014 21.83 45.5975 22.1548 45.7202C22.483 45.8428 22.7962 46.0102 23.0945 46.2223C23.3961 46.4311 23.6446 46.6996 23.8402 47.0277C24.0357 47.3558 24.1335 47.7585 24.1335 48.2358C24.1335 48.786 23.9893 49.2831 23.701 49.7273C23.416 50.1714 22.9983 50.5244 22.4482 50.7862C21.9013 51.0481 21.2367 51.179 20.4545 51.179C19.7254 51.179 19.094 51.0613 18.5604 50.826C18.0301 50.5907 17.6125 50.2625 17.3075 49.8416C17.0059 49.4207 16.8352 48.9318 16.7955 48.375H18.0682C18.1013 48.7595 18.2306 49.0777 18.456 49.3295C18.6847 49.5781 18.973 49.7637 19.321 49.8864C19.6723 50.0057 20.0502 50.0653 20.4545 50.0653C20.9252 50.0653 21.3478 49.9891 21.7223 49.8366C22.0968 49.6809 22.3935 49.4654 22.6122 49.1903C22.831 48.9119 22.9403 48.5871 22.9403 48.2159C22.9403 47.8778 22.8459 47.6027 22.657 47.3906C22.468 47.1785 22.2195 47.0062 21.9112 46.8736C21.603 46.741 21.2699 46.625 20.9119 46.5256L19.6591 46.1676C18.8636 45.9389 18.2339 45.6125 17.7699 45.1882C17.3059 44.764 17.0739 44.2088 17.0739 43.5227C17.0739 42.9527 17.228 42.4555 17.5362 42.0312C17.8478 41.6037 18.2654 41.2723 18.7891 41.0369C19.3161 40.7983 19.9044 40.679 20.554 40.679C21.2102 40.679 21.7936 40.7966 22.304 41.032C22.8144 41.264 23.2188 41.5821 23.517 41.9865C23.8187 42.3909 23.9777 42.8499 23.9943 43.3636H22.8011ZM28.1088 51.179C27.6249 51.179 27.1857 51.0878 26.7913 50.9055C26.3969 50.7199 26.0837 50.4531 25.8517 50.1051C25.6196 49.7538 25.5036 49.3295 25.5036 48.8324C25.5036 48.3949 25.5898 48.0402 25.7622 47.7685C25.9345 47.4934 26.1649 47.2779 26.4532 47.1222C26.7416 46.9664 27.0598 46.8504 27.4078 46.7741C27.7591 46.6946 28.1121 46.6316 28.4667 46.5852C28.9307 46.5256 29.3069 46.4808 29.5953 46.451C29.8869 46.4179 30.0991 46.3632 30.2316 46.2869C30.3675 46.2107 30.4355 46.0781 30.4355 45.8892V45.8494C30.4355 45.3589 30.3012 44.9777 30.0328 44.706C29.7676 44.4342 29.3649 44.2983 28.8247 44.2983C28.2645 44.2983 27.8254 44.4209 27.5072 44.6662C27.189 44.9115 26.9653 45.1733 26.836 45.4517L25.7224 45.054C25.9213 44.59 26.1864 44.2287 26.5178 43.9702C26.8526 43.7083 27.2172 43.526 27.6116 43.4233C28.0093 43.3172 28.4004 43.2642 28.7849 43.2642C29.0302 43.2642 29.3119 43.294 29.6301 43.3537C29.9516 43.41 30.2615 43.5277 30.5598 43.7067C30.8614 43.8857 31.1116 44.1558 31.3105 44.517C31.5093 44.8783 31.6088 45.3622 31.6088 45.9688V51H30.4355V49.9659H30.3758C30.2963 50.1316 30.1637 50.3089 29.9781 50.4979C29.7925 50.6868 29.5455 50.8475 29.2373 50.9801C28.9291 51.1127 28.5529 51.179 28.1088 51.179ZM28.2877 50.125C28.7517 50.125 29.1428 50.0339 29.461 49.8516C29.7825 49.6693 30.0245 49.4339 30.1869 49.1456C30.3526 48.8572 30.4355 48.554 30.4355 48.2358V47.1619C30.3857 47.2216 30.2764 47.2763 30.1073 47.326C29.9416 47.3724 29.7494 47.4138 29.5306 47.4503C29.3152 47.4834 29.1047 47.5133 28.8992 47.5398C28.6971 47.563 28.533 47.5829 28.4071 47.5994C28.1021 47.6392 27.8171 47.7038 27.5519 47.7933C27.2901 47.8795 27.078 48.0104 26.9156 48.1861C26.7565 48.3584 26.6769 48.5937 26.6769 48.892C26.6769 49.2997 26.8277 49.608 27.1294 49.8168C27.4343 50.0223 27.8204 50.125 28.2877 50.125ZM34.7836 40.8182V51H33.6103V40.8182H34.7836ZM39.9942 51.1591C39.2584 51.1591 38.6237 50.9967 38.0901 50.6719C37.5598 50.3438 37.1505 49.8864 36.8621 49.2997C36.5771 48.7098 36.4346 48.0237 36.4346 47.2415C36.4346 46.4593 36.5771 45.7699 36.8621 45.1733C37.1505 44.5734 37.5515 44.1061 38.0653 43.7713C38.5823 43.4332 39.1855 43.2642 39.8749 43.2642C40.2726 43.2642 40.6654 43.3305 41.0532 43.4631C41.441 43.5956 41.794 43.8111 42.1121 44.1094C42.4303 44.4044 42.6839 44.7955 42.8728 45.2827C43.0617 45.7699 43.1562 46.3698 43.1562 47.0824V47.5795H37.2698V46.5653H41.963C41.963 46.1345 41.8768 45.75 41.7045 45.4119C41.5354 45.0739 41.2935 44.8071 40.9786 44.6115C40.6671 44.416 40.2992 44.3182 39.8749 44.3182C39.4076 44.3182 39.0032 44.4342 38.6619 44.6662C38.3238 44.8949 38.0636 45.1932 37.8813 45.5611C37.699 45.929 37.6079 46.3234 37.6079 46.7443V47.4205C37.6079 47.9972 37.7073 48.486 37.9062 48.8871C38.1083 49.2848 38.3884 49.5881 38.7464 49.7969C39.1043 50.0024 39.5203 50.1051 39.9942 50.1051C40.3025 50.1051 40.5809 50.062 40.8295 49.9759C41.0814 49.8864 41.2985 49.7538 41.4807 49.5781C41.663 49.3991 41.8039 49.1771 41.9033 48.9119L43.0369 49.2301C42.9175 49.6146 42.717 49.9527 42.4353 50.2443C42.1536 50.5327 41.8056 50.758 41.3913 50.9205C40.977 51.0795 40.5113 51.1591 39.9942 51.1591ZM50.2101 45.0739L49.1561 45.3722C49.0898 45.1965 48.992 45.0258 48.8628 44.8601C48.7368 44.6911 48.5645 44.5518 48.3457 44.4425C48.127 44.3331 47.8469 44.2784 47.5055 44.2784C47.0382 44.2784 46.6487 44.3861 46.3372 44.6016C46.029 44.8137 45.8748 45.0838 45.8748 45.4119C45.8748 45.7036 45.9809 45.9339 46.193 46.103C46.4051 46.272 46.7366 46.4129 47.1873 46.5256L48.3209 46.804C49.0036 46.9697 49.5124 47.2232 49.8471 47.5646C50.1819 47.9027 50.3493 48.3385 50.3493 48.8722C50.3493 49.3097 50.2233 49.7008 49.9714 50.0455C49.7228 50.3902 49.3748 50.6619 48.9274 50.8608C48.48 51.0597 47.9596 51.1591 47.3663 51.1591C46.5874 51.1591 45.9428 50.9901 45.4324 50.652C44.9219 50.3139 44.5988 49.8201 44.4629 49.1705L45.5765 48.892C45.6826 49.303 45.8831 49.6113 46.1781 49.8168C46.4764 50.0223 46.8658 50.125 47.3464 50.125C47.8933 50.125 48.3275 50.009 48.649 49.777C48.9738 49.5417 49.1362 49.2599 49.1362 48.9318C49.1362 48.6667 49.0434 48.4446 48.8578 48.2656C48.6722 48.0833 48.3871 47.9474 48.0027 47.858L46.73 47.5597C46.0306 47.3939 45.5169 47.1371 45.1888 46.7891C44.8639 46.4377 44.7015 45.9986 44.7015 45.4716C44.7015 45.0407 44.8225 44.6596 45.0645 44.3281C45.3097 43.9967 45.6428 43.7365 46.0638 43.5476C46.488 43.3587 46.9686 43.2642 47.5055 43.2642C48.2612 43.2642 48.8545 43.4299 49.2853 43.7614C49.7195 44.0928 50.0278 44.5303 50.2101 45.0739ZM58.6564 51.1591C58.0201 51.1591 57.4583 50.9983 56.9711 50.6768C56.4839 50.352 56.1027 49.8946 55.8276 49.3047C55.5525 48.7114 55.415 48.0104 55.415 47.2017C55.415 46.3996 55.5525 45.7036 55.8276 45.1136C56.1027 44.5237 56.4855 44.0679 56.9761 43.7464C57.4666 43.425 58.0333 43.2642 58.6763 43.2642C59.1735 43.2642 59.5662 43.3471 59.8546 43.5128C60.1463 43.6752 60.3683 43.8608 60.5208 44.0696C60.6766 44.2751 60.7975 44.4441 60.8837 44.5767H60.9832V40.8182H62.1564V51H61.0229V49.8267H60.8837C60.7975 49.9659 60.6749 50.1416 60.5158 50.3537C60.3567 50.5625 60.1297 50.7498 59.8347 50.9155C59.5397 51.0779 59.147 51.1591 58.6564 51.1591ZM58.8155 50.1051C59.2862 50.1051 59.6839 49.9825 60.0087 49.7372C60.3335 49.4886 60.5805 49.1456 60.7495 48.7081C60.9185 48.2673 61.003 47.7585 61.003 47.1818C61.003 46.6117 60.9202 46.1129 60.7545 45.6854C60.5887 45.2545 60.3435 44.9197 60.0187 44.6811C59.6939 44.4392 59.2928 44.3182 58.8155 44.3182C58.3184 44.3182 57.9041 44.4458 57.5726 44.701C57.2445 44.9529 56.9976 45.2959 56.8319 45.7301C56.6695 46.161 56.5883 46.6449 56.5883 47.1818C56.5883 47.7254 56.6711 48.2192 56.8368 48.6634C57.0059 49.1042 57.2545 49.4555 57.5826 49.7173C57.914 49.9759 58.325 50.1051 58.8155 50.1051ZM67.4305 51.1591C66.7411 51.1591 66.1362 50.995 65.6159 50.6669C65.0988 50.3388 64.6945 49.8797 64.4028 49.2898C64.1145 48.6998 63.9703 48.0104 63.9703 47.2216C63.9703 46.4261 64.1145 45.7318 64.4028 45.1385C64.6945 44.5452 65.0988 44.0845 65.6159 43.7564C66.1362 43.4283 66.7411 43.2642 67.4305 43.2642C68.1199 43.2642 68.7231 43.4283 69.2402 43.7564C69.7605 44.0845 70.1649 44.5452 70.4532 45.1385C70.7449 45.7318 70.8907 46.4261 70.8907 47.2216C70.8907 48.0104 70.7449 48.6998 70.4532 49.2898C70.1649 49.8797 69.7605 50.3388 69.2402 50.6669C68.7231 50.995 68.1199 51.1591 67.4305 51.1591ZM67.4305 50.1051C67.9542 50.1051 68.3851 49.9709 68.7231 49.7024C69.0612 49.4339 69.3114 49.081 69.4738 48.6435C69.6362 48.206 69.7174 47.732 69.7174 47.2216C69.7174 46.7112 69.6362 46.2356 69.4738 45.7947C69.3114 45.3539 69.0612 44.9976 68.7231 44.7259C68.3851 44.4541 67.9542 44.3182 67.4305 44.3182C66.9068 44.3182 66.476 44.4541 66.1379 44.7259C65.7998 44.9976 65.5496 45.3539 65.3872 45.7947C65.2248 46.2356 65.1436 46.7112 65.1436 47.2216C65.1436 47.732 65.2248 48.206 65.3872 48.6435C65.5496 49.081 65.7998 49.4339 66.1379 49.7024C66.476 49.9709 66.9068 50.1051 67.4305 50.1051ZM73.7151 40.8182V51H72.5418V40.8182H73.7151ZM76.8973 40.8182V51H75.724V40.8182H76.8973ZM81.1534 51.179C80.6695 51.179 80.2304 51.0878 79.836 50.9055C79.4416 50.7199 79.1283 50.4531 78.8963 50.1051C78.6643 49.7538 78.5483 49.3295 78.5483 48.8324C78.5483 48.3949 78.6345 48.0402 78.8069 47.7685C78.9792 47.4934 79.2096 47.2779 79.4979 47.1222C79.7863 46.9664 80.1044 46.8504 80.4524 46.7741C80.8038 46.6946 81.1568 46.6316 81.5114 46.5852C81.9754 46.5256 82.3516 46.4808 82.6399 46.451C82.9316 46.4179 83.1437 46.3632 83.2763 46.2869C83.4122 46.2107 83.4801 46.0781 83.4801 45.8892V45.8494C83.4801 45.3589 83.3459 44.9777 83.0774 44.706C82.8123 44.4342 82.4096 44.2983 81.8694 44.2983C81.3092 44.2983 80.8701 44.4209 80.5519 44.6662C80.2337 44.9115 80.01 45.1733 79.8807 45.4517L78.7671 45.054C78.9659 44.59 79.2311 44.2287 79.5625 43.9702C79.8973 43.7083 80.2619 43.526 80.6563 43.4233C81.054 43.3172 81.4451 43.2642 81.8296 43.2642C82.0748 43.2642 82.3566 43.294 82.6747 43.3537C82.9962 43.41 83.3061 43.5277 83.6044 43.7067C83.906 43.8857 84.1563 44.1558 84.3551 44.517C84.554 44.8783 84.6534 45.3622 84.6534 45.9688V51H83.4801V49.9659H83.4205C83.3409 50.1316 83.2084 50.3089 83.0228 50.4979C82.8372 50.6868 82.5902 50.8475 82.282 50.9801C81.9738 51.1127 81.5976 51.179 81.1534 51.179ZM81.3324 50.125C81.7964 50.125 82.1875 50.0339 82.5057 49.8516C82.8272 49.6693 83.0692 49.4339 83.2316 49.1456C83.3973 48.8572 83.4801 48.554 83.4801 48.2358V47.1619C83.4304 47.2216 83.3211 47.2763 83.152 47.326C82.9863 47.3724 82.7941 47.4138 82.5753 47.4503C82.3599 47.4834 82.1494 47.5133 81.9439 47.5398C81.7417 47.563 81.5777 47.5829 81.4517 47.5994C81.1468 47.6392 80.8618 47.7038 80.5966 47.7933C80.3348 47.8795 80.1227 48.0104 79.9603 48.1861C79.8012 48.3584 79.7216 48.5937 79.7216 48.892C79.7216 49.2997 79.8724 49.608 80.174 49.8168C80.479 50.0223 80.8651 50.125 81.3324 50.125ZM86.655 51V43.3636H87.7885V44.517H87.868C88.0072 44.1392 88.2591 43.8326 88.6237 43.5973C88.9883 43.362 89.3993 43.2443 89.8567 43.2443C89.9428 43.2443 90.0506 43.246 90.1798 43.2493C90.3091 43.2526 90.4069 43.2576 90.4731 43.2642V44.4574C90.4334 44.4474 90.3422 44.4325 90.1997 44.4126C90.0605 44.3894 89.913 44.3778 89.7572 44.3778C89.386 44.3778 89.0546 44.4557 88.7629 44.6115C88.4746 44.764 88.2459 44.9761 88.0768 45.2479C87.9111 45.5163 87.8283 45.8229 87.8283 46.1676V51H86.655ZM97.133 45.0739L96.0791 45.3722C96.0128 45.1965 95.915 45.0258 95.7857 44.8601C95.6598 44.6911 95.4874 44.5518 95.2687 44.4425C95.0499 44.3331 94.7699 44.2784 94.4285 44.2784C93.9612 44.2784 93.5717 44.3861 93.2602 44.6016C92.9519 44.8137 92.7978 45.0838 92.7978 45.4119C92.7978 45.7036 92.9039 45.9339 93.116 46.103C93.3281 46.272 93.6595 46.4129 94.1103 46.5256L95.2438 46.804C95.9266 46.9697 96.4354 47.2232 96.7701 47.5646C97.1049 47.9027 97.2722 48.3385 97.2722 48.8722C97.2722 49.3097 97.1463 49.7008 96.8944 50.0455C96.6458 50.3902 96.2978 50.6619 95.8504 50.8608C95.4029 51.0597 94.8826 51.1591 94.2893 51.1591C93.5104 51.1591 92.8658 50.9901 92.3553 50.652C91.8449 50.3139 91.5218 49.8201 91.3859 49.1705L92.4995 48.892C92.6056 49.303 92.8061 49.6113 93.1011 49.8168C93.3994 50.0223 93.7888 50.125 94.2694 50.125C94.8163 50.125 95.2505 50.009 95.572 49.777C95.8968 49.5417 96.0592 49.2599 96.0592 48.9318C96.0592 48.6667 95.9664 48.4446 95.7808 48.2656C95.5952 48.0833 95.3101 47.9474 94.9256 47.858L93.6529 47.5597C92.9536 47.3939 92.4399 47.1371 92.1117 46.7891C91.7869 46.4377 91.6245 45.9986 91.6245 45.4716C91.6245 45.0407 91.7455 44.6596 91.9874 44.3281C92.2327 43.9967 92.5658 43.7365 92.9867 43.5476C93.411 43.3587 93.8916 43.2642 94.4285 43.2642C95.1842 43.2642 95.7774 43.4299 96.2083 43.7614C96.6425 44.0928 96.9507 44.5303 97.133 45.0739ZM105.579 51.1392C104.91 51.1392 104.333 51.0166 103.849 50.7713C103.365 50.526 102.993 50.1896 102.731 49.7621C102.469 49.3345 102.338 48.8456 102.338 48.2955C102.338 47.8712 102.427 47.495 102.606 47.1669C102.789 46.8355 103.039 46.5289 103.357 46.2472C103.679 45.9621 104.048 45.6771 104.466 45.392L105.937 44.2983C106.226 44.1094 106.456 43.9072 106.628 43.6918C106.804 43.4763 106.892 43.1946 106.892 42.8466C106.892 42.5881 106.778 42.3378 106.549 42.0959C106.324 41.8539 106.027 41.733 105.659 41.733C105.4 41.733 105.172 41.7992 104.973 41.9318C104.777 42.0611 104.623 42.2268 104.511 42.429C104.401 42.6278 104.346 42.8333 104.346 43.0455C104.346 43.2841 104.411 43.526 104.54 43.7713C104.673 44.0133 104.84 44.2618 105.042 44.517C105.248 44.7689 105.46 45.0275 105.679 45.2926L110.352 51H108.94L105.082 46.3466C104.724 45.9157 104.399 45.5246 104.108 45.1733C103.816 44.822 103.584 44.4756 103.412 44.1342C103.239 43.7929 103.153 43.4233 103.153 43.0256C103.153 42.5682 103.254 42.1671 103.457 41.8224C103.662 41.4744 103.949 41.2043 104.317 41.0121C104.688 40.8165 105.122 40.7188 105.619 40.7188C106.13 40.7188 106.569 40.8182 106.937 41.017C107.305 41.2126 107.588 41.4728 107.787 41.7976C107.986 42.1191 108.085 42.4688 108.085 42.8466C108.085 43.3338 107.964 43.7564 107.722 44.1143C107.48 44.4723 107.15 44.8054 106.733 45.1136L104.704 46.625C104.247 46.9631 103.937 47.2912 103.775 47.6094C103.612 47.9276 103.531 48.1562 103.531 48.2955C103.531 48.6136 103.614 48.9103 103.78 49.1854C103.945 49.4605 104.179 49.6825 104.481 49.8516C104.782 50.0206 105.135 50.1051 105.54 50.1051C105.924 50.1051 106.299 50.0239 106.663 49.8615C107.028 49.6958 107.358 49.4571 107.653 49.1456C107.951 48.834 108.186 48.4595 108.359 48.022C108.534 47.5845 108.622 47.0923 108.622 46.5455H109.756C109.756 47.2216 109.678 47.7734 109.522 48.201C109.366 48.6286 109.19 48.9633 108.995 49.2053C108.799 49.4472 108.642 49.6278 108.523 49.7472C108.483 49.7969 108.446 49.8466 108.413 49.8963C108.38 49.946 108.344 49.9957 108.304 50.0455C107.976 50.4134 107.561 50.6884 107.061 50.8707C106.56 51.0497 106.067 51.1392 105.579 51.1392ZM114.593 40.8182H116.004L118.828 45.571H118.948L121.772 40.8182H123.183L119.504 46.804V51H118.272V46.804L114.593 40.8182ZM126.501 51.1591C125.812 51.1591 125.207 50.995 124.687 50.6669C124.17 50.3388 123.765 49.8797 123.474 49.2898C123.185 48.6998 123.041 48.0104 123.041 47.2216C123.041 46.4261 123.185 45.7318 123.474 45.1385C123.765 44.5452 124.17 44.0845 124.687 43.7564C125.207 43.4283 125.812 43.2642 126.501 43.2642C127.191 43.2642 127.794 43.4283 128.311 43.7564C128.831 44.0845 129.236 44.5452 129.524 45.1385C129.816 45.7318 129.961 46.4261 129.961 47.2216C129.961 48.0104 129.816 48.6998 129.524 49.2898C129.236 49.8797 128.831 50.3388 128.311 50.6669C127.794 50.995 127.191 51.1591 126.501 51.1591ZM126.501 50.1051C127.025 50.1051 127.456 49.9709 127.794 49.7024C128.132 49.4339 128.382 49.081 128.545 48.6435C128.707 48.206 128.788 47.732 128.788 47.2216C128.788 46.7112 128.707 46.2356 128.545 45.7947C128.382 45.3539 128.132 44.9976 127.794 44.7259C127.456 44.4541 127.025 44.3182 126.501 44.3182C125.978 44.3182 125.547 44.4541 125.209 44.7259C124.871 44.9976 124.62 45.3539 124.458 45.7947C124.295 46.2356 124.214 46.7112 124.214 47.2216C124.214 47.732 124.295 48.206 124.458 48.6435C124.62 49.081 124.871 49.4339 125.209 49.7024C125.547 49.9709 125.978 50.1051 126.501 50.1051ZM129.707 40.8182H131.119L133.943 45.571H134.062L136.886 40.8182H138.298L134.619 46.804V51H133.386V46.804L129.707 40.8182ZM148.562 49.0909V48.554C148.562 48.1828 148.638 47.843 148.79 47.5348C148.946 47.2232 149.171 46.9747 149.466 46.7891C149.765 46.6001 150.126 46.5057 150.55 46.5057C150.981 46.5057 151.342 46.6001 151.634 46.7891C151.926 46.9747 152.146 47.2232 152.295 47.5348C152.444 47.843 152.519 48.1828 152.519 48.554V49.0909C152.519 49.4621 152.443 49.8035 152.29 50.1151C152.141 50.4233 151.919 50.6719 151.624 50.8608C151.332 51.0464 150.974 51.1392 150.55 51.1392C150.119 51.1392 149.756 51.0464 149.461 50.8608C149.166 50.6719 148.943 50.4233 148.79 50.1151C148.638 49.8035 148.562 49.4621 148.562 49.0909ZM149.576 48.554V49.0909C149.576 49.3991 149.649 49.6759 149.794 49.9212C149.94 50.1631 150.192 50.2841 150.55 50.2841C150.898 50.2841 151.143 50.1631 151.286 49.9212C151.432 49.6759 151.505 49.3991 151.505 49.0909V48.554C151.505 48.2457 151.435 47.9706 151.296 47.7287C151.157 47.4834 150.908 47.3608 150.55 47.3608C150.202 47.3608 149.952 47.4834 149.799 47.7287C149.65 47.9706 149.576 48.2457 149.576 48.554ZM143.49 43.2642V42.7273C143.49 42.3561 143.567 42.0163 143.719 41.7081C143.875 41.3965 144.1 41.148 144.395 40.9624C144.694 40.7734 145.055 40.679 145.479 40.679C145.91 40.679 146.271 40.7734 146.563 40.9624C146.855 41.148 147.075 41.3965 147.224 41.7081C147.373 42.0163 147.448 42.3561 147.448 42.7273V43.2642C147.448 43.6354 147.372 43.9768 147.219 44.2884C147.07 44.5966 146.848 44.8452 146.553 45.0341C146.261 45.2197 145.903 45.3125 145.479 45.3125C145.048 45.3125 144.685 45.2197 144.39 45.0341C144.095 44.8452 143.872 44.5966 143.719 44.2884C143.567 43.9768 143.49 43.6354 143.49 43.2642ZM144.505 42.7273V43.2642C144.505 43.5724 144.578 43.8492 144.723 44.0945C144.869 44.3364 145.121 44.4574 145.479 44.4574C145.827 44.4574 146.072 44.3364 146.215 44.0945C146.361 43.8492 146.434 43.5724 146.434 43.2642V42.7273C146.434 42.419 146.364 42.1439 146.225 41.902C146.086 41.6567 145.837 41.5341 145.479 41.5341C145.131 41.5341 144.881 41.6567 144.728 41.902C144.579 42.1439 144.505 42.419 144.505 42.7273ZM143.868 51L150.868 40.8182H152.002L145.002 51H143.868ZM161.526 51.1591C160.81 51.1591 160.193 50.9901 159.676 50.652C159.159 50.3139 158.762 49.8482 158.483 49.255C158.205 48.6617 158.066 47.9839 158.066 47.2216C158.066 46.446 158.208 45.7616 158.493 45.1683C158.782 44.5717 159.183 44.1061 159.696 43.7713C160.213 43.4332 160.817 43.2642 161.506 43.2642C162.043 43.2642 162.527 43.3636 162.958 43.5625C163.389 43.7614 163.741 44.0398 164.017 44.3977C164.292 44.7557 164.462 45.1733 164.529 45.6506H163.355C163.266 45.3026 163.067 44.9943 162.759 44.7259C162.454 44.4541 162.043 44.3182 161.526 44.3182C161.068 44.3182 160.667 44.4375 160.323 44.6761C159.981 44.9115 159.715 45.2446 159.522 45.6754C159.333 46.103 159.239 46.6051 159.239 47.1818C159.239 47.7718 159.332 48.2855 159.517 48.723C159.706 49.1605 159.971 49.5002 160.313 49.7422C160.657 49.9841 161.062 50.1051 161.526 50.1051C161.831 50.1051 162.107 50.0521 162.356 49.946C162.605 49.84 162.815 49.6875 162.987 49.4886C163.16 49.2898 163.282 49.0511 163.355 48.7727H164.529C164.462 49.2235 164.298 49.6295 164.036 49.9908C163.778 50.3487 163.435 50.6338 163.007 50.8459C162.583 51.0547 162.089 51.1591 161.526 51.1591ZM167.277 46.4062V51H166.104V40.8182H167.277V44.5568H167.377C167.556 44.1624 167.824 43.8492 168.182 43.6172C168.543 43.3819 169.024 43.2642 169.624 43.2642C170.144 43.2642 170.6 43.3686 170.991 43.5774C171.382 43.7829 171.685 44.0994 171.901 44.527C172.119 44.9512 172.229 45.4915 172.229 46.1477V51H171.056V46.2273C171.056 45.6207 170.898 45.1518 170.583 44.8203C170.272 44.4856 169.839 44.3182 169.286 44.3182C168.901 44.3182 168.557 44.3994 168.252 44.5618C167.95 44.7242 167.711 44.9612 167.536 45.2727C167.363 45.5843 167.277 45.9621 167.277 46.4062ZM176.483 51.179C175.999 51.179 175.559 51.0878 175.165 50.9055C174.771 50.7199 174.457 50.4531 174.225 50.1051C173.993 49.7538 173.877 49.3295 173.877 48.8324C173.877 48.3949 173.964 48.0402 174.136 47.7685C174.308 47.4934 174.539 47.2779 174.827 47.1222C175.115 46.9664 175.434 46.8504 175.782 46.7741C176.133 46.6946 176.486 46.6316 176.84 46.5852C177.304 46.5256 177.681 46.4808 177.969 46.451C178.261 46.4179 178.473 46.3632 178.605 46.2869C178.741 46.2107 178.809 46.0781 178.809 45.8892V45.8494C178.809 45.3589 178.675 44.9777 178.407 44.706C178.141 44.4342 177.739 44.2983 177.198 44.2983C176.638 44.2983 176.199 44.4209 175.881 44.6662C175.563 44.9115 175.339 45.1733 175.21 45.4517L174.096 45.054C174.295 44.59 174.56 44.2287 174.892 43.9702C175.226 43.7083 175.591 43.526 175.985 43.4233C176.383 43.3172 176.774 43.2642 177.159 43.2642C177.404 43.2642 177.686 43.294 178.004 43.3537C178.325 43.41 178.635 43.5277 178.934 43.7067C179.235 43.8857 179.485 44.1558 179.684 44.517C179.883 44.8783 179.983 45.3622 179.983 45.9688V51H178.809V49.9659H178.75C178.67 50.1316 178.537 50.3089 178.352 50.4979C178.166 50.6868 177.919 50.8475 177.611 50.9801C177.303 51.1127 176.927 51.179 176.483 51.179ZM176.661 50.125C177.125 50.125 177.517 50.0339 177.835 49.8516C178.156 49.6693 178.398 49.4339 178.561 49.1456C178.726 48.8572 178.809 48.554 178.809 48.2358V47.1619C178.759 47.2216 178.65 47.2763 178.481 47.326C178.315 47.3724 178.123 47.4138 177.904 47.4503C177.689 47.4834 177.478 47.5133 177.273 47.5398C177.071 47.563 176.907 47.5829 176.781 47.5994C176.476 47.6392 176.191 47.7038 175.926 47.7933C175.664 47.8795 175.452 48.0104 175.289 48.1861C175.13 48.3584 175.051 48.5937 175.051 48.892C175.051 49.2997 175.201 49.608 175.503 49.8168C175.808 50.0223 176.194 50.125 176.661 50.125ZM183.157 46.4062V51H181.984V43.3636H183.118V44.5568H183.217C183.396 44.169 183.668 43.8575 184.032 43.6222C184.397 43.3835 184.868 43.2642 185.444 43.2642C185.961 43.2642 186.414 43.3703 186.801 43.5824C187.189 43.7912 187.491 44.1094 187.706 44.5369C187.922 44.9612 188.029 45.4981 188.029 46.1477V51H186.856V46.2273C186.856 45.6274 186.7 45.16 186.389 44.8253C186.077 44.4872 185.65 44.3182 185.106 44.3182C184.732 44.3182 184.397 44.3994 184.102 44.5618C183.81 44.7242 183.58 44.9612 183.411 45.2727C183.242 45.5843 183.157 45.9621 183.157 46.4062ZM193.116 54.0227C192.549 54.0227 192.062 53.9498 191.654 53.804C191.247 53.6615 190.907 53.4725 190.635 53.2372C190.367 53.0052 190.153 52.7566 189.994 52.4915L190.928 51.8352C191.034 51.9744 191.169 52.1335 191.331 52.3125C191.493 52.4948 191.716 52.6522 191.997 52.7848C192.282 52.9207 192.655 52.9886 193.116 52.9886C193.732 52.9886 194.241 52.8395 194.642 52.5412C195.043 52.2429 195.244 51.7756 195.244 51.1392V49.5881H195.144C195.058 49.7273 194.935 49.8996 194.776 50.1051C194.621 50.3073 194.395 50.4879 194.1 50.647C193.809 50.8028 193.414 50.8807 192.917 50.8807C192.301 50.8807 191.747 50.7348 191.256 50.4432C190.769 50.1515 190.383 49.7273 190.098 49.1705C189.816 48.6136 189.676 47.9375 189.676 47.142C189.676 46.3598 189.813 45.6787 190.088 45.0987C190.363 44.5154 190.746 44.0646 191.237 43.7464C191.727 43.425 192.294 43.2642 192.937 43.2642C193.434 43.2642 193.828 43.3471 194.12 43.5128C194.415 43.6752 194.64 43.8608 194.796 44.0696C194.955 44.2751 195.078 44.4441 195.164 44.5767H195.283V43.3636H196.417V51.2188C196.417 51.875 196.268 52.4086 195.97 52.8196C195.675 53.2339 195.277 53.5372 194.776 53.7294C194.279 53.925 193.726 54.0227 193.116 54.0227ZM193.076 49.8267C193.547 49.8267 193.944 49.719 194.269 49.5036C194.594 49.2881 194.841 48.9782 195.01 48.5739C195.179 48.1695 195.264 47.6856 195.264 47.1222C195.264 46.572 195.181 46.0864 195.015 45.6655C194.849 45.2446 194.604 44.9148 194.279 44.6761C193.954 44.4375 193.553 44.3182 193.076 44.3182C192.579 44.3182 192.165 44.4441 191.833 44.696C191.505 44.9479 191.258 45.286 191.092 45.7102C190.93 46.1345 190.849 46.6051 190.849 47.1222C190.849 47.6525 190.932 48.1214 191.097 48.5291C191.266 48.9335 191.515 49.2517 191.843 49.4837C192.175 49.7124 192.586 49.8267 193.076 49.8267ZM201.626 51.1591C200.891 51.1591 200.256 50.9967 199.722 50.6719C199.192 50.3438 198.783 49.8864 198.494 49.2997C198.209 48.7098 198.067 48.0237 198.067 47.2415C198.067 46.4593 198.209 45.7699 198.494 45.1733C198.783 44.5734 199.184 44.1061 199.697 43.7713C200.214 43.4332 200.818 43.2642 201.507 43.2642C201.905 43.2642 202.298 43.3305 202.685 43.4631C203.073 43.5956 203.426 43.8111 203.744 44.1094C204.063 44.4044 204.316 44.7955 204.505 45.2827C204.694 45.7699 204.788 46.3698 204.788 47.0824V47.5795H198.902V46.5653H203.595C203.595 46.1345 203.509 45.75 203.337 45.4119C203.168 45.0739 202.926 44.8071 202.611 44.6115C202.299 44.416 201.931 44.3182 201.507 44.3182C201.04 44.3182 200.635 44.4342 200.294 44.6662C199.956 44.8949 199.696 45.1932 199.514 45.5611C199.331 45.929 199.24 46.3234 199.24 46.7443V47.4205C199.24 47.9972 199.339 48.486 199.538 48.8871C199.741 49.2848 200.021 49.5881 200.379 49.7969C200.737 50.0024 201.152 50.1051 201.626 50.1051C201.935 50.1051 202.213 50.062 202.462 49.9759C202.714 49.8864 202.931 49.7538 203.113 49.5781C203.295 49.3991 203.436 49.1771 203.536 48.9119L204.669 49.2301C204.55 49.6146 204.349 49.9527 204.067 50.2443C203.786 50.5327 203.438 50.758 203.023 50.9205C202.609 51.0795 202.143 51.1591 201.626 51.1591ZM210.39 51V40.8182H211.563V44.5767H211.662C211.749 44.4441 211.868 44.2751 212.02 44.0696C212.176 43.8608 212.398 43.6752 212.687 43.5128C212.978 43.3471 213.373 43.2642 213.87 43.2642C214.513 43.2642 215.08 43.425 215.57 43.7464C216.061 44.0679 216.443 44.5237 216.719 45.1136C216.994 45.7036 217.131 46.3996 217.131 47.2017C217.131 48.0104 216.994 48.7114 216.719 49.3047C216.443 49.8946 216.062 50.352 215.575 50.6768C215.088 50.9983 214.526 51.1591 213.89 51.1591C213.399 51.1591 213.006 51.0779 212.711 50.9155C212.417 50.7498 212.189 50.5625 212.03 50.3537C211.871 50.1416 211.749 49.9659 211.662 49.8267H211.523V51H210.39ZM211.543 47.1818C211.543 47.7585 211.628 48.2673 211.797 48.7081C211.966 49.1456 212.213 49.4886 212.537 49.7372C212.862 49.9825 213.26 50.1051 213.731 50.1051C214.221 50.1051 214.631 49.9759 214.959 49.7173C215.29 49.4555 215.539 49.1042 215.704 48.6634C215.873 48.2192 215.958 47.7254 215.958 47.1818C215.958 46.6449 215.875 46.161 215.709 45.7301C215.547 45.2959 215.3 44.9529 214.969 44.701C214.64 44.4458 214.228 44.3182 213.731 44.3182C213.253 44.3182 212.852 44.4392 212.528 44.6811C212.203 44.9197 211.957 45.2545 211.792 45.6854C211.626 46.1129 211.543 46.6117 211.543 47.1818ZM219.268 53.8636C219.069 53.8636 218.892 53.8471 218.736 53.8139C218.58 53.7841 218.473 53.7543 218.413 53.7244L218.711 52.6903C218.996 52.7633 219.248 52.7898 219.467 52.7699C219.686 52.75 219.88 52.6522 220.049 52.4766C220.221 52.3042 220.379 52.0241 220.521 51.6364L220.74 51.0398L217.916 43.3636H219.189L221.297 49.4489H221.376L223.484 43.3636H224.757L221.515 52.1136C221.37 52.508 221.189 52.8345 220.973 53.093C220.758 53.3549 220.508 53.5488 220.223 53.6747C219.941 53.8007 219.623 53.8636 219.268 53.8636ZM232.847 51.1591C232.21 51.1591 231.648 50.9983 231.161 50.6768C230.674 50.352 230.293 49.8946 230.018 49.3047C229.743 48.7114 229.605 48.0104 229.605 47.2017C229.605 46.3996 229.743 45.7036 230.018 45.1136C230.293 44.5237 230.676 44.0679 231.166 43.7464C231.657 43.425 232.223 43.2642 232.866 43.2642C233.364 43.2642 233.756 43.3471 234.045 43.5128C234.336 43.6752 234.558 43.8608 234.711 44.0696C234.867 44.2751 234.988 44.4441 235.074 44.5767H235.173V40.8182H236.347V51H235.213V49.8267H235.074C234.988 49.9659 234.865 50.1416 234.706 50.3537C234.547 50.5625 234.32 50.7498 234.025 50.9155C233.73 51.0779 233.337 51.1591 232.847 51.1591ZM233.006 50.1051C233.476 50.1051 233.874 49.9825 234.199 49.7372C234.524 49.4886 234.771 49.1456 234.94 48.7081C235.109 48.2673 235.193 47.7585 235.193 47.1818C235.193 46.6117 235.11 46.1129 234.945 45.6854C234.779 45.2545 234.534 44.9197 234.209 44.6811C233.884 44.4392 233.483 44.3182 233.006 44.3182C232.508 44.3182 232.094 44.4458 231.763 44.701C231.435 44.9529 231.188 45.2959 231.022 45.7301C230.86 46.161 230.778 46.6449 230.778 47.1818C230.778 47.7254 230.861 48.2192 231.027 48.6634C231.196 49.1042 231.445 49.4555 231.773 49.7173C232.104 49.9759 232.515 50.1051 233.006 50.1051ZM240.765 51.179C240.282 51.179 239.842 51.0878 239.448 50.9055C239.054 50.7199 238.74 50.4531 238.508 50.1051C238.276 49.7538 238.16 49.3295 238.16 48.8324C238.16 48.3949 238.247 48.0402 238.419 47.7685C238.591 47.4934 238.822 47.2779 239.11 47.1222C239.398 46.9664 239.716 46.8504 240.064 46.7741C240.416 46.6946 240.769 46.6316 241.123 46.5852C241.587 46.5256 241.964 46.4808 242.252 46.451C242.544 46.4179 242.756 46.3632 242.888 46.2869C243.024 46.2107 243.092 46.0781 243.092 45.8892V45.8494C243.092 45.3589 242.958 44.9777 242.689 44.706C242.424 44.4342 242.022 44.2983 241.481 44.2983C240.921 44.2983 240.482 44.4209 240.164 44.6662C239.846 44.9115 239.622 45.1733 239.493 45.4517L238.379 45.054C238.578 44.59 238.843 44.2287 239.175 43.9702C239.509 43.7083 239.874 43.526 240.268 43.4233C240.666 43.3172 241.057 43.2642 241.442 43.2642C241.687 43.2642 241.969 43.294 242.287 43.3537C242.608 43.41 242.918 43.5277 243.216 43.7067C243.518 43.8857 243.768 44.1558 243.967 44.517C244.166 44.8783 244.265 45.3622 244.265 45.9688V51H243.092V49.9659H243.033C242.953 50.1316 242.82 50.3089 242.635 50.4979C242.449 50.6868 242.202 50.8475 241.894 50.9801C241.586 51.1127 241.21 51.179 240.765 51.179ZM240.944 50.125C241.408 50.125 241.8 50.0339 242.118 49.8516C242.439 49.6693 242.681 49.4339 242.844 49.1456C243.009 48.8572 243.092 48.554 243.092 48.2358V47.1619C243.042 47.2216 242.933 47.2763 242.764 47.326C242.598 47.3724 242.406 47.4138 242.187 47.4503C241.972 47.4834 241.761 47.5133 241.556 47.5398C241.354 47.563 241.19 47.5829 241.064 47.5994C240.759 47.6392 240.474 47.7038 240.209 47.7933C239.947 47.8795 239.735 48.0104 239.572 48.1861C239.413 48.3584 239.334 48.5937 239.334 48.892C239.334 49.2997 239.484 49.608 239.786 49.8168C240.091 50.0223 240.477 50.125 240.944 50.125ZM246.749 53.8636C246.55 53.8636 246.373 53.8471 246.217 53.8139C246.062 53.7841 245.954 53.7543 245.894 53.7244L246.192 52.6903C246.477 52.7633 246.729 52.7898 246.948 52.7699C247.167 52.75 247.361 52.6522 247.53 52.4766C247.702 52.3042 247.86 52.0241 248.002 51.6364L248.221 51.0398L245.397 43.3636H246.67L248.778 49.4489H248.857L250.965 43.3636H252.238L248.996 52.1136C248.851 52.508 248.67 52.8345 248.454 53.093C248.239 53.3549 247.989 53.5488 247.704 53.6747C247.422 53.8007 247.104 53.8636 246.749 53.8636Z" fill="#5C697C"/>
<path d="M18 153C18 151.895 18.8954 151 20 151H23C24.1046 151 25 151.895 25 153L25 241C25 242.105 24.1046 243 23 243H20C18.8954 243 18 242.105 18 241L18 153Z" fill="#1184E9"/>
<path d="M27 171C27 169.895 27.8954 169 29 169H32C33.1046 169 34 169.895 34 171L34 241C34 242.105 33.1046 243 32 243H29C27.8954 243 27 242.105 27 241L27 171Z" fill="#1184E9"/>
<path d="M36 175C36 173.895 36.8954 173 38 173H41C42.1046 173 43 173.895 43 175L43 241C43 242.105 42.1046 243 41 243H38C36.8954 243 36 242.105 36 241L36 175Z" fill="#C1E2FE"/>
<path d="M45 183C45 181.895 45.8954 181 47 181H50C51.1046 181 52 181.895 52 183L52 241C52 242.105 51.1046 243 50 243H47C45.8954 243 45 242.105 45 241L45 183Z" fill="#C1E2FE"/>
<path d="M54 190C54 188.895 54.8954 188 56 188H59C60.1046 188 61 188.895 61 190L61 241C61 242.105 60.1046 243 59 243H56C54.8954 243 54 242.105 54 241L54 190Z" fill="#1184E9"/>
<path d="M63 201C63 199.895 63.8954 199 65 199H68C69.1046 199 70 199.895 70 201L70 241C70 242.105 69.1046 243 68 243H65C63.8954 243 63 242.105 63 241L63 201Z" fill="#1184E9"/>
<path d="M72 207C72 205.895 72.8954 205 74 205H77C78.1046 205 79 205.895 79 207L79 241C79 242.105 78.1046 243 77 243H74C72.8954 243 72 242.105 72 241L72 207Z" fill="#FFD5B4"/>
<path d="M81 207C81 205.895 81.8954 205 83 205H86C87.1046 205 88 205.895 88 207L88 241C88 242.105 87.1046 243 86 243H83C81.8954 243 81 242.105 81 241L81 207Z" fill="#FF7001"/>
<path d="M90 215C90 213.895 90.8954 213 92 213H95C96.1046 213 97 213.895 97 215L97 241C97 242.105 96.1046 243 95 243H92C90.8954 243 90 242.105 90 241L90 215Z" fill="#FF7001"/>
<path d="M99 209C99 207.895 99.8954 207 101 207H104C105.105 207 106 207.895 106 209L106 241C106 242.105 105.105 243 104 243H101C99.8954 243 99 242.105 99 241L99 209Z" fill="#FF7001"/>
<path d="M108 194C108 192.895 108.895 192 110 192H113C114.105 192 115 192.895 115 194L115 241C115 242.105 114.105 243 113 243H110C108.895 243 108 242.105 108 241L108 194Z" fill="#FFD5B4"/>
<path d="M117 168C117 166.895 117.895 166 119 166H122C123.105 166 124 166.895 124 168L124 241C124 242.105 123.105 243 122 243H119C117.895 243 117 242.105 117 241L117 168Z" fill="#1184E9"/>
<path d="M126 160C126 158.895 126.895 158 128 158H131C132.105 158 133 158.895 133 160V241C133 242.105 132.105 243 131 243H128C126.895 243 126 242.105 126 241L126 160Z" fill="#1184E9"/>
<path d="M135 160C135 158.895 135.895 158 137 158H140C141.105 158 142 158.895 142 160V241C142 242.105 141.105 243 140 243H137C135.895 243 135 242.105 135 241V160Z" fill="#1184E9"/>
<path d="M144 175C144 173.895 144.895 173 146 173H149C150.105 173 151 173.895 151 175V241C151 242.105 150.105 243 149 243H146C144.895 243 144 242.105 144 241V175Z" fill="#FF7001"/>
<path d="M153 168C153 166.895 153.895 166 155 166H158C159.105 166 160 166.895 160 168V241C160 242.105 159.105 243 158 243H155C153.895 243 153 242.105 153 241V168Z" fill="#FF7001"/>
<path d="M162 189C162 187.895 162.895 187 164 187H167C168.105 187 169 187.895 169 189V241C169 242.105 168.105 243 167 243H164C162.895 243 162 242.105 162 241V189Z" fill="#FF7001"/>
<path d="M171 153C171 151.895 171.895 151 173 151H176C177.105 151 178 151.895 178 153L178 241C178 242.105 177.105 243 176 243H173C171.895 243 171 242.105 171 241L171 153Z" fill="#1184E9"/>
<path d="M180 171C180 169.895 180.895 169 182 169H185C186.105 169 187 169.895 187 171L187 241C187 242.105 186.105 243 185 243H182C180.895 243 180 242.105 180 241L180 171Z" fill="#1184E9"/>
<path d="M189 175C189 173.895 189.895 173 191 173H194C195.105 173 196 173.895 196 175L196 241C196 242.105 195.105 243 194 243H191C189.895 243 189 242.105 189 241L189 175Z" fill="#1184E9"/>
<path d="M198 183C198 181.895 198.895 181 200 181H203C204.105 181 205 181.895 205 183L205 241C205 242.105 204.105 243 203 243H200C198.895 243 198 242.105 198 241L198 183Z" fill="#C1E2FE"/>
<path d="M207 190C207 188.895 207.895 188 209 188H212C213.105 188 214 188.895 214 190V241C214 242.105 213.105 243 212 243H209C207.895 243 207 242.105 207 241V190Z" fill="#C1E2FE"/>
<path d="M216 201C216 199.895 216.895 199 218 199H221C222.105 199 223 199.895 223 201V241C223 242.105 222.105 243 221 243H218C216.895 243 216 242.105 216 241V201Z" fill="#C1E2FE"/>
<path d="M225 207C225 205.895 225.895 205 227 205H230C231.105 205 232 205.895 232 207V241C232 242.105 231.105 243 230 243H227C225.895 243 225 242.105 225 241V207Z" fill="#1184E9"/>
<path d="M234 207C234 205.895 234.895 205 236 205H239C240.105 205 241 205.895 241 207V241C241 242.105 240.105 243 239 243H236C234.895 243 234 242.105 234 241V207Z" fill="#1184E9"/>
<path d="M243 230C243 228.895 243.895 228 245 228H248C249.105 228 250 228.895 250 230V241C250 242.105 249.105 243 248 243H245C243.895 243 243 242.105 243 241V230Z" fill="#FFD5B4"/>
<path d="M252 227C252 225.895 252.895 225 254 225H257C258.105 225 259 225.895 259 227V241C259 242.105 258.105 243 257 243H254C252.895 243 252 242.105 252 241V227Z" fill="#FFD5B4"/>
<path d="M261 219C261 217.895 261.895 217 263 217H266C267.105 217 268 217.895 268 219V241C268 242.105 267.105 243 266 243H263C261.895 243 261 242.105 261 241V219Z" fill="#FFD5B4"/>
<path d="M270 207C270 205.895 270.895 205 272 205H275C276.105 205 277 205.895 277 207V241C277 242.105 276.105 243 275 243H272C270.895 243 270 242.105 270 241V207Z" fill="#FF7001"/>
<path d="M279 201C279 199.895 279.895 199 281 199H284C285.105 199 286 199.895 286 201V241C286 242.105 285.105 243 284 243H281C279.895 243 279 242.105 279 241V201Z" fill="#FF7001"/>
<path d="M288 212C288 210.895 288.895 210 290 210H293C294.105 210 295 210.895 295 212V241C295 242.105 294.105 243 293 243H290C288.895 243 288 242.105 288 241V212Z" fill="#FF7001"/>
<path d="M297 181C297 179.895 297.895 179 299 179H302C303.105 179 304 179.895 304 181V241C304 242.105 303.105 243 302 243H299C297.895 243 297 242.105 297 241V181Z" fill="#FFD5B4"/>
<path d="M306 198C306 196.895 306.895 196 308 196H311C312.105 196 313 196.895 313 198V241C313 242.105 312.105 243 311 243H308C306.895 243 306 242.105 306 241V198Z" fill="#FFD5B4"/>
<path d="M315 212C315 210.895 315.895 210 317 210H320C321.105 210 322 210.895 322 212V241C322 242.105 321.105 243 320 243H317C315.895 243 315 242.105 315 241V212Z" fill="#1184E9"/>
<path d="M324 198C324 196.895 324.895 196 326 196H329C330.105 196 331 196.895 331 198V241C331 242.105 330.105 243 329 243H326C324.895 243 324 242.105 324 241V198Z" fill="#1184E9"/>
<path d="M333 189C333 187.895 333.895 187 335 187H338C339.105 187 340 187.895 340 189V241C340 242.105 339.105 243 338 243H335C333.895 243 333 242.105 333 241V189Z" fill="#1184E9"/>
<path d="M342 194C342 192.895 342.895 192 344 192H347C348.105 192 349 192.895 349 194V241C349 242.105 348.105 243 347 243H344C342.895 243 342 242.105 342 241V194Z" fill="#C1E2FE"/>
<path d="M351 198C351 196.895 351.895 196 353 196H356C357.105 196 358 196.895 358 198V241C358 242.105 357.105 243 356 243H353C351.895 243 351 242.105 351 241V198Z" fill="#C1E2FE"/>
<path d="M360 204C360 202.895 360.895 202 362 202H365C366.105 202 367 202.895 367 204V241C367 242.105 366.105 243 365 243H362C360.895 243 360 242.105 360 241V204Z" fill="#C1E2FE"/>
<path d="M369 212C369 210.895 369.895 210 371 210H374C375.105 210 376 210.895 376 212V241C376 242.105 375.105 243 374 243H371C369.895 243 369 242.105 369 241V212Z" fill="#1184E9"/>
<path d="M378 216C378 214.895 378.895 214 380 214H383C384.105 214 385 214.895 385 216V241C385 242.105 384.105 243 383 243H380C378.895 243 378 242.105 378 241V216Z" fill="#1184E9"/>
<path d="M387 207C387 205.895 387.895 205 389 205H392C393.105 205 394 205.895 394 207V241C394 242.105 393.105 243 392 243H389C387.895 243 387 242.105 387 241V207Z" fill="#1184E9"/>
<path d="M396 219C396 217.895 396.895 217 398 217H401C402.105 217 403 217.895 403 219V241C403 242.105 402.105 243 401 243H398C396.895 243 396 242.105 396 241V219Z" fill="#1184E9"/>
<path d="M405 216C405 214.895 405.895 214 407 214H410C411.105 214 412 214.895 412 216V241C412 242.105 411.105 243 410 243H407C405.895 243 405 242.105 405 241V216Z" fill="#1184E9"/>
<path d="M414 204C414 202.895 414.895 202 416 202H419C420.105 202 421 202.895 421 204V241C421 242.105 420.105 243 419 243H416C414.895 243 414 242.105 414 241V204Z" fill="#1184E9"/>
<path d="M423 183C423 181.895 423.895 181 425 181H428C429.105 181 430 181.895 430 183V241C430 242.105 429.105 243 428 243H425C423.895 243 423 242.105 423 241V183Z" fill="#1184E9"/>
<path d="M432 175C432 173.895 432.895 173 434 173H437C438.105 173 439 173.895 439 175V241C439 242.105 438.105 243 437 243H434C432.895 243 432 242.105 432 241V175Z" fill="#1184E9"/>
<path d="M441 171C441 169.895 441.895 169 443 169H446C447.105 169 448 169.895 448 171V241C448 242.105 447.105 243 446 243H443C441.895 243 441 242.105 441 241V171Z" fill="#1184E9"/>
<path d="M450 183C450 181.895 450.895 181 452 181H455C456.105 181 457 181.895 457 183V241C457 242.105 456.105 243 455 243H452C450.895 243 450 242.105 450 241V183Z" fill="#C1E2FE"/>
<path d="M459 178C459 176.895 459.895 176 461 176H464C465.105 176 466 176.895 466 178V241C466 242.105 465.105 243 464 243H461C459.895 243 459 242.105 459 241V178Z" fill="#C1E2FE"/>
<path d="M468 194C468 192.895 468.895 192 470 192H473C474.105 192 475 192.895 475 194V241C475 242.105 474.105 243 473 243H470C468.895 243 468 242.105 468 241V194Z" fill="#1184E9"/>
<path d="M477 178C477 176.895 477.895 176 479 176H482C483.105 176 484 176.895 484 178V241C484 242.105 483.105 243 482 243H479C477.895 243 477 242.105 477 241V178Z" fill="#1184E9"/>
<path d="M486 190C486 188.895 486.895 188 488 188H491C492.105 188 493 188.895 493 190V241C493 242.105 492.105 243 491 243H488C486.895 243 486 242.105 486 241V190Z" fill="#C1E2FE"/>
<path d="M495 194C495 192.895 495.895 192 497 192H500C501.105 192 502 192.895 502 194V241C502 242.105 501.105 243 500 243H497C495.895 243 495 242.105 495 241V194Z" fill="#C1E2FE"/>
<path d="M504 201C504 199.895 504.895 199 506 199H509C510.105 199 511 199.895 511 201V241C511 242.105 510.105 243 509 243H506C504.895 243 504 242.105 504 241V201Z" fill="#C1E2FE"/>
<path d="M513 207C513 205.895 513.895 205 515 205H518C519.105 205 520 205.895 520 207V241C520 242.105 519.105 243 518 243H515C513.895 243 513 242.105 513 241V207Z" fill="#1184E9"/>
<path d="M522 215C522 213.895 522.895 213 524 213H527C528.105 213 529 213.895 529 215V241C529 242.105 528.105 243 527 243H524C522.895 243 522 242.105 522 241V215Z" fill="#FF7001"/>
<path d="M531 216C531 214.895 531.895 214 533 214H536C537.105 214 538 214.895 538 216V241C538 242.105 537.105 243 536 243H533C531.895 243 531 242.105 531 241V216Z" fill="#FF7001"/>
<path d="M540 216C540 214.895 540.895 214 542 214H545C546.105 214 547 214.895 547 216V241C547 242.105 546.105 243 545 243H542C540.895 243 540 242.105 540 241V216Z" fill="#FF7001"/>
<path d="M549 216C549 214.895 549.895 214 551 214H554C555.105 214 556 214.895 556 216V241C556 242.105 555.105 243 554 243H551C549.895 243 549 242.105 549 241V216Z" fill="#FFD5B4"/>
<path d="M558 201C558 199.895 558.895 199 560 199H563C564.105 199 565 199.895 565 201V241C565 242.105 564.105 243 563 243H560C558.895 243 558 242.105 558 241V201Z" fill="#FFD5B4"/>
<path d="M567 183C567 181.895 567.895 181 569 181H572C573.105 181 574 181.895 574 183V241C574 242.105 573.105 243 572 243H569C567.895 243 567 242.105 567 241V183Z" fill="#1184E9"/>
<path d="M576 153C576 151.895 576.895 151 578 151H581C582.105 151 583 151.895 583 153V241C583 242.105 582.105 243 581 243H578C576.895 243 576 242.105 576 241V153Z" fill="#1184E9"/>
<path d="M585 142C585 140.895 585.895 140 587 140H590C591.105 140 592 140.895 592 142V241C592 242.105 591.105 243 590 243H587C585.895 243 585 242.105 585 241V142Z" fill="#1184E9"/>
<path d="M594 142C594 140.895 594.895 140 596 140H599C600.105 140 601 140.895 601 142V241C601 242.105 600.105 243 599 243H596C594.895 243 594 242.105 594 241V142Z" fill="#1184E9"/>
<path d="M603 160C603 158.895 603.895 158 605 158H608C609.105 158 610 158.895 610 160V241C610 242.105 609.105 243 608 243H605C603.895 243 603 242.105 603 241V160Z" fill="#1184E9"/>
<path d="M612 153C612 151.895 612.895 151 614 151H617C618.105 151 619 151.895 619 153V241C619 242.105 618.105 243 617 243H614C612.895 243 612 242.105 612 241V153Z" fill="#1184E9"/>
<path d="M621 175C621 173.895 621.895 173 623 173H626C627.105 173 628 173.895 628 175V241C628 242.105 627.105 243 626 243H623C621.895 243 621 242.105 621 241V175Z" fill="#1184E9"/>
<path d="M630 153C630 151.895 630.895 151 632 151H635C636.105 151 637 151.895 637 153V241C637 242.105 636.105 243 635 243H632C630.895 243 630 242.105 630 241V153Z" fill="#C1E2FE"/>
<path d="M639 171C639 169.895 639.895 169 641 169H644C645.105 169 646 169.895 646 171V241C646 242.105 645.105 243 644 243H641C639.895 243 639 242.105 639 241V171Z" fill="#C1E2FE"/>
<path d="M648 175C648 173.895 648.895 173 650 173H653C654.105 173 655 173.895 655 175V241C655 242.105 654.105 243 653 243H650C648.895 243 648 242.105 648 241V175Z" fill="#C1E2FE"/>
<path d="M657 183C657 181.895 657.895 181 659 181H662C663.105 181 664 181.895 664 183V241C664 242.105 663.105 243 662 243H659C657.895 243 657 242.105 657 241V183Z" fill="#C1E2FE"/>
<path d="M666 190C666 188.895 666.895 188 668 188H671C672.105 188 673 188.895 673 190V241C673 242.105 672.105 243 671 243H668C666.895 243 666 242.105 666 241V190Z" fill="#C1E2FE"/>
<path d="M675 201C675 199.895 675.895 199 677 199H680C681.105 199 682 199.895 682 201V241C682 242.105 681.105 243 680 243H677C675.895 243 675 242.105 675 241V201Z" fill="#1184E9"/>
<path d="M684 207C684 205.895 684.895 205 686 205H689C690.105 205 691 205.895 691 207V241C691 242.105 690.105 243 689 243H686C684.895 243 684 242.105 684 241V207Z" fill="#1184E9"/>
<path d="M693 207C693 205.895 693.895 205 695 205H698C699.105 205 700 205.895 700 207V241C700 242.105 699.105 243 698 243H695C693.895 243 693 242.105 693 241V207Z" fill="#1184E9"/>
<path d="M702 207C702 205.895 702.895 205 704 205H707C708.105 205 709 205.895 709 207V241C709 242.105 708.105 243 707 243H704C702.895 243 702 242.105 702 241V207Z" fill="#FFD5B4"/>
<path d="M711 201C711 199.895 711.895 199 713 199H716C717.105 199 718 199.895 718 201V241C718 242.105 717.105 243 716 243H713C711.895 243 711 242.105 711 241V201Z" fill="#FF7001"/>
<path d="M720 207C720 205.895 720.895 205 722 205H725C726.105 205 727 205.895 727 207V241C727 242.105 726.105 243 725 243H722C720.895 243 720 242.105 720 241V207Z" fill="#FF7001"/>
<path d="M729 189C729 187.895 729.895 187 731 187H734C735.105 187 736 187.895 736 189V241C736 242.105 735.105 243 734 243H731C729.895 243 729 242.105 729 241V189Z" fill="#FF7001"/>
<path d="M738 181C738 179.895 738.895 179 740 179H743C744.105 179 745 179.895 745 181V241C745 242.105 744.105 243 743 243H740C738.895 243 738 242.105 738 241V181Z" fill="#FF7001"/>
<path d="M747 181C747 179.895 747.895 179 749 179H752C753.105 179 754 179.895 754 181V241C754 242.105 753.105 243 752 243H749C747.895 243 747 242.105 747 241V181Z" fill="#FF7001"/>
<path d="M756 190C756 188.895 756.895 188 758 188H761C762.105 188 763 188.895 763 190V241C763 242.105 762.105 243 761 243H758C756.895 243 756 242.105 756 241V190Z" fill="#FFD5B4"/>
<path d="M765 160C765 158.895 765.895 158 767 158H770C771.105 158 772 158.895 772 160V241C772 242.105 771.105 243 770 243H767C765.895 243 765 242.105 765 241V160Z" fill="#1184E9"/>
<path d="M80.6741 258.636C80.6741 259.557 80.5079 260.352 80.1755 261.023C79.8432 261.693 79.3872 262.21 78.8076 262.574C78.2281 262.938 77.5662 263.119 76.8219 263.119C76.0775 263.119 75.4156 262.938 74.8361 262.574C74.2565 262.21 73.8005 261.693 73.4682 261.023C73.1358 260.352 72.9696 259.557 72.9696 258.636C72.9696 257.716 73.1358 256.92 73.4682 256.25C73.8005 255.58 74.2565 255.062 74.8361 254.699C75.4156 254.335 76.0775 254.153 76.8219 254.153C77.5662 254.153 78.2281 254.335 78.8076 254.699C79.3872 255.062 79.8432 255.58 80.1755 256.25C80.5079 256.92 80.6741 257.716 80.6741 258.636ZM79.6514 258.636C79.6514 257.881 79.525 257.243 79.2721 256.723C79.0221 256.203 78.6826 255.81 78.2537 255.543C77.8275 255.276 77.3503 255.142 76.8219 255.142C76.2934 255.142 75.8148 255.276 75.3858 255.543C74.9596 255.81 74.6201 256.203 74.3673 256.723C74.1173 257.243 73.9923 257.881 73.9923 258.636C73.9923 259.392 74.1173 260.03 74.3673 260.55C74.6201 261.07 74.9596 261.463 75.3858 261.73C75.8148 261.997 76.2934 262.131 76.8219 262.131C77.3503 262.131 77.8275 261.997 78.2537 261.73C78.6826 261.463 79.0221 261.07 79.2721 260.55C79.525 260.03 79.6514 259.392 79.6514 258.636ZM84.8538 263.136C84.2402 263.136 83.7118 262.991 83.2686 262.702C82.8254 262.412 82.4845 262.013 82.2459 261.504C82.0073 260.996 81.8879 260.415 81.8879 259.761C81.8879 259.097 82.0101 258.51 82.2544 258.001C82.5016 257.49 82.8453 257.091 83.2857 256.804C83.7288 256.514 84.2459 256.369 84.8368 256.369C85.297 256.369 85.7118 256.455 86.0811 256.625C86.4504 256.795 86.753 257.034 86.9888 257.341C87.2246 257.648 87.3709 258.006 87.4277 258.415H86.422C86.3453 258.116 86.1749 257.852 85.9107 257.622C85.6493 257.389 85.297 257.273 84.8538 257.273C84.4618 257.273 84.118 257.375 83.8226 257.58C83.53 257.781 83.3013 258.067 83.1365 258.436C82.9746 258.803 82.8936 259.233 82.8936 259.727C82.8936 260.233 82.9732 260.673 83.1323 261.048C83.2942 261.423 83.5215 261.714 83.8141 261.922C84.1095 262.129 84.4561 262.233 84.8538 262.233C85.1152 262.233 85.3524 262.188 85.5655 262.097C85.7786 262.006 85.959 261.875 86.1067 261.705C86.2544 261.534 86.3595 261.33 86.422 261.091H87.4277C87.3709 261.477 87.2303 261.825 87.0058 262.135C86.7842 262.442 86.4902 262.686 86.1237 262.868C85.7601 263.047 85.3368 263.136 84.8538 263.136ZM91.6245 256.455V257.307H88.2324V256.455H91.6245ZM89.2211 254.886H90.2267V261.125C90.2267 261.409 90.2679 261.622 90.3503 261.764C90.4355 261.903 90.5435 261.997 90.6742 262.045C90.8077 262.091 90.9483 262.114 91.0961 262.114C91.2069 262.114 91.2978 262.108 91.3688 262.097C91.4398 262.082 91.4966 262.071 91.5392 262.062L91.7438 262.966C91.6756 262.991 91.5804 263.017 91.4583 263.043C91.3361 263.071 91.1813 263.085 90.9938 263.085C90.7097 263.085 90.4313 263.024 90.1586 262.902C89.8887 262.78 89.6642 262.594 89.4853 262.344C89.3091 262.094 89.2211 261.778 89.2211 261.398V254.886ZM99.0507 263.119C98.4654 263.119 97.9484 263.016 97.4995 262.808C97.0535 262.598 96.7055 262.31 96.4555 261.943C96.2055 261.574 96.0819 261.153 96.0848 260.682C96.0819 260.312 96.1544 259.972 96.3021 259.659C96.4498 259.344 96.6515 259.081 96.9072 258.871C97.1657 258.658 97.4541 258.523 97.7723 258.466V258.415C97.3546 258.307 97.0223 258.072 96.7751 257.712C96.5279 257.348 96.4058 256.935 96.4086 256.472C96.4058 256.028 96.518 255.632 96.7453 255.283C96.9725 254.933 97.285 254.658 97.6828 254.456C98.0833 254.254 98.5393 254.153 99.0507 254.153C99.5563 254.153 100.008 254.254 100.406 254.456C100.804 254.658 101.116 254.933 101.343 255.283C101.573 255.632 101.69 256.028 101.693 256.472C101.69 256.935 101.563 257.348 101.313 257.712C101.066 258.072 100.738 258.307 100.329 258.415V258.466C100.644 258.523 100.929 258.658 101.181 258.871C101.434 259.081 101.636 259.344 101.786 259.659C101.937 259.972 102.014 260.312 102.017 260.682C102.014 261.153 101.886 261.574 101.633 261.943C101.383 262.31 101.035 262.598 100.589 262.808C100.146 263.016 99.633 263.119 99.0507 263.119ZM99.0507 262.182C99.4455 262.182 99.7865 262.118 100.073 261.99C100.36 261.862 100.582 261.682 100.738 261.449C100.894 261.216 100.974 260.943 100.977 260.631C100.974 260.301 100.889 260.01 100.721 259.757C100.554 259.504 100.325 259.305 100.035 259.161C99.7481 259.016 99.42 258.943 99.0507 258.943C98.6785 258.943 98.3461 259.016 98.0535 259.161C97.7637 259.305 97.535 259.504 97.3674 259.757C97.2027 260.01 97.1217 260.301 97.1245 260.631C97.1217 260.943 97.197 261.216 97.3504 261.449C97.5066 261.682 97.7296 261.862 98.0194 261.99C98.3092 262.118 98.6529 262.182 99.0507 262.182ZM99.0507 258.04C99.3632 258.04 99.6402 257.977 99.8816 257.852C100.126 257.727 100.318 257.553 100.457 257.328C100.596 257.104 100.667 256.841 100.67 256.54C100.667 256.244 100.598 255.987 100.461 255.768C100.325 255.547 100.136 255.376 99.8944 255.257C99.6529 255.135 99.3717 255.074 99.0507 255.074C98.724 255.074 98.4384 255.135 98.1941 255.257C97.9498 255.376 97.7609 255.547 97.6274 255.768C97.4938 255.987 97.4285 256.244 97.4313 256.54C97.4285 256.841 97.4953 257.104 97.6316 257.328C97.7708 257.553 97.9626 257.727 98.2069 257.852C98.4512 257.977 98.7325 258.04 99.0507 258.04Z" fill="#262B38"/>
<path d="M200.945 258.636C200.945 259.557 200.779 260.352 200.446 261.023C200.114 261.693 199.658 262.21 199.079 262.574C198.499 262.938 197.837 263.119 197.093 263.119C196.348 263.119 195.687 262.938 195.107 262.574C194.527 262.21 194.071 261.693 193.739 261.023C193.407 260.352 193.241 259.557 193.241 258.636C193.241 257.716 193.407 256.92 193.739 256.25C194.071 255.58 194.527 255.062 195.107 254.699C195.687 254.335 196.348 254.153 197.093 254.153C197.837 254.153 198.499 254.335 199.079 254.699C199.658 255.062 200.114 255.58 200.446 256.25C200.779 256.92 200.945 257.716 200.945 258.636ZM199.922 258.636C199.922 257.881 199.796 257.243 199.543 256.723C199.293 256.203 198.954 255.81 198.525 255.543C198.098 255.276 197.621 255.142 197.093 255.142C196.564 255.142 196.086 255.276 195.657 255.543C195.231 255.81 194.891 256.203 194.638 256.723C194.388 257.243 194.263 257.881 194.263 258.636C194.263 259.392 194.388 260.03 194.638 260.55C194.891 261.07 195.231 261.463 195.657 261.73C196.086 261.997 196.564 262.131 197.093 262.131C197.621 262.131 198.098 261.997 198.525 261.73C198.954 261.463 199.293 261.07 199.543 260.55C199.796 260.03 199.922 259.392 199.922 258.636ZM205.125 263.136C204.511 263.136 203.983 262.991 203.54 262.702C203.096 262.412 202.755 262.013 202.517 261.504C202.278 260.996 202.159 260.415 202.159 259.761C202.159 259.097 202.281 258.51 202.525 258.001C202.773 257.49 203.116 257.091 203.557 256.804C204 256.514 204.517 256.369 205.108 256.369C205.568 256.369 205.983 256.455 206.352 256.625C206.721 256.795 207.024 257.034 207.26 257.341C207.496 257.648 207.642 258.006 207.699 258.415H206.693C206.616 258.116 206.446 257.852 206.182 257.622C205.92 257.389 205.568 257.273 205.125 257.273C204.733 257.273 204.389 257.375 204.094 257.58C203.801 257.781 203.572 258.067 203.407 258.436C203.246 258.803 203.165 259.233 203.165 259.727C203.165 260.233 203.244 260.673 203.403 261.048C203.565 261.423 203.792 261.714 204.085 261.922C204.38 262.129 204.727 262.233 205.125 262.233C205.386 262.233 205.623 262.188 205.836 262.097C206.049 262.006 206.23 261.875 206.378 261.705C206.525 261.534 206.63 261.33 206.693 261.091H207.699C207.642 261.477 207.501 261.825 207.277 262.135C207.055 262.442 206.761 262.686 206.395 262.868C206.031 263.047 205.608 263.136 205.125 263.136ZM211.895 256.455V257.307H208.503V256.455H211.895ZM209.492 254.886H210.498V261.125C210.498 261.409 210.539 261.622 210.621 261.764C210.706 261.903 210.814 261.997 210.945 262.045C211.079 262.091 211.219 262.114 211.367 262.114C211.478 262.114 211.569 262.108 211.64 262.097C211.711 262.082 211.768 262.071 211.81 262.062L212.015 262.966C211.947 262.991 211.851 263.017 211.729 263.043C211.607 263.071 211.452 263.085 211.265 263.085C210.981 263.085 210.702 263.024 210.429 262.902C210.16 262.78 209.935 262.594 209.756 262.344C209.58 262.094 209.492 261.778 209.492 261.398V254.886ZM219.594 254.273V263H218.538V255.381H218.486L216.356 256.795V255.722L218.538 254.273H219.594ZM224.78 263.119C224.194 263.119 223.677 263.016 223.229 262.808C222.783 262.598 222.435 262.31 222.185 261.943C221.935 261.574 221.811 261.153 221.814 260.682C221.811 260.312 221.883 259.972 222.031 259.659C222.179 259.344 222.381 259.081 222.636 258.871C222.895 258.658 223.183 258.523 223.501 258.466V258.415C223.084 258.307 222.751 258.072 222.504 257.712C222.257 257.348 222.135 256.935 222.138 256.472C222.135 256.028 222.247 255.632 222.474 255.283C222.702 254.933 223.014 254.658 223.412 254.456C223.812 254.254 224.268 254.153 224.78 254.153C225.285 254.153 225.737 254.254 226.135 254.456C226.533 254.658 226.845 254.933 227.072 255.283C227.302 255.632 227.419 256.028 227.422 256.472C227.419 256.935 227.293 257.348 227.043 257.712C226.795 258.072 226.467 258.307 226.058 258.415V258.466C226.373 258.523 226.658 258.658 226.91 258.871C227.163 259.081 227.365 259.344 227.516 259.659C227.666 259.972 227.743 260.312 227.746 260.682C227.743 261.153 227.615 261.574 227.362 261.943C227.112 262.31 226.764 262.598 226.318 262.808C225.875 263.016 225.362 263.119 224.78 263.119ZM224.78 262.182C225.175 262.182 225.516 262.118 225.802 261.99C226.089 261.862 226.311 261.682 226.467 261.449C226.623 261.216 226.703 260.943 226.706 260.631C226.703 260.301 226.618 260.01 226.45 259.757C226.283 259.504 226.054 259.305 225.764 259.161C225.477 259.016 225.149 258.943 224.78 258.943C224.408 258.943 224.075 259.016 223.783 259.161C223.493 259.305 223.264 259.504 223.096 259.757C222.932 260.01 222.851 260.301 222.854 260.631C222.851 260.943 222.926 261.216 223.079 261.449C223.236 261.682 223.459 261.862 223.748 261.99C224.038 262.118 224.382 262.182 224.78 262.182ZM224.78 258.04C225.092 258.04 225.369 257.977 225.611 257.852C225.855 257.727 226.047 257.553 226.186 257.328C226.325 257.104 226.396 256.841 226.399 256.54C226.396 256.244 226.327 255.987 226.19 255.768C226.054 255.547 225.865 255.376 225.623 255.257C225.382 255.135 225.101 255.074 224.78 255.074C224.453 255.074 224.168 255.135 223.923 255.257C223.679 255.376 223.49 255.547 223.356 255.768C223.223 255.987 223.158 256.244 223.16 256.54C223.158 256.841 223.224 257.104 223.361 257.328C223.5 257.553 223.692 257.727 223.936 257.852C224.18 257.977 224.462 258.04 224.78 258.04Z" fill="#262B38"/>
<path d="M323.101 258.636C323.101 259.557 322.935 260.352 322.603 261.023C322.27 261.693 321.814 262.21 321.235 262.574C320.655 262.938 319.993 263.119 319.249 263.119C318.505 263.119 317.843 262.938 317.263 262.574C316.684 262.21 316.228 261.693 315.895 261.023C315.563 260.352 315.397 259.557 315.397 258.636C315.397 257.716 315.563 256.92 315.895 256.25C316.228 255.58 316.684 255.062 317.263 254.699C317.843 254.335 318.505 254.153 319.249 254.153C319.993 254.153 320.655 254.335 321.235 254.699C321.814 255.062 322.27 255.58 322.603 256.25C322.935 256.92 323.101 257.716 323.101 258.636ZM322.079 258.636C322.079 257.881 321.952 257.243 321.699 256.723C321.449 256.203 321.11 255.81 320.681 255.543C320.255 255.276 319.777 255.142 319.249 255.142C318.721 255.142 318.242 255.276 317.813 255.543C317.387 255.81 317.047 256.203 316.794 256.723C316.544 257.243 316.419 257.881 316.419 258.636C316.419 259.392 316.544 260.03 316.794 260.55C317.047 261.07 317.387 261.463 317.813 261.73C318.242 261.997 318.721 262.131 319.249 262.131C319.777 262.131 320.255 261.997 320.681 261.73C321.11 261.463 321.449 261.07 321.699 260.55C321.952 260.03 322.079 259.392 322.079 258.636ZM327.281 263.136C326.667 263.136 326.139 262.991 325.696 262.702C325.253 262.412 324.912 262.013 324.673 261.504C324.434 260.996 324.315 260.415 324.315 259.761C324.315 259.097 324.437 258.51 324.682 258.001C324.929 257.49 325.273 257.091 325.713 256.804C326.156 256.514 326.673 256.369 327.264 256.369C327.724 256.369 328.139 256.455 328.508 256.625C328.878 256.795 329.18 257.034 329.416 257.341C329.652 257.648 329.798 258.006 329.855 258.415H328.849C328.773 258.116 328.602 257.852 328.338 257.622C328.076 257.389 327.724 257.273 327.281 257.273C326.889 257.273 326.545 257.375 326.25 257.58C325.957 257.781 325.728 258.067 325.564 258.436C325.402 258.803 325.321 259.233 325.321 259.727C325.321 260.233 325.4 260.673 325.559 261.048C325.721 261.423 325.949 261.714 326.241 261.922C326.537 262.129 326.883 262.233 327.281 262.233C327.542 262.233 327.78 262.188 327.993 262.097C328.206 262.006 328.386 261.875 328.534 261.705C328.682 261.534 328.787 261.33 328.849 261.091H329.855C329.798 261.477 329.657 261.825 329.433 262.135C329.211 262.442 328.917 262.686 328.551 262.868C328.187 263.047 327.764 263.136 327.281 263.136ZM334.052 256.455V257.307H330.66V256.455H334.052ZM331.648 254.886H332.654V261.125C332.654 261.409 332.695 261.622 332.778 261.764C332.863 261.903 332.971 261.997 333.101 262.045C333.235 262.091 333.376 262.114 333.523 262.114C333.634 262.114 333.725 262.108 333.796 262.097C333.867 262.082 333.924 262.071 333.966 262.062L334.171 262.966C334.103 262.991 334.008 263.017 333.885 263.043C333.763 263.071 333.608 263.085 333.421 263.085C333.137 263.085 332.858 263.024 332.586 262.902C332.316 262.78 332.091 262.594 331.912 262.344C331.736 262.094 331.648 261.778 331.648 261.398V254.886ZM338.682 263V262.233L341.563 259.08C341.901 258.71 342.18 258.389 342.398 258.116C342.617 257.841 342.779 257.582 342.884 257.341C342.992 257.097 343.046 256.841 343.046 256.574C343.046 256.267 342.972 256.001 342.824 255.777C342.68 255.553 342.481 255.379 342.228 255.257C341.975 255.135 341.691 255.074 341.376 255.074C341.04 255.074 340.748 255.143 340.498 255.283C340.251 255.419 340.059 255.611 339.922 255.858C339.789 256.105 339.722 256.395 339.722 256.727H338.716C338.716 256.216 338.834 255.767 339.07 255.381C339.306 254.994 339.627 254.693 340.033 254.477C340.442 254.261 340.901 254.153 341.41 254.153C341.921 254.153 342.374 254.261 342.769 254.477C343.164 254.693 343.474 254.984 343.698 255.351C343.922 255.717 344.035 256.125 344.035 256.574C344.035 256.895 343.976 257.209 343.86 257.516C343.746 257.82 343.547 258.159 343.263 258.534C342.982 258.906 342.591 259.361 342.091 259.898L340.131 261.994V262.062H344.188V263H338.682ZM348.623 263.119C348.038 263.119 347.521 263.016 347.072 262.808C346.626 262.598 346.278 262.31 346.028 261.943C345.778 261.574 345.655 261.153 345.658 260.682C345.655 260.312 345.727 259.972 345.875 259.659C346.023 259.344 346.224 259.081 346.48 258.871C346.739 258.658 347.027 258.523 347.345 258.466V258.415C346.927 258.307 346.595 258.072 346.348 257.712C346.101 257.348 345.979 256.935 345.981 256.472C345.979 256.028 346.091 255.632 346.318 255.283C346.545 254.933 346.858 254.658 347.256 254.456C347.656 254.254 348.112 254.153 348.623 254.153C349.129 254.153 349.581 254.254 349.979 254.456C350.376 254.658 350.689 254.933 350.916 255.283C351.146 255.632 351.263 256.028 351.266 256.472C351.263 256.935 351.136 257.348 350.886 257.712C350.639 258.072 350.311 258.307 349.902 258.415V258.466C350.217 258.523 350.501 258.658 350.754 258.871C351.007 259.081 351.209 259.344 351.359 259.659C351.51 259.972 351.587 260.312 351.589 260.682C351.587 261.153 351.459 261.574 351.206 261.943C350.956 262.31 350.608 262.598 350.162 262.808C349.719 263.016 349.206 263.119 348.623 263.119ZM348.623 262.182C349.018 262.182 349.359 262.118 349.646 261.99C349.933 261.862 350.155 261.682 350.311 261.449C350.467 261.216 350.547 260.943 350.55 260.631C350.547 260.301 350.462 260.01 350.294 259.757C350.126 259.504 349.898 259.305 349.608 259.161C349.321 259.016 348.993 258.943 348.623 258.943C348.251 258.943 347.919 259.016 347.626 259.161C347.337 259.305 347.108 259.504 346.94 259.757C346.775 260.01 346.694 260.301 346.697 260.631C346.694 260.943 346.77 261.216 346.923 261.449C347.079 261.682 347.302 261.862 347.592 261.99C347.882 262.118 348.226 262.182 348.623 262.182ZM348.623 258.04C348.936 258.04 349.213 257.977 349.454 257.852C349.699 257.727 349.891 257.553 350.03 257.328C350.169 257.104 350.24 256.841 350.243 256.54C350.24 256.244 350.17 255.987 350.034 255.768C349.898 255.547 349.709 255.376 349.467 255.257C349.226 255.135 348.944 255.074 348.623 255.074C348.297 255.074 348.011 255.135 347.767 255.257C347.523 255.376 347.334 255.547 347.2 255.768C347.067 255.987 347.001 256.244 347.004 256.54C347.001 256.841 347.068 257.104 347.204 257.328C347.344 257.553 347.535 257.727 347.78 257.852C348.024 257.977 348.305 258.04 348.623 258.04Z" fill="#262B38"/>
<path d="M448.282 254.273V263H447.259L442.503 256.148H442.418V263H441.361V254.273H442.384L447.157 261.142H447.242V254.273H448.282ZM452.799 263.136C452.208 263.136 451.69 262.996 451.244 262.714C450.801 262.433 450.454 262.04 450.204 261.534C449.957 261.028 449.833 260.437 449.833 259.761C449.833 259.08 449.957 258.484 450.204 257.976C450.454 257.467 450.801 257.072 451.244 256.791C451.69 256.51 452.208 256.369 452.799 256.369C453.39 256.369 453.907 256.51 454.35 256.791C454.796 257.072 455.143 257.467 455.39 257.976C455.64 258.484 455.765 259.08 455.765 259.761C455.765 260.437 455.64 261.028 455.39 261.534C455.143 262.04 454.796 262.433 454.35 262.714C453.907 262.996 453.39 263.136 452.799 263.136ZM452.799 262.233C453.248 262.233 453.617 262.118 453.907 261.888C454.197 261.658 454.411 261.355 454.551 260.98C454.69 260.605 454.759 260.199 454.759 259.761C454.759 259.324 454.69 258.916 454.551 258.538C454.411 258.161 454.197 257.855 453.907 257.622C453.617 257.389 453.248 257.273 452.799 257.273C452.35 257.273 451.981 257.389 451.691 257.622C451.401 257.855 451.187 258.161 451.048 258.538C450.909 258.916 450.839 259.324 450.839 259.761C450.839 260.199 450.909 260.605 451.048 260.98C451.187 261.355 451.401 261.658 451.691 261.888C451.981 262.118 452.35 262.233 452.799 262.233ZM462.298 256.455L459.878 263H458.855L456.434 256.455H457.525L459.332 261.67H459.4L461.207 256.455H462.298ZM467.016 263L470.92 255.278V255.21H466.42V254.273H472.011V255.261L468.124 263H467.016Z" fill="#262B38"/>
<path d="M568.553 254.273V263H567.53L562.774 256.148H562.689V263H561.632V254.273H562.655L567.428 261.142H567.513V254.273H568.553ZM573.07 263.136C572.479 263.136 571.961 262.996 571.515 262.714C571.072 262.433 570.725 262.04 570.475 261.534C570.228 261.028 570.104 260.437 570.104 259.761C570.104 259.08 570.228 258.484 570.475 257.976C570.725 257.467 571.072 257.072 571.515 256.791C571.961 256.51 572.479 256.369 573.07 256.369C573.661 256.369 574.178 256.51 574.621 256.791C575.067 257.072 575.414 257.467 575.661 257.976C575.911 258.484 576.036 259.08 576.036 259.761C576.036 260.437 575.911 261.028 575.661 261.534C575.414 262.04 575.067 262.433 574.621 262.714C574.178 262.996 573.661 263.136 573.07 263.136ZM573.07 262.233C573.519 262.233 573.888 262.118 574.178 261.888C574.468 261.658 574.682 261.355 574.822 260.98C574.961 260.605 575.03 260.199 575.03 259.761C575.03 259.324 574.961 258.916 574.822 258.538C574.682 258.161 574.468 257.855 574.178 257.622C573.888 257.389 573.519 257.273 573.07 257.273C572.621 257.273 572.252 257.389 571.962 257.622C571.672 257.855 571.458 258.161 571.319 258.538C571.179 258.916 571.11 259.324 571.11 259.761C571.11 260.199 571.179 260.605 571.319 260.98C571.458 261.355 571.672 261.658 571.962 261.888C572.252 262.118 572.621 262.233 573.07 262.233ZM582.569 256.455L580.149 263H579.126L576.705 256.455H577.796L579.603 261.67H579.671L581.478 256.455H582.569ZM590.083 254.273V263H589.026V255.381H588.975L586.844 256.795V255.722L589.026 254.273H590.083ZM592.745 263L596.649 255.278V255.21H592.149V254.273H597.74V255.261L593.853 263H592.745Z" fill="#262B38"/>
<path d="M690.709 254.273V263H689.686L684.931 256.148H684.845V263H683.788V254.273H684.811L689.584 261.142H689.669V254.273H690.709ZM695.226 263.136C694.635 263.136 694.117 262.996 693.671 262.714C693.228 262.433 692.881 262.04 692.631 261.534C692.384 261.028 692.26 260.437 692.26 259.761C692.26 259.08 692.384 258.484 692.631 257.976C692.881 257.467 693.228 257.072 693.671 256.791C694.117 256.51 694.635 256.369 695.226 256.369C695.817 256.369 696.334 256.51 696.777 256.791C697.224 257.072 697.57 257.467 697.817 257.976C698.067 258.484 698.192 259.08 698.192 259.761C698.192 260.437 698.067 261.028 697.817 261.534C697.57 262.04 697.224 262.433 696.777 262.714C696.334 262.996 695.817 263.136 695.226 263.136ZM695.226 262.233C695.675 262.233 696.045 262.118 696.334 261.888C696.624 261.658 696.839 261.355 696.978 260.98C697.117 260.605 697.187 260.199 697.187 259.761C697.187 259.324 697.117 258.916 696.978 258.538C696.839 258.161 696.624 257.855 696.334 257.622C696.045 257.389 695.675 257.273 695.226 257.273C694.777 257.273 694.408 257.389 694.118 257.622C693.829 257.855 693.614 258.161 693.475 258.538C693.336 258.916 693.266 259.324 693.266 259.761C693.266 260.199 693.336 260.605 693.475 260.98C693.614 261.355 693.829 261.658 694.118 261.888C694.408 262.118 694.777 262.233 695.226 262.233ZM704.725 256.455L702.305 263H701.282L698.862 256.455H699.953L701.759 261.67H701.828L703.634 256.455H704.725ZM709.171 263V262.233L712.051 259.08C712.389 258.71 712.668 258.389 712.887 258.116C713.105 257.841 713.267 257.582 713.372 257.341C713.48 257.097 713.534 256.841 713.534 256.574C713.534 256.267 713.46 256.001 713.313 255.777C713.168 255.553 712.969 255.379 712.716 255.257C712.463 255.135 712.179 255.074 711.864 255.074C711.529 255.074 711.236 255.143 710.986 255.283C710.739 255.419 710.547 255.611 710.411 255.858C710.277 256.105 710.21 256.395 710.21 256.727H709.205C709.205 256.216 709.323 255.767 709.558 255.381C709.794 254.994 710.115 254.693 710.522 254.477C710.931 254.261 711.389 254.153 711.898 254.153C712.409 254.153 712.862 254.261 713.257 254.477C713.652 254.693 713.962 254.984 714.186 255.351C714.411 255.717 714.523 256.125 714.523 256.574C714.523 256.895 714.465 257.209 714.348 257.516C714.235 257.82 714.036 258.159 713.752 258.534C713.47 258.906 713.08 259.361 712.58 259.898L710.62 261.994V262.062H714.676V263H709.171ZM716.589 263L720.492 255.278V255.21H715.992V254.273H721.583V255.261L717.697 263H716.589Z" fill="#262B38"/>
<rect x="657.5" y="16.5" width="114" height="23" rx="5.5" stroke="#CFD6DC"/>
<path d="M670.83 25.9545C670.778 25.5227 670.571 25.1875 670.207 24.9489C669.844 24.7102 669.398 24.5909 668.869 24.5909C668.483 24.5909 668.145 24.6534 667.855 24.7784C667.568 24.9034 667.344 25.0753 667.182 25.294C667.023 25.5128 666.943 25.7614 666.943 26.0398C666.943 26.2727 666.999 26.473 667.109 26.6406C667.223 26.8054 667.368 26.9432 667.544 27.054C667.72 27.1619 667.905 27.2514 668.098 27.3224C668.291 27.3906 668.469 27.446 668.631 27.4886L669.517 27.7273C669.744 27.7869 669.997 27.8693 670.276 27.9744C670.557 28.0795 670.825 28.223 671.081 28.4048C671.339 28.5838 671.553 28.8139 671.72 29.0952C671.888 29.3764 671.972 29.7216 671.972 30.1307C671.972 30.6023 671.848 31.0284 671.601 31.4091C671.357 31.7898 670.999 32.0923 670.527 32.3168C670.058 32.5412 669.489 32.6534 668.818 32.6534C668.193 32.6534 667.652 32.5526 667.195 32.3509C666.74 32.1491 666.382 31.8679 666.121 31.5071C665.862 31.1463 665.716 30.7273 665.682 30.25H666.773C666.801 30.5795 666.912 30.8523 667.105 31.0682C667.301 31.2812 667.548 31.4403 667.847 31.5455C668.148 31.6477 668.472 31.6989 668.818 31.6989C669.222 31.6989 669.584 31.6335 669.905 31.5028C670.226 31.3693 670.48 31.1847 670.668 30.9489C670.855 30.7102 670.949 30.4318 670.949 30.1136C670.949 29.8239 670.868 29.5881 670.706 29.4062C670.544 29.2244 670.331 29.0767 670.067 28.9631C669.803 28.8494 669.517 28.75 669.21 28.6648L668.136 28.358C667.455 28.1619 666.915 27.8821 666.517 27.5185C666.119 27.1548 665.92 26.679 665.92 26.0909C665.92 25.6023 666.053 25.1761 666.317 24.8125C666.584 24.446 666.942 24.1619 667.391 23.9602C667.842 23.7557 668.347 23.6534 668.903 23.6534C669.466 23.6534 669.966 23.7543 670.403 23.956C670.841 24.1548 671.188 24.4276 671.443 24.7741C671.702 25.1207 671.838 25.5142 671.852 25.9545H670.83ZM675.379 32.6534C674.964 32.6534 674.588 32.5753 674.25 32.419C673.912 32.2599 673.643 32.0312 673.444 31.733C673.245 31.4318 673.146 31.0682 673.146 30.642C673.146 30.267 673.22 29.9631 673.368 29.7301C673.515 29.4943 673.713 29.3097 673.96 29.1761C674.207 29.0426 674.48 28.9432 674.778 28.8778C675.079 28.8097 675.382 28.7557 675.686 28.7159C676.083 28.6648 676.406 28.6264 676.653 28.6009C676.903 28.5724 677.085 28.5256 677.199 28.4602C677.315 28.3949 677.373 28.2812 677.373 28.1193V28.0852C677.373 27.6648 677.258 27.3381 677.028 27.1051C676.801 26.8722 676.456 26.7557 675.993 26.7557C675.512 26.7557 675.136 26.8608 674.863 27.071C674.591 27.2812 674.399 27.5057 674.288 27.7443L673.333 27.4034C673.504 27.0057 673.731 26.696 674.015 26.4744C674.302 26.25 674.615 26.0937 674.953 26.0057C675.294 25.9148 675.629 25.8693 675.958 25.8693C676.169 25.8693 676.41 25.8949 676.683 25.946C676.958 25.9943 677.224 26.0952 677.48 26.2486C677.738 26.402 677.953 26.6335 678.123 26.9432C678.294 27.2528 678.379 27.6676 678.379 28.1875V32.5H677.373V31.6136H677.322C677.254 31.7557 677.14 31.9077 676.981 32.0696C676.822 32.2315 676.61 32.3693 676.346 32.483C676.082 32.5966 675.76 32.6534 675.379 32.6534ZM675.532 31.75C675.93 31.75 676.265 31.6719 676.538 31.5156C676.814 31.3594 677.021 31.1577 677.16 30.9105C677.302 30.6634 677.373 30.4034 677.373 30.1307V29.2102C677.331 29.2614 677.237 29.3082 677.092 29.3509C676.95 29.3906 676.785 29.4261 676.598 29.4574C676.413 29.4858 676.233 29.5114 676.056 29.5341C675.883 29.554 675.743 29.571 675.635 29.5852C675.373 29.6193 675.129 29.6747 674.902 29.7514C674.677 29.8253 674.495 29.9375 674.356 30.0881C674.22 30.2358 674.152 30.4375 674.152 30.6932C674.152 31.0426 674.281 31.3068 674.539 31.4858C674.801 31.6619 675.132 31.75 675.532 31.75ZM681.1 23.7727V32.5H680.095V23.7727H681.1ZM685.566 32.6364C684.936 32.6364 684.392 32.4972 683.934 32.2188C683.48 31.9375 683.129 31.5455 682.882 31.0426C682.638 30.5369 682.515 29.9489 682.515 29.2784C682.515 28.608 682.638 28.017 682.882 27.5057C683.129 26.9915 683.473 26.5909 683.913 26.304C684.356 26.0142 684.873 25.8693 685.464 25.8693C685.805 25.8693 686.142 25.9261 686.474 26.0398C686.807 26.1534 687.109 26.3381 687.382 26.5938C687.655 26.8466 687.872 27.1818 688.034 27.5994C688.196 28.017 688.277 28.5312 688.277 29.142V29.5682H683.231V28.6989H687.254C687.254 28.3295 687.18 28 687.032 27.7102C686.888 27.4205 686.68 27.1918 686.41 27.0241C686.143 26.8565 685.828 26.7727 685.464 26.7727C685.064 26.7727 684.717 26.8722 684.424 27.071C684.135 27.267 683.912 27.5227 683.755 27.8381C683.599 28.1534 683.521 28.4915 683.521 28.8523V29.4318C683.521 29.9261 683.606 30.3452 683.777 30.6889C683.95 31.0298 684.19 31.2898 684.497 31.4688C684.804 31.6449 685.16 31.733 685.566 31.733C685.831 31.733 686.069 31.696 686.282 31.6222C686.498 31.5455 686.684 31.4318 686.841 31.2812C686.997 31.1278 687.118 30.9375 687.203 30.7102L688.174 30.983C688.072 31.3125 687.9 31.6023 687.659 31.8523C687.417 32.0994 687.119 32.2926 686.764 32.4318C686.409 32.5682 686.01 32.6364 685.566 32.6364ZM694.323 27.4205L693.42 27.6761C693.363 27.5256 693.279 27.3793 693.168 27.2372C693.06 27.0923 692.912 26.973 692.725 26.8793C692.537 26.7855 692.297 26.7386 692.005 26.7386C691.604 26.7386 691.27 26.831 691.003 27.0156C690.739 27.1974 690.607 27.429 690.607 27.7102C690.607 27.9602 690.698 28.1577 690.88 28.3026C691.062 28.4474 691.346 28.5682 691.732 28.6648L692.704 28.9034C693.289 29.0455 693.725 29.2628 694.012 29.5554C694.299 29.8452 694.442 30.2187 694.442 30.6761C694.442 31.0511 694.334 31.3864 694.118 31.6818C693.905 31.9773 693.607 32.2102 693.223 32.3807C692.84 32.5511 692.394 32.6364 691.885 32.6364C691.218 32.6364 690.665 32.4915 690.228 32.2017C689.79 31.9119 689.513 31.4886 689.397 30.9318L690.351 30.6932C690.442 31.0455 690.614 31.3097 690.867 31.4858C691.123 31.6619 691.456 31.75 691.868 31.75C692.337 31.75 692.709 31.6506 692.985 31.4517C693.263 31.25 693.402 31.0085 693.402 30.7273C693.402 30.5 693.323 30.3097 693.164 30.1562C693.005 30 692.76 29.8835 692.431 29.8068L691.34 29.5511C690.741 29.4091 690.3 29.1889 690.019 28.8906C689.741 28.5895 689.601 28.2131 689.601 27.7614C689.601 27.392 689.705 27.0653 689.912 26.7812C690.123 26.4972 690.408 26.2741 690.769 26.1122C691.133 25.9503 691.545 25.8693 692.005 25.8693C692.652 25.8693 693.161 26.0114 693.53 26.2955C693.902 26.5795 694.167 26.9545 694.323 27.4205ZM699.091 32.5V25.9545H700.063V26.9773H700.148C700.284 26.6278 700.504 26.3565 700.808 26.1634C701.112 25.9673 701.477 25.8693 701.904 25.8693C702.335 25.8693 702.695 25.9673 702.982 26.1634C703.271 26.3565 703.497 26.6278 703.659 26.9773H703.727C703.895 26.6392 704.146 26.3707 704.482 26.1719C704.817 25.9702 705.219 25.8693 705.688 25.8693C706.273 25.8693 706.752 26.0526 707.124 26.419C707.496 26.7827 707.682 27.3494 707.682 28.1193V32.5H706.676V28.1193C706.676 27.6364 706.544 27.2912 706.28 27.0838C706.016 26.8764 705.705 26.7727 705.347 26.7727C704.887 26.7727 704.53 26.9119 704.277 27.1903C704.024 27.4659 703.898 27.8153 703.898 28.2386V32.5H702.875V28.017C702.875 27.6449 702.754 27.3452 702.513 27.1179C702.271 26.8878 701.96 26.7727 701.58 26.7727C701.318 26.7727 701.074 26.8423 700.847 26.9815C700.622 27.1207 700.441 27.3139 700.301 27.5611C700.165 27.8054 700.097 28.0881 700.097 28.4091V32.5H699.091ZM712.145 32.6364C711.514 32.6364 710.97 32.4972 710.513 32.2188C710.058 31.9375 709.708 31.5455 709.46 31.0426C709.216 30.5369 709.094 29.9489 709.094 29.2784C709.094 28.608 709.216 28.017 709.46 27.5057C709.708 26.9915 710.051 26.5909 710.492 26.304C710.935 26.0142 711.452 25.8693 712.043 25.8693C712.384 25.8693 712.72 25.9261 713.053 26.0398C713.385 26.1534 713.688 26.3381 713.96 26.5938C714.233 26.8466 714.45 27.1818 714.612 27.5994C714.774 28.017 714.855 28.5312 714.855 29.142V29.5682H709.81V28.6989H713.833C713.833 28.3295 713.759 28 713.611 27.7102C713.466 27.4205 713.259 27.1918 712.989 27.0241C712.722 26.8565 712.406 26.7727 712.043 26.7727C711.642 26.7727 711.296 26.8722 711.003 27.071C710.713 27.267 710.49 27.5227 710.334 27.8381C710.178 28.1534 710.1 28.4915 710.1 28.8523V29.4318C710.1 29.9261 710.185 30.3452 710.355 30.6889C710.529 31.0298 710.769 31.2898 711.075 31.4688C711.382 31.6449 711.739 31.733 712.145 31.733C712.409 31.733 712.648 31.696 712.861 31.6222C713.077 31.5455 713.263 31.4318 713.419 31.2812C713.575 31.1278 713.696 30.9375 713.781 30.7102L714.753 30.983C714.651 31.3125 714.479 31.6023 714.237 31.8523C713.996 32.0994 713.698 32.2926 713.343 32.4318C712.987 32.5682 712.588 32.6364 712.145 32.6364ZM719.112 25.9545V26.8068H715.72V25.9545H719.112ZM716.708 24.3864H717.714V30.625C717.714 30.9091 717.755 31.1222 717.838 31.2642C717.923 31.4034 718.031 31.4972 718.161 31.5455C718.295 31.5909 718.436 31.6136 718.583 31.6136C718.694 31.6136 718.785 31.608 718.856 31.5966C718.927 31.5824 718.984 31.571 719.027 31.5625L719.231 32.4659C719.163 32.4915 719.068 32.517 718.946 32.5426C718.823 32.571 718.669 32.5852 718.481 32.5852C718.197 32.5852 717.919 32.5241 717.646 32.402C717.376 32.2798 717.152 32.0938 716.973 31.8438C716.796 31.5938 716.708 31.2784 716.708 30.8977V24.3864ZM720.505 32.5V25.9545H721.476V26.9432H721.544C721.664 26.6193 721.88 26.3565 722.192 26.1548C722.505 25.9531 722.857 25.8523 723.249 25.8523C723.323 25.8523 723.415 25.8537 723.526 25.8565C723.637 25.8594 723.72 25.8636 723.777 25.8693V26.892C723.743 26.8835 723.665 26.8707 723.543 26.8537C723.424 26.8338 723.297 26.8239 723.164 26.8239C722.845 26.8239 722.561 26.8906 722.311 27.0241C722.064 27.1548 721.868 27.3366 721.723 27.5696C721.581 27.7997 721.51 28.0625 721.51 28.358V32.5H720.505ZM724.849 32.5V25.9545H725.855V32.5H724.849ZM725.361 24.8636C725.165 24.8636 724.996 24.7969 724.854 24.6634C724.714 24.5298 724.645 24.3693 724.645 24.1818C724.645 23.9943 724.714 23.8338 724.854 23.7003C724.996 23.5668 725.165 23.5 725.361 23.5C725.557 23.5 725.724 23.5668 725.864 23.7003C726.006 23.8338 726.077 23.9943 726.077 24.1818C726.077 24.3693 726.006 24.5298 725.864 24.6634C725.724 24.7969 725.557 24.8636 725.361 24.8636ZM730.236 32.6364C729.622 32.6364 729.094 32.4915 728.651 32.2017C728.208 31.9119 727.867 31.5128 727.628 31.0043C727.39 30.4957 727.27 29.9148 727.27 29.2614C727.27 28.5966 727.392 28.0099 727.637 27.5014C727.884 26.9901 728.228 26.5909 728.668 26.304C729.111 26.0142 729.628 25.8693 730.219 25.8693C730.679 25.8693 731.094 25.9545 731.463 26.125C731.833 26.2955 732.135 26.5341 732.371 26.8409C732.607 27.1477 732.753 27.5057 732.81 27.9148H731.804C731.728 27.6165 731.557 27.3523 731.293 27.1222C731.032 26.8892 730.679 26.7727 730.236 26.7727C729.844 26.7727 729.5 26.875 729.205 27.0795C728.912 27.2812 728.684 27.5668 728.519 27.9361C728.357 28.3026 728.276 28.733 728.276 29.2273C728.276 29.733 728.355 30.1733 728.515 30.5483C728.676 30.9233 728.904 31.2145 729.196 31.4219C729.492 31.6293 729.838 31.733 730.236 31.733C730.497 31.733 730.735 31.6875 730.948 31.5966C731.161 31.5057 731.341 31.375 731.489 31.2045C731.637 31.0341 731.742 30.8295 731.804 30.5909H732.81C732.753 30.9773 732.613 31.3253 732.388 31.6349C732.167 31.9418 731.872 32.1861 731.506 32.3679C731.142 32.5469 730.719 32.6364 730.236 32.6364ZM738.797 27.4205L737.893 27.6761C737.836 27.5256 737.752 27.3793 737.642 27.2372C737.534 27.0923 737.386 26.973 737.198 26.8793C737.011 26.7855 736.771 26.7386 736.478 26.7386C736.078 26.7386 735.744 26.831 735.477 27.0156C735.213 27.1974 735.081 27.429 735.081 27.7102C735.081 27.9602 735.172 28.1577 735.353 28.3026C735.535 28.4474 735.819 28.5682 736.206 28.6648L737.177 28.9034C737.762 29.0455 738.198 29.2628 738.485 29.5554C738.772 29.8452 738.916 30.2187 738.916 30.6761C738.916 31.0511 738.808 31.3864 738.592 31.6818C738.379 31.9773 738.081 32.2102 737.697 32.3807C737.314 32.5511 736.868 32.6364 736.359 32.6364C735.691 32.6364 735.139 32.4915 734.701 32.2017C734.264 31.9119 733.987 31.4886 733.87 30.9318L734.825 30.6932C734.916 31.0455 735.088 31.3097 735.341 31.4858C735.596 31.6619 735.93 31.75 736.342 31.75C736.811 31.75 737.183 31.6506 737.458 31.4517C737.737 31.25 737.876 31.0085 737.876 30.7273C737.876 30.5 737.797 30.3097 737.637 30.1562C737.478 30 737.234 29.8835 736.904 29.8068L735.814 29.5511C735.214 29.4091 734.774 29.1889 734.493 28.8906C734.214 28.5895 734.075 28.2131 734.075 27.7614C734.075 27.392 734.179 27.0653 734.386 26.7812C734.596 26.4972 734.882 26.2741 735.243 26.1122C735.606 25.9503 736.018 25.8693 736.478 25.8693C737.126 25.8693 737.635 26.0114 738.004 26.2955C738.376 26.5795 738.64 26.9545 738.797 27.4205Z" fill="#191A1D"/>
<path fill-rule="evenodd" clip-rule="evenodd" d="M751.293 25.2929C751.683 24.9024 752.317 24.9024 752.707 25.2929L756 28.5858L759.293 25.2929C759.683 24.9024 760.317 24.9024 760.707 25.2929C761.098 25.6834 761.098 26.3166 760.707 26.7071L756.707 30.7071C756.317 31.0976 755.683 31.0976 755.293 30.7071L751.293 26.7071C750.902 26.3166 750.902 25.6834 751.293 25.2929Z" fill="#191A1D"/>
</g>
<defs>
<filter id="filter0_dddddd_2693_137945" x="-80" y="-28" width="950" height="440" filterUnits="userSpaceOnUse" color-interpolation-filters="sRGB">
<feFlood flood-opacity="0" result="BackgroundImageFix"/>
<feColorMatrix in="SourceAlpha" type="matrix" values="0 0 0 0 0 0 0 0 0 0 0 0 0 0 0 0 0 0 127 0" result="hardAlpha"/>
<feOffset dy="1.43897"/>
<feGaussianBlur stdDeviation="1.1069"/>
<feColorMatrix type="matrix" values="0 0 0 0 0.109804 0 0 0 0 0.164706 0 0 0 0 0.278431 0 0 0 0.0168687 0"/>
<feBlend mode="normal" in2="BackgroundImageFix" result="effect1_dropShadow_2693_137945"/>
<feColorMatrix in="SourceAlpha" type="matrix" values="0 0 0 0 0 0 0 0 0 0 0 0 0 0 0 0 0 0 127 0" result="hardAlpha"/>
<feOffset dy="3.45805"/>
<feGaussianBlur stdDeviation="2.66004"/>
<feColorMatrix type="matrix" values="0 0 0 0 0.109804 0 0 0 0 0.164706 0 0 0 0 0.278431 0 0 0 0.0242336 0"/>
<feBlend mode="normal" in2="effect1_dropShadow_2693_137945" result="effect2_dropShadow_2693_137945"/>
<feColorMatrix in="SourceAlpha" type="matrix" values="0 0 0 0 0 0 0 0 0 0 0 0 0 0 0 0 0 0 127 0" result="hardAlpha"/>
<feOffset dy="6.51121"/>
<feGaussianBlur stdDeviation="5.00862"/>
<feColorMatrix type="matrix" values="0 0 0 0 0.109804 0 0 0 0 0.164706 0 0 0 0 0.278431 0 0 0 0.03 0"/>
<feBlend mode="normal" in2="effect2_dropShadow_2693_137945" result="effect3_dropShadow_2693_137945"/>
<feColorMatrix in="SourceAlpha" type="matrix" values="0 0 0 0 0 0 0 0 0 0 0 0 0 0 0 0 0 0 127 0" result="hardAlpha"/>
<feOffset dy="11.6149"/>
<feGaussianBlur stdDeviation="8.93452"/>
<feColorMatrix type="matrix" values="0 0 0 0 0.109804 0 0 0 0 0.164706 0 0 0 0 0.278431 0 0 0 0.0357664 0"/>
<feBlend mode="normal" in2="effect3_dropShadow_2693_137945" result="effect4_dropShadow_2693_137945"/>
<feColorMatrix in="SourceAlpha" type="matrix" values="0 0 0 0 0 0 0 0 0 0 0 0 0 0 0 0 0 0 127 0" result="hardAlpha"/>
<feOffset dy="21.7244"/>
<feGaussianBlur stdDeviation="16.711"/>
<feColorMatrix type="matrix" values="0 0 0 0 0.109804 0 0 0 0 0.164706 0 0 0 0 0.278431 0 0 0 0.0431313 0"/>
<feBlend mode="normal" in2="effect4_dropShadow_2693_137945" result="effect5_dropShadow_2693_137945"/>
<feColorMatrix in="SourceAlpha" type="matrix" values="0 0 0 0 0 0 0 0 0 0 0 0 0 0 0 0 0 0 127 0" result="hardAlpha"/>
<feOffset dy="52"/>
<feGaussianBlur stdDeviation="40"/>
<feColorMatrix type="matrix" values="0 0 0 0 0.109804 0 0 0 0 0.164706 0 0 0 0 0.278431 0 0 0 0.06 0"/>
<feBlend mode="normal" in2="effect5_dropShadow_2693_137945" result="effect6_dropShadow_2693_137945"/>
<feBlend mode="normal" in="SourceGraphic" in2="effect6_dropShadow_2693_137945" result="shape"/>
</filter>
</defs>
</svg>
