<svg width="790" height="280" viewBox="0 0 790 280" fill="none" xmlns="http://www.w3.org/2000/svg">
<g filter="url(#filter0_dddddd_2693_137471)">
<rect width="790" height="280" rx="12" fill="white"/>
<path d="M17.076 29V18.0909H21.1669C22.005 18.0909 22.7081 18.2472 23.2763 18.5597C23.848 18.8722 24.2795 19.3018 24.5707 19.8487C24.8654 20.392 25.0128 21.0099 25.0128 21.7024C25.0128 22.402 24.8654 23.0234 24.5707 23.5668C24.2759 24.1101 23.8409 24.538 23.2656 24.8505C22.6903 25.1594 21.9819 25.3139 21.1403 25.3139H18.429V23.6893H20.8739C21.364 23.6893 21.7653 23.604 22.0778 23.4336C22.3903 23.2631 22.6211 23.0288 22.7702 22.7305C22.9229 22.4322 22.9993 22.0895 22.9993 21.7024C22.9993 21.3153 22.9229 20.9744 22.7702 20.6797C22.6211 20.3849 22.3885 20.1559 22.0724 19.9925C21.7599 19.8256 21.3569 19.7422 20.8633 19.7422H19.0522V29H17.076ZM26.6441 29V20.8182H28.5138V22.1818H28.599C28.7481 21.7095 29.0038 21.3455 29.366 21.0898C29.7318 20.8306 30.1491 20.701 30.6178 20.701C30.7243 20.701 30.8433 20.7063 30.9747 20.717C31.1096 20.7241 31.2215 20.7365 31.3103 20.7543V22.5281C31.2286 22.4996 31.099 22.4748 30.9214 22.4535C30.7474 22.4286 30.5787 22.4162 30.4154 22.4162C30.0638 22.4162 29.7478 22.4925 29.4672 22.6452C29.1903 22.7944 28.9719 23.0021 28.8121 23.2685C28.6523 23.5348 28.5724 23.842 28.5724 24.19V29H26.6441ZM35.8233 29.1598C35.0243 29.1598 34.3319 28.984 33.7459 28.6325C33.16 28.2809 32.7054 27.7891 32.3823 27.157C32.0627 26.5249 31.9029 25.7862 31.9029 24.9411C31.9029 24.0959 32.0627 23.3555 32.3823 22.7198C32.7054 22.0842 33.16 21.5906 33.7459 21.239C34.3319 20.8874 35.0243 20.7116 35.8233 20.7116C36.6223 20.7116 37.3148 20.8874 37.9007 21.239C38.4867 21.5906 38.9395 22.0842 39.2591 22.7198C39.5822 23.3555 39.7438 24.0959 39.7438 24.9411C39.7438 25.7862 39.5822 26.5249 39.2591 27.157C38.9395 27.7891 38.4867 28.2809 37.9007 28.6325C37.3148 28.984 36.6223 29.1598 35.8233 29.1598ZM35.834 27.6151C36.2672 27.6151 36.6294 27.4961 36.9206 27.2582C37.2118 27.0167 37.4284 26.6935 37.5705 26.2887C37.7161 25.8839 37.7889 25.4329 37.7889 24.9357C37.7889 24.435 37.7161 23.9822 37.5705 23.5774C37.4284 23.169 37.2118 22.8441 36.9206 22.6026C36.6294 22.3612 36.2672 22.2404 35.834 22.2404C35.3901 22.2404 35.0208 22.3612 34.726 22.6026C34.4348 22.8441 34.2164 23.169 34.0708 23.5774C33.9288 23.9822 33.8578 24.435 33.8578 24.9357C33.8578 25.4329 33.9288 25.8839 34.0708 26.2887C34.2164 26.6935 34.4348 27.0167 34.726 27.2582C35.0208 27.4961 35.3901 27.6151 35.834 27.6151ZM44.4166 29.1438C43.7739 29.1438 43.1986 28.9787 42.6908 28.6484C42.183 28.3182 41.7817 27.8388 41.4869 27.2102C41.1922 26.5817 41.0448 25.8182 41.0448 24.9197C41.0448 24.0107 41.194 23.2436 41.4923 22.6186C41.7941 21.9901 42.2007 21.516 42.7121 21.1964C43.2235 20.8732 43.7934 20.7116 44.422 20.7116C44.9014 20.7116 45.2955 20.7933 45.6045 20.9567C45.9134 21.1165 46.1585 21.31 46.3396 21.5373C46.5207 21.761 46.661 21.9723 46.7604 22.1712H46.8403V18.0909H48.7739V29H46.8776V27.7109H46.7604C46.661 27.9098 46.5171 28.1211 46.3289 28.3448C46.1407 28.565 45.8921 28.7532 45.5832 28.9094C45.2742 29.0657 44.8854 29.1438 44.4166 29.1438ZM44.9546 27.5618C45.363 27.5618 45.711 27.4517 45.9987 27.2315C46.2863 27.0078 46.5047 26.6971 46.6539 26.2994C46.803 25.9016 46.8776 25.4382 46.8776 24.9091C46.8776 24.38 46.803 23.9201 46.6539 23.5295C46.5083 23.1388 46.2916 22.8352 46.004 22.6186C45.7199 22.402 45.3701 22.2937 44.9546 22.2937C44.5249 22.2937 44.1663 22.4055 43.8786 22.6293C43.591 22.853 43.3744 23.1619 43.2288 23.5561C43.0832 23.9503 43.0104 24.4013 43.0104 24.9091C43.0104 25.4205 43.0832 25.8768 43.2288 26.2781C43.3779 26.6758 43.5963 26.9901 43.884 27.2209C44.1752 27.4482 44.532 27.5618 44.9546 27.5618ZM56.0435 25.5589V20.8182H57.9718V29H56.1021V27.5458H56.0169C55.8322 28.0039 55.5286 28.3786 55.106 28.6697C54.687 28.9609 54.1703 29.1065 53.5559 29.1065C53.0197 29.1065 52.5456 28.9876 52.1337 28.7496C51.7253 28.5082 51.4057 28.1584 51.1749 27.7003C50.9441 27.2386 50.8287 26.6811 50.8287 26.0277V20.8182H52.7569V25.7294C52.7569 26.2479 52.899 26.6598 53.1831 26.9652C53.4672 27.2706 53.84 27.4233 54.3017 27.4233C54.5858 27.4233 54.861 27.354 55.1273 27.2156C55.3936 27.0771 55.612 26.8711 55.7825 26.5977C55.9565 26.3207 56.0435 25.9744 56.0435 25.5589ZM63.5235 29.1598C62.7068 29.1598 62.0054 28.9805 61.4195 28.6218C60.8371 28.2631 60.3879 27.7678 60.0718 27.1357C59.7593 26.5 59.6031 25.7685 59.6031 24.9411C59.6031 24.1101 59.7629 23.3768 60.0825 22.7411C60.4021 22.1019 60.8531 21.6048 61.4355 21.2496C62.0214 20.891 62.7139 20.7116 63.5129 20.7116C64.1769 20.7116 64.7646 20.8342 65.276 21.0792C65.7909 21.3207 66.2011 21.6634 66.5065 22.1072C66.8119 22.5476 66.9859 23.0625 67.0285 23.652H65.1855C65.1109 23.2578 64.9333 22.9293 64.6528 22.6665C64.3758 22.4002 64.0047 22.267 63.5395 22.267C63.1453 22.267 62.7991 22.3736 62.5008 22.5866C62.2025 22.7962 61.9699 23.098 61.803 23.4922C61.6396 23.8864 61.558 24.3587 61.558 24.9091C61.558 25.4666 61.6396 25.946 61.803 26.3473C61.9664 26.745 62.1954 27.0522 62.4901 27.2688C62.7884 27.4819 63.1382 27.5884 63.5395 27.5884C63.8236 27.5884 64.0775 27.5352 64.3012 27.4286C64.5285 27.3185 64.7185 27.1605 64.8712 26.9545C65.0239 26.7486 65.1286 26.4982 65.1855 26.2035H67.0285C66.9823 26.7823 66.8119 27.2955 66.5171 27.7429C66.2224 28.1868 65.8211 28.5348 65.3133 28.7869C64.8055 29.0355 64.2089 29.1598 63.5235 29.1598ZM72.6974 20.8182V22.3097H67.994V20.8182H72.6974ZM69.1552 18.858H71.0835V26.5391C71.0835 26.7983 71.1225 26.9972 71.2006 27.1357C71.2823 27.2706 71.3888 27.3629 71.5202 27.4126C71.6516 27.4624 71.7972 27.4872 71.957 27.4872C72.0778 27.4872 72.1879 27.4783 72.2873 27.4606C72.3903 27.4428 72.4684 27.4268 72.5217 27.4126L72.8466 28.9201C72.7436 28.9556 72.5962 28.9947 72.4045 29.0373C72.2163 29.0799 71.9854 29.1048 71.712 29.1119C71.229 29.1261 70.794 29.0533 70.407 28.8935C70.0199 28.7301 69.7127 28.478 69.4854 28.1371C69.2617 27.7962 69.1516 27.37 69.1552 26.8587V18.858ZM78.0308 32.0682V20.8182H79.9271V22.1712H80.039C80.1384 21.9723 80.2787 21.761 80.4598 21.5373C80.6409 21.31 80.8859 21.1165 81.1949 20.9567C81.5038 20.7933 81.898 20.7116 82.3774 20.7116C83.0095 20.7116 83.5795 20.8732 84.0873 21.1964C84.5986 21.516 85.0035 21.9901 85.3018 22.6186C85.6036 23.2436 85.7545 24.0107 85.7545 24.9197C85.7545 25.8182 85.6072 26.5817 85.3124 27.2102C85.0177 27.8388 84.6164 28.3182 84.1086 28.6484C83.6008 28.9787 83.0255 29.1438 82.3827 29.1438C81.914 29.1438 81.5251 29.0657 81.2162 28.9094C80.9072 28.7532 80.6586 28.565 80.4704 28.3448C80.2858 28.1211 80.142 27.9098 80.039 27.7109H79.9591V32.0682H78.0308ZM79.9218 24.9091C79.9218 25.4382 79.9964 25.9016 80.1455 26.2994C80.2982 26.6971 80.5166 27.0078 80.8007 27.2315C81.0883 27.4517 81.4363 27.5618 81.8447 27.5618C82.2709 27.5618 82.6278 27.4482 82.9154 27.2209C83.203 26.9901 83.4197 26.6758 83.5653 26.2781C83.7144 25.8768 83.789 25.4205 83.789 24.9091C83.789 24.4013 83.7162 23.9503 83.5706 23.5561C83.425 23.1619 83.2084 22.853 82.9207 22.6293C82.6331 22.4055 82.2744 22.2937 81.8447 22.2937C81.4328 22.2937 81.083 22.402 80.7954 22.6186C80.5077 22.8352 80.2893 23.1388 80.1402 23.5295C79.9946 23.9201 79.9218 24.38 79.9218 24.9091ZM87.4058 29V20.8182H89.2755V22.1818H89.3607C89.5099 21.7095 89.7655 21.3455 90.1278 21.0898C90.4935 20.8306 90.9108 20.701 91.3795 20.701C91.4861 20.701 91.605 20.7063 91.7364 20.717C91.8714 20.7241 91.9832 20.7365 92.072 20.7543V22.5281C91.9903 22.4996 91.8607 22.4748 91.6832 22.4535C91.5091 22.4286 91.3405 22.4162 91.1771 22.4162C90.8256 22.4162 90.5095 22.4925 90.229 22.6452C89.952 22.7944 89.7336 23.0021 89.5738 23.2685C89.414 23.5348 89.3341 23.842 89.3341 24.19V29H87.4058ZM96.585 29.1598C95.786 29.1598 95.0936 28.984 94.5076 28.6325C93.9217 28.2809 93.4672 27.7891 93.144 27.157C92.8244 26.5249 92.6646 25.7862 92.6646 24.9411C92.6646 24.0959 92.8244 23.3555 93.144 22.7198C93.4672 22.0842 93.9217 21.5906 94.5076 21.239C95.0936 20.8874 95.786 20.7116 96.585 20.7116C97.3841 20.7116 98.0765 20.8874 98.6625 21.239C99.2484 21.5906 99.7012 22.0842 100.021 22.7198C100.344 23.3555 100.506 24.0959 100.506 24.9411C100.506 25.7862 100.344 26.5249 100.021 27.157C99.7012 27.7891 99.2484 28.2809 98.6625 28.6325C98.0765 28.984 97.3841 29.1598 96.585 29.1598ZM96.5957 27.6151C97.0289 27.6151 97.3912 27.4961 97.6824 27.2582C97.9735 27.0167 98.1902 26.6935 98.3322 26.2887C98.4778 25.8839 98.5506 25.4329 98.5506 24.9357C98.5506 24.435 98.4778 23.9822 98.3322 23.5774C98.1902 23.169 97.9735 22.8441 97.6824 22.6026C97.3912 22.3612 97.0289 22.2404 96.5957 22.2404C96.1518 22.2404 95.7825 22.3612 95.4877 22.6026C95.1966 22.8441 94.9782 23.169 94.8326 23.5774C94.6905 23.9822 94.6195 24.435 94.6195 24.9357C94.6195 25.4329 94.6905 25.8839 94.8326 26.2887C94.9782 26.6935 95.1966 27.0167 95.4877 27.2582C95.7825 27.4961 96.1518 27.6151 96.5957 27.6151ZM106.286 20.8182V22.3097H101.45V20.8182H106.286ZM102.659 29V20.0458C102.659 19.4954 102.772 19.0373 103 18.6715C103.231 18.3058 103.54 18.0323 103.927 17.8512C104.314 17.6701 104.743 17.5795 105.216 17.5795C105.549 17.5795 105.846 17.6062 106.105 17.6594C106.364 17.7127 106.556 17.7607 106.68 17.8033L106.297 19.2947C106.215 19.2699 106.112 19.245 105.988 19.2202C105.864 19.1918 105.725 19.1776 105.573 19.1776C105.214 19.1776 104.96 19.2646 104.811 19.4386C104.665 19.609 104.592 19.854 104.592 20.1737V29H102.659ZM107.796 29V20.8182H109.725V29H107.796ZM108.766 19.657C108.46 19.657 108.198 19.5558 107.978 19.3533C107.757 19.1474 107.647 18.9006 107.647 18.6129C107.647 18.3217 107.757 18.0749 107.978 17.8725C108.198 17.6665 108.46 17.5636 108.766 17.5636C109.075 17.5636 109.338 17.6665 109.554 17.8725C109.774 18.0749 109.884 18.3217 109.884 18.6129C109.884 18.9006 109.774 19.1474 109.554 19.3533C109.338 19.5558 109.075 19.657 108.766 19.657ZM115.793 20.8182V22.3097H111.09V20.8182H115.793ZM112.251 18.858H114.179V26.5391C114.179 26.7983 114.218 26.9972 114.296 27.1357C114.378 27.2706 114.485 27.3629 114.616 27.4126C114.747 27.4624 114.893 27.4872 115.053 27.4872C115.173 27.4872 115.284 27.4783 115.383 27.4606C115.486 27.4428 115.564 27.4268 115.617 27.4126L115.942 28.9201C115.839 28.9556 115.692 28.9947 115.5 29.0373C115.312 29.0799 115.081 29.1048 114.808 29.1119C114.325 29.1261 113.89 29.0533 113.503 28.8935C113.116 28.7301 112.808 28.478 112.581 28.1371C112.357 27.7962 112.247 27.37 112.251 26.8587V18.858ZM119.76 29.1651C119.242 29.1651 118.775 29.0728 118.359 28.8881C117.947 28.6999 117.621 28.4229 117.379 28.0572C117.141 27.6914 117.022 27.2404 117.022 26.7042C117.022 26.2425 117.108 25.8608 117.278 25.5589C117.448 25.2571 117.681 25.0156 117.976 24.8345C118.271 24.6534 118.603 24.5167 118.972 24.4244C119.345 24.3285 119.73 24.2592 120.128 24.2166C120.607 24.1669 120.996 24.1225 121.294 24.0835C121.593 24.0408 121.809 23.9769 121.944 23.8917C122.083 23.8029 122.152 23.6662 122.152 23.4815V23.4496C122.152 23.0483 122.033 22.7376 121.795 22.5174C121.557 22.2972 121.214 22.1871 120.767 22.1871C120.295 22.1871 119.92 22.2901 119.643 22.4961C119.37 22.7021 119.185 22.9453 119.089 23.2259L117.289 22.9702C117.431 22.473 117.665 22.0575 117.992 21.7237C118.318 21.3864 118.718 21.1342 119.19 20.9673C119.663 20.7969 120.185 20.7116 120.756 20.7116C121.15 20.7116 121.543 20.7578 121.934 20.8501C122.324 20.9425 122.681 21.0952 123.004 21.3082C123.327 21.5178 123.587 21.8036 123.782 22.1658C123.981 22.5281 124.08 22.9808 124.08 23.5241V29H122.226V27.8761H122.163C122.045 28.1033 121.88 28.3164 121.667 28.5153C121.458 28.7106 121.193 28.8686 120.873 28.9893C120.557 29.1065 120.186 29.1651 119.76 29.1651ZM120.261 27.7482C120.648 27.7482 120.984 27.6719 121.268 27.5192C121.552 27.3629 121.77 27.157 121.923 26.9013C122.079 26.6456 122.157 26.3668 122.157 26.065V25.1009C122.097 25.1506 121.994 25.1967 121.848 25.2393C121.706 25.282 121.546 25.3192 121.369 25.3512C121.191 25.3832 121.016 25.4116 120.842 25.4364C120.668 25.4613 120.517 25.4826 120.389 25.5004C120.101 25.5394 119.844 25.6033 119.616 25.6921C119.389 25.7809 119.21 25.9052 119.078 26.065C118.947 26.2212 118.881 26.4237 118.881 26.6722C118.881 27.0273 119.011 27.2955 119.27 27.4766C119.529 27.6577 119.86 27.7482 120.261 27.7482ZM126.104 29V18.0909H128.033V22.1712H128.112C128.212 21.9723 128.352 21.761 128.533 21.5373C128.714 21.31 128.959 21.1165 129.268 20.9567C129.577 20.7933 129.972 20.7116 130.451 20.7116C131.083 20.7116 131.653 20.8732 132.161 21.1964C132.672 21.516 133.077 21.9901 133.375 22.6186C133.677 23.2436 133.828 24.0107 133.828 24.9197C133.828 25.8182 133.681 26.5817 133.386 27.2102C133.091 27.8388 132.69 28.3182 132.182 28.6484C131.674 28.9787 131.099 29.1438 130.456 29.1438C129.987 29.1438 129.599 29.0657 129.29 28.9094C128.981 28.7532 128.732 28.565 128.544 28.3448C128.359 28.1211 128.215 27.9098 128.112 27.7109H128.001V29H126.104ZM127.995 24.9091C127.995 25.4382 128.07 25.9016 128.219 26.2994C128.372 26.6971 128.59 27.0078 128.874 27.2315C129.162 27.4517 129.51 27.5618 129.918 27.5618C130.344 27.5618 130.701 27.4482 130.989 27.2209C131.277 26.9901 131.493 26.6758 131.639 26.2781C131.788 25.8768 131.862 25.4205 131.862 24.9091C131.862 24.4013 131.79 23.9503 131.644 23.5561C131.498 23.1619 131.282 22.853 130.994 22.6293C130.707 22.4055 130.348 22.2937 129.918 22.2937C129.506 22.2937 129.157 22.402 128.869 22.6186C128.581 22.8352 128.363 23.1388 128.214 23.5295C128.068 23.9201 127.995 24.38 127.995 24.9091ZM135.467 29V20.8182H137.396V29H135.467ZM136.437 19.657C136.131 19.657 135.869 19.5558 135.648 19.3533C135.428 19.1474 135.318 18.9006 135.318 18.6129C135.318 18.3217 135.428 18.0749 135.648 17.8725C135.869 17.6665 136.131 17.5636 136.437 17.5636C136.746 17.5636 137.009 17.6665 137.225 17.8725C137.445 18.0749 137.555 18.3217 137.555 18.6129C137.555 18.9006 137.445 19.1474 137.225 19.3533C137.009 19.5558 136.746 19.657 136.437 19.657ZM141.307 18.0909V29H139.378V18.0909H141.307ZM143.29 29V20.8182H145.218V29H143.29ZM144.259 19.657C143.954 19.657 143.691 19.5558 143.471 19.3533C143.251 19.1474 143.14 18.9006 143.14 18.6129C143.14 18.3217 143.251 18.0749 143.471 17.8725C143.691 17.6665 143.954 17.5636 144.259 17.5636C144.568 17.5636 144.831 17.6665 145.047 17.8725C145.268 18.0749 145.378 18.3217 145.378 18.6129C145.378 18.9006 145.268 19.1474 145.047 19.3533C144.831 19.5558 144.568 19.657 144.259 19.657ZM151.286 20.8182V22.3097H146.583V20.8182H151.286ZM147.744 18.858H149.672V26.5391C149.672 26.7983 149.711 26.9972 149.79 27.1357C149.871 27.2706 149.978 27.3629 150.109 27.4126C150.241 27.4624 150.386 27.4872 150.546 27.4872C150.667 27.4872 150.777 27.4783 150.876 27.4606C150.979 27.4428 151.057 27.4268 151.111 27.4126L151.435 28.9201C151.332 28.9556 151.185 28.9947 150.993 29.0373C150.805 29.0799 150.574 29.1048 150.301 29.1119C149.818 29.1261 149.383 29.0533 148.996 28.8935C148.609 28.7301 148.302 28.478 148.074 28.1371C147.851 27.7962 147.741 27.37 147.744 26.8587V18.858ZM154.097 32.0682C153.835 32.0682 153.591 32.0469 153.368 32.0043C153.148 31.9652 152.972 31.919 152.84 31.8658L153.288 30.3636C153.568 30.4453 153.819 30.4844 154.039 30.4808C154.259 30.4773 154.453 30.408 154.619 30.2731C154.79 30.1417 154.934 29.9215 155.051 29.6126L155.216 29.1705L152.249 20.8182H154.295L156.18 26.9972H156.265L158.156 20.8182H160.207L156.931 29.9908C156.779 30.424 156.576 30.7951 156.324 31.104C156.072 31.4165 155.763 31.6545 155.397 31.8178C155.035 31.9847 154.602 32.0682 154.097 32.0682Z" fill="#191A1D"/>
<path d="M16.6761 41.9119V40.8182H24.3125V41.9119H21.1108V51H19.8778V41.9119H16.6761ZM25.1233 51V43.3636H26.2568V44.517H26.3364C26.4756 44.1392 26.7275 43.8326 27.0921 43.5973C27.4566 43.362 27.8676 43.2443 28.325 43.2443C28.4112 43.2443 28.5189 43.246 28.6482 43.2493C28.7774 43.2526 28.8752 43.2576 28.9415 43.2642V44.4574C28.9017 44.4474 28.8106 44.4325 28.6681 44.4126C28.5289 44.3894 28.3814 44.3778 28.2256 44.3778C27.8544 44.3778 27.5229 44.4557 27.2313 44.6115C26.9429 44.764 26.7142 44.9761 26.5452 45.2479C26.3795 45.5163 26.2966 45.8229 26.2966 46.1676V51H25.1233ZM33.1616 51.1591C32.4258 51.1591 31.7911 50.9967 31.2575 50.6719C30.7272 50.3438 30.3178 49.8864 30.0295 49.2997C29.7444 48.7098 29.6019 48.0237 29.6019 47.2415C29.6019 46.4593 29.7444 45.7699 30.0295 45.1733C30.3178 44.5734 30.7189 44.1061 31.2326 43.7713C31.7497 43.4332 32.3529 43.2642 33.0423 43.2642C33.44 43.2642 33.8327 43.3305 34.2205 43.4631C34.6083 43.5956 34.9613 43.8111 35.2795 44.1094C35.5977 44.4044 35.8512 44.7955 36.0401 45.2827C36.2291 45.7699 36.3235 46.3698 36.3235 47.0824V47.5795H30.4372V46.5653H35.1303C35.1303 46.1345 35.0442 45.75 34.8718 45.4119C34.7028 45.0739 34.4608 44.8071 34.146 44.6115C33.8344 44.416 33.4665 44.3182 33.0423 44.3182C32.5749 44.3182 32.1706 44.4342 31.8292 44.6662C31.4911 44.8949 31.2309 45.1932 31.0487 45.5611C30.8664 45.929 30.7752 46.3234 30.7752 46.7443V47.4205C30.7752 47.9972 30.8747 48.486 31.0735 48.8871C31.2757 49.2848 31.5558 49.5881 31.9137 49.7969C32.2717 50.0024 32.6876 50.1051 33.1616 50.1051C33.4698 50.1051 33.7482 50.062 33.9968 49.9759C34.2487 49.8864 34.4658 49.7538 34.6481 49.5781C34.8304 49.3991 34.9712 49.1771 35.0707 48.9119L36.2042 49.2301C36.0849 49.6146 35.8844 49.9527 35.6026 50.2443C35.3209 50.5327 34.9729 50.758 34.5586 50.9205C34.1443 51.0795 33.6786 51.1591 33.1616 51.1591ZM39.1416 46.4062V51H37.9683V43.3636H39.1018V44.5568H39.2013C39.3802 44.169 39.652 43.8575 40.0166 43.6222C40.3812 43.3835 40.8518 43.2642 41.4285 43.2642C41.9456 43.2642 42.398 43.3703 42.7858 43.5824C43.1736 43.7912 43.4752 44.1094 43.6906 44.5369C43.9061 44.9612 44.0138 45.4981 44.0138 46.1477V51H42.8405V46.2273C42.8405 45.6274 42.6847 45.16 42.3731 44.8253C42.0616 44.4872 41.634 44.3182 41.0905 44.3182C40.7159 44.3182 40.3812 44.3994 40.0862 44.5618C39.7945 44.7242 39.5642 44.9612 39.3952 45.2727C39.2261 45.5843 39.1416 45.9621 39.1416 46.4062ZM48.9013 51.1591C48.2649 51.1591 47.7031 50.9983 47.2159 50.6768C46.7287 50.352 46.3476 49.8946 46.0725 49.3047C45.7974 48.7114 45.6598 48.0104 45.6598 47.2017C45.6598 46.3996 45.7974 45.7036 46.0725 45.1136C46.3476 44.5237 46.7304 44.0679 47.2209 43.7464C47.7114 43.425 48.2782 43.2642 48.9212 43.2642C49.4183 43.2642 49.8111 43.3471 50.0994 43.5128C50.3911 43.6752 50.6132 43.8608 50.7656 44.0696C50.9214 44.2751 51.0424 44.4441 51.1286 44.5767H51.228V40.8182H52.4013V51H51.2678V49.8267H51.1286C51.0424 49.9659 50.9198 50.1416 50.7607 50.3537C50.6016 50.5625 50.3745 50.7498 50.0796 50.9155C49.7846 51.0779 49.3918 51.1591 48.9013 51.1591ZM49.0604 50.1051C49.531 50.1051 49.9288 49.9825 50.2536 49.7372C50.5784 49.4886 50.8253 49.1456 50.9943 48.7081C51.1634 48.2673 51.2479 47.7585 51.2479 47.1818C51.2479 46.6117 51.165 46.1129 50.9993 45.6854C50.8336 45.2545 50.5883 44.9197 50.2635 44.6811C49.9387 44.4392 49.5377 44.3182 49.0604 44.3182C48.5632 44.3182 48.1489 44.4458 47.8175 44.701C47.4894 44.9529 47.2424 45.2959 47.0767 45.7301C46.9143 46.161 46.8331 46.6449 46.8331 47.1818C46.8331 47.7254 46.916 48.2192 47.0817 48.6634C47.2507 49.1042 47.4993 49.4555 47.8274 49.7173C48.1589 49.9759 48.5699 50.1051 49.0604 50.1051ZM59.5439 40.8182V51H58.3706V40.8182H59.5439ZM61.5528 51V43.3636H62.7261V51H61.5528ZM62.1494 42.0909C61.9207 42.0909 61.7235 42.013 61.5578 41.8572C61.3954 41.7015 61.3142 41.5142 61.3142 41.2955C61.3142 41.0767 61.3954 40.8894 61.5578 40.7337C61.7235 40.5779 61.9207 40.5 62.1494 40.5C62.3781 40.5 62.5737 40.5779 62.7361 40.7337C62.9018 40.8894 62.9847 41.0767 62.9847 41.2955C62.9847 41.5142 62.9018 41.7015 62.7361 41.8572C62.5737 42.013 62.3781 42.0909 62.1494 42.0909ZM65.9084 46.4062V51H64.7351V43.3636H65.8686V44.5568H65.9681C66.147 44.169 66.4188 43.8575 66.7834 43.6222C67.148 43.3835 67.6186 43.2642 68.1953 43.2642C68.7124 43.2642 69.1648 43.3703 69.5526 43.5824C69.9404 43.7912 70.242 44.1094 70.4574 44.5369C70.6729 44.9612 70.7806 45.4981 70.7806 46.1477V51H69.6073V46.2273C69.6073 45.6274 69.4515 45.16 69.1399 44.8253C68.8284 44.4872 68.4008 44.3182 67.8573 44.3182C67.4827 44.3182 67.148 44.3994 66.853 44.5618C66.5613 44.7242 66.331 44.9612 66.162 45.2727C65.9929 45.5843 65.9084 45.9621 65.9084 46.4062ZM75.9863 51.1591C75.2505 51.1591 74.6158 50.9967 74.0822 50.6719C73.5519 50.3438 73.1425 49.8864 72.8542 49.2997C72.5691 48.7098 72.4266 48.0237 72.4266 47.2415C72.4266 46.4593 72.5691 45.7699 72.8542 45.1733C73.1425 44.5734 73.5436 44.1061 74.0573 43.7713C74.5743 43.4332 75.1776 43.2642 75.867 43.2642C76.2647 43.2642 76.6574 43.3305 77.0452 43.4631C77.433 43.5956 77.786 43.8111 78.1042 44.1094C78.4224 44.4044 78.6759 44.7955 78.8648 45.2827C79.0537 45.7699 79.1482 46.3698 79.1482 47.0824V47.5795H73.2618V46.5653H77.955C77.955 46.1345 77.8688 45.75 77.6965 45.4119C77.5275 45.0739 77.2855 44.8071 76.9706 44.6115C76.6591 44.416 76.2912 44.3182 75.867 44.3182C75.3996 44.3182 74.9953 44.4342 74.6539 44.6662C74.3158 44.8949 74.0556 45.1932 73.8733 45.5611C73.6911 45.929 73.5999 46.3234 73.5999 46.7443V47.4205C73.5999 47.9972 73.6993 48.486 73.8982 48.8871C74.1004 49.2848 74.3804 49.5881 74.7384 49.7969C75.0964 50.0024 75.5123 50.1051 75.9863 50.1051C76.2945 50.1051 76.5729 50.062 76.8215 49.9759C77.0734 49.8864 77.2905 49.7538 77.4728 49.5781C77.6551 49.3991 77.7959 49.1771 77.8954 48.9119L79.0289 49.2301C78.9096 49.6146 78.709 49.9527 78.4273 50.2443C78.1456 50.5327 77.7976 50.758 77.3833 50.9205C76.969 51.0795 76.5033 51.1591 75.9863 51.1591ZM89.9996 45.0739L88.9456 45.3722C88.8793 45.1965 88.7816 45.0258 88.6523 44.8601C88.5263 44.6911 88.354 44.5518 88.1352 44.4425C87.9165 44.3331 87.6364 44.2784 87.295 44.2784C86.8277 44.2784 86.4383 44.3861 86.1267 44.6016C85.8185 44.8137 85.6644 45.0838 85.6644 45.4119C85.6644 45.7036 85.7704 45.9339 85.9825 46.103C86.1947 46.272 86.5261 46.4129 86.9769 46.5256L88.1104 46.804C88.7932 46.9697 89.3019 47.2232 89.6367 47.5646C89.9714 47.9027 90.1388 48.3385 90.1388 48.8722C90.1388 49.3097 90.0129 49.7008 89.761 50.0455C89.5124 50.3902 89.1644 50.6619 88.7169 50.8608C88.2695 51.0597 87.7491 51.1591 87.1558 51.1591C86.377 51.1591 85.7323 50.9901 85.2219 50.652C84.7115 50.3139 84.3883 49.8201 84.2524 49.1705L85.3661 48.892C85.4721 49.303 85.6727 49.6113 85.9676 49.8168C86.2659 50.0223 86.6554 50.125 87.136 50.125C87.6828 50.125 88.117 50.009 88.4385 49.777C88.7633 49.5417 88.9257 49.2599 88.9257 48.9318C88.9257 48.6667 88.8329 48.4446 88.6473 48.2656C88.4617 48.0833 88.1767 47.9474 87.7922 47.858L86.5195 47.5597C85.8201 47.3939 85.3064 47.1371 84.9783 46.7891C84.6535 46.4377 84.4911 45.9986 84.4911 45.4716C84.4911 45.0407 84.612 44.6596 84.854 44.3281C85.0993 43.9967 85.4324 43.7365 85.8533 43.5476C86.2775 43.3587 86.7581 43.2642 87.295 43.2642C88.0507 43.2642 88.644 43.4299 89.0749 43.7614C89.5091 44.0928 89.8173 44.5303 89.9996 45.0739ZM92.9383 46.4062V51H91.765V40.8182H92.9383V44.5568H93.0377C93.2167 44.1624 93.4851 43.8492 93.8431 43.6172C94.2044 43.3819 94.6849 43.2642 95.2848 43.2642C95.8052 43.2642 96.2609 43.3686 96.652 43.5774C97.0431 43.7829 97.3464 44.0994 97.5618 44.527C97.7806 44.9512 97.89 45.4915 97.89 46.1477V51H96.7167V46.2273C96.7167 45.6207 96.5592 45.1518 96.2444 44.8203C95.9328 44.4856 95.5003 44.3182 94.9468 44.3182C94.5623 44.3182 94.2176 44.3994 93.9127 44.5618C93.6111 44.7242 93.3724 44.9612 93.1968 45.2727C93.0244 45.5843 92.9383 45.9621 92.9383 46.4062ZM102.999 51.1591C102.309 51.1591 101.704 50.995 101.184 50.6669C100.667 50.3388 100.263 49.8797 99.971 49.2898C99.6827 48.6998 99.5385 48.0104 99.5385 47.2216C99.5385 46.4261 99.6827 45.7318 99.971 45.1385C100.263 44.5452 100.667 44.0845 101.184 43.7564C101.704 43.4283 102.309 43.2642 102.999 43.2642C103.688 43.2642 104.291 43.4283 104.808 43.7564C105.329 44.0845 105.733 44.5452 106.021 45.1385C106.313 45.7318 106.459 46.4261 106.459 47.2216C106.459 48.0104 106.313 48.6998 106.021 49.2898C105.733 49.8797 105.329 50.3388 104.808 50.6669C104.291 50.995 103.688 51.1591 102.999 51.1591ZM102.999 50.1051C103.522 50.1051 103.953 49.9709 104.291 49.7024C104.629 49.4339 104.88 49.081 105.042 48.6435C105.204 48.206 105.286 47.732 105.286 47.2216C105.286 46.7112 105.204 46.2356 105.042 45.7947C104.88 45.3539 104.629 44.9976 104.291 44.7259C103.953 44.4541 103.522 44.3182 102.999 44.3182C102.475 44.3182 102.044 44.4541 101.706 44.7259C101.368 44.9976 101.118 45.3539 100.955 45.7947C100.793 46.2356 100.712 46.7112 100.712 47.2216C100.712 47.732 100.793 48.206 100.955 48.6435C101.118 49.081 101.368 49.4339 101.706 49.7024C102.044 49.9709 102.475 50.1051 102.999 50.1051ZM109.58 51L107.254 43.3636H108.487L110.137 49.2102H110.217L111.847 43.3636H113.1L114.711 49.1903H114.791L116.441 43.3636H117.674L115.347 51H114.194L112.523 45.1335H112.404L110.734 51H109.58ZM124.494 45.0739L123.44 45.3722C123.374 45.1965 123.276 45.0258 123.147 44.8601C123.021 44.6911 122.849 44.5518 122.63 44.4425C122.411 44.3331 122.131 44.2784 121.79 44.2784C121.322 44.2784 120.933 44.3861 120.621 44.6016C120.313 44.8137 120.159 45.0838 120.159 45.4119C120.159 45.7036 120.265 45.9339 120.477 46.103C120.689 46.272 121.021 46.4129 121.472 46.5256L122.605 46.804C123.288 46.9697 123.797 47.2232 124.131 47.5646C124.466 47.9027 124.633 48.3385 124.633 48.8722C124.633 49.3097 124.508 49.7008 124.256 50.0455C124.007 50.3902 123.659 50.6619 123.212 50.8608C122.764 51.0597 122.244 51.1591 121.651 51.1591C120.872 51.1591 120.227 50.9901 119.717 50.652C119.206 50.3139 118.883 49.8201 118.747 49.1705L119.861 48.892C119.967 49.303 120.167 49.6113 120.462 49.8168C120.761 50.0223 121.15 50.125 121.631 50.125C122.178 50.125 122.612 50.009 122.933 49.777C123.258 49.5417 123.42 49.2599 123.42 48.9318C123.42 48.6667 123.328 48.4446 123.142 48.2656C122.956 48.0833 122.671 47.9474 122.287 47.858L121.014 47.5597C120.315 47.3939 119.801 47.1371 119.473 46.7891C119.148 46.4377 118.986 45.9986 118.986 45.4716C118.986 45.0407 119.107 44.6596 119.349 44.3281C119.594 43.9967 119.927 43.7365 120.348 43.5476C120.772 43.3587 121.253 43.2642 121.79 43.2642C122.545 43.2642 123.139 43.4299 123.57 43.7614C124.004 44.0928 124.312 44.5303 124.494 45.0739ZM132.304 51.179C131.82 51.179 131.381 51.0878 130.987 50.9055C130.592 50.7199 130.279 50.4531 130.047 50.1051C129.815 49.7538 129.699 49.3295 129.699 48.8324C129.699 48.3949 129.785 48.0402 129.958 47.7685C130.13 47.4934 130.36 47.2779 130.649 47.1222C130.937 46.9664 131.255 46.8504 131.603 46.7741C131.955 46.6946 132.308 46.6316 132.662 46.5852C133.126 46.5256 133.502 46.4808 133.791 46.451C134.082 46.4179 134.295 46.3632 134.427 46.2869C134.563 46.2107 134.631 46.0781 134.631 45.8892V45.8494C134.631 45.3589 134.497 44.9777 134.228 44.706C133.963 44.4342 133.56 44.2983 133.02 44.2983C132.46 44.2983 132.021 44.4209 131.703 44.6662C131.385 44.9115 131.161 45.1733 131.032 45.4517L129.918 45.054C130.117 44.59 130.382 44.2287 130.713 43.9702C131.048 43.7083 131.413 43.526 131.807 43.4233C132.205 43.3172 132.596 43.2642 132.98 43.2642C133.226 43.2642 133.507 43.294 133.826 43.3537C134.147 43.41 134.457 43.5277 134.755 43.7067C135.057 43.8857 135.307 44.1558 135.506 44.517C135.705 44.8783 135.804 45.3622 135.804 45.9688V51H134.631V49.9659H134.571C134.492 50.1316 134.359 50.3089 134.174 50.4979C133.988 50.6868 133.741 50.8475 133.433 50.9801C133.125 51.1127 132.748 51.179 132.304 51.179ZM132.483 50.125C132.947 50.125 133.338 50.0339 133.657 49.8516C133.978 49.6693 134.22 49.4339 134.382 49.1456C134.548 48.8572 134.631 48.554 134.631 48.2358V47.1619C134.581 47.2216 134.472 47.2763 134.303 47.326C134.137 47.3724 133.945 47.4138 133.726 47.4503C133.511 47.4834 133.3 47.5133 133.095 47.5398C132.893 47.563 132.729 47.5829 132.603 47.5994C132.298 47.6392 132.013 47.7038 131.747 47.7933C131.486 47.8795 131.274 48.0104 131.111 48.1861C130.952 48.3584 130.872 48.5937 130.872 48.892C130.872 49.2997 131.023 49.608 131.325 49.8168C131.63 50.0223 132.016 50.125 132.483 50.125ZM143.777 43.3636L140.953 51H139.76L136.936 43.3636H138.209L140.316 49.4489H140.396L142.504 43.3636H143.777ZM148.114 51.1591C147.378 51.1591 146.743 50.9967 146.209 50.6719C145.679 50.3438 145.27 49.8864 144.982 49.2997C144.696 48.7098 144.554 48.0237 144.554 47.2415C144.554 46.4593 144.696 45.7699 144.982 45.1733C145.27 44.5734 145.671 44.1061 146.185 43.7713C146.702 43.4332 147.305 43.2642 147.994 43.2642C148.392 43.2642 148.785 43.3305 149.173 43.4631C149.56 43.5956 149.913 43.8111 150.232 44.1094C150.55 44.4044 150.803 44.7955 150.992 45.2827C151.181 45.7699 151.276 46.3698 151.276 47.0824V47.5795H145.389V46.5653H150.082C150.082 46.1345 149.996 45.75 149.824 45.4119C149.655 45.0739 149.413 44.8071 149.098 44.6115C148.786 44.416 148.419 44.3182 147.994 44.3182C147.527 44.3182 147.123 44.4342 146.781 44.6662C146.443 44.8949 146.183 45.1932 146.001 45.5611C145.818 45.929 145.727 46.3234 145.727 46.7443V47.4205C145.727 47.9972 145.827 48.486 146.026 48.8871C146.228 49.2848 146.508 49.5881 146.866 49.7969C147.224 50.0024 147.64 50.1051 148.114 50.1051C148.422 50.1051 148.7 50.062 148.949 49.9759C149.201 49.8864 149.418 49.7538 149.6 49.5781C149.782 49.3991 149.923 49.1771 150.023 48.9119L151.156 49.2301C151.037 49.6146 150.836 49.9527 150.555 50.2443C150.273 50.5327 149.925 50.758 149.511 50.9205C149.096 51.0795 148.631 51.1591 148.114 51.1591ZM152.92 51V43.3636H154.054V44.517H154.133C154.273 44.1392 154.525 43.8326 154.889 43.5973C155.254 43.362 155.665 43.2443 156.122 43.2443C156.208 43.2443 156.316 43.246 156.445 43.2493C156.574 43.2526 156.672 43.2576 156.739 43.2642V44.4574C156.699 44.4474 156.608 44.4325 156.465 44.4126C156.326 44.3894 156.178 44.3778 156.023 44.3778C155.651 44.3778 155.32 44.4557 155.028 44.6115C154.74 44.764 154.511 44.9761 154.342 45.2479C154.177 45.5163 154.094 45.8229 154.094 46.1676V51H152.92ZM160.236 51.179C159.753 51.179 159.313 51.0878 158.919 50.9055C158.525 50.7199 158.211 50.4531 157.979 50.1051C157.747 49.7538 157.631 49.3295 157.631 48.8324C157.631 48.3949 157.718 48.0402 157.89 47.7685C158.062 47.4934 158.293 47.2779 158.581 47.1222C158.869 46.9664 159.187 46.8504 159.535 46.7741C159.887 46.6946 160.24 46.6316 160.594 46.5852C161.058 46.5256 161.435 46.4808 161.723 46.451C162.015 46.4179 162.227 46.3632 162.359 46.2869C162.495 46.2107 162.563 46.0781 162.563 45.8892V45.8494C162.563 45.3589 162.429 44.9777 162.16 44.706C161.895 44.4342 161.493 44.2983 160.952 44.2983C160.392 44.2983 159.953 44.4209 159.635 44.6662C159.317 44.9115 159.093 45.1733 158.964 45.4517L157.85 45.054C158.049 44.59 158.314 44.2287 158.646 43.9702C158.98 43.7083 159.345 43.526 159.739 43.4233C160.137 43.3172 160.528 43.2642 160.913 43.2642C161.158 43.2642 161.44 43.294 161.758 43.3537C162.079 43.41 162.389 43.5277 162.687 43.7067C162.989 43.8857 163.239 44.1558 163.438 44.517C163.637 44.8783 163.736 45.3622 163.736 45.9688V51H162.563V49.9659H162.504C162.424 50.1316 162.291 50.3089 162.106 50.4979C161.92 50.6868 161.673 50.8475 161.365 50.9801C161.057 51.1127 160.681 51.179 160.236 51.179ZM160.415 50.125C160.879 50.125 161.271 50.0339 161.589 49.8516C161.91 49.6693 162.152 49.4339 162.315 49.1456C162.48 48.8572 162.563 48.554 162.563 48.2358V47.1619C162.513 47.2216 162.404 47.2763 162.235 47.326C162.069 47.3724 161.877 47.4138 161.658 47.4503C161.443 47.4834 161.232 47.5133 161.027 47.5398C160.825 47.563 160.661 47.5829 160.535 47.5994C160.23 47.6392 159.945 47.7038 159.68 47.7933C159.418 47.8795 159.206 48.0104 159.043 48.1861C158.884 48.3584 158.805 48.5937 158.805 48.892C158.805 49.2997 158.955 49.608 159.257 49.8168C159.562 50.0223 159.948 50.125 160.415 50.125ZM168.82 54.0227C168.254 54.0227 167.766 53.9498 167.359 53.804C166.951 53.6615 166.611 53.4725 166.34 53.2372C166.071 53.0052 165.857 52.7566 165.698 52.4915L166.633 51.8352C166.739 51.9744 166.873 52.1335 167.036 52.3125C167.198 52.4948 167.42 52.6522 167.702 52.7848C167.987 52.9207 168.36 52.9886 168.82 52.9886C169.437 52.9886 169.946 52.8395 170.347 52.5412C170.748 52.2429 170.948 51.7756 170.948 51.1392V49.5881H170.849C170.763 49.7273 170.64 49.8996 170.481 50.1051C170.325 50.3073 170.1 50.4879 169.805 50.647C169.513 50.8028 169.119 50.8807 168.622 50.8807C168.005 50.8807 167.452 50.7348 166.961 50.4432C166.474 50.1515 166.088 49.7273 165.803 49.1705C165.521 48.6136 165.38 47.9375 165.38 47.142C165.38 46.3598 165.518 45.6787 165.793 45.0987C166.068 44.5154 166.451 44.0646 166.941 43.7464C167.432 43.425 167.998 43.2642 168.641 43.2642C169.139 43.2642 169.533 43.3471 169.825 43.5128C170.12 43.6752 170.345 43.8608 170.501 44.0696C170.66 44.2751 170.783 44.4441 170.869 44.5767H170.988V43.3636H172.122V51.2188C172.122 51.875 171.972 52.4086 171.674 52.8196C171.379 53.2339 170.981 53.5372 170.481 53.7294C169.984 53.925 169.43 54.0227 168.82 54.0227ZM168.781 49.8267C169.251 49.8267 169.649 49.719 169.974 49.5036C170.299 49.2881 170.546 48.9782 170.715 48.5739C170.884 48.1695 170.968 47.6856 170.968 47.1222C170.968 46.572 170.885 46.0864 170.72 45.6655C170.554 45.2446 170.309 44.9148 169.984 44.6761C169.659 44.4375 169.258 44.3182 168.781 44.3182C168.283 44.3182 167.869 44.4441 167.538 44.696C167.21 44.9479 166.963 45.286 166.797 45.7102C166.635 46.1345 166.553 46.6051 166.553 47.1222C166.553 47.6525 166.636 48.1214 166.802 48.5291C166.971 48.9335 167.22 49.2517 167.548 49.4837C167.879 49.7124 168.29 49.8267 168.781 49.8267ZM177.331 51.1591C176.595 51.1591 175.96 50.9967 175.427 50.6719C174.897 50.3438 174.487 49.8864 174.199 49.2997C173.914 48.7098 173.771 48.0237 173.771 47.2415C173.771 46.4593 173.914 45.7699 174.199 45.1733C174.487 44.5734 174.888 44.1061 175.402 43.7713C175.919 43.4332 176.522 43.2642 177.212 43.2642C177.609 43.2642 178.002 43.3305 178.39 43.4631C178.778 43.5956 179.131 43.8111 179.449 44.1094C179.767 44.4044 180.021 44.7955 180.21 45.2827C180.398 45.7699 180.493 46.3698 180.493 47.0824V47.5795H174.607V46.5653H179.3C179.3 46.1345 179.214 45.75 179.041 45.4119C178.872 45.0739 178.63 44.8071 178.315 44.6115C178.004 44.416 177.636 44.3182 177.212 44.3182C176.744 44.3182 176.34 44.4342 175.999 44.6662C175.661 44.8949 175.4 45.1932 175.218 45.5611C175.036 45.929 174.945 46.3234 174.945 46.7443V47.4205C174.945 47.9972 175.044 48.486 175.243 48.8871C175.445 49.2848 175.725 49.5881 176.083 49.7969C176.441 50.0024 176.857 50.1051 177.331 50.1051C177.639 50.1051 177.918 50.062 178.166 49.9759C178.418 49.8864 178.635 49.7538 178.817 49.5781C179 49.3991 179.141 49.1771 179.24 48.9119L180.374 49.2301C180.254 49.6146 180.054 49.9527 179.772 50.2443C179.49 50.5327 179.142 50.758 178.728 50.9205C178.314 51.0795 177.848 51.1591 177.331 51.1591ZM185.935 53.8636V43.3636H187.069V44.5767H187.208C187.294 44.4441 187.413 44.2751 187.566 44.0696C187.722 43.8608 187.944 43.6752 188.232 43.5128C188.524 43.3471 188.918 43.2642 189.415 43.2642C190.058 43.2642 190.625 43.425 191.116 43.7464C191.606 44.0679 191.989 44.5237 192.264 45.1136C192.539 45.7036 192.677 46.3996 192.677 47.2017C192.677 48.0104 192.539 48.7114 192.264 49.3047C191.989 49.8946 191.608 50.352 191.121 50.6768C190.633 50.9983 190.072 51.1591 189.435 51.1591C188.945 51.1591 188.552 51.0779 188.257 50.9155C187.962 50.7498 187.735 50.5625 187.576 50.3537C187.417 50.1416 187.294 49.9659 187.208 49.8267H187.108V53.8636H185.935ZM187.089 47.1818C187.089 47.7585 187.173 48.2673 187.342 48.7081C187.511 49.1456 187.758 49.4886 188.083 49.7372C188.408 49.9825 188.805 50.1051 189.276 50.1051C189.767 50.1051 190.176 49.9759 190.504 49.7173C190.836 49.4555 191.084 49.1042 191.25 48.6634C191.419 48.2192 191.503 47.7254 191.503 47.1818C191.503 46.6449 191.421 46.161 191.255 45.7301C191.092 45.2959 190.845 44.9529 190.514 44.701C190.186 44.4458 189.773 44.3182 189.276 44.3182C188.799 44.3182 188.398 44.4392 188.073 44.6811C187.748 44.9197 187.503 45.2545 187.337 45.6854C187.171 46.1129 187.089 46.6117 187.089 47.1818ZM194.326 51V43.3636H195.46V44.517H195.54C195.679 44.1392 195.931 43.8326 196.295 43.5973C196.66 43.362 197.071 43.2443 197.528 43.2443C197.614 43.2443 197.722 43.246 197.851 43.2493C197.981 43.2526 198.078 43.2576 198.145 43.2642V44.4574C198.105 44.4474 198.014 44.4325 197.871 44.4126C197.732 44.3894 197.584 44.3778 197.429 44.3778C197.058 44.3778 196.726 44.4557 196.434 44.6115C196.146 44.764 195.917 44.9761 195.748 45.2479C195.583 45.5163 195.5 45.8229 195.5 46.1676V51H194.326ZM202.265 51.1591C201.576 51.1591 200.971 50.995 200.451 50.6669C199.934 50.3388 199.529 49.8797 199.238 49.2898C198.949 48.6998 198.805 48.0104 198.805 47.2216C198.805 46.4261 198.949 45.7318 199.238 45.1385C199.529 44.5452 199.934 44.0845 200.451 43.7564C200.971 43.4283 201.576 43.2642 202.265 43.2642C202.955 43.2642 203.558 43.4283 204.075 43.7564C204.595 44.0845 205 44.5452 205.288 45.1385C205.58 45.7318 205.726 46.4261 205.726 47.2216C205.726 48.0104 205.58 48.6998 205.288 49.2898C205 49.8797 204.595 50.3388 204.075 50.6669C203.558 50.995 202.955 51.1591 202.265 51.1591ZM202.265 50.1051C202.789 50.1051 203.22 49.9709 203.558 49.7024C203.896 49.4339 204.146 49.081 204.309 48.6435C204.471 48.206 204.552 47.732 204.552 47.2216C204.552 46.7112 204.471 46.2356 204.309 45.7947C204.146 45.3539 203.896 44.9976 203.558 44.7259C203.22 44.4541 202.789 44.3182 202.265 44.3182C201.742 44.3182 201.311 44.4541 200.973 44.7259C200.635 44.9976 200.384 45.3539 200.222 45.7947C200.06 46.2356 199.978 46.7112 199.978 47.2216C199.978 47.732 200.06 48.206 200.222 48.6435C200.384 49.081 200.635 49.4339 200.973 49.7024C201.311 49.9709 201.742 50.1051 202.265 50.1051ZM210.777 43.3636V44.358H206.661V43.3636H210.777ZM207.894 51V42.3097C207.894 41.8722 207.996 41.5076 208.202 41.2159C208.407 40.9242 208.674 40.7055 209.002 40.5597C209.33 40.4138 209.677 40.3409 210.041 40.3409C210.33 40.3409 210.565 40.3641 210.747 40.4105C210.93 40.4569 211.065 40.5 211.155 40.5398L210.817 41.554C210.757 41.5341 210.674 41.5092 210.568 41.4794C210.466 41.4496 210.33 41.4347 210.161 41.4347C209.773 41.4347 209.493 41.5324 209.32 41.728C209.151 41.9235 209.067 42.2102 209.067 42.5881V51H207.894ZM212.281 51V43.3636H213.455V51H212.281ZM212.878 42.0909C212.649 42.0909 212.452 42.013 212.286 41.8572C212.124 41.7015 212.043 41.5142 212.043 41.2955C212.043 41.0767 212.124 40.8894 212.286 40.7337C212.452 40.5779 212.649 40.5 212.878 40.5C213.107 40.5 213.302 40.5779 213.465 40.7337C213.63 40.8894 213.713 41.0767 213.713 41.2955C213.713 41.5142 213.63 41.7015 213.465 41.8572C213.302 42.013 213.107 42.0909 212.878 42.0909ZM218.785 43.3636V44.358H214.827V43.3636H218.785ZM215.981 41.5341H217.154V48.8125C217.154 49.1439 217.202 49.3925 217.298 49.5582C217.398 49.7206 217.524 49.83 217.676 49.8864C217.832 49.9394 217.996 49.9659 218.168 49.9659C218.298 49.9659 218.404 49.9593 218.486 49.946C218.569 49.9295 218.636 49.9162 218.685 49.9062L218.924 50.9602C218.844 50.9901 218.733 51.0199 218.591 51.0497C218.448 51.0829 218.268 51.0994 218.049 51.0994C217.717 51.0994 217.393 51.0282 217.075 50.8857C216.76 50.7431 216.498 50.526 216.289 50.2344C216.084 49.9427 215.981 49.5748 215.981 49.1307V41.5341ZM222.657 51.179C222.173 51.179 221.734 51.0878 221.339 50.9055C220.945 50.7199 220.632 50.4531 220.4 50.1051C220.168 49.7538 220.052 49.3295 220.052 48.8324C220.052 48.3949 220.138 48.0402 220.31 47.7685C220.483 47.4934 220.713 47.2779 221.001 47.1222C221.29 46.9664 221.608 46.8504 221.956 46.7741C222.307 46.6946 222.66 46.6316 223.015 46.5852C223.479 46.5256 223.855 46.4808 224.143 46.451C224.435 46.4179 224.647 46.3632 224.78 46.2869C224.916 46.2107 224.984 46.0781 224.984 45.8892V45.8494C224.984 45.3589 224.849 44.9777 224.581 44.706C224.316 44.4342 223.913 44.2983 223.373 44.2983C222.813 44.2983 222.373 44.4209 222.055 44.6662C221.737 44.9115 221.513 45.1733 221.384 45.4517L220.27 45.054C220.469 44.59 220.734 44.2287 221.066 43.9702C221.401 43.7083 221.765 43.526 222.16 43.4233C222.557 43.3172 222.948 43.2642 223.333 43.2642C223.578 43.2642 223.86 43.294 224.178 43.3537C224.5 43.41 224.81 43.5277 225.108 43.7067C225.409 43.8857 225.66 44.1558 225.859 44.517C226.057 44.8783 226.157 45.3622 226.157 45.9688V51H224.984V49.9659H224.924C224.844 50.1316 224.712 50.3089 224.526 50.4979C224.341 50.6868 224.094 50.8475 223.785 50.9801C223.477 51.1127 223.101 51.179 222.657 51.179ZM222.836 50.125C223.3 50.125 223.691 50.0339 224.009 49.8516C224.331 49.6693 224.573 49.4339 224.735 49.1456C224.901 48.8572 224.984 48.554 224.984 48.2358V47.1619C224.934 47.2216 224.824 47.2763 224.655 47.326C224.49 47.3724 224.297 47.4138 224.079 47.4503C223.863 47.4834 223.653 47.5133 223.447 47.5398C223.245 47.563 223.081 47.5829 222.955 47.5994C222.65 47.6392 222.365 47.7038 222.1 47.7933C221.838 47.8795 221.626 48.0104 221.464 48.1861C221.305 48.3584 221.225 48.5937 221.225 48.892C221.225 49.2997 221.376 49.608 221.677 49.8168C221.982 50.0223 222.368 50.125 222.836 50.125ZM228.317 51V40.8182H229.491V44.5767H229.59C229.676 44.4441 229.796 44.2751 229.948 44.0696C230.104 43.8608 230.326 43.6752 230.614 43.5128C230.906 43.3471 231.3 43.2642 231.798 43.2642C232.441 43.2642 233.007 43.425 233.498 43.7464C233.988 44.0679 234.371 44.5237 234.646 45.1136C234.921 45.7036 235.059 46.3996 235.059 47.2017C235.059 48.0104 234.921 48.7114 234.646 49.3047C234.371 49.8946 233.99 50.352 233.503 50.6768C233.016 50.9983 232.454 51.1591 231.817 51.1591C231.327 51.1591 230.934 51.0779 230.639 50.9155C230.344 50.7498 230.117 50.5625 229.958 50.3537C229.799 50.1416 229.676 49.9659 229.59 49.8267H229.451V51H228.317ZM229.471 47.1818C229.471 47.7585 229.555 48.2673 229.724 48.7081C229.893 49.1456 230.14 49.4886 230.465 49.7372C230.79 49.9825 231.188 50.1051 231.658 50.1051C232.149 50.1051 232.558 49.9759 232.886 49.7173C233.218 49.4555 233.466 49.1042 233.632 48.6634C233.801 48.2192 233.886 47.7254 233.886 47.1818C233.886 46.6449 233.803 46.161 233.637 45.7301C233.475 45.2959 233.228 44.9529 232.896 44.701C232.568 44.4458 232.155 44.3182 231.658 44.3182C231.181 44.3182 230.78 44.4392 230.455 44.6811C230.13 44.9197 229.885 45.2545 229.719 45.6854C229.554 46.1129 229.471 46.6117 229.471 47.1818ZM236.714 51V43.3636H237.887V51H236.714ZM237.31 42.0909C237.082 42.0909 236.884 42.013 236.719 41.8572C236.556 41.7015 236.475 41.5142 236.475 41.2955C236.475 41.0767 236.556 40.8894 236.719 40.7337C236.884 40.5779 237.082 40.5 237.31 40.5C237.539 40.5 237.734 40.5779 237.897 40.7337C238.063 40.8894 238.145 41.0767 238.145 41.2955C238.145 41.5142 238.063 41.7015 237.897 41.8572C237.734 42.013 237.539 42.0909 237.31 42.0909ZM241.069 40.8182V51H239.896V40.8182H241.069ZM243.078 51V43.3636H244.251V51H243.078ZM243.675 42.0909C243.446 42.0909 243.249 42.013 243.083 41.8572C242.921 41.7015 242.84 41.5142 242.84 41.2955C242.84 41.0767 242.921 40.8894 243.083 40.7337C243.249 40.5779 243.446 40.5 243.675 40.5C243.903 40.5 244.099 40.5779 244.261 40.7337C244.427 40.8894 244.51 41.0767 244.51 41.2955C244.51 41.5142 244.427 41.7015 244.261 41.8572C244.099 42.013 243.903 42.0909 243.675 42.0909ZM249.581 43.3636V44.358H245.624V43.3636H249.581ZM246.777 41.5341H247.951V48.8125C247.951 49.1439 247.999 49.3925 248.095 49.5582C248.194 49.7206 248.32 49.83 248.473 49.8864C248.629 49.9394 248.793 49.9659 248.965 49.9659C249.094 49.9659 249.2 49.9593 249.283 49.946C249.366 49.9295 249.432 49.9162 249.482 49.9062L249.721 50.9602C249.641 50.9901 249.53 51.0199 249.388 51.0497C249.245 51.0829 249.064 51.0994 248.846 51.0994C248.514 51.0994 248.189 51.0282 247.871 50.8857C247.556 50.7431 247.295 50.526 247.086 50.2344C246.88 49.9427 246.777 49.5748 246.777 49.1307V41.5341ZM251.962 53.8636C251.763 53.8636 251.586 53.8471 251.43 53.8139C251.274 53.7841 251.167 53.7543 251.107 53.7244L251.405 52.6903C251.69 52.7633 251.942 52.7898 252.161 52.7699C252.38 52.75 252.574 52.6522 252.743 52.4766C252.915 52.3042 253.072 52.0241 253.215 51.6364L253.434 51.0398L250.61 43.3636H251.883L253.99 49.4489H254.07L256.178 43.3636H257.451L254.209 52.1136C254.063 52.508 253.883 52.8345 253.667 53.093C253.452 53.3549 253.202 53.5488 252.917 53.6747C252.635 53.8007 252.317 53.8636 251.962 53.8636ZM264.904 51.179C264.42 51.179 263.981 51.0878 263.587 50.9055C263.192 50.7199 262.879 50.4531 262.647 50.1051C262.415 49.7538 262.299 49.3295 262.299 48.8324C262.299 48.3949 262.385 48.0402 262.557 47.7685C262.73 47.4934 262.96 47.2779 263.248 47.1222C263.537 46.9664 263.855 46.8504 264.203 46.7741C264.554 46.6946 264.907 46.6316 265.262 46.5852C265.726 46.5256 266.102 46.4808 266.39 46.451C266.682 46.4179 266.894 46.3632 267.027 46.2869C267.163 46.2107 267.231 46.0781 267.231 45.8892V45.8494C267.231 45.3589 267.096 44.9777 266.828 44.706C266.563 44.4342 266.16 44.2983 265.62 44.2983C265.06 44.2983 264.621 44.4209 264.302 44.6662C263.984 44.9115 263.761 45.1733 263.631 45.4517L262.518 45.054C262.716 44.59 262.982 44.2287 263.313 43.9702C263.648 43.7083 264.012 43.526 264.407 43.4233C264.805 43.3172 265.196 43.2642 265.58 43.2642C265.825 43.2642 266.107 43.294 266.425 43.3537C266.747 43.41 267.057 43.5277 267.355 43.7067C267.657 43.8857 267.907 44.1558 268.106 44.517C268.305 44.8783 268.404 45.3622 268.404 45.9688V51H267.231V49.9659H267.171C267.091 50.1316 266.959 50.3089 266.773 50.4979C266.588 50.6868 266.341 50.8475 266.033 50.9801C265.724 51.1127 265.348 51.179 264.904 51.179ZM265.083 50.125C265.547 50.125 265.938 50.0339 266.256 49.8516C266.578 49.6693 266.82 49.4339 266.982 49.1456C267.148 48.8572 267.231 48.554 267.231 48.2358V47.1619C267.181 47.2216 267.072 47.2763 266.903 47.326C266.737 47.3724 266.545 47.4138 266.326 47.4503C266.11 47.4834 265.9 47.5133 265.694 47.5398C265.492 47.563 265.328 47.5829 265.202 47.5994C264.897 47.6392 264.612 47.7038 264.347 47.7933C264.085 47.8795 263.873 48.0104 263.711 48.1861C263.552 48.3584 263.472 48.5937 263.472 48.892C263.472 49.2997 263.623 49.608 263.925 49.8168C264.23 50.0223 264.616 50.125 265.083 50.125ZM273.508 51.1591C272.792 51.1591 272.175 50.9901 271.658 50.652C271.141 50.3139 270.744 49.8482 270.465 49.255C270.187 48.6617 270.048 47.9839 270.048 47.2216C270.048 46.446 270.19 45.7616 270.475 45.1683C270.763 44.5717 271.164 44.1061 271.678 43.7713C272.195 43.4332 272.798 43.2642 273.488 43.2642C274.025 43.2642 274.509 43.3636 274.94 43.5625C275.37 43.7614 275.723 44.0398 275.999 44.3977C276.274 44.7557 276.444 45.1733 276.511 45.6506H275.337C275.248 45.3026 275.049 44.9943 274.741 44.7259C274.436 44.4541 274.025 44.3182 273.508 44.3182C273.05 44.3182 272.649 44.4375 272.305 44.6761C271.963 44.9115 271.696 45.2446 271.504 45.6754C271.315 46.103 271.221 46.6051 271.221 47.1818C271.221 47.7718 271.314 48.2855 271.499 48.723C271.688 49.1605 271.953 49.5002 272.295 49.7422C272.639 49.9841 273.044 50.1051 273.508 50.1051C273.813 50.1051 274.089 50.0521 274.338 49.946C274.587 49.84 274.797 49.6875 274.969 49.4886C275.142 49.2898 275.264 49.0511 275.337 48.7727H276.511C276.444 49.2235 276.28 49.6295 276.018 49.9908C275.76 50.3487 275.417 50.6338 274.989 50.8459C274.565 51.0547 274.071 51.1591 273.508 51.1591ZM278.086 51V43.3636H279.219V44.517H279.299C279.438 44.1392 279.69 43.8326 280.055 43.5973C280.419 43.362 280.83 43.2443 281.288 43.2443C281.374 43.2443 281.481 43.246 281.611 43.2493C281.74 43.2526 281.838 43.2576 281.904 43.2642V44.4574C281.864 44.4474 281.773 44.4325 281.631 44.4126C281.491 44.3894 281.344 44.3778 281.188 44.3778C280.817 44.3778 280.485 44.4557 280.194 44.6115C279.905 44.764 279.677 44.9761 279.508 45.2479C279.342 45.5163 279.259 45.8229 279.259 46.1676V51H278.086ZM286.025 51.1591C285.335 51.1591 284.73 50.995 284.21 50.6669C283.693 50.3388 283.289 49.8797 282.997 49.2898C282.709 48.6998 282.564 48.0104 282.564 47.2216C282.564 46.4261 282.709 45.7318 282.997 45.1385C283.289 44.5452 283.693 44.0845 284.21 43.7564C284.73 43.4283 285.335 43.2642 286.025 43.2642C286.714 43.2642 287.317 43.4283 287.834 43.7564C288.355 44.0845 288.759 44.5452 289.047 45.1385C289.339 45.7318 289.485 46.4261 289.485 47.2216C289.485 48.0104 289.339 48.6998 289.047 49.2898C288.759 49.8797 288.355 50.3388 287.834 50.6669C287.317 50.995 286.714 51.1591 286.025 51.1591ZM286.025 50.1051C286.548 50.1051 286.979 49.9709 287.317 49.7024C287.655 49.4339 287.906 49.081 288.068 48.6435C288.23 48.206 288.312 47.732 288.312 47.2216C288.312 46.7112 288.23 46.2356 288.068 45.7947C287.906 45.3539 287.655 44.9976 287.317 44.7259C286.979 44.4541 286.548 44.3182 286.025 44.3182C285.501 44.3182 285.07 44.4541 284.732 44.7259C284.394 44.9976 284.144 45.3539 283.981 45.7947C283.819 46.2356 283.738 46.7112 283.738 47.2216C283.738 47.732 283.819 48.206 283.981 48.6435C284.144 49.081 284.394 49.4339 284.732 49.7024C285.07 49.9709 285.501 50.1051 286.025 50.1051ZM296.545 45.0739L295.491 45.3722C295.425 45.1965 295.327 45.0258 295.198 44.8601C295.072 44.6911 294.899 44.5518 294.681 44.4425C294.462 44.3331 294.182 44.2784 293.84 44.2784C293.373 44.2784 292.984 44.3861 292.672 44.6016C292.364 44.8137 292.21 45.0838 292.21 45.4119C292.21 45.7036 292.316 45.9339 292.528 46.103C292.74 46.272 293.072 46.4129 293.522 46.5256L294.656 46.804C295.339 46.9697 295.847 47.2232 296.182 47.5646C296.517 47.9027 296.684 48.3385 296.684 48.8722C296.684 49.3097 296.558 49.7008 296.306 50.0455C296.058 50.3902 295.71 50.6619 295.262 50.8608C294.815 51.0597 294.295 51.1591 293.701 51.1591C292.922 51.1591 292.278 50.9901 291.767 50.652C291.257 50.3139 290.934 49.8201 290.798 49.1705L291.911 48.892C292.018 49.303 292.218 49.6113 292.513 49.8168C292.811 50.0223 293.201 50.125 293.681 50.125C294.228 50.125 294.662 50.009 294.984 49.777C295.309 49.5417 295.471 49.2599 295.471 48.9318C295.471 48.6667 295.378 48.4446 295.193 48.2656C295.007 48.0833 294.722 47.9474 294.338 47.858L293.065 47.5597C292.366 47.3939 291.852 47.1371 291.524 46.7891C291.199 46.4377 291.036 45.9986 291.036 45.4716C291.036 45.0407 291.157 44.6596 291.399 44.3281C291.645 43.9967 291.978 43.7365 292.399 43.5476C292.823 43.3587 293.304 43.2642 293.84 43.2642C294.596 43.2642 295.189 43.4299 295.62 43.7614C296.054 44.0928 296.363 44.5303 296.545 45.0739ZM303.719 45.0739L302.665 45.3722C302.599 45.1965 302.501 45.0258 302.372 44.8601C302.246 44.6911 302.074 44.5518 301.855 44.4425C301.636 44.3331 301.356 44.2784 301.015 44.2784C300.548 44.2784 300.158 44.3861 299.847 44.6016C299.538 44.8137 299.384 45.0838 299.384 45.4119C299.384 45.7036 299.49 45.9339 299.702 46.103C299.915 46.272 300.246 46.4129 300.697 46.5256L301.83 46.804C302.513 46.9697 303.022 47.2232 303.357 47.5646C303.691 47.9027 303.859 48.3385 303.859 48.8722C303.859 49.3097 303.733 49.7008 303.481 50.0455C303.232 50.3902 302.884 50.6619 302.437 50.8608C301.989 51.0597 301.469 51.1591 300.876 51.1591C300.097 51.1591 299.452 50.9901 298.942 50.652C298.431 50.3139 298.108 49.8201 297.972 49.1705L299.086 48.892C299.192 49.303 299.392 49.6113 299.687 49.8168C299.986 50.0223 300.375 50.125 300.856 50.125C301.403 50.125 301.837 50.009 302.158 49.777C302.483 49.5417 302.646 49.2599 302.646 48.9318C302.646 48.6667 302.553 48.4446 302.367 48.2656C302.182 48.0833 301.897 47.9474 301.512 47.858L300.239 47.5597C299.54 47.3939 299.026 47.1371 298.698 46.7891C298.373 46.4377 298.211 45.9986 298.211 45.4716C298.211 45.0407 298.332 44.6596 298.574 44.3281C298.819 43.9967 299.152 43.7365 299.573 43.5476C299.997 43.3587 300.478 43.2642 301.015 43.2642C301.771 43.2642 302.364 43.4299 302.795 43.7614C303.229 44.0928 303.537 44.5303 303.719 45.0739ZM314.691 45.0739L313.637 45.3722C313.571 45.1965 313.473 45.0258 313.344 44.8601C313.218 44.6911 313.046 44.5518 312.827 44.4425C312.608 44.3331 312.328 44.2784 311.987 44.2784C311.52 44.2784 311.13 44.3861 310.819 44.6016C310.51 44.8137 310.356 45.0838 310.356 45.4119C310.356 45.7036 310.462 45.9339 310.674 46.103C310.886 46.272 311.218 46.4129 311.669 46.5256L312.802 46.804C313.485 46.9697 313.994 47.2232 314.328 47.5646C314.663 47.9027 314.831 48.3385 314.831 48.8722C314.831 49.3097 314.705 49.7008 314.453 50.0455C314.204 50.3902 313.856 50.6619 313.409 50.8608C312.961 51.0597 312.441 51.1591 311.848 51.1591C311.069 51.1591 310.424 50.9901 309.914 50.652C309.403 50.3139 309.08 49.8201 308.944 49.1705L310.058 48.892C310.164 49.303 310.364 49.6113 310.659 49.8168C310.958 50.0223 311.347 50.125 311.828 50.125C312.375 50.125 312.809 50.009 313.13 49.777C313.455 49.5417 313.618 49.2599 313.618 48.9318C313.618 48.6667 313.525 48.4446 313.339 48.2656C313.154 48.0833 312.868 47.9474 312.484 47.858L311.211 47.5597C310.512 47.3939 309.998 47.1371 309.67 46.7891C309.345 46.4377 309.183 45.9986 309.183 45.4716C309.183 45.0407 309.304 44.6596 309.546 44.3281C309.791 43.9967 310.124 43.7365 310.545 43.5476C310.969 43.3587 311.45 43.2642 311.987 43.2642C312.743 43.2642 313.336 43.4299 313.767 43.7614C314.201 44.0928 314.509 44.5303 314.691 45.0739ZM318.704 51.179C318.22 51.179 317.781 51.0878 317.386 50.9055C316.992 50.7199 316.679 50.4531 316.447 50.1051C316.215 49.7538 316.099 49.3295 316.099 48.8324C316.099 48.3949 316.185 48.0402 316.357 47.7685C316.53 47.4934 316.76 47.2779 317.048 47.1222C317.337 46.9664 317.655 46.8504 318.003 46.7741C318.354 46.6946 318.707 46.6316 319.062 46.5852C319.526 46.5256 319.902 46.4808 320.19 46.451C320.482 46.4179 320.694 46.3632 320.827 46.2869C320.963 46.2107 321.031 46.0781 321.031 45.8892V45.8494C321.031 45.3589 320.896 44.9777 320.628 44.706C320.363 44.4342 319.96 44.2983 319.42 44.2983C318.86 44.2983 318.421 44.4209 318.102 44.6662C317.784 44.9115 317.56 45.1733 317.431 45.4517L316.318 45.054C316.516 44.59 316.782 44.2287 317.113 43.9702C317.448 43.7083 317.812 43.526 318.207 43.4233C318.604 43.3172 318.996 43.2642 319.38 43.2642C319.625 43.2642 319.907 43.294 320.225 43.3537C320.547 43.41 320.857 43.5277 321.155 43.7067C321.457 43.8857 321.707 44.1558 321.906 44.517C322.104 44.8783 322.204 45.3622 322.204 45.9688V51H321.031V49.9659H320.971C320.891 50.1316 320.759 50.3089 320.573 50.4979C320.388 50.6868 320.141 50.8475 319.832 50.9801C319.524 51.1127 319.148 51.179 318.704 51.179ZM318.883 50.125C319.347 50.125 319.738 50.0339 320.056 49.8516C320.378 49.6693 320.62 49.4339 320.782 49.1456C320.948 48.8572 321.031 48.554 321.031 48.2358V47.1619C320.981 47.2216 320.872 47.2763 320.703 47.326C320.537 47.3724 320.345 47.4138 320.126 47.4503C319.91 47.4834 319.7 47.5133 319.494 47.5398C319.292 47.563 319.128 47.5829 319.002 47.5994C318.697 47.6392 318.412 47.7038 318.147 47.7933C317.885 47.8795 317.673 48.0104 317.511 48.1861C317.352 48.3584 317.272 48.5937 317.272 48.892C317.272 49.2997 317.423 49.608 317.725 49.8168C318.029 50.0223 318.416 50.125 318.883 50.125ZM324.205 51V43.3636H325.339V44.5568H325.438C325.597 44.1491 325.854 43.8326 326.209 43.6072C326.564 43.3786 326.99 43.2642 327.487 43.2642C327.99 43.2642 328.41 43.3786 328.744 43.6072C329.083 43.8326 329.346 44.1491 329.535 44.5568H329.615C329.81 44.1624 330.103 43.8492 330.494 43.6172C330.886 43.3819 331.355 43.2642 331.901 43.2642C332.584 43.2642 333.143 43.478 333.577 43.9055C334.011 44.3298 334.228 44.991 334.228 45.8892V51H333.055V45.8892C333.055 45.3258 332.901 44.9231 332.592 44.6811C332.284 44.4392 331.921 44.3182 331.504 44.3182C330.967 44.3182 330.551 44.4806 330.256 44.8054C329.961 45.1269 329.813 45.5346 329.813 46.0284V51H328.62V45.7699C328.62 45.3357 328.479 44.986 328.198 44.7209C327.916 44.4524 327.553 44.3182 327.109 44.3182C326.804 44.3182 326.519 44.3994 326.254 44.5618C325.992 44.7242 325.78 44.9496 325.617 45.2379C325.458 45.523 325.379 45.8527 325.379 46.2273V51H324.205ZM336.233 53.8636V43.3636H337.367V44.5767H337.506C337.592 44.4441 337.712 44.2751 337.864 44.0696C338.02 43.8608 338.242 43.6752 338.53 43.5128C338.822 43.3471 339.216 43.2642 339.714 43.2642C340.357 43.2642 340.923 43.425 341.414 43.7464C341.904 44.0679 342.287 44.5237 342.562 45.1136C342.837 45.7036 342.975 46.3996 342.975 47.2017C342.975 48.0104 342.837 48.7114 342.562 49.3047C342.287 49.8946 341.906 50.352 341.419 50.6768C340.932 50.9983 340.37 51.1591 339.733 51.1591C339.243 51.1591 338.85 51.0779 338.555 50.9155C338.26 50.7498 338.033 50.5625 337.874 50.3537C337.715 50.1416 337.592 49.9659 337.506 49.8267H337.407V53.8636H336.233ZM337.387 47.1818C337.387 47.7585 337.471 48.2673 337.64 48.7081C337.809 49.1456 338.056 49.4886 338.381 49.7372C338.706 49.9825 339.104 50.1051 339.574 50.1051C340.065 50.1051 340.474 49.9759 340.802 49.7173C341.134 49.4555 341.382 49.1042 341.548 48.6634C341.717 48.2192 341.802 47.7254 341.802 47.1818C341.802 46.6449 341.719 46.161 341.553 45.7301C341.391 45.2959 341.144 44.9529 340.812 44.701C340.484 44.4458 340.071 44.3182 339.574 44.3182C339.097 44.3182 338.696 44.4392 338.371 44.6811C338.046 44.9197 337.801 45.2545 337.635 45.6854C337.47 46.1129 337.387 46.6117 337.387 47.1818ZM345.798 40.8182V51H344.625V40.8182H345.798ZM351.009 51.1591C350.273 51.1591 349.638 50.9967 349.104 50.6719C348.574 50.3438 348.165 49.8864 347.876 49.2997C347.591 48.7098 347.449 48.0237 347.449 47.2415C347.449 46.4593 347.591 45.7699 347.876 45.1733C348.165 44.5734 348.566 44.1061 349.08 43.7713C349.597 43.4332 350.2 43.2642 350.889 43.2642C351.287 43.2642 351.68 43.3305 352.068 43.4631C352.455 43.5956 352.808 43.8111 353.126 44.1094C353.445 44.4044 353.698 44.7955 353.887 45.2827C354.076 45.7699 354.171 46.3698 354.171 47.0824V47.5795H348.284V46.5653H352.977C352.977 46.1345 352.891 45.75 352.719 45.4119C352.55 45.0739 352.308 44.8071 351.993 44.6115C351.681 44.416 351.314 44.3182 350.889 44.3182C350.422 44.3182 350.018 44.4342 349.676 44.6662C349.338 44.8949 349.078 45.1932 348.896 45.5611C348.713 45.929 348.622 46.3234 348.622 46.7443V47.4205C348.622 47.9972 348.722 48.486 348.921 48.8871C349.123 49.2848 349.403 49.5881 349.761 49.7969C350.119 50.0024 350.535 50.1051 351.009 50.1051C351.317 50.1051 351.595 50.062 351.844 49.9759C352.096 49.8864 352.313 49.7538 352.495 49.5781C352.677 49.3991 352.818 49.1771 352.918 48.9119L354.051 49.2301C353.932 49.6146 353.731 49.9527 353.45 50.2443C353.168 50.5327 352.82 50.758 352.406 50.9205C351.991 51.0795 351.526 51.1591 351.009 51.1591Z" fill="#5C697C"/>
<path d="M355.202 260.455C355.151 260.023 354.943 259.688 354.58 259.449C354.216 259.21 353.77 259.091 353.242 259.091C352.855 259.091 352.517 259.153 352.227 259.278C351.941 259.403 351.716 259.575 351.554 259.794C351.395 260.013 351.316 260.261 351.316 260.54C351.316 260.773 351.371 260.973 351.482 261.141C351.595 261.305 351.74 261.443 351.916 261.554C352.093 261.662 352.277 261.751 352.47 261.822C352.664 261.891 352.841 261.946 353.003 261.989L353.889 262.227C354.117 262.287 354.37 262.369 354.648 262.474C354.929 262.58 355.198 262.723 355.453 262.905C355.712 263.084 355.925 263.314 356.093 263.595C356.26 263.876 356.344 264.222 356.344 264.631C356.344 265.102 356.22 265.528 355.973 265.909C355.729 266.29 355.371 266.592 354.899 266.817C354.431 267.041 353.861 267.153 353.191 267.153C352.566 267.153 352.024 267.053 351.567 266.851C351.112 266.649 350.754 266.368 350.493 266.007C350.235 265.646 350.088 265.227 350.054 264.75H351.145C351.173 265.08 351.284 265.352 351.477 265.568C351.673 265.781 351.921 265.94 352.219 266.045C352.52 266.148 352.844 266.199 353.191 266.199C353.594 266.199 353.956 266.134 354.277 266.003C354.598 265.869 354.852 265.685 355.04 265.449C355.227 265.21 355.321 264.932 355.321 264.614C355.321 264.324 355.24 264.088 355.078 263.906C354.916 263.724 354.703 263.577 354.439 263.463C354.175 263.349 353.889 263.25 353.583 263.165L352.509 262.858C351.827 262.662 351.287 262.382 350.889 262.018C350.492 261.655 350.293 261.179 350.293 260.591C350.293 260.102 350.425 259.676 350.689 259.312C350.956 258.946 351.314 258.662 351.763 258.46C352.215 258.256 352.719 258.153 353.276 258.153C353.838 258.153 354.338 258.254 354.776 258.456C355.213 258.655 355.56 258.928 355.816 259.274C356.074 259.621 356.21 260.014 356.225 260.455H355.202ZM359.751 267.153C359.337 267.153 358.96 267.075 358.622 266.919C358.284 266.76 358.015 266.531 357.817 266.233C357.618 265.932 357.518 265.568 357.518 265.142C357.518 264.767 357.592 264.463 357.74 264.23C357.888 263.994 358.085 263.81 358.332 263.676C358.579 263.543 358.852 263.443 359.15 263.378C359.452 263.31 359.754 263.256 360.058 263.216C360.456 263.165 360.778 263.126 361.025 263.101C361.275 263.072 361.457 263.026 361.571 262.96C361.687 262.895 361.746 262.781 361.746 262.619V262.585C361.746 262.165 361.631 261.838 361.4 261.605C361.173 261.372 360.828 261.256 360.365 261.256C359.885 261.256 359.508 261.361 359.236 261.571C358.963 261.781 358.771 262.006 358.66 262.244L357.706 261.903C357.876 261.506 358.104 261.196 358.388 260.974C358.675 260.75 358.987 260.594 359.325 260.506C359.666 260.415 360.001 260.369 360.331 260.369C360.541 260.369 360.783 260.395 361.055 260.446C361.331 260.494 361.596 260.595 361.852 260.749C362.111 260.902 362.325 261.134 362.496 261.443C362.666 261.753 362.751 262.168 362.751 262.688V267H361.746V266.114H361.694C361.626 266.256 361.513 266.408 361.354 266.57C361.194 266.732 360.983 266.869 360.719 266.983C360.454 267.097 360.132 267.153 359.751 267.153ZM359.905 266.25C360.302 266.25 360.638 266.172 360.91 266.016C361.186 265.859 361.393 265.658 361.533 265.411C361.675 265.163 361.746 264.903 361.746 264.631V263.71C361.703 263.761 361.609 263.808 361.464 263.851C361.322 263.891 361.158 263.926 360.97 263.957C360.785 263.986 360.605 264.011 360.429 264.034C360.256 264.054 360.115 264.071 360.007 264.085C359.746 264.119 359.501 264.175 359.274 264.251C359.05 264.325 358.868 264.437 358.729 264.588C358.592 264.736 358.524 264.937 358.524 265.193C358.524 265.543 358.653 265.807 358.912 265.986C359.173 266.162 359.504 266.25 359.905 266.25ZM365.473 258.273V267H364.467V258.273H365.473ZM369.939 267.136C369.308 267.136 368.764 266.997 368.307 266.719C367.852 266.438 367.501 266.045 367.254 265.543C367.01 265.037 366.888 264.449 366.888 263.778C366.888 263.108 367.01 262.517 367.254 262.006C367.501 261.491 367.845 261.091 368.285 260.804C368.729 260.514 369.246 260.369 369.837 260.369C370.177 260.369 370.514 260.426 370.846 260.54C371.179 260.653 371.481 260.838 371.754 261.094C372.027 261.347 372.244 261.682 372.406 262.099C372.568 262.517 372.649 263.031 372.649 263.642V264.068H367.604V263.199H371.626C371.626 262.83 371.552 262.5 371.405 262.21C371.26 261.92 371.052 261.692 370.783 261.524C370.516 261.357 370.2 261.273 369.837 261.273C369.436 261.273 369.089 261.372 368.797 261.571C368.507 261.767 368.284 262.023 368.128 262.338C367.971 262.653 367.893 262.991 367.893 263.352V263.932C367.893 264.426 367.979 264.845 368.149 265.189C368.322 265.53 368.562 265.79 368.869 265.969C369.176 266.145 369.533 266.233 369.939 266.233C370.203 266.233 370.442 266.196 370.655 266.122C370.871 266.045 371.057 265.932 371.213 265.781C371.369 265.628 371.49 265.437 371.575 265.21L372.547 265.483C372.445 265.812 372.273 266.102 372.031 266.352C371.79 266.599 371.491 266.793 371.136 266.932C370.781 267.068 370.382 267.136 369.939 267.136ZM378.695 261.92L377.792 262.176C377.735 262.026 377.651 261.879 377.54 261.737C377.432 261.592 377.285 261.473 377.097 261.379C376.91 261.286 376.67 261.239 376.377 261.239C375.976 261.239 375.643 261.331 375.376 261.516C375.111 261.697 374.979 261.929 374.979 262.21C374.979 262.46 375.07 262.658 375.252 262.803C375.434 262.947 375.718 263.068 376.104 263.165L377.076 263.403C377.661 263.545 378.097 263.763 378.384 264.055C378.671 264.345 378.815 264.719 378.815 265.176C378.815 265.551 378.707 265.886 378.491 266.182C378.278 266.477 377.979 266.71 377.596 266.881C377.212 267.051 376.766 267.136 376.258 267.136C375.59 267.136 375.038 266.991 374.6 266.702C374.163 266.412 373.886 265.989 373.769 265.432L374.724 265.193C374.815 265.545 374.986 265.81 375.239 265.986C375.495 266.162 375.829 266.25 376.241 266.25C376.709 266.25 377.082 266.151 377.357 265.952C377.636 265.75 377.775 265.509 377.775 265.227C377.775 265 377.695 264.81 377.536 264.656C377.377 264.5 377.133 264.384 376.803 264.307L375.712 264.051C375.113 263.909 374.673 263.689 374.391 263.391C374.113 263.089 373.974 262.713 373.974 262.261C373.974 261.892 374.077 261.565 374.285 261.281C374.495 260.997 374.78 260.774 375.141 260.612C375.505 260.45 375.917 260.369 376.377 260.369C377.025 260.369 377.533 260.511 377.903 260.795C378.275 261.08 378.539 261.455 378.695 261.92ZM385.935 267.136C385.39 267.136 384.908 266.999 384.49 266.723C384.073 266.445 383.746 266.053 383.51 265.547C383.275 265.038 383.157 264.438 383.157 263.744C383.157 263.057 383.275 262.46 383.51 261.955C383.746 261.449 384.074 261.058 384.495 260.783C384.915 260.507 385.401 260.369 385.952 260.369C386.378 260.369 386.715 260.44 386.962 260.582C387.212 260.722 387.402 260.881 387.533 261.06C387.667 261.236 387.77 261.381 387.844 261.494H387.929V258.273H388.935V267H387.963V265.994H387.844C387.77 266.114 387.665 266.264 387.529 266.446C387.392 266.625 387.198 266.786 386.945 266.928C386.692 267.067 386.355 267.136 385.935 267.136ZM386.071 266.233C386.475 266.233 386.816 266.128 387.094 265.918C387.373 265.705 387.584 265.411 387.729 265.036C387.874 264.658 387.946 264.222 387.946 263.727C387.946 263.239 387.875 262.811 387.733 262.445C387.591 262.075 387.381 261.788 387.103 261.584C386.824 261.376 386.48 261.273 386.071 261.273C385.645 261.273 385.29 261.382 385.006 261.601C384.725 261.817 384.513 262.111 384.371 262.483C384.232 262.852 384.162 263.267 384.162 263.727C384.162 264.193 384.233 264.616 384.375 264.997C384.52 265.375 384.733 265.676 385.015 265.901C385.299 266.122 385.651 266.233 386.071 266.233ZM393.456 267.136C392.865 267.136 392.346 266.996 391.9 266.714C391.457 266.433 391.11 266.04 390.86 265.534C390.613 265.028 390.49 264.437 390.49 263.761C390.49 263.08 390.613 262.484 390.86 261.976C391.11 261.467 391.457 261.072 391.9 260.791C392.346 260.51 392.865 260.369 393.456 260.369C394.047 260.369 394.564 260.51 395.007 260.791C395.453 261.072 395.799 261.467 396.047 261.976C396.297 262.484 396.422 263.08 396.422 263.761C396.422 264.437 396.297 265.028 396.047 265.534C395.799 266.04 395.453 266.433 395.007 266.714C394.564 266.996 394.047 267.136 393.456 267.136ZM393.456 266.233C393.905 266.233 394.274 266.118 394.564 265.888C394.853 265.658 395.068 265.355 395.207 264.98C395.346 264.605 395.416 264.199 395.416 263.761C395.416 263.324 395.346 262.916 395.207 262.538C395.068 262.161 394.853 261.855 394.564 261.622C394.274 261.389 393.905 261.273 393.456 261.273C393.007 261.273 392.637 261.389 392.348 261.622C392.058 261.855 391.843 262.161 391.704 262.538C391.565 262.916 391.495 263.324 391.495 263.761C391.495 264.199 391.565 264.605 391.704 264.98C391.843 265.355 392.058 265.658 392.348 265.888C392.637 266.118 393.007 266.233 393.456 266.233ZM398.842 258.273V267H397.837V258.273H398.842ZM401.57 258.273V267H400.564V258.273H401.57ZM405.218 267.153C404.803 267.153 404.427 267.075 404.089 266.919C403.751 266.76 403.482 266.531 403.283 266.233C403.085 265.932 402.985 265.568 402.985 265.142C402.985 264.767 403.059 264.463 403.207 264.23C403.355 263.994 403.552 263.81 403.799 263.676C404.046 263.543 404.319 263.443 404.617 263.378C404.918 263.31 405.221 263.256 405.525 263.216C405.923 263.165 406.245 263.126 406.492 263.101C406.742 263.072 406.924 263.026 407.038 262.96C407.154 262.895 407.212 262.781 407.212 262.619V262.585C407.212 262.165 407.097 261.838 406.867 261.605C406.64 261.372 406.295 261.256 405.832 261.256C405.352 261.256 404.975 261.361 404.703 261.571C404.43 261.781 404.238 262.006 404.127 262.244L403.173 261.903C403.343 261.506 403.57 261.196 403.855 260.974C404.141 260.75 404.454 260.594 404.792 260.506C405.133 260.415 405.468 260.369 405.798 260.369C406.008 260.369 406.249 260.395 406.522 260.446C406.798 260.494 407.063 260.595 407.319 260.749C407.578 260.902 407.792 261.134 407.962 261.443C408.133 261.753 408.218 262.168 408.218 262.688V267H407.212V266.114H407.161C407.093 266.256 406.98 266.408 406.82 266.57C406.661 266.732 406.45 266.869 406.185 266.983C405.921 267.097 405.599 267.153 405.218 267.153ZM405.372 266.25C405.769 266.25 406.105 266.172 406.377 266.016C406.653 265.859 406.86 265.658 406.999 265.411C407.141 265.163 407.212 264.903 407.212 264.631V263.71C407.17 263.761 407.076 263.808 406.931 263.851C406.789 263.891 406.624 263.926 406.437 263.957C406.252 263.986 406.072 264.011 405.896 264.034C405.722 264.054 405.582 264.071 405.474 264.085C405.212 264.119 404.968 264.175 404.741 264.251C404.516 264.325 404.335 264.437 404.195 264.588C404.059 264.736 403.991 264.937 403.991 265.193C403.991 265.543 404.12 265.807 404.379 265.986C404.64 266.162 404.971 266.25 405.372 266.25ZM409.934 267V260.455H410.905V261.443H410.974C411.093 261.119 411.309 260.857 411.621 260.655C411.934 260.453 412.286 260.352 412.678 260.352C412.752 260.352 412.844 260.354 412.955 260.357C413.066 260.359 413.15 260.364 413.206 260.369V261.392C413.172 261.384 413.094 261.371 412.972 261.354C412.853 261.334 412.726 261.324 412.593 261.324C412.275 261.324 411.991 261.391 411.741 261.524C411.493 261.655 411.297 261.837 411.152 262.07C411.01 262.3 410.939 262.562 410.939 262.858V267H409.934ZM418.915 261.92L418.012 262.176C417.955 262.026 417.871 261.879 417.76 261.737C417.652 261.592 417.504 261.473 417.317 261.379C417.129 261.286 416.889 261.239 416.597 261.239C416.196 261.239 415.862 261.331 415.595 261.516C415.331 261.697 415.199 261.929 415.199 262.21C415.199 262.46 415.29 262.658 415.472 262.803C415.654 262.947 415.938 263.068 416.324 263.165L417.296 263.403C417.881 263.545 418.317 263.763 418.604 264.055C418.891 264.345 419.034 264.719 419.034 265.176C419.034 265.551 418.926 265.886 418.71 266.182C418.497 266.477 418.199 266.71 417.816 266.881C417.432 267.051 416.986 267.136 416.477 267.136C415.81 267.136 415.257 266.991 414.82 266.702C414.382 266.412 414.105 265.989 413.989 265.432L414.943 265.193C415.034 265.545 415.206 265.81 415.459 265.986C415.715 266.162 416.048 266.25 416.46 266.25C416.929 266.25 417.301 266.151 417.577 265.952C417.855 265.75 417.994 265.509 417.994 265.227C417.994 265 417.915 264.81 417.756 264.656C417.597 264.5 417.352 264.384 417.023 264.307L415.932 264.051C415.333 263.909 414.892 263.689 414.611 263.391C414.333 263.089 414.193 262.713 414.193 262.261C414.193 261.892 414.297 261.565 414.504 261.281C414.715 260.997 415 260.774 415.361 260.612C415.725 260.45 416.137 260.369 416.597 260.369C417.244 260.369 417.753 260.511 418.122 260.795C418.494 261.08 418.759 261.455 418.915 261.92Z" fill="#262B38"/>
<path d="M26 164.43H17.2727V161.481C17.2727 160.797 17.3963 160.237 17.6435 159.802C17.8878 159.365 18.2188 159.041 18.6364 158.831C19.054 158.621 19.5199 158.516 20.0341 158.516C20.5483 158.516 21.0156 158.621 21.4361 158.831C21.8565 159.038 22.1918 159.359 22.4418 159.794C22.6889 160.229 22.8125 160.785 22.8125 161.464V163.578H21.875V161.498C21.875 161.03 21.794 160.653 21.6321 160.369C21.4702 160.085 21.2514 159.879 20.9759 159.751C20.6974 159.621 20.3835 159.555 20.0341 159.555C19.6847 159.555 19.3722 159.621 19.0966 159.751C18.821 159.879 18.6051 160.087 18.4489 160.373C18.2898 160.66 18.2102 161.041 18.2102 161.516V163.373H26V164.43ZM26 157.069H19.4545V156.098H20.4432V156.03C20.1193 155.91 19.8565 155.694 19.6548 155.382C19.4531 155.069 19.3523 154.717 19.3523 154.325C19.3523 154.251 19.3537 154.159 19.3565 154.048C19.3594 153.937 19.3636 153.854 19.3693 153.797H20.392C20.3835 153.831 20.3707 153.909 20.3537 154.031C20.3338 154.15 20.3239 154.277 20.3239 154.41C20.3239 154.729 20.3906 155.013 20.5241 155.263C20.6548 155.51 20.8366 155.706 21.0696 155.851C21.2997 155.993 21.5625 156.064 21.858 156.064H26V157.069ZM26.1364 150.265C26.1364 150.856 25.9957 151.374 25.7145 151.82C25.4332 152.263 25.0398 152.61 24.5341 152.86C24.0284 153.107 23.4375 153.231 22.7614 153.231C22.0795 153.231 21.4844 153.107 20.9759 152.86C20.4673 152.61 20.0724 152.263 19.7912 151.82C19.5099 151.374 19.3693 150.856 19.3693 150.265C19.3693 149.674 19.5099 149.157 19.7912 148.714C20.0724 148.268 20.4673 147.921 20.9759 147.674C21.4844 147.424 22.0795 147.299 22.7614 147.299C23.4375 147.299 24.0284 147.424 24.5341 147.674C25.0398 147.921 25.4332 148.268 25.7145 148.714C25.9957 149.157 26.1364 149.674 26.1364 150.265ZM25.233 150.265C25.233 149.816 25.1179 149.447 24.8878 149.157C24.6577 148.867 24.3551 148.653 23.9801 148.513C23.6051 148.374 23.1989 148.305 22.7614 148.305C22.3239 148.305 21.9162 148.374 21.5384 148.513C21.1605 148.653 20.8551 148.867 20.6222 149.157C20.3892 149.447 20.2727 149.816 20.2727 150.265C20.2727 150.714 20.3892 151.083 20.6222 151.373C20.8551 151.662 21.1605 151.877 21.5384 152.016C21.9162 152.155 22.3239 152.225 22.7614 152.225C23.1989 152.225 23.6051 152.155 23.9801 152.016C24.3551 151.877 24.6577 151.662 24.8878 151.373C25.1179 151.083 25.233 150.714 25.233 150.265ZM19.4545 142.969H20.3068L20.3068 146.497H19.4545L19.4545 142.969ZM26 145.441H18.5511C18.1761 145.441 17.8636 145.352 17.6136 145.176C17.3636 145 17.1761 144.771 17.0511 144.49C16.9261 144.209 16.8636 143.912 16.8636 143.6C16.8636 143.352 16.8835 143.151 16.9233 142.994C16.9631 142.838 17 142.722 17.0341 142.645L17.9034 142.935C17.8864 142.986 17.8651 143.057 17.8395 143.148C17.8139 143.236 17.8011 143.352 17.8011 143.497C17.8011 143.83 17.8849 144.07 18.0526 144.217C18.2202 144.362 18.4659 144.435 18.7898 144.435H26V145.441ZM26 141.679H19.4545V140.674H26V141.679ZM18.3636 141.168C18.3636 141.364 18.2969 141.533 18.1634 141.675C18.0298 141.814 17.8693 141.884 17.6818 141.884C17.4943 141.884 17.3338 141.814 17.2003 141.675C17.0668 141.533 17 141.364 17 141.168C17 140.972 17.0668 140.804 17.2003 140.665C17.3338 140.523 17.4943 140.452 17.6818 140.452C17.8693 140.452 18.0298 140.523 18.1634 140.665C18.2969 140.804 18.3636 140.972 18.3636 141.168ZM19.4545 136.105H20.3068V139.497H19.4545V136.105ZM17.8864 138.509V137.503H24.125C24.4091 137.503 24.6222 137.462 24.7642 137.379C24.9034 137.294 24.9972 137.186 25.0455 137.056C25.0909 136.922 25.1136 136.781 25.1136 136.634C25.1136 136.523 25.108 136.432 25.0966 136.361C25.0824 136.29 25.071 136.233 25.0625 136.19L25.9659 135.986C25.9915 136.054 26.017 136.149 26.0426 136.271C26.071 136.394 26.0852 136.548 26.0852 136.736C26.0852 137.02 26.0241 137.298 25.902 137.571C25.7798 137.841 25.5938 138.065 25.3438 138.244C25.0938 138.421 24.7784 138.509 24.3977 138.509H17.8864Z" fill="#262B38"/>
<line x1="765" y1="76.5" x2="77" y2="76.5" stroke="#CFD6DC"/>
<line x1="765" y1="111.75" x2="77" y2="111.75" stroke="#CFD6DC"/>
<line x1="765" y1="147" x2="77" y2="147" stroke="#CFD6DC"/>
<line x1="765" y1="182.25" x2="77" y2="182.25" stroke="#CFD6DC"/>
<line x1="765" y1="217.5" x2="77" y2="217.5" stroke="#CFD6DC"/>
<line x1="77.5" y1="76" x2="77.5" y2="217" stroke="#CFD6DC"/>
<line x1="163.5" y1="76" x2="163.5" y2="217" stroke="#CFD6DC"/>
<line x1="249.5" y1="76" x2="249.5" y2="217" stroke="#CFD6DC"/>
<line x1="335.5" y1="76" x2="335.5" y2="217" stroke="#CFD6DC"/>
<line x1="421.5" y1="76" x2="421.5" y2="217" stroke="#CFD6DC"/>
<line x1="507.5" y1="76" x2="507.5" y2="217" stroke="#CFD6DC"/>
<line x1="593.5" y1="76" x2="593.5" y2="217" stroke="#CFD6DC"/>
<line x1="679.5" y1="76" x2="679.5" y2="217" stroke="#CFD6DC"/>
<line x1="765.5" y1="76" x2="765.5" y2="217" stroke="#CFD6DC"/>
<path d="M54.5923 81.2102V80.3409L58.4275 74.2727H59.0582V75.6193H58.6321L55.7343 80.2045V80.2727H60.8991V81.2102H54.5923ZM58.7003 83V80.946V80.5412V74.2727H59.7059V83H58.7003ZM63.3306 80.6136L63.3136 79.3693H63.5181L66.3817 76.4545H67.6261L64.5749 79.5398H64.4897L63.3306 80.6136ZM62.3931 83V74.2727H63.3988V83H62.3931ZM66.5522 83L63.9954 79.7614L64.7113 79.0625L67.8306 83H66.5522Z" fill="#262B38"/>
<path d="M55.2304 117V116.233L58.1111 113.08C58.4492 112.71 58.7276 112.389 58.9463 112.116C59.1651 111.841 59.327 111.582 59.4321 111.341C59.5401 111.097 59.5941 110.841 59.5941 110.574C59.5941 110.267 59.5202 110.001 59.3725 109.777C59.2276 109.553 59.0287 109.379 58.7759 109.257C58.5231 109.135 58.239 109.074 57.9236 109.074C57.5884 109.074 57.2958 109.143 57.0458 109.283C56.7986 109.419 56.6069 109.611 56.4705 109.858C56.337 110.105 56.2702 110.395 56.2702 110.727H55.2645C55.2645 110.216 55.3824 109.767 55.6182 109.381C55.854 108.994 56.175 108.693 56.5813 108.477C56.9904 108.261 57.4492 108.153 57.9577 108.153C58.4691 108.153 58.9222 108.261 59.3171 108.477C59.712 108.693 60.0216 108.984 60.2461 109.351C60.4705 109.717 60.5827 110.125 60.5827 110.574C60.5827 110.895 60.5245 111.209 60.408 111.516C60.2944 111.82 60.0955 112.159 59.8114 112.534C59.5302 112.906 59.1395 113.361 58.6395 113.898L56.6793 115.994V116.062H60.7361V117H55.2304ZM63.3306 114.614L63.3136 113.369H63.5181L66.3817 110.455H67.6261L64.5749 113.54H64.4897L63.3306 114.614ZM62.3931 117V108.273H63.3988V117H62.3931ZM66.5522 117L63.9954 113.761L64.7113 113.062L67.8306 117H66.5522Z" fill="#262B38"/>
<path d="M57.8427 151.119C57.2006 151.119 56.6537 150.945 56.202 150.595C55.7503 150.243 55.4052 149.733 55.1665 149.065C54.9279 148.395 54.8086 147.585 54.8086 146.636C54.8086 145.693 54.9279 144.888 55.1665 144.22C55.408 143.55 55.7546 143.038 56.2063 142.686C56.6608 142.331 57.2063 142.153 57.8427 142.153C58.479 142.153 59.0231 142.331 59.4748 142.686C59.9293 143.038 60.2759 143.55 60.5145 144.22C60.756 144.888 60.8767 145.693 60.8767 146.636C60.8767 147.585 60.7574 148.395 60.5188 149.065C60.2802 149.733 59.935 150.243 59.4833 150.595C59.0316 150.945 58.4847 151.119 57.8427 151.119ZM57.8427 150.182C58.479 150.182 58.9733 149.875 59.3256 149.261C59.6779 148.648 59.854 147.773 59.854 146.636C59.854 145.881 59.7731 145.237 59.6111 144.706C59.452 144.175 59.2219 143.77 58.9208 143.491C58.6225 143.213 58.2631 143.074 57.8427 143.074C57.212 143.074 56.7191 143.385 56.364 144.007C56.0088 144.626 55.8313 145.503 55.8313 146.636C55.8313 147.392 55.9108 148.034 56.0699 148.562C56.229 149.091 56.4577 149.493 56.756 149.768C57.0571 150.044 57.4194 150.182 57.8427 150.182ZM63.3306 148.614L63.3136 147.369H63.5181L66.3817 144.455H67.6261L64.5749 147.54H64.4897L63.3306 148.614ZM62.3931 151V142.273H63.3988V151H62.3931ZM66.5522 151L63.9954 147.761L64.7113 147.062L67.8306 151H66.5522Z" fill="#262B38"/>
<path d="M54.0081 180.168V181.105H50.1899V180.168H54.0081ZM55.2304 185V184.233L58.1111 181.08C58.4492 180.71 58.7276 180.389 58.9463 180.116C59.1651 179.841 59.327 179.582 59.4321 179.341C59.5401 179.097 59.5941 178.841 59.5941 178.574C59.5941 178.267 59.5202 178.001 59.3725 177.777C59.2276 177.553 59.0287 177.379 58.7759 177.257C58.5231 177.135 58.239 177.074 57.9236 177.074C57.5884 177.074 57.2958 177.143 57.0458 177.283C56.7986 177.419 56.6069 177.611 56.4705 177.858C56.337 178.105 56.2702 178.395 56.2702 178.727H55.2645C55.2645 178.216 55.3824 177.767 55.6182 177.381C55.854 176.994 56.175 176.693 56.5813 176.477C56.9904 176.261 57.4492 176.153 57.9577 176.153C58.4691 176.153 58.9222 176.261 59.3171 176.477C59.712 176.693 60.0216 176.984 60.2461 177.351C60.4705 177.717 60.5827 178.125 60.5827 178.574C60.5827 178.895 60.5245 179.209 60.408 179.516C60.2944 179.82 60.0955 180.159 59.8114 180.534C59.5302 180.906 59.1395 181.361 58.6395 181.898L56.6793 183.994V184.062H60.7361V185H55.2304ZM63.3306 182.614L63.3136 181.369H63.5181L66.3817 178.455H67.6261L64.5749 181.54H64.4897L63.3306 182.614ZM62.3931 185V176.273H63.3988V185H62.3931ZM66.5522 185L63.9954 181.761L64.7113 181.062L67.8306 185H66.5522Z" fill="#262B38"/>
<path d="M53.1644 214.168V215.105H49.3462V214.168H53.1644ZM54.5923 217.21V216.341L58.4275 210.273H59.0582V211.619H58.6321L55.7343 216.205V216.273H60.8991V217.21H54.5923ZM58.7003 219V216.946V216.541V210.273H59.7059V219H58.7003ZM63.3306 216.614L63.3136 215.369H63.5181L66.3817 212.455H67.6261L64.5749 215.54H64.4897L63.3306 216.614ZM62.3931 219V210.273H63.3988V219H62.3931ZM66.5522 219L63.9954 215.761L64.7113 215.062L67.8306 219H66.5522Z" fill="#262B38"/>
<path d="M70.3276 233.168V234.105H66.5094V233.168H70.3276ZM75.0282 229.273V238H73.9714V230.381H73.9203L71.7896 231.795V230.722L73.9714 229.273H75.0282ZM77.5716 238V229.273H78.6284V233.602H78.7307L82.6511 229.273H84.0318L80.367 233.21L84.0318 238H82.7534L79.7193 233.943L78.6284 235.17V238H77.5716Z" fill="#262B38"/>
<path d="M157.146 238.119C156.504 238.119 155.957 237.945 155.505 237.595C155.054 237.243 154.708 236.733 154.47 236.065C154.231 235.395 154.112 234.585 154.112 233.636C154.112 232.693 154.231 231.888 154.47 231.22C154.711 230.55 155.058 230.038 155.51 229.686C155.964 229.331 156.51 229.153 157.146 229.153C157.782 229.153 158.326 229.331 158.778 229.686C159.233 230.038 159.579 230.55 159.818 231.22C160.059 231.888 160.18 232.693 160.18 233.636C160.18 234.585 160.061 235.395 159.822 236.065C159.583 236.733 159.238 237.243 158.787 237.595C158.335 237.945 157.788 238.119 157.146 238.119ZM157.146 237.182C157.782 237.182 158.277 236.875 158.629 236.261C158.981 235.648 159.157 234.773 159.157 233.636C159.157 232.881 159.076 232.237 158.914 231.706C158.755 231.175 158.525 230.77 158.224 230.491C157.926 230.213 157.566 230.074 157.146 230.074C156.515 230.074 156.022 230.385 155.667 231.007C155.312 231.626 155.135 232.503 155.135 233.636C155.135 234.392 155.214 235.034 155.373 235.562C155.532 236.091 155.761 236.493 156.059 236.768C156.36 237.044 156.723 237.182 157.146 237.182ZM161.833 238V229.273H162.89V233.602H162.992L166.912 229.273H168.293L164.628 233.21L168.293 238H167.015L163.98 233.943L162.89 235.17V238H161.833Z" fill="#262B38"/>
<path d="M244.328 229.273V238H243.272V230.381H243.221L241.09 231.795V230.722L243.272 229.273H244.328ZM246.872 238V229.273H247.929V233.602H248.031L251.951 229.273H253.332L249.667 233.21L253.332 238H252.054L249.02 233.943L247.929 235.17V238H246.872Z" fill="#262B38"/>
<path d="M326.417 238V237.233L329.297 234.08C329.635 233.71 329.914 233.389 330.132 233.116C330.351 232.841 330.513 232.582 330.618 232.341C330.726 232.097 330.78 231.841 330.78 231.574C330.78 231.267 330.706 231.001 330.559 230.777C330.414 230.553 330.215 230.379 329.962 230.257C329.709 230.135 329.425 230.074 329.11 230.074C328.774 230.074 328.482 230.143 328.232 230.283C327.985 230.419 327.793 230.611 327.657 230.858C327.523 231.105 327.456 231.395 327.456 231.727H326.451C326.451 231.216 326.569 230.767 326.804 230.381C327.04 229.994 327.361 229.693 327.767 229.477C328.176 229.261 328.635 229.153 329.144 229.153C329.655 229.153 330.108 229.261 330.503 229.477C330.898 229.693 331.208 229.984 331.432 230.351C331.657 230.717 331.769 231.125 331.769 231.574C331.769 231.895 331.711 232.209 331.594 232.516C331.48 232.82 331.282 233.159 330.997 233.534C330.716 233.906 330.326 234.361 329.826 234.898L327.865 236.994V237.062H331.922V238H326.417ZM333.716 238V229.273H334.772V233.602H334.875L338.795 229.273H340.176L336.511 233.21L340.176 238H338.897L335.863 233.943L334.772 235.17V238H333.716Z" fill="#262B38"/>
<path d="M415.178 238.119C414.615 238.119 414.114 238.023 413.674 237.83C413.236 237.636 412.888 237.368 412.63 237.024C412.374 236.678 412.235 236.276 412.212 235.818H413.286C413.309 236.099 413.405 236.342 413.576 236.547C413.746 236.749 413.969 236.905 414.245 237.016C414.52 237.126 414.826 237.182 415.161 237.182C415.536 237.182 415.868 237.116 416.158 236.986C416.448 236.855 416.675 236.673 416.84 236.44C417.005 236.207 417.087 235.938 417.087 235.631C417.087 235.31 417.007 235.027 416.848 234.783C416.689 234.536 416.456 234.342 416.149 234.203C415.843 234.064 415.468 233.994 415.024 233.994H414.326V233.057H415.024C415.371 233.057 415.675 232.994 415.936 232.869C416.201 232.744 416.407 232.568 416.554 232.341C416.705 232.114 416.78 231.847 416.78 231.54C416.78 231.244 416.715 230.987 416.584 230.768C416.453 230.55 416.269 230.379 416.03 230.257C415.794 230.135 415.516 230.074 415.195 230.074C414.894 230.074 414.61 230.129 414.343 230.24C414.078 230.348 413.863 230.506 413.695 230.713C413.527 230.918 413.436 231.165 413.422 231.455H412.399C412.417 230.997 412.554 230.597 412.813 230.253C413.071 229.906 413.409 229.636 413.827 229.443C414.247 229.25 414.709 229.153 415.212 229.153C415.752 229.153 416.215 229.263 416.601 229.482C416.988 229.697 417.284 229.983 417.492 230.338C417.699 230.693 417.803 231.077 417.803 231.489C417.803 231.98 417.674 232.399 417.415 232.746C417.159 233.092 416.811 233.332 416.371 233.466V233.534C416.922 233.625 417.353 233.859 417.662 234.237C417.972 234.612 418.127 235.077 418.127 235.631C418.127 236.105 417.997 236.531 417.739 236.909C417.483 237.284 417.134 237.58 416.691 237.795C416.247 238.011 415.743 238.119 415.178 238.119ZM419.903 238V229.273H420.96V233.602H421.062L424.983 229.273H426.363L422.699 233.21L426.363 238H425.085L422.051 233.943L420.96 235.17V238H419.903Z" fill="#262B38"/>
<path d="M497.995 236.21V235.341L501.83 229.273H502.461V230.619H502.035L499.137 235.205V235.273H504.302V236.21H497.995ZM502.103 238V235.946V235.541V229.273H503.109V238H502.103ZM505.932 238V229.273H506.989V233.602H507.091L511.012 229.273H512.393L508.728 233.21L512.393 238H511.114L508.08 233.943L506.989 235.17V238H505.932Z" fill="#262B38"/>
<path d="M587.126 238.119C586.626 238.119 586.176 238.02 585.775 237.821C585.375 237.622 585.054 237.349 584.812 237.003C584.571 236.656 584.439 236.261 584.416 235.818H585.439C585.479 236.213 585.657 236.54 585.976 236.798C586.297 237.054 586.68 237.182 587.126 237.182C587.484 237.182 587.802 237.098 588.081 236.93C588.362 236.763 588.582 236.533 588.741 236.24C588.903 235.945 588.984 235.611 588.984 235.239C588.984 234.858 588.9 234.518 588.733 234.22C588.568 233.919 588.341 233.682 588.051 233.509C587.761 233.335 587.43 233.247 587.058 233.244C586.791 233.241 586.517 233.283 586.236 233.368C585.954 233.45 585.723 233.557 585.541 233.688L584.552 233.568L585.081 229.273H589.615V230.21H585.967L585.66 232.784H585.711C585.89 232.642 586.115 232.524 586.385 232.43C586.655 232.337 586.936 232.29 587.229 232.29C587.763 232.29 588.238 232.418 588.656 232.673C589.077 232.926 589.406 233.273 589.645 233.713C589.886 234.153 590.007 234.656 590.007 235.222C590.007 235.778 589.882 236.276 589.632 236.713C589.385 237.148 589.044 237.491 588.609 237.744C588.175 237.994 587.68 238.119 587.126 238.119ZM591.733 238V229.273H592.79V233.602H592.892L596.813 229.273H598.193L594.529 233.21L598.193 238H596.915L593.881 233.943L592.79 235.17V238H591.733Z" fill="#262B38"/>
<path d="M673.203 238.119C672.845 238.114 672.487 238.045 672.129 237.915C671.771 237.784 671.444 237.564 671.149 237.254C670.854 236.942 670.616 236.52 670.437 235.989C670.258 235.455 670.169 234.784 670.169 233.977C670.169 233.205 670.241 232.52 670.386 231.923C670.531 231.324 670.741 230.82 671.017 230.411C671.292 229.999 671.625 229.686 672.014 229.473C672.406 229.26 672.848 229.153 673.339 229.153C673.828 229.153 674.263 229.251 674.643 229.447C675.027 229.641 675.339 229.911 675.581 230.257C675.822 230.604 675.979 231.003 676.05 231.455H675.01C674.913 231.062 674.726 230.737 674.447 230.479C674.169 230.22 673.8 230.091 673.339 230.091C672.663 230.091 672.13 230.385 671.741 230.973C671.355 231.561 671.16 232.386 671.157 233.449H671.226C671.385 233.207 671.574 233.001 671.792 232.831C672.014 232.658 672.258 232.524 672.525 232.43C672.792 232.337 673.075 232.29 673.373 232.29C673.873 232.29 674.331 232.415 674.746 232.665C675.16 232.912 675.493 233.254 675.743 233.692C675.993 234.126 676.118 234.625 676.118 235.188C676.118 235.727 675.997 236.222 675.755 236.67C675.514 237.116 675.175 237.472 674.737 237.736C674.302 237.997 673.791 238.125 673.203 238.119ZM673.203 237.182C673.561 237.182 673.882 237.092 674.166 236.913C674.453 236.734 674.679 236.494 674.844 236.193C675.011 235.892 675.095 235.557 675.095 235.188C675.095 234.827 675.014 234.499 674.852 234.203C674.693 233.905 674.473 233.668 674.192 233.491C673.913 233.315 673.595 233.227 673.237 233.227C672.967 233.227 672.716 233.281 672.483 233.389C672.25 233.494 672.045 233.639 671.869 233.824C671.696 234.009 671.559 234.22 671.46 234.459C671.361 234.695 671.311 234.943 671.311 235.205C671.311 235.551 671.392 235.875 671.554 236.176C671.719 236.477 671.943 236.72 672.227 236.905C672.514 237.089 672.839 237.182 673.203 237.182ZM677.827 238V229.273H678.884V233.602H678.986L682.906 229.273H684.287L680.622 233.21L684.287 238H683.009L679.975 233.943L678.884 235.17V238H677.827Z" fill="#262B38"/>
<path d="M756.894 238L760.798 230.278V230.21H756.298V229.273H761.889V230.261L758.002 238H756.894ZM763.51 238V229.273H764.567V233.602H764.67L768.59 229.273H769.971L766.306 233.21L769.971 238H768.692L765.658 233.943L764.567 235.17V238H763.51Z" fill="#262B38"/>
<circle cx="477.5" cy="162.5" r="5.5" fill="#FFCCA5"/>
<circle cx="447.5" cy="157.5" r="5.5" fill="#FFCCA5"/>
<circle cx="399.5" cy="157.5" r="5.5" fill="#FFCCA5"/>
<circle cx="365.5" cy="159.5" r="5.5" fill="#FFCCA5"/>
<circle cx="332.5" cy="156.5" r="5.5" fill="#FFCCA5"/>
<circle cx="304.5" cy="159.5" r="5.5" fill="#FF7001"/>
<circle cx="247.5" cy="157.5" r="5.5" fill="#FFCCA5"/>
<circle cx="222.5" cy="152.5" r="5.5" fill="#FFCCA5"/>
<circle cx="138.5" cy="156.5" r="5.5" fill="#FFCCA5"/>
<circle cx="160.5" cy="156.5" r="5.5" fill="#FFCCA5"/>
<circle cx="149.5" cy="160.5" r="5.5" fill="#FFCCA5"/>
<circle cx="113.5" cy="154.5" r="5.5" fill="#FFCCA5"/>
<circle cx="122.5" cy="155.5" r="5.5" fill="#FFCCA5"/>
<circle cx="277.5" cy="155.5" r="5.5" fill="#FFCCA5"/>
<circle cx="502.5" cy="154.5" r="5.5" fill="#FFCCA5"/>
<circle cx="496.5" cy="170.5" r="5.5" fill="#FF7001"/>
<circle cx="515.5" cy="167.5" r="5.5" fill="#FFCCA5"/>
<circle cx="425.5" cy="172.5" r="5.5" fill="#FF7001"/>
<circle cx="579.5" cy="174.5" r="5.5" fill="#FF7001"/>
<circle cx="352.5" cy="160.5" r="5.5" fill="#FFCCA5"/>
<circle cx="368.5" cy="164.5" r="5.5" fill="#FFCCA5"/>
<circle cx="385.5" cy="164.5" r="5.5" fill="#FF7001"/>
<circle cx="199.5" cy="158.5" r="5.5" fill="#FFCCA5"/>
<circle cx="167.5" cy="156.5" r="5.5" fill="#FF7001"/>
<circle cx="160.5" cy="163.5" r="5.5" fill="#FFCCA5"/>
<circle cx="180.5" cy="165.5" r="5.5" fill="#FF7001"/>
<circle cx="257.5" cy="160.5" r="5.5" fill="#FFCCA5"/>
<circle cx="532.5" cy="160.5" r="5.5" fill="#FFCCA5"/>
<circle cx="543.5" cy="156.5" r="5.5" fill="#FFCCA5"/>
<circle cx="96.5" cy="144.5" r="5.5" fill="#80BFF7"/>
<circle cx="133.5" cy="135.5" r="5.5" fill="#49A2F0"/>
<circle cx="193.5" cy="115.5" r="5.5" fill="#1184E9"/>
<circle cx="116.5" cy="131.5" r="5.5" fill="#1184E9"/>
<circle cx="167.5" cy="130.5" r="5.5" fill="#49A2F0"/>
<circle cx="225.5" cy="134.5" r="5.5" fill="#80BFF7"/>
<circle cx="430.5" cy="104.5" r="5.5" fill="#1184E9"/>
<circle cx="359.5" cy="117.5" r="5.5" fill="#1184E9"/>
<circle cx="471.5" cy="112.5" r="5.5" fill="#1184E9"/>
<circle cx="586.5" cy="99.5" r="5.5" fill="#1184E9"/>
<circle cx="624.5" cy="110.5" r="5.5" fill="#49A2F0"/>
<circle cx="488.5" cy="126.5" r="5.5" fill="#49A2F0"/>
<circle cx="374.5" cy="132.5" r="5.5" fill="#49A2F0"/>
<circle cx="407.5" cy="143.5" r="5.5" fill="#80BFF7"/>
<circle cx="496.5" cy="140.5" r="5.5" fill="#80BFF7"/>
<circle cx="643.5" cy="129.5" r="5.5" fill="#1184E9"/>
<circle cx="683.5" cy="89.5" r="5.5" fill="#1184E9"/>
<circle cx="301.5" cy="107.5" r="5.5" fill="#1184E9"/>
<circle cx="332.5" cy="115.5" r="5.5" fill="#1184E9"/>
<circle cx="231.5" cy="119.5" r="5.5" fill="#1184E9"/>
<circle cx="316.5" cy="133.5" r="5.5" fill="#80BFF7"/>
<circle cx="277.5" cy="133.5" r="5.5" fill="#1184E9"/>
<circle cx="299.5" cy="141.5" r="5.5" fill="#80BFF7"/>
<circle cx="185.5" cy="144.5" r="5.5" fill="#49A2F0"/>
<circle cx="156.5" cy="141.5" r="5.5" fill="#1184E9"/>
<circle cx="247.5" cy="145.5" r="5.5" fill="#49A2F0"/>
<circle cx="251.5" cy="124.5" r="5.5" fill="#49A2F0"/>
<circle cx="333.5" cy="135.5" r="5.5" fill="#49A2F0"/>
<circle cx="312.5" cy="141.5" r="5.5" fill="#49A2F0"/>
<circle cx="394.5" cy="112.5" r="5.5" fill="#1184E9"/>
<circle cx="414.5" cy="119.5" r="5.5" fill="#1184E9"/>
<circle cx="204.5" cy="130.5" r="5.5" fill="#80BFF7"/>
<circle cx="453.5" cy="132.5" r="5.5" fill="#49A2F0"/>
<circle cx="436.5" cy="122.5" r="5.5" fill="#49A2F0"/>
<circle cx="527.5" cy="107.5" r="5.5" fill="#1184E9"/>
<circle cx="521.5" cy="129.5" r="5.5" fill="#49A2F0"/>
<circle cx="565.5" cy="127.5" r="5.5" fill="#49A2F0"/>
<circle cx="554.5" cy="109.5" r="5.5" fill="#1184E9"/>
<circle cx="602.5" cy="128.5" r="5.5" fill="#49A2F0"/>
<circle cx="539.5" cy="137.5" r="5.5" fill="#49A2F0"/>
<circle cx="554.5" cy="142.5" r="5.5" fill="#80BFF7"/>
<circle cx="584.5" cy="139.5" r="5.5" fill="#1184E9"/>
<circle cx="477.5" cy="142.5" r="5.5" fill="#80BFF7"/>
</g>
<defs>
<filter id="filter0_dddddd_2693_137471" x="-80" y="-28" width="950" height="440" filterUnits="userSpaceOnUse" color-interpolation-filters="sRGB">
<feFlood flood-opacity="0" result="BackgroundImageFix"/>
<feColorMatrix in="SourceAlpha" type="matrix" values="0 0 0 0 0 0 0 0 0 0 0 0 0 0 0 0 0 0 127 0" result="hardAlpha"/>
<feOffset dy="1.43897"/>
<feGaussianBlur stdDeviation="1.1069"/>
<feColorMatrix type="matrix" values="0 0 0 0 0.109804 0 0 0 0 0.164706 0 0 0 0 0.278431 0 0 0 0.0168687 0"/>
<feBlend mode="normal" in2="BackgroundImageFix" result="effect1_dropShadow_2693_137471"/>
<feColorMatrix in="SourceAlpha" type="matrix" values="0 0 0 0 0 0 0 0 0 0 0 0 0 0 0 0 0 0 127 0" result="hardAlpha"/>
<feOffset dy="3.45805"/>
<feGaussianBlur stdDeviation="2.66004"/>
<feColorMatrix type="matrix" values="0 0 0 0 0.109804 0 0 0 0 0.164706 0 0 0 0 0.278431 0 0 0 0.0242336 0"/>
<feBlend mode="normal" in2="effect1_dropShadow_2693_137471" result="effect2_dropShadow_2693_137471"/>
<feColorMatrix in="SourceAlpha" type="matrix" values="0 0 0 0 0 0 0 0 0 0 0 0 0 0 0 0 0 0 127 0" result="hardAlpha"/>
<feOffset dy="6.51121"/>
<feGaussianBlur stdDeviation="5.00862"/>
<feColorMatrix type="matrix" values="0 0 0 0 0.109804 0 0 0 0 0.164706 0 0 0 0 0.278431 0 0 0 0.03 0"/>
<feBlend mode="normal" in2="effect2_dropShadow_2693_137471" result="effect3_dropShadow_2693_137471"/>
<feColorMatrix in="SourceAlpha" type="matrix" values="0 0 0 0 0 0 0 0 0 0 0 0 0 0 0 0 0 0 127 0" result="hardAlpha"/>
<feOffset dy="11.6149"/>
<feGaussianBlur stdDeviation="8.93452"/>
<feColorMatrix type="matrix" values="0 0 0 0 0.109804 0 0 0 0 0.164706 0 0 0 0 0.278431 0 0 0 0.0357664 0"/>
<feBlend mode="normal" in2="effect3_dropShadow_2693_137471" result="effect4_dropShadow_2693_137471"/>
<feColorMatrix in="SourceAlpha" type="matrix" values="0 0 0 0 0 0 0 0 0 0 0 0 0 0 0 0 0 0 127 0" result="hardAlpha"/>
<feOffset dy="21.7244"/>
<feGaussianBlur stdDeviation="16.711"/>
<feColorMatrix type="matrix" values="0 0 0 0 0.109804 0 0 0 0 0.164706 0 0 0 0 0.278431 0 0 0 0.0431313 0"/>
<feBlend mode="normal" in2="effect4_dropShadow_2693_137471" result="effect5_dropShadow_2693_137471"/>
<feColorMatrix in="SourceAlpha" type="matrix" values="0 0 0 0 0 0 0 0 0 0 0 0 0 0 0 0 0 0 127 0" result="hardAlpha"/>
<feOffset dy="52"/>
<feGaussianBlur stdDeviation="40"/>
<feColorMatrix type="matrix" values="0 0 0 0 0.109804 0 0 0 0 0.164706 0 0 0 0 0.278431 0 0 0 0.06 0"/>
<feBlend mode="normal" in2="effect5_dropShadow_2693_137471" result="effect6_dropShadow_2693_137471"/>
<feBlend mode="normal" in="SourceGraphic" in2="effect6_dropShadow_2693_137471" result="shape"/>
</filter>
</defs>
</svg>
