<svg width="789" height="56" viewBox="0 0 789 56" fill="none" xmlns="http://www.w3.org/2000/svg">
<g filter="url(#filter0_dddddd_2678_84629)">
<rect width="789" height="56" rx="12" fill="white"/>
<path d="M157.713 37.0824V38.1903H153.844V37.0824H157.713ZM162.035 42.1193C161.501 42.1193 161.021 42.017 160.595 41.8125C160.171 41.6051 159.833 41.321 159.58 40.9602C159.327 40.5994 159.193 40.1875 159.175 39.7244H160.454C160.485 40.0994 160.651 40.4077 160.952 40.6491C161.254 40.8906 161.614 41.0114 162.035 41.0114C162.37 41.0114 162.667 40.9347 162.925 40.7812C163.187 40.625 163.391 40.4105 163.539 40.1378C163.69 39.8651 163.765 39.554 163.765 39.2045C163.765 38.8494 163.688 38.5327 163.535 38.2543C163.381 37.9759 163.17 37.7571 162.9 37.598C162.633 37.4389 162.326 37.358 161.979 37.3551C161.715 37.3551 161.45 37.4006 161.183 37.4915C160.916 37.5824 160.7 37.7017 160.535 37.8494L159.329 37.6705L159.819 33.2727H164.617V34.402H160.914L160.637 36.8438H160.688C160.859 36.679 161.085 36.5412 161.366 36.4304C161.65 36.3196 161.954 36.2642 162.278 36.2642C162.809 36.2642 163.282 36.3906 163.697 36.6435C164.114 36.8963 164.443 37.2415 164.681 37.679C164.923 38.1136 165.042 38.6136 165.039 39.179C165.042 39.7443 164.914 40.2486 164.656 40.6918C164.4 41.1349 164.045 41.4844 163.59 41.7401C163.139 41.9929 162.62 42.1193 162.035 42.1193ZM169.394 42.1449C168.721 42.142 168.145 41.9645 167.668 41.6122C167.191 41.2599 166.826 40.7472 166.573 40.0739C166.32 39.4006 166.194 38.5895 166.194 37.6406C166.194 36.6946 166.32 35.8864 166.573 35.2159C166.829 34.5455 167.195 34.0341 167.672 33.6818C168.152 33.3295 168.726 33.1534 169.394 33.1534C170.062 33.1534 170.634 33.331 171.111 33.6861C171.589 34.0384 171.954 34.5497 172.206 35.2202C172.462 35.8878 172.59 36.6946 172.59 37.6406C172.59 38.5923 172.464 39.4048 172.211 40.0781C171.958 40.7486 171.593 41.2614 171.116 41.6165C170.638 41.9688 170.064 42.1449 169.394 42.1449ZM169.394 41.0071C169.985 41.0071 170.446 40.7188 170.779 40.142C171.114 39.5653 171.282 38.7315 171.282 37.6406C171.282 36.9162 171.205 36.304 171.052 35.804C170.901 35.3011 170.684 34.9205 170.4 34.6619C170.118 34.4006 169.783 34.2699 169.394 34.2699C168.806 34.2699 168.344 34.5597 168.009 35.1392C167.674 35.7187 167.505 36.5526 167.502 37.6406C167.502 38.3679 167.577 38.983 167.728 39.4858C167.881 39.9858 168.098 40.3651 168.38 40.6236C168.661 40.8793 168.999 41.0071 169.394 41.0071ZM178.417 40.3636V39.9034C178.417 39.5739 178.485 39.2727 178.622 39C178.761 38.7244 178.963 38.5043 179.227 38.3395C179.494 38.1719 179.816 38.0881 180.194 38.0881C180.58 38.0881 180.904 38.1705 181.166 38.3352C181.427 38.5 181.624 38.7202 181.758 38.9957C181.894 39.2713 181.963 39.5739 181.963 39.9034V40.3636C181.963 40.6932 181.894 40.9957 181.758 41.2713C181.622 41.544 181.421 41.7642 181.157 41.9318C180.896 42.0966 180.575 42.179 180.194 42.179C179.811 42.179 179.487 42.0966 179.222 41.9318C178.958 41.7642 178.758 41.544 178.622 41.2713C178.485 40.9957 178.417 40.6932 178.417 40.3636ZM179.41 39.9034V40.3636C179.41 40.608 179.468 40.8295 179.585 41.0284C179.701 41.2273 179.904 41.3267 180.194 41.3267C180.481 41.3267 180.681 41.2273 180.795 41.0284C180.909 40.8295 180.965 40.608 180.965 40.3636V39.9034C180.965 39.6591 180.91 39.4375 180.799 39.2386C180.691 39.0398 180.49 38.9403 180.194 38.9403C179.91 38.9403 179.708 39.0398 179.589 39.2386C179.47 39.4375 179.41 39.6591 179.41 39.9034ZM174.028 35.3693V34.9091C174.028 34.5795 174.096 34.277 174.232 34.0014C174.372 33.7259 174.573 33.5057 174.838 33.3409C175.105 33.1761 175.427 33.0938 175.805 33.0938C176.191 33.0938 176.515 33.1761 176.776 33.3409C177.038 33.5057 177.235 33.7259 177.369 34.0014C177.502 34.277 177.569 34.5795 177.569 34.9091V35.3693C177.569 35.6989 177.501 36.0014 177.365 36.277C177.231 36.5497 177.032 36.7699 176.768 36.9375C176.507 37.1023 176.186 37.1847 175.805 37.1847C175.418 37.1847 175.093 37.1023 174.829 36.9375C174.568 36.7699 174.369 36.5497 174.232 36.277C174.096 36.0014 174.028 35.6989 174.028 35.3693ZM175.025 34.9091V35.3693C175.025 35.6136 175.082 35.8352 175.195 36.0341C175.312 36.233 175.515 36.3324 175.805 36.3324C176.089 36.3324 176.288 36.233 176.401 36.0341C176.518 35.8352 176.576 35.6136 176.576 35.3693V34.9091C176.576 34.6648 176.521 34.4432 176.41 34.2443C176.299 34.0455 176.097 33.946 175.805 33.946C175.521 33.946 175.319 34.0455 175.2 34.2443C175.083 34.4432 175.025 34.6648 175.025 34.9091ZM174.433 42L180.433 33.2727H181.451L175.451 42H174.433Z" fill="#191A1D"/>
<path d="M747.72 42.1193C747.186 42.1193 746.706 42.017 746.28 41.8125C745.857 41.6051 745.518 41.321 745.266 40.9602C745.013 40.5994 744.878 40.1875 744.861 39.7244H746.139C746.17 40.0994 746.337 40.4077 746.638 40.6491C746.939 40.8906 747.3 41.0114 747.72 41.0114C748.055 41.0114 748.352 40.9347 748.611 40.7812C748.872 40.625 749.077 40.4105 749.224 40.1378C749.375 39.8651 749.45 39.554 749.45 39.2045C749.45 38.8494 749.374 38.5327 749.22 38.2543C749.067 37.9759 748.855 37.7571 748.585 37.598C748.318 37.4389 748.011 37.358 747.665 37.3551C747.401 37.3551 747.135 37.4006 746.868 37.4915C746.601 37.5824 746.385 37.7017 746.22 37.8494L745.014 37.6705L745.504 33.2727H750.303V34.402H746.599L746.322 36.8438H746.374C746.544 36.679 746.77 36.5412 747.051 36.4304C747.335 36.3196 747.639 36.2642 747.963 36.2642C748.494 36.2642 748.967 36.3906 749.382 36.6435C749.8 36.8963 750.128 37.2415 750.366 37.679C750.608 38.1136 750.727 38.6136 750.724 39.179C750.727 39.7443 750.599 40.2486 750.341 40.6918C750.085 41.1349 749.73 41.4844 749.276 41.7401C748.824 41.9929 748.305 42.1193 747.72 42.1193ZM755.079 42.1449C754.406 42.142 753.831 41.9645 753.353 41.6122C752.876 41.2599 752.511 40.7472 752.258 40.0739C752.005 39.4006 751.879 38.5895 751.879 37.6406C751.879 36.6946 752.005 35.8864 752.258 35.2159C752.514 34.5455 752.88 34.0341 753.358 33.6818C753.838 33.3295 754.412 33.1534 755.079 33.1534C755.747 33.1534 756.319 33.331 756.797 33.6861C757.274 34.0384 757.639 34.5497 757.892 35.2202C758.147 35.8878 758.275 36.6946 758.275 37.6406C758.275 38.5923 758.149 39.4048 757.896 40.0781C757.643 40.7486 757.278 41.2614 756.801 41.6165C756.324 41.9688 755.75 42.1449 755.079 42.1449ZM755.079 41.0071C755.67 41.0071 756.132 40.7188 756.464 40.142C756.799 39.5653 756.967 38.7315 756.967 37.6406C756.967 36.9162 756.89 36.304 756.737 35.804C756.586 35.3011 756.369 34.9205 756.085 34.6619C755.804 34.4006 755.468 34.2699 755.079 34.2699C754.491 34.2699 754.03 34.5597 753.694 35.1392C753.359 35.7187 753.19 36.5526 753.187 37.6406C753.187 38.3679 753.262 38.983 753.413 39.4858C753.566 39.9858 753.784 40.3651 754.065 40.6236C754.346 40.8793 754.684 41.0071 755.079 41.0071ZM764.102 40.3636V39.9034C764.102 39.5739 764.171 39.2727 764.307 39C764.446 38.7244 764.648 38.5043 764.912 38.3395C765.179 38.1719 765.502 38.0881 765.879 38.0881C766.266 38.0881 766.59 38.1705 766.851 38.3352C767.112 38.5 767.31 38.7202 767.443 38.9957C767.58 39.2713 767.648 39.5739 767.648 39.9034V40.3636C767.648 40.6932 767.58 40.9957 767.443 41.2713C767.307 41.544 767.107 41.7642 766.842 41.9318C766.581 42.0966 766.26 42.179 765.879 42.179C765.496 42.179 765.172 42.0966 764.908 41.9318C764.644 41.7642 764.443 41.544 764.307 41.2713C764.171 40.9957 764.102 40.6932 764.102 40.3636ZM765.095 39.9034V40.3636C765.095 40.608 765.154 40.8295 765.27 41.0284C765.386 41.2273 765.59 41.3267 765.879 41.3267C766.166 41.3267 766.367 41.2273 766.48 41.0284C766.594 40.8295 766.651 40.608 766.651 40.3636V39.9034C766.651 39.6591 766.595 39.4375 766.484 39.2386C766.377 39.0398 766.175 38.9403 765.879 38.9403C765.595 38.9403 765.394 39.0398 765.274 39.2386C765.155 39.4375 765.095 39.6591 765.095 39.9034ZM759.713 35.3693V34.9091C759.713 34.5795 759.781 34.277 759.918 34.0014C760.057 33.7259 760.259 33.5057 760.523 33.3409C760.79 33.1761 761.112 33.0938 761.49 33.0938C761.877 33.0938 762.2 33.1761 762.462 33.3409C762.723 33.5057 762.921 33.7259 763.054 34.0014C763.188 34.277 763.254 34.5795 763.254 34.9091V35.3693C763.254 35.6989 763.186 36.0014 763.05 36.277C762.916 36.5497 762.717 36.7699 762.453 36.9375C762.192 37.1023 761.871 37.1847 761.49 37.1847C761.104 37.1847 760.779 37.1023 760.514 36.9375C760.253 36.7699 760.054 36.5497 759.918 36.277C759.781 36.0014 759.713 35.6989 759.713 35.3693ZM760.71 34.9091V35.3693C760.71 35.6136 760.767 35.8352 760.881 36.0341C760.997 36.233 761.2 36.3324 761.49 36.3324C761.774 36.3324 761.973 36.233 762.087 36.0341C762.203 35.8352 762.261 35.6136 762.261 35.3693V34.9091C762.261 34.6648 762.206 34.4432 762.095 34.2443C761.984 34.0455 761.783 33.946 761.49 33.946C761.206 33.946 761.004 34.0455 760.885 34.2443C760.769 34.4432 760.71 34.6648 760.71 34.9091ZM760.118 42L766.118 33.2727H767.136L761.136 42H760.118Z" fill="#191A1D"/>
<rect x="153" y="17" width="616" height="6" rx="3" fill="url(#paint0_linear_2678_84629)"/>
<rect x="461" y="17" width="2" height="18" fill="#191A1D"/>
<path d="M20.076 32V21.0909H24.1669C25.005 21.0909 25.7081 21.2472 26.2763 21.5597C26.848 21.8722 27.2795 22.3018 27.5707 22.8487C27.8654 23.392 28.0128 24.0099 28.0128 24.7024C28.0128 25.402 27.8654 26.0234 27.5707 26.5668C27.2759 27.1101 26.8409 27.538 26.2656 27.8505C25.6903 28.1594 24.9819 28.3139 24.1403 28.3139H21.429V26.6893H23.8739C24.364 26.6893 24.7653 26.604 25.0778 26.4336C25.3903 26.2631 25.6211 26.0288 25.7702 25.7305C25.9229 25.4322 25.9993 25.0895 25.9993 24.7024C25.9993 24.3153 25.9229 23.9744 25.7702 23.6797C25.6211 23.3849 25.3885 23.1559 25.0724 22.9925C24.7599 22.8256 24.3569 22.7422 23.8633 22.7422H22.0522V32H20.076ZM29.6441 32V23.8182H31.5138V25.1818H31.599C31.7481 24.7095 32.0038 24.3455 32.366 24.0898C32.7318 23.8306 33.1491 23.701 33.6178 23.701C33.7243 23.701 33.8433 23.7063 33.9747 23.717C34.1096 23.7241 34.2215 23.7365 34.3103 23.7543V25.5281C34.2286 25.4996 34.099 25.4748 33.9214 25.4535C33.7474 25.4286 33.5787 25.4162 33.4154 25.4162C33.0638 25.4162 32.7478 25.4925 32.4672 25.6452C32.1903 25.7944 31.9719 26.0021 31.8121 26.2685C31.6523 26.5348 31.5724 26.842 31.5724 27.19V32H29.6441ZM38.8233 32.1598C38.0243 32.1598 37.3319 31.984 36.7459 31.6325C36.16 31.2809 35.7054 30.7891 35.3823 30.157C35.0627 29.5249 34.9029 28.7862 34.9029 27.9411C34.9029 27.0959 35.0627 26.3555 35.3823 25.7198C35.7054 25.0842 36.16 24.5906 36.7459 24.239C37.3319 23.8874 38.0243 23.7116 38.8233 23.7116C39.6223 23.7116 40.3148 23.8874 40.9007 24.239C41.4867 24.5906 41.9395 25.0842 42.2591 25.7198C42.5822 26.3555 42.7438 27.0959 42.7438 27.9411C42.7438 28.7862 42.5822 29.5249 42.2591 30.157C41.9395 30.7891 41.4867 31.2809 40.9007 31.6325C40.3148 31.984 39.6223 32.1598 38.8233 32.1598ZM38.834 30.6151C39.2672 30.6151 39.6294 30.4961 39.9206 30.2582C40.2118 30.0167 40.4284 29.6935 40.5705 29.2887C40.7161 28.8839 40.7889 28.4329 40.7889 27.9357C40.7889 27.435 40.7161 26.9822 40.5705 26.5774C40.4284 26.169 40.2118 25.8441 39.9206 25.6026C39.6294 25.3612 39.2672 25.2404 38.834 25.2404C38.3901 25.2404 38.0208 25.3612 37.726 25.6026C37.4348 25.8441 37.2164 26.169 37.0708 26.5774C36.9288 26.9822 36.8578 27.435 36.8578 27.9357C36.8578 28.4329 36.9288 28.8839 37.0708 29.2887C37.2164 29.6935 37.4348 30.0167 37.726 30.2582C38.0208 30.4961 38.3901 30.6151 38.834 30.6151ZM48.5246 23.8182V25.3097H43.6879V23.8182H48.5246ZM44.8971 32V23.0458C44.8971 22.4954 45.0107 22.0373 45.238 21.6715C45.4688 21.3058 45.7778 21.0323 46.1649 20.8512C46.5519 20.6701 46.9816 20.5795 47.4539 20.5795C47.7877 20.5795 48.0843 20.6062 48.3435 20.6594C48.6027 20.7127 48.7945 20.7607 48.9188 20.8033L48.5352 22.2947C48.4536 22.2699 48.3506 22.245 48.2263 22.2202C48.102 22.1918 47.9635 22.1776 47.8108 22.1776C47.4521 22.1776 47.1982 22.2646 47.0491 22.4386C46.9035 22.609 46.8307 22.854 46.8307 23.1737V32H44.8971ZM50.0347 32V23.8182H51.963V32H50.0347ZM51.0042 22.657C50.6988 22.657 50.436 22.5558 50.2158 22.3533C49.9956 22.1474 49.8856 21.9006 49.8856 21.6129C49.8856 21.3217 49.9956 21.0749 50.2158 20.8725C50.436 20.6665 50.6988 20.5636 51.0042 20.5636C51.3131 20.5636 51.5759 20.6665 51.7925 20.8725C52.0127 21.0749 52.1228 21.3217 52.1228 21.6129C52.1228 21.9006 52.0127 22.1474 51.7925 22.3533C51.5759 22.5558 51.3131 22.657 51.0042 22.657ZM58.0314 23.8182V25.3097H53.3279V23.8182H58.0314ZM54.4892 21.858H56.4174V29.5391C56.4174 29.7983 56.4565 29.9972 56.5346 30.1357C56.6163 30.2706 56.7228 30.3629 56.8542 30.4126C56.9856 30.4624 57.1312 30.4872 57.291 30.4872C57.4118 30.4872 57.5218 30.4783 57.6213 30.4606C57.7243 30.4428 57.8024 30.4268 57.8556 30.4126L58.1806 31.9201C58.0776 31.9556 57.9302 31.9947 57.7385 32.0373C57.5502 32.0799 57.3194 32.1048 57.046 32.1119C56.563 32.1261 56.128 32.0533 55.7409 31.8935C55.3539 31.7301 55.0467 31.478 54.8194 31.1371C54.5957 30.7962 54.4856 30.37 54.4892 29.8587V21.858ZM63.3648 32V23.8182H65.2345V25.1818H65.3197C65.4688 24.7095 65.7245 24.3455 66.0867 24.0898C66.4525 23.8306 66.8698 23.701 67.3385 23.701C67.445 23.701 67.564 23.7063 67.6954 23.717C67.8303 23.7241 67.9422 23.7365 68.031 23.7543V25.5281C67.9493 25.4996 67.8197 25.4748 67.6421 25.4535C67.4681 25.4286 67.2994 25.4162 67.1361 25.4162C66.7845 25.4162 66.4685 25.4925 66.1879 25.6452C65.911 25.7944 65.6926 26.0021 65.5328 26.2685C65.373 26.5348 65.2931 26.842 65.2931 27.19V32H63.3648ZM71.52 32.1651C71.0015 32.1651 70.5345 32.0728 70.1191 31.8881C69.7071 31.6999 69.3804 31.4229 69.1389 31.0572C68.901 30.6914 68.782 30.2404 68.782 29.7042C68.782 29.2425 68.8673 28.8608 69.0377 28.5589C69.2082 28.2571 69.4408 28.0156 69.7355 27.8345C70.0303 27.6534 70.3623 27.5167 70.7316 27.4244C71.1045 27.3285 71.4898 27.2592 71.8875 27.2166C72.3669 27.1669 72.7558 27.1225 73.0541 27.0835C73.3524 27.0408 73.569 26.9769 73.7039 26.8917C73.8424 26.8029 73.9117 26.6662 73.9117 26.4815V26.4496C73.9117 26.0483 73.7927 25.7376 73.5548 25.5174C73.3169 25.2972 72.9742 25.1871 72.5267 25.1871C72.0544 25.1871 71.6798 25.2901 71.4028 25.4961C71.1294 25.7021 70.9447 25.9453 70.8488 26.2259L69.0484 25.9702C69.1904 25.473 69.4248 25.0575 69.7515 24.7237C70.0782 24.3864 70.4777 24.1342 70.95 23.9673C71.4223 23.7969 71.9443 23.7116 72.5161 23.7116C72.9102 23.7116 73.3026 23.7578 73.6933 23.8501C74.0839 23.9425 74.4408 24.0952 74.7639 24.3082C75.0871 24.5178 75.3463 24.8036 75.5416 25.1658C75.7405 25.5281 75.8399 25.9808 75.8399 26.5241V32H73.9862V30.8761H73.9223C73.8051 31.1033 73.64 31.3164 73.4269 31.5153C73.2174 31.7106 72.9529 31.8686 72.6333 31.9893C72.3172 32.1065 71.9461 32.1651 71.52 32.1651ZM72.0207 30.7482C72.4078 30.7482 72.7433 30.6719 73.0274 30.5192C73.3115 30.3629 73.5299 30.157 73.6826 29.9013C73.8389 29.6456 73.917 29.3668 73.917 29.065V28.1009C73.8566 28.1506 73.7536 28.1967 73.608 28.2393C73.466 28.282 73.3062 28.3192 73.1286 28.3512C72.9511 28.3832 72.7753 28.4116 72.6013 28.4364C72.4273 28.4613 72.2764 28.4826 72.1485 28.5004C71.8609 28.5394 71.6034 28.6033 71.3762 28.6921C71.1489 28.7809 70.9695 28.9052 70.8382 29.065C70.7068 29.2212 70.6411 29.4237 70.6411 29.6722C70.6411 30.0273 70.7707 30.2955 71.0299 30.4766C71.2892 30.6577 71.6194 30.7482 72.0207 30.7482ZM81.8644 23.8182V25.3097H77.161V23.8182H81.8644ZM78.3222 21.858H80.2504V29.5391C80.2504 29.7983 80.2895 29.9972 80.3676 30.1357C80.4493 30.2706 80.5558 30.3629 80.6872 30.4126C80.8186 30.4624 80.9642 30.4872 81.124 30.4872C81.2448 30.4872 81.3548 30.4783 81.4543 30.4606C81.5573 30.4428 81.6354 30.4268 81.6887 30.4126L82.0136 31.9201C81.9106 31.9556 81.7632 31.9947 81.5715 32.0373C81.3833 32.0799 81.1524 32.1048 80.879 32.1119C80.396 32.1261 79.961 32.0533 79.574 31.8935C79.1869 31.7301 78.8797 31.478 78.6524 31.1371C78.4287 30.7962 78.3186 30.37 78.3222 29.8587V21.858ZM83.4771 32V23.8182H85.4054V32H83.4771ZM84.4466 22.657C84.1412 22.657 83.8784 22.5558 83.6582 22.3533C83.438 22.1474 83.3279 21.9006 83.3279 21.6129C83.3279 21.3217 83.438 21.0749 83.6582 20.8725C83.8784 20.6665 84.1412 20.5636 84.4466 20.5636C84.7555 20.5636 85.0183 20.6665 85.2349 20.8725C85.4551 21.0749 85.5652 21.3217 85.5652 21.6129C85.5652 21.9006 85.4551 22.1474 85.2349 22.3533C85.0183 22.5558 84.7555 22.657 84.4466 22.657ZM90.9571 32.1598C90.1581 32.1598 89.4656 31.984 88.8797 31.6325C88.2938 31.2809 87.8392 30.7891 87.5161 30.157C87.1965 29.5249 87.0367 28.7862 87.0367 27.9411C87.0367 27.0959 87.1965 26.3555 87.5161 25.7198C87.8392 25.0842 88.2938 24.5906 88.8797 24.239C89.4656 23.8874 90.1581 23.7116 90.9571 23.7116C91.7561 23.7116 92.4486 23.8874 93.0345 24.239C93.6205 24.5906 94.0732 25.0842 94.3928 25.7198C94.716 26.3555 94.8776 27.0959 94.8776 27.9411C94.8776 28.7862 94.716 29.5249 94.3928 30.157C94.0732 30.7891 93.6205 31.2809 93.0345 31.6325C92.4486 31.984 91.7561 32.1598 90.9571 32.1598ZM90.9678 30.6151C91.401 30.6151 91.7632 30.4961 92.0544 30.2582C92.3456 30.0167 92.5622 29.6935 92.7043 29.2887C92.8499 28.8839 92.9227 28.4329 92.9227 27.9357C92.9227 27.435 92.8499 26.9822 92.7043 26.5774C92.5622 26.169 92.3456 25.8441 92.0544 25.6026C91.7632 25.3612 91.401 25.2404 90.9678 25.2404C90.5239 25.2404 90.1546 25.3612 89.8598 25.6026C89.5686 25.8441 89.3502 26.169 89.2046 26.5774C89.0626 26.9822 88.9916 27.435 88.9916 27.9357C88.9916 28.4329 89.0626 28.8839 89.2046 29.2887C89.3502 29.6935 89.5686 30.0167 89.8598 30.2582C90.1546 30.4961 90.5239 30.6151 90.9678 30.6151Z" fill="#191A1D"/>
</g>
<defs>
<filter id="filter0_dddddd_2678_84629" x="-80" y="-28" width="949" height="216" filterUnits="userSpaceOnUse" color-interpolation-filters="sRGB">
<feFlood flood-opacity="0" result="BackgroundImageFix"/>
<feColorMatrix in="SourceAlpha" type="matrix" values="0 0 0 0 0 0 0 0 0 0 0 0 0 0 0 0 0 0 127 0" result="hardAlpha"/>
<feOffset dy="1.43897"/>
<feGaussianBlur stdDeviation="1.1069"/>
<feColorMatrix type="matrix" values="0 0 0 0 0.109804 0 0 0 0 0.164706 0 0 0 0 0.278431 0 0 0 0.0168687 0"/>
<feBlend mode="normal" in2="BackgroundImageFix" result="effect1_dropShadow_2678_84629"/>
<feColorMatrix in="SourceAlpha" type="matrix" values="0 0 0 0 0 0 0 0 0 0 0 0 0 0 0 0 0 0 127 0" result="hardAlpha"/>
<feOffset dy="3.45805"/>
<feGaussianBlur stdDeviation="2.66004"/>
<feColorMatrix type="matrix" values="0 0 0 0 0.109804 0 0 0 0 0.164706 0 0 0 0 0.278431 0 0 0 0.0242336 0"/>
<feBlend mode="normal" in2="effect1_dropShadow_2678_84629" result="effect2_dropShadow_2678_84629"/>
<feColorMatrix in="SourceAlpha" type="matrix" values="0 0 0 0 0 0 0 0 0 0 0 0 0 0 0 0 0 0 127 0" result="hardAlpha"/>
<feOffset dy="6.51121"/>
<feGaussianBlur stdDeviation="5.00862"/>
<feColorMatrix type="matrix" values="0 0 0 0 0.109804 0 0 0 0 0.164706 0 0 0 0 0.278431 0 0 0 0.03 0"/>
<feBlend mode="normal" in2="effect2_dropShadow_2678_84629" result="effect3_dropShadow_2678_84629"/>
<feColorMatrix in="SourceAlpha" type="matrix" values="0 0 0 0 0 0 0 0 0 0 0 0 0 0 0 0 0 0 127 0" result="hardAlpha"/>
<feOffset dy="11.6149"/>
<feGaussianBlur stdDeviation="8.93452"/>
<feColorMatrix type="matrix" values="0 0 0 0 0.109804 0 0 0 0 0.164706 0 0 0 0 0.278431 0 0 0 0.0357664 0"/>
<feBlend mode="normal" in2="effect3_dropShadow_2678_84629" result="effect4_dropShadow_2678_84629"/>
<feColorMatrix in="SourceAlpha" type="matrix" values="0 0 0 0 0 0 0 0 0 0 0 0 0 0 0 0 0 0 127 0" result="hardAlpha"/>
<feOffset dy="21.7244"/>
<feGaussianBlur stdDeviation="16.711"/>
<feColorMatrix type="matrix" values="0 0 0 0 0.109804 0 0 0 0 0.164706 0 0 0 0 0.278431 0 0 0 0.0431313 0"/>
<feBlend mode="normal" in2="effect4_dropShadow_2678_84629" result="effect5_dropShadow_2678_84629"/>
<feColorMatrix in="SourceAlpha" type="matrix" values="0 0 0 0 0 0 0 0 0 0 0 0 0 0 0 0 0 0 127 0" result="hardAlpha"/>
<feOffset dy="52"/>
<feGaussianBlur stdDeviation="40"/>
<feColorMatrix type="matrix" values="0 0 0 0 0.109804 0 0 0 0 0.164706 0 0 0 0 0.278431 0 0 0 0.06 0"/>
<feBlend mode="normal" in2="effect5_dropShadow_2678_84629" result="effect6_dropShadow_2678_84629"/>
<feBlend mode="normal" in="SourceGraphic" in2="effect6_dropShadow_2678_84629" result="shape"/>
</filter>
<linearGradient id="paint0_linear_2678_84629" x1="153" y1="20" x2="769" y2="19.9992" gradientUnits="userSpaceOnUse">
<stop offset="0.15625" stop-color="#FF6F00"/>
<stop offset="0.496753" stop-color="#FEDDC3"/>
<stop offset="0.505208" stop-color="#CDE8FF"/>
<stop offset="0.854167" stop-color="#1184E9"/>
</linearGradient>
</defs>
</svg>
