<svg width="200" height="64" viewBox="0 0 200 64" xmlns="http://www.w3.org/2000/svg">
<path d="M116.242 60.1172C115.801 60.1172 115.4 60.043 115.041 59.8945C114.686 59.7422 114.379 59.5293 114.121 59.2559C113.867 58.9824 113.672 58.6582 113.535 58.2832C113.398 57.9082 113.33 57.498 113.33 57.0527V56.8066C113.33 56.291 113.406 55.832 113.559 55.4297C113.711 55.0234 113.918 54.6797 114.18 54.3984C114.441 54.1172 114.738 53.9043 115.07 53.7598C115.402 53.6152 115.746 53.543 116.102 53.543C116.555 53.543 116.945 53.6211 117.273 53.7773C117.605 53.9336 117.877 54.1523 118.088 54.4336C118.299 54.7109 118.455 55.0391 118.557 55.418C118.658 55.793 118.709 56.2031 118.709 56.6484V57.1348H113.975V56.25H117.625V56.168C117.609 55.8867 117.551 55.6133 117.449 55.3477C117.352 55.082 117.195 54.8633 116.98 54.6914C116.766 54.5195 116.473 54.4336 116.102 54.4336C115.855 54.4336 115.629 54.4863 115.422 54.5918C115.215 54.6934 115.037 54.8457 114.889 55.0488C114.74 55.252 114.625 55.5 114.543 55.793C114.461 56.0859 114.42 56.4238 114.42 56.8066V57.0527C114.42 57.3535 114.461 57.6367 114.543 57.9023C114.629 58.1641 114.752 58.3945 114.912 58.5938C115.076 58.793 115.273 58.9492 115.504 59.0625C115.738 59.1758 116.004 59.2324 116.301 59.2324C116.684 59.2324 117.008 59.1543 117.273 58.998C117.539 58.8418 117.771 58.6328 117.971 58.3711L118.627 58.8926C118.49 59.0996 118.316 59.2969 118.105 59.4844C117.895 59.6719 117.635 59.8242 117.326 59.9414C117.021 60.0586 116.66 60.1172 116.242 60.1172Z" fill-opacity="0.85"/>
<path d="M109.809 59.0215L111.543 53.6602H112.65L110.371 60H109.645L109.809 59.0215ZM108.361 53.6602L110.148 59.0508L110.271 60H109.545L107.248 53.6602H108.361Z" fill-opacity="0.85"/>
<path d="M104.793 54.6562V60H103.709V53.6602H104.764L104.793 54.6562ZM106.773 53.625L106.768 54.6328C106.678 54.6133 106.592 54.6016 106.51 54.5977C106.432 54.5898 106.342 54.5859 106.24 54.5859C105.99 54.5859 105.77 54.625 105.578 54.7031C105.387 54.7812 105.225 54.8906 105.092 55.0312C104.959 55.1719 104.854 55.3398 104.775 55.5352C104.701 55.7266 104.652 55.9375 104.629 56.168L104.324 56.3438C104.324 55.9609 104.361 55.6016 104.436 55.2656C104.514 54.9297 104.633 54.6328 104.793 54.375C104.953 54.1133 105.156 53.9102 105.402 53.7656C105.652 53.6172 105.949 53.543 106.293 53.543C106.371 53.543 106.461 53.5527 106.562 53.5723C106.664 53.5879 106.734 53.6055 106.773 53.625Z" fill-opacity="0.85"/>
<path d="M99.9766 60.1172C99.5352 60.1172 99.1348 60.043 98.7754 59.8945C98.4199 59.7422 98.1133 59.5293 97.8555 59.2559C97.6016 58.9824 97.4062 58.6582 97.2695 58.2832C97.1328 57.9082 97.0645 57.498 97.0645 57.0527V56.8066C97.0645 56.291 97.1406 55.832 97.293 55.4297C97.4453 55.0234 97.6523 54.6797 97.9141 54.3984C98.1758 54.1172 98.4727 53.9043 98.8047 53.7598C99.1367 53.6152 99.4805 53.543 99.8359 53.543C100.289 53.543 100.68 53.6211 101.008 53.7773C101.34 53.9336 101.611 54.1523 101.822 54.4336C102.033 54.7109 102.189 55.0391 102.291 55.418C102.393 55.793 102.443 56.2031 102.443 56.6484V57.1348H97.709V56.25H101.359V56.168C101.344 55.8867 101.285 55.6133 101.184 55.3477C101.086 55.082 100.93 54.8633 100.715 54.6914C100.5 54.5195 100.207 54.4336 99.8359 54.4336C99.5898 54.4336 99.3633 54.4863 99.1562 54.5918C98.9492 54.6934 98.7715 54.8457 98.623 55.0488C98.4746 55.252 98.3594 55.5 98.2773 55.793C98.1953 56.0859 98.1543 56.4238 98.1543 56.8066V57.0527C98.1543 57.3535 98.1953 57.6367 98.2773 57.9023C98.3633 58.1641 98.4863 58.3945 98.6465 58.5938C98.8105 58.793 99.0078 58.9492 99.2383 59.0625C99.4727 59.1758 99.7383 59.2324 100.035 59.2324C100.418 59.2324 100.742 59.1543 101.008 58.998C101.273 58.8418 101.506 58.6328 101.705 58.3711L102.361 58.8926C102.225 59.0996 102.051 59.2969 101.84 59.4844C101.629 59.6719 101.369 59.8242 101.061 59.9414C100.756 60.0586 100.395 60.1172 99.9766 60.1172Z" fill-opacity="0.85"/>
<path d="M94.9316 57.8438C94.9316 57.6445 94.9004 57.4688 94.8379 57.3164C94.7793 57.1602 94.6738 57.0195 94.5215 56.8945C94.373 56.7695 94.166 56.6504 93.9004 56.5371C93.6387 56.4238 93.3066 56.3086 92.9043 56.1914C92.4824 56.0664 92.1016 55.9277 91.7617 55.7754C91.4219 55.6191 91.1309 55.4414 90.8887 55.2422C90.6465 55.043 90.4609 54.8145 90.332 54.5566C90.2031 54.2988 90.1387 54.0039 90.1387 53.6719C90.1387 53.3398 90.207 53.0332 90.3438 52.752C90.4805 52.4707 90.6758 52.2266 90.9297 52.0195C91.1875 51.8086 91.4941 51.6445 91.8496 51.5273C92.2051 51.4102 92.6016 51.3516 93.0391 51.3516C93.6797 51.3516 94.2227 51.4746 94.668 51.7207C95.1172 51.9629 95.459 52.2812 95.6934 52.6758C95.9277 53.0664 96.0449 53.4844 96.0449 53.9297H94.9199C94.9199 53.6094 94.8516 53.3262 94.7148 53.0801C94.5781 52.8301 94.3711 52.6348 94.0938 52.4941C93.8164 52.3496 93.4648 52.2773 93.0391 52.2773C92.6367 52.2773 92.3047 52.3379 92.043 52.459C91.7812 52.5801 91.5859 52.7441 91.457 52.9512C91.332 53.1582 91.2695 53.3945 91.2695 53.6602C91.2695 53.8398 91.3066 54.0039 91.3809 54.1523C91.459 54.2969 91.5781 54.4316 91.7383 54.5566C91.9023 54.6816 92.1094 54.7969 92.3594 54.9023C92.6133 55.0078 92.916 55.1094 93.2676 55.207C93.752 55.3438 94.1699 55.4961 94.5215 55.6641C94.873 55.832 95.1621 56.0215 95.3887 56.2324C95.6191 56.4395 95.7891 56.6758 95.8984 56.9414C96.0117 57.2031 96.0684 57.5 96.0684 57.832C96.0684 58.1797 95.998 58.4941 95.8574 58.7754C95.7168 59.0566 95.5156 59.2969 95.2539 59.4961C94.9922 59.6953 94.6777 59.8496 94.3105 59.959C93.9473 60.0645 93.541 60.1172 93.0918 60.1172C92.6973 60.1172 92.3086 60.0625 91.9258 59.9531C91.5469 59.8438 91.2012 59.6797 90.8887 59.4609C90.5801 59.2422 90.332 58.9727 90.1445 58.6523C89.9609 58.3281 89.8691 57.9531 89.8691 57.5273H90.9941C90.9941 57.8203 91.0508 58.0723 91.1641 58.2832C91.2773 58.4902 91.4316 58.6621 91.627 58.7988C91.8262 58.9355 92.0508 59.0371 92.3008 59.1035C92.5547 59.166 92.8184 59.1973 93.0918 59.1973C93.4863 59.1973 93.8203 59.1426 94.0938 59.0332C94.3672 58.9238 94.5742 58.7676 94.7148 58.5645C94.8594 58.3613 94.9316 58.1211 94.9316 57.8438Z" fill-opacity="0.85"/>
<path d="M88.9492 53.6602V54.4922H85.5215V53.6602H88.9492ZM86.6816 52.1191H87.7656V58.4297C87.7656 58.6445 87.7988 58.8066 87.8652 58.916C87.9316 59.0254 88.0176 59.0977 88.123 59.1328C88.2285 59.168 88.3418 59.1855 88.4629 59.1855C88.5527 59.1855 88.6465 59.1777 88.7441 59.1621C88.8457 59.1426 88.9219 59.127 88.9727 59.1152L88.9785 60C88.8926 60.0273 88.7793 60.0527 88.6387 60.0762C88.502 60.1035 88.3359 60.1172 88.1406 60.1172C87.875 60.1172 87.6309 60.0645 87.4082 59.959C87.1855 59.8535 87.0078 59.6777 86.875 59.4316C86.7461 59.1816 86.6816 58.8457 86.6816 58.4238V52.1191Z" fill-opacity="0.85"/>
<path d="M83.7402 60H82.6562V52.9922C82.6562 52.5352 82.7383 52.1504 82.9023 51.8379C83.0703 51.5215 83.3105 51.2832 83.623 51.123C83.9355 50.959 84.3066 50.877 84.7363 50.877C84.8613 50.877 84.9863 50.8848 85.1113 50.9004C85.2402 50.916 85.3652 50.9395 85.4863 50.9707L85.4277 51.8555C85.3457 51.8359 85.252 51.8223 85.1465 51.8145C85.0449 51.8066 84.9434 51.8027 84.8418 51.8027C84.6113 51.8027 84.4121 51.8496 84.2441 51.9434C84.0801 52.0332 83.9551 52.166 83.8691 52.3418C83.7832 52.5176 83.7402 52.7344 83.7402 52.9922V60ZM85.0879 53.6602V54.4922H81.6543V53.6602H85.0879Z" fill-opacity="0.85"/>
<path d="M74.9922 56.9004V56.7656C74.9922 56.3086 75.0586 55.8848 75.1914 55.4941C75.3242 55.0996 75.5156 54.7578 75.7656 54.4688C76.0156 54.1758 76.3184 53.9492 76.6738 53.7891C77.0293 53.625 77.4277 53.543 77.8691 53.543C78.3145 53.543 78.7148 53.625 79.0703 53.7891C79.4297 53.9492 79.7344 54.1758 79.9844 54.4688C80.2383 54.7578 80.4316 55.0996 80.5645 55.4941C80.6973 55.8848 80.7637 56.3086 80.7637 56.7656V56.9004C80.7637 57.3574 80.6973 57.7812 80.5645 58.1719C80.4316 58.5625 80.2383 58.9043 79.9844 59.1973C79.7344 59.4863 79.4316 59.7129 79.0762 59.877C78.7246 60.0371 78.3262 60.1172 77.8809 60.1172C77.4355 60.1172 77.0352 60.0371 76.6797 59.877C76.3242 59.7129 76.0195 59.4863 75.7656 59.1973C75.5156 58.9043 75.3242 58.5625 75.1914 58.1719C75.0586 57.7812 74.9922 57.3574 74.9922 56.9004ZM76.0762 56.7656V56.9004C76.0762 57.2168 76.1133 57.5156 76.1875 57.7969C76.2617 58.0742 76.373 58.3203 76.5215 58.5352C76.6738 58.75 76.8633 58.9199 77.0898 59.0449C77.3164 59.166 77.5801 59.2266 77.8809 59.2266C78.1777 59.2266 78.4375 59.166 78.6602 59.0449C78.8867 58.9199 79.0742 58.75 79.2227 58.5352C79.3711 58.3203 79.4824 58.0742 79.5566 57.7969C79.6348 57.5156 79.6738 57.2168 79.6738 56.9004V56.7656C79.6738 56.4531 79.6348 56.1582 79.5566 55.8809C79.4824 55.5996 79.3691 55.3516 79.2168 55.1367C79.0684 54.918 78.8809 54.7461 78.6543 54.6211C78.4316 54.4961 78.1699 54.4336 77.8691 54.4336C77.5723 54.4336 77.3105 54.4961 77.084 54.6211C76.8613 54.7461 76.6738 54.918 76.5215 55.1367C76.373 55.3516 76.2617 55.5996 76.1875 55.8809C76.1133 56.1582 76.0762 56.4531 76.0762 56.7656Z" fill-opacity="0.85"/>
<path d="M72.8652 57.8438C72.8652 57.6445 72.834 57.4688 72.7715 57.3164C72.7129 57.1602 72.6074 57.0195 72.4551 56.8945C72.3066 56.7695 72.0996 56.6504 71.834 56.5371C71.5723 56.4238 71.2402 56.3086 70.8379 56.1914C70.416 56.0664 70.0352 55.9277 69.6953 55.7754C69.3555 55.6191 69.0645 55.4414 68.8223 55.2422C68.5801 55.043 68.3945 54.8145 68.2656 54.5566C68.1367 54.2988 68.0723 54.0039 68.0723 53.6719C68.0723 53.3398 68.1406 53.0332 68.2773 52.752C68.4141 52.4707 68.6094 52.2266 68.8633 52.0195C69.1211 51.8086 69.4277 51.6445 69.7832 51.5273C70.1387 51.4102 70.5352 51.3516 70.9727 51.3516C71.6133 51.3516 72.1562 51.4746 72.6016 51.7207C73.0508 51.9629 73.3926 52.2812 73.627 52.6758C73.8613 53.0664 73.9785 53.4844 73.9785 53.9297H72.8535C72.8535 53.6094 72.7852 53.3262 72.6484 53.0801C72.5117 52.8301 72.3047 52.6348 72.0273 52.4941C71.75 52.3496 71.3984 52.2773 70.9727 52.2773C70.5703 52.2773 70.2383 52.3379 69.9766 52.459C69.7148 52.5801 69.5195 52.7441 69.3906 52.9512C69.2656 53.1582 69.2031 53.3945 69.2031 53.6602C69.2031 53.8398 69.2402 54.0039 69.3145 54.1523C69.3926 54.2969 69.5117 54.4316 69.6719 54.5566C69.8359 54.6816 70.043 54.7969 70.293 54.9023C70.5469 55.0078 70.8496 55.1094 71.2012 55.207C71.6855 55.3438 72.1035 55.4961 72.4551 55.6641C72.8066 55.832 73.0957 56.0215 73.3223 56.2324C73.5527 56.4395 73.7227 56.6758 73.832 56.9414C73.9453 57.2031 74.002 57.5 74.002 57.832C74.002 58.1797 73.9316 58.4941 73.791 58.7754C73.6504 59.0566 73.4492 59.2969 73.1875 59.4961C72.9258 59.6953 72.6113 59.8496 72.2441 59.959C71.8809 60.0645 71.4746 60.1172 71.0254 60.1172C70.6309 60.1172 70.2422 60.0625 69.8594 59.9531C69.4805 59.8438 69.1348 59.6797 68.8223 59.4609C68.5137 59.2422 68.2656 58.9727 68.0781 58.6523C67.8945 58.3281 67.8027 57.9531 67.8027 57.5273H68.9277C68.9277 57.8203 68.9844 58.0723 69.0977 58.2832C69.2109 58.4902 69.3652 58.6621 69.5605 58.7988C69.7598 58.9355 69.9844 59.0371 70.2344 59.1035C70.4883 59.166 70.752 59.1973 71.0254 59.1973C71.4199 59.1973 71.7539 59.1426 72.0273 59.0332C72.3008 58.9238 72.5078 58.7676 72.6484 58.5645C72.793 58.3613 72.8652 58.1211 72.8652 57.8438Z" fill-opacity="0.85"/>
<path d="M61.2754 59.3438L63.0391 53.6602H64.1992L61.6562 60.9785C61.5977 61.1348 61.5195 61.3027 61.4219 61.4824C61.3281 61.666 61.207 61.8398 61.0586 62.0039C60.9102 62.168 60.7305 62.3008 60.5195 62.4023C60.3125 62.5078 60.0645 62.5605 59.7754 62.5605C59.6895 62.5605 59.5801 62.5488 59.4473 62.5254C59.3145 62.502 59.2207 62.4824 59.166 62.4668L59.1602 61.5879C59.1914 61.5918 59.2402 61.5957 59.3066 61.5996C59.377 61.6074 59.4258 61.6113 59.4531 61.6113C59.6992 61.6113 59.9082 61.5781 60.0801 61.5117C60.252 61.4492 60.3965 61.3418 60.5137 61.1895C60.6348 61.041 60.7383 60.8359 60.8242 60.5742L61.2754 59.3438ZM59.9805 53.6602L61.627 58.582L61.9082 59.7246L61.1289 60.123L58.7969 53.6602H59.9805Z" fill-opacity="0.85"/>
<path d="M52.8203 51H53.9102V58.7695L53.8164 60H52.8203V51ZM58.1934 56.7773V56.9004C58.1934 57.3613 58.1387 57.7891 58.0293 58.1836C57.9199 58.5742 57.7598 58.9141 57.5488 59.2031C57.3379 59.4922 57.0801 59.7168 56.7754 59.877C56.4707 60.0371 56.1211 60.1172 55.7266 60.1172C55.3242 60.1172 54.9707 60.0488 54.666 59.9121C54.3652 59.7715 54.1113 59.5703 53.9043 59.3086C53.6973 59.0469 53.5312 58.7305 53.4062 58.3594C53.2852 57.9883 53.2012 57.5703 53.1543 57.1055V56.5664C53.2012 56.0977 53.2852 55.6777 53.4062 55.3066C53.5312 54.9355 53.6973 54.6191 53.9043 54.3574C54.1113 54.0918 54.3652 53.8906 54.666 53.7539C54.9668 53.6133 55.3164 53.543 55.7148 53.543C56.1133 53.543 56.4668 53.6211 56.7754 53.7773C57.084 53.9297 57.3418 54.1484 57.5488 54.4336C57.7598 54.7188 57.9199 55.0605 58.0293 55.459C58.1387 55.8535 58.1934 56.293 58.1934 56.7773ZM57.1035 56.9004V56.7773C57.1035 56.4609 57.0742 56.1641 57.0156 55.8867C56.957 55.6055 56.8633 55.3594 56.7344 55.1484C56.6055 54.9336 56.4355 54.7656 56.2246 54.6445C56.0137 54.5195 55.7539 54.457 55.4453 54.457C55.1719 54.457 54.9336 54.5039 54.7305 54.5977C54.5312 54.6914 54.3613 54.8184 54.2207 54.9785C54.0801 55.1348 53.9648 55.3145 53.875 55.5176C53.7891 55.7168 53.7246 55.9238 53.6816 56.1387V57.5508C53.7441 57.8242 53.8457 58.0879 53.9863 58.3418C54.1309 58.5918 54.3223 58.7969 54.5605 58.957C54.8027 59.1172 55.1016 59.1973 55.457 59.1973C55.75 59.1973 56 59.1387 56.207 59.0215C56.418 58.9004 56.5879 58.7344 56.7168 58.5234C56.8496 58.3125 56.9473 58.0684 57.0098 57.791C57.0723 57.5137 57.1035 57.2168 57.1035 56.9004Z" fill-opacity="0.85"/>
<path d="M197.939 42.3184C197.939 42.1621 197.904 42.0176 197.834 41.8848C197.768 41.748 197.629 41.625 197.418 41.5156C197.211 41.4023 196.898 41.3047 196.48 41.2227C196.129 41.1484 195.811 41.0605 195.525 40.959C195.244 40.8574 195.004 40.7344 194.805 40.5898C194.609 40.4453 194.459 40.2754 194.354 40.0801C194.248 39.8848 194.195 39.6562 194.195 39.3945C194.195 39.1445 194.25 38.9082 194.359 38.6855C194.473 38.4629 194.631 38.2656 194.834 38.0938C195.041 37.9219 195.289 37.7871 195.578 37.6895C195.867 37.5918 196.189 37.543 196.545 37.543C197.053 37.543 197.486 37.6328 197.846 37.8125C198.205 37.9922 198.48 38.2324 198.672 38.5332C198.863 38.8301 198.959 39.1602 198.959 39.5234H197.875C197.875 39.3477 197.822 39.1777 197.717 39.0137C197.615 38.8457 197.465 38.707 197.266 38.5977C197.07 38.4883 196.83 38.4336 196.545 38.4336C196.244 38.4336 196 38.4805 195.812 38.5742C195.629 38.6641 195.494 38.7793 195.408 38.9199C195.326 39.0605 195.285 39.209 195.285 39.3652C195.285 39.4824 195.305 39.5879 195.344 39.6816C195.387 39.7715 195.461 39.8555 195.566 39.9336C195.672 40.0078 195.82 40.0781 196.012 40.1445C196.203 40.2109 196.447 40.2773 196.744 40.3438C197.264 40.4609 197.691 40.6016 198.027 40.7656C198.363 40.9297 198.613 41.1309 198.777 41.3691C198.941 41.6074 199.023 41.8965 199.023 42.2363C199.023 42.5137 198.965 42.7676 198.848 42.998C198.734 43.2285 198.568 43.4277 198.35 43.5957C198.135 43.7598 197.877 43.8887 197.576 43.9824C197.279 44.0723 196.945 44.1172 196.574 44.1172C196.016 44.1172 195.543 44.0176 195.156 43.8184C194.77 43.6191 194.477 43.3613 194.277 43.0449C194.078 42.7285 193.979 42.3945 193.979 42.043H195.068C195.084 42.3398 195.17 42.5762 195.326 42.752C195.482 42.9238 195.674 43.0469 195.9 43.1211C196.127 43.1914 196.352 43.2266 196.574 43.2266C196.871 43.2266 197.119 43.1875 197.318 43.1094C197.521 43.0312 197.676 42.9238 197.781 42.7871C197.887 42.6504 197.939 42.4941 197.939 42.3184Z" fill-opacity="0.85"/>
<path d="M190.516 44.1172C190.074 44.1172 189.674 44.043 189.314 43.8945C188.959 43.7422 188.652 43.5293 188.395 43.2559C188.141 42.9824 187.945 42.6582 187.809 42.2832C187.672 41.9082 187.604 41.498 187.604 41.0527V40.8066C187.604 40.291 187.68 39.832 187.832 39.4297C187.984 39.0234 188.191 38.6797 188.453 38.3984C188.715 38.1172 189.012 37.9043 189.344 37.7598C189.676 37.6152 190.02 37.543 190.375 37.543C190.828 37.543 191.219 37.6211 191.547 37.7773C191.879 37.9336 192.15 38.1523 192.361 38.4336C192.572 38.7109 192.729 39.0391 192.83 39.418C192.932 39.793 192.982 40.2031 192.982 40.6484V41.1348H188.248V40.25H191.898V40.168C191.883 39.8867 191.824 39.6133 191.723 39.3477C191.625 39.082 191.469 38.8633 191.254 38.6914C191.039 38.5195 190.746 38.4336 190.375 38.4336C190.129 38.4336 189.902 38.4863 189.695 38.5918C189.488 38.6934 189.311 38.8457 189.162 39.0488C189.014 39.252 188.898 39.5 188.816 39.793C188.734 40.0859 188.693 40.4238 188.693 40.8066V41.0527C188.693 41.3535 188.734 41.6367 188.816 41.9023C188.902 42.1641 189.025 42.3945 189.186 42.5938C189.35 42.793 189.547 42.9492 189.777 43.0625C190.012 43.1758 190.277 43.2324 190.574 43.2324C190.957 43.2324 191.281 43.1543 191.547 42.998C191.812 42.8418 192.045 42.6328 192.244 42.3711L192.9 42.8926C192.764 43.0996 192.59 43.2969 192.379 43.4844C192.168 43.6719 191.908 43.8242 191.6 43.9414C191.295 44.0586 190.934 44.1172 190.516 44.1172Z" fill-opacity="0.85"/>
<path d="M184.141 43.2266C184.398 43.2266 184.637 43.1738 184.855 43.0684C185.074 42.9629 185.254 42.8184 185.395 42.6348C185.535 42.4473 185.615 42.2344 185.635 41.9961H186.666C186.646 42.3711 186.52 42.7207 186.285 43.0449C186.055 43.3652 185.752 43.625 185.377 43.8242C185.002 44.0195 184.59 44.1172 184.141 44.1172C183.664 44.1172 183.248 44.0332 182.893 43.8652C182.541 43.6973 182.248 43.4668 182.014 43.1738C181.783 42.8809 181.609 42.5449 181.492 42.166C181.379 41.7832 181.322 41.3789 181.322 40.9531V40.707C181.322 40.2812 181.379 39.8789 181.492 39.5C181.609 39.1172 181.783 38.7793 182.014 38.4863C182.248 38.1934 182.541 37.9629 182.893 37.7949C183.248 37.627 183.664 37.543 184.141 37.543C184.637 37.543 185.07 37.6445 185.441 37.8477C185.812 38.0469 186.104 38.3203 186.314 38.668C186.529 39.0117 186.646 39.4023 186.666 39.8398H185.635C185.615 39.5781 185.541 39.3418 185.412 39.1309C185.287 38.9199 185.115 38.752 184.896 38.627C184.682 38.498 184.43 38.4336 184.141 38.4336C183.809 38.4336 183.529 38.5 183.303 38.6328C183.08 38.7617 182.902 38.9375 182.77 39.1602C182.641 39.3789 182.547 39.623 182.488 39.8926C182.434 40.1582 182.406 40.4297 182.406 40.707V40.9531C182.406 41.2305 182.434 41.5039 182.488 41.7734C182.543 42.043 182.635 42.2871 182.764 42.5059C182.896 42.7246 183.074 42.9004 183.297 43.0332C183.523 43.1621 183.805 43.2266 184.141 43.2266Z" fill-opacity="0.85"/>
<path d="M176.055 39.0137V44H174.971V37.6602H175.996L176.055 39.0137ZM175.797 40.5898L175.346 40.5723C175.35 40.1387 175.414 39.7383 175.539 39.3711C175.664 39 175.84 38.6777 176.066 38.4043C176.293 38.1309 176.562 37.9199 176.875 37.7715C177.191 37.6191 177.541 37.543 177.924 37.543C178.236 37.543 178.518 37.5859 178.768 37.6719C179.018 37.7539 179.23 37.8867 179.406 38.0703C179.586 38.2539 179.723 38.4922 179.816 38.7852C179.91 39.0742 179.957 39.4277 179.957 39.8457V44H178.867V39.834C178.867 39.502 178.818 39.2363 178.721 39.0371C178.623 38.834 178.48 38.6875 178.293 38.5977C178.105 38.5039 177.875 38.457 177.602 38.457C177.332 38.457 177.086 38.5137 176.863 38.627C176.645 38.7402 176.455 38.8965 176.295 39.0957C176.139 39.2949 176.016 39.5234 175.926 39.7812C175.84 40.0352 175.797 40.3047 175.797 40.5898Z" fill-opacity="0.85"/>
<path d="M171.238 44.1172C170.797 44.1172 170.396 44.043 170.037 43.8945C169.682 43.7422 169.375 43.5293 169.117 43.2559C168.863 42.9824 168.668 42.6582 168.531 42.2832C168.395 41.9082 168.326 41.498 168.326 41.0527V40.8066C168.326 40.291 168.402 39.832 168.555 39.4297C168.707 39.0234 168.914 38.6797 169.176 38.3984C169.438 38.1172 169.734 37.9043 170.066 37.7598C170.398 37.6152 170.742 37.543 171.098 37.543C171.551 37.543 171.941 37.6211 172.27 37.7773C172.602 37.9336 172.873 38.1523 173.084 38.4336C173.295 38.7109 173.451 39.0391 173.553 39.418C173.654 39.793 173.705 40.2031 173.705 40.6484V41.1348H168.971V40.25H172.621V40.168C172.605 39.8867 172.547 39.6133 172.445 39.3477C172.348 39.082 172.191 38.8633 171.977 38.6914C171.762 38.5195 171.469 38.4336 171.098 38.4336C170.852 38.4336 170.625 38.4863 170.418 38.5918C170.211 38.6934 170.033 38.8457 169.885 39.0488C169.736 39.252 169.621 39.5 169.539 39.793C169.457 40.0859 169.416 40.4238 169.416 40.8066V41.0527C169.416 41.3535 169.457 41.6367 169.539 41.9023C169.625 42.1641 169.748 42.3945 169.908 42.5938C170.072 42.793 170.27 42.9492 170.5 43.0625C170.734 43.1758 171 43.2324 171.297 43.2324C171.68 43.2324 172.004 43.1543 172.27 42.998C172.535 42.8418 172.768 42.6328 172.967 42.3711L173.623 42.8926C173.486 43.0996 173.312 43.2969 173.102 43.4844C172.891 43.6719 172.631 43.8242 172.322 43.9414C172.018 44.0586 171.656 44.1172 171.238 44.1172Z" fill-opacity="0.85"/>
<path d="M166.867 37.6602V44H165.777V37.6602H166.867ZM165.695 35.9785C165.695 35.8027 165.748 35.6543 165.854 35.5332C165.963 35.4121 166.123 35.3516 166.334 35.3516C166.541 35.3516 166.699 35.4121 166.809 35.5332C166.922 35.6543 166.979 35.8027 166.979 35.9785C166.979 36.1465 166.922 36.291 166.809 36.4121C166.699 36.5293 166.541 36.5879 166.334 36.5879C166.123 36.5879 165.963 36.5293 165.854 36.4121C165.748 36.291 165.695 36.1465 165.695 35.9785Z" fill-opacity="0.85"/>
<path d="M162.707 38.6562V44H161.623V37.6602H162.678L162.707 38.6562ZM164.688 37.625L164.682 38.6328C164.592 38.6133 164.506 38.6016 164.424 38.5977C164.346 38.5898 164.256 38.5859 164.154 38.5859C163.904 38.5859 163.684 38.625 163.492 38.7031C163.301 38.7812 163.139 38.8906 163.006 39.0312C162.873 39.1719 162.768 39.3398 162.689 39.5352C162.615 39.7266 162.566 39.9375 162.543 40.168L162.238 40.3438C162.238 39.9609 162.275 39.6016 162.35 39.2656C162.428 38.9297 162.547 38.6328 162.707 38.375C162.867 38.1133 163.07 37.9102 163.316 37.7656C163.566 37.6172 163.863 37.543 164.207 37.543C164.285 37.543 164.375 37.5527 164.477 37.5723C164.578 37.5879 164.648 37.6055 164.688 37.625Z" fill-opacity="0.85"/>
<path d="M157.891 44.1172C157.449 44.1172 157.049 44.043 156.689 43.8945C156.334 43.7422 156.027 43.5293 155.77 43.2559C155.516 42.9824 155.32 42.6582 155.184 42.2832C155.047 41.9082 154.979 41.498 154.979 41.0527V40.8066C154.979 40.291 155.055 39.832 155.207 39.4297C155.359 39.0234 155.566 38.6797 155.828 38.3984C156.09 38.1172 156.387 37.9043 156.719 37.7598C157.051 37.6152 157.395 37.543 157.75 37.543C158.203 37.543 158.594 37.6211 158.922 37.7773C159.254 37.9336 159.525 38.1523 159.736 38.4336C159.947 38.7109 160.104 39.0391 160.205 39.418C160.307 39.793 160.357 40.2031 160.357 40.6484V41.1348H155.623V40.25H159.273V40.168C159.258 39.8867 159.199 39.6133 159.098 39.3477C159 39.082 158.844 38.8633 158.629 38.6914C158.414 38.5195 158.121 38.4336 157.75 38.4336C157.504 38.4336 157.277 38.4863 157.07 38.5918C156.863 38.6934 156.686 38.8457 156.537 39.0488C156.389 39.252 156.273 39.5 156.191 39.793C156.109 40.0859 156.068 40.4238 156.068 40.8066V41.0527C156.068 41.3535 156.109 41.6367 156.191 41.9023C156.277 42.1641 156.4 42.3945 156.561 42.5938C156.725 42.793 156.922 42.9492 157.152 43.0625C157.387 43.1758 157.652 43.2324 157.949 43.2324C158.332 43.2324 158.656 43.1543 158.922 42.998C159.188 42.8418 159.42 42.6328 159.619 42.3711L160.275 42.8926C160.139 43.0996 159.965 43.2969 159.754 43.4844C159.543 43.6719 159.283 43.8242 158.975 43.9414C158.67 44.0586 158.309 44.1172 157.891 44.1172Z" fill-opacity="0.85"/>
<path d="M149.605 38.8789V46.4375H148.516V37.6602H149.512L149.605 38.8789ZM153.877 40.7773V40.9004C153.877 41.3613 153.822 41.7891 153.713 42.1836C153.604 42.5742 153.443 42.9141 153.232 43.2031C153.025 43.4922 152.77 43.7168 152.465 43.877C152.16 44.0371 151.811 44.1172 151.416 44.1172C151.014 44.1172 150.658 44.0508 150.35 43.918C150.041 43.7852 149.779 43.5918 149.564 43.3379C149.35 43.084 149.178 42.7793 149.049 42.4238C148.924 42.0684 148.838 41.668 148.791 41.2227V40.5664C148.838 40.0977 148.926 39.6777 149.055 39.3066C149.184 38.9355 149.354 38.6191 149.564 38.3574C149.779 38.0918 150.039 37.8906 150.344 37.7539C150.648 37.6133 151 37.543 151.398 37.543C151.797 37.543 152.15 37.6211 152.459 37.7773C152.768 37.9297 153.027 38.1484 153.238 38.4336C153.449 38.7188 153.607 39.0605 153.713 39.459C153.822 39.8535 153.877 40.293 153.877 40.7773ZM152.787 40.9004V40.7773C152.787 40.4609 152.754 40.1641 152.688 39.8867C152.621 39.6055 152.518 39.3594 152.377 39.1484C152.24 38.9336 152.064 38.7656 151.85 38.6445C151.635 38.5195 151.379 38.457 151.082 38.457C150.809 38.457 150.57 38.5039 150.367 38.5977C150.168 38.6914 149.998 38.8184 149.857 38.9785C149.717 39.1348 149.602 39.3145 149.512 39.5176C149.426 39.7168 149.361 39.9238 149.318 40.1387V41.6562C149.396 41.9297 149.506 42.1875 149.646 42.4297C149.787 42.668 149.975 42.8613 150.209 43.0098C150.443 43.1543 150.738 43.2266 151.094 43.2266C151.387 43.2266 151.639 43.166 151.85 43.0449C152.064 42.9199 152.24 42.75 152.377 42.5352C152.518 42.3203 152.621 42.0742 152.688 41.7969C152.754 41.5156 152.787 41.2168 152.787 40.9004Z" fill-opacity="0.85"/>
<path d="M143.301 37.6602L144.689 39.9688L146.096 37.6602H147.367L145.293 40.7891L147.432 44H146.178L144.713 41.6211L143.248 44H141.988L144.121 40.7891L142.053 37.6602H143.301Z" fill-opacity="0.85"/>
<path d="M141.332 43.0801V44H136.814V43.0801H141.332ZM137.043 35.4688V44H135.912V35.4688H137.043ZM140.734 39.1367V40.0566H136.814V39.1367H140.734ZM141.273 35.4688V36.3945H136.814V35.4688H141.273Z" fill-opacity="0.85"/>
<path d="M131.031 35V44H129.941V35H131.031Z" fill-opacity="0.85"/>
<path d="M127.064 42.916V39.6523C127.064 39.4023 127.014 39.1855 126.912 39.002C126.814 38.8145 126.666 38.6699 126.467 38.5684C126.268 38.4668 126.021 38.416 125.729 38.416C125.455 38.416 125.215 38.4629 125.008 38.5566C124.805 38.6504 124.645 38.7734 124.527 38.9258C124.414 39.0781 124.357 39.2422 124.357 39.418H123.273C123.273 39.1914 123.332 38.9668 123.449 38.7441C123.566 38.5215 123.734 38.3203 123.953 38.1406C124.176 37.957 124.441 37.8125 124.75 37.707C125.062 37.5977 125.41 37.543 125.793 37.543C126.254 37.543 126.66 37.6211 127.012 37.7773C127.367 37.9336 127.645 38.1699 127.844 38.4863C128.047 38.7988 128.148 39.1914 128.148 39.6641V42.6172C128.148 42.8281 128.166 43.0527 128.201 43.291C128.24 43.5293 128.297 43.7344 128.371 43.9062V44H127.24C127.186 43.875 127.143 43.709 127.111 43.502C127.08 43.291 127.064 43.0957 127.064 42.916ZM127.252 40.1562L127.264 40.918H126.168C125.859 40.918 125.584 40.9434 125.342 40.9941C125.1 41.041 124.896 41.1133 124.732 41.2109C124.568 41.3086 124.443 41.4316 124.357 41.5801C124.271 41.7246 124.229 41.8945 124.229 42.0898C124.229 42.2891 124.273 42.4707 124.363 42.6348C124.453 42.7988 124.588 42.9297 124.768 43.0273C124.951 43.1211 125.176 43.168 125.441 43.168C125.773 43.168 126.066 43.0977 126.32 42.957C126.574 42.8164 126.775 42.6445 126.924 42.4414C127.076 42.2383 127.158 42.041 127.17 41.8496L127.633 42.3711C127.605 42.5352 127.531 42.7168 127.41 42.916C127.289 43.1152 127.127 43.3066 126.924 43.4902C126.725 43.6699 126.486 43.8203 126.209 43.9414C125.936 44.0586 125.627 44.1172 125.283 44.1172C124.854 44.1172 124.477 44.0332 124.152 43.8652C123.832 43.6973 123.582 43.4727 123.402 43.1914C123.227 42.9062 123.139 42.5879 123.139 42.2363C123.139 41.8965 123.205 41.5977 123.338 41.3398C123.471 41.0781 123.662 40.8613 123.912 40.6895C124.162 40.5137 124.463 40.3809 124.814 40.291C125.166 40.2012 125.559 40.1562 125.992 40.1562H127.252Z" fill-opacity="0.85"/>
<path d="M117.777 39.0137V44H116.693V37.6602H117.719L117.777 39.0137ZM117.52 40.5898L117.068 40.5723C117.072 40.1387 117.137 39.7383 117.262 39.3711C117.387 39 117.562 38.6777 117.789 38.4043C118.016 38.1309 118.285 37.9199 118.598 37.7715C118.914 37.6191 119.264 37.543 119.646 37.543C119.959 37.543 120.24 37.5859 120.49 37.6719C120.74 37.7539 120.953 37.8867 121.129 38.0703C121.309 38.2539 121.445 38.4922 121.539 38.7852C121.633 39.0742 121.68 39.4277 121.68 39.8457V44H120.59V39.834C120.59 39.502 120.541 39.2363 120.443 39.0371C120.346 38.834 120.203 38.6875 120.016 38.5977C119.828 38.5039 119.598 38.457 119.324 38.457C119.055 38.457 118.809 38.5137 118.586 38.627C118.367 38.7402 118.178 38.8965 118.018 39.0957C117.861 39.2949 117.738 39.5234 117.648 39.7812C117.562 40.0352 117.52 40.3047 117.52 40.5898Z" fill-opacity="0.85"/>
<path d="M109.562 40.9004V40.7656C109.562 40.3086 109.629 39.8848 109.762 39.4941C109.895 39.0996 110.086 38.7578 110.336 38.4688C110.586 38.1758 110.889 37.9492 111.244 37.7891C111.6 37.625 111.998 37.543 112.439 37.543C112.885 37.543 113.285 37.625 113.641 37.7891C114 37.9492 114.305 38.1758 114.555 38.4688C114.809 38.7578 115.002 39.0996 115.135 39.4941C115.268 39.8848 115.334 40.3086 115.334 40.7656V40.9004C115.334 41.3574 115.268 41.7812 115.135 42.1719C115.002 42.5625 114.809 42.9043 114.555 43.1973C114.305 43.4863 114.002 43.7129 113.646 43.877C113.295 44.0371 112.896 44.1172 112.451 44.1172C112.006 44.1172 111.605 44.0371 111.25 43.877C110.895 43.7129 110.59 43.4863 110.336 43.1973C110.086 42.9043 109.895 42.5625 109.762 42.1719C109.629 41.7812 109.562 41.3574 109.562 40.9004ZM110.646 40.7656V40.9004C110.646 41.2168 110.684 41.5156 110.758 41.7969C110.832 42.0742 110.943 42.3203 111.092 42.5352C111.244 42.75 111.434 42.9199 111.66 43.0449C111.887 43.166 112.15 43.2266 112.451 43.2266C112.748 43.2266 113.008 43.166 113.23 43.0449C113.457 42.9199 113.645 42.75 113.793 42.5352C113.941 42.3203 114.053 42.0742 114.127 41.7969C114.205 41.5156 114.244 41.2168 114.244 40.9004V40.7656C114.244 40.4531 114.205 40.1582 114.127 39.8809C114.053 39.5996 113.939 39.3516 113.787 39.1367C113.639 38.918 113.451 38.7461 113.225 38.6211C113.002 38.4961 112.74 38.4336 112.439 38.4336C112.143 38.4336 111.881 38.4961 111.654 38.6211C111.432 38.7461 111.244 38.918 111.092 39.1367C110.943 39.3516 110.832 39.5996 110.758 39.8809C110.684 40.1582 110.646 40.4531 110.646 40.7656Z" fill-opacity="0.85"/>
<path d="M108.109 37.6602V44H107.02V37.6602H108.109ZM106.938 35.9785C106.938 35.8027 106.99 35.6543 107.096 35.5332C107.205 35.4121 107.365 35.3516 107.576 35.3516C107.783 35.3516 107.941 35.4121 108.051 35.5332C108.164 35.6543 108.221 35.8027 108.221 35.9785C108.221 36.1465 108.164 36.291 108.051 36.4121C107.941 36.5293 107.783 36.5879 107.576 36.5879C107.365 36.5879 107.205 36.5293 107.096 36.4121C106.99 36.291 106.938 36.1465 106.938 35.9785Z" fill-opacity="0.85"/>
<path d="M105.66 37.6602V38.4922H102.232V37.6602H105.66ZM103.393 36.1191H104.477V42.4297C104.477 42.6445 104.51 42.8066 104.576 42.916C104.643 43.0254 104.729 43.0977 104.834 43.1328C104.939 43.168 105.053 43.1855 105.174 43.1855C105.264 43.1855 105.357 43.1777 105.455 43.1621C105.557 43.1426 105.633 43.127 105.684 43.1152L105.689 44C105.604 44.0273 105.49 44.0527 105.35 44.0762C105.213 44.1035 105.047 44.1172 104.852 44.1172C104.586 44.1172 104.342 44.0645 104.119 43.959C103.896 43.8535 103.719 43.6777 103.586 43.4316C103.457 43.1816 103.393 42.8457 103.393 42.4238V36.1191Z" fill-opacity="0.85"/>
<path d="M100.217 42.916V39.6523C100.217 39.4023 100.166 39.1855 100.064 39.002C99.9668 38.8145 99.8184 38.6699 99.6191 38.5684C99.4199 38.4668 99.1738 38.416 98.8809 38.416C98.6074 38.416 98.3672 38.4629 98.1602 38.5566C97.957 38.6504 97.7969 38.7734 97.6797 38.9258C97.5664 39.0781 97.5098 39.2422 97.5098 39.418H96.4258C96.4258 39.1914 96.4844 38.9668 96.6016 38.7441C96.7188 38.5215 96.8867 38.3203 97.1055 38.1406C97.3281 37.957 97.5938 37.8125 97.9023 37.707C98.2148 37.5977 98.5625 37.543 98.9453 37.543C99.4062 37.543 99.8125 37.6211 100.164 37.7773C100.52 37.9336 100.797 38.1699 100.996 38.4863C101.199 38.7988 101.301 39.1914 101.301 39.6641V42.6172C101.301 42.8281 101.318 43.0527 101.354 43.291C101.393 43.5293 101.449 43.7344 101.523 43.9062V44H100.393C100.338 43.875 100.295 43.709 100.264 43.502C100.232 43.291 100.217 43.0957 100.217 42.916ZM100.404 40.1562L100.416 40.918H99.3203C99.0117 40.918 98.7363 40.9434 98.4941 40.9941C98.252 41.041 98.0488 41.1133 97.8848 41.2109C97.7207 41.3086 97.5957 41.4316 97.5098 41.5801C97.4238 41.7246 97.3809 41.8945 97.3809 42.0898C97.3809 42.2891 97.4258 42.4707 97.5156 42.6348C97.6055 42.7988 97.7402 42.9297 97.9199 43.0273C98.1035 43.1211 98.3281 43.168 98.5938 43.168C98.9258 43.168 99.2188 43.0977 99.4727 42.957C99.7266 42.8164 99.9277 42.6445 100.076 42.4414C100.229 42.2383 100.311 42.041 100.322 41.8496L100.785 42.3711C100.758 42.5352 100.684 42.7168 100.562 42.916C100.441 43.1152 100.279 43.3066 100.076 43.4902C99.877 43.6699 99.6387 43.8203 99.3613 43.9414C99.0879 44.0586 98.7793 44.1172 98.4355 44.1172C98.0059 44.1172 97.6289 44.0332 97.3047 43.8652C96.9844 43.6973 96.7344 43.4727 96.5547 43.1914C96.3789 42.9062 96.291 42.5879 96.291 42.2363C96.291 41.8965 96.3574 41.5977 96.4902 41.3398C96.623 41.0781 96.8145 40.8613 97.0645 40.6895C97.3145 40.5137 97.6152 40.3809 97.9668 40.291C98.3184 40.2012 98.7109 40.1562 99.1445 40.1562H100.404Z" fill-opacity="0.85"/>
<path d="M93.9707 42.3184C93.9707 42.1621 93.9355 42.0176 93.8652 41.8848C93.7988 41.748 93.6602 41.625 93.4492 41.5156C93.2422 41.4023 92.9297 41.3047 92.5117 41.2227C92.1602 41.1484 91.8418 41.0605 91.5566 40.959C91.2754 40.8574 91.0352 40.7344 90.8359 40.5898C90.6406 40.4453 90.4902 40.2754 90.3848 40.0801C90.2793 39.8848 90.2266 39.6562 90.2266 39.3945C90.2266 39.1445 90.2812 38.9082 90.3906 38.6855C90.5039 38.4629 90.6621 38.2656 90.8652 38.0938C91.0723 37.9219 91.3203 37.7871 91.6094 37.6895C91.8984 37.5918 92.2207 37.543 92.5762 37.543C93.084 37.543 93.5176 37.6328 93.877 37.8125C94.2363 37.9922 94.5117 38.2324 94.7031 38.5332C94.8945 38.8301 94.9902 39.1602 94.9902 39.5234H93.9062C93.9062 39.3477 93.8535 39.1777 93.748 39.0137C93.6465 38.8457 93.4961 38.707 93.2969 38.5977C93.1016 38.4883 92.8613 38.4336 92.5762 38.4336C92.2754 38.4336 92.0312 38.4805 91.8438 38.5742C91.6602 38.6641 91.5254 38.7793 91.4395 38.9199C91.3574 39.0605 91.3164 39.209 91.3164 39.3652C91.3164 39.4824 91.3359 39.5879 91.375 39.6816C91.418 39.7715 91.4922 39.8555 91.5977 39.9336C91.7031 40.0078 91.8516 40.0781 92.043 40.1445C92.2344 40.2109 92.4785 40.2773 92.7754 40.3438C93.2949 40.4609 93.7227 40.6016 94.0586 40.7656C94.3945 40.9297 94.6445 41.1309 94.8086 41.3691C94.9727 41.6074 95.0547 41.8965 95.0547 42.2363C95.0547 42.5137 94.9961 42.7676 94.8789 42.998C94.7656 43.2285 94.5996 43.4277 94.3809 43.5957C94.166 43.7598 93.9082 43.8887 93.6074 43.9824C93.3105 44.0723 92.9766 44.1172 92.6055 44.1172C92.0469 44.1172 91.5742 44.0176 91.1875 43.8184C90.8008 43.6191 90.5078 43.3613 90.3086 43.0449C90.1094 42.7285 90.0098 42.3945 90.0098 42.043H91.0996C91.1152 42.3398 91.2012 42.5762 91.3574 42.752C91.5137 42.9238 91.7051 43.0469 91.9316 43.1211C92.1582 43.1914 92.3828 43.2266 92.6055 43.2266C92.9023 43.2266 93.1504 43.1875 93.3496 43.1094C93.5527 43.0312 93.707 42.9238 93.8125 42.7871C93.918 42.6504 93.9707 42.4941 93.9707 42.3184Z" fill-opacity="0.85"/>
<path d="M87.2969 38.6562V44H86.2129V37.6602H87.2676L87.2969 38.6562ZM89.2773 37.625L89.2715 38.6328C89.1816 38.6133 89.0957 38.6016 89.0137 38.5977C88.9355 38.5898 88.8457 38.5859 88.7441 38.5859C88.4941 38.5859 88.2734 38.625 88.082 38.7031C87.8906 38.7812 87.7285 38.8906 87.5957 39.0312C87.4629 39.1719 87.3574 39.3398 87.2793 39.5352C87.2051 39.7266 87.1562 39.9375 87.1328 40.168L86.8281 40.3438C86.8281 39.9609 86.8652 39.6016 86.9395 39.2656C87.0176 38.9297 87.1367 38.6328 87.2969 38.375C87.457 38.1133 87.6602 37.9102 87.9062 37.7656C88.1562 37.6172 88.4531 37.543 88.7969 37.543C88.875 37.543 88.9648 37.5527 89.0664 37.5723C89.168 37.5879 89.2383 37.6055 89.2773 37.625Z" fill-opacity="0.85"/>
<path d="M82.4805 44.1172C82.0391 44.1172 81.6387 44.043 81.2793 43.8945C80.9238 43.7422 80.6172 43.5293 80.3594 43.2559C80.1055 42.9824 79.9102 42.6582 79.7734 42.2832C79.6367 41.9082 79.5684 41.498 79.5684 41.0527V40.8066C79.5684 40.291 79.6445 39.832 79.7969 39.4297C79.9492 39.0234 80.1562 38.6797 80.418 38.3984C80.6797 38.1172 80.9766 37.9043 81.3086 37.7598C81.6406 37.6152 81.9844 37.543 82.3398 37.543C82.793 37.543 83.1836 37.6211 83.5117 37.7773C83.8438 37.9336 84.1152 38.1523 84.3262 38.4336C84.5371 38.7109 84.6934 39.0391 84.7949 39.418C84.8965 39.793 84.9473 40.2031 84.9473 40.6484V41.1348H80.2129V40.25H83.8633V40.168C83.8477 39.8867 83.7891 39.6133 83.6875 39.3477C83.5898 39.082 83.4336 38.8633 83.2188 38.6914C83.0039 38.5195 82.7109 38.4336 82.3398 38.4336C82.0938 38.4336 81.8672 38.4863 81.6602 38.5918C81.4531 38.6934 81.2754 38.8457 81.127 39.0488C80.9785 39.252 80.8633 39.5 80.7812 39.793C80.6992 40.0859 80.6582 40.4238 80.6582 40.8066V41.0527C80.6582 41.3535 80.6992 41.6367 80.7812 41.9023C80.8672 42.1641 80.9902 42.3945 81.1504 42.5938C81.3145 42.793 81.5117 42.9492 81.7422 43.0625C81.9766 43.1758 82.2422 43.2324 82.5391 43.2324C82.9219 43.2324 83.2461 43.1543 83.5117 42.998C83.7773 42.8418 84.0098 42.6328 84.209 42.3711L84.8652 42.8926C84.7285 43.0996 84.5547 43.2969 84.3438 43.4844C84.1328 43.6719 83.873 43.8242 83.5645 43.9414C83.2598 44.0586 82.8984 44.1172 82.4805 44.1172Z" fill-opacity="0.85"/>
<path d="M76.0469 43.0215L77.7812 37.6602H78.8887L76.6094 44H75.8828L76.0469 43.0215ZM74.5996 37.6602L76.3867 43.0508L76.5098 44H75.7832L73.4863 37.6602H74.5996Z" fill-opacity="0.85"/>
<path d="M68.5703 39.0137V44H67.4863V37.6602H68.5117L68.5703 39.0137ZM68.3125 40.5898L67.8613 40.5723C67.8652 40.1387 67.9297 39.7383 68.0547 39.3711C68.1797 39 68.3555 38.6777 68.582 38.4043C68.8086 38.1309 69.0781 37.9199 69.3906 37.7715C69.707 37.6191 70.0566 37.543 70.4395 37.543C70.752 37.543 71.0332 37.5859 71.2832 37.6719C71.5332 37.7539 71.7461 37.8867 71.9219 38.0703C72.1016 38.2539 72.2383 38.4922 72.332 38.7852C72.4258 39.0742 72.4727 39.4277 72.4727 39.8457V44H71.3828V39.834C71.3828 39.502 71.334 39.2363 71.2363 39.0371C71.1387 38.834 70.9961 38.6875 70.8086 38.5977C70.6211 38.5039 70.3906 38.457 70.1172 38.457C69.8477 38.457 69.6016 38.5137 69.3789 38.627C69.1602 38.7402 68.9707 38.8965 68.8105 39.0957C68.6543 39.2949 68.5312 39.5234 68.4414 39.7812C68.3555 40.0352 68.3125 40.3047 68.3125 40.5898Z" fill-opacity="0.85"/>
<path d="M60.3555 40.9004V40.7656C60.3555 40.3086 60.4219 39.8848 60.5547 39.4941C60.6875 39.0996 60.8789 38.7578 61.1289 38.4688C61.3789 38.1758 61.6816 37.9492 62.0371 37.7891C62.3926 37.625 62.791 37.543 63.2324 37.543C63.6777 37.543 64.0781 37.625 64.4336 37.7891C64.793 37.9492 65.0977 38.1758 65.3477 38.4688C65.6016 38.7578 65.7949 39.0996 65.9277 39.4941C66.0605 39.8848 66.127 40.3086 66.127 40.7656V40.9004C66.127 41.3574 66.0605 41.7812 65.9277 42.1719C65.7949 42.5625 65.6016 42.9043 65.3477 43.1973C65.0977 43.4863 64.7949 43.7129 64.4395 43.877C64.0879 44.0371 63.6895 44.1172 63.2441 44.1172C62.7988 44.1172 62.3984 44.0371 62.043 43.877C61.6875 43.7129 61.3828 43.4863 61.1289 43.1973C60.8789 42.9043 60.6875 42.5625 60.5547 42.1719C60.4219 41.7812 60.3555 41.3574 60.3555 40.9004ZM61.4395 40.7656V40.9004C61.4395 41.2168 61.4766 41.5156 61.5508 41.7969C61.625 42.0742 61.7363 42.3203 61.8848 42.5352C62.0371 42.75 62.2266 42.9199 62.4531 43.0449C62.6797 43.166 62.9434 43.2266 63.2441 43.2266C63.541 43.2266 63.8008 43.166 64.0234 43.0449C64.25 42.9199 64.4375 42.75 64.5859 42.5352C64.7344 42.3203 64.8457 42.0742 64.9199 41.7969C64.998 41.5156 65.0371 41.2168 65.0371 40.9004V40.7656C65.0371 40.4531 64.998 40.1582 64.9199 39.8809C64.8457 39.5996 64.7324 39.3516 64.5801 39.1367C64.4316 38.918 64.2441 38.7461 64.0176 38.6211C63.7949 38.4961 63.5332 38.4336 63.2324 38.4336C62.9355 38.4336 62.6738 38.4961 62.4473 38.6211C62.2246 38.7461 62.0371 38.918 61.8848 39.1367C61.7363 39.3516 61.625 39.5996 61.5508 39.8809C61.4766 40.1582 61.4395 40.4531 61.4395 40.7656Z" fill-opacity="0.85"/>
<path d="M58.1406 41.2871H59.2656C59.207 41.8262 59.0527 42.3086 58.8027 42.7344C58.5527 43.1602 58.1992 43.498 57.7422 43.748C57.2852 43.9941 56.7148 44.1172 56.0312 44.1172C55.5312 44.1172 55.0762 44.0234 54.666 43.8359C54.2598 43.6484 53.9102 43.3828 53.6172 43.0391C53.3242 42.6914 53.0977 42.2754 52.9375 41.791C52.7812 41.3027 52.7031 40.7598 52.7031 40.1621V39.3125C52.7031 38.7148 52.7812 38.1738 52.9375 37.6895C53.0977 37.2012 53.3262 36.7832 53.623 36.4355C53.9238 36.0879 54.2852 35.8203 54.707 35.6328C55.1289 35.4453 55.6035 35.3516 56.1309 35.3516C56.7754 35.3516 57.3203 35.4727 57.7656 35.7148C58.2109 35.957 58.5566 36.293 58.8027 36.7227C59.0527 37.1484 59.207 37.6426 59.2656 38.2051H58.1406C58.0859 37.8066 57.9844 37.4648 57.8359 37.1797C57.6875 36.8906 57.4766 36.668 57.2031 36.5117C56.9297 36.3555 56.5723 36.2773 56.1309 36.2773C55.752 36.2773 55.418 36.3496 55.1289 36.4941C54.8438 36.6387 54.6035 36.8438 54.4082 37.1094C54.2168 37.375 54.0723 37.6934 53.9746 38.0645C53.877 38.4355 53.8281 38.8477 53.8281 39.3008V40.1621C53.8281 40.5801 53.8711 40.9727 53.957 41.3398C54.0469 41.707 54.1816 42.0293 54.3613 42.3066C54.541 42.584 54.7695 42.8027 55.0469 42.9629C55.3242 43.1191 55.6523 43.1973 56.0312 43.1973C56.5117 43.1973 56.8945 43.1211 57.1797 42.9688C57.4648 42.8164 57.6797 42.5977 57.8242 42.3125C57.9727 42.0273 58.0781 41.6855 58.1406 41.2871Z" fill-opacity="0.85"/>
<path d="M56.24 18.68C57.04 19.46 57.99 20.09 59.09 20.57C60.21 21.03 61.41 21.26 62.69 21.26C63.31 21.26 63.83 21.16 64.25 20.96C64.69 20.74 64.91 20.45 64.91 20.09C64.91 19.71 64.69 19.41 64.25 19.19C63.83 18.95 63.11 18.74 62.09 18.56C60.41 18.26 59.03 17.94 57.95 17.6C56.87 17.24 55.9 16.63 55.04 15.77C54.18 14.91 53.75 13.71 53.75 12.17C53.75 11.01 54.07 9.94 54.71 8.96C55.35 7.96 56.29 7.17 57.53 6.59C58.79 5.99 60.3 5.69 62.06 5.69C63.7 5.69 65.24 5.93 66.68 6.41C68.12 6.87 69.41 7.56 70.55 8.48L67.31 12.77C66.47 12.13 65.54 11.64 64.52 11.3C63.5 10.96 62.57 10.79 61.73 10.79C60.51 10.79 59.9 11.14 59.9 11.84C59.9 12.22 60.11 12.51 60.53 12.71C60.95 12.89 61.72 13.07 62.84 13.25C64.36 13.51 65.68 13.83 66.8 14.21C67.94 14.57 68.93 15.17 69.77 16.01C70.61 16.85 71.03 17.98 71.03 19.4C71.03 21.6 70.26 23.31 68.72 24.53C67.2 25.75 65.09 26.36 62.39 26.36C58.55 26.36 55.45 25.3 53.09 23.18L56.24 18.68ZM71.8184 23.15C71.8184 22.27 72.1384 21.52 72.7784 20.9C73.4184 20.26 74.1684 19.94 75.0284 19.94C75.9084 19.94 76.6584 20.26 77.2784 20.9C77.9184 21.52 78.2384 22.27 78.2384 23.15C78.2384 24.01 77.9184 24.76 77.2784 25.4C76.6584 26.04 75.9084 26.36 75.0284 26.36C74.1684 26.36 73.4184 26.04 72.7784 25.4C72.1384 24.76 71.8184 24.01 71.8184 23.15ZM91.2174 14.66L88.6374 26H82.2774L76.5474 5.99H83.3274L85.9074 18.23L88.9374 5.99H93.4974L96.5274 18.23L99.0774 5.99H105.887L100.157 26H93.7974L91.2174 14.66ZM118.219 23.42H110.539L109.759 26H103.189L110.569 5.99H118.189L125.569 26H118.999L118.219 23.42ZM112.099 18.38H116.659L114.379 11.33L112.099 18.38ZM129.279 18.05L121.779 5.99H128.589L132.309 12.74L135.969 5.99H142.779L135.339 18.05V26H129.279V18.05Z"/>
<path fill-rule="evenodd" clip-rule="evenodd" d="M0 7C0 3.134 3.13401 0 7 0H35C38.866 0 42 3.13401 42 7V27.7347C42 30.2031 39.999 32.2041 37.5306 32.2041C36.9783 32.2041 36.5306 31.7564 36.5306 31.2041C36.5306 30.6518 36.9783 30.2041 37.5306 30.2041C38.8944 30.2041 40 29.0985 40 27.7347V7C40 4.23858 37.7614 2 35 2H7C4.23858 2 2 4.23857 2 7V25.2041C2 27.9655 4.23858 30.2041 7 30.2041H20.342C21.2615 30.2041 22.153 30.5209 22.8663 31.1012L30.8179 37.5703C31.4713 38.1019 32.449 37.6369 32.449 36.7946V31.6122C32.449 31.06 32.8967 30.6122 33.449 30.6122C34.0013 30.6122 34.449 31.06 34.449 31.6122V36.7946C34.449 39.3216 31.5159 40.7165 29.5557 39.1217L21.6041 32.6527C21.2475 32.3625 20.8017 32.2041 20.342 32.2041H7C3.13401 32.2041 0 29.0701 0 25.2041V7Z"/>
<circle cx="12.837" cy="16.1019" r="2.04082"/>
<circle cx="21" cy="16.1019" r="2.04082"/>
<circle cx="29.1631" cy="16.1019" r="2.04082"/>
</svg>
