<svg width="42" height="40" viewBox="0 0 42 40" xmlns="http://www.w3.org/2000/svg">
<g clip-path="url(#clip0_3434_41661)">
<path fill-rule="evenodd" clip-rule="evenodd" d="M0 7C0 3.134 3.13401 0 7 0H35C38.866 0 42 3.13401 42 7V27.7347C42 30.2031 39.999 32.2041 37.5306 32.2041C36.9783 32.2041 36.5306 31.7564 36.5306 31.2041C36.5306 30.6518 36.9783 30.2041 37.5306 30.2041C38.8944 30.2041 40 29.0985 40 27.7347V7C40 4.23858 37.7614 2 35 2H7C4.23858 2 2 4.23857 2 7V25.2041C2 27.9655 4.23858 30.2041 7 30.2041H20.342C21.2615 30.2041 22.153 30.5209 22.8663 31.1012L30.8179 37.5703C31.4713 38.1019 32.449 37.6369 32.449 36.7946V31.6122C32.449 31.06 32.8967 30.6122 33.449 30.6122C34.0013 30.6122 34.449 31.06 34.449 31.6122V36.7946C34.449 39.3216 31.5159 40.7165 29.5557 39.1217L21.6041 32.6527C21.2475 32.3625 20.8017 32.2041 20.342 32.2041H7C3.13401 32.2041 0 29.0701 0 25.2041V7Z"/>
<circle cx="12.837" cy="16.1019" r="2.04082"/>
<circle cx="21" cy="16.1019" r="2.04082"/>
<circle cx="29.1631" cy="16.1019" r="2.04082"/>
</g>
<defs>
<clipPath id="clip0_3434_41661">
<rect width="42" height="40" fill="white"/>
</clipPath>
</defs>
</svg>
