<svg width="24" height="24" viewBox="0 0 24 24" fill="none" xmlns="http://www.w3.org/2000/svg">
<path fill-rule="evenodd" clip-rule="evenodd" d="M2 4C2 2.89572 2.89572 2 4 2H20C21.1043 2 22 2.89572 22 4V17C22 18.1043 21.1043 19 20 19H16V21.513H15L14.4251 22.3312L9.68382 19H4C2.89572 19 2 18.1043 2 17V4ZM14 19.5883V18C14 17.4477 14.4477 17 15 17H20V4H4V17H10C10.2058 17 10.4065 17.0635 10.5749 17.1818L14 19.5883Z" fill="#191A1D"/>
<path fill-rule="evenodd" clip-rule="evenodd" d="M6 13C6 12.4477 6.44772 12 7 12H15C15.5523 12 16 12.4477 16 13C16 13.5523 15.5523 14 15 14H7C6.44772 14 6 13.5523 6 13Z" fill="#191A1D"/>
<path fill-rule="evenodd" clip-rule="evenodd" d="M6 8C6 7.44772 6.44772 7 7 7H17C17.5523 7 18 7.44772 18 8C18 8.55228 17.5523 9 17 9H7C6.44772 9 6 8.55228 6 8Z" fill="#191A1D"/>
</svg>
