<svg width="24" height="24" viewBox="0 0 24 24" fill="none" xmlns="http://www.w3.org/2000/svg">
<path fill-rule="evenodd" clip-rule="evenodd" d="M2 12C2 11.4477 2.44772 11 3 11H21C21.5523 11 22 11.4477 22 12C22 12.5523 21.5523 13 21 13H3C2.44772 13 2 12.5523 2 12Z" fill="#191A1D"/>
<path fill-rule="evenodd" clip-rule="evenodd" d="M2 8C2 7.44772 2.44772 7 3 7H21C21.5523 7 22 7.44772 22 8C22 8.55228 21.5523 9 21 9H3C2.44772 9 2 8.55228 2 8Z" fill="#191A1D"/>
<path fill-rule="evenodd" clip-rule="evenodd" d="M2 4C2 3.44772 2.44772 3 3 3H21C21.5523 3 22 3.44772 22 4C22 4.55228 21.5523 5 21 5H3C2.44772 5 2 4.55228 2 4Z" fill="#191A1D"/>
<path fill-rule="evenodd" clip-rule="evenodd" d="M2 15.9973C2.00152 15.445 2.45047 14.9985 3.00275 15L7.00275 15.011C7.55396 15.0125 8 15.4598 8 16.011V17.9194L11.3753 15.2191C11.5533 15.0767 11.7746 14.9994 12.0026 15L21.0026 15.023C21.5548 15.0244 22.0014 15.4733 22 16.0256C21.9986 16.5778 21.5497 17.0244 20.9974 17.023L12.3497 17.0009L7.62469 20.7809C7.32452 21.021 6.91328 21.0678 6.56681 20.9013C6.22035 20.7348 6 20.3844 6 20V17.0083L2.99725 17C2.44497 16.9985 1.99849 16.5495 2 15.9973Z" fill="#191A1D"/>
</svg>
