<svg width="24" height="24" viewBox="0 0 24 24" fill="none" xmlns="http://www.w3.org/2000/svg">
<path fill-rule="evenodd" clip-rule="evenodd" d="M9.4 16.6C7.53738 16.6 6 18.0671 6 20C6 20.5523 5.55228 21 5 21C4.44772 21 4 20.5523 4 20C4 16.9329 6.46262 14.6 9.4 14.6H14.5C17.5671 14.6 19.9 17.0626 19.9 20C19.9 20.5523 19.4523 21 18.9 21C18.3477 21 17.9 20.5523 17.9 20C17.9 18.1374 16.4329 16.6 14.5 16.6H9.4Z" fill="#fff"/>
<path fill-rule="evenodd" clip-rule="evenodd" d="M14.3036 5.91784C12.9885 4.69061 10.9966 4.69406 9.68536 5.9282C8.44369 7.09682 8.45159 9.15825 9.72819 10.5146C10.8968 11.7563 12.9582 11.7484 14.3146 10.4718C15.5794 9.28141 15.6144 7.23992 14.3036 5.91784ZM15.6814 4.46811C13.5963 2.5094 10.3984 2.51063 8.31463 4.4718C6.15629 6.50318 6.34839 9.84175 8.27179 11.8854C10.3032 14.0437 13.6417 13.8516 15.6854 11.9282C17.8159 9.92299 17.7854 6.57507 15.7107 4.49654C15.706 4.49175 15.7012 4.48699 15.6963 4.48226C15.6914 4.47748 15.6864 4.47277 15.6814 4.46811Z" fill="#fff"/>
</svg>
