<svg width="24" height="24" viewBox="0 0 24 24" fill="none" xmlns="http://www.w3.org/2000/svg">
<path fill-rule="evenodd" clip-rule="evenodd" d="M12 8C10.8953 8 10 8.89528 10 10C10 11.1047 10.8953 12 12 12C13.1047 12 14 11.1047 14 10C14 8.89528 13.1047 8 12 8ZM12 6C9.79072 6 8 7.79072 8 10C8 12.2093 9.79072 14 12 14C14.2093 14 16 12.2093 16 10C16 7.79072 14.2093 6 12 6Z" fill="#191A1D"/>
<path fill-rule="evenodd" clip-rule="evenodd" d="M12 4C8.68628 4 6 6.68628 6 10C6 12.2428 7.53285 14.7523 9.26728 16.8274C10.1108 17.8367 10.9572 18.6909 11.5936 19.2932C11.7417 19.4334 11.8781 19.5596 12 19.6706C12.1219 19.5596 12.2583 19.4334 12.4064 19.2932C13.0428 18.6909 13.8892 17.8367 14.7327 16.8274C16.4672 14.7523 18 12.2428 18 10C18 6.68628 15.3137 4 12 4ZM11.3648 21.7724L11.3626 21.7706L11.3575 21.7663L11.3396 21.7515C11.3245 21.7389 11.3029 21.7208 11.2753 21.6974C11.2201 21.6507 11.1408 21.5828 11.0407 21.4953C10.8407 21.3202 10.5575 21.0663 10.2189 20.7458C9.54281 20.106 8.63917 19.1946 7.73272 18.1101C5.96715 15.9977 4 13.0072 4 10C4 5.58172 7.58172 2 12 2C16.4183 2 20 5.58172 20 10C20 13.0072 18.0328 15.9977 16.2673 18.1101C15.3608 19.1946 14.4572 20.106 13.7811 20.7458C13.4425 21.0663 13.1593 21.3202 12.9593 21.4953C12.8592 21.5828 12.7799 21.6507 12.7247 21.6974C12.6971 21.7208 12.6755 21.7389 12.6604 21.7515L12.6425 21.7663L12.6374 21.7706L12.6357 21.7719L11.3648 21.7724ZM11.3648 21.7724C11.7337 22.0754 12.2658 22.0758 12.6347 21.7727L11.3648 21.7724Z" fill="#191A1D"/>
</svg>
