<svg width="24" height="24" viewBox="0 0 24 24" fill="none" xmlns="http://www.w3.org/2000/svg">
<path fill-rule="evenodd" clip-rule="evenodd" d="M2.01514 7.551C2.01514 5.58972 3.60485 4 5.56614 4H18.4491C20.4107 4 22.0001 5.58997 22.0001 7.552C22.0001 8.72915 21.4171 9.83077 20.4406 10.4912C20.4405 10.4913 20.4407 10.4911 20.4406 10.4912L15.9353 13.5457C13.5635 15.1533 10.4519 15.1534 8.08006 13.5458L3.57418 10.4908C3.57411 10.4908 3.57426 10.4909 3.57418 10.4908C2.59853 9.82964 2.01514 8.72835 2.01514 7.551ZM4.01514 7.551C4.01514 8.06556 4.26988 8.54635 4.69609 8.83515L9.20221 11.8902C10.8964 13.0386 13.1189 13.0386 14.8131 11.8902L19.32 8.8346C19.7453 8.54702 20.0001 8.06673 20.0001 7.552C20.0001 6.69403 19.3056 6 18.4491 6H5.56614C4.70942 6 4.01514 6.69428 4.01514 7.551Z" fill="#191A1D"/>
<path fill-rule="evenodd" clip-rule="evenodd" d="M3 6.55099C3.55228 6.55099 4 6.99871 4 7.55099V17C4 18.1047 4.89528 19 6 19H18C19.1047 19 20 18.1047 20 17L20.0001 7.552C20.0001 6.99972 20.4477 6.55199 21 6.55199C21.5523 6.55199 22.0001 6.99972 22.0001 7.552L22 17C22 19.2093 20.2093 21 18 21H6C3.79072 21 2 19.2093 2 17V7.55099C2 6.99871 2.44772 6.55099 3 6.55099Z" fill="#191A1D"/>
</svg>
