<svg width="24" height="24" viewBox="0 0 24 24" fill="none" xmlns="http://www.w3.org/2000/svg">
<path fill-rule="evenodd" clip-rule="evenodd" d="M17.0327 17.8629C17.4232 17.4724 18.0564 17.4724 18.4469 17.8629L20.7069 20.1229C21.0974 20.5134 21.0974 21.1466 20.7069 21.5371C20.3164 21.9276 19.6832 21.9276 19.2927 21.5371L17.0327 19.2771C16.6422 18.8866 16.6422 18.2534 17.0327 17.8629Z" fill="#191A1D"/>
<path fill-rule="evenodd" clip-rule="evenodd" d="M6.9669 17.8629C7.35742 18.2534 7.35742 18.8866 6.9669 19.2771L4.7069 21.5371C4.31637 21.9276 3.68321 21.9276 3.29268 21.5371C2.90216 21.1466 2.90216 20.5134 3.29268 20.1229L5.55268 17.8629C5.94321 17.4724 6.57637 17.4724 6.9669 17.8629Z" fill="#191A1D"/>
<path fill-rule="evenodd" clip-rule="evenodd" d="M9.32151 6.53486C12.8933 5.05524 16.9873 6.75093 18.4669 10.3227ZM8.55619 4.68709C13.1484 2.78479 18.4123 4.9651 20.3147 9.55728C22.217 14.1496 20.0357 19.4135 15.4445 21.3149C10.8522 23.2173 5.58818 21.0359 3.68688 16.4446C1.78464 11.8535 3.96488 6.58848 8.55619 4.68709ZM9.32151 6.53486C5.75096 8.01348 4.05502 12.1084 5.53462 15.6792C7.01332 19.2499 11.1074 20.9467 14.6791 19.4671C18.2498 17.9884 19.9465 13.8944 18.4669 10.3227" fill="#191A1D"/>
<path fill-rule="evenodd" clip-rule="evenodd" d="M11.7498 8.432C12.3021 8.432 12.7498 8.87971 12.7498 9.432V13.0056L15.5205 14.6952C15.992 14.9828 16.1411 15.5981 15.8536 16.0697C15.566 16.5412 14.9506 16.6903 14.4791 16.4028L11.2291 14.4208C10.9314 14.2392 10.7498 13.9157 10.7498 13.567V9.432C10.7498 8.87971 11.1975 8.432 11.7498 8.432Z" fill="#191A1D"/>
<path fill-rule="evenodd" clip-rule="evenodd" d="M3.33068 3.27989C4.54577 2.0648 6.26451 1.70559 7.78702 2.13805C8.31829 2.28895 8.62664 2.84196 8.47574 3.37323C8.32483 3.9045 7.77182 4.21285 7.24055 4.06195C6.36914 3.81443 5.41396 4.02516 4.74506 4.69394C4.74501 4.69399 4.74512 4.69388 4.74506 4.69394M4.74506 4.69394C4.16946 5.27053 3.93405 6.05996 4.03613 6.83069C4.10865 7.3782 3.7236 7.88082 3.17609 7.95334C2.62859 8.02586 2.12596 7.6408 2.05345 7.0933C1.87556 5.75023 2.2846 4.32726 3.33068 3.27989" fill="#191A1D"/>
<path fill-rule="evenodd" clip-rule="evenodd" d="M19.2667 4.6941C18.5977 4.02509 17.6434 3.81445 16.772 4.06195C16.2408 4.21285 15.6877 3.9045 15.5368 3.37323C15.3859 2.84196 15.6943 2.28895 16.2256 2.13805C17.7482 1.70555 19.4659 2.0649 20.6809 3.27989C21.7284 4.32736 22.137 5.75015 21.9591 7.0933C21.8866 7.6408 21.384 8.02586 20.8365 7.95334C20.289 7.88082 19.9039 7.3782 19.9764 6.83069C20.0785 6.05985 19.8432 5.27063 19.2667 4.6941Z" fill="#191A1D"/>
</svg>
