<svg width="24" height="24" viewBox="0 0 24 24" fill="none" xmlns="http://www.w3.org/2000/svg">
<path fill-rule="evenodd" clip-rule="evenodd" d="M16 1C16.5523 1 17 1.44772 17 2V6C17 6.55228 16.5523 7 16 7C15.4477 7 15 6.55228 15 6V2C15 1.44772 15.4477 1 16 1Z" fill="#191A1D"/>
<path fill-rule="evenodd" clip-rule="evenodd" d="M8 1C8.55228 1 9 1.44772 9 2V6C9 6.55228 8.55228 7 8 7C7.44772 7 7 6.55228 7 6V2C7 1.44772 7.44772 1 8 1Z" fill="#191A1D"/>
<path fill-rule="evenodd" clip-rule="evenodd" d="M2 9C2 8.44772 2.44772 8 3 8H21C21.5523 8 22 8.44772 22 9C22 9.55228 21.5523 10 21 10H3C2.44772 10 2 9.55228 2 9Z" fill="#191A1D"/>
<path fill-rule="evenodd" clip-rule="evenodd" d="M2 6C2 4.34272 3.34272 3 5 3H19C20.6573 3 22 4.34272 22 6V19C22 20.6573 20.6573 22 19 22H5C3.34272 22 2 20.6573 2 19V6ZM5 5C4.44728 5 4 5.44728 4 6V19C4 19.5527 4.44728 20 5 20H19C19.5527 20 20 19.5527 20 19V6C20 5.44728 19.5527 5 19 5H5Z" fill="#191A1D"/>
<path fill-rule="evenodd" clip-rule="evenodd" d="M10.264 12.9845C10.267 13.9484 11.0494 14.729 12.014 14.729C12.9804 14.729 13.764 13.9454 13.764 12.979C13.764 12.0087 12.9765 11.229 12.013 11.229C11.0505 11.229 10.2599 12.01 10.264 12.9845ZM11.764 12.979C11.763 12.841 11.875 12.729 12.013 12.729C12.1503 12.7295 12.262 12.8394 12.264 12.9754L12.264 12.979C12.264 13.117 12.152 13.229 12.014 13.229C11.8765 13.2285 11.764 13.1167 11.764 12.979Z" fill="#191A1D"/>
<path fill-rule="evenodd" clip-rule="evenodd" d="M15.264 12.9845C15.267 13.9484 16.0494 14.729 17.014 14.729C17.9804 14.729 18.764 13.9454 18.764 12.979C18.764 12.0087 17.9765 11.229 17.013 11.229C16.0505 11.229 15.2599 12.01 15.264 12.9845ZM16.764 12.979C16.763 12.841 16.875 12.729 17.013 12.729C17.1503 12.7295 17.262 12.8394 17.264 12.9754L17.264 12.979C17.264 13.117 17.152 13.229 17.014 13.229C16.8765 13.2285 16.764 13.1167 16.764 12.979Z" fill="#191A1D"/>
<path fill-rule="evenodd" clip-rule="evenodd" d="M5.26401 16.9845C5.26697 17.9484 6.04941 18.729 7.014 18.729C7.98043 18.729 8.764 17.9454 8.764 16.979C8.764 16.0087 7.97652 15.229 7.013 15.229C6.05046 15.229 5.25986 16.01 5.26401 16.9845ZM6.764 16.979C6.763 16.841 6.875 16.729 7.013 16.729L7.014 16.729C7.15132 16.7295 7.26204 16.8394 7.26397 16.9754L7.264 16.979C7.264 17.117 7.152 17.229 7.014 17.229L7.013 17.229C6.87546 17.2285 6.764 17.1167 6.764 16.979Z" fill="#191A1D"/>
<path fill-rule="evenodd" clip-rule="evenodd" d="M10.264 16.9845C10.267 17.9484 11.0494 18.729 12.014 18.729C12.9804 18.729 13.764 17.9454 13.764 16.979C13.764 16.0087 12.9765 15.229 12.013 15.229C11.0505 15.229 10.2599 16.01 10.264 16.9845ZM11.764 16.979C11.763 16.841 11.875 16.729 12.013 16.729C12.1503 16.7295 12.262 16.8394 12.264 16.9754L12.264 16.979C12.264 17.117 12.152 17.229 12.014 17.229C11.8765 17.2285 11.764 17.1167 11.764 16.979Z" fill="#191A1D"/>
</svg>
