<svg width="143" height="40" viewBox="0 0 143 40" fill="none" xmlns="http://www.w3.org/2000/svg">
<g clip-path="url(#clip0_3434_41439)">
<path d="M129.279 18.05L121.779 5.98999H128.589L132.309 12.74L135.969 5.98999H142.779L135.339 18.05V26H129.279V18.05Z" fill="white"/>
<path d="M118.219 23.42H110.539L109.759 26H103.189L110.569 5.98999H118.189L125.569 26H118.999L118.219 23.42ZM112.099 18.38H116.659L114.379 11.33L112.099 18.38Z" fill="white"/>
<path d="M91.2174 14.66L88.6374 26H82.2774L76.5474 5.98999H83.3274L85.9074 18.23L88.9374 5.98999H93.4974L96.5274 18.23L99.0774 5.98999H105.887L100.157 26H93.7974L91.2174 14.66Z" fill="white"/>
<path d="M71.8184 23.1499C71.8184 22.2699 72.1384 21.5199 72.7784 20.8999C73.4184 20.2599 74.1684 19.9399 75.0284 19.9399C75.9084 19.9399 76.6584 20.2599 77.2784 20.8999C77.9184 21.5199 78.2384 22.2699 78.2384 23.1499C78.2384 24.0099 77.9184 24.7599 77.2784 25.3999C76.6584 26.0399 75.9084 26.3599 75.0284 26.3599C74.1684 26.3599 73.4184 26.0399 72.7784 25.3999C72.1384 24.7599 71.8184 24.0099 71.8184 23.1499Z" fill="white"/>
<path d="M56.24 18.6799C57.04 19.4599 57.99 20.0899 59.09 20.5699C60.21 21.0299 61.41 21.2599 62.69 21.2599C63.31 21.2599 63.83 21.1599 64.25 20.9599C64.69 20.7399 64.91 20.4499 64.91 20.0899C64.91 19.7099 64.69 19.4099 64.25 19.1899C63.83 18.9499 63.11 18.7399 62.09 18.5599C60.41 18.2599 59.03 17.9399 57.95 17.5999C56.87 17.2399 55.9 16.6299 55.04 15.7699C54.18 14.9099 53.75 13.7099 53.75 12.1699C53.75 11.0099 54.07 9.93994 54.71 8.95994C55.35 7.95994 56.29 7.16994 57.53 6.58994C58.79 5.98994 60.3 5.68994 62.06 5.68994C63.7 5.68994 65.24 5.92994 66.68 6.40994C68.12 6.86994 69.41 7.55994 70.55 8.47994L67.31 12.7699C66.47 12.1299 65.54 11.6399 64.52 11.2999C63.5 10.9599 62.57 10.7899 61.73 10.7899C60.51 10.7899 59.9 11.1399 59.9 11.8399C59.9 12.2199 60.11 12.5099 60.53 12.7099C60.95 12.8899 61.72 13.0699 62.84 13.2499C64.36 13.5099 65.68 13.8299 66.8 14.2099C67.94 14.5699 68.93 15.1699 69.77 16.0099C70.61 16.8499 71.03 17.9799 71.03 19.3999C71.03 21.5999 70.26 23.3099 68.72 24.5299C67.2 25.7499 65.09 26.3599 62.39 26.3599C58.55 26.3599 55.45 25.2999 53.09 23.1799L56.24 18.6799Z" fill="white"/>
<path fill-rule="evenodd" clip-rule="evenodd" d="M0 7C0 3.134 3.13401 0 7 0H35C38.866 0 42 3.13401 42 7V27.7347C42 30.2031 39.999 32.2041 37.5306 32.2041C36.9783 32.2041 36.5306 31.7564 36.5306 31.2041C36.5306 30.6518 36.9783 30.2041 37.5306 30.2041C38.8944 30.2041 40 29.0985 40 27.7347V7C40 4.23858 37.7614 2 35 2H7C4.23858 2 2 4.23857 2 7V25.2041C2 27.9655 4.23858 30.2041 7 30.2041H20.342C21.2615 30.2041 22.153 30.5209 22.8663 31.1012L30.8179 37.5703C31.4713 38.1019 32.449 37.6369 32.449 36.7946V31.6122C32.449 31.06 32.8967 30.6122 33.449 30.6122C34.0013 30.6122 34.449 31.06 34.449 31.6122V36.7946C34.449 39.3216 31.5159 40.7165 29.5557 39.1217L21.6041 32.6527C21.2475 32.3625 20.8017 32.2041 20.342 32.2041H7C3.13401 32.2041 0 29.0701 0 25.2041V7Z" fill="white"/>
<circle cx="12.837" cy="16.1019" r="2.04082" fill="white"/>
<circle cx="21" cy="16.1019" r="2.04082" fill="white"/>
<circle cx="29.1631" cy="16.1019" r="2.04082" fill="white"/>
</g>
<defs>
<clipPath id="clip0_3434_41439">
<rect width="143" height="40" fill="white"/>
</clipPath>
</defs>
</svg>
