<svg width="40" height="40" viewBox="0 0 40 40" fill="none" xmlns="http://www.w3.org/2000/svg">
<g clip-path="url(#clip0_3923_54199)">
<mask id="path-1-outside-1_3923_54199" maskUnits="userSpaceOnUse" x="-6.98901" y="-6.83414" width="54.141" height="53.775" fill="black">
<rect fill="white" x="-6.98901" y="-6.83414" width="54.141" height="53.775"/>
<path fill-rule="evenodd" clip-rule="evenodd" d="M17.1367 2.36174C16.6546 2.43673 16.3252 2.86942 16.2832 3.35546C16.2479 3.76447 16.1764 4.17606 16.0664 4.5864C15.0549 8.36156 11.1745 10.6019 7.39934 9.59035C7.13971 9.52078 6.88734 9.43765 6.64278 9.34191C6.18802 9.16388 5.65353 9.26809 5.37307 9.6679C5.07339 10.0951 4.78995 10.5391 4.52409 10.9996C4.22936 11.5101 3.96296 12.0291 3.7244 12.555C3.50596 13.0365 3.73773 13.589 4.18363 13.8731C4.61117 14.1456 5.01585 14.4685 5.38918 14.8419C8.15279 17.6055 8.15279 22.0861 5.38918 24.8498C5.01587 25.2231 4.61124 25.5459 4.18373 25.8184C3.73853 26.1021 3.50673 26.6534 3.72383 27.1346C4.17859 28.1427 4.72891 29.1111 5.37075 30.0251C5.65131 30.4245 6.18563 30.5284 6.64012 30.3502C6.8855 30.254 7.13876 30.1706 7.39933 30.1007C11.1745 29.0892 15.0549 31.3295 16.0664 35.1047C16.1767 35.5162 16.2483 35.929 16.2835 36.3392C16.3253 36.8256 16.6549 37.2587 17.1374 37.3333C18.9475 37.6132 20.7751 37.6059 22.5551 37.3289C23.0372 37.2539 23.3666 36.8212 23.4085 36.3352C23.4439 35.9263 23.5154 35.5148 23.6253 35.1045C24.6369 31.3294 28.5173 29.089 32.2924 30.1006C32.5518 30.1701 32.804 30.2532 33.0484 30.3488C33.5031 30.5268 34.0375 30.4226 34.318 30.0228C34.6176 29.5956 34.9011 29.1516 35.1669 28.6912C35.4616 28.1808 35.728 27.6617 35.9665 27.1359C36.185 26.6545 35.9532 26.102 35.5074 25.8178C35.0801 25.5454 34.6756 25.2227 34.3024 24.8495C31.5388 22.0859 31.5388 17.6052 34.3024 14.8416C34.6757 14.4684 35.0802 14.1455 35.5077 13.8731C35.9528 13.5894 36.1846 13.0382 35.9675 12.557C35.5128 11.5488 34.9625 10.5803 34.3206 9.66626C34.0401 9.26676 33.5057 9.16292 33.0512 9.34105C32.8059 9.43721 32.5527 9.52067 32.2922 9.59048C28.517 10.602 24.6366 8.36169 23.6251 4.58654C23.5148 4.17489 23.4431 3.76199 23.4079 3.35169C23.3662 2.86529 23.0366 2.43213 22.5541 2.35752C20.7441 2.07761 18.9166 2.08483 17.1367 2.36174Z"/>
</mask>
<path d="M16.0664 4.5864L17.9983 5.10404L17.9983 5.10404L16.0664 4.5864ZM7.39934 9.59035L6.8817 11.5222L6.8817 11.5222L7.39934 9.59035ZM5.38918 14.8419L6.8034 13.4276L6.8034 13.4276L5.38918 14.8419ZM5.38918 24.8498L6.8034 26.264L5.38918 24.8498ZM7.39933 30.1007L6.8817 28.1689L7.39933 30.1007ZM16.0664 35.1047L17.9983 34.587L17.9983 34.587L16.0664 35.1047ZM23.6253 35.1045L21.6935 34.5869L23.6253 35.1045ZM32.2924 30.1006L31.7748 32.0325L31.7748 32.0325L32.2924 30.1006ZM34.3024 24.8495L35.7167 23.4353L34.3024 24.8495ZM34.3024 14.8416L32.8882 13.4274L32.8882 13.4274L34.3024 14.8416ZM23.6251 4.58654L21.6932 5.10417L21.6932 5.10417L23.6251 4.58654ZM23.4079 3.35169L25.4006 3.18075L23.4079 3.35169ZM22.5541 2.35752L22.8598 0.381013L22.5541 2.35752ZM34.3206 9.66626L35.9573 8.51686L34.3206 9.66626ZM33.0512 9.34105L33.781 11.2031L33.0512 9.34105ZM35.9675 12.557L34.1444 13.3793L35.9675 12.557ZM35.9665 27.1359L34.1452 26.3096L35.9665 27.1359ZM35.5074 25.8178L36.5824 24.1313L35.5074 25.8178ZM22.5551 37.3289L22.2476 35.3527L22.5551 37.3289ZM23.4085 36.3352L21.416 36.1631L23.4085 36.3352ZM33.0484 30.3488L33.7773 28.4864L33.0484 30.3488ZM34.318 30.0228L35.9553 31.1714L34.318 30.0228ZM4.18373 25.8184L5.25862 27.505L4.18373 25.8184ZM6.64278 9.34191L7.37187 7.47953L6.64278 9.34191ZM5.37307 9.6679L3.73577 8.5193L5.37307 9.6679ZM16.2835 36.3392L18.2762 36.1682L16.2835 36.3392ZM17.1374 37.3333L16.8318 39.3098L17.1374 37.3333ZM16.2832 3.35546L18.2758 3.5275L16.2832 3.35546ZM17.1367 2.36174L17.4441 4.33797L17.1367 2.36174ZM17.9983 5.10404C18.1387 4.57999 18.2305 4.05275 18.2758 3.5275L14.2906 3.18341C14.2654 3.47619 14.2141 3.77212 14.1346 4.06877L17.9983 5.10404ZM6.8817 11.5222C11.7238 12.8196 16.7008 9.94613 17.9983 5.10404L14.1346 4.06877C13.4089 6.77699 10.6252 8.38417 7.91697 7.6585L6.8817 11.5222ZM5.9137 11.2043C6.22725 11.327 6.55021 11.4334 6.8817 11.5222L7.91698 7.6585C7.7292 7.60819 7.54742 7.54826 7.37187 7.47953L5.9137 11.2043ZM3.73577 8.5193C3.40239 8.99453 3.08733 9.48812 2.79204 9.99957L6.25614 11.9996C6.49258 11.5901 6.74439 11.1956 7.01036 10.8165L3.73577 8.5193ZM2.79204 9.99957C2.46468 10.5666 2.16849 11.1436 1.90307 11.7287L5.54574 13.3813C5.75742 12.9147 5.99404 12.4536 6.25614 11.9996L2.79204 9.99957ZM3.10877 15.5598C3.41443 15.7546 3.70518 15.9863 3.97497 16.2561L6.8034 13.4276C6.32652 12.9508 5.80792 12.5367 5.2585 12.1865L3.10877 15.5598ZM3.97497 16.2561C5.95752 18.2386 5.95752 21.453 3.97497 23.4355L6.8034 26.264C10.348 22.7193 10.348 16.9723 6.8034 13.4276L3.97497 16.2561ZM3.97497 23.4355C3.7052 23.7053 3.41447 23.937 3.10884 24.1318L5.25862 27.505C5.808 27.1549 6.32655 26.7408 6.8034 26.264L3.97497 23.4355ZM1.90075 27.957C2.40676 29.0787 3.0193 30.1568 3.73406 31.1745L7.00744 28.8756C6.43852 28.0655 5.95042 27.2066 5.5469 26.3122L1.90075 27.957ZM7.36996 32.2123C7.5461 32.1433 7.72852 32.0831 7.91697 32.0326L6.8817 28.1689C6.549 28.258 6.2249 28.3648 5.91028 28.4881L7.36996 32.2123ZM7.91697 32.0326C10.6252 31.3069 13.4089 32.9141 14.1346 35.6223L17.9983 34.587C16.7008 29.745 11.7238 26.8714 6.8817 28.1689L7.91697 32.0326ZM14.1346 35.6223C14.2143 35.9198 14.2657 36.2166 14.2909 36.5102L18.2762 36.1682C18.231 35.6414 18.1391 35.1126 17.9983 34.587L14.1346 35.6223ZM16.8318 39.3098C18.8481 39.6216 20.8825 39.6133 22.8627 39.3051L22.2476 35.3527C20.6677 35.5986 19.0469 35.6048 17.443 35.3568L16.8318 39.3098ZM25.4011 36.5074C25.4264 36.2146 25.4777 35.9188 25.5572 35.6222L21.6935 34.5869C21.5531 35.1109 21.4613 35.638 21.416 36.1631L25.4011 36.5074ZM25.5572 35.6222C26.2828 32.914 29.0665 31.3068 31.7748 32.0325L32.81 28.1687C27.968 26.8713 22.9909 29.7448 21.6935 34.5869L25.5572 35.6222ZM31.7748 32.0325C31.9624 32.0827 32.144 32.1426 32.3194 32.2112L33.7773 28.4864C33.464 28.3637 33.1413 28.2575 32.81 28.1687L31.7748 32.0325ZM35.9553 31.1714C36.2887 30.6962 36.6037 30.2026 36.8989 29.6912L33.4348 27.6912C33.1984 28.1007 32.9466 28.4951 32.6807 28.8742L35.9553 31.1714ZM36.8989 29.6912C37.2263 29.1243 37.5224 28.5472 37.7879 27.9622L34.1452 26.3096C33.9335 26.7762 33.6969 27.2373 33.4348 27.6912L36.8989 29.6912ZM36.5824 24.1313C36.2769 23.9366 35.9863 23.705 35.7167 23.4353L32.8882 26.2637C33.3649 26.7404 33.8832 27.1543 34.4324 27.5043L36.5824 24.1313ZM35.7167 23.4353C33.7341 21.4527 33.7341 18.2384 35.7167 16.2558L32.8882 13.4274C29.3436 16.972 29.3436 22.7191 32.8882 26.2637L35.7167 23.4353ZM35.7167 16.2558C35.9864 15.9861 36.277 15.7544 36.5826 15.5597L34.4327 12.1866C33.8834 12.5366 33.365 12.9506 32.8882 13.4274L35.7167 16.2558ZM37.7906 11.7346C37.2847 10.6129 36.6721 9.5347 35.9573 8.51686L32.6839 10.8157C33.2528 11.6258 33.7409 12.4848 34.1444 13.3793L37.7906 11.7346ZM32.3214 7.47896C32.1453 7.54798 31.9629 7.60814 31.7745 7.65863L32.8098 11.5223C33.1424 11.4332 33.4665 11.3264 33.781 11.2031L32.3214 7.47896ZM31.7745 7.65863C29.0663 8.3843 26.2826 6.77712 25.5569 4.0689L21.6932 5.10417C22.9906 9.94626 27.9677 12.8198 32.8098 11.5223L31.7745 7.65863ZM25.5569 4.0689C25.4772 3.77131 25.4258 3.47445 25.4006 3.18075L21.4153 3.52263C21.4605 4.04953 21.5524 4.57846 21.6932 5.10417L25.5569 4.0689ZM22.8598 0.381013C20.8436 0.069227 18.8093 0.07747 16.8292 0.38551L17.4441 4.33797C19.0239 4.09219 20.6446 4.086 22.2484 4.33402L22.8598 0.381013ZM25.4006 3.18075C25.2979 1.98298 24.4444 0.626065 22.8598 0.381013L22.2484 4.33402C21.9586 4.2892 21.7382 4.13538 21.6067 3.97675C21.4829 3.8275 21.4277 3.66716 21.4153 3.52263L25.4006 3.18075ZM35.9573 8.51686C35.0361 7.205 33.4416 7.03994 32.3214 7.47896L33.781 11.2031C33.6456 11.2562 33.4771 11.2777 33.2883 11.2328C33.0878 11.185 32.8524 11.0556 32.6839 10.8157L35.9573 8.51686ZM36.5826 15.5597C37.6657 14.8693 38.5069 13.3226 37.7906 11.7346L34.1444 13.3793C34.0141 13.0904 34.0345 12.7995 34.1104 12.5944C34.1812 12.4035 34.3014 12.2703 34.4327 12.1866L36.5826 15.5597ZM37.7879 27.9622C38.5089 26.3729 37.6669 24.8226 36.5824 24.1313L34.4324 27.5043C34.3009 27.4205 34.1806 27.2871 34.1099 27.0958C34.034 26.8903 34.014 26.5988 34.1452 26.3096L37.7879 27.9622ZM22.8627 39.3051C24.4447 39.0589 25.2977 37.7046 25.4011 36.5074L21.416 36.1631C21.4284 36.0187 21.4838 35.8586 21.6073 35.7095C21.7387 35.5512 21.9585 35.3977 22.2476 35.3527L22.8627 39.3051ZM3.73406 31.1745C4.65535 32.4863 6.24982 32.6513 7.36996 32.2123L5.91028 28.4881C6.04569 28.4351 6.21422 28.4136 6.40298 28.4585C6.60355 28.5062 6.83895 28.6357 7.00744 28.8756L3.73406 31.1745ZM32.3194 32.2112C33.4404 32.65 35.0348 32.4835 35.9553 31.1714L32.6807 28.8742C32.8489 28.6344 33.0841 28.5048 33.2846 28.457C33.4732 28.412 33.6418 28.4333 33.7773 28.4864L32.3194 32.2112ZM1.90307 11.7287C1.18198 13.3182 2.02419 14.8686 3.10877 15.5598L5.2585 12.1865C5.38999 12.2703 5.51032 12.4038 5.58098 12.5951C5.65689 12.8006 5.67695 13.092 5.54574 13.3813L1.90307 11.7287ZM3.10884 24.1318C2.02565 24.8221 1.18432 26.369 1.90075 27.957L5.5469 26.3122C5.67726 26.6011 5.65687 26.892 5.5809 27.0971C5.51016 27.2881 5.38994 27.4213 5.25862 27.505L3.10884 24.1318ZM7.37187 7.47953C6.25091 7.0407 4.65635 7.20703 3.73577 8.5193L7.01036 10.8165C6.84212 11.0563 6.60693 11.1859 6.40645 11.2337C6.21776 11.2787 6.0492 11.2573 5.9137 11.2043L7.37187 7.47953ZM14.2909 36.5102C14.3937 37.708 15.2472 39.0648 16.8318 39.3098L17.443 35.3568C17.7329 35.4016 17.9532 35.5554 18.0847 35.7141C18.2085 35.8633 18.2638 36.0236 18.2762 36.1682L14.2909 36.5102ZM18.2758 3.5275C18.2633 3.67194 18.208 3.8321 18.0844 3.98113C17.9531 4.13949 17.7333 4.29298 17.4441 4.33797L16.8292 0.38551C15.2471 0.631644 14.394 1.98614 14.2906 3.18341L18.2758 3.5275Z" fill="white" mask="url(#path-1-outside-1_3923_54199)"/>
<path d="M22.8847 14.5833C25.7911 16.2613 26.7869 19.9777 25.1089 22.8841C23.4308 25.7905 19.7144 26.7864 16.808 25.1083C13.9016 23.4303 12.9058 19.7139 14.5838 16.8075C16.2618 13.9011 19.9782 12.9052 22.8847 14.5833Z" stroke="white" stroke-width="2"/>
</g>
<defs>
<clipPath id="clip0_3923_54199">
<rect width="40" height="40" fill="white"/>
</clipPath>
</defs>
</svg>
