<svg width="270" height="64" viewBox="0 0 270 68" fill="none" xmlns="http://www.w3.org/2000/svg">
<path opacity="0.85" d="M53.2031 39.4688V48H52.0723V39.4688H53.2031ZM56.1797 43.0137V48H55.0957V41.6602H56.1211L56.1797 43.0137ZM55.9219 44.5898L55.4707 44.5723C55.4746 44.1387 55.5391 43.7383 55.6641 43.3711C55.7891 43 55.9648 42.6777 56.1914 42.4043C56.418 42.1309 56.6875 41.9199 57 41.7715C57.3164 41.6191 57.666 41.543 58.0488 41.543C58.3613 41.543 58.6426 41.5859 58.8926 41.6719C59.1426 41.7539 59.3555 41.8867 59.5312 42.0703C59.7109 42.2539 59.8477 42.4922 59.9414 42.7852C60.0352 43.0742 60.082 43.4277 60.082 43.8457V48H58.9922V43.834C58.9922 43.502 58.9434 43.2363 58.8457 43.0371C58.748 42.834 58.6055 42.6875 58.418 42.5977C58.2305 42.5039 58 42.457 57.7266 42.457C57.457 42.457 57.2109 42.5137 56.9883 42.627C56.7695 42.7402 56.5801 42.8965 56.4199 43.0957C56.2637 43.2949 56.1406 43.5234 56.0508 43.7812C55.9648 44.0352 55.9219 44.3047 55.9219 44.5898ZM65.4199 46.3184C65.4199 46.1621 65.3848 46.0176 65.3145 45.8848C65.248 45.748 65.1094 45.625 64.8984 45.5156C64.6914 45.4023 64.3789 45.3047 63.9609 45.2227C63.6094 45.1484 63.291 45.0605 63.0059 44.959C62.7246 44.8574 62.4844 44.7344 62.2852 44.5898C62.0898 44.4453 61.9395 44.2754 61.834 44.0801C61.7285 43.8848 61.6758 43.6562 61.6758 43.3945C61.6758 43.1445 61.7305 42.9082 61.8398 42.6855C61.9531 42.4629 62.1113 42.2656 62.3145 42.0938C62.5215 41.9219 62.7695 41.7871 63.0586 41.6895C63.3477 41.5918 63.6699 41.543 64.0254 41.543C64.5332 41.543 64.9668 41.6328 65.3262 41.8125C65.6855 41.9922 65.9609 42.2324 66.1523 42.5332C66.3438 42.8301 66.4395 43.1602 66.4395 43.5234H65.3555C65.3555 43.3477 65.3027 43.1777 65.1973 43.0137C65.0957 42.8457 64.9453 42.707 64.7461 42.5977C64.5508 42.4883 64.3105 42.4336 64.0254 42.4336C63.7246 42.4336 63.4805 42.4805 63.293 42.5742C63.1094 42.6641 62.9746 42.7793 62.8887 42.9199C62.8066 43.0605 62.7656 43.209 62.7656 43.3652C62.7656 43.4824 62.7852 43.5879 62.8242 43.6816C62.8672 43.7715 62.9414 43.8555 63.0469 43.9336C63.1523 44.0078 63.3008 44.0781 63.4922 44.1445C63.6836 44.2109 63.9277 44.2773 64.2246 44.3438C64.7441 44.4609 65.1719 44.6016 65.5078 44.7656C65.8438 44.9297 66.0938 45.1309 66.2578 45.3691C66.4219 45.6074 66.5039 45.8965 66.5039 46.2363C66.5039 46.5137 66.4453 46.7676 66.3281 46.998C66.2148 47.2285 66.0488 47.4277 65.8301 47.5957C65.6152 47.7598 65.3574 47.8887 65.0566 47.9824C64.7598 48.0723 64.4258 48.1172 64.0547 48.1172C63.4961 48.1172 63.0234 48.0176 62.6367 47.8184C62.25 47.6191 61.957 47.3613 61.7578 47.0449C61.5586 46.7285 61.459 46.3945 61.459 46.043H62.5488C62.5645 46.3398 62.6504 46.5762 62.8066 46.752C62.9629 46.9238 63.1543 47.0469 63.3809 47.1211C63.6074 47.1914 63.832 47.2266 64.0547 47.2266C64.3516 47.2266 64.5996 47.1875 64.7988 47.1094C65.002 47.0312 65.1562 46.9238 65.2617 46.7871C65.3672 46.6504 65.4199 46.4941 65.4199 46.3184ZM69.0117 42.8789V50.4375H67.9219V41.6602H68.918L69.0117 42.8789ZM73.2832 44.7773V44.9004C73.2832 45.3613 73.2285 45.7891 73.1191 46.1836C73.0098 46.5742 72.8496 46.9141 72.6387 47.2031C72.4316 47.4922 72.1758 47.7168 71.8711 47.877C71.5664 48.0371 71.2168 48.1172 70.8223 48.1172C70.4199 48.1172 70.0645 48.0508 69.7559 47.918C69.4473 47.7852 69.1855 47.5918 68.9707 47.3379C68.7559 47.084 68.584 46.7793 68.4551 46.4238C68.3301 46.0684 68.2441 45.668 68.1973 45.2227V44.5664C68.2441 44.0977 68.332 43.6777 68.4609 43.3066C68.5898 42.9355 68.7598 42.6191 68.9707 42.3574C69.1855 42.0918 69.4453 41.8906 69.75 41.7539C70.0547 41.6133 70.4062 41.543 70.8047 41.543C71.2031 41.543 71.5566 41.6211 71.8652 41.7773C72.1738 41.9297 72.4336 42.1484 72.6445 42.4336C72.8555 42.7188 73.0137 43.0605 73.1191 43.459C73.2285 43.8535 73.2832 44.293 73.2832 44.7773ZM72.1934 44.9004V44.7773C72.1934 44.4609 72.1602 44.1641 72.0938 43.8867C72.0273 43.6055 71.9238 43.3594 71.7832 43.1484C71.6465 42.9336 71.4707 42.7656 71.2559 42.6445C71.041 42.5195 70.7852 42.457 70.4883 42.457C70.2148 42.457 69.9766 42.5039 69.7734 42.5977C69.5742 42.6914 69.4043 42.8184 69.2637 42.9785C69.123 43.1348 69.0078 43.3145 68.918 43.5176C68.832 43.7168 68.7676 43.9238 68.7246 44.1387V45.6562C68.8027 45.9297 68.9121 46.1875 69.0527 46.4297C69.1934 46.668 69.3809 46.8613 69.6152 47.0098C69.8496 47.1543 70.1445 47.2266 70.5 47.2266C70.793 47.2266 71.0449 47.166 71.2559 47.0449C71.4707 46.9199 71.6465 46.75 71.7832 46.5352C71.9238 46.3203 72.0273 46.0742 72.0938 45.7969C72.1602 45.5156 72.1934 45.2168 72.1934 44.9004ZM77.2969 48.1172C76.8555 48.1172 76.4551 48.043 76.0957 47.8945C75.7402 47.7422 75.4336 47.5293 75.1758 47.2559C74.9219 46.9824 74.7266 46.6582 74.5898 46.2832C74.4531 45.9082 74.3848 45.498 74.3848 45.0527V44.8066C74.3848 44.291 74.4609 43.832 74.6133 43.4297C74.7656 43.0234 74.9727 42.6797 75.2344 42.3984C75.4961 42.1172 75.793 41.9043 76.125 41.7598C76.457 41.6152 76.8008 41.543 77.1562 41.543C77.6094 41.543 78 41.6211 78.3281 41.7773C78.6602 41.9336 78.9316 42.1523 79.1426 42.4336C79.3535 42.7109 79.5098 43.0391 79.6113 43.418C79.7129 43.793 79.7637 44.2031 79.7637 44.6484V45.1348H75.0293V44.25H78.6797V44.168C78.6641 43.8867 78.6055 43.6133 78.5039 43.3477C78.4062 43.082 78.25 42.8633 78.0352 42.6914C77.8203 42.5195 77.5273 42.4336 77.1562 42.4336C76.9102 42.4336 76.6836 42.4863 76.4766 42.5918C76.2695 42.6934 76.0918 42.8457 75.9434 43.0488C75.7949 43.252 75.6797 43.5 75.5977 43.793C75.5156 44.0859 75.4746 44.4238 75.4746 44.8066V45.0527C75.4746 45.3535 75.5156 45.6367 75.5977 45.9023C75.6836 46.1641 75.8066 46.3945 75.9668 46.5938C76.1309 46.793 76.3281 46.9492 76.5586 47.0625C76.793 47.1758 77.0586 47.2324 77.3555 47.2324C77.7383 47.2324 78.0625 47.1543 78.3281 46.998C78.5938 46.8418 78.8262 46.6328 79.0254 46.3711L79.6816 46.8926C79.5449 47.0996 79.3711 47.2969 79.1602 47.4844C78.9492 47.6719 78.6895 47.8242 78.3809 47.9414C78.0762 48.0586 77.7148 48.1172 77.2969 48.1172ZM83.5664 47.2266C83.8242 47.2266 84.0625 47.1738 84.2812 47.0684C84.5 46.9629 84.6797 46.8184 84.8203 46.6348C84.9609 46.4473 85.041 46.2344 85.0605 45.9961H86.0918C86.0723 46.3711 85.9453 46.7207 85.7109 47.0449C85.4805 47.3652 85.1777 47.625 84.8027 47.8242C84.4277 48.0195 84.0156 48.1172 83.5664 48.1172C83.0898 48.1172 82.6738 48.0332 82.3184 47.8652C81.9668 47.6973 81.6738 47.4668 81.4395 47.1738C81.209 46.8809 81.0352 46.5449 80.918 46.166C80.8047 45.7832 80.748 45.3789 80.748 44.9531V44.707C80.748 44.2812 80.8047 43.8789 80.918 43.5C81.0352 43.1172 81.209 42.7793 81.4395 42.4863C81.6738 42.1934 81.9668 41.9629 82.3184 41.7949C82.6738 41.627 83.0898 41.543 83.5664 41.543C84.0625 41.543 84.4961 41.6445 84.8672 41.8477C85.2383 42.0469 85.5293 42.3203 85.7402 42.668C85.9551 43.0117 86.0723 43.4023 86.0918 43.8398H85.0605C85.041 43.5781 84.9668 43.3418 84.8379 43.1309C84.7129 42.9199 84.541 42.752 84.3223 42.627C84.1074 42.498 83.8555 42.4336 83.5664 42.4336C83.2344 42.4336 82.9551 42.5 82.7285 42.6328C82.5059 42.7617 82.3281 42.9375 82.1953 43.1602C82.0664 43.3789 81.9727 43.623 81.9141 43.8926C81.8594 44.1582 81.832 44.4297 81.832 44.707V44.9531C81.832 45.2305 81.8594 45.5039 81.9141 45.7734C81.9688 46.043 82.0605 46.2871 82.1895 46.5059C82.3223 46.7246 82.5 46.9004 82.7227 47.0332C82.9492 47.1621 83.2305 47.2266 83.5664 47.2266ZM89.9648 41.6602V42.4922H86.5371V41.6602H89.9648ZM87.6973 40.1191H88.7812V46.4297C88.7812 46.6445 88.8145 46.8066 88.8809 46.916C88.9473 47.0254 89.0332 47.0977 89.1387 47.1328C89.2441 47.168 89.3574 47.1855 89.4785 47.1855C89.5684 47.1855 89.6621 47.1777 89.7598 47.1621C89.8613 47.1426 89.9375 47.127 89.9883 47.1152L89.9941 48C89.9082 48.0273 89.7949 48.0527 89.6543 48.0762C89.5176 48.1035 89.3516 48.1172 89.1562 48.1172C88.8906 48.1172 88.6465 48.0645 88.4238 47.959C88.2012 47.8535 88.0234 47.6777 87.8906 47.4316C87.7617 47.1816 87.6973 46.8457 87.6973 46.4238V40.1191ZM90.832 44.9004V44.7656C90.832 44.3086 90.8984 43.8848 91.0312 43.4941C91.1641 43.0996 91.3555 42.7578 91.6055 42.4688C91.8555 42.1758 92.1582 41.9492 92.5137 41.7891C92.8691 41.625 93.2676 41.543 93.709 41.543C94.1543 41.543 94.5547 41.625 94.9102 41.7891C95.2695 41.9492 95.5742 42.1758 95.8242 42.4688C96.0781 42.7578 96.2715 43.0996 96.4043 43.4941C96.5371 43.8848 96.6035 44.3086 96.6035 44.7656V44.9004C96.6035 45.3574 96.5371 45.7812 96.4043 46.1719C96.2715 46.5625 96.0781 46.9043 95.8242 47.1973C95.5742 47.4863 95.2715 47.7129 94.916 47.877C94.5645 48.0371 94.166 48.1172 93.7207 48.1172C93.2754 48.1172 92.875 48.0371 92.5195 47.877C92.1641 47.7129 91.8594 47.4863 91.6055 47.1973C91.3555 46.9043 91.1641 46.5625 91.0312 46.1719C90.8984 45.7812 90.832 45.3574 90.832 44.9004ZM91.916 44.7656V44.9004C91.916 45.2168 91.9531 45.5156 92.0273 45.7969C92.1016 46.0742 92.2129 46.3203 92.3613 46.5352C92.5137 46.75 92.7031 46.9199 92.9297 47.0449C93.1562 47.166 93.4199 47.2266 93.7207 47.2266C94.0176 47.2266 94.2773 47.166 94.5 47.0449C94.7266 46.9199 94.9141 46.75 95.0625 46.5352C95.2109 46.3203 95.3223 46.0742 95.3965 45.7969C95.4746 45.5156 95.5137 45.2168 95.5137 44.9004V44.7656C95.5137 44.4531 95.4746 44.1582 95.3965 43.8809C95.3223 43.5996 95.209 43.3516 95.0566 43.1367C94.9082 42.918 94.7207 42.7461 94.4941 42.6211C94.2715 42.4961 94.0098 42.4336 93.709 42.4336C93.4121 42.4336 93.1504 42.4961 92.9238 42.6211C92.7012 42.7461 92.5137 42.918 92.3613 43.1367C92.2129 43.3516 92.1016 43.5996 92.0273 43.8809C91.9531 44.1582 91.916 44.4531 91.916 44.7656ZM99.0469 42.6562V48H97.9629V41.6602H99.0176L99.0469 42.6562ZM101.027 41.625L101.021 42.6328C100.932 42.6133 100.846 42.6016 100.764 42.5977C100.686 42.5898 100.596 42.5859 100.494 42.5859C100.244 42.5859 100.023 42.625 99.832 42.7031C99.6406 42.7812 99.4785 42.8906 99.3457 43.0312C99.2129 43.1719 99.1074 43.3398 99.0293 43.5352C98.9551 43.7266 98.9062 43.9375 98.8828 44.168L98.5781 44.3438C98.5781 43.9609 98.6152 43.6016 98.6895 43.2656C98.7676 42.9297 98.8867 42.6328 99.0469 42.375C99.207 42.1133 99.4102 41.9102 99.6562 41.7656C99.9062 41.6172 100.203 41.543 100.547 41.543C100.625 41.543 100.715 41.5527 100.816 41.5723C100.918 41.5879 100.988 41.6055 101.027 41.625ZM108.744 46.916V43.6523C108.744 43.4023 108.693 43.1855 108.592 43.002C108.494 42.8145 108.346 42.6699 108.146 42.5684C107.947 42.4668 107.701 42.416 107.408 42.416C107.135 42.416 106.895 42.4629 106.688 42.5566C106.484 42.6504 106.324 42.7734 106.207 42.9258C106.094 43.0781 106.037 43.2422 106.037 43.418H104.953C104.953 43.1914 105.012 42.9668 105.129 42.7441C105.246 42.5215 105.414 42.3203 105.633 42.1406C105.855 41.957 106.121 41.8125 106.43 41.707C106.742 41.5977 107.09 41.543 107.473 41.543C107.934 41.543 108.34 41.6211 108.691 41.7773C109.047 41.9336 109.324 42.1699 109.523 42.4863C109.727 42.7988 109.828 43.1914 109.828 43.6641V46.6172C109.828 46.8281 109.846 47.0527 109.881 47.291C109.92 47.5293 109.977 47.7344 110.051 47.9062V48H108.92C108.865 47.875 108.822 47.709 108.791 47.502C108.76 47.291 108.744 47.0957 108.744 46.916ZM108.932 44.1562L108.943 44.918H107.848C107.539 44.918 107.264 44.9434 107.021 44.9941C106.779 45.041 106.576 45.1133 106.412 45.2109C106.248 45.3086 106.123 45.4316 106.037 45.5801C105.951 45.7246 105.908 45.8945 105.908 46.0898C105.908 46.2891 105.953 46.4707 106.043 46.6348C106.133 46.7988 106.268 46.9297 106.447 47.0273C106.631 47.1211 106.855 47.168 107.121 47.168C107.453 47.168 107.746 47.0977 108 46.957C108.254 46.8164 108.455 46.6445 108.604 46.4414C108.756 46.2383 108.838 46.041 108.85 45.8496L109.312 46.3711C109.285 46.5352 109.211 46.7168 109.09 46.916C108.969 47.1152 108.807 47.3066 108.604 47.4902C108.404 47.6699 108.166 47.8203 107.889 47.9414C107.615 48.0586 107.307 48.1172 106.963 48.1172C106.533 48.1172 106.156 48.0332 105.832 47.8652C105.512 47.6973 105.262 47.4727 105.082 47.1914C104.906 46.9062 104.818 46.5879 104.818 46.2363C104.818 45.8965 104.885 45.5977 105.018 45.3398C105.15 45.0781 105.342 44.8613 105.592 44.6895C105.842 44.5137 106.143 44.3809 106.494 44.291C106.846 44.2012 107.238 44.1562 107.672 44.1562H108.932ZM112.617 43.0137V48H111.533V41.6602H112.559L112.617 43.0137ZM112.359 44.5898L111.908 44.5723C111.912 44.1387 111.977 43.7383 112.102 43.3711C112.227 43 112.402 42.6777 112.629 42.4043C112.855 42.1309 113.125 41.9199 113.438 41.7715C113.754 41.6191 114.104 41.543 114.486 41.543C114.799 41.543 115.08 41.5859 115.33 41.6719C115.58 41.7539 115.793 41.8867 115.969 42.0703C116.148 42.2539 116.285 42.4922 116.379 42.7852C116.473 43.0742 116.52 43.4277 116.52 43.8457V48H115.43V43.834C115.43 43.502 115.381 43.2363 115.283 43.0371C115.186 42.834 115.043 42.6875 114.855 42.5977C114.668 42.5039 114.438 42.457 114.164 42.457C113.895 42.457 113.648 42.5137 113.426 42.627C113.207 42.7402 113.018 42.8965 112.857 43.0957C112.701 43.2949 112.578 43.5234 112.488 43.7812C112.402 44.0352 112.359 44.3047 112.359 44.5898ZM122.162 46.7695V39H123.252V48H122.256L122.162 46.7695ZM117.896 44.9004V44.7773C117.896 44.293 117.955 43.8535 118.072 43.459C118.193 43.0605 118.363 42.7188 118.582 42.4336C118.805 42.1484 119.068 41.9297 119.373 41.7773C119.682 41.6211 120.025 41.543 120.404 41.543C120.803 41.543 121.15 41.6133 121.447 41.7539C121.748 41.8906 122.002 42.0918 122.209 42.3574C122.42 42.6191 122.586 42.9355 122.707 43.3066C122.828 43.6777 122.912 44.0977 122.959 44.5664V45.1055C122.916 45.5703 122.832 45.9883 122.707 46.3594C122.586 46.7305 122.42 47.0469 122.209 47.3086C122.002 47.5703 121.748 47.7715 121.447 47.9121C121.146 48.0488 120.795 48.1172 120.393 48.1172C120.021 48.1172 119.682 48.0371 119.373 47.877C119.068 47.7168 118.805 47.4922 118.582 47.2031C118.363 46.9141 118.193 46.5742 118.072 46.1836C117.955 45.7891 117.896 45.3613 117.896 44.9004ZM118.986 44.7773V44.9004C118.986 45.2168 119.018 45.5137 119.08 45.791C119.146 46.0684 119.248 46.3125 119.385 46.5234C119.521 46.7344 119.695 46.9004 119.906 47.0215C120.117 47.1387 120.369 47.1973 120.662 47.1973C121.021 47.1973 121.316 47.1211 121.547 46.9688C121.781 46.8164 121.969 46.6152 122.109 46.3652C122.25 46.1152 122.359 45.8438 122.438 45.5508V44.1387C122.391 43.9238 122.322 43.7168 122.232 43.5176C122.146 43.3145 122.033 43.1348 121.893 42.9785C121.756 42.8184 121.586 42.6914 121.383 42.5977C121.184 42.5039 120.947 42.457 120.674 42.457C120.377 42.457 120.121 42.5195 119.906 42.6445C119.695 42.7656 119.521 42.9336 119.385 43.1484C119.248 43.3594 119.146 43.6055 119.08 43.8867C119.018 44.1641 118.986 44.4609 118.986 44.7773ZM133.254 47.0801V48H128.988V47.0801H133.254ZM129.211 39.4688V48H128.08V39.4688H129.211ZM134.098 44.9004V44.7656C134.098 44.3086 134.164 43.8848 134.297 43.4941C134.43 43.0996 134.621 42.7578 134.871 42.4688C135.121 42.1758 135.424 41.9492 135.779 41.7891C136.135 41.625 136.533 41.543 136.975 41.543C137.42 41.543 137.82 41.625 138.176 41.7891C138.535 41.9492 138.84 42.1758 139.09 42.4688C139.344 42.7578 139.537 43.0996 139.67 43.4941C139.803 43.8848 139.869 44.3086 139.869 44.7656V44.9004C139.869 45.3574 139.803 45.7812 139.67 46.1719C139.537 46.5625 139.344 46.9043 139.09 47.1973C138.84 47.4863 138.537 47.7129 138.182 47.877C137.83 48.0371 137.432 48.1172 136.986 48.1172C136.541 48.1172 136.141 48.0371 135.785 47.877C135.43 47.7129 135.125 47.4863 134.871 47.1973C134.621 46.9043 134.43 46.5625 134.297 46.1719C134.164 45.7812 134.098 45.3574 134.098 44.9004ZM135.182 44.7656V44.9004C135.182 45.2168 135.219 45.5156 135.293 45.7969C135.367 46.0742 135.479 46.3203 135.627 46.5352C135.779 46.75 135.969 46.9199 136.195 47.0449C136.422 47.166 136.686 47.2266 136.986 47.2266C137.283 47.2266 137.543 47.166 137.766 47.0449C137.992 46.9199 138.18 46.75 138.328 46.5352C138.477 46.3203 138.588 46.0742 138.662 45.7969C138.74 45.5156 138.779 45.2168 138.779 44.9004V44.7656C138.779 44.4531 138.74 44.1582 138.662 43.8809C138.588 43.5996 138.475 43.3516 138.322 43.1367C138.174 42.918 137.986 42.7461 137.76 42.6211C137.537 42.4961 137.275 42.4336 136.975 42.4336C136.678 42.4336 136.416 42.4961 136.189 42.6211C135.967 42.7461 135.779 42.918 135.627 43.1367C135.479 43.3516 135.367 43.5996 135.293 43.8809C135.219 44.1582 135.182 44.4531 135.182 44.7656ZM145.336 41.6602H146.32V47.8652C146.32 48.4238 146.207 48.9004 145.98 49.2949C145.754 49.6895 145.438 49.9883 145.031 50.1914C144.629 50.3984 144.164 50.502 143.637 50.502C143.418 50.502 143.16 50.4668 142.863 50.3965C142.57 50.3301 142.281 50.2148 141.996 50.0508C141.715 49.8906 141.479 49.6738 141.287 49.4004L141.855 48.7559C142.121 49.0762 142.398 49.2988 142.688 49.4238C142.98 49.5488 143.27 49.6113 143.555 49.6113C143.898 49.6113 144.195 49.5469 144.445 49.418C144.695 49.2891 144.889 49.0977 145.025 48.8438C145.166 48.5938 145.236 48.2852 145.236 47.918V43.0547L145.336 41.6602ZM140.971 44.9004V44.7773C140.971 44.293 141.027 43.8535 141.141 43.459C141.258 43.0605 141.424 42.7188 141.639 42.4336C141.857 42.1484 142.121 41.9297 142.43 41.7773C142.738 41.6211 143.086 41.543 143.473 41.543C143.871 41.543 144.219 41.6133 144.516 41.7539C144.816 41.8906 145.07 42.0918 145.277 42.3574C145.488 42.6191 145.654 42.9355 145.775 43.3066C145.896 43.6777 145.98 44.0977 146.027 44.5664V45.1055C145.984 45.5703 145.9 45.9883 145.775 46.3594C145.654 46.7305 145.488 47.0469 145.277 47.3086C145.07 47.5703 144.816 47.7715 144.516 47.9121C144.215 48.0488 143.863 48.1172 143.461 48.1172C143.082 48.1172 142.738 48.0371 142.43 47.877C142.125 47.7168 141.863 47.4922 141.645 47.2031C141.426 46.9141 141.258 46.5742 141.141 46.1836C141.027 45.7891 140.971 45.3613 140.971 44.9004ZM142.055 44.7773V44.9004C142.055 45.2168 142.086 45.5137 142.148 45.791C142.215 46.0684 142.314 46.3125 142.447 46.5234C142.584 46.7344 142.758 46.9004 142.969 47.0215C143.18 47.1387 143.432 47.1973 143.725 47.1973C144.084 47.1973 144.381 47.1211 144.615 46.9688C144.85 46.8164 145.035 46.6152 145.172 46.3652C145.312 46.1152 145.422 45.8438 145.5 45.5508V44.1387C145.457 43.9238 145.391 43.7168 145.301 43.5176C145.215 43.3145 145.102 43.1348 144.961 42.9785C144.824 42.8184 144.654 42.6914 144.451 42.5977C144.248 42.5039 144.01 42.457 143.736 42.457C143.439 42.457 143.184 42.5195 142.969 42.6445C142.758 42.7656 142.584 42.9336 142.447 43.1484C142.314 43.3594 142.215 43.6055 142.148 43.8867C142.086 44.1641 142.055 44.4609 142.055 44.7773ZM51.8203 55H52.9102V62.7695L52.8164 64H51.8203V55ZM57.1934 60.7773V60.9004C57.1934 61.3613 57.1387 61.7891 57.0293 62.1836C56.9199 62.5742 56.7598 62.9141 56.5488 63.2031C56.3379 63.4922 56.0801 63.7168 55.7754 63.877C55.4707 64.0371 55.1211 64.1172 54.7266 64.1172C54.3242 64.1172 53.9707 64.0488 53.666 63.9121C53.3652 63.7715 53.1113 63.5703 52.9043 63.3086C52.6973 63.0469 52.5312 62.7305 52.4062 62.3594C52.2852 61.9883 52.2012 61.5703 52.1543 61.1055V60.5664C52.2012 60.0977 52.2852 59.6777 52.4062 59.3066C52.5312 58.9355 52.6973 58.6191 52.9043 58.3574C53.1113 58.0918 53.3652 57.8906 53.666 57.7539C53.9668 57.6133 54.3164 57.543 54.7148 57.543C55.1133 57.543 55.4668 57.6211 55.7754 57.7773C56.084 57.9297 56.3418 58.1484 56.5488 58.4336C56.7598 58.7188 56.9199 59.0605 57.0293 59.459C57.1387 59.8535 57.1934 60.293 57.1934 60.7773ZM56.1035 60.9004V60.7773C56.1035 60.4609 56.0742 60.1641 56.0156 59.8867C55.957 59.6055 55.8633 59.3594 55.7344 59.1484C55.6055 58.9336 55.4355 58.7656 55.2246 58.6445C55.0137 58.5195 54.7539 58.457 54.4453 58.457C54.1719 58.457 53.9336 58.5039 53.7305 58.5977C53.5312 58.6914 53.3613 58.8184 53.2207 58.9785C53.0801 59.1348 52.9648 59.3145 52.875 59.5176C52.7891 59.7168 52.7246 59.9238 52.6816 60.1387V61.5508C52.7441 61.8242 52.8457 62.0879 52.9863 62.3418C53.1309 62.5918 53.3223 62.7969 53.5605 62.957C53.8027 63.1172 54.1016 63.1973 54.457 63.1973C54.75 63.1973 55 63.1387 55.207 63.0215C55.418 62.9004 55.5879 62.7344 55.7168 62.5234C55.8496 62.3125 55.9473 62.0684 56.0098 61.791C56.0723 61.5137 56.1035 61.2168 56.1035 60.9004ZM60.2754 63.3438L62.0391 57.6602H63.1992L60.6562 64.9785C60.5977 65.1348 60.5195 65.3027 60.4219 65.4824C60.3281 65.666 60.207 65.8398 60.0586 66.0039C59.9102 66.168 59.7305 66.3008 59.5195 66.4023C59.3125 66.5078 59.0645 66.5605 58.7754 66.5605C58.6895 66.5605 58.5801 66.5488 58.4473 66.5254C58.3145 66.502 58.2207 66.4824 58.166 66.4668L58.1602 65.5879C58.1914 65.5918 58.2402 65.5957 58.3066 65.5996C58.377 65.6074 58.4258 65.6113 58.4531 65.6113C58.6992 65.6113 58.9082 65.5781 59.0801 65.5117C59.252 65.4492 59.3965 65.3418 59.5137 65.1895C59.6348 65.041 59.7383 64.8359 59.8242 64.5742L60.2754 63.3438ZM58.9805 57.6602L60.627 62.582L60.9082 63.7246L60.1289 64.123L57.7969 57.6602H58.9805ZM71.8652 61.8438C71.8652 61.6445 71.834 61.4688 71.7715 61.3164C71.7129 61.1602 71.6074 61.0195 71.4551 60.8945C71.3066 60.7695 71.0996 60.6504 70.834 60.5371C70.5723 60.4238 70.2402 60.3086 69.8379 60.1914C69.416 60.0664 69.0352 59.9277 68.6953 59.7754C68.3555 59.6191 68.0645 59.4414 67.8223 59.2422C67.5801 59.043 67.3945 58.8145 67.2656 58.5566C67.1367 58.2988 67.0723 58.0039 67.0723 57.6719C67.0723 57.3398 67.1406 57.0332 67.2773 56.752C67.4141 56.4707 67.6094 56.2266 67.8633 56.0195C68.1211 55.8086 68.4277 55.6445 68.7832 55.5273C69.1387 55.4102 69.5352 55.3516 69.9727 55.3516C70.6133 55.3516 71.1562 55.4746 71.6016 55.7207C72.0508 55.9629 72.3926 56.2812 72.627 56.6758C72.8613 57.0664 72.9785 57.4844 72.9785 57.9297H71.8535C71.8535 57.6094 71.7852 57.3262 71.6484 57.0801C71.5117 56.8301 71.3047 56.6348 71.0273 56.4941C70.75 56.3496 70.3984 56.2773 69.9727 56.2773C69.5703 56.2773 69.2383 56.3379 68.9766 56.459C68.7148 56.5801 68.5195 56.7441 68.3906 56.9512C68.2656 57.1582 68.2031 57.3945 68.2031 57.6602C68.2031 57.8398 68.2402 58.0039 68.3145 58.1523C68.3926 58.2969 68.5117 58.4316 68.6719 58.5566C68.8359 58.6816 69.043 58.7969 69.293 58.9023C69.5469 59.0078 69.8496 59.1094 70.2012 59.207C70.6855 59.3438 71.1035 59.4961 71.4551 59.6641C71.8066 59.832 72.0957 60.0215 72.3223 60.2324C72.5527 60.4395 72.7227 60.6758 72.832 60.9414C72.9453 61.2031 73.002 61.5 73.002 61.832C73.002 62.1797 72.9316 62.4941 72.791 62.7754C72.6504 63.0566 72.4492 63.2969 72.1875 63.4961C71.9258 63.6953 71.6113 63.8496 71.2441 63.959C70.8809 64.0645 70.4746 64.1172 70.0254 64.1172C69.6309 64.1172 69.2422 64.0625 68.8594 63.9531C68.4805 63.8438 68.1348 63.6797 67.8223 63.4609C67.5137 63.2422 67.2656 62.9727 67.0781 62.6523C66.8945 62.3281 66.8027 61.9531 66.8027 61.5273H67.9277C67.9277 61.8203 67.9844 62.0723 68.0977 62.2832C68.2109 62.4902 68.3652 62.6621 68.5605 62.7988C68.7598 62.9355 68.9844 63.0371 69.2344 63.1035C69.4883 63.166 69.752 63.1973 70.0254 63.1973C70.4199 63.1973 70.7539 63.1426 71.0273 63.0332C71.3008 62.9238 71.5078 62.7676 71.6484 62.5645C71.793 62.3613 71.8652 62.1211 71.8652 61.8438ZM73.9922 60.9004V60.7656C73.9922 60.3086 74.0586 59.8848 74.1914 59.4941C74.3242 59.0996 74.5156 58.7578 74.7656 58.4688C75.0156 58.1758 75.3184 57.9492 75.6738 57.7891C76.0293 57.625 76.4277 57.543 76.8691 57.543C77.3145 57.543 77.7148 57.625 78.0703 57.7891C78.4297 57.9492 78.7344 58.1758 78.9844 58.4688C79.2383 58.7578 79.4316 59.0996 79.5645 59.4941C79.6973 59.8848 79.7637 60.3086 79.7637 60.7656V60.9004C79.7637 61.3574 79.6973 61.7812 79.5645 62.1719C79.4316 62.5625 79.2383 62.9043 78.9844 63.1973C78.7344 63.4863 78.4316 63.7129 78.0762 63.877C77.7246 64.0371 77.3262 64.1172 76.8809 64.1172C76.4355 64.1172 76.0352 64.0371 75.6797 63.877C75.3242 63.7129 75.0195 63.4863 74.7656 63.1973C74.5156 62.9043 74.3242 62.5625 74.1914 62.1719C74.0586 61.7812 73.9922 61.3574 73.9922 60.9004ZM75.0762 60.7656V60.9004C75.0762 61.2168 75.1133 61.5156 75.1875 61.7969C75.2617 62.0742 75.373 62.3203 75.5215 62.5352C75.6738 62.75 75.8633 62.9199 76.0898 63.0449C76.3164 63.166 76.5801 63.2266 76.8809 63.2266C77.1777 63.2266 77.4375 63.166 77.6602 63.0449C77.8867 62.9199 78.0742 62.75 78.2227 62.5352C78.3711 62.3203 78.4824 62.0742 78.5566 61.7969C78.6348 61.5156 78.6738 61.2168 78.6738 60.9004V60.7656C78.6738 60.4531 78.6348 60.1582 78.5566 59.8809C78.4824 59.5996 78.3691 59.3516 78.2168 59.1367C78.0684 58.918 77.8809 58.7461 77.6543 58.6211C77.4316 58.4961 77.1699 58.4336 76.8691 58.4336C76.5723 58.4336 76.3105 58.4961 76.084 58.6211C75.8613 58.7461 75.6738 58.918 75.5215 59.1367C75.373 59.3516 75.2617 59.5996 75.1875 59.8809C75.1133 60.1582 75.0762 60.4531 75.0762 60.7656ZM82.7402 64H81.6562V56.9922C81.6562 56.5352 81.7383 56.1504 81.9023 55.8379C82.0703 55.5215 82.3105 55.2832 82.623 55.123C82.9355 54.959 83.3066 54.877 83.7363 54.877C83.8613 54.877 83.9863 54.8848 84.1113 54.9004C84.2402 54.916 84.3652 54.9395 84.4863 54.9707L84.4277 55.8555C84.3457 55.8359 84.252 55.8223 84.1465 55.8145C84.0449 55.8066 83.9434 55.8027 83.8418 55.8027C83.6113 55.8027 83.4121 55.8496 83.2441 55.9434C83.0801 56.0332 82.9551 56.166 82.8691 56.3418C82.7832 56.5176 82.7402 56.7344 82.7402 56.9922V64ZM84.0879 57.6602V58.4922H80.6543V57.6602H84.0879ZM87.9492 57.6602V58.4922H84.5215V57.6602H87.9492ZM85.6816 56.1191H86.7656V62.4297C86.7656 62.6445 86.7988 62.8066 86.8652 62.916C86.9316 63.0254 87.0176 63.0977 87.123 63.1328C87.2285 63.168 87.3418 63.1855 87.4629 63.1855C87.5527 63.1855 87.6465 63.1777 87.7441 63.1621C87.8457 63.1426 87.9219 63.127 87.9727 63.1152L87.9785 64C87.8926 64.0273 87.7793 64.0527 87.6387 64.0762C87.502 64.1035 87.3359 64.1172 87.1406 64.1172C86.875 64.1172 86.6309 64.0645 86.4082 63.959C86.1855 63.8535 86.0078 63.6777 85.875 63.4316C85.7461 63.1816 85.6816 62.8457 85.6816 62.4238V56.1191ZM93.9316 61.8438C93.9316 61.6445 93.9004 61.4688 93.8379 61.3164C93.7793 61.1602 93.6738 61.0195 93.5215 60.8945C93.373 60.7695 93.166 60.6504 92.9004 60.5371C92.6387 60.4238 92.3066 60.3086 91.9043 60.1914C91.4824 60.0664 91.1016 59.9277 90.7617 59.7754C90.4219 59.6191 90.1309 59.4414 89.8887 59.2422C89.6465 59.043 89.4609 58.8145 89.332 58.5566C89.2031 58.2988 89.1387 58.0039 89.1387 57.6719C89.1387 57.3398 89.207 57.0332 89.3438 56.752C89.4805 56.4707 89.6758 56.2266 89.9297 56.0195C90.1875 55.8086 90.4941 55.6445 90.8496 55.5273C91.2051 55.4102 91.6016 55.3516 92.0391 55.3516C92.6797 55.3516 93.2227 55.4746 93.668 55.7207C94.1172 55.9629 94.459 56.2812 94.6934 56.6758C94.9277 57.0664 95.0449 57.4844 95.0449 57.9297H93.9199C93.9199 57.6094 93.8516 57.3262 93.7148 57.0801C93.5781 56.8301 93.3711 56.6348 93.0938 56.4941C92.8164 56.3496 92.4648 56.2773 92.0391 56.2773C91.6367 56.2773 91.3047 56.3379 91.043 56.459C90.7812 56.5801 90.5859 56.7441 90.457 56.9512C90.332 57.1582 90.2695 57.3945 90.2695 57.6602C90.2695 57.8398 90.3066 58.0039 90.3809 58.1523C90.459 58.2969 90.5781 58.4316 90.7383 58.5566C90.9023 58.6816 91.1094 58.7969 91.3594 58.9023C91.6133 59.0078 91.916 59.1094 92.2676 59.207C92.752 59.3438 93.1699 59.4961 93.5215 59.6641C93.873 59.832 94.1621 60.0215 94.3887 60.2324C94.6191 60.4395 94.7891 60.6758 94.8984 60.9414C95.0117 61.2031 95.0684 61.5 95.0684 61.832C95.0684 62.1797 94.998 62.4941 94.8574 62.7754C94.7168 63.0566 94.5156 63.2969 94.2539 63.4961C93.9922 63.6953 93.6777 63.8496 93.3105 63.959C92.9473 64.0645 92.541 64.1172 92.0918 64.1172C91.6973 64.1172 91.3086 64.0625 90.9258 63.9531C90.5469 63.8438 90.2012 63.6797 89.8887 63.4609C89.5801 63.2422 89.332 62.9727 89.1445 62.6523C88.9609 62.3281 88.8691 61.9531 88.8691 61.5273H89.9941C89.9941 61.8203 90.0508 62.0723 90.1641 62.2832C90.2773 62.4902 90.4316 62.6621 90.627 62.7988C90.8262 62.9355 91.0508 63.0371 91.3008 63.1035C91.5547 63.166 91.8184 63.1973 92.0918 63.1973C92.4863 63.1973 92.8203 63.1426 93.0938 63.0332C93.3672 62.9238 93.5742 62.7676 93.7148 62.5645C93.8594 62.3613 93.9316 62.1211 93.9316 61.8438ZM98.9766 64.1172C98.5352 64.1172 98.1348 64.043 97.7754 63.8945C97.4199 63.7422 97.1133 63.5293 96.8555 63.2559C96.6016 62.9824 96.4062 62.6582 96.2695 62.2832C96.1328 61.9082 96.0645 61.498 96.0645 61.0527V60.8066C96.0645 60.291 96.1406 59.832 96.293 59.4297C96.4453 59.0234 96.6523 58.6797 96.9141 58.3984C97.1758 58.1172 97.4727 57.9043 97.8047 57.7598C98.1367 57.6152 98.4805 57.543 98.8359 57.543C99.2891 57.543 99.6797 57.6211 100.008 57.7773C100.34 57.9336 100.611 58.1523 100.822 58.4336C101.033 58.7109 101.189 59.0391 101.291 59.418C101.393 59.793 101.443 60.2031 101.443 60.6484V61.1348H96.709V60.25H100.359V60.168C100.344 59.8867 100.285 59.6133 100.184 59.3477C100.086 59.082 99.9297 58.8633 99.7148 58.6914C99.5 58.5195 99.207 58.4336 98.8359 58.4336C98.5898 58.4336 98.3633 58.4863 98.1562 58.5918C97.9492 58.6934 97.7715 58.8457 97.623 59.0488C97.4746 59.252 97.3594 59.5 97.2773 59.793C97.1953 60.0859 97.1543 60.4238 97.1543 60.8066V61.0527C97.1543 61.3535 97.1953 61.6367 97.2773 61.9023C97.3633 62.1641 97.4863 62.3945 97.6465 62.5938C97.8105 62.793 98.0078 62.9492 98.2383 63.0625C98.4727 63.1758 98.7383 63.2324 99.0352 63.2324C99.418 63.2324 99.7422 63.1543 100.008 62.998C100.273 62.8418 100.506 62.6328 100.705 62.3711L101.361 62.8926C101.225 63.0996 101.051 63.2969 100.84 63.4844C100.629 63.6719 100.369 63.8242 100.061 63.9414C99.7559 64.0586 99.3945 64.1172 98.9766 64.1172ZM103.793 58.6562V64H102.709V57.6602H103.764L103.793 58.6562ZM105.773 57.625L105.768 58.6328C105.678 58.6133 105.592 58.6016 105.51 58.5977C105.432 58.5898 105.342 58.5859 105.24 58.5859C104.99 58.5859 104.77 58.625 104.578 58.7031C104.387 58.7812 104.225 58.8906 104.092 59.0312C103.959 59.1719 103.854 59.3398 103.775 59.5352C103.701 59.7266 103.652 59.9375 103.629 60.168L103.324 60.3438C103.324 59.9609 103.361 59.6016 103.436 59.2656C103.514 58.9297 103.633 58.6328 103.793 58.375C103.953 58.1133 104.156 57.9102 104.402 57.7656C104.652 57.6172 104.949 57.543 105.293 57.543C105.371 57.543 105.461 57.5527 105.562 57.5723C105.664 57.5879 105.734 57.6055 105.773 57.625ZM108.809 63.0215L110.543 57.6602H111.65L109.371 64H108.645L108.809 63.0215ZM107.361 57.6602L109.148 63.0508L109.271 64H108.545L106.248 57.6602H107.361ZM115.242 64.1172C114.801 64.1172 114.4 64.043 114.041 63.8945C113.686 63.7422 113.379 63.5293 113.121 63.2559C112.867 62.9824 112.672 62.6582 112.535 62.2832C112.398 61.9082 112.33 61.498 112.33 61.0527V60.8066C112.33 60.291 112.406 59.832 112.559 59.4297C112.711 59.0234 112.918 58.6797 113.18 58.3984C113.441 58.1172 113.738 57.9043 114.07 57.7598C114.402 57.6152 114.746 57.543 115.102 57.543C115.555 57.543 115.945 57.6211 116.273 57.7773C116.605 57.9336 116.877 58.1523 117.088 58.4336C117.299 58.7109 117.455 59.0391 117.557 59.418C117.658 59.793 117.709 60.2031 117.709 60.6484V61.1348H112.975V60.25H116.625V60.168C116.609 59.8867 116.551 59.6133 116.449 59.3477C116.352 59.082 116.195 58.8633 115.98 58.6914C115.766 58.5195 115.473 58.4336 115.102 58.4336C114.855 58.4336 114.629 58.4863 114.422 58.5918C114.215 58.6934 114.037 58.8457 113.889 59.0488C113.74 59.252 113.625 59.5 113.543 59.793C113.461 60.0859 113.42 60.4238 113.42 60.8066V61.0527C113.42 61.3535 113.461 61.6367 113.543 61.9023C113.629 62.1641 113.752 62.3945 113.912 62.5938C114.076 62.793 114.273 62.9492 114.504 63.0625C114.738 63.1758 115.004 63.2324 115.301 63.2324C115.684 63.2324 116.008 63.1543 116.273 62.998C116.539 62.8418 116.771 62.6328 116.971 62.3711L117.627 62.8926C117.49 63.0996 117.316 63.2969 117.105 63.4844C116.895 63.6719 116.635 63.8242 116.326 63.9414C116.021 64.0586 115.66 64.1172 115.242 64.1172Z" fill="#191A1D"/>
<path d="M53.62 9.99H65.77C67.07 9.99 68.17 10.24 69.07 10.74C69.97 11.24 70.63 11.88 71.05 12.66C71.49 13.44 71.71 14.25 71.71 15.09C71.71 16.31 71.39 17.33 70.75 18.15C70.11 18.95 69.29 19.46 68.29 19.68C69.39 19.84 70.3 20.38 71.02 21.3C71.74 22.2 72.1 23.29 72.1 24.57C72.1 25.53 71.88 26.43 71.44 27.27C71 28.09 70.33 28.75 69.43 29.25C68.55 29.75 67.47 30 66.19 30H53.62V9.99ZM64.36 17.43C64.68 17.43 64.96 17.31 65.2 17.07C65.44 16.81 65.56 16.5 65.56 16.14C65.56 15.8 65.44 15.51 65.2 15.27C64.96 15.03 64.68 14.91 64.36 14.91H59.68V17.43H64.36ZM64.54 25.08C64.96 25.08 65.3 24.95 65.56 24.69C65.82 24.43 65.95 24.11 65.95 23.73C65.95 23.35 65.82 23.03 65.56 22.77C65.3 22.49 64.96 22.35 64.54 22.35H59.68V25.08H64.54ZM72.858 20.01C72.858 18.01 73.338 16.22 74.298 14.64C75.258 13.06 76.568 11.84 78.228 10.98C79.908 10.1 81.768 9.66 83.808 9.66C85.848 9.66 87.698 10.1 89.358 10.98C91.038 11.84 92.358 13.06 93.318 14.64C94.278 16.22 94.758 18.01 94.758 20.01C94.758 22.01 94.278 23.8 93.318 25.38C92.358 26.96 91.038 28.19 89.358 29.07C87.698 29.93 85.848 30.36 83.808 30.36C81.768 30.36 79.908 29.93 78.228 29.07C76.568 28.19 75.258 26.96 74.298 25.38C73.338 23.8 72.858 22.01 72.858 20.01ZM88.608 20.01C88.608 19.09 88.408 18.25 88.008 17.49C87.608 16.71 87.038 16.1 86.298 15.66C85.578 15.22 84.748 15 83.808 15C82.868 15 82.028 15.22 81.288 15.66C80.568 16.1 80.008 16.71 79.608 17.49C79.208 18.25 79.008 19.09 79.008 20.01C79.008 20.93 79.208 21.78 79.608 22.56C80.008 23.32 80.568 23.92 81.288 24.36C82.028 24.8 82.868 25.02 83.808 25.02C84.748 25.02 85.578 24.8 86.298 24.36C87.038 23.92 87.608 23.32 88.008 22.56C88.408 21.78 88.608 20.93 88.608 20.01ZM100.011 15.27H94.6408V9.99H111.411V15.27H106.071V30H100.011V15.27ZM120.009 9.99H135.189V15.03H126.069V17.37H134.979V22.41H126.069V24.96H135.189V30H120.009V9.99ZM145.92 23.88L142.26 30H135.12L141.81 19.74L135.57 9.99H142.68L145.92 15.69L149.1 9.99H156.27L150.03 19.71L156.72 30H149.58L145.92 23.88ZM157.188 9.99H167.868C169.368 9.99 170.658 10.3 171.738 10.92C172.838 11.52 173.668 12.34 174.228 13.38C174.788 14.42 175.068 15.58 175.068 16.86C175.068 18.12 174.788 19.26 174.228 20.28C173.668 21.3 172.848 22.11 171.768 22.71C170.688 23.29 169.388 23.58 167.868 23.58H163.248V30H157.188V9.99ZM168.918 16.8C168.918 16.28 168.738 15.86 168.378 15.54C168.038 15.2 167.608 15.03 167.088 15.03H163.248V18.54H167.088C167.608 18.54 168.038 18.38 168.378 18.06C168.738 17.74 168.918 17.32 168.918 16.8ZM176.451 9.99H182.511V24.72H190.101V30H176.451V9.99ZM190.269 20.01C190.269 18.01 190.749 16.22 191.709 14.64C192.669 13.06 193.979 11.84 195.639 10.98C197.319 10.1 199.179 9.66 201.219 9.66C203.259 9.66 205.109 10.1 206.769 10.98C208.449 11.84 209.769 13.06 210.729 14.64C211.689 16.22 212.169 18.01 212.169 20.01C212.169 22.01 211.689 23.8 210.729 25.38C209.769 26.96 208.449 28.19 206.769 29.07C205.109 29.93 203.259 30.36 201.219 30.36C199.179 30.36 197.319 29.93 195.639 29.07C193.979 28.19 192.669 26.96 191.709 25.38C190.749 23.8 190.269 22.01 190.269 20.01ZM206.019 20.01C206.019 19.09 205.819 18.25 205.419 17.49C205.019 16.71 204.449 16.1 203.709 15.66C202.989 15.22 202.159 15 201.219 15C200.279 15 199.439 15.22 198.699 15.66C197.979 16.1 197.419 16.71 197.019 17.49C196.619 18.25 196.419 19.09 196.419 20.01C196.419 20.93 196.619 21.78 197.019 22.56C197.419 23.32 197.979 23.92 198.699 24.36C199.439 24.8 200.279 25.02 201.219 25.02C202.159 25.02 202.989 24.8 203.709 24.36C204.449 23.92 205.019 23.32 205.419 22.56C205.819 21.78 206.019 20.93 206.019 20.01ZM221.968 23.58H219.778V30H213.718V9.99H224.398C225.898 9.99 227.188 10.3 228.268 10.92C229.368 11.52 230.198 12.34 230.758 13.38C231.318 14.42 231.598 15.58 231.598 16.86C231.598 18.42 231.238 19.7 230.518 20.7C229.818 21.7 228.978 22.44 227.998 22.92L231.628 30H224.728L221.968 23.58ZM225.448 16.77C225.448 16.25 225.248 15.83 224.848 15.51C224.468 15.19 224.008 15.03 223.468 15.03H219.778V18.54H223.468C224.008 18.54 224.468 18.38 224.848 18.06C225.248 17.74 225.448 17.31 225.448 16.77ZM233.45 9.99H248.63V15.03H239.51V17.37H248.42V22.41H239.51V24.96H248.63V30H233.45V9.99ZM258.971 23.58H256.781V30H250.721V9.99H261.401C262.901 9.99 264.191 10.3 265.271 10.92C266.371 11.52 267.201 12.34 267.761 13.38C268.321 14.42 268.601 15.58 268.601 16.86C268.601 18.42 268.241 19.7 267.521 20.7C266.821 21.7 265.981 22.44 265.001 22.92L268.631 30H261.731L258.971 23.58ZM262.451 16.77C262.451 16.25 262.251 15.83 261.851 15.51C261.471 15.19 261.011 15.03 260.471 15.03H256.781V18.54H260.471C261.011 18.54 261.471 18.38 261.851 18.06C262.251 17.74 262.451 17.31 262.451 16.77Z" fill="#191A1D"/>
<g clip-path="url(#clip0_3923_56420)">
<mask id="path-3-outside-1_3923_56420" maskUnits="userSpaceOnUse" x="-6.98904" y="-6.83414" width="54.141" height="53.775" fill="black">
<rect fill="white" x="-6.98904" y="-6.83414" width="54.141" height="53.775"/>
<path fill-rule="evenodd" clip-rule="evenodd" d="M17.1366 2.36174C16.6546 2.43673 16.3252 2.86942 16.2832 3.35546C16.2479 3.76447 16.1764 4.17606 16.0664 4.5864C15.0549 8.36156 11.1745 10.6019 7.39931 9.59035C7.13968 9.52078 6.88731 9.43765 6.64275 9.34191C6.18799 9.16388 5.6535 9.26809 5.37303 9.6679C5.07336 10.0951 4.78992 10.5391 4.52406 10.9996C4.22933 11.5101 3.96293 12.0291 3.72437 12.555C3.50593 13.0365 3.7377 13.589 4.1836 13.8731C4.61114 14.1456 5.01581 14.4685 5.38915 14.8419C8.15276 17.6055 8.15276 22.0861 5.38915 24.8498C5.01584 25.2231 4.61121 25.5459 4.1837 25.8184C3.7385 26.1021 3.5067 26.6534 3.7238 27.1346C4.17856 28.1427 4.72888 29.1111 5.37072 30.0251C5.65128 30.4245 6.1856 30.5284 6.64009 30.3502C6.88547 30.254 7.13873 30.1706 7.3993 30.1007C11.1745 29.0892 15.0548 31.3295 16.0664 35.1047C16.1767 35.5162 16.2483 35.929 16.2835 36.3392C16.3252 36.8256 16.6549 37.2587 17.1374 37.3333C18.9475 37.6132 20.7751 37.6059 22.5551 37.3289C23.0371 37.2539 23.3665 36.8212 23.4085 36.3352C23.4438 35.9263 23.5154 35.5148 23.6253 35.1045C24.6368 31.3294 28.5172 29.089 32.2924 30.1006C32.5518 30.1701 32.804 30.2532 33.0483 30.3488C33.5031 30.5268 34.0375 30.4226 34.318 30.0228C34.6176 29.5956 34.901 29.1516 35.1669 28.6912C35.4616 28.1808 35.728 27.6617 35.9665 27.1359C36.1849 26.6545 35.9532 26.102 35.5074 25.8178C35.08 25.5454 34.6756 25.2227 34.3024 24.8495C31.5388 22.0859 31.5388 17.6052 34.3024 14.8416C34.6757 14.4684 35.0802 14.1455 35.5076 13.8731C35.9528 13.5894 36.1846 13.0382 35.9675 12.557C35.5128 11.5488 34.9624 10.5803 34.3206 9.66626C34.04 9.26676 33.5057 9.16292 33.0512 9.34105C32.8059 9.43721 32.5527 9.52067 32.2921 9.59048C28.517 10.602 24.6366 8.36169 23.625 4.58654C23.5147 4.17489 23.4431 3.76199 23.4079 3.35169C23.3662 2.86529 23.0365 2.43213 22.5541 2.35752C20.7441 2.07761 18.9166 2.08483 17.1366 2.36174Z"/>
</mask>
<path d="M16.0664 4.5864L17.9983 5.10404L17.9983 5.10404L16.0664 4.5864ZM7.39931 9.59035L6.88167 11.5222L6.88167 11.5222L7.39931 9.59035ZM5.38915 14.8419L6.80337 13.4276L6.80336 13.4276L5.38915 14.8419ZM5.38915 24.8498L6.80336 26.264L5.38915 24.8498ZM7.3993 30.1007L6.88167 28.1689L7.3993 30.1007ZM16.0664 35.1047L17.9982 34.587L17.9982 34.587L16.0664 35.1047ZM23.6253 35.1045L21.6934 34.5869L23.6253 35.1045ZM32.2924 30.1006L31.7747 32.0325L31.7747 32.0325L32.2924 30.1006ZM34.3024 24.8495L35.7166 23.4353L34.3024 24.8495ZM34.3024 14.8416L32.8882 13.4274L32.8882 13.4274L34.3024 14.8416ZM23.625 4.58654L21.6932 5.10417L21.6932 5.10417L23.625 4.58654ZM23.4079 3.35169L21.4152 3.52263L23.4079 3.35169ZM22.5541 2.35752L22.8597 0.381013L22.5541 2.35752ZM34.3206 9.66626L35.9573 8.51686L34.3206 9.66626ZM33.0512 9.34105L32.3214 7.47896L33.0512 9.34105ZM35.5076 13.8731L36.5826 15.5597L35.5076 13.8731ZM35.9665 27.1359L34.1452 26.3096L35.9665 27.1359ZM35.5074 25.8178L36.5824 24.1313L35.5074 25.8178ZM23.4085 36.3352L21.4159 36.1631L23.4085 36.3352ZM34.318 30.0228L35.9553 31.1714L34.318 30.0228ZM4.1836 13.8731L5.25846 12.1865L4.1836 13.8731ZM3.7238 27.1346L1.90072 27.957L3.7238 27.1346ZM6.64275 9.34191L5.91367 11.2043L6.64275 9.34191ZM16.2832 3.35546L14.2906 3.18341L16.2832 3.35546ZM17.1366 2.36174L16.8292 0.38551L17.1366 2.36174ZM17.9983 5.10404C18.1387 4.57999 18.2304 4.05275 18.2758 3.5275L14.2906 3.18341C14.2653 3.47619 14.214 3.77212 14.1345 4.06877L17.9983 5.10404ZM6.88167 11.5222C11.7238 12.8196 16.7008 9.94613 17.9983 5.10404L14.1345 4.06877C13.4089 6.77699 10.6252 8.38417 7.91694 7.6585L6.88167 11.5222ZM5.91367 11.2043C6.22722 11.327 6.55018 11.4334 6.88167 11.5222L7.91695 7.6585C7.72917 7.60819 7.54739 7.54826 7.37184 7.47953L5.91367 11.2043ZM3.73574 8.5193C3.40236 8.99453 3.0873 9.48812 2.79201 9.99957L6.25611 11.9996C6.49255 11.5901 6.74436 11.1956 7.01033 10.8165L3.73574 8.5193ZM2.79201 9.99957C2.46465 10.5666 2.16846 11.1436 1.90304 11.7287L5.54571 13.3813C5.75739 12.9147 5.994 12.4536 6.25611 11.9996L2.79201 9.99957ZM3.10874 15.5598C3.4144 15.7546 3.70515 15.9863 3.97494 16.2561L6.80336 13.4276C6.32648 12.9508 5.80789 12.5367 5.25846 12.1865L3.10874 15.5598ZM3.97494 16.2561C5.95749 18.2386 5.95749 21.453 3.97494 23.4355L6.80336 26.264C10.348 22.7193 10.348 16.9723 6.80337 13.4276L3.97494 16.2561ZM3.97494 23.4355C3.70517 23.7053 3.41444 23.937 3.10881 24.1318L5.25859 27.505C5.80797 27.1549 6.32652 26.7408 6.80336 26.264L3.97494 23.4355ZM1.90072 27.957C2.40673 29.0787 3.01927 30.1568 3.73403 31.1745L7.00741 28.8756C6.43848 28.0655 5.95039 27.2066 5.54687 26.3122L1.90072 27.957ZM7.36993 32.2123C7.54607 32.1433 7.72849 32.0831 7.91694 32.0326L6.88167 28.1689C6.54897 28.258 6.22487 28.3648 5.91025 28.4881L7.36993 32.2123ZM7.91694 32.0326C10.6252 31.3069 13.4089 32.9141 14.1345 35.6223L17.9982 34.587C16.7008 29.745 11.7238 26.8714 6.88167 28.1689L7.91694 32.0326ZM14.1345 35.6223C14.2143 35.9198 14.2656 36.2166 14.2908 36.5102L18.2762 36.1682C18.231 35.6414 18.1391 35.1126 17.9982 34.587L14.1345 35.6223ZM16.8318 39.3098C18.848 39.6216 20.8825 39.6133 22.8627 39.3051L22.2476 35.3527C20.6677 35.5986 19.0469 35.6048 17.443 35.3568L16.8318 39.3098ZM25.4011 36.5074C25.4264 36.2146 25.4777 35.9188 25.5571 35.6222L21.6934 34.5869C21.553 35.1109 21.4613 35.638 21.4159 36.1631L25.4011 36.5074ZM25.5571 35.6222C26.2828 32.914 29.0665 31.3068 31.7747 32.0325L32.81 28.1687C27.9679 26.8713 22.9909 29.7448 21.6934 34.5869L25.5571 35.6222ZM31.7747 32.0325C31.9624 32.0827 32.144 32.1426 32.3194 32.2112L33.7773 28.4864C33.4639 28.3637 33.1412 28.2575 32.81 28.1687L31.7747 32.0325ZM35.9553 31.1714C36.2886 30.6962 36.6037 30.2026 36.8989 29.6912L33.4348 27.6912C33.1984 28.1007 32.9466 28.4951 32.6807 28.8742L35.9553 31.1714ZM36.8989 29.6912C37.2262 29.1243 37.5224 28.5472 37.7878 27.9622L34.1452 26.3096C33.9335 26.7762 33.6969 27.2373 33.4348 27.6912L36.8989 29.6912ZM36.5824 24.1313C36.2769 23.9366 35.9863 23.705 35.7166 23.4353L32.8882 26.2637C33.3649 26.7404 33.8832 27.1543 34.4323 27.5043L36.5824 24.1313ZM35.7166 23.4353C33.7341 21.4527 33.7341 18.2384 35.7166 16.2558L32.8882 13.4274C29.3436 16.972 29.3436 22.7191 32.8882 26.2637L35.7166 23.4353ZM35.7166 16.2558C35.9863 15.9861 36.277 15.7544 36.5826 15.5597L34.4327 12.1866C33.8834 12.5366 33.365 12.9506 32.8882 13.4274L35.7166 16.2558ZM37.7906 11.7346C37.2846 10.6129 36.6721 9.5347 35.9573 8.51686L32.6839 10.8157C33.2528 11.6258 33.7409 12.4848 34.1444 13.3793L37.7906 11.7346ZM32.3214 7.47896C32.1453 7.54798 31.9629 7.60814 31.7745 7.65863L32.8098 11.5223C33.1424 11.4332 33.4664 11.3264 33.781 11.2031L32.3214 7.47896ZM31.7745 7.65863C29.0663 8.3843 26.2826 6.77712 25.5569 4.0689L21.6932 5.10417C22.9906 9.94626 27.9677 12.8198 32.8098 11.5223L31.7745 7.65863ZM25.5569 4.0689C25.4772 3.77131 25.4258 3.47445 25.4006 3.18075L21.4152 3.52263C21.4604 4.04953 21.5523 4.57846 21.6932 5.10417L25.5569 4.0689ZM22.8597 0.381013C20.8436 0.069227 18.8093 0.07747 16.8292 0.38551L17.4441 4.33797C19.0239 4.09219 20.6446 4.086 22.2484 4.33402L22.8597 0.381013ZM25.4006 3.18075C25.2978 1.98298 24.4444 0.626065 22.8597 0.381013L22.2484 4.33402C21.9586 4.2892 21.7382 4.13538 21.6067 3.97675C21.4829 3.8275 21.4276 3.66716 21.4152 3.52263L25.4006 3.18075ZM35.9573 8.51686C35.0361 7.205 33.4416 7.03994 32.3214 7.47896L33.781 11.2031C33.6456 11.2562 33.4771 11.2777 33.2883 11.2328C33.0877 11.185 32.8523 11.0556 32.6839 10.8157L35.9573 8.51686ZM36.5826 15.5597C37.6657 14.8693 38.5069 13.3226 37.7906 11.7346L34.1444 13.3793C34.0141 13.0904 34.0344 12.7995 34.1104 12.5944C34.1811 12.4035 34.3014 12.2703 34.4327 12.1866L36.5826 15.5597ZM37.7878 27.9622C38.5089 26.3729 37.6668 24.8226 36.5824 24.1313L34.4323 27.5043C34.3009 27.4205 34.1805 27.2871 34.1099 27.0958C34.034 26.8903 34.014 26.5988 34.1452 26.3096L37.7878 27.9622ZM22.8627 39.3051C24.4446 39.0589 25.2977 37.7046 25.4011 36.5074L21.4159 36.1631C21.4284 36.0187 21.4837 35.8586 21.6073 35.7095C21.7386 35.5512 21.9584 35.3977 22.2476 35.3527L22.8627 39.3051ZM3.73403 31.1745C4.65532 32.4863 6.24979 32.6513 7.36993 32.2123L5.91025 28.4881C6.04566 28.4351 6.21419 28.4136 6.40295 28.4585C6.60352 28.5062 6.83892 28.6357 7.00741 28.8756L3.73403 31.1745ZM32.3194 32.2112C33.4403 32.65 35.0348 32.4835 35.9553 31.1714L32.6807 28.8742C32.8489 28.6344 33.0841 28.5048 33.2845 28.457C33.4732 28.412 33.6418 28.4333 33.7773 28.4864L32.3194 32.2112ZM1.90304 11.7287C1.18195 13.3182 2.02416 14.8686 3.10874 15.5598L5.25846 12.1865C5.38996 12.2703 5.51029 12.4038 5.58095 12.5951C5.65686 12.8006 5.67692 13.092 5.54571 13.3813L1.90304 11.7287ZM3.10881 24.1318C2.02562 24.8221 1.18429 26.369 1.90072 27.957L5.54687 26.3122C5.67723 26.6011 5.65684 26.892 5.58087 27.0971C5.51013 27.2881 5.38991 27.4213 5.25859 27.505L3.10881 24.1318ZM7.37184 7.47953C6.25088 7.0407 4.65632 7.20703 3.73574 8.5193L7.01033 10.8165C6.84209 11.0563 6.6069 11.1859 6.40642 11.2337C6.21773 11.2787 6.04917 11.2573 5.91367 11.2043L7.37184 7.47953ZM14.2908 36.5102C14.3936 37.708 15.2472 39.0648 16.8318 39.3098L17.443 35.3568C17.7328 35.4016 17.9532 35.5554 18.0847 35.7141C18.2085 35.8633 18.2638 36.0236 18.2762 36.1682L14.2908 36.5102ZM18.2758 3.5275C18.2633 3.67194 18.208 3.8321 18.0844 3.98113C17.9531 4.13949 17.7332 4.29298 17.4441 4.33797L16.8292 0.38551C15.2471 0.631644 14.394 1.98614 14.2906 3.18341L18.2758 3.5275Z" fill="#191A1D" mask="url(#path-3-outside-1_3923_56420)"/>
<path d="M22.8847 14.5833C25.7911 16.2613 26.7869 19.9777 25.1089 22.8841C23.4309 25.7905 19.7145 26.7864 16.808 25.1083C13.9016 23.4303 12.9058 19.7139 14.5838 16.8075C16.2618 13.9011 19.9783 12.9052 22.8847 14.5833Z" stroke="#191A1D" stroke-width="2"/>
</g>
<defs>
<clipPath id="clip0_3923_56420">
<rect width="40" height="40" fill="white"/>
</clipPath>
</defs>
</svg>
