<svg width="40" height="40" viewBox="0 0 40 40" fill="none" xmlns="http://www.w3.org/2000/svg">
<g clip-path="url(#clip0_3923_44664)">
<mask id="path-1-outside-1_3923_44664" maskUnits="userSpaceOnUse" x="-6.98889" y="-6.83414" width="54.141" height="53.775">
<rect fill="white" x="-6.98889" y="-6.83414" width="54.141" height="53.775"/>
<path fill-rule="evenodd" clip-rule="evenodd" d="M17.1368 2.36174C16.6548 2.43673 16.3253 2.86942 16.2833 3.35546C16.248 3.76447 16.1765 4.17606 16.0666 4.5864C15.055 8.36156 11.1746 10.6019 7.39946 9.59035C7.13983 9.52078 6.88746 9.43765 6.6429 9.34191C6.18814 9.16388 5.65366 9.26809 5.37319 9.6679C5.07351 10.0951 4.79008 10.5391 4.52422 10.9996C4.22948 11.5101 3.96308 12.0291 3.72453 12.555C3.50608 13.0365 3.73785 13.589 4.18375 13.8731C4.6113 14.1456 5.01597 14.4685 5.3893 14.8419C8.15291 17.6055 8.15291 22.0861 5.3893 24.8498C5.016 25.2231 4.61136 25.5459 4.18385 25.8184C3.73865 26.1021 3.50685 26.6534 3.72395 27.1346C4.17871 28.1427 4.72903 29.1111 5.37087 30.0251C5.65143 30.4245 6.18575 30.5284 6.64024 30.3502C6.88563 30.254 7.13888 30.1706 7.39946 30.1007C11.1746 29.0892 15.055 31.3295 16.0665 35.1047C16.1768 35.5162 16.2484 35.929 16.2837 36.3392C16.3254 36.8256 16.6551 37.2587 17.1375 37.3333C18.9476 37.6132 20.7752 37.6059 22.5553 37.3289C23.0373 37.2539 23.3667 36.8212 23.4087 36.3352C23.444 35.9263 23.5155 35.5148 23.6254 35.1045C24.637 31.3294 28.5174 29.089 32.2925 30.1006C32.552 30.1701 32.8041 30.2532 33.0485 30.3488C33.5032 30.5268 34.0377 30.4226 34.3181 30.0228C34.6178 29.5956 34.9012 29.1516 35.167 28.6912C35.4617 28.1808 35.7281 27.6617 35.9666 27.1359C36.1851 26.6545 35.9534 26.102 35.5075 25.8178C35.0802 25.5454 34.6757 25.2227 34.3026 24.8495C31.539 22.0859 31.539 17.6052 34.3026 14.8416C34.6758 14.4684 35.0804 14.1455 35.5078 13.8731C35.9529 13.5894 36.1847 13.0382 35.9677 12.557C35.5129 11.5488 34.9626 10.5803 34.3207 9.66626C34.0402 9.26676 33.5059 9.16292 33.0514 9.34105C32.806 9.43721 32.5528 9.52067 32.2923 9.59048C28.5171 10.602 24.6367 8.36169 23.6252 4.58654C23.5149 4.17489 23.4433 3.76199 23.4081 3.35169C23.3663 2.86529 23.0367 2.43213 22.5542 2.35752C20.7442 2.07761 18.9167 2.08483 17.1368 2.36174Z" fill="#191A1D"/>
</mask>
<path d="M16.0666 4.5864L17.9984 5.10404L17.9984 5.10404L16.0666 4.5864ZM7.39946 9.59035L6.88182 11.5222L6.88182 11.5222L7.39946 9.59035ZM5.3893 14.8419L6.80352 13.4276L6.80352 13.4276L5.3893 14.8419ZM5.3893 24.8498L6.80352 26.264L5.3893 24.8498ZM7.39946 30.1007L6.88182 28.1689L7.39946 30.1007ZM16.0665 35.1047L17.9984 34.587L17.9984 34.587L16.0665 35.1047ZM23.6254 35.1045L21.6936 34.5869L23.6254 35.1045ZM32.2925 30.1006L31.7749 32.0325L31.7749 32.0325L32.2925 30.1006ZM34.3026 24.8495L35.7168 23.4353L34.3026 24.8495ZM34.3026 14.8416L32.8884 13.4274L32.8884 13.4274L34.3026 14.8416ZM23.6252 4.58654L21.6933 5.10417L21.6933 5.10417L23.6252 4.58654ZM23.4081 3.35169L25.4007 3.18075L23.4081 3.35169ZM34.3207 9.66626L32.684 10.8157L34.3207 9.66626ZM33.0514 9.34105L32.3216 7.47896L33.0514 9.34105ZM35.5078 13.8731L36.5827 15.5597L35.5078 13.8731ZM35.9666 27.1359L34.1453 26.3096L35.9666 27.1359ZM35.5075 25.8178L34.4325 27.5043L35.5075 25.8178ZM23.4087 36.3352L21.4161 36.1631L23.4087 36.3352ZM6.64024 30.3502L7.37008 32.2123L6.64024 30.3502ZM34.3181 30.0228L32.6808 28.8742L34.3181 30.0228ZM4.18375 13.8731L5.25862 12.1865L4.18375 13.8731ZM4.18385 25.8184L5.25875 27.505L4.18385 25.8184ZM6.6429 9.34191L7.37199 7.47953L6.6429 9.34191ZM16.2833 3.35546L14.2908 3.18341L16.2833 3.35546ZM17.1368 2.36174L16.8293 0.38551L17.1368 2.36174ZM17.9984 5.10404C18.1388 4.57999 18.2306 4.05275 18.2759 3.5275L14.2908 3.18341C14.2655 3.47619 14.2142 3.77212 14.1347 4.06877L17.9984 5.10404ZM6.88182 11.5222C11.7239 12.8196 16.701 9.94613 17.9984 5.10404L14.1347 4.06877C13.409 6.77699 10.6253 8.38417 7.9171 7.6585L6.88182 11.5222ZM5.91382 11.2043C6.22737 11.327 6.55033 11.4334 6.88182 11.5222L7.9171 7.6585C7.72933 7.60819 7.54754 7.54826 7.37199 7.47953L5.91382 11.2043ZM3.73589 8.5193C3.40251 8.99453 3.08745 9.48812 2.79217 9.99957L6.25627 11.9996C6.4927 11.5901 6.74452 11.1956 7.01048 10.8165L3.73589 8.5193ZM2.79217 9.99957C2.46481 10.5666 2.16862 11.1436 1.90319 11.7287L5.54586 13.3813C5.75755 12.9147 5.99416 12.4536 6.25627 11.9996L2.79217 9.99957ZM3.10889 15.5598C3.41455 15.7546 3.7053 15.9863 3.97509 16.2561L6.80352 13.4276C6.32664 12.9508 5.80804 12.5367 5.25862 12.1865L3.10889 15.5598ZM3.97509 16.2561C5.95765 18.2386 5.95765 21.453 3.97509 23.4355L6.80352 26.264C10.3482 22.7193 10.3482 16.9723 6.80352 13.4276L3.97509 16.2561ZM3.97509 23.4355C3.70532 23.7053 3.41459 23.937 3.10896 24.1318L5.25875 27.505C5.80812 27.1549 6.32667 26.7408 6.80352 26.264L3.97509 23.4355ZM1.90088 27.957C2.40688 29.0787 3.01942 30.1568 3.73418 31.1745L7.00756 28.8756C6.43864 28.0655 5.95054 27.2066 5.54702 26.3122L1.90088 27.957ZM7.37008 32.2123C7.54622 32.1433 7.72865 32.0831 7.91709 32.0326L6.88182 28.1689C6.54912 28.258 6.22503 28.3648 5.91041 28.4881L7.37008 32.2123ZM7.91709 32.0326C10.6253 31.3069 13.409 32.9141 14.1347 35.6223L17.9984 34.587C16.701 29.745 11.7239 26.8714 6.88182 28.1689L7.91709 32.0326ZM14.1347 35.6223C14.2144 35.9198 14.2658 36.2166 14.291 36.5102L18.2763 36.1682C18.2311 35.6414 18.1392 35.1126 17.9984 34.587L14.1347 35.6223ZM16.8319 39.3098C18.8482 39.6216 20.8826 39.6133 22.8628 39.3051L22.2477 35.3527C20.6678 35.5986 19.0471 35.6048 17.4431 35.3568L16.8319 39.3098ZM25.4012 36.5074C25.4265 36.2146 25.4778 35.9188 25.5573 35.6222L21.6936 34.5869C21.5532 35.1109 21.4614 35.638 21.4161 36.1631L25.4012 36.5074ZM25.5573 35.6222C26.283 32.914 29.0667 31.3068 31.7749 32.0325L32.8102 28.1687C27.9681 26.8713 22.991 29.7448 21.6936 34.5869L25.5573 35.6222ZM31.7749 32.0325C31.9625 32.0827 32.1441 32.1426 32.3196 32.2112L33.7774 28.4864C33.4641 28.3637 33.1414 28.2575 32.8102 28.1687L31.7749 32.0325ZM35.9554 31.1714C36.2888 30.6962 36.6038 30.2026 36.8991 29.6912L33.435 27.6912C33.1986 28.1007 32.9468 28.4951 32.6808 28.8742L35.9554 31.1714ZM36.8991 29.6912C37.2264 29.1243 37.5226 28.5472 37.788 27.9622L34.1453 26.3096C33.9336 26.7762 33.6971 27.2373 33.435 27.6912L36.8991 29.6912ZM36.5826 24.1313C36.277 23.9366 35.9864 23.705 35.7168 23.4353L32.8884 26.2637C33.365 26.7404 33.8833 27.1543 34.4325 27.5043L36.5826 24.1313ZM35.7168 23.4353C33.7342 21.4527 33.7342 18.2384 35.7168 16.2558L32.8884 13.4274C29.3437 16.972 29.3437 22.7191 32.8884 26.2637L35.7168 23.4353ZM35.7168 16.2558C35.9865 15.9861 36.2772 15.7544 36.5827 15.5597L34.4328 12.1866C33.8836 12.5366 33.3651 12.9506 32.8884 13.4274L35.7168 16.2558ZM37.7908 11.7346C37.2848 10.6129 36.6722 9.5347 35.9575 8.51686L32.684 10.8157C33.2529 11.6258 33.741 12.4848 34.1445 13.3793L37.7908 11.7346ZM32.3216 7.47896C32.1455 7.54798 31.9631 7.60814 31.7746 7.65863L32.8099 11.5223C33.1425 11.4332 33.4666 11.3264 33.7812 11.2031L32.3216 7.47896ZM31.7746 7.65863C29.0664 8.3843 26.2827 6.77712 25.557 4.0689L21.6933 5.10417C22.9908 9.94626 27.9678 12.8198 32.8099 11.5223L31.7746 7.65863ZM25.557 4.0689C25.4773 3.77131 25.4259 3.47445 25.4007 3.18075L21.4154 3.52263C21.4606 4.04953 21.5525 4.57846 21.6933 5.10417L25.557 4.0689ZM22.8599 0.381013C20.8437 0.069227 18.8094 0.07747 16.8293 0.38551L17.4442 4.33797C19.024 4.09219 20.6447 4.086 22.2486 4.33402L22.8599 0.381013ZM25.4007 3.18075C25.298 1.98298 24.4445 0.626065 22.8599 0.381013L22.2486 4.33402C21.9587 4.2892 21.7383 4.13538 21.6068 3.97675C21.4831 3.8275 21.4278 3.66716 21.4154 3.52263L25.4007 3.18075ZM35.9575 8.51686C35.0362 7.205 33.4417 7.03994 32.3216 7.47896L33.7812 11.2031C33.6457 11.2562 33.4772 11.2777 33.2885 11.2328C33.0879 11.185 32.8525 11.0556 32.684 10.8157L35.9575 8.51686ZM36.5827 15.5597C37.6658 14.8693 38.5071 13.3226 37.7908 11.7346L34.1445 13.3793C34.0142 13.0904 34.0346 12.7995 34.1106 12.5944C34.1813 12.4035 34.3015 12.2703 34.4328 12.1866L36.5827 15.5597ZM37.788 27.9622C38.509 26.3729 37.667 24.8226 36.5826 24.1313L34.4325 27.5043C34.301 27.4205 34.1807 27.2871 34.1101 27.0958C34.0342 26.8903 34.0141 26.5988 34.1453 26.3096L37.788 27.9622ZM22.8628 39.3051C24.4448 39.0589 25.2978 37.7046 25.4012 36.5074L21.4161 36.1631C21.4286 36.0187 21.4839 35.8586 21.6075 35.7095C21.7388 35.5512 21.9586 35.3977 22.2477 35.3527L22.8628 39.3051ZM3.73418 31.1745C4.65547 32.4863 6.24994 32.6513 7.37008 32.2123L5.91041 28.4881C6.04582 28.4351 6.21434 28.4136 6.4031 28.4585C6.60367 28.5062 6.83908 28.6357 7.00756 28.8756L3.73418 31.1745ZM32.3196 32.2112C33.4405 32.65 35.0349 32.4835 35.9554 31.1714L32.6808 28.8742C32.849 28.6344 33.0842 28.5048 33.2847 28.457C33.4734 28.412 33.6419 28.4333 33.7774 28.4864L32.3196 32.2112ZM1.90319 11.7287C1.1821 13.3182 2.02432 14.8686 3.10889 15.5598L5.25862 12.1865C5.39011 12.2703 5.51044 12.4038 5.5811 12.5951C5.65701 12.8006 5.67707 13.092 5.54586 13.3813L1.90319 11.7287ZM3.10896 24.1318C2.02577 24.8221 1.18444 26.369 1.90088 27.957L5.54702 26.3122C5.67738 26.6011 5.65699 26.892 5.58102 27.0971C5.51029 27.2881 5.39006 27.4213 5.25875 27.505L3.10896 24.1318ZM7.37199 7.47953C6.25103 7.0407 4.65648 7.20703 3.73589 8.5193L7.01048 10.8165C6.84224 11.0563 6.60705 11.1859 6.40657 11.2337C6.21788 11.2787 6.04932 11.2573 5.91382 11.2043L7.37199 7.47953ZM14.291 36.5102C14.3938 37.708 15.2473 39.0648 16.8319 39.3098L17.4431 35.3568C17.733 35.4016 17.9533 35.5554 18.0849 35.7141C18.2086 35.8633 18.2639 36.0236 18.2763 36.1682L14.291 36.5102ZM18.2759 3.5275C18.2635 3.67194 18.2081 3.8321 18.0846 3.98113C17.9532 4.13949 17.7334 4.29298 17.4442 4.33797L16.8293 0.38551C15.2472 0.631644 14.3941 1.98614 14.2908 3.18341L18.2759 3.5275Z" fill="#191A1D" mask="url(#path-1-outside-1_3923_44664)"/>
<path d="M22.8849 14.5833C25.7913 16.2613 26.7871 19.9777 25.1091 22.8841C23.4311 25.7905 19.7147 26.7864 16.8082 25.1083C13.9018 23.4303 12.906 19.7139 14.584 16.8075C16.2621 13.9011 19.9785 12.9052 22.8849 14.5833Z" stroke="#191A1D" stroke-width="2"/>
</g>
<defs>
<clipPath id="clip0_3923_44664">
<rect width="40" height="40" fill="#191A1D"/>
</clipPath>
</defs>
</svg>
